<?xml version="1.0" encoding="UTF-8" standalone="no"?>
<!-- Created with Inkscape (http://www.inkscape.org/) -->

<svg
   xmlns:dc="http://purl.org/dc/elements/1.1/"
   xmlns:cc="http://creativecommons.org/ns#"
   xmlns:rdf="http://www.w3.org/1999/02/22-rdf-syntax-ns#"
   xmlns:svg="http://www.w3.org/2000/svg"
   xmlns="http://www.w3.org/2000/svg"
   xmlns:sodipodi="http://sodipodi.sourceforge.net/DTD/sodipodi-0.dtd"
   xmlns:inkscape="http://www.inkscape.org/namespaces/inkscape"
   width="210mm"
   height="297mm"
   viewBox="0 0 744.09448819 1052.3622047"
   id="svg2"
   version="1.1"
   inkscape:version="0.91 r13725"
   sodipodi:docname="CEmarking_logo-revectorized.svg">
  <defs
     id="defs4" />
  <sodipodi:namedview
     id="base"
     pagecolor="#ffffff"
     bordercolor="#666666"
     borderopacity="1.0"
     inkscape:pageopacity="0.0"
     inkscape:pageshadow="2"
     inkscape:zoom="4.7557916"
     inkscape:cx="174.82489"
     inkscape:cy="124.37467"
     inkscape:document-units="px"
     inkscape:current-layer="layer1"
     showgrid="false"
     inkscape:window-width="2560"
     inkscape:window-height="1349"
     inkscape:window-x="0"
     inkscape:window-y="0"
     inkscape:window-maximized="1" />
  <metadata
     id="metadata7">
    <rdf:RDF>
      <cc:Work
         rdf:about="">
        <dc:format>image/svg+xml</dc:format>
        <dc:type
           rdf:resource="http://purl.org/dc/dcmitype/StillImage" />
        <dc:title></dc:title>
      </cc:Work>
    </rdf:RDF>
  </metadata>
  <g
     inkscape:label="Ebene 1"
     inkscape:groupmode="layer"
     id="layer1">
    <path
       style="fill:#000000"
       d="m 3.7403823,1052.3172 c -0.1269433,-0.018 -0.377335,-0.078 -0.5564264,-0.1326 -2.75504471,-0.8366 -4.00954586,-3.9373 -2.60257602,-6.4328 0.60194592,-1.0677 1.56895812,-1.8047 2.78105862,-2.1195 0.361778,-0.094 1.2067367,-0.1612 1.4039361,-0.1117 l 0.117353,0.029 0,0.6666 0,0.6666 -0.4117556,-0 c -1.5737552,-0.012 -2.8545192,1.1192 -3.0662516,2.7095 -0.044013,0.3305 -0.040683,0.4592 0.021396,0.8267 0.136857,0.81 0.4975272,1.4295 1.1253004,1.9329 0.5480331,0.4394 1.1460816,0.6475 1.8748116,0.6524 l 0.4560399,0 2.138e-4,0.6789 2.492e-4,0.6788 -0.4562697,-0.01 c -0.2509485,-0 -0.5601326,-0.021 -0.6870759,-0.039 z m 7.3826187,-0 c -0.844331,-0.1403 -1.7975543,-0.659 -2.405251,-1.3086 -2.0393484,-2.1801 -1.4223217,-5.6668 1.2405873,-7.0103 0.5944947,-0.3 1.3797637,-0.4894 2.0253927,-0.4886 0.497596,0 0.467398,-0.046 0.467398,0.7303 l 0,0.6762 -0.402045,-0.019 c -0.808265,-0.039 -1.548279,0.2362 -2.1640564,0.8038 -0.3816107,0.3518 -0.77005,1.0009 -0.8791758,1.4693 l -0.02852,0.1224 1.2695002,0 1.2695,0 0,0.6677 0,0.6677 -1.2695,0 -1.2695002,0 0.029357,0.1225 c 0.1897937,0.7913 0.8403995,1.5848 1.5985127,1.9495 0.459508,0.2211 0.818868,0.303 1.344913,0.3065 l 0.45604,0 2.14e-4,0.6788 2.49e-4,0.6789 -0.523041,-0.01 c -0.287672,-0 -0.62993,-0.023 -0.760572,-0.045 z"
       id="path4323"
       inkscape:connector-curvature="0" />
  </g>
</svg>
