G75*
%MOIN*%
%OFA0B0*%
%FSLAX25Y25*%
%IPPOS*%
%LPD*%
%AMOC8*
5,1,8,0,0,1.08239X$1,22.5*
%
%ADD10C,0.00000*%
%ADD11C,0.00800*%
%ADD12C,0.00200*%
%ADD13R,0.06200X0.02400*%
%ADD14C,0.03200*%
%ADD15C,0.00300*%
%ADD16C,0.00500*%
D10*
X0022595Y0009348D02*
X0412516Y0009348D01*
X0412516Y0203167D01*
X0022595Y0203167D01*
X0022595Y0009348D01*
D11*
X0034775Y0043951D02*
X0034775Y0045553D01*
X0035309Y0046087D01*
X0035842Y0046087D01*
X0036376Y0045553D01*
X0036376Y0043951D01*
X0034775Y0043951D02*
X0037978Y0043951D01*
X0037978Y0045553D01*
X0037444Y0046087D01*
X0036910Y0046087D01*
X0036376Y0045553D01*
X0034775Y0047635D02*
X0034775Y0048702D01*
X0034775Y0048168D02*
X0037978Y0048168D01*
X0037978Y0047635D01*
X0036910Y0050090D02*
X0035309Y0050090D01*
X0034775Y0050624D01*
X0034775Y0052225D01*
X0036910Y0052225D01*
X0036376Y0053773D02*
X0036910Y0054307D01*
X0036910Y0055374D01*
X0036376Y0055908D01*
X0035842Y0055908D01*
X0035842Y0053773D01*
X0035309Y0053773D02*
X0036376Y0053773D01*
X0035309Y0053773D02*
X0034775Y0054307D01*
X0034775Y0055374D01*
X0035309Y0057990D02*
X0034775Y0058524D01*
X0035309Y0057990D02*
X0037444Y0057990D01*
X0036910Y0057456D02*
X0036910Y0058524D01*
X0036376Y0059912D02*
X0035309Y0059912D01*
X0034775Y0060445D01*
X0034775Y0061513D01*
X0035309Y0062047D01*
X0036376Y0062047D01*
X0036910Y0061513D01*
X0036910Y0060445D01*
X0036376Y0059912D01*
X0036376Y0063595D02*
X0035309Y0063595D01*
X0034775Y0064129D01*
X0034775Y0065196D01*
X0035309Y0065730D01*
X0036376Y0065730D01*
X0036910Y0065196D01*
X0036910Y0064129D01*
X0036376Y0063595D01*
X0036910Y0067278D02*
X0036910Y0068346D01*
X0037444Y0067812D02*
X0035309Y0067812D01*
X0034775Y0068346D01*
X0034775Y0069733D02*
X0037978Y0069733D01*
X0036910Y0070267D02*
X0036910Y0071335D01*
X0036376Y0071869D01*
X0034775Y0071869D01*
X0036376Y0069733D02*
X0036910Y0070267D01*
X0035309Y0077100D02*
X0035842Y0077633D01*
X0035842Y0079235D01*
X0036376Y0079235D02*
X0034775Y0079235D01*
X0034775Y0077633D01*
X0035309Y0077100D01*
X0036910Y0077633D02*
X0036910Y0078701D01*
X0036376Y0079235D01*
X0036910Y0080783D02*
X0034775Y0080783D01*
X0034775Y0082918D02*
X0036376Y0082918D01*
X0036910Y0082384D01*
X0036910Y0080783D01*
X0036910Y0084466D02*
X0036910Y0085534D01*
X0037444Y0085000D02*
X0035309Y0085000D01*
X0034775Y0085534D01*
X0035309Y0086921D02*
X0036376Y0086921D01*
X0036910Y0087455D01*
X0036910Y0088523D01*
X0036376Y0089057D01*
X0035842Y0089057D01*
X0035842Y0086921D01*
X0035309Y0086921D02*
X0034775Y0087455D01*
X0034775Y0088523D01*
X0034775Y0090605D02*
X0036910Y0090605D01*
X0036910Y0092206D01*
X0036376Y0092740D01*
X0034775Y0092740D01*
X0034775Y0094288D02*
X0036910Y0094288D01*
X0036910Y0095889D01*
X0036376Y0096423D01*
X0034775Y0096423D01*
X0035309Y0097971D02*
X0035842Y0098505D01*
X0035842Y0100106D01*
X0036376Y0100106D02*
X0034775Y0100106D01*
X0034775Y0098505D01*
X0035309Y0097971D01*
X0036910Y0098505D02*
X0036910Y0099572D01*
X0036376Y0100106D01*
X0090351Y0134781D02*
X0090351Y0146592D01*
X0102162Y0146592D01*
X0173028Y0146592D02*
X0184839Y0146592D01*
X0184839Y0134781D01*
X0245233Y0126880D02*
X0249957Y0126880D01*
X0247595Y0130817D01*
X0245233Y0126880D01*
X0340233Y0151817D02*
X0344957Y0151817D01*
X0342595Y0147880D01*
X0340233Y0151817D01*
X0350233Y0151817D02*
X0354957Y0151817D01*
X0352595Y0147880D01*
X0350233Y0151817D01*
X0179195Y0189040D02*
X0178661Y0188506D01*
X0177594Y0188506D01*
X0177060Y0189040D01*
X0177060Y0190108D01*
X0178128Y0190108D01*
X0179195Y0191175D02*
X0179195Y0189040D01*
X0179195Y0191175D02*
X0178661Y0191709D01*
X0177594Y0191709D01*
X0177060Y0191175D01*
X0175512Y0191175D02*
X0175512Y0190642D01*
X0174978Y0190108D01*
X0173911Y0190108D01*
X0173377Y0189574D01*
X0173377Y0189040D01*
X0173911Y0188506D01*
X0174978Y0188506D01*
X0175512Y0189040D01*
X0175512Y0191175D02*
X0174978Y0191709D01*
X0173911Y0191709D01*
X0173377Y0191175D01*
X0171829Y0191709D02*
X0170761Y0190642D01*
X0169694Y0191709D01*
X0169694Y0188506D01*
X0171829Y0188506D02*
X0171829Y0191709D01*
X0164463Y0189040D02*
X0163929Y0189574D01*
X0162327Y0189574D01*
X0162327Y0190108D02*
X0162327Y0188506D01*
X0163929Y0188506D01*
X0164463Y0189040D01*
X0163929Y0190642D02*
X0162861Y0190642D01*
X0162327Y0190108D01*
X0160779Y0190642D02*
X0159178Y0190642D01*
X0158644Y0190108D01*
X0158644Y0188506D01*
X0160779Y0188506D02*
X0160779Y0190642D01*
X0157096Y0190642D02*
X0156029Y0190642D01*
X0156562Y0191175D02*
X0156562Y0189040D01*
X0156029Y0188506D01*
X0154641Y0189040D02*
X0154641Y0190108D01*
X0154107Y0190642D01*
X0153039Y0190642D01*
X0152506Y0190108D01*
X0152506Y0189574D01*
X0154641Y0189574D01*
X0154641Y0189040D02*
X0154107Y0188506D01*
X0153039Y0188506D01*
X0150958Y0188506D02*
X0150958Y0190642D01*
X0149356Y0190642D01*
X0148823Y0190108D01*
X0148823Y0188506D01*
X0147275Y0188506D02*
X0147275Y0190642D01*
X0145673Y0190642D01*
X0145139Y0190108D01*
X0145139Y0188506D01*
X0143591Y0189040D02*
X0143058Y0189574D01*
X0141456Y0189574D01*
X0141456Y0190108D02*
X0141456Y0188506D01*
X0143058Y0188506D01*
X0143591Y0189040D01*
X0143058Y0190642D02*
X0141990Y0190642D01*
X0141456Y0190108D01*
X0184839Y0063915D02*
X0184839Y0052104D01*
X0173028Y0052104D01*
X0102162Y0052104D02*
X0090351Y0052104D01*
X0090351Y0063915D01*
D12*
X0073995Y0079021D02*
X0073995Y0081223D01*
X0072894Y0081223D01*
X0072527Y0080856D01*
X0072527Y0080122D01*
X0072894Y0079755D01*
X0073995Y0079755D01*
X0073261Y0079755D02*
X0072527Y0079021D01*
X0071785Y0079021D02*
X0070317Y0080489D01*
X0070317Y0080856D01*
X0070684Y0081223D01*
X0071418Y0081223D01*
X0071785Y0080856D01*
X0071785Y0079021D02*
X0070317Y0079021D01*
X0069575Y0079388D02*
X0069575Y0079755D01*
X0069208Y0080122D01*
X0068474Y0080122D01*
X0068107Y0079755D01*
X0068107Y0079388D01*
X0068474Y0079021D01*
X0069208Y0079021D01*
X0069575Y0079388D01*
X0069208Y0080122D02*
X0069575Y0080489D01*
X0069575Y0080856D01*
X0069208Y0081223D01*
X0068474Y0081223D01*
X0068107Y0080856D01*
X0068107Y0080489D01*
X0068474Y0080122D01*
X0067366Y0080489D02*
X0066632Y0081223D01*
X0066632Y0079021D01*
X0067366Y0079021D02*
X0065898Y0079021D01*
X0060897Y0080315D02*
X0060530Y0079948D01*
X0059062Y0079948D01*
X0058695Y0080315D01*
X0058695Y0081049D01*
X0059062Y0081416D01*
X0058695Y0082158D02*
X0060163Y0083626D01*
X0060530Y0083626D01*
X0060897Y0083259D01*
X0060897Y0082525D01*
X0060530Y0082158D01*
X0060530Y0081416D02*
X0060897Y0081049D01*
X0060897Y0080315D01*
X0058695Y0082158D02*
X0058695Y0083626D01*
X0059062Y0084368D02*
X0059429Y0084368D01*
X0059796Y0084735D01*
X0059796Y0085469D01*
X0059429Y0085836D01*
X0059062Y0085836D01*
X0058695Y0085469D01*
X0058695Y0084735D01*
X0059062Y0084368D01*
X0059796Y0084735D02*
X0060163Y0084368D01*
X0060530Y0084368D01*
X0060897Y0084735D01*
X0060897Y0085469D01*
X0060530Y0085836D01*
X0060163Y0085836D01*
X0059796Y0085469D01*
X0060530Y0086578D02*
X0060897Y0086945D01*
X0060897Y0087679D01*
X0060530Y0088046D01*
X0060163Y0088046D01*
X0058695Y0086578D01*
X0058695Y0088046D01*
X0079195Y0088046D02*
X0079195Y0086578D01*
X0079195Y0087312D02*
X0081397Y0087312D01*
X0080663Y0086578D01*
X0080663Y0085836D02*
X0080296Y0085469D01*
X0080296Y0084735D01*
X0080663Y0084368D01*
X0081030Y0084368D01*
X0081397Y0084735D01*
X0081397Y0085469D01*
X0081030Y0085836D01*
X0080663Y0085836D01*
X0080296Y0085469D02*
X0079929Y0085836D01*
X0079562Y0085836D01*
X0079195Y0085469D01*
X0079195Y0084735D01*
X0079562Y0084368D01*
X0079929Y0084368D01*
X0080296Y0084735D01*
X0080663Y0083626D02*
X0081030Y0083626D01*
X0081397Y0083259D01*
X0081397Y0082525D01*
X0081030Y0082158D01*
X0081030Y0081416D02*
X0081397Y0081049D01*
X0081397Y0080315D01*
X0081030Y0079948D01*
X0079562Y0079948D01*
X0079195Y0080315D01*
X0079195Y0081049D01*
X0079562Y0081416D01*
X0079195Y0082158D02*
X0080663Y0083626D01*
X0079195Y0083626D02*
X0079195Y0082158D01*
X0070495Y0109448D02*
X0070495Y0111650D01*
X0069394Y0111650D01*
X0069027Y0111283D01*
X0069027Y0110549D01*
X0069394Y0110182D01*
X0070495Y0110182D01*
X0069761Y0110182D02*
X0069027Y0109448D01*
X0068285Y0109448D02*
X0066817Y0110916D01*
X0066817Y0111283D01*
X0067184Y0111650D01*
X0067918Y0111650D01*
X0068285Y0111283D01*
X0068285Y0109448D02*
X0066817Y0109448D01*
X0066075Y0110549D02*
X0064607Y0110549D01*
X0063866Y0110916D02*
X0063132Y0111650D01*
X0063132Y0109448D01*
X0063866Y0109448D02*
X0062398Y0109448D01*
X0064974Y0109448D02*
X0064974Y0111650D01*
X0066075Y0110549D01*
X0066132Y0131948D02*
X0066132Y0134150D01*
X0066866Y0133416D01*
X0067607Y0133783D02*
X0067607Y0134150D01*
X0069075Y0134150D01*
X0069817Y0133783D02*
X0070184Y0134150D01*
X0070918Y0134150D01*
X0071285Y0133783D01*
X0072027Y0133783D02*
X0072394Y0134150D01*
X0073495Y0134150D01*
X0073495Y0131948D01*
X0073495Y0132682D02*
X0072394Y0132682D01*
X0072027Y0133049D01*
X0072027Y0133783D01*
X0072761Y0132682D02*
X0072027Y0131948D01*
X0071285Y0131948D02*
X0069817Y0133416D01*
X0069817Y0133783D01*
X0069075Y0132315D02*
X0069075Y0131948D01*
X0069075Y0132315D02*
X0067607Y0133783D01*
X0066866Y0131948D02*
X0065398Y0131948D01*
X0061397Y0133815D02*
X0061397Y0134549D01*
X0061030Y0134916D01*
X0061030Y0135658D02*
X0061397Y0136025D01*
X0061397Y0136759D01*
X0061030Y0137126D01*
X0060663Y0137126D01*
X0059195Y0135658D01*
X0059195Y0137126D01*
X0059195Y0137868D02*
X0059562Y0137868D01*
X0061030Y0139336D01*
X0061397Y0139336D01*
X0061397Y0137868D01*
X0061030Y0140078D02*
X0061397Y0140445D01*
X0061397Y0141179D01*
X0061030Y0141546D01*
X0060663Y0141546D01*
X0059195Y0140078D01*
X0059195Y0141546D01*
X0059562Y0134916D02*
X0059195Y0134549D01*
X0059195Y0133815D01*
X0059562Y0133448D01*
X0061030Y0133448D01*
X0061397Y0133815D01*
X0069817Y0131948D02*
X0071285Y0131948D01*
X0079195Y0133815D02*
X0079195Y0134549D01*
X0079562Y0134916D01*
X0079195Y0135658D02*
X0080663Y0137126D01*
X0081030Y0137126D01*
X0081397Y0136759D01*
X0081397Y0136025D01*
X0081030Y0135658D01*
X0081030Y0134916D02*
X0081397Y0134549D01*
X0081397Y0133815D01*
X0081030Y0133448D01*
X0079562Y0133448D01*
X0079195Y0133815D01*
X0079195Y0135658D02*
X0079195Y0137126D01*
X0079195Y0137868D02*
X0079562Y0137868D01*
X0081030Y0139336D01*
X0081397Y0139336D01*
X0081397Y0137868D01*
X0080663Y0140078D02*
X0081397Y0140812D01*
X0079195Y0140812D01*
X0079195Y0140078D02*
X0079195Y0141546D01*
X0085898Y0156948D02*
X0087366Y0156948D01*
X0086632Y0156948D02*
X0086632Y0159150D01*
X0087366Y0158416D01*
X0088107Y0158783D02*
X0089575Y0157315D01*
X0089208Y0156948D01*
X0088474Y0156948D01*
X0088107Y0157315D01*
X0088107Y0158783D01*
X0088474Y0159150D01*
X0089208Y0159150D01*
X0089575Y0158783D01*
X0089575Y0157315D01*
X0090317Y0157315D02*
X0090317Y0158783D01*
X0090684Y0159150D01*
X0091418Y0159150D01*
X0091785Y0158783D01*
X0091785Y0158416D01*
X0091418Y0158049D01*
X0090317Y0158049D01*
X0090317Y0157315D02*
X0090684Y0156948D01*
X0091418Y0156948D01*
X0091785Y0157315D01*
X0092527Y0157315D02*
X0092894Y0156948D01*
X0093628Y0156948D01*
X0093995Y0157315D01*
X0093995Y0158783D01*
X0093628Y0159150D01*
X0092894Y0159150D01*
X0092527Y0158783D01*
X0131058Y0156948D02*
X0132526Y0156948D01*
X0131792Y0156948D02*
X0131792Y0159150D01*
X0132526Y0158416D01*
X0133268Y0158783D02*
X0134736Y0157315D01*
X0134369Y0156948D01*
X0133635Y0156948D01*
X0133268Y0157315D01*
X0133268Y0158783D01*
X0133635Y0159150D01*
X0134369Y0159150D01*
X0134736Y0158783D01*
X0134736Y0157315D01*
X0135478Y0157315D02*
X0135478Y0158783D01*
X0135845Y0159150D01*
X0136579Y0159150D01*
X0136946Y0158783D01*
X0136946Y0158416D01*
X0136579Y0158049D01*
X0135478Y0158049D01*
X0135478Y0157315D02*
X0135845Y0156948D01*
X0136579Y0156948D01*
X0136946Y0157315D01*
X0138422Y0156948D02*
X0138422Y0158049D01*
X0137688Y0158783D01*
X0137688Y0159150D01*
X0138422Y0158049D02*
X0139156Y0158783D01*
X0139156Y0159150D01*
X0141366Y0159150D02*
X0141366Y0156948D01*
X0139898Y0156948D01*
X0142107Y0157315D02*
X0142107Y0158783D01*
X0142474Y0159150D01*
X0143208Y0159150D01*
X0143575Y0158783D01*
X0143575Y0157315D01*
X0143208Y0156948D01*
X0142474Y0156948D01*
X0142107Y0157315D01*
X0144317Y0158049D02*
X0144684Y0157682D01*
X0145785Y0157682D01*
X0145785Y0156948D02*
X0145785Y0159150D01*
X0144684Y0159150D01*
X0144317Y0158783D01*
X0144317Y0158049D01*
X0146527Y0158049D02*
X0146894Y0157682D01*
X0147995Y0157682D01*
X0147261Y0157682D02*
X0146527Y0156948D01*
X0146527Y0158049D02*
X0146527Y0158783D01*
X0146894Y0159150D01*
X0147995Y0159150D01*
X0147995Y0156948D01*
X0180898Y0153448D02*
X0182366Y0153448D01*
X0181632Y0153448D02*
X0181632Y0155650D01*
X0182366Y0154916D01*
X0183107Y0154549D02*
X0183107Y0153815D01*
X0183474Y0153448D01*
X0184208Y0153448D01*
X0184575Y0153815D01*
X0184575Y0154549D02*
X0183841Y0154916D01*
X0183474Y0154916D01*
X0183107Y0154549D01*
X0183107Y0155650D02*
X0184575Y0155650D01*
X0184575Y0154549D01*
X0185317Y0154916D02*
X0185317Y0155283D01*
X0185684Y0155650D01*
X0186418Y0155650D01*
X0186785Y0155283D01*
X0187527Y0155283D02*
X0187894Y0155650D01*
X0188628Y0155650D01*
X0188995Y0155283D01*
X0188995Y0153815D01*
X0188628Y0153448D01*
X0187894Y0153448D01*
X0187527Y0153815D01*
X0186785Y0153448D02*
X0185317Y0154916D01*
X0185317Y0153448D02*
X0186785Y0153448D01*
X0253695Y0134255D02*
X0253695Y0132788D01*
X0253695Y0133522D02*
X0255897Y0133522D01*
X0255163Y0132788D01*
X0253695Y0132046D02*
X0253695Y0130578D01*
X0253695Y0131312D02*
X0255897Y0131312D01*
X0255163Y0130578D01*
X0253695Y0129836D02*
X0253695Y0128368D01*
X0253695Y0129102D02*
X0255897Y0129102D01*
X0255163Y0128368D01*
X0253695Y0127626D02*
X0253695Y0126158D01*
X0253695Y0126892D02*
X0255897Y0126892D01*
X0255163Y0126158D01*
X0255530Y0125416D02*
X0255897Y0125049D01*
X0255897Y0123948D01*
X0253695Y0123948D01*
X0253695Y0125049D01*
X0254062Y0125416D01*
X0255530Y0125416D01*
X0261688Y0133948D02*
X0263156Y0133948D01*
X0261688Y0135416D01*
X0261688Y0135783D01*
X0262055Y0136150D01*
X0262789Y0136150D01*
X0263156Y0135783D01*
X0264632Y0136150D02*
X0264632Y0133948D01*
X0265366Y0133948D02*
X0263898Y0133948D01*
X0265366Y0135416D02*
X0264632Y0136150D01*
X0266841Y0136150D02*
X0266841Y0133948D01*
X0267575Y0133948D02*
X0266107Y0133948D01*
X0267575Y0135416D02*
X0266841Y0136150D01*
X0269051Y0136150D02*
X0269051Y0133948D01*
X0269785Y0133948D02*
X0268317Y0133948D01*
X0269785Y0135416D02*
X0269051Y0136150D01*
X0270527Y0135783D02*
X0270894Y0136150D01*
X0271628Y0136150D01*
X0271995Y0135783D01*
X0271995Y0134315D01*
X0271628Y0133948D01*
X0270894Y0133948D01*
X0270527Y0134315D01*
X0283688Y0142948D02*
X0285156Y0142948D01*
X0283688Y0144416D01*
X0283688Y0144783D01*
X0284055Y0145150D01*
X0284789Y0145150D01*
X0285156Y0144783D01*
X0286632Y0145150D02*
X0286632Y0142948D01*
X0287366Y0142948D02*
X0285898Y0142948D01*
X0287366Y0144416D02*
X0286632Y0145150D01*
X0288107Y0144783D02*
X0289575Y0143315D01*
X0289208Y0142948D01*
X0288474Y0142948D01*
X0288107Y0143315D01*
X0288107Y0144783D01*
X0288474Y0145150D01*
X0289208Y0145150D01*
X0289575Y0144783D01*
X0289575Y0143315D01*
X0290317Y0142948D02*
X0291785Y0142948D01*
X0291051Y0142948D02*
X0291051Y0145150D01*
X0291785Y0144416D01*
X0292527Y0144783D02*
X0292527Y0144049D01*
X0292894Y0143682D01*
X0293995Y0143682D01*
X0293261Y0143682D02*
X0292527Y0142948D01*
X0293995Y0142948D02*
X0293995Y0145150D01*
X0292894Y0145150D01*
X0292527Y0144783D01*
X0297688Y0144783D02*
X0298055Y0145150D01*
X0298789Y0145150D01*
X0299156Y0144783D01*
X0299898Y0144783D02*
X0301366Y0143315D01*
X0300999Y0142948D01*
X0300265Y0142948D01*
X0299898Y0143315D01*
X0299898Y0144783D01*
X0300265Y0145150D01*
X0300999Y0145150D01*
X0301366Y0144783D01*
X0301366Y0143315D01*
X0302107Y0143315D02*
X0302474Y0142948D01*
X0303208Y0142948D01*
X0303575Y0143315D01*
X0302107Y0144783D01*
X0302107Y0143315D01*
X0302107Y0144783D02*
X0302474Y0145150D01*
X0303208Y0145150D01*
X0303575Y0144783D01*
X0303575Y0143315D01*
X0304317Y0142948D02*
X0305785Y0142948D01*
X0305051Y0142948D02*
X0305051Y0145150D01*
X0305785Y0144416D01*
X0306527Y0144783D02*
X0306894Y0145150D01*
X0307628Y0145150D01*
X0307995Y0144783D01*
X0307995Y0143315D01*
X0307628Y0142948D01*
X0306894Y0142948D01*
X0306527Y0143315D01*
X0299156Y0142948D02*
X0297688Y0144416D01*
X0297688Y0144783D01*
X0297688Y0142948D02*
X0299156Y0142948D01*
X0313898Y0133948D02*
X0315366Y0133948D01*
X0314632Y0133948D02*
X0314632Y0136150D01*
X0315366Y0135416D01*
X0316107Y0135416D02*
X0316474Y0135049D01*
X0316107Y0134682D01*
X0316107Y0134315D01*
X0316474Y0133948D01*
X0317208Y0133948D01*
X0317575Y0134315D01*
X0318317Y0133948D02*
X0319785Y0133948D01*
X0319051Y0133948D02*
X0319051Y0136150D01*
X0319785Y0135416D01*
X0320527Y0135783D02*
X0320527Y0135049D01*
X0320894Y0134682D01*
X0321995Y0134682D01*
X0321261Y0134682D02*
X0320527Y0133948D01*
X0321995Y0133948D02*
X0321995Y0136150D01*
X0320894Y0136150D01*
X0320527Y0135783D01*
X0317575Y0135783D02*
X0317208Y0136150D01*
X0316474Y0136150D01*
X0316107Y0135783D01*
X0316107Y0135416D01*
X0316474Y0135049D02*
X0316841Y0135049D01*
X0304495Y0130650D02*
X0304495Y0128448D01*
X0304495Y0129182D02*
X0303394Y0129182D01*
X0303027Y0129549D01*
X0303027Y0130283D01*
X0303394Y0130650D01*
X0304495Y0130650D01*
X0303761Y0129182D02*
X0303027Y0128448D01*
X0302285Y0128448D02*
X0300817Y0128448D01*
X0301551Y0128448D02*
X0301551Y0130650D01*
X0302285Y0129916D01*
X0300075Y0130283D02*
X0300075Y0128815D01*
X0298607Y0130283D01*
X0298607Y0128815D01*
X0298974Y0128448D01*
X0299708Y0128448D01*
X0300075Y0128815D01*
X0300075Y0130283D02*
X0299708Y0130650D01*
X0298974Y0130650D01*
X0298607Y0130283D01*
X0297866Y0129916D02*
X0297132Y0130650D01*
X0297132Y0128448D01*
X0297866Y0128448D02*
X0296398Y0128448D01*
X0295656Y0128448D02*
X0294188Y0128448D01*
X0294922Y0128448D02*
X0294922Y0130650D01*
X0295656Y0129916D01*
X0309765Y0115150D02*
X0309398Y0114783D01*
X0309398Y0114416D01*
X0309765Y0114049D01*
X0309398Y0113682D01*
X0309398Y0113315D01*
X0309765Y0112948D01*
X0310499Y0112948D01*
X0310866Y0113315D01*
X0310132Y0114049D02*
X0309765Y0114049D01*
X0309765Y0115150D02*
X0310499Y0115150D01*
X0310866Y0114783D01*
X0311607Y0114783D02*
X0313075Y0113315D01*
X0313075Y0112948D01*
X0313817Y0112948D02*
X0315285Y0112948D01*
X0314551Y0112948D02*
X0314551Y0115150D01*
X0315285Y0114416D01*
X0316027Y0114783D02*
X0316027Y0114049D01*
X0316394Y0113682D01*
X0317495Y0113682D01*
X0316761Y0113682D02*
X0316027Y0112948D01*
X0317495Y0112948D02*
X0317495Y0115150D01*
X0316394Y0115150D01*
X0316027Y0114783D01*
X0313075Y0115150D02*
X0311607Y0115150D01*
X0311607Y0114783D01*
X0298897Y0111388D02*
X0298897Y0110655D01*
X0298530Y0110288D01*
X0298897Y0111388D02*
X0298530Y0111755D01*
X0298163Y0111755D01*
X0296695Y0110288D01*
X0296695Y0111755D01*
X0296695Y0109546D02*
X0296695Y0108078D01*
X0296695Y0108812D02*
X0298897Y0108812D01*
X0298163Y0108078D01*
X0298530Y0107336D02*
X0297062Y0105868D01*
X0296695Y0106235D01*
X0296695Y0106969D01*
X0297062Y0107336D01*
X0298530Y0107336D01*
X0298897Y0106969D01*
X0298897Y0106235D01*
X0298530Y0105868D01*
X0297062Y0105868D01*
X0296695Y0105126D02*
X0296695Y0103658D01*
X0296695Y0104392D02*
X0298897Y0104392D01*
X0298163Y0103658D01*
X0298530Y0102916D02*
X0298897Y0102549D01*
X0298897Y0101815D01*
X0298530Y0101448D01*
X0297062Y0101448D01*
X0296695Y0101815D01*
X0296695Y0102549D01*
X0297062Y0102916D01*
X0291397Y0102549D02*
X0291397Y0101815D01*
X0291030Y0101448D01*
X0289562Y0101448D01*
X0289195Y0101815D01*
X0289195Y0102549D01*
X0289562Y0102916D01*
X0289195Y0103658D02*
X0289195Y0105126D01*
X0289195Y0104392D02*
X0291397Y0104392D01*
X0290663Y0103658D01*
X0291030Y0102916D02*
X0291397Y0102549D01*
X0291030Y0105868D02*
X0291397Y0106235D01*
X0291397Y0106969D01*
X0291030Y0107336D01*
X0289562Y0105868D01*
X0289195Y0106235D01*
X0289195Y0106969D01*
X0289562Y0107336D01*
X0291030Y0107336D01*
X0290663Y0108078D02*
X0291397Y0108812D01*
X0289195Y0108812D01*
X0289195Y0108078D02*
X0289195Y0109546D01*
X0289195Y0110288D02*
X0289195Y0111755D01*
X0289195Y0111022D02*
X0291397Y0111022D01*
X0290663Y0110288D01*
X0283897Y0111022D02*
X0281695Y0111022D01*
X0281695Y0111755D02*
X0281695Y0110288D01*
X0281695Y0109179D02*
X0283897Y0109179D01*
X0282796Y0108078D01*
X0282796Y0109546D01*
X0283163Y0110288D02*
X0283897Y0111022D01*
X0281695Y0107336D02*
X0281695Y0105868D01*
X0281695Y0106602D02*
X0283897Y0106602D01*
X0283163Y0105868D01*
X0281695Y0105126D02*
X0281695Y0103658D01*
X0281695Y0104392D02*
X0283897Y0104392D01*
X0283163Y0103658D01*
X0283530Y0102916D02*
X0282796Y0102916D01*
X0282429Y0102549D01*
X0282429Y0101448D01*
X0281695Y0101448D02*
X0283897Y0101448D01*
X0283897Y0102549D01*
X0283530Y0102916D01*
X0282429Y0102182D02*
X0281695Y0102916D01*
X0289562Y0105868D02*
X0291030Y0105868D01*
X0272897Y0106602D02*
X0270695Y0106602D01*
X0270695Y0105868D02*
X0270695Y0107336D01*
X0270695Y0108078D02*
X0270695Y0109546D01*
X0270695Y0108812D02*
X0272897Y0108812D01*
X0272163Y0108078D01*
X0272897Y0106602D02*
X0272163Y0105868D01*
X0270695Y0105126D02*
X0270695Y0103658D01*
X0270695Y0104392D02*
X0272897Y0104392D01*
X0272163Y0103658D01*
X0271796Y0102916D02*
X0271429Y0102549D01*
X0271429Y0101448D01*
X0270695Y0101448D02*
X0272897Y0101448D01*
X0272897Y0102549D01*
X0272530Y0102916D01*
X0271796Y0102916D01*
X0271429Y0102182D02*
X0270695Y0102916D01*
X0268397Y0102392D02*
X0267663Y0101658D01*
X0267296Y0100916D02*
X0266929Y0100549D01*
X0266929Y0099448D01*
X0266195Y0099448D02*
X0268397Y0099448D01*
X0268397Y0100549D01*
X0268030Y0100916D01*
X0267296Y0100916D01*
X0266929Y0100182D02*
X0266195Y0100916D01*
X0266195Y0101658D02*
X0266195Y0103126D01*
X0266195Y0102392D02*
X0268397Y0102392D01*
X0267663Y0103868D02*
X0268397Y0104602D01*
X0266195Y0104602D01*
X0266195Y0103868D02*
X0266195Y0105336D01*
X0266562Y0106078D02*
X0266195Y0106445D01*
X0266195Y0107179D01*
X0266562Y0107546D01*
X0266929Y0107546D01*
X0267296Y0107179D01*
X0267296Y0106812D01*
X0267296Y0107179D02*
X0267663Y0107546D01*
X0268030Y0107546D01*
X0268397Y0107179D01*
X0268397Y0106445D01*
X0268030Y0106078D01*
X0267663Y0108288D02*
X0268397Y0109022D01*
X0266195Y0109022D01*
X0266195Y0109755D02*
X0266195Y0108288D01*
X0270695Y0110288D02*
X0270695Y0111755D01*
X0270695Y0111022D02*
X0272897Y0111022D01*
X0272163Y0110288D01*
X0288398Y0095150D02*
X0289132Y0094783D01*
X0289866Y0094049D01*
X0288765Y0094049D01*
X0288398Y0093682D01*
X0288398Y0093315D01*
X0288765Y0092948D01*
X0289499Y0092948D01*
X0289866Y0093315D01*
X0289866Y0094049D01*
X0290607Y0094049D02*
X0291708Y0094049D01*
X0292075Y0094416D01*
X0292075Y0094783D01*
X0291708Y0095150D01*
X0290974Y0095150D01*
X0290607Y0094783D01*
X0290607Y0093315D01*
X0290974Y0092948D01*
X0291708Y0092948D01*
X0292075Y0093315D01*
X0292817Y0092948D02*
X0294285Y0092948D01*
X0293551Y0092948D02*
X0293551Y0095150D01*
X0294285Y0094416D01*
X0295027Y0094783D02*
X0295394Y0095150D01*
X0296128Y0095150D01*
X0296495Y0094783D01*
X0296495Y0093315D01*
X0296128Y0092948D01*
X0295394Y0092948D01*
X0295027Y0093315D01*
X0303898Y0085650D02*
X0305366Y0085650D01*
X0305366Y0084549D01*
X0304632Y0084916D01*
X0304265Y0084916D01*
X0303898Y0084549D01*
X0303898Y0083815D01*
X0304265Y0083448D01*
X0304999Y0083448D01*
X0305366Y0083815D01*
X0306107Y0083815D02*
X0306107Y0085283D01*
X0306474Y0085650D01*
X0307208Y0085650D01*
X0307575Y0085283D01*
X0307575Y0084916D01*
X0307208Y0084549D01*
X0306107Y0084549D01*
X0306107Y0083815D02*
X0306474Y0083448D01*
X0307208Y0083448D01*
X0307575Y0083815D01*
X0308317Y0083448D02*
X0309785Y0083448D01*
X0309051Y0083448D02*
X0309051Y0085650D01*
X0309785Y0084916D01*
X0310527Y0085283D02*
X0310894Y0085650D01*
X0311628Y0085650D01*
X0311995Y0085283D01*
X0311995Y0083815D01*
X0311628Y0083448D01*
X0310894Y0083448D01*
X0310527Y0083815D01*
X0325195Y0080679D02*
X0327397Y0080679D01*
X0326296Y0079578D01*
X0326296Y0081046D01*
X0326296Y0078836D02*
X0326296Y0077735D01*
X0326663Y0077368D01*
X0327030Y0077368D01*
X0327397Y0077735D01*
X0327397Y0078469D01*
X0327030Y0078836D01*
X0325562Y0078836D01*
X0325195Y0078469D01*
X0325195Y0077735D01*
X0325562Y0077368D01*
X0325195Y0076626D02*
X0325195Y0075158D01*
X0325195Y0075892D02*
X0327397Y0075892D01*
X0326663Y0075158D01*
X0327030Y0074416D02*
X0327397Y0074049D01*
X0327397Y0073315D01*
X0327030Y0072948D01*
X0325562Y0072948D01*
X0325195Y0073315D01*
X0325195Y0074049D01*
X0325562Y0074416D01*
X0316995Y0065150D02*
X0315894Y0065150D01*
X0315527Y0064783D01*
X0315527Y0064049D01*
X0315894Y0063682D01*
X0316995Y0063682D01*
X0316261Y0063682D02*
X0315527Y0062948D01*
X0314785Y0062948D02*
X0313317Y0062948D01*
X0314051Y0062948D02*
X0314051Y0065150D01*
X0314785Y0064416D01*
X0312575Y0064049D02*
X0311841Y0064416D01*
X0311474Y0064416D01*
X0311107Y0064049D01*
X0311107Y0063315D01*
X0311474Y0062948D01*
X0312208Y0062948D01*
X0312575Y0063315D01*
X0312575Y0064049D02*
X0312575Y0065150D01*
X0311107Y0065150D01*
X0310366Y0064416D02*
X0309632Y0065150D01*
X0309632Y0062948D01*
X0310366Y0062948D02*
X0308898Y0062948D01*
X0306128Y0057150D02*
X0305394Y0057150D01*
X0305027Y0056783D01*
X0304285Y0056416D02*
X0303551Y0057150D01*
X0303551Y0054948D01*
X0304285Y0054948D02*
X0302817Y0054948D01*
X0302075Y0055315D02*
X0301708Y0054948D01*
X0300974Y0054948D01*
X0300607Y0055315D01*
X0300607Y0056783D01*
X0300974Y0057150D01*
X0301708Y0057150D01*
X0302075Y0056783D01*
X0302075Y0056416D01*
X0301708Y0056049D01*
X0300607Y0056049D01*
X0299866Y0056783D02*
X0299499Y0057150D01*
X0298765Y0057150D01*
X0298398Y0056783D01*
X0298398Y0056416D01*
X0299866Y0054948D01*
X0298398Y0054948D01*
X0305027Y0055315D02*
X0305394Y0054948D01*
X0306128Y0054948D01*
X0306495Y0055315D01*
X0306495Y0056783D01*
X0306128Y0057150D01*
X0316995Y0062948D02*
X0316995Y0065150D01*
X0295495Y0075448D02*
X0294027Y0075448D01*
X0293285Y0075448D02*
X0291817Y0075448D01*
X0292551Y0075448D02*
X0292551Y0077650D01*
X0293285Y0076916D01*
X0291075Y0076916D02*
X0291075Y0077283D01*
X0290708Y0077650D01*
X0289974Y0077650D01*
X0289607Y0077283D01*
X0289607Y0075815D01*
X0289974Y0075448D01*
X0290708Y0075448D01*
X0291075Y0075815D01*
X0290708Y0076549D02*
X0289607Y0076549D01*
X0288866Y0076916D02*
X0288132Y0077650D01*
X0288132Y0075448D01*
X0288866Y0075448D02*
X0287398Y0075448D01*
X0290708Y0076549D02*
X0291075Y0076916D01*
X0295495Y0077650D02*
X0295495Y0075448D01*
X0281397Y0070812D02*
X0280663Y0070078D01*
X0280296Y0069336D02*
X0280296Y0067868D01*
X0281397Y0068969D01*
X0279195Y0068969D01*
X0279195Y0070078D02*
X0279195Y0071546D01*
X0279195Y0070812D02*
X0281397Y0070812D01*
X0279195Y0067126D02*
X0279195Y0065658D01*
X0279195Y0066392D02*
X0281397Y0066392D01*
X0280663Y0065658D01*
X0281030Y0064916D02*
X0281397Y0064549D01*
X0281397Y0063815D01*
X0281030Y0063448D01*
X0279562Y0063448D01*
X0279195Y0063815D01*
X0279195Y0064549D01*
X0279562Y0064916D01*
X0285695Y0057546D02*
X0285695Y0056078D01*
X0285695Y0056812D02*
X0287897Y0056812D01*
X0287163Y0056078D01*
X0286796Y0055336D02*
X0286796Y0054235D01*
X0287163Y0053868D01*
X0287530Y0053868D01*
X0287897Y0054235D01*
X0287897Y0054969D01*
X0287530Y0055336D01*
X0286062Y0055336D01*
X0285695Y0054969D01*
X0285695Y0054235D01*
X0286062Y0053868D01*
X0285695Y0053126D02*
X0285695Y0051658D01*
X0285695Y0052392D02*
X0287897Y0052392D01*
X0287163Y0051658D01*
X0287530Y0050916D02*
X0287897Y0050549D01*
X0287897Y0049815D01*
X0287530Y0049448D01*
X0286062Y0049448D01*
X0285695Y0049815D01*
X0285695Y0050549D01*
X0286062Y0050916D01*
X0321695Y0046679D02*
X0321695Y0045945D01*
X0322062Y0045578D01*
X0322062Y0044836D02*
X0323530Y0044836D01*
X0323897Y0044469D01*
X0323897Y0043735D01*
X0323530Y0043368D01*
X0323163Y0043368D01*
X0322796Y0043735D01*
X0322796Y0044836D01*
X0322062Y0044836D02*
X0321695Y0044469D01*
X0321695Y0043735D01*
X0322062Y0043368D01*
X0321695Y0042626D02*
X0321695Y0041158D01*
X0321695Y0041892D02*
X0323897Y0041892D01*
X0323163Y0041158D01*
X0323530Y0040416D02*
X0323897Y0040049D01*
X0323897Y0039315D01*
X0323530Y0038948D01*
X0322062Y0038948D01*
X0321695Y0039315D01*
X0321695Y0040049D01*
X0322062Y0040416D01*
X0323530Y0045578D02*
X0323897Y0045945D01*
X0323897Y0046679D01*
X0323530Y0047046D01*
X0323163Y0047046D01*
X0322796Y0046679D01*
X0322429Y0047046D01*
X0322062Y0047046D01*
X0321695Y0046679D01*
X0322796Y0046679D02*
X0322796Y0046312D01*
X0372195Y0037679D02*
X0372562Y0038046D01*
X0372929Y0038046D01*
X0373296Y0037679D01*
X0373296Y0036578D01*
X0372562Y0036578D01*
X0372195Y0036945D01*
X0372195Y0037679D01*
X0373296Y0036578D02*
X0374030Y0037312D01*
X0374397Y0038046D01*
X0374030Y0035836D02*
X0373663Y0035836D01*
X0373296Y0035469D01*
X0373296Y0034735D01*
X0373663Y0034368D01*
X0374030Y0034368D01*
X0374397Y0034735D01*
X0374397Y0035469D01*
X0374030Y0035836D01*
X0373296Y0035469D02*
X0372929Y0035836D01*
X0372562Y0035836D01*
X0372195Y0035469D01*
X0372195Y0034735D01*
X0372562Y0034368D01*
X0372929Y0034368D01*
X0373296Y0034735D01*
X0372929Y0033626D02*
X0373296Y0033259D01*
X0373296Y0032158D01*
X0372562Y0032158D01*
X0372195Y0032525D01*
X0372195Y0033259D01*
X0372562Y0033626D01*
X0372929Y0033626D01*
X0374030Y0032892D02*
X0373296Y0032158D01*
X0374030Y0032892D02*
X0374397Y0033626D01*
X0372195Y0031416D02*
X0372195Y0029948D01*
X0374397Y0029948D01*
X0394695Y0035815D02*
X0394695Y0036549D01*
X0395062Y0036916D01*
X0395062Y0037658D02*
X0394695Y0038025D01*
X0394695Y0038759D01*
X0395062Y0039126D01*
X0395429Y0039126D01*
X0395796Y0038759D01*
X0395796Y0037658D01*
X0395062Y0037658D01*
X0395796Y0037658D02*
X0396530Y0038392D01*
X0396897Y0039126D01*
X0396530Y0039868D02*
X0396163Y0039868D01*
X0395796Y0040235D01*
X0395796Y0040969D01*
X0395429Y0041336D01*
X0395062Y0041336D01*
X0394695Y0040969D01*
X0394695Y0040235D01*
X0395062Y0039868D01*
X0395429Y0039868D01*
X0395796Y0040235D01*
X0395796Y0040969D02*
X0396163Y0041336D01*
X0396530Y0041336D01*
X0396897Y0040969D01*
X0396897Y0040235D01*
X0396530Y0039868D01*
X0395796Y0042078D02*
X0395062Y0042078D01*
X0394695Y0042445D01*
X0394695Y0043179D01*
X0395062Y0043546D01*
X0395429Y0043546D01*
X0395796Y0043179D01*
X0395796Y0042078D01*
X0396530Y0042812D01*
X0396897Y0043546D01*
X0396530Y0036916D02*
X0396897Y0036549D01*
X0396897Y0035815D01*
X0396530Y0035448D01*
X0395062Y0035448D01*
X0394695Y0035815D01*
X0362995Y0078448D02*
X0362995Y0080650D01*
X0361894Y0080650D01*
X0361527Y0080283D01*
X0361527Y0079549D01*
X0361894Y0079182D01*
X0362995Y0079182D01*
X0362261Y0079182D02*
X0361527Y0078448D01*
X0360785Y0078448D02*
X0359317Y0078448D01*
X0360051Y0078448D02*
X0360051Y0080650D01*
X0360785Y0079916D01*
X0358575Y0079549D02*
X0358575Y0078815D01*
X0358208Y0078448D01*
X0357474Y0078448D01*
X0357107Y0078815D01*
X0357107Y0079182D01*
X0357474Y0079549D01*
X0358575Y0079549D01*
X0357841Y0080283D01*
X0357107Y0080650D01*
X0356366Y0079916D02*
X0355632Y0080650D01*
X0355632Y0078448D01*
X0356366Y0078448D02*
X0354898Y0078448D01*
X0355265Y0087948D02*
X0354898Y0088315D01*
X0354898Y0088682D01*
X0355265Y0089049D01*
X0355632Y0089049D01*
X0355265Y0089049D02*
X0354898Y0089416D01*
X0354898Y0089783D01*
X0355265Y0090150D01*
X0355999Y0090150D01*
X0356366Y0089783D01*
X0357107Y0090150D02*
X0357841Y0089783D01*
X0358575Y0089049D01*
X0357474Y0089049D01*
X0357107Y0088682D01*
X0357107Y0088315D01*
X0357474Y0087948D01*
X0358208Y0087948D01*
X0358575Y0088315D01*
X0358575Y0089049D01*
X0359317Y0087948D02*
X0360785Y0087948D01*
X0360051Y0087948D02*
X0360051Y0090150D01*
X0360785Y0089416D01*
X0361527Y0089783D02*
X0361527Y0089049D01*
X0361894Y0088682D01*
X0362995Y0088682D01*
X0362261Y0088682D02*
X0361527Y0087948D01*
X0362995Y0087948D02*
X0362995Y0090150D01*
X0361894Y0090150D01*
X0361527Y0089783D01*
X0356366Y0088315D02*
X0355999Y0087948D01*
X0355265Y0087948D01*
X0362898Y0098448D02*
X0364366Y0098448D01*
X0363632Y0098448D02*
X0363632Y0100650D01*
X0364366Y0099916D01*
X0365107Y0099916D02*
X0365107Y0100283D01*
X0365474Y0100650D01*
X0366208Y0100650D01*
X0366575Y0100283D01*
X0367317Y0100283D02*
X0368785Y0098815D01*
X0368785Y0098448D01*
X0369527Y0098448D02*
X0370261Y0099182D01*
X0369894Y0099182D02*
X0370995Y0099182D01*
X0370995Y0098448D02*
X0370995Y0100650D01*
X0369894Y0100650D01*
X0369527Y0100283D01*
X0369527Y0099549D01*
X0369894Y0099182D01*
X0368785Y0100650D02*
X0367317Y0100650D01*
X0367317Y0100283D01*
X0366575Y0098448D02*
X0365107Y0099916D01*
X0365107Y0098448D02*
X0366575Y0098448D01*
X0365495Y0106448D02*
X0365495Y0108650D01*
X0364394Y0108650D01*
X0364027Y0108283D01*
X0364027Y0107549D01*
X0364394Y0107182D01*
X0365495Y0107182D01*
X0364761Y0107182D02*
X0364027Y0106448D01*
X0363285Y0106448D02*
X0363285Y0106815D01*
X0361817Y0108283D01*
X0361817Y0108650D01*
X0363285Y0108650D01*
X0361075Y0108283D02*
X0360708Y0108650D01*
X0359974Y0108650D01*
X0359607Y0108283D01*
X0359607Y0107916D01*
X0361075Y0106448D01*
X0359607Y0106448D01*
X0358866Y0106448D02*
X0357398Y0107916D01*
X0357398Y0108283D01*
X0357765Y0108650D01*
X0358499Y0108650D01*
X0358866Y0108283D01*
X0358866Y0106448D02*
X0357398Y0106448D01*
X0357765Y0114448D02*
X0358499Y0114448D01*
X0358866Y0114815D01*
X0359607Y0114448D02*
X0361075Y0114448D01*
X0359607Y0115916D01*
X0359607Y0116283D01*
X0359974Y0116650D01*
X0360708Y0116650D01*
X0361075Y0116283D01*
X0361817Y0116283D02*
X0363285Y0114815D01*
X0363285Y0114448D01*
X0364027Y0114448D02*
X0364761Y0115182D01*
X0364394Y0115182D02*
X0365495Y0115182D01*
X0365495Y0114448D02*
X0365495Y0116650D01*
X0364394Y0116650D01*
X0364027Y0116283D01*
X0364027Y0115549D01*
X0364394Y0115182D01*
X0363285Y0116650D02*
X0361817Y0116650D01*
X0361817Y0116283D01*
X0358866Y0116283D02*
X0358499Y0116650D01*
X0357765Y0116650D01*
X0357398Y0116283D01*
X0357398Y0115916D01*
X0357765Y0115549D01*
X0357398Y0115182D01*
X0357398Y0114815D01*
X0357765Y0114448D01*
X0357765Y0115549D02*
X0358132Y0115549D01*
X0364765Y0125948D02*
X0365499Y0125948D01*
X0365866Y0126315D01*
X0365866Y0127049D02*
X0365132Y0127416D01*
X0364765Y0127416D01*
X0364398Y0127049D01*
X0364398Y0126315D01*
X0364765Y0125948D01*
X0365866Y0127049D02*
X0365866Y0128150D01*
X0364398Y0128150D01*
X0366607Y0127783D02*
X0366974Y0128150D01*
X0367708Y0128150D01*
X0368075Y0127783D01*
X0368817Y0127783D02*
X0370285Y0126315D01*
X0370285Y0125948D01*
X0371027Y0125948D02*
X0371761Y0126682D01*
X0371394Y0126682D02*
X0372495Y0126682D01*
X0372495Y0125948D02*
X0372495Y0128150D01*
X0371394Y0128150D01*
X0371027Y0127783D01*
X0371027Y0127049D01*
X0371394Y0126682D01*
X0370285Y0128150D02*
X0368817Y0128150D01*
X0368817Y0127783D01*
X0368075Y0125948D02*
X0366607Y0127416D01*
X0366607Y0127783D01*
X0366607Y0125948D02*
X0368075Y0125948D01*
X0376195Y0134315D02*
X0376195Y0135049D01*
X0376562Y0135416D01*
X0376562Y0136158D02*
X0376195Y0136158D01*
X0376562Y0136158D02*
X0378030Y0137626D01*
X0378397Y0137626D01*
X0378397Y0136158D01*
X0378030Y0135416D02*
X0378397Y0135049D01*
X0378397Y0134315D01*
X0378030Y0133948D01*
X0376562Y0133948D01*
X0376195Y0134315D01*
X0376562Y0138368D02*
X0378030Y0139836D01*
X0376562Y0139836D01*
X0376195Y0139469D01*
X0376195Y0138735D01*
X0376562Y0138368D01*
X0378030Y0138368D01*
X0378397Y0138735D01*
X0378397Y0139469D01*
X0378030Y0139836D01*
X0377663Y0140578D02*
X0378397Y0141312D01*
X0376195Y0141312D01*
X0376195Y0140578D02*
X0376195Y0142046D01*
X0389898Y0139948D02*
X0391366Y0139948D01*
X0390632Y0139948D02*
X0390632Y0142150D01*
X0391366Y0141416D01*
X0392107Y0141783D02*
X0393575Y0140315D01*
X0393208Y0139948D01*
X0392474Y0139948D01*
X0392107Y0140315D01*
X0392107Y0141783D01*
X0392474Y0142150D01*
X0393208Y0142150D01*
X0393575Y0141783D01*
X0393575Y0140315D01*
X0394317Y0141783D02*
X0395785Y0140315D01*
X0395785Y0139948D01*
X0396527Y0139948D02*
X0397261Y0140682D01*
X0396894Y0140682D02*
X0397995Y0140682D01*
X0397995Y0139948D02*
X0397995Y0142150D01*
X0396894Y0142150D01*
X0396527Y0141783D01*
X0396527Y0141049D01*
X0396894Y0140682D01*
X0395785Y0142150D02*
X0394317Y0142150D01*
X0394317Y0141783D01*
X0360897Y0143948D02*
X0360897Y0145049D01*
X0360530Y0145416D01*
X0359062Y0145416D01*
X0358695Y0145049D01*
X0358695Y0143948D01*
X0360897Y0143948D01*
X0360163Y0146158D02*
X0360897Y0146892D01*
X0358695Y0146892D01*
X0358695Y0146158D02*
X0358695Y0147626D01*
X0358695Y0148368D02*
X0358695Y0149836D01*
X0358695Y0149102D02*
X0360897Y0149102D01*
X0360163Y0148368D01*
X0360530Y0150578D02*
X0360897Y0150945D01*
X0360897Y0151679D01*
X0360530Y0152046D01*
X0360163Y0152046D01*
X0358695Y0150578D01*
X0358695Y0152046D01*
X0358695Y0152788D02*
X0358695Y0154255D01*
X0358695Y0153522D02*
X0360897Y0153522D01*
X0360163Y0152788D01*
X0336397Y0153155D02*
X0336030Y0152788D01*
X0336397Y0153155D02*
X0336397Y0153888D01*
X0336030Y0154255D01*
X0335663Y0154255D01*
X0334195Y0152788D01*
X0334195Y0154255D01*
X0334195Y0152046D02*
X0334195Y0150578D01*
X0335663Y0152046D01*
X0336030Y0152046D01*
X0336397Y0151679D01*
X0336397Y0150945D01*
X0336030Y0150578D01*
X0336397Y0149102D02*
X0334195Y0149102D01*
X0334195Y0148368D02*
X0334195Y0149836D01*
X0335663Y0148368D02*
X0336397Y0149102D01*
X0336397Y0146892D02*
X0334195Y0146892D01*
X0334195Y0146158D02*
X0334195Y0147626D01*
X0335663Y0146158D02*
X0336397Y0146892D01*
X0336030Y0145416D02*
X0336397Y0145049D01*
X0336397Y0143948D01*
X0334195Y0143948D01*
X0334195Y0145049D01*
X0334562Y0145416D01*
X0336030Y0145416D01*
X0280397Y0149948D02*
X0280397Y0151049D01*
X0280030Y0151416D01*
X0279296Y0151416D01*
X0278929Y0151049D01*
X0278929Y0149948D01*
X0278195Y0149948D02*
X0280397Y0149948D01*
X0278929Y0150682D02*
X0278195Y0151416D01*
X0278195Y0152158D02*
X0278195Y0153626D01*
X0278195Y0152892D02*
X0280397Y0152892D01*
X0279663Y0152158D01*
X0280030Y0154368D02*
X0278562Y0154368D01*
X0280030Y0155836D01*
X0278562Y0155836D01*
X0278195Y0155469D01*
X0278195Y0154735D01*
X0278562Y0154368D01*
X0280030Y0154368D02*
X0280397Y0154735D01*
X0280397Y0155469D01*
X0280030Y0155836D01*
X0280030Y0156578D02*
X0280397Y0156945D01*
X0280397Y0157679D01*
X0280030Y0158046D01*
X0278562Y0156578D01*
X0278195Y0156945D01*
X0278195Y0157679D01*
X0278562Y0158046D01*
X0280030Y0158046D01*
X0279663Y0158788D02*
X0280397Y0159522D01*
X0278195Y0159522D01*
X0278195Y0160255D02*
X0278195Y0158788D01*
X0278562Y0156578D02*
X0280030Y0156578D01*
X0272495Y0155283D02*
X0272495Y0153815D01*
X0272128Y0153448D01*
X0271394Y0153448D01*
X0271027Y0153815D01*
X0270285Y0153448D02*
X0268817Y0153448D01*
X0269551Y0153448D02*
X0269551Y0155650D01*
X0270285Y0154916D01*
X0271027Y0155283D02*
X0271394Y0155650D01*
X0272128Y0155650D01*
X0272495Y0155283D01*
X0268075Y0154916D02*
X0267341Y0155650D01*
X0267341Y0153448D01*
X0268075Y0153448D02*
X0266607Y0153448D01*
X0265866Y0153448D02*
X0264398Y0153448D01*
X0265132Y0153448D02*
X0265132Y0155650D01*
X0265866Y0154916D01*
X0263656Y0155283D02*
X0263289Y0155650D01*
X0262555Y0155650D01*
X0262188Y0155283D01*
X0262188Y0154916D01*
X0262555Y0154549D01*
X0262188Y0154182D01*
X0262188Y0153815D01*
X0262555Y0153448D01*
X0263289Y0153448D01*
X0263656Y0153815D01*
X0262922Y0154549D02*
X0262555Y0154549D01*
X0329632Y0090650D02*
X0329632Y0088448D01*
X0330366Y0088448D02*
X0328898Y0088448D01*
X0330366Y0089916D02*
X0329632Y0090650D01*
X0331107Y0090283D02*
X0332575Y0088815D01*
X0332208Y0088448D01*
X0331474Y0088448D01*
X0331107Y0088815D01*
X0331107Y0090283D01*
X0331474Y0090650D01*
X0332208Y0090650D01*
X0332575Y0090283D01*
X0332575Y0088815D01*
X0333317Y0088448D02*
X0334785Y0088448D01*
X0334051Y0088448D02*
X0334051Y0090650D01*
X0334785Y0089916D01*
X0335527Y0090283D02*
X0335894Y0090650D01*
X0336628Y0090650D01*
X0336995Y0090283D01*
X0336995Y0088815D01*
X0336628Y0088448D01*
X0335894Y0088448D01*
X0335527Y0088815D01*
X0381898Y0086948D02*
X0383366Y0086948D01*
X0382632Y0086948D02*
X0382632Y0089150D01*
X0383366Y0088416D01*
X0384107Y0088416D02*
X0384474Y0088049D01*
X0385208Y0088049D01*
X0385575Y0088416D01*
X0385575Y0088783D01*
X0385208Y0089150D01*
X0384474Y0089150D01*
X0384107Y0088783D01*
X0384107Y0088416D01*
X0384474Y0088049D02*
X0384107Y0087682D01*
X0384107Y0087315D01*
X0384474Y0086948D01*
X0385208Y0086948D01*
X0385575Y0087315D01*
X0385575Y0087682D01*
X0385208Y0088049D01*
X0386317Y0087682D02*
X0386684Y0088049D01*
X0387785Y0088049D01*
X0387785Y0087315D01*
X0387418Y0086948D01*
X0386684Y0086948D01*
X0386317Y0087315D01*
X0386317Y0087682D01*
X0387051Y0088783D02*
X0386317Y0089150D01*
X0387051Y0088783D02*
X0387785Y0088049D01*
X0388527Y0088783D02*
X0388894Y0089150D01*
X0389628Y0089150D01*
X0389995Y0088783D01*
X0389995Y0087315D01*
X0389628Y0086948D01*
X0388894Y0086948D01*
X0388527Y0087315D01*
X0394695Y0087078D02*
X0394695Y0088546D01*
X0394695Y0087078D02*
X0396163Y0088546D01*
X0396530Y0088546D01*
X0396897Y0088179D01*
X0396897Y0087445D01*
X0396530Y0087078D01*
X0396530Y0086336D02*
X0396163Y0086336D01*
X0395796Y0085969D01*
X0395796Y0085235D01*
X0396163Y0084868D01*
X0396530Y0084868D01*
X0396897Y0085235D01*
X0396897Y0085969D01*
X0396530Y0086336D01*
X0395796Y0085969D02*
X0395429Y0086336D01*
X0395062Y0086336D01*
X0394695Y0085969D01*
X0394695Y0085235D01*
X0395062Y0084868D01*
X0395429Y0084868D01*
X0395796Y0085235D01*
X0395429Y0084126D02*
X0395796Y0083759D01*
X0395796Y0082658D01*
X0395062Y0082658D01*
X0394695Y0083025D01*
X0394695Y0083759D01*
X0395062Y0084126D01*
X0395429Y0084126D01*
X0396530Y0083392D02*
X0395796Y0082658D01*
X0396530Y0083392D02*
X0396897Y0084126D01*
X0394695Y0081916D02*
X0394695Y0080448D01*
X0396897Y0080448D01*
X0401898Y0085448D02*
X0403366Y0085448D01*
X0402632Y0085448D02*
X0402632Y0087650D01*
X0403366Y0086916D01*
X0404107Y0086916D02*
X0404474Y0086549D01*
X0405208Y0086549D01*
X0405575Y0086916D01*
X0405575Y0087283D01*
X0405208Y0087650D01*
X0404474Y0087650D01*
X0404107Y0087283D01*
X0404107Y0086916D01*
X0404474Y0086549D02*
X0404107Y0086182D01*
X0404107Y0085815D01*
X0404474Y0085448D01*
X0405208Y0085448D01*
X0405575Y0085815D01*
X0405575Y0086182D01*
X0405208Y0086549D01*
X0406317Y0086182D02*
X0406684Y0086549D01*
X0407785Y0086549D01*
X0407785Y0085815D01*
X0407418Y0085448D01*
X0406684Y0085448D01*
X0406317Y0085815D01*
X0406317Y0086182D01*
X0407051Y0087283D02*
X0407785Y0086549D01*
X0407051Y0087283D02*
X0406317Y0087650D01*
X0408527Y0085448D02*
X0409995Y0085448D01*
X0409995Y0087650D01*
X0409495Y0099448D02*
X0409495Y0101650D01*
X0408394Y0101650D01*
X0408027Y0101283D01*
X0408027Y0100549D01*
X0408394Y0100182D01*
X0409495Y0100182D01*
X0408761Y0100182D02*
X0408027Y0099448D01*
X0407285Y0099448D02*
X0407285Y0101650D01*
X0406184Y0101650D01*
X0405817Y0101283D01*
X0405817Y0100549D01*
X0406184Y0100182D01*
X0407285Y0100182D01*
X0405075Y0099815D02*
X0405075Y0101283D01*
X0404708Y0101650D01*
X0403974Y0101650D01*
X0403607Y0101283D01*
X0403607Y0099815D01*
X0403974Y0099448D01*
X0404708Y0099448D01*
X0405075Y0099815D01*
X0402866Y0099448D02*
X0402866Y0101650D01*
X0402866Y0099448D02*
X0401398Y0099448D01*
X0399922Y0099448D02*
X0399922Y0100549D01*
X0399188Y0101283D01*
X0399188Y0101650D01*
X0398446Y0101650D02*
X0396978Y0101650D01*
X0396978Y0101283D01*
X0398446Y0099815D01*
X0398446Y0099448D01*
X0399922Y0100549D02*
X0400656Y0101283D01*
X0400656Y0101650D01*
X0396236Y0100916D02*
X0395502Y0101650D01*
X0395502Y0099448D01*
X0396236Y0099448D02*
X0394768Y0099448D01*
X0394026Y0099448D02*
X0392558Y0099448D01*
X0393292Y0099448D02*
X0393292Y0101650D01*
X0394026Y0100916D01*
X0240397Y0028812D02*
X0238195Y0028812D01*
X0238195Y0028078D02*
X0238195Y0029546D01*
X0239663Y0028078D02*
X0240397Y0028812D01*
X0240397Y0026602D02*
X0238195Y0026602D01*
X0238195Y0025868D02*
X0238195Y0027336D01*
X0239663Y0025868D02*
X0240397Y0026602D01*
X0240397Y0024392D02*
X0238195Y0024392D01*
X0238195Y0023658D02*
X0238195Y0025126D01*
X0239663Y0023658D02*
X0240397Y0024392D01*
X0240030Y0022916D02*
X0239296Y0022916D01*
X0238929Y0022549D01*
X0238929Y0021448D01*
X0238195Y0021448D02*
X0240397Y0021448D01*
X0240397Y0022549D01*
X0240030Y0022916D01*
X0238929Y0022182D02*
X0238195Y0022916D01*
X0215897Y0019312D02*
X0213695Y0019312D01*
X0213695Y0018578D02*
X0213695Y0020046D01*
X0215163Y0018578D02*
X0215897Y0019312D01*
X0215530Y0017836D02*
X0215897Y0017469D01*
X0215897Y0016735D01*
X0215530Y0016368D01*
X0215163Y0016368D01*
X0214796Y0016735D01*
X0214796Y0017836D01*
X0214062Y0017836D02*
X0215530Y0017836D01*
X0214062Y0017836D02*
X0213695Y0017469D01*
X0213695Y0016735D01*
X0214062Y0016368D01*
X0213695Y0015626D02*
X0213695Y0014158D01*
X0215163Y0015626D01*
X0215530Y0015626D01*
X0215897Y0015259D01*
X0215897Y0014525D01*
X0215530Y0014158D01*
X0213695Y0013416D02*
X0213695Y0011948D01*
X0215897Y0011948D01*
X0201495Y0024815D02*
X0201128Y0024448D01*
X0200394Y0024448D01*
X0200027Y0024815D01*
X0199285Y0024448D02*
X0197817Y0025916D01*
X0197817Y0026283D01*
X0198184Y0026650D01*
X0198918Y0026650D01*
X0199285Y0026283D01*
X0200027Y0026283D02*
X0200394Y0026650D01*
X0201128Y0026650D01*
X0201495Y0026283D01*
X0201495Y0024815D01*
X0199285Y0024448D02*
X0197817Y0024448D01*
X0197075Y0024815D02*
X0196708Y0024448D01*
X0195974Y0024448D01*
X0195607Y0024815D01*
X0195607Y0026283D01*
X0195974Y0026650D01*
X0196708Y0026650D01*
X0197075Y0026283D01*
X0197075Y0025916D01*
X0196708Y0025549D01*
X0195607Y0025549D01*
X0194866Y0025916D02*
X0194132Y0026650D01*
X0194132Y0024448D01*
X0194866Y0024448D02*
X0193398Y0024448D01*
X0193237Y0021650D02*
X0192870Y0021283D01*
X0192870Y0020549D01*
X0193237Y0020182D01*
X0194338Y0020182D01*
X0194338Y0019448D02*
X0194338Y0021650D01*
X0193237Y0021650D01*
X0192128Y0021283D02*
X0191761Y0021650D01*
X0191027Y0021650D01*
X0190660Y0021283D01*
X0190660Y0020916D01*
X0192128Y0019448D01*
X0190660Y0019448D01*
X0189918Y0019815D02*
X0189551Y0019448D01*
X0188817Y0019448D01*
X0188450Y0019815D01*
X0188450Y0021283D01*
X0188817Y0021650D01*
X0189551Y0021650D01*
X0189918Y0021283D01*
X0189918Y0020916D01*
X0189551Y0020549D01*
X0188450Y0020549D01*
X0187708Y0020916D02*
X0186974Y0021650D01*
X0186974Y0019448D01*
X0187708Y0019448D02*
X0186240Y0019448D01*
X0192870Y0019448D02*
X0193604Y0020182D01*
X0181897Y0026315D02*
X0181530Y0025948D01*
X0180062Y0025948D01*
X0179695Y0026315D01*
X0179695Y0027049D01*
X0180062Y0027416D01*
X0179695Y0028158D02*
X0179695Y0029626D01*
X0180062Y0030368D02*
X0179695Y0030735D01*
X0179695Y0031469D01*
X0180062Y0031836D01*
X0181530Y0031836D01*
X0181897Y0031469D01*
X0181897Y0030735D01*
X0181530Y0030368D01*
X0181163Y0030368D01*
X0180796Y0030735D01*
X0180796Y0031836D01*
X0181530Y0032578D02*
X0181897Y0032945D01*
X0181897Y0033679D01*
X0181530Y0034046D01*
X0181163Y0034046D01*
X0179695Y0032578D01*
X0179695Y0034046D01*
X0181163Y0029626D02*
X0181530Y0029626D01*
X0181897Y0029259D01*
X0181897Y0028525D01*
X0181530Y0028158D01*
X0181530Y0027416D02*
X0181897Y0027049D01*
X0181897Y0026315D01*
X0179695Y0028158D02*
X0181163Y0029626D01*
X0192695Y0037448D02*
X0194897Y0037448D01*
X0194897Y0038549D01*
X0194530Y0038916D01*
X0193796Y0038916D01*
X0193429Y0038549D01*
X0193429Y0037448D01*
X0193429Y0038182D02*
X0192695Y0038916D01*
X0192695Y0039658D02*
X0194897Y0039658D01*
X0194897Y0040759D01*
X0194530Y0041126D01*
X0193796Y0041126D01*
X0193429Y0040759D01*
X0193429Y0039658D01*
X0193062Y0041868D02*
X0192695Y0042235D01*
X0192695Y0042969D01*
X0193062Y0043336D01*
X0194530Y0043336D01*
X0194897Y0042969D01*
X0194897Y0042235D01*
X0194530Y0041868D01*
X0193062Y0041868D01*
X0192695Y0044078D02*
X0192695Y0045546D01*
X0192695Y0044078D02*
X0194897Y0044078D01*
X0194897Y0046288D02*
X0194530Y0046288D01*
X0193796Y0047022D01*
X0192695Y0047022D01*
X0193796Y0047022D02*
X0194530Y0047755D01*
X0194897Y0047755D01*
X0194530Y0048497D02*
X0194897Y0048864D01*
X0194897Y0049598D01*
X0194530Y0049965D01*
X0194163Y0049965D01*
X0192695Y0048497D01*
X0192695Y0049965D01*
X0193062Y0050707D02*
X0192695Y0051074D01*
X0192695Y0051808D01*
X0193062Y0052175D01*
X0194530Y0052175D01*
X0194897Y0051808D01*
X0194897Y0051074D01*
X0194530Y0050707D01*
X0194163Y0050707D01*
X0193796Y0051074D01*
X0193796Y0052175D01*
X0194163Y0052917D02*
X0194897Y0053651D01*
X0192695Y0053651D01*
X0192695Y0052917D02*
X0192695Y0054385D01*
X0160695Y0032046D02*
X0160695Y0030578D01*
X0160695Y0031312D02*
X0162897Y0031312D01*
X0162163Y0030578D01*
X0161796Y0029836D02*
X0162163Y0029469D01*
X0162163Y0029102D01*
X0161796Y0028368D01*
X0162897Y0028368D01*
X0162897Y0029836D01*
X0161796Y0029836D02*
X0161062Y0029836D01*
X0160695Y0029469D01*
X0160695Y0028735D01*
X0161062Y0028368D01*
X0160695Y0027626D02*
X0160695Y0026158D01*
X0162163Y0027626D01*
X0162530Y0027626D01*
X0162897Y0027259D01*
X0162897Y0026525D01*
X0162530Y0026158D01*
X0162530Y0025416D02*
X0161796Y0025416D01*
X0161429Y0025049D01*
X0161429Y0023948D01*
X0160695Y0023948D02*
X0162897Y0023948D01*
X0162897Y0025049D01*
X0162530Y0025416D01*
X0161429Y0024682D02*
X0160695Y0025416D01*
X0153495Y0027948D02*
X0153495Y0030150D01*
X0152394Y0030150D01*
X0152027Y0029783D01*
X0152027Y0029049D01*
X0152394Y0028682D01*
X0153495Y0028682D01*
X0152761Y0028682D02*
X0152027Y0027948D01*
X0151285Y0027948D02*
X0149817Y0029416D01*
X0149817Y0029783D01*
X0150184Y0030150D01*
X0150918Y0030150D01*
X0151285Y0029783D01*
X0151285Y0027948D02*
X0149817Y0027948D01*
X0149075Y0027948D02*
X0147607Y0027948D01*
X0148341Y0027948D02*
X0148341Y0030150D01*
X0149075Y0029416D01*
X0146866Y0029783D02*
X0146499Y0030150D01*
X0145765Y0030150D01*
X0145398Y0029783D01*
X0145398Y0029416D01*
X0146866Y0027948D01*
X0145398Y0027948D01*
X0131397Y0027759D02*
X0131397Y0027025D01*
X0131030Y0026658D01*
X0131030Y0025916D02*
X0130296Y0025916D01*
X0129929Y0025549D01*
X0129929Y0024448D01*
X0129195Y0024448D02*
X0131397Y0024448D01*
X0131397Y0025549D01*
X0131030Y0025916D01*
X0129929Y0025182D02*
X0129195Y0025916D01*
X0129195Y0026658D02*
X0130663Y0028126D01*
X0131030Y0028126D01*
X0131397Y0027759D01*
X0131030Y0028868D02*
X0131397Y0029235D01*
X0131397Y0029969D01*
X0131030Y0030336D01*
X0130663Y0030336D01*
X0130296Y0029969D01*
X0129929Y0030336D01*
X0129562Y0030336D01*
X0129195Y0029969D01*
X0129195Y0029235D01*
X0129562Y0028868D01*
X0129195Y0028126D02*
X0129195Y0026658D01*
X0130296Y0029602D02*
X0130296Y0029969D01*
X0130296Y0031078D02*
X0130296Y0032546D01*
X0129195Y0032179D02*
X0131397Y0032179D01*
X0130296Y0031078D01*
X0123897Y0034448D02*
X0123897Y0035549D01*
X0123530Y0035916D01*
X0122796Y0035916D01*
X0122429Y0035549D01*
X0122429Y0034448D01*
X0121695Y0034448D02*
X0123897Y0034448D01*
X0122429Y0035182D02*
X0121695Y0035916D01*
X0121695Y0036658D02*
X0123163Y0038126D01*
X0123530Y0038126D01*
X0123897Y0037759D01*
X0123897Y0037025D01*
X0123530Y0036658D01*
X0121695Y0036658D02*
X0121695Y0038126D01*
X0122062Y0038868D02*
X0121695Y0039235D01*
X0121695Y0039969D01*
X0122062Y0040336D01*
X0122429Y0040336D01*
X0122796Y0039969D01*
X0122796Y0039602D01*
X0122796Y0039969D02*
X0123163Y0040336D01*
X0123530Y0040336D01*
X0123897Y0039969D01*
X0123897Y0039235D01*
X0123530Y0038868D01*
X0123530Y0041078D02*
X0123897Y0041445D01*
X0123897Y0042179D01*
X0123530Y0042546D01*
X0123163Y0042546D01*
X0122796Y0042179D01*
X0122429Y0042546D01*
X0122062Y0042546D01*
X0121695Y0042179D01*
X0121695Y0041445D01*
X0122062Y0041078D01*
X0122796Y0041812D02*
X0122796Y0042179D01*
X0112897Y0041812D02*
X0110695Y0041812D01*
X0110695Y0041078D02*
X0110695Y0042546D01*
X0112163Y0041078D02*
X0112897Y0041812D01*
X0112530Y0040336D02*
X0112163Y0040336D01*
X0111796Y0039969D01*
X0111429Y0040336D01*
X0111062Y0040336D01*
X0110695Y0039969D01*
X0110695Y0039235D01*
X0111062Y0038868D01*
X0110695Y0038126D02*
X0110695Y0036658D01*
X0112163Y0038126D01*
X0112530Y0038126D01*
X0112897Y0037759D01*
X0112897Y0037025D01*
X0112530Y0036658D01*
X0112530Y0035916D02*
X0111796Y0035916D01*
X0111429Y0035549D01*
X0111429Y0034448D01*
X0110695Y0034448D02*
X0112897Y0034448D01*
X0112897Y0035549D01*
X0112530Y0035916D01*
X0111429Y0035182D02*
X0110695Y0035916D01*
X0112530Y0038868D02*
X0112897Y0039235D01*
X0112897Y0039969D01*
X0112530Y0040336D01*
X0111796Y0039969D02*
X0111796Y0039602D01*
X0116195Y0028546D02*
X0116195Y0027078D01*
X0117663Y0028546D01*
X0118030Y0028546D01*
X0118397Y0028179D01*
X0118397Y0027445D01*
X0118030Y0027078D01*
X0118030Y0026336D02*
X0117663Y0026336D01*
X0117296Y0025969D01*
X0116929Y0026336D01*
X0116562Y0026336D01*
X0116195Y0025969D01*
X0116195Y0025235D01*
X0116562Y0024868D01*
X0116195Y0024126D02*
X0116195Y0022658D01*
X0117663Y0024126D01*
X0118030Y0024126D01*
X0118397Y0023759D01*
X0118397Y0023025D01*
X0118030Y0022658D01*
X0118030Y0021916D02*
X0117296Y0021916D01*
X0116929Y0021549D01*
X0116929Y0020448D01*
X0116195Y0020448D02*
X0118397Y0020448D01*
X0118397Y0021549D01*
X0118030Y0021916D01*
X0116929Y0021182D02*
X0116195Y0021916D01*
X0118030Y0024868D02*
X0118397Y0025235D01*
X0118397Y0025969D01*
X0118030Y0026336D01*
X0117296Y0025969D02*
X0117296Y0025602D01*
X0135898Y0040448D02*
X0137366Y0040448D01*
X0136632Y0040448D02*
X0136632Y0042650D01*
X0137366Y0041916D01*
X0138107Y0040448D02*
X0139575Y0040448D01*
X0138841Y0040448D02*
X0138841Y0042650D01*
X0139575Y0041916D01*
X0140317Y0041916D02*
X0140317Y0042283D01*
X0140684Y0042650D01*
X0141418Y0042650D01*
X0141785Y0042283D01*
X0142527Y0042283D02*
X0142527Y0041549D01*
X0142894Y0041182D01*
X0143995Y0041182D01*
X0143261Y0041182D02*
X0142527Y0040448D01*
X0141785Y0040448D02*
X0140317Y0041916D01*
X0140317Y0040448D02*
X0141785Y0040448D01*
X0142527Y0042283D02*
X0142894Y0042650D01*
X0143995Y0042650D01*
X0143995Y0040448D01*
D13*
X0247595Y0131548D03*
X0342595Y0147148D03*
X0352595Y0147148D03*
D14*
X0091650Y0152891D02*
X0091652Y0152970D01*
X0091658Y0153049D01*
X0091668Y0153128D01*
X0091682Y0153206D01*
X0091699Y0153283D01*
X0091721Y0153359D01*
X0091746Y0153434D01*
X0091776Y0153507D01*
X0091808Y0153579D01*
X0091845Y0153650D01*
X0091885Y0153718D01*
X0091928Y0153784D01*
X0091974Y0153848D01*
X0092024Y0153910D01*
X0092077Y0153969D01*
X0092132Y0154025D01*
X0092191Y0154079D01*
X0092252Y0154129D01*
X0092315Y0154177D01*
X0092381Y0154221D01*
X0092449Y0154262D01*
X0092519Y0154299D01*
X0092590Y0154333D01*
X0092664Y0154363D01*
X0092738Y0154389D01*
X0092814Y0154411D01*
X0092891Y0154430D01*
X0092969Y0154445D01*
X0093047Y0154456D01*
X0093126Y0154463D01*
X0093205Y0154466D01*
X0093284Y0154465D01*
X0093363Y0154460D01*
X0093442Y0154451D01*
X0093520Y0154438D01*
X0093597Y0154421D01*
X0093674Y0154401D01*
X0093749Y0154376D01*
X0093823Y0154348D01*
X0093896Y0154316D01*
X0093966Y0154281D01*
X0094035Y0154242D01*
X0094102Y0154199D01*
X0094167Y0154153D01*
X0094229Y0154105D01*
X0094289Y0154053D01*
X0094346Y0153998D01*
X0094400Y0153940D01*
X0094451Y0153880D01*
X0094499Y0153817D01*
X0094544Y0153752D01*
X0094586Y0153684D01*
X0094624Y0153615D01*
X0094658Y0153544D01*
X0094689Y0153471D01*
X0094717Y0153396D01*
X0094740Y0153321D01*
X0094760Y0153244D01*
X0094776Y0153167D01*
X0094788Y0153088D01*
X0094796Y0153010D01*
X0094800Y0152931D01*
X0094800Y0152851D01*
X0094796Y0152772D01*
X0094788Y0152694D01*
X0094776Y0152615D01*
X0094760Y0152538D01*
X0094740Y0152461D01*
X0094717Y0152386D01*
X0094689Y0152311D01*
X0094658Y0152238D01*
X0094624Y0152167D01*
X0094586Y0152098D01*
X0094544Y0152030D01*
X0094499Y0151965D01*
X0094451Y0151902D01*
X0094400Y0151842D01*
X0094346Y0151784D01*
X0094289Y0151729D01*
X0094229Y0151677D01*
X0094167Y0151629D01*
X0094102Y0151583D01*
X0094035Y0151540D01*
X0093966Y0151501D01*
X0093896Y0151466D01*
X0093823Y0151434D01*
X0093749Y0151406D01*
X0093674Y0151381D01*
X0093597Y0151361D01*
X0093520Y0151344D01*
X0093442Y0151331D01*
X0093363Y0151322D01*
X0093284Y0151317D01*
X0093205Y0151316D01*
X0093126Y0151319D01*
X0093047Y0151326D01*
X0092969Y0151337D01*
X0092891Y0151352D01*
X0092814Y0151371D01*
X0092738Y0151393D01*
X0092664Y0151419D01*
X0092590Y0151449D01*
X0092519Y0151483D01*
X0092449Y0151520D01*
X0092381Y0151561D01*
X0092315Y0151605D01*
X0092252Y0151653D01*
X0092191Y0151703D01*
X0092132Y0151757D01*
X0092077Y0151813D01*
X0092024Y0151872D01*
X0091974Y0151934D01*
X0091928Y0151998D01*
X0091885Y0152064D01*
X0091845Y0152132D01*
X0091808Y0152203D01*
X0091776Y0152275D01*
X0091746Y0152348D01*
X0091721Y0152423D01*
X0091699Y0152499D01*
X0091682Y0152576D01*
X0091668Y0152654D01*
X0091658Y0152733D01*
X0091652Y0152812D01*
X0091650Y0152891D01*
D15*
X0087648Y0145805D02*
X0084745Y0145805D01*
X0084745Y0144838D02*
X0084745Y0146773D01*
X0086680Y0144838D02*
X0087648Y0145805D01*
X0087164Y0143826D02*
X0085229Y0143826D01*
X0084745Y0143342D01*
X0084745Y0142375D01*
X0085229Y0141891D01*
X0087164Y0143826D01*
X0087648Y0143342D01*
X0087648Y0142375D01*
X0087164Y0141891D01*
X0085229Y0141891D01*
X0084745Y0140880D02*
X0084745Y0138945D01*
X0086680Y0140880D01*
X0087164Y0140880D01*
X0087648Y0140396D01*
X0087648Y0139428D01*
X0087164Y0138945D01*
X0087648Y0137933D02*
X0085229Y0137933D01*
X0084745Y0137449D01*
X0084745Y0136482D01*
X0085229Y0135998D01*
X0087648Y0135998D01*
D16*
X0073501Y0175443D02*
X0061690Y0175443D01*
X0061690Y0187254D01*
X0073501Y0187254D01*
X0073501Y0175443D01*
X0304690Y0079754D02*
X0304690Y0067943D01*
X0316501Y0067943D01*
X0316501Y0079754D01*
X0304690Y0079754D01*
X0092426Y0022992D02*
X0092426Y0011181D01*
X0080615Y0011181D01*
X0080615Y0022992D01*
X0092426Y0022992D01*
X0399264Y0189887D02*
X0399264Y0201698D01*
X0411075Y0201698D01*
X0411075Y0189887D01*
X0399264Y0189887D01*
M02*
