G75*
%MOIN*%
%OFA0B0*%
%FSLAX25Y25*%
%IPPOS*%
%LPD*%
%AMOC8*
5,1,8,0,0,1.08239X$1,22.5*
%
%ADD10C,0.00000*%
%ADD11C,0.00300*%
%ADD12C,0.00236*%
%ADD13C,0.00256*%
%ADD14C,0.00220*%
%ADD15C,0.21000*%
%ADD16C,0.00252*%
%ADD17R,0.06000X0.06000*%
%ADD18OC8,0.06000*%
%ADD19C,0.02362*%
%ADD20C,0.05709*%
%ADD21C,0.04252*%
%ADD22C,0.08850*%
%ADD23C,0.10050*%
%ADD24C,0.01969*%
%ADD25OC8,0.02400*%
%ADD26C,0.00600*%
%ADD27C,0.01600*%
%ADD28C,0.02520*%
%ADD29C,0.00886*%
%ADD30C,0.01000*%
%ADD31C,0.00591*%
%ADD32C,0.01150*%
%ADD33C,0.01378*%
%ADD34C,0.00800*%
%ADD35C,0.02378*%
%ADD36C,0.03150*%
D10*
X0022595Y0009348D02*
X0412516Y0009348D01*
X0412516Y0203167D01*
X0022595Y0203167D01*
X0022595Y0009348D01*
D11*
X0403245Y0179498D02*
X0403245Y0181433D01*
X0404696Y0182445D02*
X0404696Y0184380D01*
X0403245Y0183896D02*
X0406148Y0183896D01*
X0404696Y0182445D01*
X0403245Y0179498D02*
X0406148Y0179498D01*
D12*
X0380245Y0144241D02*
X0380245Y0140147D01*
X0380245Y0144241D02*
X0383945Y0144241D01*
X0383945Y0140147D01*
X0380245Y0140147D01*
X0380245Y0140382D02*
X0383945Y0140382D01*
X0383945Y0140617D02*
X0380245Y0140617D01*
X0380245Y0140852D02*
X0383945Y0140852D01*
X0383945Y0141087D02*
X0380245Y0141087D01*
X0380245Y0141322D02*
X0383945Y0141322D01*
X0383945Y0141557D02*
X0380245Y0141557D01*
X0380245Y0141792D02*
X0383945Y0141792D01*
X0383945Y0142027D02*
X0380245Y0142027D01*
X0380245Y0142262D02*
X0383945Y0142262D01*
X0383945Y0142497D02*
X0380245Y0142497D01*
X0380245Y0142732D02*
X0383945Y0142732D01*
X0383945Y0142967D02*
X0380245Y0142967D01*
X0380245Y0143202D02*
X0383945Y0143202D01*
X0383945Y0143437D02*
X0380245Y0143437D01*
X0380245Y0143672D02*
X0383945Y0143672D01*
X0383945Y0143907D02*
X0380245Y0143907D01*
X0380245Y0144142D02*
X0383945Y0144142D01*
X0388399Y0138395D02*
X0392099Y0138395D01*
X0392099Y0134301D01*
X0388399Y0134301D01*
X0388399Y0138395D01*
X0388399Y0134536D02*
X0392099Y0134536D01*
X0392099Y0134771D02*
X0388399Y0134771D01*
X0388399Y0135006D02*
X0392099Y0135006D01*
X0392099Y0135241D02*
X0388399Y0135241D01*
X0388399Y0135476D02*
X0392099Y0135476D01*
X0392099Y0135711D02*
X0388399Y0135711D01*
X0388399Y0135946D02*
X0392099Y0135946D01*
X0392099Y0136181D02*
X0388399Y0136181D01*
X0388399Y0136416D02*
X0392099Y0136416D01*
X0392099Y0136651D02*
X0388399Y0136651D01*
X0388399Y0136886D02*
X0392099Y0136886D01*
X0392099Y0137121D02*
X0388399Y0137121D01*
X0388399Y0137356D02*
X0392099Y0137356D01*
X0392099Y0137591D02*
X0388399Y0137591D01*
X0388399Y0137826D02*
X0392099Y0137826D01*
X0392099Y0138061D02*
X0388399Y0138061D01*
X0388399Y0138296D02*
X0392099Y0138296D01*
X0395092Y0138395D02*
X0398792Y0138395D01*
X0398792Y0134301D01*
X0395092Y0134301D01*
X0395092Y0138395D01*
X0395092Y0134536D02*
X0398792Y0134536D01*
X0398792Y0134771D02*
X0395092Y0134771D01*
X0395092Y0135006D02*
X0398792Y0135006D01*
X0398792Y0135241D02*
X0395092Y0135241D01*
X0395092Y0135476D02*
X0398792Y0135476D01*
X0398792Y0135711D02*
X0395092Y0135711D01*
X0395092Y0135946D02*
X0398792Y0135946D01*
X0398792Y0136181D02*
X0395092Y0136181D01*
X0395092Y0136416D02*
X0398792Y0136416D01*
X0398792Y0136651D02*
X0395092Y0136651D01*
X0395092Y0136886D02*
X0398792Y0136886D01*
X0398792Y0137121D02*
X0395092Y0137121D01*
X0395092Y0137356D02*
X0398792Y0137356D01*
X0398792Y0137591D02*
X0395092Y0137591D01*
X0395092Y0137826D02*
X0398792Y0137826D01*
X0398792Y0138061D02*
X0395092Y0138061D01*
X0395092Y0138296D02*
X0398792Y0138296D01*
X0380245Y0137549D02*
X0380245Y0133455D01*
X0380245Y0137549D02*
X0383945Y0137549D01*
X0383945Y0133455D01*
X0380245Y0133455D01*
X0380245Y0133690D02*
X0383945Y0133690D01*
X0383945Y0133925D02*
X0380245Y0133925D01*
X0380245Y0134160D02*
X0383945Y0134160D01*
X0383945Y0134395D02*
X0380245Y0134395D01*
X0380245Y0134630D02*
X0383945Y0134630D01*
X0383945Y0134865D02*
X0380245Y0134865D01*
X0380245Y0135100D02*
X0383945Y0135100D01*
X0383945Y0135335D02*
X0380245Y0135335D01*
X0380245Y0135570D02*
X0383945Y0135570D01*
X0383945Y0135805D02*
X0380245Y0135805D01*
X0380245Y0136040D02*
X0383945Y0136040D01*
X0383945Y0136275D02*
X0380245Y0136275D01*
X0380245Y0136510D02*
X0383945Y0136510D01*
X0383945Y0136745D02*
X0380245Y0136745D01*
X0380245Y0136980D02*
X0383945Y0136980D01*
X0383945Y0137215D02*
X0380245Y0137215D01*
X0380245Y0137450D02*
X0383945Y0137450D01*
X0385292Y0128895D02*
X0381592Y0128895D01*
X0385292Y0128895D02*
X0385292Y0124801D01*
X0381592Y0124801D01*
X0381592Y0128895D01*
X0381592Y0125036D02*
X0385292Y0125036D01*
X0385292Y0125271D02*
X0381592Y0125271D01*
X0381592Y0125506D02*
X0385292Y0125506D01*
X0385292Y0125741D02*
X0381592Y0125741D01*
X0381592Y0125976D02*
X0385292Y0125976D01*
X0385292Y0126211D02*
X0381592Y0126211D01*
X0381592Y0126446D02*
X0385292Y0126446D01*
X0385292Y0126681D02*
X0381592Y0126681D01*
X0381592Y0126916D02*
X0385292Y0126916D01*
X0385292Y0127151D02*
X0381592Y0127151D01*
X0381592Y0127386D02*
X0385292Y0127386D01*
X0385292Y0127621D02*
X0381592Y0127621D01*
X0381592Y0127856D02*
X0385292Y0127856D01*
X0385292Y0128091D02*
X0381592Y0128091D01*
X0381592Y0128326D02*
X0385292Y0128326D01*
X0385292Y0128561D02*
X0381592Y0128561D01*
X0381592Y0128796D02*
X0385292Y0128796D01*
X0378599Y0128895D02*
X0374899Y0128895D01*
X0378599Y0128895D02*
X0378599Y0124801D01*
X0374899Y0124801D01*
X0374899Y0128895D01*
X0374899Y0125036D02*
X0378599Y0125036D01*
X0378599Y0125271D02*
X0374899Y0125271D01*
X0374899Y0125506D02*
X0378599Y0125506D01*
X0378599Y0125741D02*
X0374899Y0125741D01*
X0374899Y0125976D02*
X0378599Y0125976D01*
X0378599Y0126211D02*
X0374899Y0126211D01*
X0374899Y0126446D02*
X0378599Y0126446D01*
X0378599Y0126681D02*
X0374899Y0126681D01*
X0374899Y0126916D02*
X0378599Y0126916D01*
X0378599Y0127151D02*
X0374899Y0127151D01*
X0374899Y0127386D02*
X0378599Y0127386D01*
X0378599Y0127621D02*
X0374899Y0127621D01*
X0374899Y0127856D02*
X0378599Y0127856D01*
X0378599Y0128091D02*
X0374899Y0128091D01*
X0374899Y0128326D02*
X0378599Y0128326D01*
X0378599Y0128561D02*
X0374899Y0128561D01*
X0374899Y0128796D02*
X0378599Y0128796D01*
X0377792Y0117395D02*
X0374092Y0117395D01*
X0377792Y0117395D02*
X0377792Y0113301D01*
X0374092Y0113301D01*
X0374092Y0117395D01*
X0374092Y0113536D02*
X0377792Y0113536D01*
X0377792Y0113771D02*
X0374092Y0113771D01*
X0374092Y0114006D02*
X0377792Y0114006D01*
X0377792Y0114241D02*
X0374092Y0114241D01*
X0374092Y0114476D02*
X0377792Y0114476D01*
X0377792Y0114711D02*
X0374092Y0114711D01*
X0374092Y0114946D02*
X0377792Y0114946D01*
X0377792Y0115181D02*
X0374092Y0115181D01*
X0374092Y0115416D02*
X0377792Y0115416D01*
X0377792Y0115651D02*
X0374092Y0115651D01*
X0374092Y0115886D02*
X0377792Y0115886D01*
X0377792Y0116121D02*
X0374092Y0116121D01*
X0374092Y0116356D02*
X0377792Y0116356D01*
X0377792Y0116591D02*
X0374092Y0116591D01*
X0374092Y0116826D02*
X0377792Y0116826D01*
X0377792Y0117061D02*
X0374092Y0117061D01*
X0374092Y0117296D02*
X0377792Y0117296D01*
X0371099Y0117395D02*
X0367399Y0117395D01*
X0371099Y0117395D02*
X0371099Y0113301D01*
X0367399Y0113301D01*
X0367399Y0117395D01*
X0367399Y0113536D02*
X0371099Y0113536D01*
X0371099Y0113771D02*
X0367399Y0113771D01*
X0367399Y0114006D02*
X0371099Y0114006D01*
X0371099Y0114241D02*
X0367399Y0114241D01*
X0367399Y0114476D02*
X0371099Y0114476D01*
X0371099Y0114711D02*
X0367399Y0114711D01*
X0367399Y0114946D02*
X0371099Y0114946D01*
X0371099Y0115181D02*
X0367399Y0115181D01*
X0367399Y0115416D02*
X0371099Y0115416D01*
X0371099Y0115651D02*
X0367399Y0115651D01*
X0367399Y0115886D02*
X0371099Y0115886D01*
X0371099Y0116121D02*
X0367399Y0116121D01*
X0367399Y0116356D02*
X0371099Y0116356D01*
X0371099Y0116591D02*
X0367399Y0116591D01*
X0367399Y0116826D02*
X0371099Y0116826D01*
X0371099Y0117061D02*
X0367399Y0117061D01*
X0367399Y0117296D02*
X0371099Y0117296D01*
X0371099Y0109395D02*
X0367399Y0109395D01*
X0371099Y0109395D02*
X0371099Y0105301D01*
X0367399Y0105301D01*
X0367399Y0109395D01*
X0367399Y0105536D02*
X0371099Y0105536D01*
X0371099Y0105771D02*
X0367399Y0105771D01*
X0367399Y0106006D02*
X0371099Y0106006D01*
X0371099Y0106241D02*
X0367399Y0106241D01*
X0367399Y0106476D02*
X0371099Y0106476D01*
X0371099Y0106711D02*
X0367399Y0106711D01*
X0367399Y0106946D02*
X0371099Y0106946D01*
X0371099Y0107181D02*
X0367399Y0107181D01*
X0367399Y0107416D02*
X0371099Y0107416D01*
X0371099Y0107651D02*
X0367399Y0107651D01*
X0367399Y0107886D02*
X0371099Y0107886D01*
X0371099Y0108121D02*
X0367399Y0108121D01*
X0367399Y0108356D02*
X0371099Y0108356D01*
X0371099Y0108591D02*
X0367399Y0108591D01*
X0367399Y0108826D02*
X0371099Y0108826D01*
X0371099Y0109061D02*
X0367399Y0109061D01*
X0367399Y0109296D02*
X0371099Y0109296D01*
X0374092Y0109395D02*
X0377792Y0109395D01*
X0377792Y0105301D01*
X0374092Y0105301D01*
X0374092Y0109395D01*
X0374092Y0105536D02*
X0377792Y0105536D01*
X0377792Y0105771D02*
X0374092Y0105771D01*
X0374092Y0106006D02*
X0377792Y0106006D01*
X0377792Y0106241D02*
X0374092Y0106241D01*
X0374092Y0106476D02*
X0377792Y0106476D01*
X0377792Y0106711D02*
X0374092Y0106711D01*
X0374092Y0106946D02*
X0377792Y0106946D01*
X0377792Y0107181D02*
X0374092Y0107181D01*
X0374092Y0107416D02*
X0377792Y0107416D01*
X0377792Y0107651D02*
X0374092Y0107651D01*
X0374092Y0107886D02*
X0377792Y0107886D01*
X0377792Y0108121D02*
X0374092Y0108121D01*
X0374092Y0108356D02*
X0377792Y0108356D01*
X0377792Y0108591D02*
X0374092Y0108591D01*
X0374092Y0108826D02*
X0377792Y0108826D01*
X0377792Y0109061D02*
X0374092Y0109061D01*
X0374092Y0109296D02*
X0377792Y0109296D01*
X0376599Y0101395D02*
X0372899Y0101395D01*
X0376599Y0101395D02*
X0376599Y0097301D01*
X0372899Y0097301D01*
X0372899Y0101395D01*
X0372899Y0097536D02*
X0376599Y0097536D01*
X0376599Y0097771D02*
X0372899Y0097771D01*
X0372899Y0098006D02*
X0376599Y0098006D01*
X0376599Y0098241D02*
X0372899Y0098241D01*
X0372899Y0098476D02*
X0376599Y0098476D01*
X0376599Y0098711D02*
X0372899Y0098711D01*
X0372899Y0098946D02*
X0376599Y0098946D01*
X0376599Y0099181D02*
X0372899Y0099181D01*
X0372899Y0099416D02*
X0376599Y0099416D01*
X0376599Y0099651D02*
X0372899Y0099651D01*
X0372899Y0099886D02*
X0376599Y0099886D01*
X0376599Y0100121D02*
X0372899Y0100121D01*
X0372899Y0100356D02*
X0376599Y0100356D01*
X0376599Y0100591D02*
X0372899Y0100591D01*
X0372899Y0100826D02*
X0376599Y0100826D01*
X0376599Y0101061D02*
X0372899Y0101061D01*
X0372899Y0101296D02*
X0376599Y0101296D01*
X0379592Y0101395D02*
X0383292Y0101395D01*
X0383292Y0097301D01*
X0379592Y0097301D01*
X0379592Y0101395D01*
X0379592Y0097536D02*
X0383292Y0097536D01*
X0383292Y0097771D02*
X0379592Y0097771D01*
X0379592Y0098006D02*
X0383292Y0098006D01*
X0383292Y0098241D02*
X0379592Y0098241D01*
X0379592Y0098476D02*
X0383292Y0098476D01*
X0383292Y0098711D02*
X0379592Y0098711D01*
X0379592Y0098946D02*
X0383292Y0098946D01*
X0383292Y0099181D02*
X0379592Y0099181D01*
X0379592Y0099416D02*
X0383292Y0099416D01*
X0383292Y0099651D02*
X0379592Y0099651D01*
X0379592Y0099886D02*
X0383292Y0099886D01*
X0383292Y0100121D02*
X0379592Y0100121D01*
X0379592Y0100356D02*
X0383292Y0100356D01*
X0383292Y0100591D02*
X0379592Y0100591D01*
X0379592Y0100826D02*
X0383292Y0100826D01*
X0383292Y0101061D02*
X0379592Y0101061D01*
X0379592Y0101296D02*
X0383292Y0101296D01*
X0352792Y0087301D02*
X0349092Y0087301D01*
X0349092Y0091395D01*
X0352792Y0091395D01*
X0352792Y0087301D01*
X0352792Y0087536D02*
X0349092Y0087536D01*
X0349092Y0087771D02*
X0352792Y0087771D01*
X0352792Y0088006D02*
X0349092Y0088006D01*
X0349092Y0088241D02*
X0352792Y0088241D01*
X0352792Y0088476D02*
X0349092Y0088476D01*
X0349092Y0088711D02*
X0352792Y0088711D01*
X0352792Y0088946D02*
X0349092Y0088946D01*
X0349092Y0089181D02*
X0352792Y0089181D01*
X0352792Y0089416D02*
X0349092Y0089416D01*
X0349092Y0089651D02*
X0352792Y0089651D01*
X0352792Y0089886D02*
X0349092Y0089886D01*
X0349092Y0090121D02*
X0352792Y0090121D01*
X0352792Y0090356D02*
X0349092Y0090356D01*
X0349092Y0090591D02*
X0352792Y0090591D01*
X0352792Y0090826D02*
X0349092Y0090826D01*
X0349092Y0091061D02*
X0352792Y0091061D01*
X0352792Y0091296D02*
X0349092Y0091296D01*
X0346099Y0087301D02*
X0342399Y0087301D01*
X0342399Y0091395D01*
X0346099Y0091395D01*
X0346099Y0087301D01*
X0346099Y0087536D02*
X0342399Y0087536D01*
X0342399Y0087771D02*
X0346099Y0087771D01*
X0346099Y0088006D02*
X0342399Y0088006D01*
X0342399Y0088241D02*
X0346099Y0088241D01*
X0346099Y0088476D02*
X0342399Y0088476D01*
X0342399Y0088711D02*
X0346099Y0088711D01*
X0346099Y0088946D02*
X0342399Y0088946D01*
X0342399Y0089181D02*
X0346099Y0089181D01*
X0346099Y0089416D02*
X0342399Y0089416D01*
X0342399Y0089651D02*
X0346099Y0089651D01*
X0346099Y0089886D02*
X0342399Y0089886D01*
X0342399Y0090121D02*
X0346099Y0090121D01*
X0346099Y0090356D02*
X0342399Y0090356D01*
X0342399Y0090591D02*
X0346099Y0090591D01*
X0346099Y0090826D02*
X0342399Y0090826D01*
X0342399Y0091061D02*
X0346099Y0091061D01*
X0346099Y0091296D02*
X0342399Y0091296D01*
X0326989Y0091198D02*
X0322895Y0091198D01*
X0326989Y0091198D02*
X0326989Y0087498D01*
X0322895Y0087498D01*
X0322895Y0091198D01*
X0322895Y0087733D02*
X0326989Y0087733D01*
X0326989Y0087968D02*
X0322895Y0087968D01*
X0322895Y0088203D02*
X0326989Y0088203D01*
X0326989Y0088438D02*
X0322895Y0088438D01*
X0322895Y0088673D02*
X0326989Y0088673D01*
X0326989Y0088908D02*
X0322895Y0088908D01*
X0322895Y0089143D02*
X0326989Y0089143D01*
X0326989Y0089378D02*
X0322895Y0089378D01*
X0322895Y0089613D02*
X0326989Y0089613D01*
X0326989Y0089848D02*
X0322895Y0089848D01*
X0322895Y0090083D02*
X0326989Y0090083D01*
X0326989Y0090318D02*
X0322895Y0090318D01*
X0322895Y0090553D02*
X0326989Y0090553D01*
X0326989Y0090788D02*
X0322895Y0090788D01*
X0322895Y0091023D02*
X0326989Y0091023D01*
X0320296Y0091198D02*
X0316202Y0091198D01*
X0320296Y0091198D02*
X0320296Y0087498D01*
X0316202Y0087498D01*
X0316202Y0091198D01*
X0316202Y0087733D02*
X0320296Y0087733D01*
X0320296Y0087968D02*
X0316202Y0087968D01*
X0316202Y0088203D02*
X0320296Y0088203D01*
X0320296Y0088438D02*
X0316202Y0088438D01*
X0316202Y0088673D02*
X0320296Y0088673D01*
X0320296Y0088908D02*
X0316202Y0088908D01*
X0316202Y0089143D02*
X0320296Y0089143D01*
X0320296Y0089378D02*
X0316202Y0089378D01*
X0316202Y0089613D02*
X0320296Y0089613D01*
X0320296Y0089848D02*
X0316202Y0089848D01*
X0316202Y0090083D02*
X0320296Y0090083D01*
X0320296Y0090318D02*
X0316202Y0090318D01*
X0316202Y0090553D02*
X0320296Y0090553D01*
X0320296Y0090788D02*
X0316202Y0090788D01*
X0316202Y0091023D02*
X0320296Y0091023D01*
X0312989Y0091198D02*
X0308895Y0091198D01*
X0312989Y0091198D02*
X0312989Y0087498D01*
X0308895Y0087498D01*
X0308895Y0091198D01*
X0308895Y0087733D02*
X0312989Y0087733D01*
X0312989Y0087968D02*
X0308895Y0087968D01*
X0308895Y0088203D02*
X0312989Y0088203D01*
X0312989Y0088438D02*
X0308895Y0088438D01*
X0308895Y0088673D02*
X0312989Y0088673D01*
X0312989Y0088908D02*
X0308895Y0088908D01*
X0308895Y0089143D02*
X0312989Y0089143D01*
X0312989Y0089378D02*
X0308895Y0089378D01*
X0308895Y0089613D02*
X0312989Y0089613D01*
X0312989Y0089848D02*
X0308895Y0089848D01*
X0308895Y0090083D02*
X0312989Y0090083D01*
X0312989Y0090318D02*
X0308895Y0090318D01*
X0308895Y0090553D02*
X0312989Y0090553D01*
X0312989Y0090788D02*
X0308895Y0090788D01*
X0308895Y0091023D02*
X0312989Y0091023D01*
X0306296Y0091198D02*
X0302202Y0091198D01*
X0306296Y0091198D02*
X0306296Y0087498D01*
X0302202Y0087498D01*
X0302202Y0091198D01*
X0302202Y0087733D02*
X0306296Y0087733D01*
X0306296Y0087968D02*
X0302202Y0087968D01*
X0302202Y0088203D02*
X0306296Y0088203D01*
X0306296Y0088438D02*
X0302202Y0088438D01*
X0302202Y0088673D02*
X0306296Y0088673D01*
X0306296Y0088908D02*
X0302202Y0088908D01*
X0302202Y0089143D02*
X0306296Y0089143D01*
X0306296Y0089378D02*
X0302202Y0089378D01*
X0302202Y0089613D02*
X0306296Y0089613D01*
X0306296Y0089848D02*
X0302202Y0089848D01*
X0302202Y0090083D02*
X0306296Y0090083D01*
X0306296Y0090318D02*
X0302202Y0090318D01*
X0302202Y0090553D02*
X0306296Y0090553D01*
X0306296Y0090788D02*
X0302202Y0090788D01*
X0302202Y0091023D02*
X0306296Y0091023D01*
X0296989Y0087498D02*
X0292895Y0087498D01*
X0292895Y0091198D01*
X0296989Y0091198D01*
X0296989Y0087498D01*
X0296989Y0087733D02*
X0292895Y0087733D01*
X0292895Y0087968D02*
X0296989Y0087968D01*
X0296989Y0088203D02*
X0292895Y0088203D01*
X0292895Y0088438D02*
X0296989Y0088438D01*
X0296989Y0088673D02*
X0292895Y0088673D01*
X0292895Y0088908D02*
X0296989Y0088908D01*
X0296989Y0089143D02*
X0292895Y0089143D01*
X0292895Y0089378D02*
X0296989Y0089378D01*
X0296989Y0089613D02*
X0292895Y0089613D01*
X0292895Y0089848D02*
X0296989Y0089848D01*
X0296989Y0090083D02*
X0292895Y0090083D01*
X0292895Y0090318D02*
X0296989Y0090318D01*
X0296989Y0090553D02*
X0292895Y0090553D01*
X0292895Y0090788D02*
X0296989Y0090788D01*
X0296989Y0091023D02*
X0292895Y0091023D01*
X0290296Y0087498D02*
X0286202Y0087498D01*
X0286202Y0091198D01*
X0290296Y0091198D01*
X0290296Y0087498D01*
X0290296Y0087733D02*
X0286202Y0087733D01*
X0286202Y0087968D02*
X0290296Y0087968D01*
X0290296Y0088203D02*
X0286202Y0088203D01*
X0286202Y0088438D02*
X0290296Y0088438D01*
X0290296Y0088673D02*
X0286202Y0088673D01*
X0286202Y0088908D02*
X0290296Y0088908D01*
X0290296Y0089143D02*
X0286202Y0089143D01*
X0286202Y0089378D02*
X0290296Y0089378D01*
X0290296Y0089613D02*
X0286202Y0089613D01*
X0286202Y0089848D02*
X0290296Y0089848D01*
X0290296Y0090083D02*
X0286202Y0090083D01*
X0286202Y0090318D02*
X0290296Y0090318D01*
X0290296Y0090553D02*
X0286202Y0090553D01*
X0286202Y0090788D02*
X0290296Y0090788D01*
X0290296Y0091023D02*
X0286202Y0091023D01*
X0286399Y0079301D02*
X0290099Y0079301D01*
X0286399Y0079301D02*
X0286399Y0083395D01*
X0290099Y0083395D01*
X0290099Y0079301D01*
X0290099Y0079536D02*
X0286399Y0079536D01*
X0286399Y0079771D02*
X0290099Y0079771D01*
X0290099Y0080006D02*
X0286399Y0080006D01*
X0286399Y0080241D02*
X0290099Y0080241D01*
X0290099Y0080476D02*
X0286399Y0080476D01*
X0286399Y0080711D02*
X0290099Y0080711D01*
X0290099Y0080946D02*
X0286399Y0080946D01*
X0286399Y0081181D02*
X0290099Y0081181D01*
X0290099Y0081416D02*
X0286399Y0081416D01*
X0286399Y0081651D02*
X0290099Y0081651D01*
X0290099Y0081886D02*
X0286399Y0081886D01*
X0286399Y0082121D02*
X0290099Y0082121D01*
X0290099Y0082356D02*
X0286399Y0082356D01*
X0286399Y0082591D02*
X0290099Y0082591D01*
X0290099Y0082826D02*
X0286399Y0082826D01*
X0286399Y0083061D02*
X0290099Y0083061D01*
X0290099Y0083296D02*
X0286399Y0083296D01*
X0278245Y0083741D02*
X0278245Y0079647D01*
X0278245Y0083741D02*
X0281945Y0083741D01*
X0281945Y0079647D01*
X0278245Y0079647D01*
X0278245Y0079882D02*
X0281945Y0079882D01*
X0281945Y0080117D02*
X0278245Y0080117D01*
X0278245Y0080352D02*
X0281945Y0080352D01*
X0281945Y0080587D02*
X0278245Y0080587D01*
X0278245Y0080822D02*
X0281945Y0080822D01*
X0281945Y0081057D02*
X0278245Y0081057D01*
X0278245Y0081292D02*
X0281945Y0081292D01*
X0281945Y0081527D02*
X0278245Y0081527D01*
X0278245Y0081762D02*
X0281945Y0081762D01*
X0281945Y0081997D02*
X0278245Y0081997D01*
X0278245Y0082232D02*
X0281945Y0082232D01*
X0281945Y0082467D02*
X0278245Y0082467D01*
X0278245Y0082702D02*
X0281945Y0082702D01*
X0281945Y0082937D02*
X0278245Y0082937D01*
X0278245Y0083172D02*
X0281945Y0083172D01*
X0281945Y0083407D02*
X0278245Y0083407D01*
X0278245Y0083642D02*
X0281945Y0083642D01*
X0278245Y0077049D02*
X0278245Y0072955D01*
X0278245Y0077049D02*
X0281945Y0077049D01*
X0281945Y0072955D01*
X0278245Y0072955D01*
X0278245Y0073190D02*
X0281945Y0073190D01*
X0281945Y0073425D02*
X0278245Y0073425D01*
X0278245Y0073660D02*
X0281945Y0073660D01*
X0281945Y0073895D02*
X0278245Y0073895D01*
X0278245Y0074130D02*
X0281945Y0074130D01*
X0281945Y0074365D02*
X0278245Y0074365D01*
X0278245Y0074600D02*
X0281945Y0074600D01*
X0281945Y0074835D02*
X0278245Y0074835D01*
X0278245Y0075070D02*
X0281945Y0075070D01*
X0281945Y0075305D02*
X0278245Y0075305D01*
X0278245Y0075540D02*
X0281945Y0075540D01*
X0281945Y0075775D02*
X0278245Y0075775D01*
X0278245Y0076010D02*
X0281945Y0076010D01*
X0281945Y0076245D02*
X0278245Y0076245D01*
X0278245Y0076480D02*
X0281945Y0076480D01*
X0281945Y0076715D02*
X0278245Y0076715D01*
X0278245Y0076950D02*
X0281945Y0076950D01*
X0293092Y0079301D02*
X0296792Y0079301D01*
X0293092Y0079301D02*
X0293092Y0083395D01*
X0296792Y0083395D01*
X0296792Y0079301D01*
X0296792Y0079536D02*
X0293092Y0079536D01*
X0293092Y0079771D02*
X0296792Y0079771D01*
X0296792Y0080006D02*
X0293092Y0080006D01*
X0293092Y0080241D02*
X0296792Y0080241D01*
X0296792Y0080476D02*
X0293092Y0080476D01*
X0293092Y0080711D02*
X0296792Y0080711D01*
X0296792Y0080946D02*
X0293092Y0080946D01*
X0293092Y0081181D02*
X0296792Y0081181D01*
X0296792Y0081416D02*
X0293092Y0081416D01*
X0293092Y0081651D02*
X0296792Y0081651D01*
X0296792Y0081886D02*
X0293092Y0081886D01*
X0293092Y0082121D02*
X0296792Y0082121D01*
X0296792Y0082356D02*
X0293092Y0082356D01*
X0293092Y0082591D02*
X0296792Y0082591D01*
X0296792Y0082826D02*
X0293092Y0082826D01*
X0293092Y0083061D02*
X0296792Y0083061D01*
X0296792Y0083296D02*
X0293092Y0083296D01*
X0319745Y0083741D02*
X0319745Y0079647D01*
X0319745Y0083741D02*
X0323445Y0083741D01*
X0323445Y0079647D01*
X0319745Y0079647D01*
X0319745Y0079882D02*
X0323445Y0079882D01*
X0323445Y0080117D02*
X0319745Y0080117D01*
X0319745Y0080352D02*
X0323445Y0080352D01*
X0323445Y0080587D02*
X0319745Y0080587D01*
X0319745Y0080822D02*
X0323445Y0080822D01*
X0323445Y0081057D02*
X0319745Y0081057D01*
X0319745Y0081292D02*
X0323445Y0081292D01*
X0323445Y0081527D02*
X0319745Y0081527D01*
X0319745Y0081762D02*
X0323445Y0081762D01*
X0323445Y0081997D02*
X0319745Y0081997D01*
X0319745Y0082232D02*
X0323445Y0082232D01*
X0323445Y0082467D02*
X0319745Y0082467D01*
X0319745Y0082702D02*
X0323445Y0082702D01*
X0323445Y0082937D02*
X0319745Y0082937D01*
X0319745Y0083172D02*
X0323445Y0083172D01*
X0323445Y0083407D02*
X0319745Y0083407D01*
X0319745Y0083642D02*
X0323445Y0083642D01*
X0319745Y0077049D02*
X0319745Y0072955D01*
X0319745Y0077049D02*
X0323445Y0077049D01*
X0323445Y0072955D01*
X0319745Y0072955D01*
X0319745Y0073190D02*
X0323445Y0073190D01*
X0323445Y0073425D02*
X0319745Y0073425D01*
X0319745Y0073660D02*
X0323445Y0073660D01*
X0323445Y0073895D02*
X0319745Y0073895D01*
X0319745Y0074130D02*
X0323445Y0074130D01*
X0323445Y0074365D02*
X0319745Y0074365D01*
X0319745Y0074600D02*
X0323445Y0074600D01*
X0323445Y0074835D02*
X0319745Y0074835D01*
X0319745Y0075070D02*
X0323445Y0075070D01*
X0323445Y0075305D02*
X0319745Y0075305D01*
X0319745Y0075540D02*
X0323445Y0075540D01*
X0323445Y0075775D02*
X0319745Y0075775D01*
X0319745Y0076010D02*
X0323445Y0076010D01*
X0323445Y0076245D02*
X0319745Y0076245D01*
X0319745Y0076480D02*
X0323445Y0076480D01*
X0323445Y0076715D02*
X0319745Y0076715D01*
X0319745Y0076950D02*
X0323445Y0076950D01*
X0342399Y0077301D02*
X0346099Y0077301D01*
X0342399Y0077301D02*
X0342399Y0081395D01*
X0346099Y0081395D01*
X0346099Y0077301D01*
X0346099Y0077536D02*
X0342399Y0077536D01*
X0342399Y0077771D02*
X0346099Y0077771D01*
X0346099Y0078006D02*
X0342399Y0078006D01*
X0342399Y0078241D02*
X0346099Y0078241D01*
X0346099Y0078476D02*
X0342399Y0078476D01*
X0342399Y0078711D02*
X0346099Y0078711D01*
X0346099Y0078946D02*
X0342399Y0078946D01*
X0342399Y0079181D02*
X0346099Y0079181D01*
X0346099Y0079416D02*
X0342399Y0079416D01*
X0342399Y0079651D02*
X0346099Y0079651D01*
X0346099Y0079886D02*
X0342399Y0079886D01*
X0342399Y0080121D02*
X0346099Y0080121D01*
X0346099Y0080356D02*
X0342399Y0080356D01*
X0342399Y0080591D02*
X0346099Y0080591D01*
X0346099Y0080826D02*
X0342399Y0080826D01*
X0342399Y0081061D02*
X0346099Y0081061D01*
X0346099Y0081296D02*
X0342399Y0081296D01*
X0349092Y0077301D02*
X0352792Y0077301D01*
X0349092Y0077301D02*
X0349092Y0081395D01*
X0352792Y0081395D01*
X0352792Y0077301D01*
X0352792Y0077536D02*
X0349092Y0077536D01*
X0349092Y0077771D02*
X0352792Y0077771D01*
X0352792Y0078006D02*
X0349092Y0078006D01*
X0349092Y0078241D02*
X0352792Y0078241D01*
X0352792Y0078476D02*
X0349092Y0078476D01*
X0349092Y0078711D02*
X0352792Y0078711D01*
X0352792Y0078946D02*
X0349092Y0078946D01*
X0349092Y0079181D02*
X0352792Y0079181D01*
X0352792Y0079416D02*
X0349092Y0079416D01*
X0349092Y0079651D02*
X0352792Y0079651D01*
X0352792Y0079886D02*
X0349092Y0079886D01*
X0349092Y0080121D02*
X0352792Y0080121D01*
X0352792Y0080356D02*
X0349092Y0080356D01*
X0349092Y0080591D02*
X0352792Y0080591D01*
X0352792Y0080826D02*
X0349092Y0080826D01*
X0349092Y0081061D02*
X0352792Y0081061D01*
X0352792Y0081296D02*
X0349092Y0081296D01*
X0379702Y0085198D02*
X0383796Y0085198D01*
X0383796Y0081498D01*
X0379702Y0081498D01*
X0379702Y0085198D01*
X0379702Y0081733D02*
X0383796Y0081733D01*
X0383796Y0081968D02*
X0379702Y0081968D01*
X0379702Y0082203D02*
X0383796Y0082203D01*
X0383796Y0082438D02*
X0379702Y0082438D01*
X0379702Y0082673D02*
X0383796Y0082673D01*
X0383796Y0082908D02*
X0379702Y0082908D01*
X0379702Y0083143D02*
X0383796Y0083143D01*
X0383796Y0083378D02*
X0379702Y0083378D01*
X0379702Y0083613D02*
X0383796Y0083613D01*
X0383796Y0083848D02*
X0379702Y0083848D01*
X0379702Y0084083D02*
X0383796Y0084083D01*
X0383796Y0084318D02*
X0379702Y0084318D01*
X0379702Y0084553D02*
X0383796Y0084553D01*
X0383796Y0084788D02*
X0379702Y0084788D01*
X0379702Y0085023D02*
X0383796Y0085023D01*
X0386395Y0085198D02*
X0390489Y0085198D01*
X0390489Y0081498D01*
X0386395Y0081498D01*
X0386395Y0085198D01*
X0386395Y0081733D02*
X0390489Y0081733D01*
X0390489Y0081968D02*
X0386395Y0081968D01*
X0386395Y0082203D02*
X0390489Y0082203D01*
X0390489Y0082438D02*
X0386395Y0082438D01*
X0386395Y0082673D02*
X0390489Y0082673D01*
X0390489Y0082908D02*
X0386395Y0082908D01*
X0386395Y0083143D02*
X0390489Y0083143D01*
X0390489Y0083378D02*
X0386395Y0083378D01*
X0386395Y0083613D02*
X0390489Y0083613D01*
X0390489Y0083848D02*
X0386395Y0083848D01*
X0386395Y0084083D02*
X0390489Y0084083D01*
X0390489Y0084318D02*
X0386395Y0084318D01*
X0386395Y0084553D02*
X0390489Y0084553D01*
X0390489Y0084788D02*
X0386395Y0084788D01*
X0386395Y0085023D02*
X0390489Y0085023D01*
X0400399Y0079801D02*
X0404099Y0079801D01*
X0400399Y0079801D02*
X0400399Y0083895D01*
X0404099Y0083895D01*
X0404099Y0079801D01*
X0404099Y0080036D02*
X0400399Y0080036D01*
X0400399Y0080271D02*
X0404099Y0080271D01*
X0404099Y0080506D02*
X0400399Y0080506D01*
X0400399Y0080741D02*
X0404099Y0080741D01*
X0404099Y0080976D02*
X0400399Y0080976D01*
X0400399Y0081211D02*
X0404099Y0081211D01*
X0404099Y0081446D02*
X0400399Y0081446D01*
X0400399Y0081681D02*
X0404099Y0081681D01*
X0404099Y0081916D02*
X0400399Y0081916D01*
X0400399Y0082151D02*
X0404099Y0082151D01*
X0404099Y0082386D02*
X0400399Y0082386D01*
X0400399Y0082621D02*
X0404099Y0082621D01*
X0404099Y0082856D02*
X0400399Y0082856D01*
X0400399Y0083091D02*
X0404099Y0083091D01*
X0404099Y0083326D02*
X0400399Y0083326D01*
X0400399Y0083561D02*
X0404099Y0083561D01*
X0404099Y0083796D02*
X0400399Y0083796D01*
X0407092Y0079801D02*
X0410792Y0079801D01*
X0407092Y0079801D02*
X0407092Y0083895D01*
X0410792Y0083895D01*
X0410792Y0079801D01*
X0410792Y0080036D02*
X0407092Y0080036D01*
X0407092Y0080271D02*
X0410792Y0080271D01*
X0410792Y0080506D02*
X0407092Y0080506D01*
X0407092Y0080741D02*
X0410792Y0080741D01*
X0410792Y0080976D02*
X0407092Y0080976D01*
X0407092Y0081211D02*
X0410792Y0081211D01*
X0410792Y0081446D02*
X0407092Y0081446D01*
X0407092Y0081681D02*
X0410792Y0081681D01*
X0410792Y0081916D02*
X0407092Y0081916D01*
X0407092Y0082151D02*
X0410792Y0082151D01*
X0410792Y0082386D02*
X0407092Y0082386D01*
X0407092Y0082621D02*
X0410792Y0082621D01*
X0410792Y0082856D02*
X0407092Y0082856D01*
X0407092Y0083091D02*
X0410792Y0083091D01*
X0410792Y0083326D02*
X0407092Y0083326D01*
X0407092Y0083561D02*
X0410792Y0083561D01*
X0410792Y0083796D02*
X0407092Y0083796D01*
X0393548Y0078544D02*
X0393548Y0074844D01*
X0393548Y0078544D02*
X0397642Y0078544D01*
X0397642Y0074844D01*
X0393548Y0074844D01*
X0393548Y0075079D02*
X0397642Y0075079D01*
X0397642Y0075314D02*
X0393548Y0075314D01*
X0393548Y0075549D02*
X0397642Y0075549D01*
X0397642Y0075784D02*
X0393548Y0075784D01*
X0393548Y0076019D02*
X0397642Y0076019D01*
X0397642Y0076254D02*
X0393548Y0076254D01*
X0393548Y0076489D02*
X0397642Y0076489D01*
X0397642Y0076724D02*
X0393548Y0076724D01*
X0393548Y0076959D02*
X0397642Y0076959D01*
X0397642Y0077194D02*
X0393548Y0077194D01*
X0393548Y0077429D02*
X0397642Y0077429D01*
X0397642Y0077664D02*
X0393548Y0077664D01*
X0393548Y0077899D02*
X0397642Y0077899D01*
X0397642Y0078134D02*
X0393548Y0078134D01*
X0393548Y0078369D02*
X0397642Y0078369D01*
X0393548Y0071852D02*
X0393548Y0068152D01*
X0393548Y0071852D02*
X0397642Y0071852D01*
X0397642Y0068152D01*
X0393548Y0068152D01*
X0393548Y0068387D02*
X0397642Y0068387D01*
X0397642Y0068622D02*
X0393548Y0068622D01*
X0393548Y0068857D02*
X0397642Y0068857D01*
X0397642Y0069092D02*
X0393548Y0069092D01*
X0393548Y0069327D02*
X0397642Y0069327D01*
X0397642Y0069562D02*
X0393548Y0069562D01*
X0393548Y0069797D02*
X0397642Y0069797D01*
X0397642Y0070032D02*
X0393548Y0070032D01*
X0393548Y0070267D02*
X0397642Y0070267D01*
X0397642Y0070502D02*
X0393548Y0070502D01*
X0393548Y0070737D02*
X0397642Y0070737D01*
X0397642Y0070972D02*
X0393548Y0070972D01*
X0393548Y0071207D02*
X0397642Y0071207D01*
X0397642Y0071442D02*
X0393548Y0071442D01*
X0393548Y0071677D02*
X0397642Y0071677D01*
X0397445Y0056741D02*
X0397445Y0052647D01*
X0393745Y0052647D01*
X0393745Y0056741D01*
X0397445Y0056741D01*
X0397445Y0052882D02*
X0393745Y0052882D01*
X0393745Y0053117D02*
X0397445Y0053117D01*
X0397445Y0053352D02*
X0393745Y0053352D01*
X0393745Y0053587D02*
X0397445Y0053587D01*
X0397445Y0053822D02*
X0393745Y0053822D01*
X0393745Y0054057D02*
X0397445Y0054057D01*
X0397445Y0054292D02*
X0393745Y0054292D01*
X0393745Y0054527D02*
X0397445Y0054527D01*
X0397445Y0054762D02*
X0393745Y0054762D01*
X0393745Y0054997D02*
X0397445Y0054997D01*
X0397445Y0055232D02*
X0393745Y0055232D01*
X0393745Y0055467D02*
X0397445Y0055467D01*
X0397445Y0055702D02*
X0393745Y0055702D01*
X0393745Y0055937D02*
X0397445Y0055937D01*
X0397445Y0056172D02*
X0393745Y0056172D01*
X0393745Y0056407D02*
X0397445Y0056407D01*
X0397445Y0056642D02*
X0393745Y0056642D01*
X0397445Y0050049D02*
X0397445Y0045955D01*
X0393745Y0045955D01*
X0393745Y0050049D01*
X0397445Y0050049D01*
X0397445Y0046190D02*
X0393745Y0046190D01*
X0393745Y0046425D02*
X0397445Y0046425D01*
X0397445Y0046660D02*
X0393745Y0046660D01*
X0393745Y0046895D02*
X0397445Y0046895D01*
X0397445Y0047130D02*
X0393745Y0047130D01*
X0393745Y0047365D02*
X0397445Y0047365D01*
X0397445Y0047600D02*
X0393745Y0047600D01*
X0393745Y0047835D02*
X0397445Y0047835D01*
X0397445Y0048070D02*
X0393745Y0048070D01*
X0393745Y0048305D02*
X0397445Y0048305D01*
X0397445Y0048540D02*
X0393745Y0048540D01*
X0393745Y0048775D02*
X0397445Y0048775D01*
X0397445Y0049010D02*
X0393745Y0049010D01*
X0393745Y0049245D02*
X0397445Y0049245D01*
X0397445Y0049480D02*
X0393745Y0049480D01*
X0393745Y0049715D02*
X0397445Y0049715D01*
X0397445Y0049950D02*
X0393745Y0049950D01*
X0375142Y0050544D02*
X0375142Y0046844D01*
X0371048Y0046844D01*
X0371048Y0050544D01*
X0375142Y0050544D01*
X0375142Y0047079D02*
X0371048Y0047079D01*
X0371048Y0047314D02*
X0375142Y0047314D01*
X0375142Y0047549D02*
X0371048Y0047549D01*
X0371048Y0047784D02*
X0375142Y0047784D01*
X0375142Y0048019D02*
X0371048Y0048019D01*
X0371048Y0048254D02*
X0375142Y0048254D01*
X0375142Y0048489D02*
X0371048Y0048489D01*
X0371048Y0048724D02*
X0375142Y0048724D01*
X0375142Y0048959D02*
X0371048Y0048959D01*
X0371048Y0049194D02*
X0375142Y0049194D01*
X0375142Y0049429D02*
X0371048Y0049429D01*
X0371048Y0049664D02*
X0375142Y0049664D01*
X0375142Y0049899D02*
X0371048Y0049899D01*
X0371048Y0050134D02*
X0375142Y0050134D01*
X0375142Y0050369D02*
X0371048Y0050369D01*
X0375142Y0043852D02*
X0375142Y0040152D01*
X0371048Y0040152D01*
X0371048Y0043852D01*
X0375142Y0043852D01*
X0375142Y0040387D02*
X0371048Y0040387D01*
X0371048Y0040622D02*
X0375142Y0040622D01*
X0375142Y0040857D02*
X0371048Y0040857D01*
X0371048Y0041092D02*
X0375142Y0041092D01*
X0375142Y0041327D02*
X0371048Y0041327D01*
X0371048Y0041562D02*
X0375142Y0041562D01*
X0375142Y0041797D02*
X0371048Y0041797D01*
X0371048Y0042032D02*
X0375142Y0042032D01*
X0375142Y0042267D02*
X0371048Y0042267D01*
X0371048Y0042502D02*
X0375142Y0042502D01*
X0375142Y0042737D02*
X0371048Y0042737D01*
X0371048Y0042972D02*
X0375142Y0042972D01*
X0375142Y0043207D02*
X0371048Y0043207D01*
X0371048Y0043442D02*
X0375142Y0043442D01*
X0375142Y0043677D02*
X0371048Y0043677D01*
X0320745Y0048955D02*
X0320745Y0053049D01*
X0324445Y0053049D01*
X0324445Y0048955D01*
X0320745Y0048955D01*
X0320745Y0049190D02*
X0324445Y0049190D01*
X0324445Y0049425D02*
X0320745Y0049425D01*
X0320745Y0049660D02*
X0324445Y0049660D01*
X0324445Y0049895D02*
X0320745Y0049895D01*
X0320745Y0050130D02*
X0324445Y0050130D01*
X0324445Y0050365D02*
X0320745Y0050365D01*
X0320745Y0050600D02*
X0324445Y0050600D01*
X0324445Y0050835D02*
X0320745Y0050835D01*
X0320745Y0051070D02*
X0324445Y0051070D01*
X0324445Y0051305D02*
X0320745Y0051305D01*
X0320745Y0051540D02*
X0324445Y0051540D01*
X0324445Y0051775D02*
X0320745Y0051775D01*
X0320745Y0052010D02*
X0324445Y0052010D01*
X0324445Y0052245D02*
X0320745Y0052245D01*
X0320745Y0052480D02*
X0324445Y0052480D01*
X0324445Y0052715D02*
X0320745Y0052715D01*
X0320745Y0052950D02*
X0324445Y0052950D01*
X0320745Y0055647D02*
X0320745Y0059741D01*
X0324445Y0059741D01*
X0324445Y0055647D01*
X0320745Y0055647D01*
X0320745Y0055882D02*
X0324445Y0055882D01*
X0324445Y0056117D02*
X0320745Y0056117D01*
X0320745Y0056352D02*
X0324445Y0056352D01*
X0324445Y0056587D02*
X0320745Y0056587D01*
X0320745Y0056822D02*
X0324445Y0056822D01*
X0324445Y0057057D02*
X0320745Y0057057D01*
X0320745Y0057292D02*
X0324445Y0057292D01*
X0324445Y0057527D02*
X0320745Y0057527D01*
X0320745Y0057762D02*
X0324445Y0057762D01*
X0324445Y0057997D02*
X0320745Y0057997D01*
X0320745Y0058232D02*
X0324445Y0058232D01*
X0324445Y0058467D02*
X0320745Y0058467D01*
X0320745Y0058702D02*
X0324445Y0058702D01*
X0324445Y0058937D02*
X0320745Y0058937D01*
X0320745Y0059172D02*
X0324445Y0059172D01*
X0324445Y0059407D02*
X0320745Y0059407D01*
X0320745Y0059642D02*
X0324445Y0059642D01*
X0317792Y0061395D02*
X0314092Y0061395D01*
X0317792Y0061395D02*
X0317792Y0057301D01*
X0314092Y0057301D01*
X0314092Y0061395D01*
X0314092Y0057536D02*
X0317792Y0057536D01*
X0317792Y0057771D02*
X0314092Y0057771D01*
X0314092Y0058006D02*
X0317792Y0058006D01*
X0317792Y0058241D02*
X0314092Y0058241D01*
X0314092Y0058476D02*
X0317792Y0058476D01*
X0317792Y0058711D02*
X0314092Y0058711D01*
X0314092Y0058946D02*
X0317792Y0058946D01*
X0317792Y0059181D02*
X0314092Y0059181D01*
X0314092Y0059416D02*
X0317792Y0059416D01*
X0317792Y0059651D02*
X0314092Y0059651D01*
X0314092Y0059886D02*
X0317792Y0059886D01*
X0317792Y0060121D02*
X0314092Y0060121D01*
X0314092Y0060356D02*
X0317792Y0060356D01*
X0317792Y0060591D02*
X0314092Y0060591D01*
X0314092Y0060826D02*
X0317792Y0060826D01*
X0317792Y0061061D02*
X0314092Y0061061D01*
X0314092Y0061296D02*
X0317792Y0061296D01*
X0311099Y0061395D02*
X0307399Y0061395D01*
X0311099Y0061395D02*
X0311099Y0057301D01*
X0307399Y0057301D01*
X0307399Y0061395D01*
X0307399Y0057536D02*
X0311099Y0057536D01*
X0311099Y0057771D02*
X0307399Y0057771D01*
X0307399Y0058006D02*
X0311099Y0058006D01*
X0311099Y0058241D02*
X0307399Y0058241D01*
X0307399Y0058476D02*
X0311099Y0058476D01*
X0311099Y0058711D02*
X0307399Y0058711D01*
X0307399Y0058946D02*
X0311099Y0058946D01*
X0311099Y0059181D02*
X0307399Y0059181D01*
X0307399Y0059416D02*
X0311099Y0059416D01*
X0311099Y0059651D02*
X0307399Y0059651D01*
X0307399Y0059886D02*
X0311099Y0059886D01*
X0311099Y0060121D02*
X0307399Y0060121D01*
X0307399Y0060356D02*
X0311099Y0060356D01*
X0311099Y0060591D02*
X0307399Y0060591D01*
X0307399Y0060826D02*
X0311099Y0060826D01*
X0311099Y0061061D02*
X0307399Y0061061D01*
X0307399Y0061296D02*
X0311099Y0061296D01*
X0306989Y0053198D02*
X0302895Y0053198D01*
X0306989Y0053198D02*
X0306989Y0049498D01*
X0302895Y0049498D01*
X0302895Y0053198D01*
X0302895Y0049733D02*
X0306989Y0049733D01*
X0306989Y0049968D02*
X0302895Y0049968D01*
X0302895Y0050203D02*
X0306989Y0050203D01*
X0306989Y0050438D02*
X0302895Y0050438D01*
X0302895Y0050673D02*
X0306989Y0050673D01*
X0306989Y0050908D02*
X0302895Y0050908D01*
X0302895Y0051143D02*
X0306989Y0051143D01*
X0306989Y0051378D02*
X0302895Y0051378D01*
X0302895Y0051613D02*
X0306989Y0051613D01*
X0306989Y0051848D02*
X0302895Y0051848D01*
X0302895Y0052083D02*
X0306989Y0052083D01*
X0306989Y0052318D02*
X0302895Y0052318D01*
X0302895Y0052553D02*
X0306989Y0052553D01*
X0306989Y0052788D02*
X0302895Y0052788D01*
X0302895Y0053023D02*
X0306989Y0053023D01*
X0300296Y0053198D02*
X0296202Y0053198D01*
X0300296Y0053198D02*
X0300296Y0049498D01*
X0296202Y0049498D01*
X0296202Y0053198D01*
X0296202Y0049733D02*
X0300296Y0049733D01*
X0300296Y0049968D02*
X0296202Y0049968D01*
X0296202Y0050203D02*
X0300296Y0050203D01*
X0300296Y0050438D02*
X0296202Y0050438D01*
X0296202Y0050673D02*
X0300296Y0050673D01*
X0300296Y0050908D02*
X0296202Y0050908D01*
X0296202Y0051143D02*
X0300296Y0051143D01*
X0300296Y0051378D02*
X0296202Y0051378D01*
X0296202Y0051613D02*
X0300296Y0051613D01*
X0300296Y0051848D02*
X0296202Y0051848D01*
X0296202Y0052083D02*
X0300296Y0052083D01*
X0300296Y0052318D02*
X0296202Y0052318D01*
X0296202Y0052553D02*
X0300296Y0052553D01*
X0300296Y0052788D02*
X0296202Y0052788D01*
X0296202Y0053023D02*
X0300296Y0053023D01*
X0283945Y0053549D02*
X0283945Y0049455D01*
X0280245Y0049455D01*
X0280245Y0053549D01*
X0283945Y0053549D01*
X0283945Y0049690D02*
X0280245Y0049690D01*
X0280245Y0049925D02*
X0283945Y0049925D01*
X0283945Y0050160D02*
X0280245Y0050160D01*
X0280245Y0050395D02*
X0283945Y0050395D01*
X0283945Y0050630D02*
X0280245Y0050630D01*
X0280245Y0050865D02*
X0283945Y0050865D01*
X0283945Y0051100D02*
X0280245Y0051100D01*
X0280245Y0051335D02*
X0283945Y0051335D01*
X0283945Y0051570D02*
X0280245Y0051570D01*
X0280245Y0051805D02*
X0283945Y0051805D01*
X0283945Y0052040D02*
X0280245Y0052040D01*
X0280245Y0052275D02*
X0283945Y0052275D01*
X0283945Y0052510D02*
X0280245Y0052510D01*
X0280245Y0052745D02*
X0283945Y0052745D01*
X0283945Y0052980D02*
X0280245Y0052980D01*
X0280245Y0053215D02*
X0283945Y0053215D01*
X0283945Y0053450D02*
X0280245Y0053450D01*
X0283945Y0056147D02*
X0283945Y0060241D01*
X0283945Y0056147D02*
X0280245Y0056147D01*
X0280245Y0060241D01*
X0283945Y0060241D01*
X0283945Y0056382D02*
X0280245Y0056382D01*
X0280245Y0056617D02*
X0283945Y0056617D01*
X0283945Y0056852D02*
X0280245Y0056852D01*
X0280245Y0057087D02*
X0283945Y0057087D01*
X0283945Y0057322D02*
X0280245Y0057322D01*
X0280245Y0057557D02*
X0283945Y0057557D01*
X0283945Y0057792D02*
X0280245Y0057792D01*
X0280245Y0058027D02*
X0283945Y0058027D01*
X0283945Y0058262D02*
X0280245Y0058262D01*
X0280245Y0058497D02*
X0283945Y0058497D01*
X0283945Y0058732D02*
X0280245Y0058732D01*
X0280245Y0058967D02*
X0283945Y0058967D01*
X0283945Y0059202D02*
X0280245Y0059202D01*
X0280245Y0059437D02*
X0283945Y0059437D01*
X0283945Y0059672D02*
X0280245Y0059672D01*
X0280245Y0059907D02*
X0283945Y0059907D01*
X0283945Y0060142D02*
X0280245Y0060142D01*
X0205064Y0028498D02*
X0205064Y0024010D01*
X0205064Y0028498D02*
X0211126Y0028498D01*
X0211126Y0024010D01*
X0205064Y0024010D01*
X0205064Y0024245D02*
X0211126Y0024245D01*
X0211126Y0024480D02*
X0205064Y0024480D01*
X0205064Y0024715D02*
X0211126Y0024715D01*
X0211126Y0024950D02*
X0205064Y0024950D01*
X0205064Y0025185D02*
X0211126Y0025185D01*
X0211126Y0025420D02*
X0205064Y0025420D01*
X0205064Y0025655D02*
X0211126Y0025655D01*
X0211126Y0025890D02*
X0205064Y0025890D01*
X0205064Y0026125D02*
X0211126Y0026125D01*
X0211126Y0026360D02*
X0205064Y0026360D01*
X0205064Y0026595D02*
X0211126Y0026595D01*
X0211126Y0026830D02*
X0205064Y0026830D01*
X0205064Y0027065D02*
X0211126Y0027065D01*
X0211126Y0027300D02*
X0205064Y0027300D01*
X0205064Y0027535D02*
X0211126Y0027535D01*
X0211126Y0027770D02*
X0205064Y0027770D01*
X0205064Y0028005D02*
X0211126Y0028005D01*
X0211126Y0028240D02*
X0205064Y0028240D01*
X0205064Y0028475D02*
X0211126Y0028475D01*
X0202445Y0023241D02*
X0202445Y0019147D01*
X0198745Y0019147D01*
X0198745Y0023241D01*
X0202445Y0023241D01*
X0202445Y0019382D02*
X0198745Y0019382D01*
X0198745Y0019617D02*
X0202445Y0019617D01*
X0202445Y0019852D02*
X0198745Y0019852D01*
X0198745Y0020087D02*
X0202445Y0020087D01*
X0202445Y0020322D02*
X0198745Y0020322D01*
X0198745Y0020557D02*
X0202445Y0020557D01*
X0202445Y0020792D02*
X0198745Y0020792D01*
X0198745Y0021027D02*
X0202445Y0021027D01*
X0202445Y0021262D02*
X0198745Y0021262D01*
X0198745Y0021497D02*
X0202445Y0021497D01*
X0202445Y0021732D02*
X0198745Y0021732D01*
X0198745Y0021967D02*
X0202445Y0021967D01*
X0202445Y0022202D02*
X0198745Y0022202D01*
X0198745Y0022437D02*
X0202445Y0022437D01*
X0202445Y0022672D02*
X0198745Y0022672D01*
X0198745Y0022907D02*
X0202445Y0022907D01*
X0202445Y0023142D02*
X0198745Y0023142D01*
X0202445Y0016549D02*
X0202445Y0012455D01*
X0198745Y0012455D01*
X0198745Y0016549D01*
X0202445Y0016549D01*
X0202445Y0012690D02*
X0198745Y0012690D01*
X0198745Y0012925D02*
X0202445Y0012925D01*
X0202445Y0013160D02*
X0198745Y0013160D01*
X0198745Y0013395D02*
X0202445Y0013395D01*
X0202445Y0013630D02*
X0198745Y0013630D01*
X0198745Y0013865D02*
X0202445Y0013865D01*
X0202445Y0014100D02*
X0198745Y0014100D01*
X0198745Y0014335D02*
X0202445Y0014335D01*
X0202445Y0014570D02*
X0198745Y0014570D01*
X0198745Y0014805D02*
X0202445Y0014805D01*
X0202445Y0015040D02*
X0198745Y0015040D01*
X0198745Y0015275D02*
X0202445Y0015275D01*
X0202445Y0015510D02*
X0198745Y0015510D01*
X0198745Y0015745D02*
X0202445Y0015745D01*
X0202445Y0015980D02*
X0198745Y0015980D01*
X0198745Y0016215D02*
X0202445Y0016215D01*
X0202445Y0016450D02*
X0198745Y0016450D01*
X0195792Y0016553D02*
X0192092Y0016553D01*
X0195792Y0016553D02*
X0195792Y0012459D01*
X0192092Y0012459D01*
X0192092Y0016553D01*
X0192092Y0012694D02*
X0195792Y0012694D01*
X0195792Y0012929D02*
X0192092Y0012929D01*
X0192092Y0013164D02*
X0195792Y0013164D01*
X0195792Y0013399D02*
X0192092Y0013399D01*
X0192092Y0013634D02*
X0195792Y0013634D01*
X0195792Y0013869D02*
X0192092Y0013869D01*
X0192092Y0014104D02*
X0195792Y0014104D01*
X0195792Y0014339D02*
X0192092Y0014339D01*
X0192092Y0014574D02*
X0195792Y0014574D01*
X0195792Y0014809D02*
X0192092Y0014809D01*
X0192092Y0015044D02*
X0195792Y0015044D01*
X0195792Y0015279D02*
X0192092Y0015279D01*
X0192092Y0015514D02*
X0195792Y0015514D01*
X0195792Y0015749D02*
X0192092Y0015749D01*
X0192092Y0015984D02*
X0195792Y0015984D01*
X0195792Y0016219D02*
X0192092Y0016219D01*
X0192092Y0016454D02*
X0195792Y0016454D01*
X0189099Y0016553D02*
X0185399Y0016553D01*
X0189099Y0016553D02*
X0189099Y0012459D01*
X0185399Y0012459D01*
X0185399Y0016553D01*
X0185399Y0012694D02*
X0189099Y0012694D01*
X0189099Y0012929D02*
X0185399Y0012929D01*
X0185399Y0013164D02*
X0189099Y0013164D01*
X0189099Y0013399D02*
X0185399Y0013399D01*
X0185399Y0013634D02*
X0189099Y0013634D01*
X0189099Y0013869D02*
X0185399Y0013869D01*
X0185399Y0014104D02*
X0189099Y0014104D01*
X0189099Y0014339D02*
X0185399Y0014339D01*
X0185399Y0014574D02*
X0189099Y0014574D01*
X0189099Y0014809D02*
X0185399Y0014809D01*
X0185399Y0015044D02*
X0189099Y0015044D01*
X0189099Y0015279D02*
X0185399Y0015279D01*
X0185399Y0015514D02*
X0189099Y0015514D01*
X0189099Y0015749D02*
X0185399Y0015749D01*
X0185399Y0015984D02*
X0189099Y0015984D01*
X0189099Y0016219D02*
X0185399Y0016219D01*
X0185399Y0016454D02*
X0189099Y0016454D01*
X0182445Y0016549D02*
X0182445Y0012455D01*
X0178745Y0012455D01*
X0178745Y0016549D01*
X0182445Y0016549D01*
X0182445Y0012690D02*
X0178745Y0012690D01*
X0178745Y0012925D02*
X0182445Y0012925D01*
X0182445Y0013160D02*
X0178745Y0013160D01*
X0178745Y0013395D02*
X0182445Y0013395D01*
X0182445Y0013630D02*
X0178745Y0013630D01*
X0178745Y0013865D02*
X0182445Y0013865D01*
X0182445Y0014100D02*
X0178745Y0014100D01*
X0178745Y0014335D02*
X0182445Y0014335D01*
X0182445Y0014570D02*
X0178745Y0014570D01*
X0178745Y0014805D02*
X0182445Y0014805D01*
X0182445Y0015040D02*
X0178745Y0015040D01*
X0178745Y0015275D02*
X0182445Y0015275D01*
X0182445Y0015510D02*
X0178745Y0015510D01*
X0178745Y0015745D02*
X0182445Y0015745D01*
X0182445Y0015980D02*
X0178745Y0015980D01*
X0178745Y0016215D02*
X0182445Y0016215D01*
X0182445Y0016450D02*
X0178745Y0016450D01*
X0182445Y0019147D02*
X0182445Y0023241D01*
X0182445Y0019147D02*
X0178745Y0019147D01*
X0178745Y0023241D01*
X0182445Y0023241D01*
X0182445Y0019382D02*
X0178745Y0019382D01*
X0178745Y0019617D02*
X0182445Y0019617D01*
X0182445Y0019852D02*
X0178745Y0019852D01*
X0178745Y0020087D02*
X0182445Y0020087D01*
X0182445Y0020322D02*
X0178745Y0020322D01*
X0178745Y0020557D02*
X0182445Y0020557D01*
X0182445Y0020792D02*
X0178745Y0020792D01*
X0178745Y0021027D02*
X0182445Y0021027D01*
X0182445Y0021262D02*
X0178745Y0021262D01*
X0178745Y0021497D02*
X0182445Y0021497D01*
X0182445Y0021732D02*
X0178745Y0021732D01*
X0178745Y0021967D02*
X0182445Y0021967D01*
X0182445Y0022202D02*
X0178745Y0022202D01*
X0178745Y0022437D02*
X0182445Y0022437D01*
X0182445Y0022672D02*
X0178745Y0022672D01*
X0178745Y0022907D02*
X0182445Y0022907D01*
X0182445Y0023142D02*
X0178745Y0023142D01*
X0163642Y0033652D02*
X0163642Y0037352D01*
X0163642Y0033652D02*
X0159548Y0033652D01*
X0159548Y0037352D01*
X0163642Y0037352D01*
X0163642Y0033887D02*
X0159548Y0033887D01*
X0159548Y0034122D02*
X0163642Y0034122D01*
X0163642Y0034357D02*
X0159548Y0034357D01*
X0159548Y0034592D02*
X0163642Y0034592D01*
X0163642Y0034827D02*
X0159548Y0034827D01*
X0159548Y0035062D02*
X0163642Y0035062D01*
X0163642Y0035297D02*
X0159548Y0035297D01*
X0159548Y0035532D02*
X0163642Y0035532D01*
X0163642Y0035767D02*
X0159548Y0035767D01*
X0159548Y0036002D02*
X0163642Y0036002D01*
X0163642Y0036237D02*
X0159548Y0036237D01*
X0159548Y0036472D02*
X0163642Y0036472D01*
X0163642Y0036707D02*
X0159548Y0036707D01*
X0159548Y0036942D02*
X0163642Y0036942D01*
X0163642Y0037177D02*
X0159548Y0037177D01*
X0163642Y0040344D02*
X0163642Y0044044D01*
X0163642Y0040344D02*
X0159548Y0040344D01*
X0159548Y0044044D01*
X0163642Y0044044D01*
X0163642Y0040579D02*
X0159548Y0040579D01*
X0159548Y0040814D02*
X0163642Y0040814D01*
X0163642Y0041049D02*
X0159548Y0041049D01*
X0159548Y0041284D02*
X0163642Y0041284D01*
X0163642Y0041519D02*
X0159548Y0041519D01*
X0159548Y0041754D02*
X0163642Y0041754D01*
X0163642Y0041989D02*
X0159548Y0041989D01*
X0159548Y0042224D02*
X0163642Y0042224D01*
X0163642Y0042459D02*
X0159548Y0042459D01*
X0159548Y0042694D02*
X0163642Y0042694D01*
X0163642Y0042929D02*
X0159548Y0042929D01*
X0159548Y0043164D02*
X0163642Y0043164D01*
X0163642Y0043399D02*
X0159548Y0043399D01*
X0159548Y0043634D02*
X0163642Y0043634D01*
X0163642Y0043869D02*
X0159548Y0043869D01*
X0156292Y0039801D02*
X0152592Y0039801D01*
X0152592Y0043895D01*
X0156292Y0043895D01*
X0156292Y0039801D01*
X0156292Y0040036D02*
X0152592Y0040036D01*
X0152592Y0040271D02*
X0156292Y0040271D01*
X0156292Y0040506D02*
X0152592Y0040506D01*
X0152592Y0040741D02*
X0156292Y0040741D01*
X0156292Y0040976D02*
X0152592Y0040976D01*
X0152592Y0041211D02*
X0156292Y0041211D01*
X0156292Y0041446D02*
X0152592Y0041446D01*
X0152592Y0041681D02*
X0156292Y0041681D01*
X0156292Y0041916D02*
X0152592Y0041916D01*
X0152592Y0042151D02*
X0156292Y0042151D01*
X0156292Y0042386D02*
X0152592Y0042386D01*
X0152592Y0042621D02*
X0156292Y0042621D01*
X0156292Y0042856D02*
X0152592Y0042856D01*
X0152592Y0043091D02*
X0156292Y0043091D01*
X0156292Y0043326D02*
X0152592Y0043326D01*
X0152592Y0043561D02*
X0156292Y0043561D01*
X0156292Y0043796D02*
X0152592Y0043796D01*
X0149599Y0039801D02*
X0145899Y0039801D01*
X0145899Y0043895D01*
X0149599Y0043895D01*
X0149599Y0039801D01*
X0149599Y0040036D02*
X0145899Y0040036D01*
X0145899Y0040271D02*
X0149599Y0040271D01*
X0149599Y0040506D02*
X0145899Y0040506D01*
X0145899Y0040741D02*
X0149599Y0040741D01*
X0149599Y0040976D02*
X0145899Y0040976D01*
X0145899Y0041211D02*
X0149599Y0041211D01*
X0149599Y0041446D02*
X0145899Y0041446D01*
X0145899Y0041681D02*
X0149599Y0041681D01*
X0149599Y0041916D02*
X0145899Y0041916D01*
X0145899Y0042151D02*
X0149599Y0042151D01*
X0149599Y0042386D02*
X0145899Y0042386D01*
X0145899Y0042621D02*
X0149599Y0042621D01*
X0149599Y0042856D02*
X0145899Y0042856D01*
X0145899Y0043091D02*
X0149599Y0043091D01*
X0149599Y0043326D02*
X0145899Y0043326D01*
X0145899Y0043561D02*
X0149599Y0043561D01*
X0149599Y0043796D02*
X0145899Y0043796D01*
X0128048Y0044544D02*
X0128048Y0040844D01*
X0128048Y0044544D02*
X0132142Y0044544D01*
X0132142Y0040844D01*
X0128048Y0040844D01*
X0128048Y0041079D02*
X0132142Y0041079D01*
X0132142Y0041314D02*
X0128048Y0041314D01*
X0128048Y0041549D02*
X0132142Y0041549D01*
X0132142Y0041784D02*
X0128048Y0041784D01*
X0128048Y0042019D02*
X0132142Y0042019D01*
X0132142Y0042254D02*
X0128048Y0042254D01*
X0128048Y0042489D02*
X0132142Y0042489D01*
X0132142Y0042724D02*
X0128048Y0042724D01*
X0128048Y0042959D02*
X0132142Y0042959D01*
X0132142Y0043194D02*
X0128048Y0043194D01*
X0128048Y0043429D02*
X0132142Y0043429D01*
X0132142Y0043664D02*
X0128048Y0043664D01*
X0128048Y0043899D02*
X0132142Y0043899D01*
X0132142Y0044134D02*
X0128048Y0044134D01*
X0128048Y0044369D02*
X0132142Y0044369D01*
X0116048Y0044544D02*
X0116048Y0040844D01*
X0116048Y0044544D02*
X0120142Y0044544D01*
X0120142Y0040844D01*
X0116048Y0040844D01*
X0116048Y0041079D02*
X0120142Y0041079D01*
X0120142Y0041314D02*
X0116048Y0041314D01*
X0116048Y0041549D02*
X0120142Y0041549D01*
X0120142Y0041784D02*
X0116048Y0041784D01*
X0116048Y0042019D02*
X0120142Y0042019D01*
X0120142Y0042254D02*
X0116048Y0042254D01*
X0116048Y0042489D02*
X0120142Y0042489D01*
X0120142Y0042724D02*
X0116048Y0042724D01*
X0116048Y0042959D02*
X0120142Y0042959D01*
X0120142Y0043194D02*
X0116048Y0043194D01*
X0116048Y0043429D02*
X0120142Y0043429D01*
X0120142Y0043664D02*
X0116048Y0043664D01*
X0116048Y0043899D02*
X0120142Y0043899D01*
X0120142Y0044134D02*
X0116048Y0044134D01*
X0116048Y0044369D02*
X0120142Y0044369D01*
X0105048Y0044544D02*
X0105048Y0040844D01*
X0105048Y0044544D02*
X0109142Y0044544D01*
X0109142Y0040844D01*
X0105048Y0040844D01*
X0105048Y0041079D02*
X0109142Y0041079D01*
X0109142Y0041314D02*
X0105048Y0041314D01*
X0105048Y0041549D02*
X0109142Y0041549D01*
X0109142Y0041784D02*
X0105048Y0041784D01*
X0105048Y0042019D02*
X0109142Y0042019D01*
X0109142Y0042254D02*
X0105048Y0042254D01*
X0105048Y0042489D02*
X0109142Y0042489D01*
X0109142Y0042724D02*
X0105048Y0042724D01*
X0105048Y0042959D02*
X0109142Y0042959D01*
X0109142Y0043194D02*
X0105048Y0043194D01*
X0105048Y0043429D02*
X0109142Y0043429D01*
X0109142Y0043664D02*
X0105048Y0043664D01*
X0105048Y0043899D02*
X0109142Y0043899D01*
X0109142Y0044134D02*
X0105048Y0044134D01*
X0105048Y0044369D02*
X0109142Y0044369D01*
X0105048Y0037852D02*
X0105048Y0034152D01*
X0105048Y0037852D02*
X0109142Y0037852D01*
X0109142Y0034152D01*
X0105048Y0034152D01*
X0105048Y0034387D02*
X0109142Y0034387D01*
X0109142Y0034622D02*
X0105048Y0034622D01*
X0105048Y0034857D02*
X0109142Y0034857D01*
X0109142Y0035092D02*
X0105048Y0035092D01*
X0105048Y0035327D02*
X0109142Y0035327D01*
X0109142Y0035562D02*
X0105048Y0035562D01*
X0105048Y0035797D02*
X0109142Y0035797D01*
X0109142Y0036032D02*
X0105048Y0036032D01*
X0105048Y0036267D02*
X0109142Y0036267D01*
X0109142Y0036502D02*
X0105048Y0036502D01*
X0105048Y0036737D02*
X0109142Y0036737D01*
X0109142Y0036972D02*
X0105048Y0036972D01*
X0105048Y0037207D02*
X0109142Y0037207D01*
X0109142Y0037442D02*
X0105048Y0037442D01*
X0105048Y0037677D02*
X0109142Y0037677D01*
X0116048Y0037852D02*
X0116048Y0034152D01*
X0116048Y0037852D02*
X0120142Y0037852D01*
X0120142Y0034152D01*
X0116048Y0034152D01*
X0116048Y0034387D02*
X0120142Y0034387D01*
X0120142Y0034622D02*
X0116048Y0034622D01*
X0116048Y0034857D02*
X0120142Y0034857D01*
X0120142Y0035092D02*
X0116048Y0035092D01*
X0116048Y0035327D02*
X0120142Y0035327D01*
X0120142Y0035562D02*
X0116048Y0035562D01*
X0116048Y0035797D02*
X0120142Y0035797D01*
X0120142Y0036032D02*
X0116048Y0036032D01*
X0116048Y0036267D02*
X0120142Y0036267D01*
X0120142Y0036502D02*
X0116048Y0036502D01*
X0116048Y0036737D02*
X0120142Y0036737D01*
X0120142Y0036972D02*
X0116048Y0036972D01*
X0116048Y0037207D02*
X0120142Y0037207D01*
X0120142Y0037442D02*
X0116048Y0037442D01*
X0116048Y0037677D02*
X0120142Y0037677D01*
X0128048Y0037852D02*
X0128048Y0034152D01*
X0128048Y0037852D02*
X0132142Y0037852D01*
X0132142Y0034152D01*
X0128048Y0034152D01*
X0128048Y0034387D02*
X0132142Y0034387D01*
X0132142Y0034622D02*
X0128048Y0034622D01*
X0128048Y0034857D02*
X0132142Y0034857D01*
X0132142Y0035092D02*
X0128048Y0035092D01*
X0128048Y0035327D02*
X0132142Y0035327D01*
X0132142Y0035562D02*
X0128048Y0035562D01*
X0128048Y0035797D02*
X0132142Y0035797D01*
X0132142Y0036032D02*
X0128048Y0036032D01*
X0128048Y0036267D02*
X0132142Y0036267D01*
X0132142Y0036502D02*
X0128048Y0036502D01*
X0128048Y0036737D02*
X0132142Y0036737D01*
X0132142Y0036972D02*
X0128048Y0036972D01*
X0128048Y0037207D02*
X0132142Y0037207D01*
X0132142Y0037442D02*
X0128048Y0037442D01*
X0128048Y0037677D02*
X0132142Y0037677D01*
X0143899Y0031801D02*
X0147599Y0031801D01*
X0143899Y0031801D02*
X0143899Y0035895D01*
X0147599Y0035895D01*
X0147599Y0031801D01*
X0147599Y0032036D02*
X0143899Y0032036D01*
X0143899Y0032271D02*
X0147599Y0032271D01*
X0147599Y0032506D02*
X0143899Y0032506D01*
X0143899Y0032741D02*
X0147599Y0032741D01*
X0147599Y0032976D02*
X0143899Y0032976D01*
X0143899Y0033211D02*
X0147599Y0033211D01*
X0147599Y0033446D02*
X0143899Y0033446D01*
X0143899Y0033681D02*
X0147599Y0033681D01*
X0147599Y0033916D02*
X0143899Y0033916D01*
X0143899Y0034151D02*
X0147599Y0034151D01*
X0147599Y0034386D02*
X0143899Y0034386D01*
X0143899Y0034621D02*
X0147599Y0034621D01*
X0147599Y0034856D02*
X0143899Y0034856D01*
X0143899Y0035091D02*
X0147599Y0035091D01*
X0147599Y0035326D02*
X0143899Y0035326D01*
X0143899Y0035561D02*
X0147599Y0035561D01*
X0147599Y0035796D02*
X0143899Y0035796D01*
X0150592Y0031801D02*
X0154292Y0031801D01*
X0150592Y0031801D02*
X0150592Y0035895D01*
X0154292Y0035895D01*
X0154292Y0031801D01*
X0154292Y0032036D02*
X0150592Y0032036D01*
X0150592Y0032271D02*
X0154292Y0032271D01*
X0154292Y0032506D02*
X0150592Y0032506D01*
X0150592Y0032741D02*
X0154292Y0032741D01*
X0154292Y0032976D02*
X0150592Y0032976D01*
X0150592Y0033211D02*
X0154292Y0033211D01*
X0154292Y0033446D02*
X0150592Y0033446D01*
X0150592Y0033681D02*
X0154292Y0033681D01*
X0154292Y0033916D02*
X0150592Y0033916D01*
X0150592Y0034151D02*
X0154292Y0034151D01*
X0154292Y0034386D02*
X0150592Y0034386D01*
X0150592Y0034621D02*
X0154292Y0034621D01*
X0154292Y0034856D02*
X0150592Y0034856D01*
X0150592Y0035091D02*
X0154292Y0035091D01*
X0154292Y0035326D02*
X0150592Y0035326D01*
X0150592Y0035561D02*
X0154292Y0035561D01*
X0154292Y0035796D02*
X0150592Y0035796D01*
X0110548Y0030544D02*
X0110548Y0026844D01*
X0110548Y0030544D02*
X0114642Y0030544D01*
X0114642Y0026844D01*
X0110548Y0026844D01*
X0110548Y0027079D02*
X0114642Y0027079D01*
X0114642Y0027314D02*
X0110548Y0027314D01*
X0110548Y0027549D02*
X0114642Y0027549D01*
X0114642Y0027784D02*
X0110548Y0027784D01*
X0110548Y0028019D02*
X0114642Y0028019D01*
X0114642Y0028254D02*
X0110548Y0028254D01*
X0110548Y0028489D02*
X0114642Y0028489D01*
X0114642Y0028724D02*
X0110548Y0028724D01*
X0110548Y0028959D02*
X0114642Y0028959D01*
X0114642Y0029194D02*
X0110548Y0029194D01*
X0110548Y0029429D02*
X0114642Y0029429D01*
X0114642Y0029664D02*
X0110548Y0029664D01*
X0110548Y0029899D02*
X0114642Y0029899D01*
X0114642Y0030134D02*
X0110548Y0030134D01*
X0110548Y0030369D02*
X0114642Y0030369D01*
X0110548Y0023852D02*
X0110548Y0020152D01*
X0110548Y0023852D02*
X0114642Y0023852D01*
X0114642Y0020152D01*
X0110548Y0020152D01*
X0110548Y0020387D02*
X0114642Y0020387D01*
X0114642Y0020622D02*
X0110548Y0020622D01*
X0110548Y0020857D02*
X0114642Y0020857D01*
X0114642Y0021092D02*
X0110548Y0021092D01*
X0110548Y0021327D02*
X0114642Y0021327D01*
X0114642Y0021562D02*
X0110548Y0021562D01*
X0110548Y0021797D02*
X0114642Y0021797D01*
X0114642Y0022032D02*
X0110548Y0022032D01*
X0110548Y0022267D02*
X0114642Y0022267D01*
X0114642Y0022502D02*
X0110548Y0022502D01*
X0110548Y0022737D02*
X0114642Y0022737D01*
X0114642Y0022972D02*
X0110548Y0022972D01*
X0110548Y0023207D02*
X0114642Y0023207D01*
X0114642Y0023442D02*
X0110548Y0023442D01*
X0110548Y0023677D02*
X0114642Y0023677D01*
X0078245Y0062955D02*
X0078245Y0067049D01*
X0081945Y0067049D01*
X0081945Y0062955D01*
X0078245Y0062955D01*
X0078245Y0063190D02*
X0081945Y0063190D01*
X0081945Y0063425D02*
X0078245Y0063425D01*
X0078245Y0063660D02*
X0081945Y0063660D01*
X0081945Y0063895D02*
X0078245Y0063895D01*
X0078245Y0064130D02*
X0081945Y0064130D01*
X0081945Y0064365D02*
X0078245Y0064365D01*
X0078245Y0064600D02*
X0081945Y0064600D01*
X0081945Y0064835D02*
X0078245Y0064835D01*
X0078245Y0065070D02*
X0081945Y0065070D01*
X0081945Y0065305D02*
X0078245Y0065305D01*
X0078245Y0065540D02*
X0081945Y0065540D01*
X0081945Y0065775D02*
X0078245Y0065775D01*
X0078245Y0066010D02*
X0081945Y0066010D01*
X0081945Y0066245D02*
X0078245Y0066245D01*
X0078245Y0066480D02*
X0081945Y0066480D01*
X0081945Y0066715D02*
X0078245Y0066715D01*
X0078245Y0066950D02*
X0081945Y0066950D01*
X0078245Y0069647D02*
X0078245Y0073741D01*
X0081945Y0073741D01*
X0081945Y0069647D01*
X0078245Y0069647D01*
X0078245Y0069882D02*
X0081945Y0069882D01*
X0081945Y0070117D02*
X0078245Y0070117D01*
X0078245Y0070352D02*
X0081945Y0070352D01*
X0081945Y0070587D02*
X0078245Y0070587D01*
X0078245Y0070822D02*
X0081945Y0070822D01*
X0081945Y0071057D02*
X0078245Y0071057D01*
X0078245Y0071292D02*
X0081945Y0071292D01*
X0081945Y0071527D02*
X0078245Y0071527D01*
X0078245Y0071762D02*
X0081945Y0071762D01*
X0081945Y0071997D02*
X0078245Y0071997D01*
X0078245Y0072232D02*
X0081945Y0072232D01*
X0081945Y0072467D02*
X0078245Y0072467D01*
X0078245Y0072702D02*
X0081945Y0072702D01*
X0081945Y0072937D02*
X0078245Y0072937D01*
X0078245Y0073172D02*
X0081945Y0073172D01*
X0081945Y0073407D02*
X0078245Y0073407D01*
X0078245Y0073642D02*
X0081945Y0073642D01*
X0058245Y0073741D02*
X0058245Y0069647D01*
X0058245Y0073741D02*
X0061945Y0073741D01*
X0061945Y0069647D01*
X0058245Y0069647D01*
X0058245Y0069882D02*
X0061945Y0069882D01*
X0061945Y0070117D02*
X0058245Y0070117D01*
X0058245Y0070352D02*
X0061945Y0070352D01*
X0061945Y0070587D02*
X0058245Y0070587D01*
X0058245Y0070822D02*
X0061945Y0070822D01*
X0061945Y0071057D02*
X0058245Y0071057D01*
X0058245Y0071292D02*
X0061945Y0071292D01*
X0061945Y0071527D02*
X0058245Y0071527D01*
X0058245Y0071762D02*
X0061945Y0071762D01*
X0061945Y0071997D02*
X0058245Y0071997D01*
X0058245Y0072232D02*
X0061945Y0072232D01*
X0061945Y0072467D02*
X0058245Y0072467D01*
X0058245Y0072702D02*
X0061945Y0072702D01*
X0061945Y0072937D02*
X0058245Y0072937D01*
X0058245Y0073172D02*
X0061945Y0073172D01*
X0061945Y0073407D02*
X0058245Y0073407D01*
X0058245Y0073642D02*
X0061945Y0073642D01*
X0058245Y0067049D02*
X0058245Y0062955D01*
X0058245Y0067049D02*
X0061945Y0067049D01*
X0061945Y0062955D01*
X0058245Y0062955D01*
X0058245Y0063190D02*
X0061945Y0063190D01*
X0061945Y0063425D02*
X0058245Y0063425D01*
X0058245Y0063660D02*
X0061945Y0063660D01*
X0061945Y0063895D02*
X0058245Y0063895D01*
X0058245Y0064130D02*
X0061945Y0064130D01*
X0061945Y0064365D02*
X0058245Y0064365D01*
X0058245Y0064600D02*
X0061945Y0064600D01*
X0061945Y0064835D02*
X0058245Y0064835D01*
X0058245Y0065070D02*
X0061945Y0065070D01*
X0061945Y0065305D02*
X0058245Y0065305D01*
X0058245Y0065540D02*
X0061945Y0065540D01*
X0061945Y0065775D02*
X0058245Y0065775D01*
X0058245Y0066010D02*
X0061945Y0066010D01*
X0061945Y0066245D02*
X0058245Y0066245D01*
X0058245Y0066480D02*
X0061945Y0066480D01*
X0061945Y0066715D02*
X0058245Y0066715D01*
X0058245Y0066950D02*
X0061945Y0066950D01*
X0072399Y0112895D02*
X0076099Y0112895D01*
X0076099Y0108801D01*
X0072399Y0108801D01*
X0072399Y0112895D01*
X0072399Y0109036D02*
X0076099Y0109036D01*
X0076099Y0109271D02*
X0072399Y0109271D01*
X0072399Y0109506D02*
X0076099Y0109506D01*
X0076099Y0109741D02*
X0072399Y0109741D01*
X0072399Y0109976D02*
X0076099Y0109976D01*
X0076099Y0110211D02*
X0072399Y0110211D01*
X0072399Y0110446D02*
X0076099Y0110446D01*
X0076099Y0110681D02*
X0072399Y0110681D01*
X0072399Y0110916D02*
X0076099Y0110916D01*
X0076099Y0111151D02*
X0072399Y0111151D01*
X0072399Y0111386D02*
X0076099Y0111386D01*
X0076099Y0111621D02*
X0072399Y0111621D01*
X0072399Y0111856D02*
X0076099Y0111856D01*
X0076099Y0112091D02*
X0072399Y0112091D01*
X0072399Y0112326D02*
X0076099Y0112326D01*
X0076099Y0112561D02*
X0072399Y0112561D01*
X0072399Y0112796D02*
X0076099Y0112796D01*
X0079092Y0112895D02*
X0082792Y0112895D01*
X0082792Y0108801D01*
X0079092Y0108801D01*
X0079092Y0112895D01*
X0079092Y0109036D02*
X0082792Y0109036D01*
X0082792Y0109271D02*
X0079092Y0109271D01*
X0079092Y0109506D02*
X0082792Y0109506D01*
X0082792Y0109741D02*
X0079092Y0109741D01*
X0079092Y0109976D02*
X0082792Y0109976D01*
X0082792Y0110211D02*
X0079092Y0110211D01*
X0079092Y0110446D02*
X0082792Y0110446D01*
X0082792Y0110681D02*
X0079092Y0110681D01*
X0079092Y0110916D02*
X0082792Y0110916D01*
X0082792Y0111151D02*
X0079092Y0111151D01*
X0079092Y0111386D02*
X0082792Y0111386D01*
X0082792Y0111621D02*
X0079092Y0111621D01*
X0079092Y0111856D02*
X0082792Y0111856D01*
X0082792Y0112091D02*
X0079092Y0112091D01*
X0079092Y0112326D02*
X0082792Y0112326D01*
X0082792Y0112561D02*
X0079092Y0112561D01*
X0079092Y0112796D02*
X0082792Y0112796D01*
X0081945Y0120955D02*
X0081945Y0125049D01*
X0081945Y0120955D02*
X0078245Y0120955D01*
X0078245Y0125049D01*
X0081945Y0125049D01*
X0081945Y0121190D02*
X0078245Y0121190D01*
X0078245Y0121425D02*
X0081945Y0121425D01*
X0081945Y0121660D02*
X0078245Y0121660D01*
X0078245Y0121895D02*
X0081945Y0121895D01*
X0081945Y0122130D02*
X0078245Y0122130D01*
X0078245Y0122365D02*
X0081945Y0122365D01*
X0081945Y0122600D02*
X0078245Y0122600D01*
X0078245Y0122835D02*
X0081945Y0122835D01*
X0081945Y0123070D02*
X0078245Y0123070D01*
X0078245Y0123305D02*
X0081945Y0123305D01*
X0081945Y0123540D02*
X0078245Y0123540D01*
X0078245Y0123775D02*
X0081945Y0123775D01*
X0081945Y0124010D02*
X0078245Y0124010D01*
X0078245Y0124245D02*
X0081945Y0124245D01*
X0081945Y0124480D02*
X0078245Y0124480D01*
X0078245Y0124715D02*
X0081945Y0124715D01*
X0081945Y0124950D02*
X0078245Y0124950D01*
X0081945Y0127647D02*
X0081945Y0131741D01*
X0081945Y0127647D02*
X0078245Y0127647D01*
X0078245Y0131741D01*
X0081945Y0131741D01*
X0081945Y0127882D02*
X0078245Y0127882D01*
X0078245Y0128117D02*
X0081945Y0128117D01*
X0081945Y0128352D02*
X0078245Y0128352D01*
X0078245Y0128587D02*
X0081945Y0128587D01*
X0081945Y0128822D02*
X0078245Y0128822D01*
X0078245Y0129057D02*
X0081945Y0129057D01*
X0081945Y0129292D02*
X0078245Y0129292D01*
X0078245Y0129527D02*
X0081945Y0129527D01*
X0081945Y0129762D02*
X0078245Y0129762D01*
X0078245Y0129997D02*
X0081945Y0129997D01*
X0081945Y0130232D02*
X0078245Y0130232D01*
X0078245Y0130467D02*
X0081945Y0130467D01*
X0081945Y0130702D02*
X0078245Y0130702D01*
X0078245Y0130937D02*
X0081945Y0130937D01*
X0081945Y0131172D02*
X0078245Y0131172D01*
X0078245Y0131407D02*
X0081945Y0131407D01*
X0081945Y0131642D02*
X0078245Y0131642D01*
X0061945Y0131741D02*
X0061945Y0127647D01*
X0058245Y0127647D01*
X0058245Y0131741D01*
X0061945Y0131741D01*
X0061945Y0127882D02*
X0058245Y0127882D01*
X0058245Y0128117D02*
X0061945Y0128117D01*
X0061945Y0128352D02*
X0058245Y0128352D01*
X0058245Y0128587D02*
X0061945Y0128587D01*
X0061945Y0128822D02*
X0058245Y0128822D01*
X0058245Y0129057D02*
X0061945Y0129057D01*
X0061945Y0129292D02*
X0058245Y0129292D01*
X0058245Y0129527D02*
X0061945Y0129527D01*
X0061945Y0129762D02*
X0058245Y0129762D01*
X0058245Y0129997D02*
X0061945Y0129997D01*
X0061945Y0130232D02*
X0058245Y0130232D01*
X0058245Y0130467D02*
X0061945Y0130467D01*
X0061945Y0130702D02*
X0058245Y0130702D01*
X0058245Y0130937D02*
X0061945Y0130937D01*
X0061945Y0131172D02*
X0058245Y0131172D01*
X0058245Y0131407D02*
X0061945Y0131407D01*
X0061945Y0131642D02*
X0058245Y0131642D01*
X0061945Y0125049D02*
X0061945Y0120955D01*
X0058245Y0120955D01*
X0058245Y0125049D01*
X0061945Y0125049D01*
X0061945Y0121190D02*
X0058245Y0121190D01*
X0058245Y0121425D02*
X0061945Y0121425D01*
X0061945Y0121660D02*
X0058245Y0121660D01*
X0058245Y0121895D02*
X0061945Y0121895D01*
X0061945Y0122130D02*
X0058245Y0122130D01*
X0058245Y0122365D02*
X0061945Y0122365D01*
X0061945Y0122600D02*
X0058245Y0122600D01*
X0058245Y0122835D02*
X0061945Y0122835D01*
X0061945Y0123070D02*
X0058245Y0123070D01*
X0058245Y0123305D02*
X0061945Y0123305D01*
X0061945Y0123540D02*
X0058245Y0123540D01*
X0058245Y0123775D02*
X0061945Y0123775D01*
X0061945Y0124010D02*
X0058245Y0124010D01*
X0058245Y0124245D02*
X0061945Y0124245D01*
X0061945Y0124480D02*
X0058245Y0124480D01*
X0058245Y0124715D02*
X0061945Y0124715D01*
X0061945Y0124950D02*
X0058245Y0124950D01*
X0168202Y0152498D02*
X0172296Y0152498D01*
X0168202Y0152498D02*
X0168202Y0156198D01*
X0172296Y0156198D01*
X0172296Y0152498D01*
X0172296Y0152733D02*
X0168202Y0152733D01*
X0168202Y0152968D02*
X0172296Y0152968D01*
X0172296Y0153203D02*
X0168202Y0153203D01*
X0168202Y0153438D02*
X0172296Y0153438D01*
X0172296Y0153673D02*
X0168202Y0153673D01*
X0168202Y0153908D02*
X0172296Y0153908D01*
X0172296Y0154143D02*
X0168202Y0154143D01*
X0168202Y0154378D02*
X0172296Y0154378D01*
X0172296Y0154613D02*
X0168202Y0154613D01*
X0168202Y0154848D02*
X0172296Y0154848D01*
X0172296Y0155083D02*
X0168202Y0155083D01*
X0168202Y0155318D02*
X0172296Y0155318D01*
X0172296Y0155553D02*
X0168202Y0155553D01*
X0168202Y0155788D02*
X0172296Y0155788D01*
X0172296Y0156023D02*
X0168202Y0156023D01*
X0174895Y0152498D02*
X0178989Y0152498D01*
X0174895Y0152498D02*
X0174895Y0156198D01*
X0178989Y0156198D01*
X0178989Y0152498D01*
X0178989Y0152733D02*
X0174895Y0152733D01*
X0174895Y0152968D02*
X0178989Y0152968D01*
X0178989Y0153203D02*
X0174895Y0153203D01*
X0174895Y0153438D02*
X0178989Y0153438D01*
X0178989Y0153673D02*
X0174895Y0153673D01*
X0174895Y0153908D02*
X0178989Y0153908D01*
X0178989Y0154143D02*
X0174895Y0154143D01*
X0174895Y0154378D02*
X0178989Y0154378D01*
X0178989Y0154613D02*
X0174895Y0154613D01*
X0174895Y0154848D02*
X0178989Y0154848D01*
X0178989Y0155083D02*
X0174895Y0155083D01*
X0174895Y0155318D02*
X0178989Y0155318D01*
X0178989Y0155553D02*
X0174895Y0155553D01*
X0174895Y0155788D02*
X0178989Y0155788D01*
X0178989Y0156023D02*
X0174895Y0156023D01*
X0261202Y0137498D02*
X0265296Y0137498D01*
X0261202Y0137498D02*
X0261202Y0141198D01*
X0265296Y0141198D01*
X0265296Y0137498D01*
X0265296Y0137733D02*
X0261202Y0137733D01*
X0261202Y0137968D02*
X0265296Y0137968D01*
X0265296Y0138203D02*
X0261202Y0138203D01*
X0261202Y0138438D02*
X0265296Y0138438D01*
X0265296Y0138673D02*
X0261202Y0138673D01*
X0261202Y0138908D02*
X0265296Y0138908D01*
X0265296Y0139143D02*
X0261202Y0139143D01*
X0261202Y0139378D02*
X0265296Y0139378D01*
X0265296Y0139613D02*
X0261202Y0139613D01*
X0261202Y0139848D02*
X0265296Y0139848D01*
X0265296Y0140083D02*
X0261202Y0140083D01*
X0261202Y0140318D02*
X0265296Y0140318D01*
X0265296Y0140553D02*
X0261202Y0140553D01*
X0261202Y0140788D02*
X0265296Y0140788D01*
X0265296Y0141023D02*
X0261202Y0141023D01*
X0267895Y0137498D02*
X0271989Y0137498D01*
X0267895Y0137498D02*
X0267895Y0141198D01*
X0271989Y0141198D01*
X0271989Y0137498D01*
X0271989Y0137733D02*
X0267895Y0137733D01*
X0267895Y0137968D02*
X0271989Y0137968D01*
X0271989Y0138203D02*
X0267895Y0138203D01*
X0267895Y0138438D02*
X0271989Y0138438D01*
X0271989Y0138673D02*
X0267895Y0138673D01*
X0267895Y0138908D02*
X0271989Y0138908D01*
X0271989Y0139143D02*
X0267895Y0139143D01*
X0267895Y0139378D02*
X0271989Y0139378D01*
X0271989Y0139613D02*
X0267895Y0139613D01*
X0267895Y0139848D02*
X0271989Y0139848D01*
X0271989Y0140083D02*
X0267895Y0140083D01*
X0267895Y0140318D02*
X0271989Y0140318D01*
X0271989Y0140553D02*
X0267895Y0140553D01*
X0267895Y0140788D02*
X0271989Y0140788D01*
X0271989Y0141023D02*
X0267895Y0141023D01*
X0281142Y0141352D02*
X0281142Y0137652D01*
X0277048Y0137652D01*
X0277048Y0141352D01*
X0281142Y0141352D01*
X0281142Y0137887D02*
X0277048Y0137887D01*
X0277048Y0138122D02*
X0281142Y0138122D01*
X0281142Y0138357D02*
X0277048Y0138357D01*
X0277048Y0138592D02*
X0281142Y0138592D01*
X0281142Y0138827D02*
X0277048Y0138827D01*
X0277048Y0139062D02*
X0281142Y0139062D01*
X0281142Y0139297D02*
X0277048Y0139297D01*
X0277048Y0139532D02*
X0281142Y0139532D01*
X0281142Y0139767D02*
X0277048Y0139767D01*
X0277048Y0140002D02*
X0281142Y0140002D01*
X0281142Y0140237D02*
X0277048Y0140237D01*
X0277048Y0140472D02*
X0281142Y0140472D01*
X0281142Y0140707D02*
X0277048Y0140707D01*
X0277048Y0140942D02*
X0281142Y0140942D01*
X0281142Y0141177D02*
X0277048Y0141177D01*
X0281142Y0144344D02*
X0281142Y0148044D01*
X0281142Y0144344D02*
X0277048Y0144344D01*
X0277048Y0148044D01*
X0281142Y0148044D01*
X0281142Y0144579D02*
X0277048Y0144579D01*
X0277048Y0144814D02*
X0281142Y0144814D01*
X0281142Y0145049D02*
X0277048Y0145049D01*
X0277048Y0145284D02*
X0281142Y0145284D01*
X0281142Y0145519D02*
X0277048Y0145519D01*
X0277048Y0145754D02*
X0281142Y0145754D01*
X0281142Y0145989D02*
X0277048Y0145989D01*
X0277048Y0146224D02*
X0281142Y0146224D01*
X0281142Y0146459D02*
X0277048Y0146459D01*
X0277048Y0146694D02*
X0281142Y0146694D01*
X0281142Y0146929D02*
X0277048Y0146929D01*
X0277048Y0147164D02*
X0281142Y0147164D01*
X0281142Y0147399D02*
X0277048Y0147399D01*
X0277048Y0147634D02*
X0281142Y0147634D01*
X0281142Y0147869D02*
X0277048Y0147869D01*
X0283899Y0141395D02*
X0287599Y0141395D01*
X0287599Y0137301D01*
X0283899Y0137301D01*
X0283899Y0141395D01*
X0283899Y0137536D02*
X0287599Y0137536D01*
X0287599Y0137771D02*
X0283899Y0137771D01*
X0283899Y0138006D02*
X0287599Y0138006D01*
X0287599Y0138241D02*
X0283899Y0138241D01*
X0283899Y0138476D02*
X0287599Y0138476D01*
X0287599Y0138711D02*
X0283899Y0138711D01*
X0283899Y0138946D02*
X0287599Y0138946D01*
X0287599Y0139181D02*
X0283899Y0139181D01*
X0283899Y0139416D02*
X0287599Y0139416D01*
X0287599Y0139651D02*
X0283899Y0139651D01*
X0283899Y0139886D02*
X0287599Y0139886D01*
X0287599Y0140121D02*
X0283899Y0140121D01*
X0283899Y0140356D02*
X0287599Y0140356D01*
X0287599Y0140591D02*
X0283899Y0140591D01*
X0283899Y0140826D02*
X0287599Y0140826D01*
X0287599Y0141061D02*
X0283899Y0141061D01*
X0283899Y0141296D02*
X0287599Y0141296D01*
X0290592Y0141395D02*
X0294292Y0141395D01*
X0294292Y0137301D01*
X0290592Y0137301D01*
X0290592Y0141395D01*
X0290592Y0137536D02*
X0294292Y0137536D01*
X0294292Y0137771D02*
X0290592Y0137771D01*
X0290592Y0138006D02*
X0294292Y0138006D01*
X0294292Y0138241D02*
X0290592Y0138241D01*
X0290592Y0138476D02*
X0294292Y0138476D01*
X0294292Y0138711D02*
X0290592Y0138711D01*
X0290592Y0138946D02*
X0294292Y0138946D01*
X0294292Y0139181D02*
X0290592Y0139181D01*
X0290592Y0139416D02*
X0294292Y0139416D01*
X0294292Y0139651D02*
X0290592Y0139651D01*
X0290592Y0139886D02*
X0294292Y0139886D01*
X0294292Y0140121D02*
X0290592Y0140121D01*
X0290592Y0140356D02*
X0294292Y0140356D01*
X0294292Y0140591D02*
X0290592Y0140591D01*
X0290592Y0140826D02*
X0294292Y0140826D01*
X0294292Y0141061D02*
X0290592Y0141061D01*
X0290592Y0141296D02*
X0294292Y0141296D01*
X0297202Y0141198D02*
X0301296Y0141198D01*
X0301296Y0137498D01*
X0297202Y0137498D01*
X0297202Y0141198D01*
X0297202Y0137733D02*
X0301296Y0137733D01*
X0301296Y0137968D02*
X0297202Y0137968D01*
X0297202Y0138203D02*
X0301296Y0138203D01*
X0301296Y0138438D02*
X0297202Y0138438D01*
X0297202Y0138673D02*
X0301296Y0138673D01*
X0301296Y0138908D02*
X0297202Y0138908D01*
X0297202Y0139143D02*
X0301296Y0139143D01*
X0301296Y0139378D02*
X0297202Y0139378D01*
X0297202Y0139613D02*
X0301296Y0139613D01*
X0301296Y0139848D02*
X0297202Y0139848D01*
X0297202Y0140083D02*
X0301296Y0140083D01*
X0301296Y0140318D02*
X0297202Y0140318D01*
X0297202Y0140553D02*
X0301296Y0140553D01*
X0301296Y0140788D02*
X0297202Y0140788D01*
X0297202Y0141023D02*
X0301296Y0141023D01*
X0303895Y0141198D02*
X0307989Y0141198D01*
X0307989Y0137498D01*
X0303895Y0137498D01*
X0303895Y0141198D01*
X0303895Y0137733D02*
X0307989Y0137733D01*
X0307989Y0137968D02*
X0303895Y0137968D01*
X0303895Y0138203D02*
X0307989Y0138203D01*
X0307989Y0138438D02*
X0303895Y0138438D01*
X0303895Y0138673D02*
X0307989Y0138673D01*
X0307989Y0138908D02*
X0303895Y0138908D01*
X0303895Y0139143D02*
X0307989Y0139143D01*
X0307989Y0139378D02*
X0303895Y0139378D01*
X0303895Y0139613D02*
X0307989Y0139613D01*
X0307989Y0139848D02*
X0303895Y0139848D01*
X0303895Y0140083D02*
X0307989Y0140083D01*
X0307989Y0140318D02*
X0303895Y0140318D01*
X0303895Y0140553D02*
X0307989Y0140553D01*
X0307989Y0140788D02*
X0303895Y0140788D01*
X0303895Y0141023D02*
X0307989Y0141023D01*
X0312399Y0132395D02*
X0316099Y0132395D01*
X0316099Y0128301D01*
X0312399Y0128301D01*
X0312399Y0132395D01*
X0312399Y0128536D02*
X0316099Y0128536D01*
X0316099Y0128771D02*
X0312399Y0128771D01*
X0312399Y0129006D02*
X0316099Y0129006D01*
X0316099Y0129241D02*
X0312399Y0129241D01*
X0312399Y0129476D02*
X0316099Y0129476D01*
X0316099Y0129711D02*
X0312399Y0129711D01*
X0312399Y0129946D02*
X0316099Y0129946D01*
X0316099Y0130181D02*
X0312399Y0130181D01*
X0312399Y0130416D02*
X0316099Y0130416D01*
X0316099Y0130651D02*
X0312399Y0130651D01*
X0312399Y0130886D02*
X0316099Y0130886D01*
X0316099Y0131121D02*
X0312399Y0131121D01*
X0312399Y0131356D02*
X0316099Y0131356D01*
X0316099Y0131591D02*
X0312399Y0131591D01*
X0312399Y0131826D02*
X0316099Y0131826D01*
X0316099Y0132061D02*
X0312399Y0132061D01*
X0312399Y0132296D02*
X0316099Y0132296D01*
X0319092Y0132395D02*
X0322792Y0132395D01*
X0322792Y0128301D01*
X0319092Y0128301D01*
X0319092Y0132395D01*
X0319092Y0128536D02*
X0322792Y0128536D01*
X0322792Y0128771D02*
X0319092Y0128771D01*
X0319092Y0129006D02*
X0322792Y0129006D01*
X0322792Y0129241D02*
X0319092Y0129241D01*
X0319092Y0129476D02*
X0322792Y0129476D01*
X0322792Y0129711D02*
X0319092Y0129711D01*
X0319092Y0129946D02*
X0322792Y0129946D01*
X0322792Y0130181D02*
X0319092Y0130181D01*
X0319092Y0130416D02*
X0322792Y0130416D01*
X0322792Y0130651D02*
X0319092Y0130651D01*
X0319092Y0130886D02*
X0322792Y0130886D01*
X0322792Y0131121D02*
X0319092Y0131121D01*
X0319092Y0131356D02*
X0322792Y0131356D01*
X0322792Y0131591D02*
X0319092Y0131591D01*
X0319092Y0131826D02*
X0322792Y0131826D01*
X0322792Y0132061D02*
X0319092Y0132061D01*
X0319092Y0132296D02*
X0322792Y0132296D01*
X0299445Y0124741D02*
X0299445Y0120647D01*
X0295745Y0120647D01*
X0295745Y0124741D01*
X0299445Y0124741D01*
X0299445Y0120882D02*
X0295745Y0120882D01*
X0295745Y0121117D02*
X0299445Y0121117D01*
X0299445Y0121352D02*
X0295745Y0121352D01*
X0295745Y0121587D02*
X0299445Y0121587D01*
X0299445Y0121822D02*
X0295745Y0121822D01*
X0295745Y0122057D02*
X0299445Y0122057D01*
X0299445Y0122292D02*
X0295745Y0122292D01*
X0295745Y0122527D02*
X0299445Y0122527D01*
X0299445Y0122762D02*
X0295745Y0122762D01*
X0295745Y0122997D02*
X0299445Y0122997D01*
X0299445Y0123232D02*
X0295745Y0123232D01*
X0295745Y0123467D02*
X0299445Y0123467D01*
X0299445Y0123702D02*
X0295745Y0123702D01*
X0295745Y0123937D02*
X0299445Y0123937D01*
X0299445Y0124172D02*
X0295745Y0124172D01*
X0295745Y0124407D02*
X0299445Y0124407D01*
X0299445Y0124642D02*
X0295745Y0124642D01*
X0287745Y0124241D02*
X0287745Y0120147D01*
X0287745Y0124241D02*
X0291445Y0124241D01*
X0291445Y0120147D01*
X0287745Y0120147D01*
X0287745Y0120382D02*
X0291445Y0120382D01*
X0291445Y0120617D02*
X0287745Y0120617D01*
X0287745Y0120852D02*
X0291445Y0120852D01*
X0291445Y0121087D02*
X0287745Y0121087D01*
X0287745Y0121322D02*
X0291445Y0121322D01*
X0291445Y0121557D02*
X0287745Y0121557D01*
X0287745Y0121792D02*
X0291445Y0121792D01*
X0291445Y0122027D02*
X0287745Y0122027D01*
X0287745Y0122262D02*
X0291445Y0122262D01*
X0291445Y0122497D02*
X0287745Y0122497D01*
X0287745Y0122732D02*
X0291445Y0122732D01*
X0291445Y0122967D02*
X0287745Y0122967D01*
X0287745Y0123202D02*
X0291445Y0123202D01*
X0291445Y0123437D02*
X0287745Y0123437D01*
X0287745Y0123672D02*
X0291445Y0123672D01*
X0291445Y0123907D02*
X0287745Y0123907D01*
X0287745Y0124142D02*
X0291445Y0124142D01*
X0292792Y0127301D02*
X0289092Y0127301D01*
X0289092Y0131395D01*
X0292792Y0131395D01*
X0292792Y0127301D01*
X0292792Y0127536D02*
X0289092Y0127536D01*
X0289092Y0127771D02*
X0292792Y0127771D01*
X0292792Y0128006D02*
X0289092Y0128006D01*
X0289092Y0128241D02*
X0292792Y0128241D01*
X0292792Y0128476D02*
X0289092Y0128476D01*
X0289092Y0128711D02*
X0292792Y0128711D01*
X0292792Y0128946D02*
X0289092Y0128946D01*
X0289092Y0129181D02*
X0292792Y0129181D01*
X0292792Y0129416D02*
X0289092Y0129416D01*
X0289092Y0129651D02*
X0292792Y0129651D01*
X0292792Y0129886D02*
X0289092Y0129886D01*
X0289092Y0130121D02*
X0292792Y0130121D01*
X0292792Y0130356D02*
X0289092Y0130356D01*
X0289092Y0130591D02*
X0292792Y0130591D01*
X0292792Y0130826D02*
X0289092Y0130826D01*
X0289092Y0131061D02*
X0292792Y0131061D01*
X0292792Y0131296D02*
X0289092Y0131296D01*
X0286099Y0127301D02*
X0282399Y0127301D01*
X0282399Y0131395D01*
X0286099Y0131395D01*
X0286099Y0127301D01*
X0286099Y0127536D02*
X0282399Y0127536D01*
X0282399Y0127771D02*
X0286099Y0127771D01*
X0286099Y0128006D02*
X0282399Y0128006D01*
X0282399Y0128241D02*
X0286099Y0128241D01*
X0286099Y0128476D02*
X0282399Y0128476D01*
X0282399Y0128711D02*
X0286099Y0128711D01*
X0286099Y0128946D02*
X0282399Y0128946D01*
X0282399Y0129181D02*
X0286099Y0129181D01*
X0286099Y0129416D02*
X0282399Y0129416D01*
X0282399Y0129651D02*
X0286099Y0129651D01*
X0286099Y0129886D02*
X0282399Y0129886D01*
X0282399Y0130121D02*
X0286099Y0130121D01*
X0286099Y0130356D02*
X0282399Y0130356D01*
X0282399Y0130591D02*
X0286099Y0130591D01*
X0286099Y0130826D02*
X0282399Y0130826D01*
X0282399Y0131061D02*
X0286099Y0131061D01*
X0286099Y0131296D02*
X0282399Y0131296D01*
X0280548Y0124544D02*
X0280548Y0120844D01*
X0280548Y0124544D02*
X0284642Y0124544D01*
X0284642Y0120844D01*
X0280548Y0120844D01*
X0280548Y0121079D02*
X0284642Y0121079D01*
X0284642Y0121314D02*
X0280548Y0121314D01*
X0280548Y0121549D02*
X0284642Y0121549D01*
X0284642Y0121784D02*
X0280548Y0121784D01*
X0280548Y0122019D02*
X0284642Y0122019D01*
X0284642Y0122254D02*
X0280548Y0122254D01*
X0280548Y0122489D02*
X0284642Y0122489D01*
X0284642Y0122724D02*
X0280548Y0122724D01*
X0280548Y0122959D02*
X0284642Y0122959D01*
X0284642Y0123194D02*
X0280548Y0123194D01*
X0280548Y0123429D02*
X0284642Y0123429D01*
X0284642Y0123664D02*
X0280548Y0123664D01*
X0280548Y0123899D02*
X0284642Y0123899D01*
X0284642Y0124134D02*
X0280548Y0124134D01*
X0280548Y0124369D02*
X0284642Y0124369D01*
X0280548Y0117852D02*
X0280548Y0114152D01*
X0280548Y0117852D02*
X0284642Y0117852D01*
X0284642Y0114152D01*
X0280548Y0114152D01*
X0280548Y0114387D02*
X0284642Y0114387D01*
X0284642Y0114622D02*
X0280548Y0114622D01*
X0280548Y0114857D02*
X0284642Y0114857D01*
X0284642Y0115092D02*
X0280548Y0115092D01*
X0280548Y0115327D02*
X0284642Y0115327D01*
X0284642Y0115562D02*
X0280548Y0115562D01*
X0280548Y0115797D02*
X0284642Y0115797D01*
X0284642Y0116032D02*
X0280548Y0116032D01*
X0280548Y0116267D02*
X0284642Y0116267D01*
X0284642Y0116502D02*
X0280548Y0116502D01*
X0280548Y0116737D02*
X0284642Y0116737D01*
X0284642Y0116972D02*
X0280548Y0116972D01*
X0280548Y0117207D02*
X0284642Y0117207D01*
X0284642Y0117442D02*
X0280548Y0117442D01*
X0280548Y0117677D02*
X0284642Y0117677D01*
X0287745Y0117549D02*
X0287745Y0113455D01*
X0287745Y0117549D02*
X0291445Y0117549D01*
X0291445Y0113455D01*
X0287745Y0113455D01*
X0287745Y0113690D02*
X0291445Y0113690D01*
X0291445Y0113925D02*
X0287745Y0113925D01*
X0287745Y0114160D02*
X0291445Y0114160D01*
X0291445Y0114395D02*
X0287745Y0114395D01*
X0287745Y0114630D02*
X0291445Y0114630D01*
X0291445Y0114865D02*
X0287745Y0114865D01*
X0287745Y0115100D02*
X0291445Y0115100D01*
X0291445Y0115335D02*
X0287745Y0115335D01*
X0287745Y0115570D02*
X0291445Y0115570D01*
X0291445Y0115805D02*
X0287745Y0115805D01*
X0287745Y0116040D02*
X0291445Y0116040D01*
X0291445Y0116275D02*
X0287745Y0116275D01*
X0287745Y0116510D02*
X0291445Y0116510D01*
X0291445Y0116745D02*
X0287745Y0116745D01*
X0287745Y0116980D02*
X0291445Y0116980D01*
X0291445Y0117215D02*
X0287745Y0117215D01*
X0287745Y0117450D02*
X0291445Y0117450D01*
X0299445Y0118049D02*
X0299445Y0113955D01*
X0295745Y0113955D01*
X0295745Y0118049D01*
X0299445Y0118049D01*
X0299445Y0114190D02*
X0295745Y0114190D01*
X0295745Y0114425D02*
X0299445Y0114425D01*
X0299445Y0114660D02*
X0295745Y0114660D01*
X0295745Y0114895D02*
X0299445Y0114895D01*
X0299445Y0115130D02*
X0295745Y0115130D01*
X0295745Y0115365D02*
X0299445Y0115365D01*
X0299445Y0115600D02*
X0295745Y0115600D01*
X0295745Y0115835D02*
X0299445Y0115835D01*
X0299445Y0116070D02*
X0295745Y0116070D01*
X0295745Y0116305D02*
X0299445Y0116305D01*
X0299445Y0116540D02*
X0295745Y0116540D01*
X0295745Y0116775D02*
X0299445Y0116775D01*
X0299445Y0117010D02*
X0295745Y0117010D01*
X0295745Y0117245D02*
X0299445Y0117245D01*
X0299445Y0117480D02*
X0295745Y0117480D01*
X0295745Y0117715D02*
X0299445Y0117715D01*
X0299445Y0117950D02*
X0295745Y0117950D01*
X0307399Y0107301D02*
X0311099Y0107301D01*
X0307399Y0107301D02*
X0307399Y0111395D01*
X0311099Y0111395D01*
X0311099Y0107301D01*
X0311099Y0107536D02*
X0307399Y0107536D01*
X0307399Y0107771D02*
X0311099Y0107771D01*
X0311099Y0108006D02*
X0307399Y0108006D01*
X0307399Y0108241D02*
X0311099Y0108241D01*
X0311099Y0108476D02*
X0307399Y0108476D01*
X0307399Y0108711D02*
X0311099Y0108711D01*
X0311099Y0108946D02*
X0307399Y0108946D01*
X0307399Y0109181D02*
X0311099Y0109181D01*
X0311099Y0109416D02*
X0307399Y0109416D01*
X0307399Y0109651D02*
X0311099Y0109651D01*
X0311099Y0109886D02*
X0307399Y0109886D01*
X0307399Y0110121D02*
X0311099Y0110121D01*
X0311099Y0110356D02*
X0307399Y0110356D01*
X0307399Y0110591D02*
X0311099Y0110591D01*
X0311099Y0110826D02*
X0307399Y0110826D01*
X0307399Y0111061D02*
X0311099Y0111061D01*
X0311099Y0111296D02*
X0307399Y0111296D01*
X0314092Y0107301D02*
X0317792Y0107301D01*
X0314092Y0107301D02*
X0314092Y0111395D01*
X0317792Y0111395D01*
X0317792Y0107301D01*
X0317792Y0107536D02*
X0314092Y0107536D01*
X0314092Y0107771D02*
X0317792Y0107771D01*
X0317792Y0108006D02*
X0314092Y0108006D01*
X0314092Y0108241D02*
X0317792Y0108241D01*
X0317792Y0108476D02*
X0314092Y0108476D01*
X0314092Y0108711D02*
X0317792Y0108711D01*
X0317792Y0108946D02*
X0314092Y0108946D01*
X0314092Y0109181D02*
X0317792Y0109181D01*
X0317792Y0109416D02*
X0314092Y0109416D01*
X0314092Y0109651D02*
X0317792Y0109651D01*
X0317792Y0109886D02*
X0314092Y0109886D01*
X0314092Y0110121D02*
X0317792Y0110121D01*
X0317792Y0110356D02*
X0314092Y0110356D01*
X0314092Y0110591D02*
X0317792Y0110591D01*
X0317792Y0110826D02*
X0314092Y0110826D01*
X0314092Y0111061D02*
X0317792Y0111061D01*
X0317792Y0111296D02*
X0314092Y0111296D01*
X0269548Y0114152D02*
X0269548Y0117852D01*
X0273642Y0117852D01*
X0273642Y0114152D01*
X0269548Y0114152D01*
X0269548Y0114387D02*
X0273642Y0114387D01*
X0273642Y0114622D02*
X0269548Y0114622D01*
X0269548Y0114857D02*
X0273642Y0114857D01*
X0273642Y0115092D02*
X0269548Y0115092D01*
X0269548Y0115327D02*
X0273642Y0115327D01*
X0273642Y0115562D02*
X0269548Y0115562D01*
X0269548Y0115797D02*
X0273642Y0115797D01*
X0273642Y0116032D02*
X0269548Y0116032D01*
X0269548Y0116267D02*
X0273642Y0116267D01*
X0273642Y0116502D02*
X0269548Y0116502D01*
X0269548Y0116737D02*
X0273642Y0116737D01*
X0273642Y0116972D02*
X0269548Y0116972D01*
X0269548Y0117207D02*
X0273642Y0117207D01*
X0273642Y0117442D02*
X0269548Y0117442D01*
X0269548Y0117677D02*
X0273642Y0117677D01*
X0269548Y0120844D02*
X0269548Y0124544D01*
X0273642Y0124544D01*
X0273642Y0120844D01*
X0269548Y0120844D01*
X0269548Y0121079D02*
X0273642Y0121079D01*
X0273642Y0121314D02*
X0269548Y0121314D01*
X0269548Y0121549D02*
X0273642Y0121549D01*
X0273642Y0121784D02*
X0269548Y0121784D01*
X0269548Y0122019D02*
X0273642Y0122019D01*
X0273642Y0122254D02*
X0269548Y0122254D01*
X0269548Y0122489D02*
X0273642Y0122489D01*
X0273642Y0122724D02*
X0269548Y0122724D01*
X0269548Y0122959D02*
X0273642Y0122959D01*
X0273642Y0123194D02*
X0269548Y0123194D01*
X0269548Y0123429D02*
X0273642Y0123429D01*
X0273642Y0123664D02*
X0269548Y0123664D01*
X0269548Y0123899D02*
X0273642Y0123899D01*
X0273642Y0124134D02*
X0269548Y0124134D01*
X0269548Y0124369D02*
X0273642Y0124369D01*
X0264642Y0109544D02*
X0264642Y0105844D01*
X0260548Y0105844D01*
X0260548Y0109544D01*
X0264642Y0109544D01*
X0264642Y0106079D02*
X0260548Y0106079D01*
X0260548Y0106314D02*
X0264642Y0106314D01*
X0264642Y0106549D02*
X0260548Y0106549D01*
X0260548Y0106784D02*
X0264642Y0106784D01*
X0264642Y0107019D02*
X0260548Y0107019D01*
X0260548Y0107254D02*
X0264642Y0107254D01*
X0264642Y0107489D02*
X0260548Y0107489D01*
X0260548Y0107724D02*
X0264642Y0107724D01*
X0264642Y0107959D02*
X0260548Y0107959D01*
X0260548Y0108194D02*
X0264642Y0108194D01*
X0264642Y0108429D02*
X0260548Y0108429D01*
X0260548Y0108664D02*
X0264642Y0108664D01*
X0264642Y0108899D02*
X0260548Y0108899D01*
X0260548Y0109134D02*
X0264642Y0109134D01*
X0264642Y0109369D02*
X0260548Y0109369D01*
X0264642Y0102852D02*
X0264642Y0099152D01*
X0260548Y0099152D01*
X0260548Y0102852D01*
X0264642Y0102852D01*
X0264642Y0099387D02*
X0260548Y0099387D01*
X0260548Y0099622D02*
X0264642Y0099622D01*
X0264642Y0099857D02*
X0260548Y0099857D01*
X0260548Y0100092D02*
X0264642Y0100092D01*
X0264642Y0100327D02*
X0260548Y0100327D01*
X0260548Y0100562D02*
X0264642Y0100562D01*
X0264642Y0100797D02*
X0260548Y0100797D01*
X0260548Y0101032D02*
X0264642Y0101032D01*
X0264642Y0101267D02*
X0260548Y0101267D01*
X0260548Y0101502D02*
X0264642Y0101502D01*
X0264642Y0101737D02*
X0260548Y0101737D01*
X0260548Y0101972D02*
X0264642Y0101972D01*
X0264642Y0102207D02*
X0260548Y0102207D01*
X0260548Y0102442D02*
X0264642Y0102442D01*
X0264642Y0102677D02*
X0260548Y0102677D01*
X0205064Y0016687D02*
X0205064Y0012199D01*
X0205064Y0016687D02*
X0211126Y0016687D01*
X0211126Y0012199D01*
X0205064Y0012199D01*
X0205064Y0012434D02*
X0211126Y0012434D01*
X0211126Y0012669D02*
X0205064Y0012669D01*
X0205064Y0012904D02*
X0211126Y0012904D01*
X0211126Y0013139D02*
X0205064Y0013139D01*
X0205064Y0013374D02*
X0211126Y0013374D01*
X0211126Y0013609D02*
X0205064Y0013609D01*
X0205064Y0013844D02*
X0211126Y0013844D01*
X0211126Y0014079D02*
X0205064Y0014079D01*
X0205064Y0014314D02*
X0211126Y0014314D01*
X0211126Y0014549D02*
X0205064Y0014549D01*
X0205064Y0014784D02*
X0211126Y0014784D01*
X0211126Y0015019D02*
X0205064Y0015019D01*
X0205064Y0015254D02*
X0211126Y0015254D01*
X0211126Y0015489D02*
X0205064Y0015489D01*
X0205064Y0015724D02*
X0211126Y0015724D01*
X0211126Y0015959D02*
X0205064Y0015959D01*
X0205064Y0016194D02*
X0211126Y0016194D01*
X0211126Y0016429D02*
X0205064Y0016429D01*
X0205064Y0016664D02*
X0211126Y0016664D01*
D13*
X0241920Y0031677D02*
X0241920Y0036539D01*
X0241920Y0031677D02*
X0236270Y0031677D01*
X0236270Y0036539D01*
X0241920Y0036539D01*
X0241920Y0031932D02*
X0236270Y0031932D01*
X0236270Y0032187D02*
X0241920Y0032187D01*
X0241920Y0032442D02*
X0236270Y0032442D01*
X0236270Y0032697D02*
X0241920Y0032697D01*
X0241920Y0032952D02*
X0236270Y0032952D01*
X0236270Y0033207D02*
X0241920Y0033207D01*
X0241920Y0033462D02*
X0236270Y0033462D01*
X0236270Y0033717D02*
X0241920Y0033717D01*
X0241920Y0033972D02*
X0236270Y0033972D01*
X0236270Y0034227D02*
X0241920Y0034227D01*
X0241920Y0034482D02*
X0236270Y0034482D01*
X0236270Y0034737D02*
X0241920Y0034737D01*
X0241920Y0034992D02*
X0236270Y0034992D01*
X0236270Y0035247D02*
X0241920Y0035247D01*
X0241920Y0035502D02*
X0236270Y0035502D01*
X0236270Y0035757D02*
X0241920Y0035757D01*
X0241920Y0036012D02*
X0236270Y0036012D01*
X0236270Y0036267D02*
X0241920Y0036267D01*
X0241920Y0036522D02*
X0236270Y0036522D01*
X0241920Y0039157D02*
X0241920Y0044019D01*
X0241920Y0039157D02*
X0236270Y0039157D01*
X0236270Y0044019D01*
X0241920Y0044019D01*
X0241920Y0039412D02*
X0236270Y0039412D01*
X0236270Y0039667D02*
X0241920Y0039667D01*
X0241920Y0039922D02*
X0236270Y0039922D01*
X0236270Y0040177D02*
X0241920Y0040177D01*
X0241920Y0040432D02*
X0236270Y0040432D01*
X0236270Y0040687D02*
X0241920Y0040687D01*
X0241920Y0040942D02*
X0236270Y0040942D01*
X0236270Y0041197D02*
X0241920Y0041197D01*
X0241920Y0041452D02*
X0236270Y0041452D01*
X0236270Y0041707D02*
X0241920Y0041707D01*
X0241920Y0041962D02*
X0236270Y0041962D01*
X0236270Y0042217D02*
X0241920Y0042217D01*
X0241920Y0042472D02*
X0236270Y0042472D01*
X0236270Y0042727D02*
X0241920Y0042727D01*
X0241920Y0042982D02*
X0236270Y0042982D01*
X0236270Y0043237D02*
X0241920Y0043237D01*
X0241920Y0043492D02*
X0236270Y0043492D01*
X0236270Y0043747D02*
X0241920Y0043747D01*
X0241920Y0044002D02*
X0236270Y0044002D01*
X0076266Y0073746D02*
X0071404Y0073746D01*
X0076266Y0073746D02*
X0076266Y0068096D01*
X0071404Y0068096D01*
X0071404Y0073746D01*
X0071404Y0068351D02*
X0076266Y0068351D01*
X0076266Y0068606D02*
X0071404Y0068606D01*
X0071404Y0068861D02*
X0076266Y0068861D01*
X0076266Y0069116D02*
X0071404Y0069116D01*
X0071404Y0069371D02*
X0076266Y0069371D01*
X0076266Y0069626D02*
X0071404Y0069626D01*
X0071404Y0069881D02*
X0076266Y0069881D01*
X0076266Y0070136D02*
X0071404Y0070136D01*
X0071404Y0070391D02*
X0076266Y0070391D01*
X0076266Y0070646D02*
X0071404Y0070646D01*
X0071404Y0070901D02*
X0076266Y0070901D01*
X0076266Y0071156D02*
X0071404Y0071156D01*
X0071404Y0071411D02*
X0076266Y0071411D01*
X0076266Y0071666D02*
X0071404Y0071666D01*
X0071404Y0071921D02*
X0076266Y0071921D01*
X0076266Y0072176D02*
X0071404Y0072176D01*
X0071404Y0072431D02*
X0076266Y0072431D01*
X0076266Y0072686D02*
X0071404Y0072686D01*
X0071404Y0072941D02*
X0076266Y0072941D01*
X0076266Y0073196D02*
X0071404Y0073196D01*
X0071404Y0073451D02*
X0076266Y0073451D01*
X0076266Y0073706D02*
X0071404Y0073706D01*
X0068786Y0073746D02*
X0063924Y0073746D01*
X0068786Y0073746D02*
X0068786Y0068096D01*
X0063924Y0068096D01*
X0063924Y0073746D01*
X0063924Y0068351D02*
X0068786Y0068351D01*
X0068786Y0068606D02*
X0063924Y0068606D01*
X0063924Y0068861D02*
X0068786Y0068861D01*
X0068786Y0069116D02*
X0063924Y0069116D01*
X0063924Y0069371D02*
X0068786Y0069371D01*
X0068786Y0069626D02*
X0063924Y0069626D01*
X0063924Y0069881D02*
X0068786Y0069881D01*
X0068786Y0070136D02*
X0063924Y0070136D01*
X0063924Y0070391D02*
X0068786Y0070391D01*
X0068786Y0070646D02*
X0063924Y0070646D01*
X0063924Y0070901D02*
X0068786Y0070901D01*
X0068786Y0071156D02*
X0063924Y0071156D01*
X0063924Y0071411D02*
X0068786Y0071411D01*
X0068786Y0071666D02*
X0063924Y0071666D01*
X0063924Y0071921D02*
X0068786Y0071921D01*
X0068786Y0072176D02*
X0063924Y0072176D01*
X0063924Y0072431D02*
X0068786Y0072431D01*
X0068786Y0072686D02*
X0063924Y0072686D01*
X0063924Y0072941D02*
X0068786Y0072941D01*
X0068786Y0073196D02*
X0063924Y0073196D01*
X0063924Y0073451D02*
X0068786Y0073451D01*
X0068786Y0073706D02*
X0063924Y0073706D01*
X0063924Y0125673D02*
X0068786Y0125673D01*
X0068786Y0120023D01*
X0063924Y0120023D01*
X0063924Y0125673D01*
X0063924Y0120278D02*
X0068786Y0120278D01*
X0068786Y0120533D02*
X0063924Y0120533D01*
X0063924Y0120788D02*
X0068786Y0120788D01*
X0068786Y0121043D02*
X0063924Y0121043D01*
X0063924Y0121298D02*
X0068786Y0121298D01*
X0068786Y0121553D02*
X0063924Y0121553D01*
X0063924Y0121808D02*
X0068786Y0121808D01*
X0068786Y0122063D02*
X0063924Y0122063D01*
X0063924Y0122318D02*
X0068786Y0122318D01*
X0068786Y0122573D02*
X0063924Y0122573D01*
X0063924Y0122828D02*
X0068786Y0122828D01*
X0068786Y0123083D02*
X0063924Y0123083D01*
X0063924Y0123338D02*
X0068786Y0123338D01*
X0068786Y0123593D02*
X0063924Y0123593D01*
X0063924Y0123848D02*
X0068786Y0123848D01*
X0068786Y0124103D02*
X0063924Y0124103D01*
X0063924Y0124358D02*
X0068786Y0124358D01*
X0068786Y0124613D02*
X0063924Y0124613D01*
X0063924Y0124868D02*
X0068786Y0124868D01*
X0068786Y0125123D02*
X0063924Y0125123D01*
X0063924Y0125378D02*
X0068786Y0125378D01*
X0068786Y0125633D02*
X0063924Y0125633D01*
X0071404Y0125673D02*
X0076266Y0125673D01*
X0076266Y0120023D01*
X0071404Y0120023D01*
X0071404Y0125673D01*
X0071404Y0120278D02*
X0076266Y0120278D01*
X0076266Y0120533D02*
X0071404Y0120533D01*
X0071404Y0120788D02*
X0076266Y0120788D01*
X0076266Y0121043D02*
X0071404Y0121043D01*
X0071404Y0121298D02*
X0076266Y0121298D01*
X0076266Y0121553D02*
X0071404Y0121553D01*
X0071404Y0121808D02*
X0076266Y0121808D01*
X0076266Y0122063D02*
X0071404Y0122063D01*
X0071404Y0122318D02*
X0076266Y0122318D01*
X0076266Y0122573D02*
X0071404Y0122573D01*
X0071404Y0122828D02*
X0076266Y0122828D01*
X0076266Y0123083D02*
X0071404Y0123083D01*
X0071404Y0123338D02*
X0076266Y0123338D01*
X0076266Y0123593D02*
X0071404Y0123593D01*
X0071404Y0123848D02*
X0076266Y0123848D01*
X0076266Y0124103D02*
X0071404Y0124103D01*
X0071404Y0124358D02*
X0076266Y0124358D01*
X0076266Y0124613D02*
X0071404Y0124613D01*
X0071404Y0124868D02*
X0076266Y0124868D01*
X0076266Y0125123D02*
X0071404Y0125123D01*
X0071404Y0125378D02*
X0076266Y0125378D01*
X0076266Y0125633D02*
X0071404Y0125633D01*
X0096424Y0160673D02*
X0101286Y0160673D01*
X0101286Y0155023D01*
X0096424Y0155023D01*
X0096424Y0160673D01*
X0096424Y0155278D02*
X0101286Y0155278D01*
X0101286Y0155533D02*
X0096424Y0155533D01*
X0096424Y0155788D02*
X0101286Y0155788D01*
X0101286Y0156043D02*
X0096424Y0156043D01*
X0096424Y0156298D02*
X0101286Y0156298D01*
X0101286Y0156553D02*
X0096424Y0156553D01*
X0096424Y0156808D02*
X0101286Y0156808D01*
X0101286Y0157063D02*
X0096424Y0157063D01*
X0096424Y0157318D02*
X0101286Y0157318D01*
X0101286Y0157573D02*
X0096424Y0157573D01*
X0096424Y0157828D02*
X0101286Y0157828D01*
X0101286Y0158083D02*
X0096424Y0158083D01*
X0096424Y0158338D02*
X0101286Y0158338D01*
X0101286Y0158593D02*
X0096424Y0158593D01*
X0096424Y0158848D02*
X0101286Y0158848D01*
X0101286Y0159103D02*
X0096424Y0159103D01*
X0096424Y0159358D02*
X0101286Y0159358D01*
X0101286Y0159613D02*
X0096424Y0159613D01*
X0096424Y0159868D02*
X0101286Y0159868D01*
X0101286Y0160123D02*
X0096424Y0160123D01*
X0096424Y0160378D02*
X0101286Y0160378D01*
X0101286Y0160633D02*
X0096424Y0160633D01*
X0103904Y0160673D02*
X0108766Y0160673D01*
X0108766Y0155023D01*
X0103904Y0155023D01*
X0103904Y0160673D01*
X0103904Y0155278D02*
X0108766Y0155278D01*
X0108766Y0155533D02*
X0103904Y0155533D01*
X0103904Y0155788D02*
X0108766Y0155788D01*
X0108766Y0156043D02*
X0103904Y0156043D01*
X0103904Y0156298D02*
X0108766Y0156298D01*
X0108766Y0156553D02*
X0103904Y0156553D01*
X0103904Y0156808D02*
X0108766Y0156808D01*
X0108766Y0157063D02*
X0103904Y0157063D01*
X0103904Y0157318D02*
X0108766Y0157318D01*
X0108766Y0157573D02*
X0103904Y0157573D01*
X0103904Y0157828D02*
X0108766Y0157828D01*
X0108766Y0158083D02*
X0103904Y0158083D01*
X0103904Y0158338D02*
X0108766Y0158338D01*
X0108766Y0158593D02*
X0103904Y0158593D01*
X0103904Y0158848D02*
X0108766Y0158848D01*
X0108766Y0159103D02*
X0103904Y0159103D01*
X0103904Y0159358D02*
X0108766Y0159358D01*
X0108766Y0159613D02*
X0103904Y0159613D01*
X0103904Y0159868D02*
X0108766Y0159868D01*
X0108766Y0160123D02*
X0103904Y0160123D01*
X0103904Y0160378D02*
X0108766Y0160378D01*
X0108766Y0160633D02*
X0103904Y0160633D01*
X0260424Y0146523D02*
X0265286Y0146523D01*
X0260424Y0146523D02*
X0260424Y0152173D01*
X0265286Y0152173D01*
X0265286Y0146523D01*
X0265286Y0146778D02*
X0260424Y0146778D01*
X0260424Y0147033D02*
X0265286Y0147033D01*
X0265286Y0147288D02*
X0260424Y0147288D01*
X0260424Y0147543D02*
X0265286Y0147543D01*
X0265286Y0147798D02*
X0260424Y0147798D01*
X0260424Y0148053D02*
X0265286Y0148053D01*
X0265286Y0148308D02*
X0260424Y0148308D01*
X0260424Y0148563D02*
X0265286Y0148563D01*
X0265286Y0148818D02*
X0260424Y0148818D01*
X0260424Y0149073D02*
X0265286Y0149073D01*
X0265286Y0149328D02*
X0260424Y0149328D01*
X0260424Y0149583D02*
X0265286Y0149583D01*
X0265286Y0149838D02*
X0260424Y0149838D01*
X0260424Y0150093D02*
X0265286Y0150093D01*
X0265286Y0150348D02*
X0260424Y0150348D01*
X0260424Y0150603D02*
X0265286Y0150603D01*
X0265286Y0150858D02*
X0260424Y0150858D01*
X0260424Y0151113D02*
X0265286Y0151113D01*
X0265286Y0151368D02*
X0260424Y0151368D01*
X0260424Y0151623D02*
X0265286Y0151623D01*
X0265286Y0151878D02*
X0260424Y0151878D01*
X0260424Y0152133D02*
X0265286Y0152133D01*
X0267904Y0146523D02*
X0272766Y0146523D01*
X0267904Y0146523D02*
X0267904Y0152173D01*
X0272766Y0152173D01*
X0272766Y0146523D01*
X0272766Y0146778D02*
X0267904Y0146778D01*
X0267904Y0147033D02*
X0272766Y0147033D01*
X0272766Y0147288D02*
X0267904Y0147288D01*
X0267904Y0147543D02*
X0272766Y0147543D01*
X0272766Y0147798D02*
X0267904Y0147798D01*
X0267904Y0148053D02*
X0272766Y0148053D01*
X0272766Y0148308D02*
X0267904Y0148308D01*
X0267904Y0148563D02*
X0272766Y0148563D01*
X0272766Y0148818D02*
X0267904Y0148818D01*
X0267904Y0149073D02*
X0272766Y0149073D01*
X0272766Y0149328D02*
X0267904Y0149328D01*
X0267904Y0149583D02*
X0272766Y0149583D01*
X0272766Y0149838D02*
X0267904Y0149838D01*
X0267904Y0150093D02*
X0272766Y0150093D01*
X0272766Y0150348D02*
X0267904Y0150348D01*
X0267904Y0150603D02*
X0272766Y0150603D01*
X0272766Y0150858D02*
X0267904Y0150858D01*
X0267904Y0151113D02*
X0272766Y0151113D01*
X0272766Y0151368D02*
X0267904Y0151368D01*
X0267904Y0151623D02*
X0272766Y0151623D01*
X0272766Y0151878D02*
X0267904Y0151878D01*
X0267904Y0152133D02*
X0272766Y0152133D01*
D14*
X0244162Y0138687D02*
X0244162Y0133395D01*
X0244162Y0138687D02*
X0251028Y0138687D01*
X0251028Y0133395D01*
X0244162Y0133395D01*
X0244162Y0133614D02*
X0251028Y0133614D01*
X0251028Y0133833D02*
X0244162Y0133833D01*
X0244162Y0134052D02*
X0251028Y0134052D01*
X0251028Y0134271D02*
X0244162Y0134271D01*
X0244162Y0134490D02*
X0251028Y0134490D01*
X0251028Y0134709D02*
X0244162Y0134709D01*
X0244162Y0134928D02*
X0251028Y0134928D01*
X0251028Y0135147D02*
X0244162Y0135147D01*
X0244162Y0135366D02*
X0251028Y0135366D01*
X0251028Y0135585D02*
X0244162Y0135585D01*
X0244162Y0135804D02*
X0251028Y0135804D01*
X0251028Y0136023D02*
X0244162Y0136023D01*
X0244162Y0136242D02*
X0251028Y0136242D01*
X0251028Y0136461D02*
X0244162Y0136461D01*
X0244162Y0136680D02*
X0251028Y0136680D01*
X0251028Y0136899D02*
X0244162Y0136899D01*
X0244162Y0137118D02*
X0251028Y0137118D01*
X0251028Y0137337D02*
X0244162Y0137337D01*
X0244162Y0137556D02*
X0251028Y0137556D01*
X0251028Y0137775D02*
X0244162Y0137775D01*
X0244162Y0137994D02*
X0251028Y0137994D01*
X0251028Y0138213D02*
X0244162Y0138213D01*
X0244162Y0138432D02*
X0251028Y0138432D01*
X0251028Y0138651D02*
X0244162Y0138651D01*
X0244162Y0125301D02*
X0244162Y0120009D01*
X0244162Y0125301D02*
X0251028Y0125301D01*
X0251028Y0120009D01*
X0244162Y0120009D01*
X0244162Y0120228D02*
X0251028Y0120228D01*
X0251028Y0120447D02*
X0244162Y0120447D01*
X0244162Y0120666D02*
X0251028Y0120666D01*
X0251028Y0120885D02*
X0244162Y0120885D01*
X0244162Y0121104D02*
X0251028Y0121104D01*
X0251028Y0121323D02*
X0244162Y0121323D01*
X0244162Y0121542D02*
X0251028Y0121542D01*
X0251028Y0121761D02*
X0244162Y0121761D01*
X0244162Y0121980D02*
X0251028Y0121980D01*
X0251028Y0122199D02*
X0244162Y0122199D01*
X0244162Y0122418D02*
X0251028Y0122418D01*
X0251028Y0122637D02*
X0244162Y0122637D01*
X0244162Y0122856D02*
X0251028Y0122856D01*
X0251028Y0123075D02*
X0244162Y0123075D01*
X0244162Y0123294D02*
X0251028Y0123294D01*
X0251028Y0123513D02*
X0244162Y0123513D01*
X0244162Y0123732D02*
X0251028Y0123732D01*
X0251028Y0123951D02*
X0244162Y0123951D01*
X0244162Y0124170D02*
X0251028Y0124170D01*
X0251028Y0124389D02*
X0244162Y0124389D01*
X0244162Y0124608D02*
X0251028Y0124608D01*
X0251028Y0124827D02*
X0244162Y0124827D01*
X0244162Y0125046D02*
X0251028Y0125046D01*
X0251028Y0125265D02*
X0244162Y0125265D01*
X0346028Y0140009D02*
X0346028Y0145301D01*
X0346028Y0140009D02*
X0339162Y0140009D01*
X0339162Y0145301D01*
X0346028Y0145301D01*
X0346028Y0140228D02*
X0339162Y0140228D01*
X0339162Y0140447D02*
X0346028Y0140447D01*
X0346028Y0140666D02*
X0339162Y0140666D01*
X0339162Y0140885D02*
X0346028Y0140885D01*
X0346028Y0141104D02*
X0339162Y0141104D01*
X0339162Y0141323D02*
X0346028Y0141323D01*
X0346028Y0141542D02*
X0339162Y0141542D01*
X0339162Y0141761D02*
X0346028Y0141761D01*
X0346028Y0141980D02*
X0339162Y0141980D01*
X0339162Y0142199D02*
X0346028Y0142199D01*
X0346028Y0142418D02*
X0339162Y0142418D01*
X0339162Y0142637D02*
X0346028Y0142637D01*
X0346028Y0142856D02*
X0339162Y0142856D01*
X0339162Y0143075D02*
X0346028Y0143075D01*
X0346028Y0143294D02*
X0339162Y0143294D01*
X0339162Y0143513D02*
X0346028Y0143513D01*
X0346028Y0143732D02*
X0339162Y0143732D01*
X0339162Y0143951D02*
X0346028Y0143951D01*
X0346028Y0144170D02*
X0339162Y0144170D01*
X0339162Y0144389D02*
X0346028Y0144389D01*
X0346028Y0144608D02*
X0339162Y0144608D01*
X0339162Y0144827D02*
X0346028Y0144827D01*
X0346028Y0145046D02*
X0339162Y0145046D01*
X0339162Y0145265D02*
X0346028Y0145265D01*
X0356028Y0145301D02*
X0356028Y0140009D01*
X0349162Y0140009D01*
X0349162Y0145301D01*
X0356028Y0145301D01*
X0356028Y0140228D02*
X0349162Y0140228D01*
X0349162Y0140447D02*
X0356028Y0140447D01*
X0356028Y0140666D02*
X0349162Y0140666D01*
X0349162Y0140885D02*
X0356028Y0140885D01*
X0356028Y0141104D02*
X0349162Y0141104D01*
X0349162Y0141323D02*
X0356028Y0141323D01*
X0356028Y0141542D02*
X0349162Y0141542D01*
X0349162Y0141761D02*
X0356028Y0141761D01*
X0356028Y0141980D02*
X0349162Y0141980D01*
X0349162Y0142199D02*
X0356028Y0142199D01*
X0356028Y0142418D02*
X0349162Y0142418D01*
X0349162Y0142637D02*
X0356028Y0142637D01*
X0356028Y0142856D02*
X0349162Y0142856D01*
X0349162Y0143075D02*
X0356028Y0143075D01*
X0356028Y0143294D02*
X0349162Y0143294D01*
X0349162Y0143513D02*
X0356028Y0143513D01*
X0356028Y0143732D02*
X0349162Y0143732D01*
X0349162Y0143951D02*
X0356028Y0143951D01*
X0356028Y0144170D02*
X0349162Y0144170D01*
X0349162Y0144389D02*
X0356028Y0144389D01*
X0356028Y0144608D02*
X0349162Y0144608D01*
X0349162Y0144827D02*
X0356028Y0144827D01*
X0356028Y0145046D02*
X0349162Y0145046D01*
X0349162Y0145265D02*
X0356028Y0145265D01*
X0356028Y0153395D02*
X0356028Y0158687D01*
X0356028Y0153395D02*
X0349162Y0153395D01*
X0349162Y0158687D01*
X0356028Y0158687D01*
X0356028Y0153614D02*
X0349162Y0153614D01*
X0349162Y0153833D02*
X0356028Y0153833D01*
X0356028Y0154052D02*
X0349162Y0154052D01*
X0349162Y0154271D02*
X0356028Y0154271D01*
X0356028Y0154490D02*
X0349162Y0154490D01*
X0349162Y0154709D02*
X0356028Y0154709D01*
X0356028Y0154928D02*
X0349162Y0154928D01*
X0349162Y0155147D02*
X0356028Y0155147D01*
X0356028Y0155366D02*
X0349162Y0155366D01*
X0349162Y0155585D02*
X0356028Y0155585D01*
X0356028Y0155804D02*
X0349162Y0155804D01*
X0349162Y0156023D02*
X0356028Y0156023D01*
X0356028Y0156242D02*
X0349162Y0156242D01*
X0349162Y0156461D02*
X0356028Y0156461D01*
X0356028Y0156680D02*
X0349162Y0156680D01*
X0349162Y0156899D02*
X0356028Y0156899D01*
X0356028Y0157118D02*
X0349162Y0157118D01*
X0349162Y0157337D02*
X0356028Y0157337D01*
X0356028Y0157556D02*
X0349162Y0157556D01*
X0349162Y0157775D02*
X0356028Y0157775D01*
X0356028Y0157994D02*
X0349162Y0157994D01*
X0349162Y0158213D02*
X0356028Y0158213D01*
X0356028Y0158432D02*
X0349162Y0158432D01*
X0349162Y0158651D02*
X0356028Y0158651D01*
X0346028Y0158687D02*
X0346028Y0153395D01*
X0339162Y0153395D01*
X0339162Y0158687D01*
X0346028Y0158687D01*
X0346028Y0153614D02*
X0339162Y0153614D01*
X0339162Y0153833D02*
X0346028Y0153833D01*
X0346028Y0154052D02*
X0339162Y0154052D01*
X0339162Y0154271D02*
X0346028Y0154271D01*
X0346028Y0154490D02*
X0339162Y0154490D01*
X0339162Y0154709D02*
X0346028Y0154709D01*
X0346028Y0154928D02*
X0339162Y0154928D01*
X0339162Y0155147D02*
X0346028Y0155147D01*
X0346028Y0155366D02*
X0339162Y0155366D01*
X0339162Y0155585D02*
X0346028Y0155585D01*
X0346028Y0155804D02*
X0339162Y0155804D01*
X0339162Y0156023D02*
X0346028Y0156023D01*
X0346028Y0156242D02*
X0339162Y0156242D01*
X0339162Y0156461D02*
X0346028Y0156461D01*
X0346028Y0156680D02*
X0339162Y0156680D01*
X0339162Y0156899D02*
X0346028Y0156899D01*
X0346028Y0157118D02*
X0339162Y0157118D01*
X0339162Y0157337D02*
X0346028Y0157337D01*
X0346028Y0157556D02*
X0339162Y0157556D01*
X0339162Y0157775D02*
X0346028Y0157775D01*
X0346028Y0157994D02*
X0339162Y0157994D01*
X0339162Y0158213D02*
X0346028Y0158213D01*
X0346028Y0158432D02*
X0339162Y0158432D01*
X0339162Y0158651D02*
X0346028Y0158651D01*
D15*
X0396595Y0159348D03*
X0067595Y0159348D03*
X0067595Y0024348D03*
D16*
X0207284Y0031813D02*
X0207284Y0037859D01*
X0207284Y0031813D02*
X0196906Y0031813D01*
X0196906Y0037859D01*
X0207284Y0037859D01*
X0207284Y0032064D02*
X0196906Y0032064D01*
X0196906Y0032315D02*
X0207284Y0032315D01*
X0207284Y0032566D02*
X0196906Y0032566D01*
X0196906Y0032817D02*
X0207284Y0032817D01*
X0207284Y0033068D02*
X0196906Y0033068D01*
X0196906Y0033319D02*
X0207284Y0033319D01*
X0207284Y0033570D02*
X0196906Y0033570D01*
X0196906Y0033821D02*
X0207284Y0033821D01*
X0207284Y0034072D02*
X0196906Y0034072D01*
X0196906Y0034323D02*
X0207284Y0034323D01*
X0207284Y0034574D02*
X0196906Y0034574D01*
X0196906Y0034825D02*
X0207284Y0034825D01*
X0207284Y0035076D02*
X0196906Y0035076D01*
X0196906Y0035327D02*
X0207284Y0035327D01*
X0207284Y0035578D02*
X0196906Y0035578D01*
X0196906Y0035829D02*
X0207284Y0035829D01*
X0207284Y0036080D02*
X0196906Y0036080D01*
X0196906Y0036331D02*
X0207284Y0036331D01*
X0207284Y0036582D02*
X0196906Y0036582D01*
X0196906Y0036833D02*
X0207284Y0036833D01*
X0207284Y0037084D02*
X0196906Y0037084D01*
X0196906Y0037335D02*
X0207284Y0037335D01*
X0207284Y0037586D02*
X0196906Y0037586D01*
X0196906Y0037837D02*
X0207284Y0037837D01*
X0207284Y0042837D02*
X0207284Y0048883D01*
X0207284Y0042837D02*
X0196906Y0042837D01*
X0196906Y0048883D01*
X0207284Y0048883D01*
X0207284Y0043088D02*
X0196906Y0043088D01*
X0196906Y0043339D02*
X0207284Y0043339D01*
X0207284Y0043590D02*
X0196906Y0043590D01*
X0196906Y0043841D02*
X0207284Y0043841D01*
X0207284Y0044092D02*
X0196906Y0044092D01*
X0196906Y0044343D02*
X0207284Y0044343D01*
X0207284Y0044594D02*
X0196906Y0044594D01*
X0196906Y0044845D02*
X0207284Y0044845D01*
X0207284Y0045096D02*
X0196906Y0045096D01*
X0196906Y0045347D02*
X0207284Y0045347D01*
X0207284Y0045598D02*
X0196906Y0045598D01*
X0196906Y0045849D02*
X0207284Y0045849D01*
X0207284Y0046100D02*
X0196906Y0046100D01*
X0196906Y0046351D02*
X0207284Y0046351D01*
X0207284Y0046602D02*
X0196906Y0046602D01*
X0196906Y0046853D02*
X0207284Y0046853D01*
X0207284Y0047104D02*
X0196906Y0047104D01*
X0196906Y0047355D02*
X0207284Y0047355D01*
X0207284Y0047606D02*
X0196906Y0047606D01*
X0196906Y0047857D02*
X0207284Y0047857D01*
X0207284Y0048108D02*
X0196906Y0048108D01*
X0196906Y0048359D02*
X0207284Y0048359D01*
X0207284Y0048610D02*
X0196906Y0048610D01*
X0196906Y0048861D02*
X0207284Y0048861D01*
X0392560Y0097659D02*
X0398606Y0097659D01*
X0398606Y0090037D01*
X0392560Y0090037D01*
X0392560Y0097659D01*
X0392560Y0090288D02*
X0398606Y0090288D01*
X0398606Y0090539D02*
X0392560Y0090539D01*
X0392560Y0090790D02*
X0398606Y0090790D01*
X0398606Y0091041D02*
X0392560Y0091041D01*
X0392560Y0091292D02*
X0398606Y0091292D01*
X0398606Y0091543D02*
X0392560Y0091543D01*
X0392560Y0091794D02*
X0398606Y0091794D01*
X0398606Y0092045D02*
X0392560Y0092045D01*
X0392560Y0092296D02*
X0398606Y0092296D01*
X0398606Y0092547D02*
X0392560Y0092547D01*
X0392560Y0092798D02*
X0398606Y0092798D01*
X0398606Y0093049D02*
X0392560Y0093049D01*
X0392560Y0093300D02*
X0398606Y0093300D01*
X0398606Y0093551D02*
X0392560Y0093551D01*
X0392560Y0093802D02*
X0398606Y0093802D01*
X0398606Y0094053D02*
X0392560Y0094053D01*
X0392560Y0094304D02*
X0398606Y0094304D01*
X0398606Y0094555D02*
X0392560Y0094555D01*
X0392560Y0094806D02*
X0398606Y0094806D01*
X0398606Y0095057D02*
X0392560Y0095057D01*
X0392560Y0095308D02*
X0398606Y0095308D01*
X0398606Y0095559D02*
X0392560Y0095559D01*
X0392560Y0095810D02*
X0398606Y0095810D01*
X0398606Y0096061D02*
X0392560Y0096061D01*
X0392560Y0096312D02*
X0398606Y0096312D01*
X0398606Y0096563D02*
X0392560Y0096563D01*
X0392560Y0096814D02*
X0398606Y0096814D01*
X0398606Y0097065D02*
X0392560Y0097065D01*
X0392560Y0097316D02*
X0398606Y0097316D01*
X0398606Y0097567D02*
X0392560Y0097567D01*
X0403584Y0097659D02*
X0409630Y0097659D01*
X0409630Y0090037D01*
X0403584Y0090037D01*
X0403584Y0097659D01*
X0403584Y0090288D02*
X0409630Y0090288D01*
X0409630Y0090539D02*
X0403584Y0090539D01*
X0403584Y0090790D02*
X0409630Y0090790D01*
X0409630Y0091041D02*
X0403584Y0091041D01*
X0403584Y0091292D02*
X0409630Y0091292D01*
X0409630Y0091543D02*
X0403584Y0091543D01*
X0403584Y0091794D02*
X0409630Y0091794D01*
X0409630Y0092045D02*
X0403584Y0092045D01*
X0403584Y0092296D02*
X0409630Y0092296D01*
X0409630Y0092547D02*
X0403584Y0092547D01*
X0403584Y0092798D02*
X0409630Y0092798D01*
X0409630Y0093049D02*
X0403584Y0093049D01*
X0403584Y0093300D02*
X0409630Y0093300D01*
X0409630Y0093551D02*
X0403584Y0093551D01*
X0403584Y0093802D02*
X0409630Y0093802D01*
X0409630Y0094053D02*
X0403584Y0094053D01*
X0403584Y0094304D02*
X0409630Y0094304D01*
X0409630Y0094555D02*
X0403584Y0094555D01*
X0403584Y0094806D02*
X0409630Y0094806D01*
X0409630Y0095057D02*
X0403584Y0095057D01*
X0403584Y0095308D02*
X0409630Y0095308D01*
X0409630Y0095559D02*
X0403584Y0095559D01*
X0403584Y0095810D02*
X0409630Y0095810D01*
X0409630Y0096061D02*
X0403584Y0096061D01*
X0403584Y0096312D02*
X0409630Y0096312D01*
X0409630Y0096563D02*
X0403584Y0096563D01*
X0403584Y0096814D02*
X0409630Y0096814D01*
X0409630Y0097065D02*
X0403584Y0097065D01*
X0403584Y0097316D02*
X0409630Y0097316D01*
X0409630Y0097567D02*
X0403584Y0097567D01*
X0128630Y0162159D02*
X0122584Y0162159D01*
X0128630Y0162159D02*
X0128630Y0154537D01*
X0122584Y0154537D01*
X0122584Y0162159D01*
X0122584Y0154788D02*
X0128630Y0154788D01*
X0128630Y0155039D02*
X0122584Y0155039D01*
X0122584Y0155290D02*
X0128630Y0155290D01*
X0128630Y0155541D02*
X0122584Y0155541D01*
X0122584Y0155792D02*
X0128630Y0155792D01*
X0128630Y0156043D02*
X0122584Y0156043D01*
X0122584Y0156294D02*
X0128630Y0156294D01*
X0128630Y0156545D02*
X0122584Y0156545D01*
X0122584Y0156796D02*
X0128630Y0156796D01*
X0128630Y0157047D02*
X0122584Y0157047D01*
X0122584Y0157298D02*
X0128630Y0157298D01*
X0128630Y0157549D02*
X0122584Y0157549D01*
X0122584Y0157800D02*
X0128630Y0157800D01*
X0128630Y0158051D02*
X0122584Y0158051D01*
X0122584Y0158302D02*
X0128630Y0158302D01*
X0128630Y0158553D02*
X0122584Y0158553D01*
X0122584Y0158804D02*
X0128630Y0158804D01*
X0128630Y0159055D02*
X0122584Y0159055D01*
X0122584Y0159306D02*
X0128630Y0159306D01*
X0128630Y0159557D02*
X0122584Y0159557D01*
X0122584Y0159808D02*
X0128630Y0159808D01*
X0128630Y0160059D02*
X0122584Y0160059D01*
X0122584Y0160310D02*
X0128630Y0160310D01*
X0128630Y0160561D02*
X0122584Y0160561D01*
X0122584Y0160812D02*
X0128630Y0160812D01*
X0128630Y0161063D02*
X0122584Y0161063D01*
X0122584Y0161314D02*
X0128630Y0161314D01*
X0128630Y0161565D02*
X0122584Y0161565D01*
X0122584Y0161816D02*
X0128630Y0161816D01*
X0128630Y0162067D02*
X0122584Y0162067D01*
X0117606Y0162159D02*
X0111560Y0162159D01*
X0117606Y0162159D02*
X0117606Y0154537D01*
X0111560Y0154537D01*
X0111560Y0162159D01*
X0111560Y0154788D02*
X0117606Y0154788D01*
X0117606Y0155039D02*
X0111560Y0155039D01*
X0111560Y0155290D02*
X0117606Y0155290D01*
X0117606Y0155541D02*
X0111560Y0155541D01*
X0111560Y0155792D02*
X0117606Y0155792D01*
X0117606Y0156043D02*
X0111560Y0156043D01*
X0111560Y0156294D02*
X0117606Y0156294D01*
X0117606Y0156545D02*
X0111560Y0156545D01*
X0111560Y0156796D02*
X0117606Y0156796D01*
X0117606Y0157047D02*
X0111560Y0157047D01*
X0111560Y0157298D02*
X0117606Y0157298D01*
X0117606Y0157549D02*
X0111560Y0157549D01*
X0111560Y0157800D02*
X0117606Y0157800D01*
X0117606Y0158051D02*
X0111560Y0158051D01*
X0111560Y0158302D02*
X0117606Y0158302D01*
X0117606Y0158553D02*
X0111560Y0158553D01*
X0111560Y0158804D02*
X0117606Y0158804D01*
X0117606Y0159055D02*
X0111560Y0159055D01*
X0111560Y0159306D02*
X0117606Y0159306D01*
X0117606Y0159557D02*
X0111560Y0159557D01*
X0111560Y0159808D02*
X0117606Y0159808D01*
X0117606Y0160059D02*
X0111560Y0160059D01*
X0111560Y0160310D02*
X0117606Y0160310D01*
X0117606Y0160561D02*
X0111560Y0160561D01*
X0111560Y0160812D02*
X0117606Y0160812D01*
X0117606Y0161063D02*
X0111560Y0161063D01*
X0111560Y0161314D02*
X0117606Y0161314D01*
X0117606Y0161565D02*
X0111560Y0161565D01*
X0111560Y0161816D02*
X0117606Y0161816D01*
X0117606Y0162067D02*
X0111560Y0162067D01*
D17*
X0196595Y0118848D03*
X0229095Y0070848D03*
X0216595Y0044848D03*
X0257595Y0024848D03*
X0332595Y0134348D03*
D18*
X0342595Y0134348D03*
X0342595Y0124348D03*
X0332595Y0124348D03*
X0332595Y0114348D03*
X0342595Y0114348D03*
X0257595Y0064848D03*
X0247595Y0064848D03*
X0247595Y0054848D03*
X0257595Y0054848D03*
X0257595Y0044848D03*
X0247595Y0044848D03*
X0247595Y0034848D03*
X0257595Y0034848D03*
X0247595Y0024848D03*
X0226595Y0024848D03*
X0216595Y0024848D03*
X0216595Y0034848D03*
X0226595Y0034848D03*
X0226595Y0044848D03*
X0229095Y0060848D03*
X0219095Y0060848D03*
X0209095Y0060848D03*
X0209095Y0070848D03*
X0219095Y0070848D03*
X0196595Y0108848D03*
X0127438Y0167065D03*
X0117595Y0167065D03*
X0107753Y0167065D03*
D19*
X0106099Y0149348D02*
X0106099Y0143836D01*
X0110036Y0143836D02*
X0110036Y0149348D01*
X0113973Y0149348D02*
X0113973Y0143836D01*
X0117910Y0143836D02*
X0117910Y0149348D01*
X0121847Y0149348D02*
X0121847Y0143836D01*
X0125784Y0143836D02*
X0125784Y0149348D01*
X0129721Y0149348D02*
X0129721Y0143836D01*
X0133658Y0143836D02*
X0133658Y0149348D01*
X0137595Y0149348D02*
X0137595Y0143836D01*
X0141532Y0143836D02*
X0141532Y0149348D01*
X0145469Y0149348D02*
X0145469Y0143836D01*
X0149406Y0143836D02*
X0149406Y0149348D01*
X0153343Y0149348D02*
X0153343Y0143836D01*
X0157280Y0143836D02*
X0157280Y0149348D01*
X0161217Y0149348D02*
X0161217Y0143836D01*
X0165154Y0143836D02*
X0165154Y0149348D01*
X0169091Y0149348D02*
X0169091Y0143836D01*
X0182083Y0130844D02*
X0187595Y0130844D01*
X0187595Y0126907D02*
X0182083Y0126907D01*
X0182083Y0122970D02*
X0187595Y0122970D01*
X0187595Y0119033D02*
X0182083Y0119033D01*
X0182083Y0115096D02*
X0187595Y0115096D01*
X0187595Y0111159D02*
X0182083Y0111159D01*
X0182083Y0107222D02*
X0187595Y0107222D01*
X0187595Y0103285D02*
X0182083Y0103285D01*
X0182083Y0099348D02*
X0187595Y0099348D01*
X0187595Y0095411D02*
X0182083Y0095411D01*
X0182083Y0091474D02*
X0187595Y0091474D01*
X0187595Y0087537D02*
X0182083Y0087537D01*
X0182083Y0083600D02*
X0187595Y0083600D01*
X0187595Y0079663D02*
X0182083Y0079663D01*
X0182083Y0075726D02*
X0187595Y0075726D01*
X0187595Y0071789D02*
X0182083Y0071789D01*
X0182083Y0067852D02*
X0187595Y0067852D01*
X0169091Y0054860D02*
X0169091Y0049348D01*
X0165154Y0049348D02*
X0165154Y0054860D01*
X0161217Y0054860D02*
X0161217Y0049348D01*
X0157280Y0049348D02*
X0157280Y0054860D01*
X0153343Y0054860D02*
X0153343Y0049348D01*
X0149406Y0049348D02*
X0149406Y0054860D01*
X0145469Y0054860D02*
X0145469Y0049348D01*
X0141532Y0049348D02*
X0141532Y0054860D01*
X0137595Y0054860D02*
X0137595Y0049348D01*
X0133658Y0049348D02*
X0133658Y0054860D01*
X0129721Y0054860D02*
X0129721Y0049348D01*
X0125784Y0049348D02*
X0125784Y0054860D01*
X0121847Y0054860D02*
X0121847Y0049348D01*
X0117910Y0049348D02*
X0117910Y0054860D01*
X0113973Y0054860D02*
X0113973Y0049348D01*
X0110036Y0049348D02*
X0110036Y0054860D01*
X0106099Y0054860D02*
X0106099Y0049348D01*
X0093107Y0067852D02*
X0087595Y0067852D01*
X0087595Y0071789D02*
X0093107Y0071789D01*
X0093107Y0075726D02*
X0087595Y0075726D01*
X0087595Y0079663D02*
X0093107Y0079663D01*
X0093107Y0083600D02*
X0087595Y0083600D01*
X0087595Y0087537D02*
X0093107Y0087537D01*
X0093107Y0091474D02*
X0087595Y0091474D01*
X0087595Y0095411D02*
X0093107Y0095411D01*
X0093107Y0099348D02*
X0087595Y0099348D01*
X0087595Y0103285D02*
X0093107Y0103285D01*
X0093107Y0107222D02*
X0087595Y0107222D01*
X0087595Y0111159D02*
X0093107Y0111159D01*
X0093107Y0115096D02*
X0087595Y0115096D01*
X0087595Y0119033D02*
X0093107Y0119033D01*
X0093107Y0122970D02*
X0087595Y0122970D01*
X0087595Y0126907D02*
X0093107Y0126907D01*
X0093107Y0130844D02*
X0087595Y0130844D01*
D20*
X0393579Y0129191D03*
X0393579Y0109506D03*
D21*
X0402595Y0108167D02*
X0402595Y0105333D01*
X0402595Y0108167D02*
X0405823Y0108167D01*
X0405823Y0105333D01*
X0402595Y0105333D01*
X0402595Y0130529D02*
X0402595Y0133363D01*
X0405823Y0133363D01*
X0405823Y0130529D01*
X0402595Y0130529D01*
D22*
X0395595Y0062348D03*
D23*
X0385595Y0052348D03*
X0405595Y0052348D03*
X0405595Y0072348D03*
X0385595Y0072348D03*
D24*
X0309611Y0073848D02*
X0309613Y0073910D01*
X0309619Y0073973D01*
X0309629Y0074034D01*
X0309643Y0074095D01*
X0309660Y0074155D01*
X0309681Y0074214D01*
X0309707Y0074271D01*
X0309735Y0074326D01*
X0309767Y0074380D01*
X0309803Y0074431D01*
X0309841Y0074481D01*
X0309883Y0074527D01*
X0309927Y0074571D01*
X0309975Y0074612D01*
X0310024Y0074650D01*
X0310076Y0074684D01*
X0310130Y0074715D01*
X0310186Y0074743D01*
X0310244Y0074767D01*
X0310303Y0074788D01*
X0310363Y0074804D01*
X0310424Y0074817D01*
X0310486Y0074826D01*
X0310548Y0074831D01*
X0310611Y0074832D01*
X0310673Y0074829D01*
X0310735Y0074822D01*
X0310797Y0074811D01*
X0310857Y0074796D01*
X0310917Y0074778D01*
X0310975Y0074756D01*
X0311032Y0074730D01*
X0311087Y0074700D01*
X0311140Y0074667D01*
X0311191Y0074631D01*
X0311239Y0074592D01*
X0311285Y0074549D01*
X0311328Y0074504D01*
X0311368Y0074456D01*
X0311405Y0074406D01*
X0311439Y0074353D01*
X0311470Y0074299D01*
X0311496Y0074243D01*
X0311520Y0074185D01*
X0311539Y0074125D01*
X0311555Y0074065D01*
X0311567Y0074003D01*
X0311575Y0073942D01*
X0311579Y0073879D01*
X0311579Y0073817D01*
X0311575Y0073754D01*
X0311567Y0073693D01*
X0311555Y0073631D01*
X0311539Y0073571D01*
X0311520Y0073511D01*
X0311496Y0073453D01*
X0311470Y0073397D01*
X0311439Y0073343D01*
X0311405Y0073290D01*
X0311368Y0073240D01*
X0311328Y0073192D01*
X0311285Y0073147D01*
X0311239Y0073104D01*
X0311191Y0073065D01*
X0311140Y0073029D01*
X0311087Y0072996D01*
X0311032Y0072966D01*
X0310975Y0072940D01*
X0310917Y0072918D01*
X0310857Y0072900D01*
X0310797Y0072885D01*
X0310735Y0072874D01*
X0310673Y0072867D01*
X0310611Y0072864D01*
X0310548Y0072865D01*
X0310486Y0072870D01*
X0310424Y0072879D01*
X0310363Y0072892D01*
X0310303Y0072908D01*
X0310244Y0072929D01*
X0310186Y0072953D01*
X0310130Y0072981D01*
X0310076Y0073012D01*
X0310024Y0073046D01*
X0309975Y0073084D01*
X0309927Y0073125D01*
X0309883Y0073169D01*
X0309841Y0073215D01*
X0309803Y0073265D01*
X0309767Y0073316D01*
X0309735Y0073370D01*
X0309707Y0073425D01*
X0309681Y0073482D01*
X0309660Y0073541D01*
X0309643Y0073601D01*
X0309629Y0073662D01*
X0309619Y0073723D01*
X0309613Y0073786D01*
X0309611Y0073848D01*
X0085536Y0017087D02*
X0085538Y0017149D01*
X0085544Y0017212D01*
X0085554Y0017273D01*
X0085568Y0017334D01*
X0085585Y0017394D01*
X0085606Y0017453D01*
X0085632Y0017510D01*
X0085660Y0017565D01*
X0085692Y0017619D01*
X0085728Y0017670D01*
X0085766Y0017720D01*
X0085808Y0017766D01*
X0085852Y0017810D01*
X0085900Y0017851D01*
X0085949Y0017889D01*
X0086001Y0017923D01*
X0086055Y0017954D01*
X0086111Y0017982D01*
X0086169Y0018006D01*
X0086228Y0018027D01*
X0086288Y0018043D01*
X0086349Y0018056D01*
X0086411Y0018065D01*
X0086473Y0018070D01*
X0086536Y0018071D01*
X0086598Y0018068D01*
X0086660Y0018061D01*
X0086722Y0018050D01*
X0086782Y0018035D01*
X0086842Y0018017D01*
X0086900Y0017995D01*
X0086957Y0017969D01*
X0087012Y0017939D01*
X0087065Y0017906D01*
X0087116Y0017870D01*
X0087164Y0017831D01*
X0087210Y0017788D01*
X0087253Y0017743D01*
X0087293Y0017695D01*
X0087330Y0017645D01*
X0087364Y0017592D01*
X0087395Y0017538D01*
X0087421Y0017482D01*
X0087445Y0017424D01*
X0087464Y0017364D01*
X0087480Y0017304D01*
X0087492Y0017242D01*
X0087500Y0017181D01*
X0087504Y0017118D01*
X0087504Y0017056D01*
X0087500Y0016993D01*
X0087492Y0016932D01*
X0087480Y0016870D01*
X0087464Y0016810D01*
X0087445Y0016750D01*
X0087421Y0016692D01*
X0087395Y0016636D01*
X0087364Y0016582D01*
X0087330Y0016529D01*
X0087293Y0016479D01*
X0087253Y0016431D01*
X0087210Y0016386D01*
X0087164Y0016343D01*
X0087116Y0016304D01*
X0087065Y0016268D01*
X0087012Y0016235D01*
X0086957Y0016205D01*
X0086900Y0016179D01*
X0086842Y0016157D01*
X0086782Y0016139D01*
X0086722Y0016124D01*
X0086660Y0016113D01*
X0086598Y0016106D01*
X0086536Y0016103D01*
X0086473Y0016104D01*
X0086411Y0016109D01*
X0086349Y0016118D01*
X0086288Y0016131D01*
X0086228Y0016147D01*
X0086169Y0016168D01*
X0086111Y0016192D01*
X0086055Y0016220D01*
X0086001Y0016251D01*
X0085949Y0016285D01*
X0085900Y0016323D01*
X0085852Y0016364D01*
X0085808Y0016408D01*
X0085766Y0016454D01*
X0085728Y0016504D01*
X0085692Y0016555D01*
X0085660Y0016609D01*
X0085632Y0016664D01*
X0085606Y0016721D01*
X0085585Y0016780D01*
X0085568Y0016840D01*
X0085554Y0016901D01*
X0085544Y0016962D01*
X0085538Y0017025D01*
X0085536Y0017087D01*
X0066611Y0181348D02*
X0066613Y0181410D01*
X0066619Y0181473D01*
X0066629Y0181534D01*
X0066643Y0181595D01*
X0066660Y0181655D01*
X0066681Y0181714D01*
X0066707Y0181771D01*
X0066735Y0181826D01*
X0066767Y0181880D01*
X0066803Y0181931D01*
X0066841Y0181981D01*
X0066883Y0182027D01*
X0066927Y0182071D01*
X0066975Y0182112D01*
X0067024Y0182150D01*
X0067076Y0182184D01*
X0067130Y0182215D01*
X0067186Y0182243D01*
X0067244Y0182267D01*
X0067303Y0182288D01*
X0067363Y0182304D01*
X0067424Y0182317D01*
X0067486Y0182326D01*
X0067548Y0182331D01*
X0067611Y0182332D01*
X0067673Y0182329D01*
X0067735Y0182322D01*
X0067797Y0182311D01*
X0067857Y0182296D01*
X0067917Y0182278D01*
X0067975Y0182256D01*
X0068032Y0182230D01*
X0068087Y0182200D01*
X0068140Y0182167D01*
X0068191Y0182131D01*
X0068239Y0182092D01*
X0068285Y0182049D01*
X0068328Y0182004D01*
X0068368Y0181956D01*
X0068405Y0181906D01*
X0068439Y0181853D01*
X0068470Y0181799D01*
X0068496Y0181743D01*
X0068520Y0181685D01*
X0068539Y0181625D01*
X0068555Y0181565D01*
X0068567Y0181503D01*
X0068575Y0181442D01*
X0068579Y0181379D01*
X0068579Y0181317D01*
X0068575Y0181254D01*
X0068567Y0181193D01*
X0068555Y0181131D01*
X0068539Y0181071D01*
X0068520Y0181011D01*
X0068496Y0180953D01*
X0068470Y0180897D01*
X0068439Y0180843D01*
X0068405Y0180790D01*
X0068368Y0180740D01*
X0068328Y0180692D01*
X0068285Y0180647D01*
X0068239Y0180604D01*
X0068191Y0180565D01*
X0068140Y0180529D01*
X0068087Y0180496D01*
X0068032Y0180466D01*
X0067975Y0180440D01*
X0067917Y0180418D01*
X0067857Y0180400D01*
X0067797Y0180385D01*
X0067735Y0180374D01*
X0067673Y0180367D01*
X0067611Y0180364D01*
X0067548Y0180365D01*
X0067486Y0180370D01*
X0067424Y0180379D01*
X0067363Y0180392D01*
X0067303Y0180408D01*
X0067244Y0180429D01*
X0067186Y0180453D01*
X0067130Y0180481D01*
X0067076Y0180512D01*
X0067024Y0180546D01*
X0066975Y0180584D01*
X0066927Y0180625D01*
X0066883Y0180669D01*
X0066841Y0180715D01*
X0066803Y0180765D01*
X0066767Y0180816D01*
X0066735Y0180870D01*
X0066707Y0180925D01*
X0066681Y0180982D01*
X0066660Y0181041D01*
X0066643Y0181101D01*
X0066629Y0181162D01*
X0066619Y0181223D01*
X0066613Y0181286D01*
X0066611Y0181348D01*
X0404185Y0195793D02*
X0404187Y0195855D01*
X0404193Y0195918D01*
X0404203Y0195979D01*
X0404217Y0196040D01*
X0404234Y0196100D01*
X0404255Y0196159D01*
X0404281Y0196216D01*
X0404309Y0196271D01*
X0404341Y0196325D01*
X0404377Y0196376D01*
X0404415Y0196426D01*
X0404457Y0196472D01*
X0404501Y0196516D01*
X0404549Y0196557D01*
X0404598Y0196595D01*
X0404650Y0196629D01*
X0404704Y0196660D01*
X0404760Y0196688D01*
X0404818Y0196712D01*
X0404877Y0196733D01*
X0404937Y0196749D01*
X0404998Y0196762D01*
X0405060Y0196771D01*
X0405122Y0196776D01*
X0405185Y0196777D01*
X0405247Y0196774D01*
X0405309Y0196767D01*
X0405371Y0196756D01*
X0405431Y0196741D01*
X0405491Y0196723D01*
X0405549Y0196701D01*
X0405606Y0196675D01*
X0405661Y0196645D01*
X0405714Y0196612D01*
X0405765Y0196576D01*
X0405813Y0196537D01*
X0405859Y0196494D01*
X0405902Y0196449D01*
X0405942Y0196401D01*
X0405979Y0196351D01*
X0406013Y0196298D01*
X0406044Y0196244D01*
X0406070Y0196188D01*
X0406094Y0196130D01*
X0406113Y0196070D01*
X0406129Y0196010D01*
X0406141Y0195948D01*
X0406149Y0195887D01*
X0406153Y0195824D01*
X0406153Y0195762D01*
X0406149Y0195699D01*
X0406141Y0195638D01*
X0406129Y0195576D01*
X0406113Y0195516D01*
X0406094Y0195456D01*
X0406070Y0195398D01*
X0406044Y0195342D01*
X0406013Y0195288D01*
X0405979Y0195235D01*
X0405942Y0195185D01*
X0405902Y0195137D01*
X0405859Y0195092D01*
X0405813Y0195049D01*
X0405765Y0195010D01*
X0405714Y0194974D01*
X0405661Y0194941D01*
X0405606Y0194911D01*
X0405549Y0194885D01*
X0405491Y0194863D01*
X0405431Y0194845D01*
X0405371Y0194830D01*
X0405309Y0194819D01*
X0405247Y0194812D01*
X0405185Y0194809D01*
X0405122Y0194810D01*
X0405060Y0194815D01*
X0404998Y0194824D01*
X0404937Y0194837D01*
X0404877Y0194853D01*
X0404818Y0194874D01*
X0404760Y0194898D01*
X0404704Y0194926D01*
X0404650Y0194957D01*
X0404598Y0194991D01*
X0404549Y0195029D01*
X0404501Y0195070D01*
X0404457Y0195114D01*
X0404415Y0195160D01*
X0404377Y0195210D01*
X0404341Y0195261D01*
X0404309Y0195315D01*
X0404281Y0195370D01*
X0404255Y0195427D01*
X0404234Y0195486D01*
X0404217Y0195546D01*
X0404203Y0195607D01*
X0404193Y0195668D01*
X0404187Y0195731D01*
X0404185Y0195793D01*
D25*
X0361095Y0165848D03*
X0360095Y0161848D03*
X0371095Y0165348D03*
X0377095Y0165348D03*
X0367095Y0154348D03*
X0380595Y0150848D03*
X0398095Y0141348D03*
X0388095Y0126848D03*
X0388595Y0122348D03*
X0385595Y0118848D03*
X0388595Y0115848D03*
X0388095Y0105848D03*
X0389595Y0095848D03*
X0392355Y0088848D03*
X0397095Y0083348D03*
X0406095Y0087348D03*
X0364595Y0085848D03*
X0352595Y0082848D03*
X0352595Y0092848D03*
X0328095Y0080348D03*
X0327595Y0076348D03*
X0327595Y0068848D03*
X0327595Y0056848D03*
X0328095Y0052348D03*
X0328095Y0048348D03*
X0323095Y0043348D03*
X0317595Y0044348D03*
X0305595Y0044348D03*
X0301595Y0045848D03*
X0298095Y0043348D03*
X0294595Y0045848D03*
X0291095Y0043348D03*
X0287595Y0046348D03*
X0283595Y0044848D03*
X0277595Y0046848D03*
X0272095Y0041348D03*
X0275095Y0037848D03*
X0269595Y0029848D03*
X0264595Y0034848D03*
X0264095Y0045848D03*
X0276595Y0052348D03*
X0287095Y0050848D03*
X0265895Y0063648D03*
X0264095Y0067348D03*
X0266595Y0070848D03*
X0281595Y0071348D03*
X0288095Y0066348D03*
X0295095Y0076848D03*
X0300095Y0089348D03*
X0292095Y0094848D03*
X0288095Y0094848D03*
X0297595Y0104348D03*
X0307595Y0104348D03*
X0319595Y0104348D03*
X0320095Y0109348D03*
X0315595Y0121348D03*
X0310595Y0130348D03*
X0311095Y0134848D03*
X0327095Y0137848D03*
X0307595Y0143348D03*
X0296095Y0135348D03*
X0285095Y0134348D03*
X0281095Y0134348D03*
X0292095Y0125848D03*
X0297595Y0121348D03*
X0294595Y0117348D03*
X0285595Y0111671D03*
X0277595Y0122348D03*
X0269095Y0122348D03*
X0261095Y0117848D03*
X0269095Y0113348D03*
X0262595Y0109848D03*
X0254095Y0107348D03*
X0251095Y0110348D03*
X0256595Y0101348D03*
X0254095Y0097848D03*
X0248095Y0097848D03*
X0263595Y0091348D03*
X0266595Y0088348D03*
X0266595Y0084348D03*
X0266595Y0080348D03*
X0239095Y0080348D03*
X0222595Y0086848D03*
X0214095Y0082710D03*
X0205095Y0083348D03*
X0203095Y0075848D03*
X0191595Y0074848D03*
X0179095Y0071348D03*
X0179095Y0081348D03*
X0179095Y0087348D03*
X0191595Y0083348D03*
X0200095Y0090848D03*
X0206095Y0090848D03*
X0195595Y0095348D03*
X0193595Y0098848D03*
X0197095Y0100848D03*
X0206595Y0098348D03*
X0210095Y0100848D03*
X0228595Y0101348D03*
X0228095Y0115848D03*
X0223595Y0119348D03*
X0218095Y0118848D03*
X0212095Y0116848D03*
X0241095Y0134348D03*
X0248595Y0139848D03*
X0257595Y0149348D03*
X0246095Y0152848D03*
X0240095Y0156848D03*
X0229095Y0160848D03*
X0225595Y0145348D03*
X0211595Y0145348D03*
X0210095Y0137348D03*
X0200595Y0137348D03*
X0165095Y0152348D03*
X0161095Y0155348D03*
X0157095Y0152348D03*
X0153595Y0155348D03*
X0149595Y0152348D03*
X0145595Y0155348D03*
X0141595Y0152348D03*
X0138095Y0155348D03*
X0133095Y0152348D03*
X0120095Y0152348D03*
X0110095Y0143848D03*
X0135095Y0139848D03*
X0182595Y0162848D03*
X0188595Y0162848D03*
X0185595Y0165848D03*
X0191595Y0165848D03*
X0252595Y0159848D03*
X0279095Y0146348D03*
X0270095Y0144348D03*
X0289595Y0150848D03*
X0304595Y0156848D03*
X0336595Y0152848D03*
X0354595Y0130348D03*
X0317095Y0095348D03*
X0313095Y0094848D03*
X0321595Y0094348D03*
X0325595Y0084348D03*
X0364595Y0068848D03*
X0360595Y0057848D03*
X0360595Y0053848D03*
X0369595Y0047848D03*
X0383595Y0040848D03*
X0377095Y0035348D03*
X0357095Y0036848D03*
X0350095Y0027348D03*
X0353595Y0023348D03*
X0365095Y0015348D03*
X0387595Y0014848D03*
X0407595Y0014848D03*
X0397595Y0029348D03*
X0407595Y0043348D03*
X0342095Y0051348D03*
X0338595Y0049348D03*
X0330595Y0034848D03*
X0326595Y0030848D03*
X0323095Y0027348D03*
X0317595Y0026848D03*
X0310095Y0029848D03*
X0322095Y0033348D03*
X0336595Y0021348D03*
X0325729Y0019084D03*
X0320595Y0019348D03*
X0315595Y0019348D03*
X0310595Y0019348D03*
X0286595Y0027348D03*
X0239095Y0046348D03*
X0211595Y0031348D03*
X0200595Y0024348D03*
X0186595Y0029848D03*
X0187095Y0033848D03*
X0180595Y0029848D03*
X0174095Y0033348D03*
X0173638Y0027348D03*
X0164095Y0027348D03*
X0160595Y0022848D03*
X0163595Y0019848D03*
X0167595Y0015348D03*
X0162595Y0012848D03*
X0157595Y0012848D03*
X0149224Y0012848D03*
X0150095Y0027348D03*
X0150095Y0031848D03*
X0160595Y0036348D03*
X0174595Y0041348D03*
X0164544Y0046848D03*
X0149595Y0056348D03*
X0163095Y0058348D03*
X0143595Y0039848D03*
X0118095Y0031848D03*
X0097095Y0014348D03*
X0044359Y0027898D03*
X0036481Y0028066D03*
X0040393Y0042944D03*
X0048215Y0042804D03*
X0044419Y0058031D03*
X0055095Y0063848D03*
X0056595Y0071348D03*
X0048349Y0072938D03*
X0053595Y0077348D03*
X0082095Y0077348D03*
X0084095Y0066348D03*
X0103595Y0052848D03*
X0030095Y0013848D03*
X0040670Y0013323D03*
X0193595Y0033848D03*
X0205595Y0051348D03*
X0266095Y0097348D03*
X0250095Y0126848D03*
X0083595Y0128848D03*
X0083595Y0116848D03*
X0074095Y0107348D03*
X0055095Y0116848D03*
X0056595Y0122348D03*
X0049188Y0116494D03*
X0055595Y0128848D03*
X0046156Y0129477D03*
X0042913Y0144399D03*
X0039280Y0159377D03*
X0047843Y0159414D03*
X0044396Y0174428D03*
X0035897Y0174412D03*
X0032662Y0189434D03*
X0040716Y0189576D03*
X0035595Y0195848D03*
D26*
X0034348Y0190500D02*
X0034517Y0190430D01*
X0039767Y0190430D01*
X0050927Y0142039D01*
X0056818Y0130329D01*
X0056746Y0128716D01*
X0056001Y0128407D01*
X0054985Y0127391D01*
X0054506Y0127391D01*
X0051552Y0124437D01*
X0051552Y0120259D01*
X0054506Y0117305D01*
X0056595Y0117305D01*
X0056595Y0115348D01*
X0050206Y0115385D01*
X0033355Y0190494D01*
X0034348Y0190500D01*
X0033444Y0190098D02*
X0039843Y0190098D01*
X0039981Y0189500D02*
X0033578Y0189500D01*
X0033712Y0188901D02*
X0040119Y0188901D01*
X0040257Y0188303D02*
X0033846Y0188303D01*
X0033981Y0187704D02*
X0040395Y0187704D01*
X0040533Y0187106D02*
X0034115Y0187106D01*
X0034249Y0186507D02*
X0040671Y0186507D01*
X0040809Y0185909D02*
X0034384Y0185909D01*
X0034518Y0185310D02*
X0040947Y0185310D01*
X0041085Y0184712D02*
X0034652Y0184712D01*
X0034786Y0184113D02*
X0041223Y0184113D01*
X0041361Y0183515D02*
X0034921Y0183515D01*
X0035055Y0182916D02*
X0041500Y0182916D01*
X0041638Y0182318D02*
X0035189Y0182318D01*
X0035324Y0181719D02*
X0041776Y0181719D01*
X0041914Y0181121D02*
X0035458Y0181121D01*
X0035592Y0180522D02*
X0042052Y0180522D01*
X0042190Y0179924D02*
X0035726Y0179924D01*
X0035861Y0179325D02*
X0042328Y0179325D01*
X0042466Y0178727D02*
X0035995Y0178727D01*
X0036129Y0178128D02*
X0042604Y0178128D01*
X0042742Y0177530D02*
X0036263Y0177530D01*
X0036398Y0176931D02*
X0042880Y0176931D01*
X0043018Y0176333D02*
X0036532Y0176333D01*
X0036666Y0175734D02*
X0043156Y0175734D01*
X0043294Y0175136D02*
X0036801Y0175136D01*
X0036935Y0174537D02*
X0043432Y0174537D01*
X0043570Y0173939D02*
X0037069Y0173939D01*
X0037203Y0173340D02*
X0043708Y0173340D01*
X0043846Y0172742D02*
X0037338Y0172742D01*
X0037472Y0172143D02*
X0043984Y0172143D01*
X0044122Y0171545D02*
X0037606Y0171545D01*
X0037741Y0170946D02*
X0044260Y0170946D01*
X0044398Y0170348D02*
X0037875Y0170348D01*
X0038009Y0169749D02*
X0044536Y0169749D01*
X0044674Y0169151D02*
X0038143Y0169151D01*
X0038278Y0168552D02*
X0044812Y0168552D01*
X0044950Y0167954D02*
X0038412Y0167954D01*
X0038546Y0167355D02*
X0045088Y0167355D01*
X0045226Y0166757D02*
X0038681Y0166757D01*
X0038815Y0166158D02*
X0045364Y0166158D01*
X0045503Y0165559D02*
X0038949Y0165559D01*
X0039083Y0164961D02*
X0045641Y0164961D01*
X0045779Y0164362D02*
X0039218Y0164362D01*
X0039352Y0163764D02*
X0045917Y0163764D01*
X0046055Y0163165D02*
X0039486Y0163165D01*
X0039621Y0162567D02*
X0046193Y0162567D01*
X0046331Y0161968D02*
X0039755Y0161968D01*
X0039889Y0161370D02*
X0046469Y0161370D01*
X0046607Y0160771D02*
X0040023Y0160771D01*
X0040158Y0160173D02*
X0046745Y0160173D01*
X0046883Y0159574D02*
X0040292Y0159574D01*
X0040426Y0158976D02*
X0047021Y0158976D01*
X0047159Y0158377D02*
X0040561Y0158377D01*
X0040695Y0157779D02*
X0047297Y0157779D01*
X0047435Y0157180D02*
X0040829Y0157180D01*
X0040963Y0156582D02*
X0047573Y0156582D01*
X0047711Y0155983D02*
X0041098Y0155983D01*
X0041232Y0155385D02*
X0047849Y0155385D01*
X0047987Y0154786D02*
X0041366Y0154786D01*
X0041501Y0154188D02*
X0048125Y0154188D01*
X0048263Y0153589D02*
X0041635Y0153589D01*
X0041769Y0152991D02*
X0048401Y0152991D01*
X0048539Y0152392D02*
X0041903Y0152392D01*
X0042038Y0151794D02*
X0048677Y0151794D01*
X0048815Y0151195D02*
X0042172Y0151195D01*
X0042306Y0150597D02*
X0048953Y0150597D01*
X0049091Y0149998D02*
X0042441Y0149998D01*
X0042575Y0149400D02*
X0049229Y0149400D01*
X0049367Y0148801D02*
X0042709Y0148801D01*
X0042843Y0148203D02*
X0049506Y0148203D01*
X0049644Y0147604D02*
X0042978Y0147604D01*
X0043112Y0147006D02*
X0049782Y0147006D01*
X0049920Y0146407D02*
X0043246Y0146407D01*
X0043381Y0145809D02*
X0050058Y0145809D01*
X0050196Y0145210D02*
X0043515Y0145210D01*
X0043649Y0144612D02*
X0050334Y0144612D01*
X0050472Y0144013D02*
X0043783Y0144013D01*
X0043918Y0143415D02*
X0050610Y0143415D01*
X0050748Y0142816D02*
X0044052Y0142816D01*
X0044186Y0142218D02*
X0050886Y0142218D01*
X0051138Y0141619D02*
X0044321Y0141619D01*
X0044455Y0141021D02*
X0051439Y0141021D01*
X0051740Y0140422D02*
X0044589Y0140422D01*
X0044723Y0139823D02*
X0052042Y0139823D01*
X0052343Y0139225D02*
X0044858Y0139225D01*
X0044992Y0138626D02*
X0052644Y0138626D01*
X0052945Y0138028D02*
X0045126Y0138028D01*
X0045261Y0137429D02*
X0053246Y0137429D01*
X0053547Y0136831D02*
X0045395Y0136831D01*
X0045529Y0136232D02*
X0053848Y0136232D01*
X0054149Y0135634D02*
X0045663Y0135634D01*
X0045798Y0135035D02*
X0054450Y0135035D01*
X0054751Y0134437D02*
X0045932Y0134437D01*
X0046066Y0133838D02*
X0055052Y0133838D01*
X0055353Y0133240D02*
X0046200Y0133240D01*
X0046335Y0132641D02*
X0055654Y0132641D01*
X0055955Y0132043D02*
X0046469Y0132043D01*
X0046603Y0131444D02*
X0056256Y0131444D01*
X0056558Y0130846D02*
X0046738Y0130846D01*
X0046872Y0130247D02*
X0056814Y0130247D01*
X0056787Y0129649D02*
X0047006Y0129649D01*
X0047140Y0129050D02*
X0056761Y0129050D01*
X0056109Y0128452D02*
X0047275Y0128452D01*
X0047409Y0127853D02*
X0055447Y0127853D01*
X0054370Y0127255D02*
X0047543Y0127255D01*
X0047678Y0126656D02*
X0053771Y0126656D01*
X0053173Y0126058D02*
X0047812Y0126058D01*
X0047946Y0125459D02*
X0052574Y0125459D01*
X0051976Y0124861D02*
X0048080Y0124861D01*
X0048215Y0124262D02*
X0051552Y0124262D01*
X0051552Y0123664D02*
X0048349Y0123664D01*
X0048483Y0123065D02*
X0051552Y0123065D01*
X0051552Y0122467D02*
X0048618Y0122467D01*
X0048752Y0121868D02*
X0051552Y0121868D01*
X0051552Y0121270D02*
X0048886Y0121270D01*
X0049020Y0120671D02*
X0051552Y0120671D01*
X0051738Y0120073D02*
X0049155Y0120073D01*
X0049289Y0119474D02*
X0052337Y0119474D01*
X0052935Y0118876D02*
X0049423Y0118876D01*
X0049558Y0118277D02*
X0053534Y0118277D01*
X0054132Y0117679D02*
X0049692Y0117679D01*
X0049826Y0117080D02*
X0056595Y0117080D01*
X0056595Y0116482D02*
X0049960Y0116482D01*
X0050095Y0115883D02*
X0056595Y0115883D01*
X0074095Y0110848D02*
X0074095Y0107348D01*
X0074095Y0110848D02*
X0074249Y0110848D01*
X0080942Y0110848D02*
X0088465Y0110848D01*
X0090351Y0111159D01*
X0129721Y0140722D02*
X0130595Y0139848D01*
X0135095Y0139848D01*
X0129721Y0140722D02*
X0129721Y0146592D01*
X0133658Y0146592D02*
X0133658Y0153285D01*
X0133605Y0153270D01*
X0133553Y0153251D01*
X0133503Y0153228D01*
X0133454Y0153202D01*
X0133408Y0153172D01*
X0133363Y0153140D01*
X0133321Y0153104D01*
X0133282Y0153065D01*
X0133246Y0153023D01*
X0133212Y0152979D01*
X0133182Y0152933D01*
X0133156Y0152885D01*
X0133132Y0152835D01*
X0133113Y0152783D01*
X0133097Y0152730D01*
X0133085Y0152676D01*
X0133077Y0152622D01*
X0133073Y0152567D01*
X0133072Y0152512D01*
X0133076Y0152457D01*
X0133084Y0152402D01*
X0133095Y0152348D01*
X0138095Y0149848D02*
X0138095Y0155348D01*
X0141532Y0152785D02*
X0141532Y0146592D01*
X0137595Y0146592D02*
X0138095Y0149848D01*
X0141595Y0152348D02*
X0141613Y0152375D01*
X0141628Y0152404D01*
X0141640Y0152434D01*
X0141649Y0152466D01*
X0141655Y0152498D01*
X0141657Y0152531D01*
X0141656Y0152563D01*
X0141651Y0152596D01*
X0141643Y0152627D01*
X0141632Y0152658D01*
X0141617Y0152687D01*
X0141600Y0152715D01*
X0141580Y0152741D01*
X0141557Y0152764D01*
X0141532Y0152785D01*
X0145469Y0153222D02*
X0145469Y0146592D01*
X0149406Y0146592D02*
X0149406Y0153159D01*
X0149444Y0153133D01*
X0149481Y0153104D01*
X0149514Y0153073D01*
X0149545Y0153039D01*
X0149574Y0153002D01*
X0149599Y0152963D01*
X0149622Y0152923D01*
X0149641Y0152881D01*
X0149656Y0152837D01*
X0149669Y0152793D01*
X0149677Y0152747D01*
X0149682Y0152701D01*
X0149684Y0152655D01*
X0149682Y0152609D01*
X0149676Y0152563D01*
X0149667Y0152518D01*
X0149654Y0152473D01*
X0149638Y0152430D01*
X0149618Y0152388D01*
X0149595Y0152348D01*
X0145469Y0153222D02*
X0145420Y0153280D01*
X0145374Y0153341D01*
X0145331Y0153404D01*
X0145291Y0153469D01*
X0145254Y0153536D01*
X0145221Y0153605D01*
X0145192Y0153675D01*
X0145166Y0153747D01*
X0145144Y0153820D01*
X0145125Y0153894D01*
X0145110Y0153969D01*
X0145100Y0154044D01*
X0145092Y0154120D01*
X0145089Y0154197D01*
X0145090Y0154273D01*
X0145094Y0154349D01*
X0145103Y0154425D01*
X0145115Y0154500D01*
X0145131Y0154575D01*
X0145151Y0154649D01*
X0145174Y0154721D01*
X0145201Y0154793D01*
X0145232Y0154862D01*
X0145266Y0154931D01*
X0145304Y0154997D01*
X0145345Y0155061D01*
X0145389Y0155124D01*
X0145436Y0155184D01*
X0145486Y0155241D01*
X0145539Y0155296D01*
X0145595Y0155348D01*
X0153595Y0155348D02*
X0153343Y0153100D01*
X0153343Y0146592D01*
X0157280Y0146592D02*
X0157280Y0153163D01*
X0157242Y0153137D01*
X0157206Y0153108D01*
X0157172Y0153076D01*
X0157141Y0153041D01*
X0157113Y0153004D01*
X0157087Y0152966D01*
X0157065Y0152925D01*
X0157046Y0152882D01*
X0157031Y0152839D01*
X0157019Y0152794D01*
X0157010Y0152748D01*
X0157005Y0152702D01*
X0157004Y0152656D01*
X0157006Y0152609D01*
X0157012Y0152563D01*
X0157022Y0152518D01*
X0157035Y0152473D01*
X0157052Y0152430D01*
X0157072Y0152388D01*
X0157095Y0152348D01*
X0161095Y0155348D02*
X0161095Y0148289D01*
X0161217Y0146592D01*
X0165154Y0146592D02*
X0165095Y0148226D01*
X0165095Y0152348D01*
X0168942Y0154872D02*
X0170249Y0154348D01*
X0170595Y0155694D01*
X0172595Y0157848D01*
X0239095Y0157848D01*
X0240095Y0156848D01*
X0246095Y0152848D02*
X0250095Y0156848D01*
X0304595Y0156848D01*
X0314595Y0153848D02*
X0275595Y0153848D01*
X0275095Y0153348D01*
X0275095Y0131848D01*
X0271595Y0128848D01*
X0268595Y0128848D01*
X0264095Y0124348D01*
X0264095Y0115348D01*
X0263595Y0114848D01*
X0255595Y0114848D01*
X0251095Y0110348D01*
X0254095Y0107848D02*
X0259095Y0112848D01*
X0265095Y0112848D01*
X0265595Y0113348D01*
X0265595Y0122848D01*
X0269095Y0126348D01*
X0272095Y0126348D01*
X0277595Y0131848D01*
X0277595Y0137848D01*
X0278595Y0139348D01*
X0279095Y0139502D01*
X0285095Y0138348D02*
X0285095Y0134848D01*
X0285249Y0134694D01*
X0285095Y0134348D01*
X0281095Y0134348D02*
X0281095Y0133002D01*
X0284249Y0129348D01*
X0282595Y0129348D01*
X0282595Y0122694D01*
X0282595Y0125348D01*
X0273595Y0125348D01*
X0271595Y0122694D01*
X0269942Y0122694D01*
X0269095Y0122348D01*
X0271595Y0116002D02*
X0272249Y0116002D01*
X0269095Y0113348D01*
X0262595Y0109848D02*
X0262595Y0107694D01*
X0254095Y0107848D02*
X0254095Y0107348D01*
X0256595Y0101348D02*
X0256595Y0100848D01*
X0262095Y0094348D01*
X0274595Y0094348D01*
X0284595Y0084348D01*
X0284595Y0064848D01*
X0287095Y0062348D01*
X0287095Y0050848D01*
X0282095Y0051502D02*
X0277595Y0046848D01*
X0276595Y0052348D02*
X0279355Y0056348D01*
X0282095Y0058194D01*
X0265895Y0063648D02*
X0263095Y0060848D01*
X0263095Y0049848D01*
X0257595Y0044848D01*
X0264095Y0045348D02*
X0264095Y0045848D01*
X0264095Y0045348D02*
X0264595Y0044848D01*
X0264595Y0034848D01*
X0264127Y0029848D02*
X0213509Y0029848D01*
X0212802Y0030141D02*
X0211595Y0031348D01*
X0212802Y0030141D02*
X0212846Y0030099D01*
X0212892Y0030061D01*
X0212941Y0030025D01*
X0212992Y0029992D01*
X0213044Y0029963D01*
X0213099Y0029936D01*
X0213154Y0029913D01*
X0213211Y0029893D01*
X0213270Y0029877D01*
X0213329Y0029864D01*
X0213388Y0029855D01*
X0213449Y0029850D01*
X0213509Y0029848D01*
X0208095Y0026254D02*
X0207095Y0027848D01*
X0207107Y0032836D01*
X0202095Y0034836D01*
X0193595Y0033848D02*
X0193595Y0032348D01*
X0186595Y0025348D01*
X0175595Y0025348D01*
X0173638Y0027348D01*
X0179095Y0026848D02*
X0183595Y0026848D01*
X0186595Y0029848D01*
X0180595Y0029848D02*
X0180595Y0034848D01*
X0174595Y0041348D01*
X0165095Y0047348D02*
X0164544Y0046848D01*
X0165095Y0047348D02*
X0165095Y0050470D01*
X0165154Y0052104D01*
X0161595Y0051907D02*
X0161595Y0042194D01*
X0157595Y0043348D02*
X0156095Y0041848D01*
X0154442Y0041848D01*
X0155942Y0042002D01*
X0157595Y0043348D02*
X0157595Y0050214D01*
X0157280Y0052104D01*
X0157595Y0052419D01*
X0157595Y0056348D01*
X0160095Y0058348D01*
X0163095Y0058348D01*
X0161217Y0052104D02*
X0161595Y0051907D01*
X0153343Y0052104D02*
X0152595Y0049781D01*
X0152595Y0047348D01*
X0151095Y0045848D01*
X0144595Y0045848D01*
X0140095Y0041348D01*
X0140095Y0032848D01*
X0143595Y0029348D01*
X0147595Y0029348D01*
X0150095Y0031848D01*
X0151095Y0032348D01*
X0152442Y0034002D01*
X0152442Y0034194D01*
X0152595Y0034348D01*
X0152595Y0035348D01*
X0151095Y0035348D01*
X0152442Y0034002D02*
X0152442Y0033848D01*
X0145749Y0033848D02*
X0144095Y0035348D01*
X0144095Y0039848D01*
X0143595Y0039848D01*
X0146095Y0039848D01*
X0147095Y0041848D01*
X0147749Y0041848D01*
X0160595Y0036348D02*
X0161749Y0036348D01*
X0161595Y0035502D01*
X0164095Y0027348D02*
X0150095Y0027348D01*
X0150095Y0024348D02*
X0151595Y0022848D01*
X0160595Y0022848D01*
X0163595Y0019848D02*
X0151095Y0019848D01*
X0149595Y0021348D01*
X0125595Y0021348D01*
X0125595Y0047848D01*
X0125784Y0047848D01*
X0125784Y0052104D01*
X0121847Y0052104D02*
X0121847Y0018348D01*
X0122347Y0017848D01*
X0161095Y0017848D01*
X0162095Y0016848D01*
X0166095Y0016848D01*
X0167595Y0015348D01*
X0162595Y0012848D02*
X0159595Y0015848D01*
X0113095Y0015848D01*
X0112595Y0016348D01*
X0112595Y0022002D01*
X0112595Y0028694D02*
X0113973Y0030072D01*
X0113973Y0052104D01*
X0110036Y0052104D02*
X0110036Y0046635D01*
X0107095Y0042694D01*
X0107095Y0036002D02*
X0107095Y0011848D01*
X0149595Y0011848D01*
X0149224Y0012848D01*
X0150095Y0024348D02*
X0130095Y0024348D01*
X0130095Y0036002D01*
X0118095Y0036002D02*
X0118095Y0031848D01*
X0118095Y0042694D02*
X0118095Y0050344D01*
X0117910Y0052104D01*
X0129721Y0052104D02*
X0130095Y0042541D01*
X0130095Y0042694D01*
X0149406Y0052104D02*
X0149406Y0056159D01*
X0149595Y0056348D01*
X0179095Y0071348D02*
X0181973Y0071348D01*
X0184839Y0071789D01*
X0190473Y0075726D02*
X0191595Y0074848D01*
X0190473Y0075726D02*
X0184839Y0075726D01*
X0184839Y0079663D02*
X0181095Y0079663D01*
X0179095Y0081348D01*
X0184839Y0083600D02*
X0191595Y0083600D01*
X0191595Y0083348D01*
X0184839Y0087537D02*
X0184095Y0087348D01*
X0179095Y0087348D01*
X0195595Y0095348D02*
X0245595Y0095848D01*
X0246595Y0094848D01*
X0255595Y0094848D01*
X0265595Y0084348D01*
X0266595Y0084348D01*
X0267095Y0083848D01*
X0278595Y0083848D01*
X0279095Y0083348D01*
X0280095Y0081694D01*
X0280095Y0075002D02*
X0281595Y0071348D01*
X0288095Y0066348D02*
X0288595Y0065848D01*
X0351595Y0065848D01*
X0353095Y0066848D01*
X0368595Y0082848D01*
X0368595Y0087848D01*
X0357595Y0099348D01*
X0357595Y0114348D01*
X0370095Y0126848D01*
X0376749Y0126848D01*
X0383442Y0126848D02*
X0388595Y0122348D01*
X0388595Y0126348D02*
X0388595Y0134348D01*
X0383249Y0134348D01*
X0382095Y0135502D01*
X0388595Y0134348D02*
X0390249Y0136002D01*
X0390249Y0136348D01*
X0396942Y0136348D02*
X0398095Y0137502D01*
X0398095Y0141348D01*
X0384595Y0141348D01*
X0383749Y0142194D01*
X0382095Y0142194D01*
X0376595Y0154348D02*
X0367095Y0154348D01*
X0364095Y0157848D02*
X0378095Y0157848D01*
X0380095Y0159848D01*
X0380095Y0170348D01*
X0379095Y0171348D01*
X0186595Y0171348D01*
X0185595Y0170348D01*
X0185595Y0165848D01*
X0188595Y0162848D02*
X0188595Y0168848D01*
X0189595Y0169848D01*
X0376095Y0169848D01*
X0377095Y0168848D01*
X0377095Y0165348D01*
X0374095Y0167348D02*
X0374095Y0162848D01*
X0373095Y0161848D01*
X0365095Y0161848D01*
X0361095Y0165848D01*
X0360095Y0161848D02*
X0364095Y0157848D01*
X0376595Y0154348D02*
X0381595Y0159348D01*
X0381595Y0171848D01*
X0380595Y0172848D01*
X0183595Y0172848D01*
X0182595Y0171848D01*
X0182595Y0162848D01*
X0191595Y0165848D02*
X0191595Y0167348D01*
X0192595Y0168348D01*
X0373095Y0168348D01*
X0374095Y0167348D01*
X0316095Y0152348D02*
X0316095Y0146348D01*
X0311095Y0141848D01*
X0311095Y0134848D01*
X0310595Y0130348D02*
X0314249Y0130348D01*
X0320942Y0130348D02*
X0328595Y0130348D01*
X0332595Y0134348D01*
X0307595Y0140608D02*
X0307595Y0143348D01*
X0307595Y0140608D02*
X0305942Y0139348D01*
X0305595Y0139002D01*
X0305595Y0114848D01*
X0320095Y0114848D01*
X0323095Y0111848D01*
X0323095Y0108348D01*
X0319595Y0104848D01*
X0319595Y0104348D01*
X0320095Y0109348D02*
X0315942Y0109348D01*
X0309249Y0109348D02*
X0309249Y0105502D01*
X0307595Y0104348D01*
X0305095Y0108848D02*
X0282095Y0108848D01*
X0278095Y0112848D01*
X0278095Y0121848D01*
X0277595Y0122348D01*
X0282595Y0116002D02*
X0285595Y0111671D01*
X0294595Y0117348D02*
X0297595Y0116002D01*
X0305595Y0114848D02*
X0305595Y0109348D01*
X0305095Y0108848D01*
X0297595Y0104348D02*
X0200595Y0104348D01*
X0197095Y0100848D01*
X0200095Y0090848D02*
X0206095Y0090848D01*
X0203095Y0075848D02*
X0262595Y0075848D01*
X0266595Y0080348D01*
X0288249Y0081348D02*
X0288249Y0089348D01*
X0288095Y0089348D01*
X0288095Y0094848D01*
X0292095Y0094848D02*
X0294942Y0089348D01*
X0300095Y0089348D01*
X0304249Y0089348D01*
X0310942Y0089348D02*
X0311095Y0089502D01*
X0311095Y0091348D01*
X0313095Y0094848D01*
X0317095Y0095348D02*
X0318095Y0091348D01*
X0318095Y0089502D01*
X0318249Y0089348D01*
X0321595Y0094348D02*
X0325095Y0091348D01*
X0325095Y0089502D01*
X0324942Y0089348D01*
X0325595Y0084348D02*
X0323595Y0083348D01*
X0321595Y0081694D01*
X0328095Y0080348D02*
X0321595Y0075002D01*
X0327595Y0076348D02*
X0328095Y0076848D01*
X0338595Y0076848D01*
X0339595Y0077848D01*
X0339595Y0084694D01*
X0344249Y0089348D01*
X0350942Y0089348D02*
X0350942Y0091194D01*
X0352595Y0092848D01*
X0352595Y0082848D02*
X0350942Y0079694D01*
X0350942Y0079348D01*
X0344249Y0079348D02*
X0342595Y0077694D01*
X0342595Y0069348D01*
X0341595Y0068348D01*
X0328095Y0068348D01*
X0327595Y0068848D01*
X0327095Y0061848D02*
X0320095Y0061848D01*
X0318595Y0063348D01*
X0312749Y0063348D01*
X0309249Y0059348D01*
X0315942Y0059348D02*
X0316021Y0059346D01*
X0316099Y0059341D01*
X0316177Y0059331D01*
X0316255Y0059318D01*
X0316332Y0059301D01*
X0316408Y0059281D01*
X0316483Y0059257D01*
X0316557Y0059230D01*
X0316629Y0059199D01*
X0316700Y0059164D01*
X0316769Y0059126D01*
X0316836Y0059085D01*
X0316901Y0059041D01*
X0316964Y0058994D01*
X0317025Y0058944D01*
X0317083Y0058891D01*
X0317139Y0058835D01*
X0317192Y0058777D01*
X0317242Y0058716D01*
X0317289Y0058653D01*
X0317333Y0058588D01*
X0317374Y0058521D01*
X0317412Y0058452D01*
X0317447Y0058381D01*
X0317478Y0058309D01*
X0317505Y0058235D01*
X0317529Y0058160D01*
X0317549Y0058084D01*
X0317566Y0058007D01*
X0317579Y0057929D01*
X0317589Y0057851D01*
X0317594Y0057773D01*
X0317596Y0057694D01*
X0317595Y0057694D02*
X0317595Y0048348D01*
X0323095Y0043348D01*
X0328095Y0048348D02*
X0322595Y0051002D01*
X0328095Y0052348D02*
X0322595Y0057694D01*
X0327595Y0056848D02*
X0330095Y0054848D01*
X0331095Y0054848D01*
X0331095Y0040848D01*
X0323595Y0033348D01*
X0322095Y0033348D01*
X0310095Y0029848D02*
X0307595Y0027348D01*
X0286595Y0027348D01*
X0283509Y0023848D02*
X0283449Y0023850D01*
X0283388Y0023855D01*
X0283329Y0023864D01*
X0283270Y0023877D01*
X0283211Y0023893D01*
X0283154Y0023913D01*
X0283099Y0023936D01*
X0283044Y0023963D01*
X0282992Y0023992D01*
X0282941Y0024025D01*
X0282892Y0024061D01*
X0282846Y0024099D01*
X0282802Y0024141D01*
X0277388Y0029555D01*
X0276681Y0029848D02*
X0269595Y0029848D01*
X0267564Y0026848D02*
X0267501Y0026850D01*
X0267439Y0026856D01*
X0267377Y0026866D01*
X0267316Y0026879D01*
X0267256Y0026897D01*
X0267197Y0026918D01*
X0267140Y0026942D01*
X0267084Y0026971D01*
X0267030Y0027002D01*
X0266978Y0027037D01*
X0266929Y0027076D01*
X0266882Y0027117D01*
X0266837Y0027161D01*
X0266796Y0027208D01*
X0266795Y0027208D02*
X0264895Y0029488D01*
X0264854Y0029535D01*
X0264809Y0029579D01*
X0264762Y0029620D01*
X0264713Y0029659D01*
X0264661Y0029694D01*
X0264607Y0029725D01*
X0264551Y0029754D01*
X0264494Y0029778D01*
X0264435Y0029799D01*
X0264375Y0029817D01*
X0264314Y0029830D01*
X0264252Y0029840D01*
X0264190Y0029846D01*
X0264127Y0029848D01*
X0267564Y0026848D02*
X0276215Y0026848D01*
X0276879Y0026595D02*
X0281095Y0022848D01*
X0281302Y0022641D01*
X0282009Y0022348D02*
X0325181Y0022348D01*
X0325888Y0022641D02*
X0340802Y0037555D01*
X0341095Y0038262D02*
X0341095Y0047434D01*
X0341388Y0048141D02*
X0341802Y0048555D01*
X0342095Y0049262D02*
X0342095Y0051348D01*
X0342095Y0049262D02*
X0342093Y0049202D01*
X0342088Y0049141D01*
X0342079Y0049082D01*
X0342066Y0049023D01*
X0342050Y0048964D01*
X0342030Y0048907D01*
X0342007Y0048852D01*
X0341980Y0048797D01*
X0341951Y0048745D01*
X0341918Y0048694D01*
X0341882Y0048645D01*
X0341844Y0048599D01*
X0341802Y0048555D01*
X0341388Y0048141D02*
X0341346Y0048097D01*
X0341308Y0048051D01*
X0341272Y0048002D01*
X0341239Y0047951D01*
X0341210Y0047899D01*
X0341183Y0047844D01*
X0341160Y0047789D01*
X0341140Y0047732D01*
X0341124Y0047673D01*
X0341111Y0047614D01*
X0341102Y0047555D01*
X0341097Y0047494D01*
X0341095Y0047434D01*
X0338595Y0049348D02*
X0338595Y0038262D01*
X0338302Y0037555D02*
X0324888Y0024141D01*
X0324181Y0023848D02*
X0283509Y0023848D01*
X0282009Y0022348D02*
X0281949Y0022350D01*
X0281888Y0022355D01*
X0281829Y0022364D01*
X0281770Y0022377D01*
X0281711Y0022393D01*
X0281654Y0022413D01*
X0281599Y0022436D01*
X0281544Y0022463D01*
X0281492Y0022492D01*
X0281441Y0022525D01*
X0281392Y0022561D01*
X0281346Y0022599D01*
X0281302Y0022641D01*
X0276879Y0026595D02*
X0276833Y0026634D01*
X0276784Y0026670D01*
X0276733Y0026703D01*
X0276681Y0026733D01*
X0276626Y0026760D01*
X0276570Y0026783D01*
X0276513Y0026803D01*
X0276455Y0026819D01*
X0276396Y0026832D01*
X0276336Y0026841D01*
X0276276Y0026846D01*
X0276215Y0026848D01*
X0277388Y0029555D02*
X0277344Y0029597D01*
X0277298Y0029635D01*
X0277249Y0029671D01*
X0277198Y0029704D01*
X0277146Y0029733D01*
X0277091Y0029760D01*
X0277036Y0029783D01*
X0276979Y0029803D01*
X0276920Y0029819D01*
X0276861Y0029832D01*
X0276802Y0029841D01*
X0276741Y0029846D01*
X0276681Y0029848D01*
X0247595Y0034848D02*
X0247095Y0034348D01*
X0240835Y0034348D01*
X0239095Y0034108D01*
X0239095Y0041588D02*
X0239595Y0041848D01*
X0239095Y0042848D01*
X0239095Y0046348D01*
X0205595Y0046860D02*
X0205095Y0046860D01*
X0202095Y0045860D01*
X0205107Y0046360D01*
X0205595Y0046860D02*
X0205595Y0051348D01*
X0179095Y0026848D02*
X0174095Y0032848D01*
X0174095Y0033348D01*
X0187595Y0021348D02*
X0190095Y0024348D01*
X0200595Y0024348D01*
X0200595Y0021194D01*
X0187595Y0021348D02*
X0183595Y0021348D01*
X0180595Y0021194D01*
X0106095Y0051848D02*
X0105410Y0052533D01*
X0104095Y0052533D01*
X0103595Y0052848D01*
X0106099Y0052104D02*
X0106095Y0051848D01*
X0056595Y0062848D02*
X0051410Y0059218D01*
X0039595Y0012348D01*
X0035338Y0012348D01*
X0035513Y0012770D01*
X0035513Y0020861D01*
X0050594Y0078569D01*
X0056595Y0078348D01*
X0056595Y0077346D01*
X0056001Y0077100D01*
X0055292Y0076391D01*
X0054506Y0076391D01*
X0051552Y0073437D01*
X0051552Y0069259D01*
X0054506Y0066305D01*
X0055985Y0066305D01*
X0056001Y0066289D01*
X0056595Y0066043D01*
X0056595Y0062848D01*
X0056595Y0063214D02*
X0046581Y0063214D01*
X0046425Y0062616D02*
X0056263Y0062616D01*
X0055408Y0062017D02*
X0046269Y0062017D01*
X0046112Y0061419D02*
X0054553Y0061419D01*
X0053698Y0060820D02*
X0045956Y0060820D01*
X0045799Y0060221D02*
X0052843Y0060221D01*
X0051989Y0059623D02*
X0045643Y0059623D01*
X0045486Y0059024D02*
X0051361Y0059024D01*
X0051210Y0058426D02*
X0045330Y0058426D01*
X0045174Y0057827D02*
X0051059Y0057827D01*
X0050908Y0057229D02*
X0045017Y0057229D01*
X0044861Y0056630D02*
X0050758Y0056630D01*
X0050607Y0056032D02*
X0044704Y0056032D01*
X0044548Y0055433D02*
X0050456Y0055433D01*
X0050305Y0054835D02*
X0044392Y0054835D01*
X0044235Y0054236D02*
X0050154Y0054236D01*
X0050003Y0053638D02*
X0044079Y0053638D01*
X0043922Y0053039D02*
X0049852Y0053039D01*
X0049702Y0052441D02*
X0043766Y0052441D01*
X0043610Y0051842D02*
X0049551Y0051842D01*
X0049400Y0051244D02*
X0043453Y0051244D01*
X0043297Y0050645D02*
X0049249Y0050645D01*
X0049098Y0050047D02*
X0043140Y0050047D01*
X0042984Y0049448D02*
X0048947Y0049448D01*
X0048796Y0048850D02*
X0042828Y0048850D01*
X0042671Y0048251D02*
X0048645Y0048251D01*
X0048495Y0047653D02*
X0042515Y0047653D01*
X0042358Y0047054D02*
X0048344Y0047054D01*
X0048193Y0046456D02*
X0042202Y0046456D01*
X0042045Y0045857D02*
X0048042Y0045857D01*
X0047891Y0045259D02*
X0041889Y0045259D01*
X0041733Y0044660D02*
X0047740Y0044660D01*
X0047589Y0044062D02*
X0041576Y0044062D01*
X0041420Y0043463D02*
X0047438Y0043463D01*
X0047288Y0042865D02*
X0041263Y0042865D01*
X0041107Y0042266D02*
X0047137Y0042266D01*
X0046986Y0041668D02*
X0040951Y0041668D01*
X0040794Y0041069D02*
X0046835Y0041069D01*
X0046684Y0040471D02*
X0040638Y0040471D01*
X0040481Y0039872D02*
X0046533Y0039872D01*
X0046382Y0039274D02*
X0040325Y0039274D01*
X0040169Y0038675D02*
X0046232Y0038675D01*
X0046081Y0038077D02*
X0040012Y0038077D01*
X0039856Y0037478D02*
X0045930Y0037478D01*
X0045779Y0036880D02*
X0039699Y0036880D01*
X0039543Y0036281D02*
X0045628Y0036281D01*
X0045477Y0035683D02*
X0039387Y0035683D01*
X0039230Y0035084D02*
X0045326Y0035084D01*
X0045175Y0034486D02*
X0039074Y0034486D01*
X0038917Y0033887D02*
X0045025Y0033887D01*
X0044874Y0033288D02*
X0038761Y0033288D01*
X0038604Y0032690D02*
X0044723Y0032690D01*
X0044572Y0032091D02*
X0038448Y0032091D01*
X0038292Y0031493D02*
X0044421Y0031493D01*
X0044270Y0030894D02*
X0038135Y0030894D01*
X0037979Y0030296D02*
X0044119Y0030296D01*
X0043968Y0029697D02*
X0037822Y0029697D01*
X0037666Y0029099D02*
X0043818Y0029099D01*
X0043667Y0028500D02*
X0037510Y0028500D01*
X0037353Y0027902D02*
X0043516Y0027902D01*
X0043365Y0027303D02*
X0037197Y0027303D01*
X0037040Y0026705D02*
X0043214Y0026705D01*
X0043063Y0026106D02*
X0036884Y0026106D01*
X0036728Y0025508D02*
X0042912Y0025508D01*
X0042762Y0024909D02*
X0036571Y0024909D01*
X0036415Y0024311D02*
X0042611Y0024311D01*
X0042460Y0023712D02*
X0036258Y0023712D01*
X0036102Y0023114D02*
X0042309Y0023114D01*
X0042158Y0022515D02*
X0035945Y0022515D01*
X0035789Y0021917D02*
X0042007Y0021917D01*
X0041856Y0021318D02*
X0035633Y0021318D01*
X0035513Y0020720D02*
X0041705Y0020720D01*
X0041555Y0020121D02*
X0035513Y0020121D01*
X0035513Y0019523D02*
X0041404Y0019523D01*
X0041253Y0018924D02*
X0035513Y0018924D01*
X0035513Y0018326D02*
X0041102Y0018326D01*
X0040951Y0017727D02*
X0035513Y0017727D01*
X0035513Y0017129D02*
X0040800Y0017129D01*
X0040649Y0016530D02*
X0035513Y0016530D01*
X0035513Y0015932D02*
X0040498Y0015932D01*
X0040348Y0015333D02*
X0035513Y0015333D01*
X0035513Y0014735D02*
X0040197Y0014735D01*
X0040046Y0014136D02*
X0035513Y0014136D01*
X0035513Y0013538D02*
X0039895Y0013538D01*
X0039744Y0012939D02*
X0035513Y0012939D01*
X0046738Y0063813D02*
X0056595Y0063813D01*
X0056595Y0064411D02*
X0046894Y0064411D01*
X0047051Y0065010D02*
X0056595Y0065010D01*
X0056595Y0065608D02*
X0047207Y0065608D01*
X0047363Y0066207D02*
X0056199Y0066207D01*
X0054006Y0066805D02*
X0047520Y0066805D01*
X0047676Y0067404D02*
X0053407Y0067404D01*
X0052809Y0068002D02*
X0047833Y0068002D01*
X0047989Y0068601D02*
X0052210Y0068601D01*
X0051612Y0069199D02*
X0048145Y0069199D01*
X0048302Y0069798D02*
X0051552Y0069798D01*
X0051552Y0070396D02*
X0048458Y0070396D01*
X0048615Y0070995D02*
X0051552Y0070995D01*
X0051552Y0071593D02*
X0048771Y0071593D01*
X0048927Y0072192D02*
X0051552Y0072192D01*
X0051552Y0072790D02*
X0049084Y0072790D01*
X0049240Y0073389D02*
X0051552Y0073389D01*
X0052102Y0073987D02*
X0049397Y0073987D01*
X0049553Y0074586D02*
X0052701Y0074586D01*
X0053299Y0075184D02*
X0049710Y0075184D01*
X0049866Y0075783D02*
X0053898Y0075783D01*
X0054496Y0076381D02*
X0050022Y0076381D01*
X0050179Y0076980D02*
X0055881Y0076980D01*
X0056595Y0077578D02*
X0050335Y0077578D01*
X0050492Y0078177D02*
X0056595Y0078177D01*
X0169091Y0146592D02*
X0168942Y0154872D01*
X0200595Y0137348D02*
X0207799Y0129664D01*
X0208528Y0129348D02*
X0211595Y0129348D01*
X0211655Y0129346D01*
X0211716Y0129341D01*
X0211775Y0129332D01*
X0211834Y0129319D01*
X0211893Y0129303D01*
X0211950Y0129283D01*
X0212005Y0129260D01*
X0212060Y0129233D01*
X0212112Y0129204D01*
X0212163Y0129171D01*
X0212212Y0129135D01*
X0212258Y0129097D01*
X0212302Y0129055D01*
X0212344Y0129011D01*
X0212382Y0128965D01*
X0212418Y0128916D01*
X0212451Y0128865D01*
X0212480Y0128813D01*
X0212507Y0128758D01*
X0212530Y0128703D01*
X0212550Y0128646D01*
X0212566Y0128587D01*
X0212579Y0128528D01*
X0212588Y0128469D01*
X0212593Y0128408D01*
X0212595Y0128348D01*
X0212595Y0118848D01*
X0212132Y0116829D01*
X0212095Y0116848D01*
X0212595Y0118848D01*
X0218095Y0118848D01*
X0212113Y0116848D02*
X0212095Y0116848D01*
X0208528Y0129348D02*
X0208470Y0129350D01*
X0208411Y0129355D01*
X0208354Y0129363D01*
X0208296Y0129375D01*
X0208240Y0129390D01*
X0208185Y0129409D01*
X0208130Y0129430D01*
X0208078Y0129455D01*
X0208026Y0129483D01*
X0207977Y0129514D01*
X0207929Y0129547D01*
X0207883Y0129584D01*
X0207840Y0129623D01*
X0207798Y0129664D01*
X0247595Y0124348D02*
X0247595Y0122655D01*
X0247595Y0136041D02*
X0248595Y0137041D01*
X0269942Y0139348D02*
X0270335Y0144588D01*
X0270095Y0144348D01*
X0279095Y0146194D02*
X0279749Y0146194D01*
X0279095Y0146348D01*
X0285749Y0139348D02*
X0285095Y0138348D01*
X0291095Y0140348D02*
X0291942Y0139502D01*
X0292442Y0139348D01*
X0291095Y0140348D02*
X0291095Y0130848D01*
X0292595Y0129348D01*
X0290942Y0129348D01*
X0291942Y0126194D01*
X0292095Y0125848D01*
X0289595Y0123848D01*
X0289595Y0122194D01*
X0297595Y0122694D02*
X0299095Y0121588D01*
X0297595Y0121348D01*
X0296095Y0135348D02*
X0299249Y0139348D01*
X0314595Y0153848D02*
X0316095Y0152348D01*
X0388095Y0126848D02*
X0388595Y0126348D01*
X0384095Y0108348D02*
X0383595Y0107348D01*
X0384095Y0106348D01*
X0384095Y0107348D01*
X0384095Y0108348D01*
X0384095Y0107348D02*
X0383595Y0107348D01*
X0384095Y0106348D02*
X0384095Y0103348D01*
X0382595Y0100348D02*
X0381442Y0099348D01*
X0377249Y0097194D02*
X0374749Y0099348D01*
X0377249Y0097194D02*
X0377095Y0092848D01*
X0377095Y0060848D01*
X0365595Y0049348D01*
X0349095Y0049348D01*
X0338595Y0059848D01*
X0329095Y0059848D01*
X0327095Y0061848D01*
X0304942Y0051348D02*
X0305595Y0048848D01*
X0305595Y0044348D01*
X0301595Y0045848D02*
X0299095Y0047608D01*
X0298249Y0051348D01*
X0338302Y0037555D02*
X0338344Y0037599D01*
X0338382Y0037645D01*
X0338418Y0037694D01*
X0338451Y0037745D01*
X0338480Y0037797D01*
X0338507Y0037852D01*
X0338530Y0037907D01*
X0338550Y0037964D01*
X0338566Y0038023D01*
X0338579Y0038082D01*
X0338588Y0038141D01*
X0338593Y0038202D01*
X0338595Y0038262D01*
X0340802Y0037555D02*
X0340844Y0037599D01*
X0340882Y0037645D01*
X0340918Y0037694D01*
X0340951Y0037745D01*
X0340980Y0037797D01*
X0341007Y0037852D01*
X0341030Y0037907D01*
X0341050Y0037964D01*
X0341066Y0038023D01*
X0341079Y0038082D01*
X0341088Y0038141D01*
X0341093Y0038202D01*
X0341095Y0038262D01*
X0357095Y0036848D02*
X0362249Y0042002D01*
X0373095Y0042002D01*
X0325888Y0022641D02*
X0325844Y0022599D01*
X0325798Y0022561D01*
X0325749Y0022525D01*
X0325698Y0022492D01*
X0325646Y0022463D01*
X0325591Y0022436D01*
X0325536Y0022413D01*
X0325479Y0022393D01*
X0325420Y0022377D01*
X0325361Y0022364D01*
X0325302Y0022355D01*
X0325241Y0022350D01*
X0325181Y0022348D01*
X0324181Y0023848D02*
X0324241Y0023850D01*
X0324302Y0023855D01*
X0324361Y0023864D01*
X0324420Y0023877D01*
X0324479Y0023893D01*
X0324536Y0023913D01*
X0324591Y0023936D01*
X0324646Y0023963D01*
X0324698Y0023992D01*
X0324749Y0024025D01*
X0324798Y0024061D01*
X0324844Y0024099D01*
X0324888Y0024141D01*
X0295095Y0076848D02*
X0295095Y0081348D01*
X0266095Y0097348D02*
X0265249Y0098348D01*
X0262595Y0101002D01*
X0254095Y0097848D02*
X0248095Y0097848D01*
X0382595Y0100348D02*
X0382690Y0100421D01*
X0382782Y0100498D01*
X0382872Y0100577D01*
X0382959Y0100660D01*
X0383044Y0100744D01*
X0383126Y0100832D01*
X0383205Y0100922D01*
X0383281Y0101015D01*
X0383354Y0101110D01*
X0383424Y0101207D01*
X0383491Y0101307D01*
X0383554Y0101408D01*
X0383615Y0101512D01*
X0383672Y0101618D01*
X0383725Y0101725D01*
X0383776Y0101834D01*
X0383822Y0101944D01*
X0383865Y0102056D01*
X0383905Y0102169D01*
X0383941Y0102284D01*
X0383973Y0102399D01*
X0384001Y0102516D01*
X0384026Y0102633D01*
X0384047Y0102751D01*
X0384064Y0102870D01*
X0384078Y0102989D01*
X0384087Y0103108D01*
X0384093Y0103228D01*
X0384095Y0103348D01*
D27*
X0394095Y0093360D02*
X0395083Y0094348D01*
X0395583Y0093848D01*
X0394095Y0093360D02*
X0394095Y0090848D01*
X0393355Y0090108D01*
X0392355Y0088848D01*
X0409442Y0081348D02*
X0409442Y0075694D01*
X0405595Y0072348D01*
X0406608Y0093849D02*
X0405919Y0094594D01*
X0405214Y0095322D01*
X0404491Y0096034D01*
X0403751Y0096728D01*
X0402995Y0097404D01*
X0402223Y0098062D01*
X0401436Y0098702D01*
X0400634Y0099323D01*
X0399817Y0099924D01*
X0398986Y0100506D01*
X0398141Y0101067D01*
X0397284Y0101609D01*
X0396414Y0102130D01*
X0395531Y0102630D01*
X0394637Y0103109D01*
X0393732Y0103567D01*
X0392816Y0104003D01*
X0391890Y0104417D01*
X0390954Y0104808D01*
X0390010Y0105178D01*
X0389057Y0105525D01*
X0388096Y0105849D01*
X0358595Y0120848D02*
X0358595Y0158348D01*
X0357595Y0159348D01*
X0352595Y0164348D01*
X0252595Y0164348D01*
X0229095Y0140848D01*
X0228595Y0140848D01*
X0198595Y0140848D01*
X0196595Y0138848D01*
X0196595Y0118848D01*
X0196595Y0108848D02*
X0197095Y0108348D01*
X0197095Y0106848D01*
X0193532Y0103285D01*
X0184839Y0103285D01*
X0191595Y0096848D02*
X0193595Y0098848D01*
X0191595Y0096848D02*
X0191595Y0093848D01*
X0195595Y0089848D01*
X0195595Y0052348D01*
X0194095Y0050848D01*
X0194095Y0042348D01*
X0196095Y0040348D01*
X0211095Y0040348D01*
X0216595Y0034848D01*
X0187595Y0014352D02*
X0187249Y0014506D01*
X0187595Y0014352D02*
X0187595Y0014348D01*
X0352838Y0098105D02*
X0352838Y0115457D01*
X0358595Y0120848D01*
X0352838Y0098105D02*
X0364595Y0085848D01*
X0263249Y0139348D02*
X0262855Y0149348D01*
X0257595Y0149348D01*
X0270335Y0149348D02*
X0270335Y0144588D01*
X0248595Y0139848D02*
X0248595Y0137041D01*
X0250095Y0126848D02*
X0247595Y0124348D01*
X0352595Y0156041D02*
X0352902Y0156041D01*
X0352595Y0156348D01*
X0122595Y0151348D02*
X0121595Y0149415D01*
X0090351Y0130844D02*
X0084835Y0128848D01*
X0084780Y0128848D02*
X0090351Y0126907D01*
X0090351Y0119033D02*
X0083595Y0116848D01*
X0090351Y0115096D01*
D28*
X0086347Y0115096D01*
X0083595Y0116848D02*
X0055095Y0116848D01*
X0055595Y0128848D02*
X0059249Y0128848D01*
X0060095Y0129694D01*
X0061595Y0128848D01*
X0078095Y0128848D01*
X0080095Y0129694D01*
X0080942Y0128848D01*
X0083595Y0128848D01*
X0084780Y0128848D01*
X0084835Y0128848D01*
X0085780Y0119033D02*
X0090351Y0119033D01*
X0104595Y0143848D02*
X0100095Y0148348D01*
X0100095Y0157348D01*
X0098595Y0159848D02*
X0105595Y0166848D01*
X0107595Y0166848D01*
X0106335Y0157848D02*
X0113583Y0157848D01*
X0114583Y0158348D01*
X0114095Y0158348D01*
X0120095Y0152348D01*
X0118095Y0151348D02*
X0122595Y0151348D01*
X0125595Y0151348D01*
X0125607Y0158348D02*
X0127438Y0158348D01*
X0127438Y0167065D01*
X0110036Y0146592D02*
X0110095Y0143848D01*
X0113095Y0143848D02*
X0104595Y0143848D01*
X0082095Y0077348D02*
X0053595Y0077348D01*
X0055095Y0063848D02*
X0059942Y0063848D01*
X0078595Y0063848D01*
X0079749Y0065002D01*
X0080095Y0065002D01*
X0084095Y0066348D02*
X0086095Y0067848D01*
X0090351Y0067852D01*
X0084095Y0066348D02*
X0083967Y0066253D01*
X0083837Y0066161D01*
X0083705Y0066073D01*
X0083571Y0065988D01*
X0083434Y0065906D01*
X0083296Y0065827D01*
X0083156Y0065752D01*
X0083014Y0065680D01*
X0082870Y0065611D01*
X0082725Y0065546D01*
X0082578Y0065485D01*
X0082430Y0065427D01*
X0082281Y0065372D01*
X0082130Y0065322D01*
X0081978Y0065275D01*
X0081825Y0065231D01*
X0081671Y0065191D01*
X0081516Y0065155D01*
X0081360Y0065123D01*
X0081203Y0065095D01*
X0081046Y0065070D01*
X0080889Y0065049D01*
X0080730Y0065032D01*
X0080572Y0065018D01*
X0080413Y0065009D01*
X0080254Y0065003D01*
X0080095Y0065001D01*
X0061249Y0063848D02*
X0060095Y0065002D01*
X0060096Y0065002D02*
X0060128Y0064956D01*
X0060158Y0064908D01*
X0060184Y0064859D01*
X0060206Y0064807D01*
X0060225Y0064754D01*
X0060241Y0064700D01*
X0060252Y0064645D01*
X0060260Y0064590D01*
X0060264Y0064534D01*
X0060265Y0064477D01*
X0060261Y0064421D01*
X0060254Y0064366D01*
X0060242Y0064311D01*
X0060227Y0064256D01*
X0060209Y0064203D01*
X0060187Y0064152D01*
X0060161Y0064102D01*
X0060132Y0064054D01*
X0060100Y0064008D01*
X0060065Y0063964D01*
X0060026Y0063923D01*
X0059986Y0063884D01*
X0059942Y0063848D01*
X0082095Y0077348D02*
X0086595Y0075848D01*
X0090351Y0075726D01*
X0208095Y0014502D02*
X0208095Y0014443D01*
D29*
X0373095Y0042002D02*
X0374749Y0040848D01*
X0383595Y0040848D01*
X0409442Y0081348D02*
X0408942Y0081848D01*
X0118095Y0148352D02*
X0118095Y0151348D01*
D30*
X0125595Y0151348D02*
X0126595Y0151848D01*
X0126712Y0151833D01*
X0126830Y0151822D01*
X0126948Y0151815D01*
X0127066Y0151812D01*
X0127184Y0151813D01*
X0127302Y0151818D01*
X0127420Y0151827D01*
X0127538Y0151840D01*
X0127654Y0151857D01*
X0127771Y0151877D01*
X0127886Y0151902D01*
X0128001Y0151930D01*
X0128115Y0151962D01*
X0128227Y0151998D01*
X0128339Y0152038D01*
X0128449Y0152081D01*
X0128557Y0152128D01*
X0128664Y0152179D01*
X0128769Y0152233D01*
X0128872Y0152291D01*
X0128973Y0152352D01*
X0129072Y0152416D01*
X0129169Y0152484D01*
X0129264Y0152555D01*
X0129356Y0152629D01*
X0129445Y0152706D01*
X0129532Y0152786D01*
X0129616Y0152869D01*
X0129698Y0152955D01*
X0129776Y0153043D01*
X0129852Y0153134D01*
X0129924Y0153227D01*
X0129994Y0153323D01*
X0130060Y0153421D01*
X0130122Y0153521D01*
X0130182Y0153623D01*
X0130238Y0153727D01*
X0130290Y0153833D01*
X0130339Y0153941D01*
X0130384Y0154050D01*
X0130426Y0154161D01*
X0130464Y0154273D01*
X0130498Y0154386D01*
X0130528Y0154500D01*
X0130554Y0154615D01*
X0130577Y0154731D01*
X0130595Y0154848D01*
X0135095Y0159848D01*
X0227595Y0159848D01*
X0229095Y0160848D01*
X0252595Y0159848D02*
X0339288Y0159848D01*
X0342595Y0156041D01*
X0336595Y0152848D02*
X0342595Y0146848D01*
X0342595Y0142655D01*
X0352595Y0142655D01*
X0352902Y0156041D02*
X0356209Y0159348D01*
D31*
X0357595Y0159348D01*
X0378167Y0116348D02*
X0378298Y0116350D01*
X0378429Y0116355D01*
X0378560Y0116363D01*
X0378691Y0116375D01*
X0378821Y0116391D01*
X0378951Y0116410D01*
X0379080Y0116432D01*
X0379208Y0116458D01*
X0379336Y0116487D01*
X0379463Y0116519D01*
X0379590Y0116555D01*
X0379715Y0116594D01*
X0379839Y0116636D01*
X0379962Y0116681D01*
X0385595Y0118848D01*
X0388595Y0115848D02*
X0386335Y0114088D01*
X0378167Y0116348D02*
X0376595Y0116348D01*
X0375942Y0115348D01*
X0369249Y0115348D02*
X0367505Y0113848D01*
X0362595Y0109348D01*
X0362095Y0108348D02*
X0362095Y0098848D01*
X0362505Y0098103D02*
X0371095Y0089348D01*
X0373095Y0090348D02*
X0373151Y0090271D01*
X0373204Y0090193D01*
X0373253Y0090112D01*
X0373300Y0090030D01*
X0373343Y0089945D01*
X0373384Y0089860D01*
X0373420Y0089772D01*
X0373454Y0089684D01*
X0373484Y0089594D01*
X0373510Y0089503D01*
X0373533Y0089411D01*
X0373552Y0089319D01*
X0373568Y0089225D01*
X0373580Y0089131D01*
X0373589Y0089037D01*
X0373594Y0088942D01*
X0373595Y0088848D01*
X0373595Y0065348D01*
X0371595Y0065348D02*
X0371595Y0088348D01*
X0371587Y0088424D01*
X0371575Y0088500D01*
X0371559Y0088574D01*
X0371539Y0088648D01*
X0371516Y0088721D01*
X0371489Y0088792D01*
X0371458Y0088862D01*
X0371424Y0088931D01*
X0371386Y0088997D01*
X0371345Y0089062D01*
X0371301Y0089124D01*
X0371254Y0089184D01*
X0371204Y0089241D01*
X0371151Y0089296D01*
X0371095Y0089348D01*
X0373095Y0090348D02*
X0364686Y0099093D01*
X0364095Y0100348D02*
X0364095Y0106848D01*
X0362095Y0108348D02*
X0362097Y0108416D01*
X0362102Y0108484D01*
X0362112Y0108552D01*
X0362125Y0108619D01*
X0362141Y0108685D01*
X0362161Y0108750D01*
X0362185Y0108814D01*
X0362212Y0108876D01*
X0362243Y0108937D01*
X0362276Y0108997D01*
X0362313Y0109054D01*
X0362353Y0109109D01*
X0362396Y0109162D01*
X0362442Y0109212D01*
X0362491Y0109260D01*
X0362542Y0109306D01*
X0362595Y0109348D01*
X0365595Y0108848D02*
X0368595Y0108848D01*
X0368749Y0107848D02*
X0369249Y0107348D01*
X0365595Y0108848D02*
X0365512Y0108833D01*
X0365431Y0108814D01*
X0365350Y0108791D01*
X0365270Y0108765D01*
X0365192Y0108735D01*
X0365115Y0108701D01*
X0365040Y0108664D01*
X0364967Y0108623D01*
X0364896Y0108579D01*
X0364827Y0108532D01*
X0364760Y0108481D01*
X0364695Y0108428D01*
X0364633Y0108371D01*
X0364574Y0108312D01*
X0364518Y0108250D01*
X0364465Y0108185D01*
X0364414Y0108118D01*
X0364367Y0108049D01*
X0364323Y0107977D01*
X0364283Y0107904D01*
X0364246Y0107829D01*
X0364213Y0107752D01*
X0364183Y0107674D01*
X0364157Y0107594D01*
X0364134Y0107513D01*
X0364116Y0107431D01*
X0364101Y0107349D01*
X0364090Y0107266D01*
X0364083Y0107182D01*
X0364080Y0107098D01*
X0364081Y0107015D01*
X0364086Y0106931D01*
X0364094Y0106848D01*
X0375942Y0107348D02*
X0383595Y0107348D01*
X0384095Y0108348D02*
X0384095Y0109848D01*
X0384096Y0109848D02*
X0384114Y0110006D01*
X0384136Y0110162D01*
X0384162Y0110319D01*
X0384192Y0110475D01*
X0384226Y0110630D01*
X0384263Y0110784D01*
X0384304Y0110937D01*
X0384350Y0111089D01*
X0384398Y0111239D01*
X0384451Y0111389D01*
X0384507Y0111537D01*
X0384567Y0111684D01*
X0384630Y0111829D01*
X0384697Y0111973D01*
X0384768Y0112115D01*
X0384842Y0112255D01*
X0384920Y0112393D01*
X0385000Y0112530D01*
X0385085Y0112664D01*
X0385172Y0112796D01*
X0385263Y0112926D01*
X0385357Y0113054D01*
X0385454Y0113179D01*
X0385554Y0113302D01*
X0385657Y0113422D01*
X0385763Y0113540D01*
X0385872Y0113655D01*
X0385984Y0113768D01*
X0386099Y0113877D01*
X0386216Y0113984D01*
X0386336Y0114088D01*
X0364095Y0100348D02*
X0364097Y0100269D01*
X0364102Y0100189D01*
X0364112Y0100110D01*
X0364125Y0100032D01*
X0364143Y0099954D01*
X0364164Y0099877D01*
X0364188Y0099802D01*
X0364217Y0099727D01*
X0364249Y0099654D01*
X0364285Y0099583D01*
X0364324Y0099514D01*
X0364366Y0099447D01*
X0364412Y0099381D01*
X0364461Y0099318D01*
X0364513Y0099258D01*
X0364568Y0099200D01*
X0364625Y0099145D01*
X0364685Y0099093D01*
X0362505Y0098104D02*
X0362456Y0098143D01*
X0362409Y0098185D01*
X0362365Y0098229D01*
X0362324Y0098276D01*
X0362286Y0098326D01*
X0362251Y0098378D01*
X0362219Y0098431D01*
X0362191Y0098487D01*
X0362166Y0098545D01*
X0362144Y0098603D01*
X0362126Y0098663D01*
X0362112Y0098724D01*
X0362102Y0098786D01*
X0362096Y0098848D01*
X0371595Y0065348D02*
X0371587Y0065265D01*
X0371575Y0065182D01*
X0371559Y0065100D01*
X0371541Y0065019D01*
X0371518Y0064939D01*
X0371493Y0064859D01*
X0371464Y0064781D01*
X0371432Y0064704D01*
X0371396Y0064629D01*
X0371357Y0064555D01*
X0371316Y0064483D01*
X0371271Y0064412D01*
X0371223Y0064344D01*
X0371172Y0064278D01*
X0371119Y0064214D01*
X0371063Y0064152D01*
X0371004Y0064093D01*
X0371005Y0064093D02*
X0365595Y0058848D01*
X0363760Y0057848D02*
X0360595Y0057848D01*
X0362430Y0053848D02*
X0362519Y0053840D01*
X0362608Y0053835D01*
X0362697Y0053834D01*
X0362787Y0053837D01*
X0362876Y0053843D01*
X0362965Y0053852D01*
X0363053Y0053866D01*
X0363141Y0053883D01*
X0363228Y0053903D01*
X0363314Y0053927D01*
X0363399Y0053955D01*
X0363483Y0053985D01*
X0363565Y0054020D01*
X0363646Y0054057D01*
X0363726Y0054098D01*
X0363803Y0054142D01*
X0363879Y0054189D01*
X0363953Y0054239D01*
X0364025Y0054292D01*
X0364095Y0054348D01*
X0372686Y0062603D01*
X0372762Y0062689D01*
X0372835Y0062777D01*
X0372905Y0062868D01*
X0372972Y0062961D01*
X0373036Y0063055D01*
X0373097Y0063152D01*
X0373155Y0063251D01*
X0373210Y0063352D01*
X0373261Y0063454D01*
X0373309Y0063558D01*
X0373354Y0063664D01*
X0373395Y0063771D01*
X0373433Y0063879D01*
X0373467Y0063988D01*
X0373498Y0064098D01*
X0373525Y0064210D01*
X0373548Y0064322D01*
X0373568Y0064435D01*
X0373585Y0064548D01*
X0373597Y0064662D01*
X0373606Y0064776D01*
X0373611Y0064890D01*
X0373613Y0065005D01*
X0373611Y0065119D01*
X0373605Y0065234D01*
X0373596Y0065348D01*
X0365595Y0058848D02*
X0365544Y0058773D01*
X0365491Y0058700D01*
X0365434Y0058629D01*
X0365374Y0058561D01*
X0365311Y0058495D01*
X0365246Y0058432D01*
X0365178Y0058371D01*
X0365108Y0058314D01*
X0365035Y0058259D01*
X0364961Y0058208D01*
X0364884Y0058159D01*
X0364805Y0058114D01*
X0364724Y0058072D01*
X0364642Y0058034D01*
X0364558Y0057999D01*
X0364473Y0057968D01*
X0364387Y0057940D01*
X0364299Y0057916D01*
X0364211Y0057895D01*
X0364122Y0057878D01*
X0364032Y0057865D01*
X0363941Y0057856D01*
X0363851Y0057850D01*
X0363760Y0057848D01*
X0362430Y0053848D02*
X0360595Y0053848D01*
X0261095Y0117848D02*
X0260595Y0117848D01*
X0260095Y0117348D01*
X0238095Y0117348D01*
X0234595Y0120848D01*
X0234595Y0129348D01*
X0229095Y0134848D01*
X0229095Y0140348D01*
X0228595Y0140848D01*
X0125784Y0146592D02*
X0125595Y0148356D01*
X0121595Y0149415D02*
X0121847Y0146592D01*
X0117910Y0146592D02*
X0118095Y0148352D01*
D32*
X0368595Y0108848D02*
X0368749Y0107848D01*
D33*
X0125595Y0148356D02*
X0125595Y0151348D01*
X0120095Y0151348D02*
X0120095Y0152348D01*
X0120095Y0151348D02*
X0118095Y0151348D01*
D34*
X0090351Y0122970D02*
X0080127Y0122970D01*
X0080095Y0123002D01*
X0075095Y0123002D01*
X0073835Y0122848D01*
X0067095Y0123002D02*
X0060095Y0123002D01*
X0060095Y0122348D02*
X0056595Y0122348D01*
X0066355Y0122848D02*
X0067095Y0123002D01*
X0064634Y0071669D02*
X0060095Y0071694D01*
X0060095Y0071348D02*
X0056595Y0071348D01*
X0064634Y0071669D02*
X0065382Y0070921D01*
X0066355Y0070921D01*
X0073835Y0070921D02*
X0075305Y0070921D01*
X0076127Y0071743D01*
X0080095Y0071694D01*
X0090351Y0071789D01*
X0169091Y0052104D02*
X0169095Y0025848D01*
X0169100Y0025572D01*
X0169112Y0025296D01*
X0169131Y0025021D01*
X0169156Y0024746D01*
X0169188Y0024472D01*
X0169226Y0024199D01*
X0169271Y0023926D01*
X0169323Y0023655D01*
X0169381Y0023385D01*
X0169446Y0023117D01*
X0169517Y0022850D01*
X0169594Y0022585D01*
X0169678Y0022322D01*
X0169768Y0022061D01*
X0169865Y0021803D01*
X0169967Y0021546D01*
X0170076Y0021293D01*
X0170191Y0021042D01*
X0170312Y0020794D01*
X0170439Y0020549D01*
X0170572Y0020307D01*
X0170711Y0020068D01*
X0170855Y0019833D01*
X0171005Y0019601D01*
X0171161Y0019373D01*
X0171322Y0019149D01*
X0171488Y0018929D01*
X0171660Y0018712D01*
X0171837Y0018500D01*
X0172019Y0018293D01*
X0172206Y0018090D01*
X0172398Y0017891D01*
X0172594Y0017697D01*
X0172795Y0017508D01*
X0173001Y0017324D01*
X0173211Y0017145D01*
X0173425Y0016971D01*
X0173644Y0016802D01*
X0173866Y0016639D01*
X0174092Y0016481D01*
X0174322Y0016328D01*
X0174556Y0016181D01*
X0174793Y0016040D01*
X0175034Y0015905D01*
X0175278Y0015775D01*
X0175524Y0015651D01*
X0175774Y0015534D01*
X0176027Y0015422D01*
X0176282Y0015317D01*
X0176539Y0015217D01*
X0176799Y0015124D01*
X0177061Y0015038D01*
X0177325Y0014957D01*
X0177591Y0014883D01*
X0177859Y0014816D01*
X0178128Y0014755D01*
X0178399Y0014700D01*
X0178671Y0014652D01*
X0178944Y0014611D01*
X0179217Y0014576D01*
X0179492Y0014548D01*
X0179767Y0014527D01*
X0180043Y0014512D01*
X0180319Y0014504D01*
X0180595Y0014502D01*
X0187595Y0014348D01*
X0193942Y0014506D02*
X0200595Y0014502D01*
X0208095Y0014502D01*
X0208095Y0014443D02*
X0347595Y0014443D01*
X0347595Y0014442D02*
X0347899Y0014444D01*
X0348203Y0014452D01*
X0348506Y0014468D01*
X0348809Y0014491D01*
X0349112Y0014522D01*
X0349413Y0014560D01*
X0349714Y0014606D01*
X0350013Y0014658D01*
X0350311Y0014719D01*
X0350608Y0014786D01*
X0350902Y0014861D01*
X0351195Y0014943D01*
X0351485Y0015031D01*
X0351774Y0015128D01*
X0352060Y0015231D01*
X0352343Y0015341D01*
X0352624Y0015458D01*
X0352901Y0015581D01*
X0353176Y0015712D01*
X0353447Y0015849D01*
X0353715Y0015993D01*
X0353979Y0016143D01*
X0354239Y0016300D01*
X0354496Y0016463D01*
X0354748Y0016632D01*
X0354996Y0016807D01*
X0355240Y0016989D01*
X0355480Y0017176D01*
X0355714Y0017369D01*
X0355944Y0017568D01*
X0356169Y0017772D01*
X0356389Y0017982D01*
X0356604Y0018197D01*
X0356813Y0018418D01*
X0357017Y0018643D01*
X0357216Y0018873D01*
X0357408Y0019108D01*
X0357595Y0019348D01*
X0382595Y0029348D02*
X0397595Y0029348D01*
X0390801Y0044848D02*
X0382360Y0044848D01*
X0382229Y0044850D01*
X0382098Y0044856D01*
X0381967Y0044865D01*
X0381837Y0044879D01*
X0381707Y0044896D01*
X0381577Y0044917D01*
X0381448Y0044941D01*
X0381320Y0044970D01*
X0381193Y0045002D01*
X0381067Y0045038D01*
X0380942Y0045078D01*
X0380818Y0045121D01*
X0380696Y0045167D01*
X0380575Y0045218D01*
X0380455Y0045272D01*
X0380337Y0045329D01*
X0380221Y0045390D01*
X0380107Y0045454D01*
X0379994Y0045521D01*
X0379884Y0045592D01*
X0379775Y0045666D01*
X0379669Y0045743D01*
X0379565Y0045823D01*
X0379464Y0045906D01*
X0379365Y0045992D01*
X0379268Y0046080D01*
X0379175Y0046172D01*
X0379083Y0046266D01*
X0378995Y0046363D01*
X0378910Y0046463D01*
X0378827Y0046564D01*
X0378748Y0046669D01*
X0374729Y0048694D02*
X0373095Y0048694D01*
X0370442Y0048694D01*
X0369595Y0047848D01*
X0374729Y0048694D02*
X0374866Y0048692D01*
X0375003Y0048686D01*
X0375140Y0048677D01*
X0375277Y0048664D01*
X0375413Y0048647D01*
X0375549Y0048626D01*
X0375684Y0048602D01*
X0375819Y0048574D01*
X0375952Y0048542D01*
X0376085Y0048507D01*
X0376217Y0048468D01*
X0376347Y0048425D01*
X0376476Y0048379D01*
X0376604Y0048329D01*
X0376731Y0048276D01*
X0376856Y0048219D01*
X0376979Y0048159D01*
X0377101Y0048095D01*
X0377221Y0048029D01*
X0377339Y0047959D01*
X0377455Y0047885D01*
X0377569Y0047809D01*
X0377681Y0047729D01*
X0377791Y0047647D01*
X0377898Y0047561D01*
X0378003Y0047473D01*
X0378106Y0047381D01*
X0378206Y0047287D01*
X0378303Y0047190D01*
X0378398Y0047091D01*
X0378490Y0046989D01*
X0378579Y0046884D01*
X0378665Y0046778D01*
X0378748Y0046668D01*
X0390801Y0044848D02*
X0390940Y0044850D01*
X0391078Y0044856D01*
X0391217Y0044865D01*
X0391355Y0044879D01*
X0391493Y0044896D01*
X0391630Y0044917D01*
X0391767Y0044942D01*
X0391902Y0044971D01*
X0392037Y0045003D01*
X0392171Y0045039D01*
X0392304Y0045079D01*
X0392436Y0045123D01*
X0392567Y0045170D01*
X0392696Y0045221D01*
X0392823Y0045275D01*
X0392950Y0045333D01*
X0393074Y0045395D01*
X0393197Y0045459D01*
X0393318Y0045528D01*
X0393437Y0045599D01*
X0393554Y0045674D01*
X0393668Y0045752D01*
X0393781Y0045833D01*
X0393891Y0045917D01*
X0393999Y0046005D01*
X0394105Y0046095D01*
X0394208Y0046188D01*
X0394308Y0046284D01*
X0394405Y0046383D01*
X0394500Y0046484D01*
X0394592Y0046588D01*
X0394681Y0046695D01*
X0394767Y0046803D01*
X0394850Y0046915D01*
X0394930Y0047028D01*
X0395595Y0048002D01*
X0395595Y0054694D02*
X0395595Y0062348D01*
X0395595Y0070002D01*
X0395595Y0076694D02*
X0393442Y0077848D01*
X0386353Y0079479D01*
X0383678Y0081098D02*
X0381749Y0083348D01*
X0383678Y0081098D02*
X0383769Y0080994D01*
X0383863Y0080893D01*
X0383960Y0080795D01*
X0384060Y0080699D01*
X0384162Y0080606D01*
X0384267Y0080516D01*
X0384375Y0080429D01*
X0384484Y0080344D01*
X0384596Y0080263D01*
X0384710Y0080185D01*
X0384827Y0080110D01*
X0384945Y0080039D01*
X0385065Y0079971D01*
X0385187Y0079906D01*
X0385311Y0079844D01*
X0385437Y0079786D01*
X0385564Y0079731D01*
X0385692Y0079680D01*
X0385822Y0079633D01*
X0385953Y0079589D01*
X0386085Y0079549D01*
X0386219Y0079512D01*
X0386353Y0079479D01*
X0388442Y0083348D02*
X0397095Y0083348D01*
X0401249Y0083348D01*
X0402249Y0081848D01*
X0382595Y0029348D02*
X0381862Y0029401D01*
X0381128Y0029436D01*
X0380394Y0029453D01*
X0379659Y0029452D01*
X0378925Y0029433D01*
X0378191Y0029396D01*
X0377458Y0029342D01*
X0376727Y0029269D01*
X0375998Y0029178D01*
X0375271Y0029070D01*
X0374547Y0028944D01*
X0373827Y0028800D01*
X0373110Y0028638D01*
X0372398Y0028460D01*
X0371689Y0028263D01*
X0370986Y0028050D01*
X0370289Y0027819D01*
X0369597Y0027571D01*
X0368912Y0027307D01*
X0368233Y0027026D01*
X0367561Y0026728D01*
X0366897Y0026414D01*
X0366241Y0026084D01*
X0365592Y0025738D01*
X0364953Y0025376D01*
X0364323Y0024998D01*
X0363702Y0024605D01*
X0363091Y0024198D01*
X0362490Y0023775D01*
X0361899Y0023338D01*
X0361320Y0022886D01*
X0360751Y0022421D01*
X0360194Y0021941D01*
X0359649Y0021448D01*
X0359117Y0020942D01*
X0358596Y0020423D01*
X0358089Y0019892D01*
X0357595Y0019348D01*
D35*
X0060095Y0071348D02*
X0060095Y0071694D01*
X0060095Y0122348D02*
X0060095Y0123002D01*
D36*
X0030095Y0127848D02*
X0030095Y0013848D01*
X0035595Y0195848D02*
X0357642Y0195848D01*
M02*
