G75*
%MOIN*%
%OFA0B0*%
%FSLAX25Y25*%
%IPPOS*%
%LPD*%
%AMOC8*
5,1,8,0,0,1.08239X$1,22.5*
%
%ADD10C,0.00000*%
%ADD11C,0.00300*%
%ADD12C,0.21000*%
%ADD13C,0.06000*%
%ADD14C,0.05709*%
%ADD15C,0.08850*%
%ADD16C,0.10050*%
%ADD17C,0.01969*%
%ADD18C,0.02800*%
%ADD19C,0.02400*%
%ADD20C,0.00591*%
D10*
X0022595Y0009348D02*
X0412516Y0009348D01*
X0412516Y0203167D01*
X0022595Y0203167D01*
X0022595Y0009348D01*
D11*
X0399543Y0179498D02*
X0402445Y0179498D01*
X0402445Y0181433D01*
X0401961Y0182445D02*
X0402445Y0182928D01*
X0402445Y0183896D01*
X0401961Y0184380D01*
X0401478Y0184380D01*
X0400994Y0183896D01*
X0400994Y0183412D01*
X0400994Y0183896D02*
X0400510Y0184380D01*
X0400026Y0184380D01*
X0399543Y0183896D01*
X0399543Y0182928D01*
X0400026Y0182445D01*
D12*
X0396595Y0159348D03*
X0067595Y0159348D03*
X0067595Y0024348D03*
D13*
X0209095Y0060848D03*
X0219095Y0060848D03*
X0229095Y0060848D03*
X0229095Y0070848D03*
X0219095Y0070848D03*
X0209095Y0070848D03*
X0247595Y0064848D03*
X0257595Y0064848D03*
X0257595Y0054848D03*
X0247595Y0054848D03*
X0247595Y0044848D03*
X0257595Y0044848D03*
X0257595Y0034848D03*
X0247595Y0034848D03*
X0247595Y0024848D03*
X0257595Y0024848D03*
X0226595Y0024848D03*
X0216595Y0024848D03*
X0216595Y0034848D03*
X0226595Y0034848D03*
X0226595Y0044848D03*
X0216595Y0044848D03*
X0196595Y0108848D03*
X0196595Y0118848D03*
X0127438Y0167065D03*
X0117595Y0167065D03*
X0107753Y0167065D03*
X0332595Y0134348D03*
X0342595Y0134348D03*
X0342595Y0124348D03*
X0332595Y0124348D03*
X0332595Y0114348D03*
X0342595Y0114348D03*
D14*
X0393579Y0109506D03*
X0393579Y0129191D03*
D15*
X0395595Y0062348D03*
D16*
X0385595Y0052348D03*
X0405595Y0052348D03*
X0405595Y0072348D03*
X0385595Y0072348D03*
D17*
X0309611Y0073848D02*
X0309613Y0073910D01*
X0309619Y0073973D01*
X0309629Y0074034D01*
X0309643Y0074095D01*
X0309660Y0074155D01*
X0309681Y0074214D01*
X0309707Y0074271D01*
X0309735Y0074326D01*
X0309767Y0074380D01*
X0309803Y0074431D01*
X0309841Y0074481D01*
X0309883Y0074527D01*
X0309927Y0074571D01*
X0309975Y0074612D01*
X0310024Y0074650D01*
X0310076Y0074684D01*
X0310130Y0074715D01*
X0310186Y0074743D01*
X0310244Y0074767D01*
X0310303Y0074788D01*
X0310363Y0074804D01*
X0310424Y0074817D01*
X0310486Y0074826D01*
X0310548Y0074831D01*
X0310611Y0074832D01*
X0310673Y0074829D01*
X0310735Y0074822D01*
X0310797Y0074811D01*
X0310857Y0074796D01*
X0310917Y0074778D01*
X0310975Y0074756D01*
X0311032Y0074730D01*
X0311087Y0074700D01*
X0311140Y0074667D01*
X0311191Y0074631D01*
X0311239Y0074592D01*
X0311285Y0074549D01*
X0311328Y0074504D01*
X0311368Y0074456D01*
X0311405Y0074406D01*
X0311439Y0074353D01*
X0311470Y0074299D01*
X0311496Y0074243D01*
X0311520Y0074185D01*
X0311539Y0074125D01*
X0311555Y0074065D01*
X0311567Y0074003D01*
X0311575Y0073942D01*
X0311579Y0073879D01*
X0311579Y0073817D01*
X0311575Y0073754D01*
X0311567Y0073693D01*
X0311555Y0073631D01*
X0311539Y0073571D01*
X0311520Y0073511D01*
X0311496Y0073453D01*
X0311470Y0073397D01*
X0311439Y0073343D01*
X0311405Y0073290D01*
X0311368Y0073240D01*
X0311328Y0073192D01*
X0311285Y0073147D01*
X0311239Y0073104D01*
X0311191Y0073065D01*
X0311140Y0073029D01*
X0311087Y0072996D01*
X0311032Y0072966D01*
X0310975Y0072940D01*
X0310917Y0072918D01*
X0310857Y0072900D01*
X0310797Y0072885D01*
X0310735Y0072874D01*
X0310673Y0072867D01*
X0310611Y0072864D01*
X0310548Y0072865D01*
X0310486Y0072870D01*
X0310424Y0072879D01*
X0310363Y0072892D01*
X0310303Y0072908D01*
X0310244Y0072929D01*
X0310186Y0072953D01*
X0310130Y0072981D01*
X0310076Y0073012D01*
X0310024Y0073046D01*
X0309975Y0073084D01*
X0309927Y0073125D01*
X0309883Y0073169D01*
X0309841Y0073215D01*
X0309803Y0073265D01*
X0309767Y0073316D01*
X0309735Y0073370D01*
X0309707Y0073425D01*
X0309681Y0073482D01*
X0309660Y0073541D01*
X0309643Y0073601D01*
X0309629Y0073662D01*
X0309619Y0073723D01*
X0309613Y0073786D01*
X0309611Y0073848D01*
X0085536Y0017087D02*
X0085538Y0017149D01*
X0085544Y0017212D01*
X0085554Y0017273D01*
X0085568Y0017334D01*
X0085585Y0017394D01*
X0085606Y0017453D01*
X0085632Y0017510D01*
X0085660Y0017565D01*
X0085692Y0017619D01*
X0085728Y0017670D01*
X0085766Y0017720D01*
X0085808Y0017766D01*
X0085852Y0017810D01*
X0085900Y0017851D01*
X0085949Y0017889D01*
X0086001Y0017923D01*
X0086055Y0017954D01*
X0086111Y0017982D01*
X0086169Y0018006D01*
X0086228Y0018027D01*
X0086288Y0018043D01*
X0086349Y0018056D01*
X0086411Y0018065D01*
X0086473Y0018070D01*
X0086536Y0018071D01*
X0086598Y0018068D01*
X0086660Y0018061D01*
X0086722Y0018050D01*
X0086782Y0018035D01*
X0086842Y0018017D01*
X0086900Y0017995D01*
X0086957Y0017969D01*
X0087012Y0017939D01*
X0087065Y0017906D01*
X0087116Y0017870D01*
X0087164Y0017831D01*
X0087210Y0017788D01*
X0087253Y0017743D01*
X0087293Y0017695D01*
X0087330Y0017645D01*
X0087364Y0017592D01*
X0087395Y0017538D01*
X0087421Y0017482D01*
X0087445Y0017424D01*
X0087464Y0017364D01*
X0087480Y0017304D01*
X0087492Y0017242D01*
X0087500Y0017181D01*
X0087504Y0017118D01*
X0087504Y0017056D01*
X0087500Y0016993D01*
X0087492Y0016932D01*
X0087480Y0016870D01*
X0087464Y0016810D01*
X0087445Y0016750D01*
X0087421Y0016692D01*
X0087395Y0016636D01*
X0087364Y0016582D01*
X0087330Y0016529D01*
X0087293Y0016479D01*
X0087253Y0016431D01*
X0087210Y0016386D01*
X0087164Y0016343D01*
X0087116Y0016304D01*
X0087065Y0016268D01*
X0087012Y0016235D01*
X0086957Y0016205D01*
X0086900Y0016179D01*
X0086842Y0016157D01*
X0086782Y0016139D01*
X0086722Y0016124D01*
X0086660Y0016113D01*
X0086598Y0016106D01*
X0086536Y0016103D01*
X0086473Y0016104D01*
X0086411Y0016109D01*
X0086349Y0016118D01*
X0086288Y0016131D01*
X0086228Y0016147D01*
X0086169Y0016168D01*
X0086111Y0016192D01*
X0086055Y0016220D01*
X0086001Y0016251D01*
X0085949Y0016285D01*
X0085900Y0016323D01*
X0085852Y0016364D01*
X0085808Y0016408D01*
X0085766Y0016454D01*
X0085728Y0016504D01*
X0085692Y0016555D01*
X0085660Y0016609D01*
X0085632Y0016664D01*
X0085606Y0016721D01*
X0085585Y0016780D01*
X0085568Y0016840D01*
X0085554Y0016901D01*
X0085544Y0016962D01*
X0085538Y0017025D01*
X0085536Y0017087D01*
X0066611Y0181348D02*
X0066613Y0181410D01*
X0066619Y0181473D01*
X0066629Y0181534D01*
X0066643Y0181595D01*
X0066660Y0181655D01*
X0066681Y0181714D01*
X0066707Y0181771D01*
X0066735Y0181826D01*
X0066767Y0181880D01*
X0066803Y0181931D01*
X0066841Y0181981D01*
X0066883Y0182027D01*
X0066927Y0182071D01*
X0066975Y0182112D01*
X0067024Y0182150D01*
X0067076Y0182184D01*
X0067130Y0182215D01*
X0067186Y0182243D01*
X0067244Y0182267D01*
X0067303Y0182288D01*
X0067363Y0182304D01*
X0067424Y0182317D01*
X0067486Y0182326D01*
X0067548Y0182331D01*
X0067611Y0182332D01*
X0067673Y0182329D01*
X0067735Y0182322D01*
X0067797Y0182311D01*
X0067857Y0182296D01*
X0067917Y0182278D01*
X0067975Y0182256D01*
X0068032Y0182230D01*
X0068087Y0182200D01*
X0068140Y0182167D01*
X0068191Y0182131D01*
X0068239Y0182092D01*
X0068285Y0182049D01*
X0068328Y0182004D01*
X0068368Y0181956D01*
X0068405Y0181906D01*
X0068439Y0181853D01*
X0068470Y0181799D01*
X0068496Y0181743D01*
X0068520Y0181685D01*
X0068539Y0181625D01*
X0068555Y0181565D01*
X0068567Y0181503D01*
X0068575Y0181442D01*
X0068579Y0181379D01*
X0068579Y0181317D01*
X0068575Y0181254D01*
X0068567Y0181193D01*
X0068555Y0181131D01*
X0068539Y0181071D01*
X0068520Y0181011D01*
X0068496Y0180953D01*
X0068470Y0180897D01*
X0068439Y0180843D01*
X0068405Y0180790D01*
X0068368Y0180740D01*
X0068328Y0180692D01*
X0068285Y0180647D01*
X0068239Y0180604D01*
X0068191Y0180565D01*
X0068140Y0180529D01*
X0068087Y0180496D01*
X0068032Y0180466D01*
X0067975Y0180440D01*
X0067917Y0180418D01*
X0067857Y0180400D01*
X0067797Y0180385D01*
X0067735Y0180374D01*
X0067673Y0180367D01*
X0067611Y0180364D01*
X0067548Y0180365D01*
X0067486Y0180370D01*
X0067424Y0180379D01*
X0067363Y0180392D01*
X0067303Y0180408D01*
X0067244Y0180429D01*
X0067186Y0180453D01*
X0067130Y0180481D01*
X0067076Y0180512D01*
X0067024Y0180546D01*
X0066975Y0180584D01*
X0066927Y0180625D01*
X0066883Y0180669D01*
X0066841Y0180715D01*
X0066803Y0180765D01*
X0066767Y0180816D01*
X0066735Y0180870D01*
X0066707Y0180925D01*
X0066681Y0180982D01*
X0066660Y0181041D01*
X0066643Y0181101D01*
X0066629Y0181162D01*
X0066619Y0181223D01*
X0066613Y0181286D01*
X0066611Y0181348D01*
X0404185Y0195793D02*
X0404187Y0195855D01*
X0404193Y0195918D01*
X0404203Y0195979D01*
X0404217Y0196040D01*
X0404234Y0196100D01*
X0404255Y0196159D01*
X0404281Y0196216D01*
X0404309Y0196271D01*
X0404341Y0196325D01*
X0404377Y0196376D01*
X0404415Y0196426D01*
X0404457Y0196472D01*
X0404501Y0196516D01*
X0404549Y0196557D01*
X0404598Y0196595D01*
X0404650Y0196629D01*
X0404704Y0196660D01*
X0404760Y0196688D01*
X0404818Y0196712D01*
X0404877Y0196733D01*
X0404937Y0196749D01*
X0404998Y0196762D01*
X0405060Y0196771D01*
X0405122Y0196776D01*
X0405185Y0196777D01*
X0405247Y0196774D01*
X0405309Y0196767D01*
X0405371Y0196756D01*
X0405431Y0196741D01*
X0405491Y0196723D01*
X0405549Y0196701D01*
X0405606Y0196675D01*
X0405661Y0196645D01*
X0405714Y0196612D01*
X0405765Y0196576D01*
X0405813Y0196537D01*
X0405859Y0196494D01*
X0405902Y0196449D01*
X0405942Y0196401D01*
X0405979Y0196351D01*
X0406013Y0196298D01*
X0406044Y0196244D01*
X0406070Y0196188D01*
X0406094Y0196130D01*
X0406113Y0196070D01*
X0406129Y0196010D01*
X0406141Y0195948D01*
X0406149Y0195887D01*
X0406153Y0195824D01*
X0406153Y0195762D01*
X0406149Y0195699D01*
X0406141Y0195638D01*
X0406129Y0195576D01*
X0406113Y0195516D01*
X0406094Y0195456D01*
X0406070Y0195398D01*
X0406044Y0195342D01*
X0406013Y0195288D01*
X0405979Y0195235D01*
X0405942Y0195185D01*
X0405902Y0195137D01*
X0405859Y0195092D01*
X0405813Y0195049D01*
X0405765Y0195010D01*
X0405714Y0194974D01*
X0405661Y0194941D01*
X0405606Y0194911D01*
X0405549Y0194885D01*
X0405491Y0194863D01*
X0405431Y0194845D01*
X0405371Y0194830D01*
X0405309Y0194819D01*
X0405247Y0194812D01*
X0405185Y0194809D01*
X0405122Y0194810D01*
X0405060Y0194815D01*
X0404998Y0194824D01*
X0404937Y0194837D01*
X0404877Y0194853D01*
X0404818Y0194874D01*
X0404760Y0194898D01*
X0404704Y0194926D01*
X0404650Y0194957D01*
X0404598Y0194991D01*
X0404549Y0195029D01*
X0404501Y0195070D01*
X0404457Y0195114D01*
X0404415Y0195160D01*
X0404377Y0195210D01*
X0404341Y0195261D01*
X0404309Y0195315D01*
X0404281Y0195370D01*
X0404255Y0195427D01*
X0404234Y0195486D01*
X0404217Y0195546D01*
X0404203Y0195607D01*
X0404193Y0195668D01*
X0404187Y0195731D01*
X0404185Y0195793D01*
D18*
X0361095Y0165848D03*
X0360095Y0161848D03*
X0371095Y0165348D03*
X0377095Y0165348D03*
X0367095Y0154348D03*
X0380595Y0150848D03*
X0398095Y0141348D03*
X0388095Y0126848D03*
X0388595Y0122348D03*
X0385595Y0118848D03*
X0388595Y0115848D03*
X0388095Y0105848D03*
X0389595Y0095848D03*
X0392355Y0088848D03*
X0397095Y0083348D03*
X0406095Y0087348D03*
X0364595Y0085848D03*
X0352595Y0082848D03*
X0352595Y0092848D03*
X0328095Y0080348D03*
X0327595Y0076348D03*
X0327595Y0068848D03*
X0327595Y0056848D03*
X0328095Y0052348D03*
X0328095Y0048348D03*
X0323095Y0043348D03*
X0317595Y0044348D03*
X0305595Y0044348D03*
X0301595Y0045848D03*
X0298095Y0043348D03*
X0294595Y0045848D03*
X0291095Y0043348D03*
X0287595Y0046348D03*
X0283595Y0044848D03*
X0277595Y0046848D03*
X0272095Y0041348D03*
X0275095Y0037848D03*
X0269595Y0029848D03*
X0264595Y0034848D03*
X0264095Y0045848D03*
X0276595Y0052348D03*
X0287095Y0050848D03*
X0265895Y0063648D03*
X0264095Y0067348D03*
X0266595Y0070848D03*
X0281595Y0071348D03*
X0288095Y0066348D03*
X0295095Y0076848D03*
X0300095Y0089348D03*
X0292095Y0094848D03*
X0288095Y0094848D03*
X0297595Y0104348D03*
X0307595Y0104348D03*
X0319595Y0104348D03*
X0320095Y0109348D03*
X0315595Y0121348D03*
X0310595Y0130348D03*
X0311095Y0134848D03*
X0327095Y0137848D03*
X0307595Y0143348D03*
X0296095Y0135348D03*
X0285095Y0134348D03*
X0281095Y0134348D03*
X0292095Y0125848D03*
X0297595Y0121348D03*
X0294595Y0117348D03*
X0285595Y0111671D03*
X0277595Y0122348D03*
X0269095Y0122348D03*
X0261095Y0117848D03*
X0269095Y0113348D03*
X0262595Y0109848D03*
X0254095Y0107348D03*
X0251095Y0110348D03*
X0256595Y0101348D03*
X0254095Y0097848D03*
X0248095Y0097848D03*
X0263595Y0091348D03*
X0266595Y0088348D03*
X0266595Y0084348D03*
X0266595Y0080348D03*
X0239095Y0080348D03*
X0222595Y0086848D03*
X0214095Y0082710D03*
X0205095Y0083348D03*
X0203095Y0075848D03*
X0191595Y0074848D03*
X0179095Y0071348D03*
X0179095Y0081348D03*
X0179095Y0087348D03*
X0191595Y0083348D03*
X0200095Y0090848D03*
X0206095Y0090848D03*
X0195595Y0095348D03*
X0193595Y0098848D03*
X0197095Y0100848D03*
X0206595Y0098348D03*
X0210095Y0100848D03*
X0228595Y0101348D03*
X0228095Y0115848D03*
X0223595Y0119348D03*
X0218095Y0118848D03*
X0212095Y0116848D03*
X0241095Y0134348D03*
X0248595Y0139848D03*
X0257595Y0149348D03*
X0246095Y0152848D03*
X0240095Y0156848D03*
X0229095Y0160848D03*
X0225595Y0145348D03*
X0211595Y0145348D03*
X0210095Y0137348D03*
X0200595Y0137348D03*
X0165095Y0152348D03*
X0161095Y0155348D03*
X0157095Y0152348D03*
X0153595Y0155348D03*
X0149595Y0152348D03*
X0145595Y0155348D03*
X0141595Y0152348D03*
X0138095Y0155348D03*
X0133095Y0152348D03*
X0120095Y0152348D03*
X0110095Y0143848D03*
X0135095Y0139848D03*
X0182595Y0162848D03*
X0188595Y0162848D03*
X0185595Y0165848D03*
X0191595Y0165848D03*
X0252595Y0159848D03*
X0279095Y0146348D03*
X0270095Y0144348D03*
X0289595Y0150848D03*
X0304595Y0156848D03*
X0336595Y0152848D03*
X0354595Y0130348D03*
X0317095Y0095348D03*
X0313095Y0094848D03*
X0321595Y0094348D03*
X0325595Y0084348D03*
X0364595Y0068848D03*
X0360595Y0057848D03*
X0360595Y0053848D03*
X0369595Y0047848D03*
X0383595Y0040848D03*
X0377095Y0035348D03*
X0357095Y0036848D03*
X0350095Y0027348D03*
X0353595Y0023348D03*
X0365095Y0015348D03*
X0387595Y0014848D03*
X0407595Y0014848D03*
X0397595Y0029348D03*
X0407595Y0043348D03*
X0342095Y0051348D03*
X0338595Y0049348D03*
X0330595Y0034848D03*
X0326595Y0030848D03*
X0323095Y0027348D03*
X0317595Y0026848D03*
X0310095Y0029848D03*
X0322095Y0033348D03*
X0336595Y0021348D03*
X0325729Y0019084D03*
X0320595Y0019348D03*
X0315595Y0019348D03*
X0310595Y0019348D03*
X0286595Y0027348D03*
X0239095Y0046348D03*
X0211595Y0031348D03*
X0200595Y0024348D03*
X0186595Y0029848D03*
X0187095Y0033848D03*
X0180595Y0029848D03*
X0174095Y0033348D03*
X0173638Y0027348D03*
X0164095Y0027348D03*
X0160595Y0022848D03*
X0163595Y0019848D03*
X0167595Y0015348D03*
X0162595Y0012848D03*
X0157595Y0012848D03*
X0149224Y0012848D03*
X0150095Y0027348D03*
X0150095Y0031848D03*
X0160595Y0036348D03*
X0174595Y0041348D03*
X0164544Y0046848D03*
X0149595Y0056348D03*
X0163095Y0058348D03*
X0143595Y0039848D03*
X0118095Y0031848D03*
X0097095Y0014348D03*
X0044359Y0027898D03*
X0036481Y0028066D03*
X0040393Y0042944D03*
X0048215Y0042804D03*
X0044419Y0058031D03*
X0055095Y0063848D03*
X0056595Y0071348D03*
X0048349Y0072938D03*
X0053595Y0077348D03*
X0082095Y0077348D03*
X0084095Y0066348D03*
X0103595Y0052848D03*
X0030095Y0013848D03*
X0040670Y0013323D03*
X0193595Y0033848D03*
X0205595Y0051348D03*
X0266095Y0097348D03*
X0250095Y0126848D03*
X0083595Y0128848D03*
X0083595Y0116848D03*
X0074095Y0107348D03*
X0055095Y0116848D03*
X0056595Y0122348D03*
X0049188Y0116494D03*
X0055595Y0128848D03*
X0046156Y0129477D03*
X0042913Y0144399D03*
X0039280Y0159377D03*
X0047843Y0159414D03*
X0044396Y0174428D03*
X0035897Y0174412D03*
X0032662Y0189434D03*
X0040716Y0189576D03*
X0035595Y0195848D03*
D19*
X0051414Y0174348D02*
X0060734Y0174348D01*
X0061089Y0173993D01*
X0074101Y0173993D01*
X0074457Y0174348D01*
X0409316Y0174348D01*
X0409316Y0135887D01*
X0409158Y0136105D01*
X0409091Y0136115D01*
X0409074Y0136181D01*
X0408750Y0136368D01*
X0408472Y0136618D01*
X0408405Y0136614D01*
X0408374Y0136674D01*
X0408018Y0136790D01*
X0407695Y0136977D01*
X0407629Y0136959D01*
X0407587Y0137012D01*
X0407215Y0137051D01*
X0406859Y0137167D01*
X0406793Y0137133D01*
X0406438Y0137133D01*
X0406003Y0137178D01*
X0405946Y0137133D01*
X0402472Y0137133D01*
X0402416Y0137178D01*
X0401981Y0137133D01*
X0401626Y0137133D01*
X0401559Y0137167D01*
X0401204Y0137051D01*
X0400832Y0137012D01*
X0400789Y0136959D01*
X0400724Y0136977D01*
X0400400Y0136790D01*
X0400045Y0136674D01*
X0400014Y0136614D01*
X0399946Y0136618D01*
X0399669Y0136368D01*
X0399345Y0136181D01*
X0399327Y0136115D01*
X0399260Y0136105D01*
X0399041Y0135802D01*
X0398763Y0135552D01*
X0398759Y0135485D01*
X0398696Y0135460D01*
X0398544Y0135119D01*
X0398324Y0134816D01*
X0398335Y0134749D01*
X0398278Y0134713D01*
X0398200Y0134347D01*
X0398048Y0134005D01*
X0398073Y0133942D01*
X0398025Y0133894D01*
X0398025Y0133520D01*
X0397980Y0133308D01*
X0396991Y0134296D01*
X0394777Y0135213D01*
X0392381Y0135213D01*
X0390168Y0134296D01*
X0388473Y0132602D01*
X0387557Y0130389D01*
X0387557Y0127993D01*
X0388002Y0126917D01*
X0387686Y0126917D01*
X0386007Y0126221D01*
X0384722Y0124936D01*
X0384027Y0123257D01*
X0384027Y0123143D01*
X0383007Y0122721D01*
X0381722Y0121436D01*
X0381027Y0119757D01*
X0381027Y0117939D01*
X0381722Y0116260D01*
X0383007Y0114975D01*
X0384220Y0114473D01*
X0384722Y0113260D01*
X0386007Y0111975D01*
X0387686Y0111280D01*
X0387795Y0111280D01*
X0387557Y0110704D01*
X0387557Y0110417D01*
X0387186Y0110417D01*
X0385507Y0109721D01*
X0384222Y0108436D01*
X0383527Y0106757D01*
X0383527Y0104939D01*
X0384222Y0103260D01*
X0385507Y0101975D01*
X0387186Y0101280D01*
X0389004Y0101280D01*
X0390683Y0101975D01*
X0391968Y0103260D01*
X0392107Y0103596D01*
X0392381Y0103483D01*
X0394777Y0103483D01*
X0396991Y0104400D01*
X0397980Y0105388D01*
X0398025Y0105176D01*
X0398025Y0104802D01*
X0398073Y0104754D01*
X0398048Y0104691D01*
X0398200Y0104349D01*
X0398278Y0103983D01*
X0398335Y0103947D01*
X0398324Y0103880D01*
X0398544Y0103577D01*
X0398696Y0103236D01*
X0398759Y0103212D01*
X0398763Y0103144D01*
X0399041Y0102894D01*
X0399260Y0102591D01*
X0399327Y0102581D01*
X0399345Y0102516D01*
X0399669Y0102329D01*
X0399946Y0102078D01*
X0400014Y0102082D01*
X0400045Y0102022D01*
X0400400Y0101906D01*
X0400724Y0101719D01*
X0400789Y0101737D01*
X0400832Y0101684D01*
X0401204Y0101645D01*
X0401559Y0101529D01*
X0401626Y0101563D01*
X0401981Y0101563D01*
X0402416Y0101518D01*
X0402472Y0101563D01*
X0405946Y0101563D01*
X0406003Y0101518D01*
X0406438Y0101563D01*
X0406793Y0101563D01*
X0406859Y0101529D01*
X0407215Y0101645D01*
X0407587Y0101684D01*
X0407629Y0101737D01*
X0407695Y0101719D01*
X0408018Y0101906D01*
X0408374Y0102022D01*
X0408405Y0102082D01*
X0408472Y0102078D01*
X0408750Y0102329D01*
X0409074Y0102516D01*
X0409091Y0102581D01*
X0409158Y0102591D01*
X0409316Y0102809D01*
X0409316Y0078297D01*
X0408703Y0078651D01*
X0407854Y0079003D01*
X0406966Y0079240D01*
X0406070Y0079358D01*
X0406070Y0072823D01*
X0405120Y0072823D01*
X0405120Y0071873D01*
X0398585Y0071873D01*
X0398702Y0070985D01*
X0397419Y0071516D01*
X0393771Y0071516D01*
X0392489Y0070985D01*
X0392605Y0071873D01*
X0386070Y0071873D01*
X0386070Y0065338D01*
X0386958Y0065455D01*
X0386427Y0064172D01*
X0386427Y0060524D01*
X0386958Y0059241D01*
X0386070Y0059358D01*
X0386070Y0052823D01*
X0385120Y0052823D01*
X0385120Y0051873D01*
X0378585Y0051873D01*
X0378703Y0050977D01*
X0378941Y0050089D01*
X0379292Y0049240D01*
X0379752Y0048444D01*
X0380312Y0047715D01*
X0380962Y0047065D01*
X0381691Y0046505D01*
X0382487Y0046045D01*
X0383336Y0045694D01*
X0384224Y0045456D01*
X0385120Y0045338D01*
X0385120Y0051873D01*
X0386070Y0051873D01*
X0386070Y0045338D01*
X0386966Y0045456D01*
X0387854Y0045694D01*
X0388703Y0046045D01*
X0389499Y0046505D01*
X0390229Y0047065D01*
X0390879Y0047715D01*
X0391438Y0048444D01*
X0391898Y0049240D01*
X0392250Y0050089D01*
X0392488Y0050977D01*
X0392605Y0051873D01*
X0386070Y0051873D01*
X0386070Y0052823D01*
X0392605Y0052823D01*
X0392489Y0053711D01*
X0393771Y0053180D01*
X0397419Y0053180D01*
X0398702Y0053711D01*
X0398585Y0052823D01*
X0405120Y0052823D01*
X0405120Y0051873D01*
X0398585Y0051873D01*
X0398703Y0050977D01*
X0398941Y0050089D01*
X0399292Y0049240D01*
X0399752Y0048444D01*
X0400312Y0047715D01*
X0400962Y0047065D01*
X0401691Y0046505D01*
X0402487Y0046045D01*
X0403336Y0045694D01*
X0404224Y0045456D01*
X0405120Y0045338D01*
X0405120Y0051873D01*
X0406070Y0051873D01*
X0406070Y0045338D01*
X0406966Y0045456D01*
X0407854Y0045694D01*
X0408703Y0046045D01*
X0409316Y0046399D01*
X0409316Y0012548D01*
X0171256Y0012548D01*
X0171468Y0012760D01*
X0172164Y0014439D01*
X0172164Y0016257D01*
X0171468Y0017936D01*
X0170183Y0019221D01*
X0168504Y0019917D01*
X0168164Y0019917D01*
X0168164Y0020757D01*
X0167468Y0022436D01*
X0166503Y0023401D01*
X0166683Y0023475D01*
X0167968Y0024760D01*
X0168664Y0026439D01*
X0168664Y0028257D01*
X0167968Y0029936D01*
X0166683Y0031221D01*
X0165004Y0031917D01*
X0163186Y0031917D01*
X0161507Y0031221D01*
X0160222Y0029936D01*
X0159527Y0028257D01*
X0159527Y0027350D01*
X0158007Y0026721D01*
X0156722Y0025436D01*
X0156027Y0023757D01*
X0156027Y0021939D01*
X0156722Y0020260D01*
X0158007Y0018975D01*
X0159220Y0018473D01*
X0159722Y0017260D01*
X0160187Y0016795D01*
X0160007Y0016721D01*
X0158722Y0015436D01*
X0158027Y0013757D01*
X0158027Y0012548D01*
X0153793Y0012548D01*
X0153793Y0013757D01*
X0153097Y0015436D01*
X0151812Y0016721D01*
X0150133Y0017417D01*
X0148316Y0017417D01*
X0146637Y0016721D01*
X0145351Y0015436D01*
X0144656Y0013757D01*
X0144656Y0012548D01*
X0093876Y0012548D01*
X0093876Y0023593D01*
X0093026Y0024442D01*
X0080014Y0024442D01*
X0079165Y0023593D01*
X0079165Y0023148D01*
X0068795Y0023148D01*
X0068795Y0025548D01*
X0066395Y0025548D01*
X0066395Y0023148D01*
X0055164Y0023148D01*
X0055265Y0022253D01*
X0055577Y0020886D01*
X0056040Y0019562D01*
X0056649Y0018298D01*
X0057395Y0017111D01*
X0058269Y0016014D01*
X0059261Y0015022D01*
X0060358Y0014148D01*
X0061545Y0013402D01*
X0062809Y0012793D01*
X0063509Y0012548D01*
X0051414Y0012548D01*
X0051414Y0049661D01*
X0055569Y0065205D01*
X0057817Y0065205D01*
X0060075Y0066140D01*
X0061803Y0067868D01*
X0062738Y0070126D01*
X0062738Y0072570D01*
X0061803Y0074828D01*
X0060075Y0076556D01*
X0057817Y0077491D01*
X0055373Y0077491D01*
X0053115Y0076556D01*
X0053072Y0076513D01*
X0052967Y0076527D01*
X0051414Y0076129D01*
X0051414Y0117826D01*
X0052922Y0117333D01*
X0053115Y0117140D01*
X0055373Y0116205D01*
X0057817Y0116205D01*
X0060075Y0117140D01*
X0061803Y0118868D01*
X0062738Y0121126D01*
X0062738Y0123570D01*
X0061803Y0125828D01*
X0060075Y0127556D01*
X0057817Y0128491D01*
X0055563Y0128491D01*
X0051414Y0147362D01*
X0051414Y0174348D01*
X0051414Y0172447D02*
X0114470Y0172447D01*
X0114101Y0172294D02*
X0112366Y0170559D01*
X0112007Y0169693D01*
X0111557Y0170314D01*
X0111002Y0170869D01*
X0110367Y0171330D01*
X0109667Y0171687D01*
X0108921Y0171929D01*
X0108145Y0172052D01*
X0107753Y0172052D01*
X0107753Y0167065D01*
X0107753Y0167065D01*
X0107753Y0172052D01*
X0107360Y0172052D01*
X0106585Y0171929D01*
X0105838Y0171687D01*
X0105139Y0171330D01*
X0104504Y0170869D01*
X0103948Y0170314D01*
X0103487Y0169679D01*
X0103131Y0168979D01*
X0102888Y0168232D01*
X0102765Y0167457D01*
X0102765Y0167065D01*
X0107752Y0167065D01*
X0107752Y0167064D01*
X0102765Y0167064D01*
X0102765Y0166672D01*
X0102888Y0165897D01*
X0103131Y0165150D01*
X0103487Y0164451D01*
X0103948Y0163815D01*
X0104504Y0163260D01*
X0105139Y0162799D01*
X0105838Y0162443D01*
X0106585Y0162200D01*
X0107360Y0162077D01*
X0107753Y0162077D01*
X0108145Y0162077D01*
X0108921Y0162200D01*
X0109667Y0162443D01*
X0110367Y0162799D01*
X0111002Y0163260D01*
X0111557Y0163815D01*
X0112007Y0164436D01*
X0112366Y0163570D01*
X0114101Y0161835D01*
X0116368Y0160896D01*
X0118822Y0160896D01*
X0121089Y0161835D01*
X0122516Y0163262D01*
X0123943Y0161835D01*
X0126211Y0160896D01*
X0128665Y0160896D01*
X0130932Y0161835D01*
X0132667Y0163570D01*
X0133606Y0165838D01*
X0133606Y0168292D01*
X0132667Y0170559D01*
X0130932Y0172294D01*
X0128665Y0173233D01*
X0126211Y0173233D01*
X0123943Y0172294D01*
X0122516Y0170867D01*
X0121089Y0172294D01*
X0118822Y0173233D01*
X0116368Y0173233D01*
X0114101Y0172294D01*
X0112154Y0170048D02*
X0111750Y0170048D01*
X0107753Y0170048D02*
X0107753Y0170048D01*
X0107753Y0167650D02*
X0107753Y0167650D01*
X0107753Y0167064D02*
X0107753Y0162077D01*
X0107753Y0167064D01*
X0107753Y0167064D01*
X0107753Y0165251D02*
X0107753Y0165251D01*
X0107753Y0162853D02*
X0107753Y0162853D01*
X0110441Y0162853D02*
X0113083Y0162853D01*
X0117507Y0156221D02*
X0119186Y0156917D01*
X0121004Y0156917D01*
X0122683Y0156221D01*
X0123968Y0154936D01*
X0124664Y0153257D01*
X0124664Y0151439D01*
X0123968Y0149760D01*
X0122683Y0148475D01*
X0121004Y0147780D01*
X0119186Y0147780D01*
X0117507Y0148475D01*
X0116222Y0149760D01*
X0115527Y0151439D01*
X0115527Y0153257D01*
X0116222Y0154936D01*
X0117507Y0156221D01*
X0116943Y0155657D02*
X0079533Y0155657D01*
X0079613Y0155886D02*
X0079925Y0157253D01*
X0080026Y0158148D01*
X0068795Y0158148D01*
X0068795Y0146917D01*
X0069690Y0147018D01*
X0071058Y0147330D01*
X0072381Y0147793D01*
X0073645Y0148402D01*
X0074833Y0149148D01*
X0075929Y0150022D01*
X0076921Y0151014D01*
X0077795Y0152111D01*
X0078542Y0153298D01*
X0079150Y0154562D01*
X0079613Y0155886D01*
X0080016Y0158056D02*
X0134342Y0158056D01*
X0134222Y0157936D02*
X0133800Y0156917D01*
X0132186Y0156917D01*
X0130507Y0156221D01*
X0129222Y0154936D01*
X0128527Y0153257D01*
X0128527Y0151439D01*
X0129222Y0149760D01*
X0130507Y0148475D01*
X0132186Y0147780D01*
X0134004Y0147780D01*
X0135683Y0148475D01*
X0136968Y0149760D01*
X0137345Y0150670D01*
X0137722Y0149760D01*
X0139007Y0148475D01*
X0140686Y0147780D01*
X0142504Y0147780D01*
X0144183Y0148475D01*
X0145468Y0149760D01*
X0145595Y0150067D01*
X0145722Y0149760D01*
X0147007Y0148475D01*
X0148686Y0147780D01*
X0150504Y0147780D01*
X0152183Y0148475D01*
X0153345Y0149637D01*
X0154507Y0148475D01*
X0156186Y0147780D01*
X0158004Y0147780D01*
X0159683Y0148475D01*
X0160968Y0149760D01*
X0161095Y0150067D01*
X0161222Y0149760D01*
X0162507Y0148475D01*
X0164186Y0147780D01*
X0166004Y0147780D01*
X0167683Y0148475D01*
X0168968Y0149760D01*
X0169664Y0151439D01*
X0169664Y0153257D01*
X0168968Y0154936D01*
X0167683Y0156221D01*
X0166004Y0156917D01*
X0165390Y0156917D01*
X0164968Y0157936D01*
X0163683Y0159221D01*
X0162004Y0159917D01*
X0160186Y0159917D01*
X0158507Y0159221D01*
X0157345Y0158059D01*
X0156183Y0159221D01*
X0154504Y0159917D01*
X0152686Y0159917D01*
X0151007Y0159221D01*
X0149722Y0157936D01*
X0149595Y0157629D01*
X0149468Y0157936D01*
X0148183Y0159221D01*
X0146504Y0159917D01*
X0144686Y0159917D01*
X0143007Y0159221D01*
X0141845Y0158059D01*
X0140683Y0159221D01*
X0139004Y0159917D01*
X0137186Y0159917D01*
X0135507Y0159221D01*
X0134222Y0157936D01*
X0129943Y0155657D02*
X0123247Y0155657D01*
X0124663Y0153259D02*
X0128527Y0153259D01*
X0128766Y0150860D02*
X0124424Y0150860D01*
X0122651Y0148462D02*
X0130540Y0148462D01*
X0135651Y0148462D02*
X0139040Y0148462D01*
X0137683Y0143721D02*
X0136004Y0144417D01*
X0134186Y0144417D01*
X0132507Y0143721D01*
X0131222Y0142436D01*
X0130527Y0140757D01*
X0130527Y0138939D01*
X0131222Y0137260D01*
X0132507Y0135975D01*
X0134186Y0135280D01*
X0136004Y0135280D01*
X0137683Y0135975D01*
X0138968Y0137260D01*
X0139664Y0138939D01*
X0139664Y0140757D01*
X0138968Y0142436D01*
X0137683Y0143721D01*
X0137739Y0143665D02*
X0221347Y0143665D01*
X0221027Y0144439D02*
X0221722Y0142760D01*
X0223007Y0141475D01*
X0224686Y0140780D01*
X0226504Y0140780D01*
X0228183Y0141475D01*
X0229468Y0142760D01*
X0230164Y0144439D01*
X0230164Y0146257D01*
X0229468Y0147936D01*
X0228183Y0149221D01*
X0226504Y0149917D01*
X0224686Y0149917D01*
X0223007Y0149221D01*
X0221722Y0147936D01*
X0221027Y0146257D01*
X0221027Y0144439D01*
X0221027Y0146063D02*
X0051700Y0146063D01*
X0051414Y0148462D02*
X0061449Y0148462D01*
X0061545Y0148402D02*
X0062809Y0147793D01*
X0064133Y0147330D01*
X0065500Y0147018D01*
X0066395Y0146917D01*
X0066395Y0158148D01*
X0055164Y0158148D01*
X0055265Y0157253D01*
X0055577Y0155886D01*
X0056040Y0154562D01*
X0056649Y0153298D01*
X0057395Y0152111D01*
X0058269Y0151014D01*
X0059261Y0150022D01*
X0060358Y0149148D01*
X0061545Y0148402D01*
X0058423Y0150860D02*
X0051414Y0150860D01*
X0051414Y0153259D02*
X0056673Y0153259D01*
X0055657Y0155657D02*
X0051414Y0155657D01*
X0051414Y0158056D02*
X0055174Y0158056D01*
X0055164Y0160548D02*
X0066395Y0160548D01*
X0066395Y0158148D01*
X0068795Y0158148D01*
X0068795Y0160548D01*
X0066395Y0160548D01*
X0066395Y0171779D01*
X0065500Y0171678D01*
X0064133Y0171366D01*
X0062809Y0170903D01*
X0061545Y0170295D01*
X0060358Y0169548D01*
X0059261Y0168674D01*
X0058269Y0167682D01*
X0057395Y0166586D01*
X0056649Y0165398D01*
X0056040Y0164134D01*
X0055577Y0162810D01*
X0055265Y0161443D01*
X0055164Y0160548D01*
X0055592Y0162853D02*
X0051414Y0162853D01*
X0051414Y0165251D02*
X0056578Y0165251D01*
X0058244Y0167650D02*
X0051414Y0167650D01*
X0051414Y0170048D02*
X0061153Y0170048D01*
X0066395Y0170048D02*
X0068795Y0170048D01*
X0068795Y0171779D02*
X0069690Y0171678D01*
X0071058Y0171366D01*
X0072381Y0170903D01*
X0073645Y0170295D01*
X0074833Y0169548D01*
X0075929Y0168674D01*
X0076921Y0167682D01*
X0077795Y0166586D01*
X0078542Y0165398D01*
X0079150Y0164134D01*
X0079613Y0162810D01*
X0079925Y0161443D01*
X0080026Y0160548D01*
X0068795Y0160548D01*
X0068795Y0171779D01*
X0074037Y0170048D02*
X0103756Y0170048D01*
X0102796Y0167650D02*
X0076947Y0167650D01*
X0078612Y0165251D02*
X0103098Y0165251D01*
X0105065Y0162853D02*
X0079599Y0162853D01*
X0068795Y0162853D02*
X0066395Y0162853D01*
X0066395Y0165251D02*
X0068795Y0165251D01*
X0068795Y0167650D02*
X0066395Y0167650D01*
X0066395Y0160454D02*
X0051414Y0160454D01*
X0066395Y0158056D02*
X0068795Y0158056D01*
X0068795Y0160454D02*
X0178642Y0160454D01*
X0178722Y0160260D02*
X0180007Y0158975D01*
X0181686Y0158280D01*
X0183504Y0158280D01*
X0185183Y0158975D01*
X0185595Y0159387D01*
X0186007Y0158975D01*
X0187686Y0158280D01*
X0189504Y0158280D01*
X0191183Y0158975D01*
X0192468Y0160260D01*
X0192970Y0161473D01*
X0194183Y0161975D01*
X0195468Y0163260D01*
X0196164Y0164939D01*
X0196164Y0166757D01*
X0195468Y0168436D01*
X0194183Y0169721D01*
X0192504Y0170417D01*
X0190686Y0170417D01*
X0189007Y0169721D01*
X0188595Y0169309D01*
X0188183Y0169721D01*
X0186504Y0170417D01*
X0184686Y0170417D01*
X0183007Y0169721D01*
X0181722Y0168436D01*
X0181220Y0167223D01*
X0180007Y0166721D01*
X0178722Y0165436D01*
X0178027Y0163757D01*
X0178027Y0161939D01*
X0178722Y0160260D01*
X0178027Y0162853D02*
X0131949Y0162853D01*
X0133363Y0165251D02*
X0178646Y0165251D01*
X0181397Y0167650D02*
X0133606Y0167650D01*
X0132878Y0170048D02*
X0183797Y0170048D01*
X0187393Y0170048D02*
X0189797Y0170048D01*
X0193393Y0170048D02*
X0359297Y0170048D01*
X0358507Y0169721D02*
X0357222Y0168436D01*
X0356527Y0166757D01*
X0356527Y0164939D01*
X0356585Y0164799D01*
X0356222Y0164436D01*
X0355527Y0162757D01*
X0355527Y0160939D01*
X0356222Y0159260D01*
X0357507Y0157975D01*
X0359186Y0157280D01*
X0361004Y0157280D01*
X0362683Y0157975D01*
X0363968Y0159260D01*
X0364664Y0160939D01*
X0364664Y0162757D01*
X0364605Y0162897D01*
X0364968Y0163260D01*
X0365664Y0164939D01*
X0365664Y0166757D01*
X0364968Y0168436D01*
X0363683Y0169721D01*
X0362004Y0170417D01*
X0360186Y0170417D01*
X0358507Y0169721D01*
X0356897Y0167650D02*
X0195794Y0167650D01*
X0196164Y0165251D02*
X0227787Y0165251D01*
X0228186Y0165417D02*
X0226507Y0164721D01*
X0225222Y0163436D01*
X0224527Y0161757D01*
X0224527Y0159939D01*
X0225222Y0158260D01*
X0226507Y0156975D01*
X0228186Y0156280D01*
X0230004Y0156280D01*
X0231683Y0156975D01*
X0232968Y0158260D01*
X0233664Y0159939D01*
X0233664Y0161757D01*
X0232968Y0163436D01*
X0231683Y0164721D01*
X0230004Y0165417D01*
X0228186Y0165417D01*
X0230403Y0165251D02*
X0356527Y0165251D01*
X0355566Y0162853D02*
X0256051Y0162853D01*
X0256468Y0162436D02*
X0255183Y0163721D01*
X0253504Y0164417D01*
X0251686Y0164417D01*
X0250007Y0163721D01*
X0248722Y0162436D01*
X0248027Y0160757D01*
X0248027Y0158939D01*
X0248722Y0157260D01*
X0250007Y0155975D01*
X0251686Y0155280D01*
X0253504Y0155280D01*
X0255183Y0155975D01*
X0256468Y0157260D01*
X0257164Y0158939D01*
X0257164Y0160757D01*
X0256468Y0162436D01*
X0257164Y0160454D02*
X0301741Y0160454D01*
X0302007Y0160721D02*
X0300722Y0159436D01*
X0300027Y0157757D01*
X0300027Y0155939D01*
X0300722Y0154260D01*
X0302007Y0152975D01*
X0303686Y0152280D01*
X0305504Y0152280D01*
X0307183Y0152975D01*
X0308468Y0154260D01*
X0309164Y0155939D01*
X0309164Y0157757D01*
X0308468Y0159436D01*
X0307183Y0160721D01*
X0305504Y0161417D01*
X0303686Y0161417D01*
X0302007Y0160721D01*
X0300150Y0158056D02*
X0256798Y0158056D01*
X0254416Y0155657D02*
X0300143Y0155657D01*
X0301724Y0153259D02*
X0260092Y0153259D01*
X0260183Y0153221D02*
X0258504Y0153917D01*
X0256686Y0153917D01*
X0255007Y0153221D01*
X0253722Y0151936D01*
X0253027Y0150257D01*
X0253027Y0148439D01*
X0253722Y0146760D01*
X0255007Y0145475D01*
X0256686Y0144780D01*
X0258504Y0144780D01*
X0260183Y0145475D01*
X0261468Y0146760D01*
X0262164Y0148439D01*
X0262164Y0150257D01*
X0261468Y0151936D01*
X0260183Y0153221D01*
X0261914Y0150860D02*
X0278050Y0150860D01*
X0278186Y0150917D02*
X0276507Y0150221D01*
X0275222Y0148936D01*
X0274527Y0147257D01*
X0274527Y0145439D01*
X0275222Y0143760D01*
X0276507Y0142475D01*
X0278186Y0141780D01*
X0280004Y0141780D01*
X0281683Y0142475D01*
X0282968Y0143760D01*
X0283664Y0145439D01*
X0283664Y0147257D01*
X0282968Y0148936D01*
X0281683Y0150221D01*
X0280004Y0150917D01*
X0278186Y0150917D01*
X0280140Y0150860D02*
X0332474Y0150860D01*
X0332722Y0150260D02*
X0332027Y0151939D01*
X0332027Y0153757D01*
X0332722Y0155436D01*
X0334007Y0156721D01*
X0335686Y0157417D01*
X0337504Y0157417D01*
X0339183Y0156721D01*
X0340468Y0155436D01*
X0341164Y0153757D01*
X0341164Y0151939D01*
X0340468Y0150260D01*
X0339183Y0148975D01*
X0337504Y0148280D01*
X0335686Y0148280D01*
X0334007Y0148975D01*
X0332722Y0150260D01*
X0332027Y0153259D02*
X0307467Y0153259D01*
X0309047Y0155657D02*
X0332943Y0155657D01*
X0340247Y0155657D02*
X0362693Y0155657D01*
X0362527Y0155257D02*
X0362527Y0153439D01*
X0363222Y0151760D01*
X0364507Y0150475D01*
X0366186Y0149780D01*
X0368004Y0149780D01*
X0369683Y0150475D01*
X0370968Y0151760D01*
X0371664Y0153439D01*
X0371664Y0155257D01*
X0370968Y0156936D01*
X0369683Y0158221D01*
X0368004Y0158917D01*
X0366186Y0158917D01*
X0364507Y0158221D01*
X0363222Y0156936D01*
X0362527Y0155257D01*
X0362601Y0153259D02*
X0341164Y0153259D01*
X0340717Y0150860D02*
X0364122Y0150860D01*
X0370068Y0150860D02*
X0376027Y0150860D01*
X0376027Y0151757D02*
X0376027Y0149939D01*
X0376722Y0148260D01*
X0378007Y0146975D01*
X0379686Y0146280D01*
X0381504Y0146280D01*
X0383183Y0146975D01*
X0384468Y0148260D01*
X0385164Y0149939D01*
X0385164Y0151757D01*
X0384468Y0153436D01*
X0383183Y0154721D01*
X0381504Y0155417D01*
X0379686Y0155417D01*
X0378007Y0154721D01*
X0376722Y0153436D01*
X0376027Y0151757D01*
X0376649Y0153259D02*
X0371589Y0153259D01*
X0371498Y0155657D02*
X0384657Y0155657D01*
X0384577Y0155886D02*
X0385040Y0154562D01*
X0385649Y0153298D01*
X0386395Y0152111D01*
X0387269Y0151014D01*
X0388261Y0150022D01*
X0389358Y0149148D01*
X0390545Y0148402D01*
X0391809Y0147793D01*
X0393133Y0147330D01*
X0394500Y0147018D01*
X0395395Y0146917D01*
X0395395Y0158148D01*
X0384164Y0158148D01*
X0384265Y0157253D01*
X0384577Y0155886D01*
X0384174Y0158056D02*
X0369848Y0158056D01*
X0370186Y0160780D02*
X0372004Y0160780D01*
X0373683Y0161475D01*
X0374095Y0161887D01*
X0374507Y0161475D01*
X0376186Y0160780D01*
X0378004Y0160780D01*
X0379683Y0161475D01*
X0380968Y0162760D01*
X0381664Y0164439D01*
X0381664Y0166257D01*
X0380968Y0167936D01*
X0379683Y0169221D01*
X0378004Y0169917D01*
X0376186Y0169917D01*
X0374507Y0169221D01*
X0374095Y0168809D01*
X0373683Y0169221D01*
X0372004Y0169917D01*
X0370186Y0169917D01*
X0368507Y0169221D01*
X0367222Y0167936D01*
X0366527Y0166257D01*
X0366527Y0164439D01*
X0367222Y0162760D01*
X0368507Y0161475D01*
X0370186Y0160780D01*
X0367184Y0162853D02*
X0364624Y0162853D01*
X0364463Y0160454D02*
X0395395Y0160454D01*
X0395395Y0160548D02*
X0395395Y0158148D01*
X0397795Y0158148D01*
X0397795Y0146917D01*
X0398690Y0147018D01*
X0400058Y0147330D01*
X0401381Y0147793D01*
X0402645Y0148402D01*
X0403833Y0149148D01*
X0404929Y0150022D01*
X0405921Y0151014D01*
X0406795Y0152111D01*
X0407542Y0153298D01*
X0408150Y0154562D01*
X0408613Y0155886D01*
X0408925Y0157253D01*
X0409026Y0158148D01*
X0397795Y0158148D01*
X0397795Y0160548D01*
X0395395Y0160548D01*
X0384164Y0160548D01*
X0384265Y0161443D01*
X0384577Y0162810D01*
X0385040Y0164134D01*
X0385649Y0165398D01*
X0386395Y0166586D01*
X0387269Y0167682D01*
X0388261Y0168674D01*
X0389358Y0169548D01*
X0390545Y0170295D01*
X0391809Y0170903D01*
X0393133Y0171366D01*
X0394500Y0171678D01*
X0395395Y0171779D01*
X0395395Y0160548D01*
X0395395Y0162853D02*
X0397795Y0162853D01*
X0397795Y0160548D02*
X0397795Y0171779D01*
X0398690Y0171678D01*
X0400058Y0171366D01*
X0401381Y0170903D01*
X0402645Y0170295D01*
X0403833Y0169548D01*
X0404929Y0168674D01*
X0405921Y0167682D01*
X0406795Y0166586D01*
X0407542Y0165398D01*
X0408150Y0164134D01*
X0408613Y0162810D01*
X0408925Y0161443D01*
X0409026Y0160548D01*
X0397795Y0160548D01*
X0397795Y0160454D02*
X0409316Y0160454D01*
X0409316Y0158056D02*
X0409016Y0158056D01*
X0409316Y0155657D02*
X0408533Y0155657D01*
X0409316Y0153259D02*
X0407517Y0153259D01*
X0405767Y0150860D02*
X0409316Y0150860D01*
X0409316Y0148462D02*
X0402741Y0148462D01*
X0400683Y0145221D02*
X0399004Y0145917D01*
X0397186Y0145917D01*
X0395507Y0145221D01*
X0394222Y0143936D01*
X0393527Y0142257D01*
X0393527Y0140439D01*
X0394222Y0138760D01*
X0395507Y0137475D01*
X0397186Y0136780D01*
X0399004Y0136780D01*
X0400683Y0137475D01*
X0401968Y0138760D01*
X0402664Y0140439D01*
X0402664Y0142257D01*
X0401968Y0143936D01*
X0400683Y0145221D01*
X0402080Y0143665D02*
X0409316Y0143665D01*
X0409316Y0146063D02*
X0311341Y0146063D01*
X0311468Y0145936D02*
X0310183Y0147221D01*
X0308504Y0147917D01*
X0306686Y0147917D01*
X0305007Y0147221D01*
X0303722Y0145936D01*
X0303027Y0144257D01*
X0303027Y0142439D01*
X0303722Y0140760D01*
X0305007Y0139475D01*
X0306686Y0138780D01*
X0308504Y0138780D01*
X0310183Y0139475D01*
X0311468Y0140760D01*
X0312164Y0142439D01*
X0312164Y0144257D01*
X0311468Y0145936D01*
X0312164Y0143665D02*
X0394110Y0143665D01*
X0393527Y0141266D02*
X0311678Y0141266D01*
X0312004Y0139417D02*
X0310186Y0139417D01*
X0308507Y0138721D01*
X0307222Y0137436D01*
X0306527Y0135757D01*
X0306527Y0133939D01*
X0306878Y0133092D01*
X0306722Y0132936D01*
X0306027Y0131257D01*
X0306027Y0129439D01*
X0306722Y0127760D01*
X0308007Y0126475D01*
X0309686Y0125780D01*
X0311504Y0125780D01*
X0313183Y0126475D01*
X0314468Y0127760D01*
X0315164Y0129439D01*
X0315164Y0131257D01*
X0314812Y0132105D01*
X0314968Y0132260D01*
X0315664Y0133939D01*
X0315664Y0135757D01*
X0314968Y0137436D01*
X0313683Y0138721D01*
X0312004Y0139417D01*
X0313329Y0138868D02*
X0328391Y0138868D01*
X0329101Y0139577D02*
X0327366Y0137842D01*
X0326427Y0135575D01*
X0326427Y0133121D01*
X0327366Y0130854D01*
X0328872Y0129348D01*
X0327366Y0127842D01*
X0326427Y0125575D01*
X0326427Y0123121D01*
X0327366Y0120854D01*
X0328872Y0119348D01*
X0327366Y0117842D01*
X0326427Y0115575D01*
X0326427Y0113121D01*
X0327366Y0110854D01*
X0329101Y0109119D01*
X0331368Y0108180D01*
X0333822Y0108180D01*
X0336089Y0109119D01*
X0337825Y0110854D01*
X0338252Y0111886D01*
X0338330Y0111734D01*
X0338791Y0111099D01*
X0339346Y0110544D01*
X0339981Y0110082D01*
X0340681Y0109726D01*
X0341427Y0109483D01*
X0342203Y0109361D01*
X0342595Y0109361D01*
X0342595Y0114348D01*
X0342595Y0114348D01*
X0342595Y0109361D01*
X0342988Y0109361D01*
X0343763Y0109483D01*
X0344510Y0109726D01*
X0345209Y0110082D01*
X0345844Y0110544D01*
X0346399Y0111099D01*
X0346861Y0111734D01*
X0347217Y0112434D01*
X0347460Y0113180D01*
X0347583Y0113955D01*
X0347583Y0114348D01*
X0347583Y0114741D01*
X0347460Y0115516D01*
X0347217Y0116263D01*
X0346861Y0116962D01*
X0346399Y0117597D01*
X0345844Y0118152D01*
X0345209Y0118614D01*
X0345057Y0118691D01*
X0346089Y0119119D01*
X0347825Y0120854D01*
X0348764Y0123121D01*
X0348764Y0125575D01*
X0347825Y0127842D01*
X0346319Y0129348D01*
X0347825Y0130854D01*
X0348764Y0133121D01*
X0348764Y0135575D01*
X0347825Y0137842D01*
X0346089Y0139577D01*
X0343822Y0140517D01*
X0341368Y0140517D01*
X0339101Y0139577D01*
X0337595Y0138072D01*
X0336089Y0139577D01*
X0333822Y0140517D01*
X0331368Y0140517D01*
X0329101Y0139577D01*
X0326797Y0136469D02*
X0315369Y0136469D01*
X0315664Y0134071D02*
X0326427Y0134071D01*
X0327027Y0131672D02*
X0314992Y0131672D01*
X0315095Y0129274D02*
X0328797Y0129274D01*
X0326965Y0126875D02*
X0313583Y0126875D01*
X0314686Y0125917D02*
X0313007Y0125221D01*
X0311722Y0123936D01*
X0311027Y0122257D01*
X0311027Y0120439D01*
X0311722Y0118760D01*
X0313007Y0117475D01*
X0314686Y0116780D01*
X0316504Y0116780D01*
X0318183Y0117475D01*
X0319468Y0118760D01*
X0320164Y0120439D01*
X0320164Y0122257D01*
X0319468Y0123936D01*
X0318183Y0125221D01*
X0316504Y0125917D01*
X0314686Y0125917D01*
X0312263Y0124477D02*
X0296472Y0124477D01*
X0296664Y0124939D02*
X0295968Y0123260D01*
X0294683Y0121975D01*
X0294542Y0121917D01*
X0295504Y0121917D01*
X0297183Y0121221D01*
X0298468Y0119936D01*
X0299164Y0118257D01*
X0299164Y0116439D01*
X0298468Y0114760D01*
X0297183Y0113475D01*
X0295504Y0112780D01*
X0293686Y0112780D01*
X0292007Y0113475D01*
X0290722Y0114760D01*
X0290027Y0116439D01*
X0290027Y0118257D01*
X0290722Y0119936D01*
X0292007Y0121221D01*
X0292149Y0121280D01*
X0291186Y0121280D01*
X0289507Y0121975D01*
X0288222Y0123260D01*
X0287527Y0124939D01*
X0287527Y0126757D01*
X0288222Y0128436D01*
X0289507Y0129721D01*
X0291186Y0130417D01*
X0293004Y0130417D01*
X0294683Y0129721D01*
X0295968Y0128436D01*
X0296664Y0126757D01*
X0296664Y0124939D01*
X0296615Y0126875D02*
X0307607Y0126875D01*
X0306095Y0129274D02*
X0295130Y0129274D01*
X0289060Y0129274D02*
X0055391Y0129274D01*
X0060756Y0126875D02*
X0276586Y0126875D01*
X0276686Y0126917D02*
X0275007Y0126221D01*
X0273722Y0124936D01*
X0273027Y0123257D01*
X0273027Y0121439D01*
X0273722Y0119760D01*
X0275007Y0118475D01*
X0276686Y0117780D01*
X0278504Y0117780D01*
X0280183Y0118475D01*
X0281468Y0119760D01*
X0282164Y0121439D01*
X0282164Y0123257D01*
X0281468Y0124936D01*
X0280183Y0126221D01*
X0278504Y0126917D01*
X0276686Y0126917D01*
X0278604Y0126875D02*
X0287576Y0126875D01*
X0287718Y0124477D02*
X0281658Y0124477D01*
X0282164Y0122078D02*
X0289404Y0122078D01*
X0290616Y0119680D02*
X0281388Y0119680D01*
X0283007Y0115544D02*
X0284686Y0116239D01*
X0286504Y0116239D01*
X0288183Y0115544D01*
X0289468Y0114259D01*
X0290164Y0112580D01*
X0290164Y0110762D01*
X0289468Y0109083D01*
X0288183Y0107798D01*
X0286504Y0107102D01*
X0284686Y0107102D01*
X0283007Y0107798D01*
X0281722Y0109083D01*
X0281027Y0110762D01*
X0281027Y0112580D01*
X0281722Y0114259D01*
X0283007Y0115544D01*
X0282346Y0114883D02*
X0273404Y0114883D01*
X0273664Y0114257D02*
X0272968Y0115936D01*
X0271683Y0117221D01*
X0270004Y0117917D01*
X0268186Y0117917D01*
X0266507Y0117221D01*
X0265266Y0115980D01*
X0265664Y0116939D01*
X0265664Y0118757D01*
X0264968Y0120436D01*
X0263683Y0121721D01*
X0262004Y0122417D01*
X0260186Y0122417D01*
X0258507Y0121721D01*
X0257222Y0120436D01*
X0256527Y0118757D01*
X0256527Y0116939D01*
X0257222Y0115260D01*
X0258507Y0113975D01*
X0260186Y0113280D01*
X0262004Y0113280D01*
X0263683Y0113975D01*
X0264924Y0115216D01*
X0264527Y0114257D01*
X0264527Y0112439D01*
X0265222Y0110760D01*
X0266507Y0109475D01*
X0268186Y0108780D01*
X0270004Y0108780D01*
X0271683Y0109475D01*
X0272968Y0110760D01*
X0273664Y0112439D01*
X0273664Y0114257D01*
X0273664Y0112484D02*
X0281027Y0112484D01*
X0281307Y0110086D02*
X0272293Y0110086D01*
X0265897Y0110086D02*
X0257818Y0110086D01*
X0257968Y0109936D02*
X0256683Y0111221D01*
X0255470Y0111723D01*
X0254968Y0112936D01*
X0253683Y0114221D01*
X0252004Y0114917D01*
X0250186Y0114917D01*
X0248507Y0114221D01*
X0247222Y0112936D01*
X0246527Y0111257D01*
X0246527Y0109439D01*
X0247222Y0107760D01*
X0248507Y0106475D01*
X0249720Y0105973D01*
X0250222Y0104760D01*
X0251507Y0103475D01*
X0252381Y0103113D01*
X0252027Y0102257D01*
X0252027Y0101936D01*
X0251507Y0101721D01*
X0251095Y0101309D01*
X0250683Y0101721D01*
X0249004Y0102417D01*
X0247186Y0102417D01*
X0245507Y0101721D01*
X0244222Y0100436D01*
X0243527Y0098757D01*
X0243527Y0096939D01*
X0244222Y0095260D01*
X0245507Y0093975D01*
X0247186Y0093280D01*
X0249004Y0093280D01*
X0250683Y0093975D01*
X0251095Y0094387D01*
X0251507Y0093975D01*
X0253186Y0093280D01*
X0255004Y0093280D01*
X0256683Y0093975D01*
X0257968Y0095260D01*
X0258664Y0096939D01*
X0258664Y0097260D01*
X0259183Y0097475D01*
X0260468Y0098760D01*
X0261164Y0100439D01*
X0261164Y0102257D01*
X0260468Y0103936D01*
X0259183Y0105221D01*
X0258309Y0105583D01*
X0258664Y0106439D01*
X0258664Y0108257D01*
X0257968Y0109936D01*
X0258664Y0107687D02*
X0283275Y0107687D01*
X0287915Y0107687D02*
X0294473Y0107687D01*
X0295007Y0108221D02*
X0293722Y0106936D01*
X0293027Y0105257D01*
X0293027Y0103439D01*
X0293722Y0101760D01*
X0295007Y0100475D01*
X0296686Y0099780D01*
X0298504Y0099780D01*
X0300183Y0100475D01*
X0301468Y0101760D01*
X0302164Y0103439D01*
X0302164Y0105257D01*
X0301468Y0106936D01*
X0300183Y0108221D01*
X0298504Y0108917D01*
X0296686Y0108917D01*
X0295007Y0108221D01*
X0293040Y0105288D02*
X0259020Y0105288D01*
X0260901Y0102890D02*
X0293254Y0102890D01*
X0294991Y0100491D02*
X0269413Y0100491D01*
X0269968Y0099936D02*
X0268683Y0101221D01*
X0267004Y0101917D01*
X0265186Y0101917D01*
X0263507Y0101221D01*
X0262222Y0099936D01*
X0261527Y0098257D01*
X0261527Y0096439D01*
X0261881Y0095583D01*
X0261007Y0095221D01*
X0259722Y0093936D01*
X0259027Y0092257D01*
X0259027Y0090439D01*
X0259722Y0088760D01*
X0261007Y0087475D01*
X0262220Y0086973D01*
X0262479Y0086348D01*
X0262027Y0085257D01*
X0262027Y0083439D01*
X0262479Y0082348D01*
X0262027Y0081257D01*
X0262027Y0079439D01*
X0262722Y0077760D01*
X0264007Y0076475D01*
X0265686Y0075780D01*
X0267504Y0075780D01*
X0269183Y0076475D01*
X0270468Y0077760D01*
X0271164Y0079439D01*
X0271164Y0081257D01*
X0270712Y0082348D01*
X0271164Y0083439D01*
X0271164Y0085257D01*
X0270712Y0086348D01*
X0271164Y0087439D01*
X0271164Y0089257D01*
X0270468Y0090936D01*
X0269183Y0092221D01*
X0267970Y0092723D01*
X0267809Y0093113D01*
X0268683Y0093475D01*
X0269968Y0094760D01*
X0270664Y0096439D01*
X0270664Y0098257D01*
X0269968Y0099936D01*
X0270664Y0098093D02*
X0284879Y0098093D01*
X0285507Y0098721D02*
X0284222Y0097436D01*
X0283527Y0095757D01*
X0283527Y0093939D01*
X0284222Y0092260D01*
X0285507Y0090975D01*
X0287186Y0090280D01*
X0289004Y0090280D01*
X0290683Y0090975D01*
X0291968Y0092260D01*
X0292664Y0093939D01*
X0292664Y0095757D01*
X0291968Y0097436D01*
X0290683Y0098721D01*
X0289004Y0099417D01*
X0287186Y0099417D01*
X0285507Y0098721D01*
X0283527Y0095694D02*
X0270355Y0095694D01*
X0268251Y0093296D02*
X0283793Y0093296D01*
X0285695Y0090897D02*
X0270484Y0090897D01*
X0271164Y0088499D02*
X0323678Y0088499D01*
X0323007Y0088221D02*
X0324686Y0088917D01*
X0326504Y0088917D01*
X0328183Y0088221D01*
X0329468Y0086936D01*
X0330164Y0085257D01*
X0330164Y0083439D01*
X0329468Y0081760D01*
X0328589Y0080881D01*
X0330183Y0080221D01*
X0331468Y0078936D01*
X0332164Y0077257D01*
X0332164Y0075439D01*
X0331468Y0073760D01*
X0330306Y0072598D01*
X0331468Y0071436D01*
X0332164Y0069757D01*
X0332164Y0067939D01*
X0331468Y0066260D01*
X0330183Y0064975D01*
X0328504Y0064280D01*
X0326686Y0064280D01*
X0325007Y0064975D01*
X0323722Y0066260D01*
X0323027Y0067939D01*
X0323027Y0069757D01*
X0323722Y0071436D01*
X0324884Y0072598D01*
X0323722Y0073760D01*
X0323027Y0075439D01*
X0323027Y0077257D01*
X0323722Y0078936D01*
X0324601Y0079815D01*
X0323007Y0080475D01*
X0321722Y0081760D01*
X0321027Y0083439D01*
X0321027Y0085257D01*
X0321722Y0086936D01*
X0323007Y0088221D01*
X0322504Y0089780D02*
X0324183Y0090475D01*
X0325468Y0091760D01*
X0326164Y0093439D01*
X0326164Y0095257D01*
X0325468Y0096936D01*
X0324183Y0098221D01*
X0322504Y0098917D01*
X0320686Y0098917D01*
X0319007Y0098221D01*
X0317722Y0096936D01*
X0317449Y0096276D01*
X0316968Y0097436D01*
X0315683Y0098721D01*
X0314004Y0099417D01*
X0312186Y0099417D01*
X0310507Y0098721D01*
X0309222Y0097436D01*
X0308527Y0095757D01*
X0308527Y0093939D01*
X0309222Y0092260D01*
X0310507Y0090975D01*
X0312186Y0090280D01*
X0314004Y0090280D01*
X0315683Y0090975D01*
X0316968Y0092260D01*
X0317242Y0092920D01*
X0317722Y0091760D01*
X0319007Y0090475D01*
X0320686Y0089780D01*
X0322504Y0089780D01*
X0324605Y0090897D02*
X0348458Y0090897D01*
X0348722Y0090260D02*
X0348027Y0091939D01*
X0348027Y0093757D01*
X0348722Y0095436D01*
X0350007Y0096721D01*
X0351686Y0097417D01*
X0353504Y0097417D01*
X0355183Y0096721D01*
X0356468Y0095436D01*
X0357164Y0093757D01*
X0357164Y0091939D01*
X0356468Y0090260D01*
X0355183Y0088975D01*
X0353504Y0088280D01*
X0351686Y0088280D01*
X0350007Y0088975D01*
X0348722Y0090260D01*
X0351157Y0088499D02*
X0327512Y0088499D01*
X0329814Y0086100D02*
X0349387Y0086100D01*
X0350007Y0086721D02*
X0348722Y0085436D01*
X0348027Y0083757D01*
X0348027Y0081939D01*
X0348722Y0080260D01*
X0350007Y0078975D01*
X0351686Y0078280D01*
X0353504Y0078280D01*
X0355183Y0078975D01*
X0356468Y0080260D01*
X0357164Y0081939D01*
X0357164Y0083757D01*
X0356468Y0085436D01*
X0355183Y0086721D01*
X0353504Y0087417D01*
X0351686Y0087417D01*
X0350007Y0086721D01*
X0354033Y0088499D02*
X0360785Y0088499D01*
X0360722Y0088436D02*
X0360027Y0086757D01*
X0360027Y0084939D01*
X0360722Y0083260D01*
X0362007Y0081975D01*
X0363686Y0081280D01*
X0365504Y0081280D01*
X0367183Y0081975D01*
X0368468Y0083260D01*
X0369164Y0084939D01*
X0369164Y0086757D01*
X0368468Y0088436D01*
X0367183Y0089721D01*
X0365504Y0090417D01*
X0363686Y0090417D01*
X0362007Y0089721D01*
X0360722Y0088436D01*
X0360027Y0086100D02*
X0355804Y0086100D01*
X0357164Y0083702D02*
X0360539Y0083702D01*
X0363629Y0081303D02*
X0356900Y0081303D01*
X0355014Y0078905D02*
X0383100Y0078905D01*
X0383336Y0079003D02*
X0382487Y0078651D01*
X0381691Y0078191D01*
X0380962Y0077632D01*
X0380312Y0076982D01*
X0379752Y0076252D01*
X0379292Y0075456D01*
X0378941Y0074607D01*
X0378703Y0073719D01*
X0378585Y0072823D01*
X0385120Y0072823D01*
X0385120Y0071873D01*
X0378585Y0071873D01*
X0378703Y0070977D01*
X0378941Y0070089D01*
X0379292Y0069240D01*
X0379752Y0068444D01*
X0380312Y0067715D01*
X0380962Y0067065D01*
X0381691Y0066505D01*
X0382487Y0066045D01*
X0383336Y0065694D01*
X0384224Y0065456D01*
X0385120Y0065338D01*
X0385120Y0071873D01*
X0386070Y0071873D01*
X0386070Y0072823D01*
X0385120Y0072823D01*
X0385120Y0079358D01*
X0384224Y0079240D01*
X0383336Y0079003D01*
X0385120Y0078905D02*
X0386070Y0078905D01*
X0386070Y0079358D02*
X0386070Y0072823D01*
X0392605Y0072823D01*
X0392488Y0073719D01*
X0392250Y0074607D01*
X0391898Y0075456D01*
X0391438Y0076252D01*
X0390879Y0076982D01*
X0390229Y0077632D01*
X0389499Y0078191D01*
X0388703Y0078651D01*
X0387854Y0079003D01*
X0386966Y0079240D01*
X0386070Y0079358D01*
X0388090Y0078905D02*
X0392850Y0078905D01*
X0393615Y0078140D02*
X0395873Y0077205D01*
X0398317Y0077205D01*
X0400575Y0078140D01*
X0402303Y0079868D01*
X0403238Y0082126D01*
X0403238Y0084570D01*
X0402303Y0086828D01*
X0400575Y0088556D01*
X0398317Y0089491D01*
X0396923Y0089491D01*
X0396923Y0089757D01*
X0396228Y0091436D01*
X0394943Y0092721D01*
X0393264Y0093417D01*
X0391446Y0093417D01*
X0389767Y0092721D01*
X0388482Y0091436D01*
X0387786Y0089757D01*
X0387786Y0087939D01*
X0388482Y0086260D01*
X0389767Y0084975D01*
X0390952Y0084484D01*
X0390952Y0082126D01*
X0391887Y0079868D01*
X0393615Y0078140D01*
X0391243Y0076506D02*
X0399947Y0076506D01*
X0399752Y0076252D02*
X0399292Y0075456D01*
X0398941Y0074607D01*
X0398703Y0073719D01*
X0398585Y0072823D01*
X0405120Y0072823D01*
X0405120Y0079358D01*
X0404224Y0079240D01*
X0403336Y0079003D01*
X0402487Y0078651D01*
X0401691Y0078191D01*
X0400962Y0077632D01*
X0400312Y0076982D01*
X0399752Y0076252D01*
X0398807Y0074108D02*
X0392383Y0074108D01*
X0392584Y0071709D02*
X0398606Y0071709D01*
X0405120Y0071709D02*
X0406070Y0071709D01*
X0406070Y0071873D02*
X0406070Y0065338D01*
X0406966Y0065456D01*
X0407854Y0065694D01*
X0408703Y0066045D01*
X0409316Y0066399D01*
X0409316Y0058297D01*
X0408703Y0058651D01*
X0407854Y0059003D01*
X0406966Y0059240D01*
X0406070Y0059358D01*
X0406070Y0052823D01*
X0405120Y0052823D01*
X0405120Y0059358D01*
X0404232Y0059241D01*
X0404763Y0060524D01*
X0404763Y0064172D01*
X0404232Y0065455D01*
X0405120Y0065338D01*
X0405120Y0071873D01*
X0406070Y0071873D01*
X0406070Y0074108D02*
X0405120Y0074108D01*
X0405120Y0076506D02*
X0406070Y0076506D01*
X0406070Y0078905D02*
X0405120Y0078905D01*
X0403100Y0078905D02*
X0401340Y0078905D01*
X0402898Y0081303D02*
X0409316Y0081303D01*
X0409316Y0078905D02*
X0408090Y0078905D01*
X0409316Y0083702D02*
X0403238Y0083702D01*
X0402605Y0086100D02*
X0409316Y0086100D01*
X0409316Y0088499D02*
X0400632Y0088499D01*
X0396451Y0090897D02*
X0409316Y0090897D01*
X0409316Y0093296D02*
X0393555Y0093296D01*
X0391155Y0093296D02*
X0357164Y0093296D01*
X0356732Y0090897D02*
X0388259Y0090897D01*
X0387786Y0088499D02*
X0368405Y0088499D01*
X0369164Y0086100D02*
X0388642Y0086100D01*
X0390952Y0083702D02*
X0368651Y0083702D01*
X0365561Y0081303D02*
X0391293Y0081303D01*
X0386070Y0076506D02*
X0385120Y0076506D01*
X0385120Y0074108D02*
X0386070Y0074108D01*
X0386070Y0071709D02*
X0385120Y0071709D01*
X0385120Y0069311D02*
X0386070Y0069311D01*
X0386070Y0066912D02*
X0385120Y0066912D01*
X0386569Y0064514D02*
X0329069Y0064514D01*
X0326121Y0064514D02*
X0292280Y0064514D01*
X0291968Y0063760D02*
X0292664Y0065439D01*
X0292664Y0067257D01*
X0291968Y0068936D01*
X0290683Y0070221D01*
X0289004Y0070917D01*
X0287186Y0070917D01*
X0285507Y0070221D01*
X0284222Y0068936D01*
X0283527Y0067257D01*
X0283527Y0065439D01*
X0284222Y0063760D01*
X0285507Y0062475D01*
X0287186Y0061780D01*
X0289004Y0061780D01*
X0290683Y0062475D01*
X0291968Y0063760D01*
X0289814Y0062115D02*
X0358959Y0062115D01*
X0359686Y0062417D02*
X0358007Y0061721D01*
X0356722Y0060436D01*
X0356027Y0058757D01*
X0356027Y0056939D01*
X0356479Y0055848D01*
X0356027Y0054757D01*
X0356027Y0052939D01*
X0356722Y0051260D01*
X0358007Y0049975D01*
X0359686Y0049280D01*
X0361504Y0049280D01*
X0363183Y0049975D01*
X0364282Y0051074D01*
X0363452Y0049070D01*
X0363452Y0046626D01*
X0364387Y0044368D01*
X0366115Y0042640D01*
X0368373Y0041705D01*
X0370817Y0041705D01*
X0373075Y0042640D01*
X0374803Y0044368D01*
X0375738Y0046626D01*
X0375738Y0049070D01*
X0374803Y0051328D01*
X0373075Y0053056D01*
X0370817Y0053991D01*
X0368373Y0053991D01*
X0366115Y0053056D01*
X0364573Y0051514D01*
X0365164Y0052939D01*
X0365164Y0054757D01*
X0364712Y0055848D01*
X0365164Y0056939D01*
X0365164Y0058757D01*
X0364468Y0060436D01*
X0363183Y0061721D01*
X0361504Y0062417D01*
X0359686Y0062417D01*
X0362231Y0062115D02*
X0386427Y0062115D01*
X0386761Y0059717D02*
X0364766Y0059717D01*
X0365164Y0057318D02*
X0380648Y0057318D01*
X0380962Y0057632D02*
X0380312Y0056982D01*
X0379752Y0056252D01*
X0379292Y0055456D01*
X0378941Y0054607D01*
X0378703Y0053719D01*
X0378585Y0052823D01*
X0385120Y0052823D01*
X0385120Y0059358D01*
X0384224Y0059240D01*
X0383336Y0059003D01*
X0382487Y0058651D01*
X0381691Y0058191D01*
X0380962Y0057632D01*
X0379070Y0054920D02*
X0365096Y0054920D01*
X0364990Y0052521D02*
X0365580Y0052521D01*
X0363888Y0050123D02*
X0363331Y0050123D01*
X0363452Y0047724D02*
X0344932Y0047724D01*
X0344683Y0047475D02*
X0345968Y0048760D01*
X0346664Y0050439D01*
X0346664Y0052257D01*
X0345968Y0053936D01*
X0344683Y0055221D01*
X0343004Y0055917D01*
X0341186Y0055917D01*
X0339507Y0055221D01*
X0338222Y0053936D01*
X0338214Y0053917D01*
X0337686Y0053917D01*
X0336007Y0053221D01*
X0334722Y0051936D01*
X0334027Y0050257D01*
X0334027Y0048439D01*
X0334722Y0046760D01*
X0336007Y0045475D01*
X0337686Y0044780D01*
X0339504Y0044780D01*
X0341183Y0045475D01*
X0342468Y0046760D01*
X0342476Y0046780D01*
X0343004Y0046780D01*
X0344683Y0047475D01*
X0340822Y0045326D02*
X0363990Y0045326D01*
X0365828Y0042927D02*
X0327664Y0042927D01*
X0327664Y0042439D02*
X0326968Y0040760D01*
X0325683Y0039475D01*
X0324004Y0038780D01*
X0322186Y0038780D01*
X0320507Y0039475D01*
X0319705Y0040277D01*
X0318504Y0039780D01*
X0316686Y0039780D01*
X0315007Y0040475D01*
X0313722Y0041760D01*
X0313027Y0043439D01*
X0313027Y0045257D01*
X0313722Y0046936D01*
X0315007Y0048221D01*
X0316686Y0048917D01*
X0318504Y0048917D01*
X0320183Y0048221D01*
X0320985Y0047419D01*
X0322186Y0047917D01*
X0324004Y0047917D01*
X0325683Y0047221D01*
X0326968Y0045936D01*
X0327664Y0044257D01*
X0327664Y0042439D01*
X0326737Y0040529D02*
X0409316Y0040529D01*
X0409316Y0042927D02*
X0373362Y0042927D01*
X0375200Y0045326D02*
X0409316Y0045326D01*
X0406070Y0047724D02*
X0405120Y0047724D01*
X0405120Y0050123D02*
X0406070Y0050123D01*
X0405120Y0052521D02*
X0386070Y0052521D01*
X0385120Y0052521D02*
X0373610Y0052521D01*
X0375302Y0050123D02*
X0378932Y0050123D01*
X0380304Y0047724D02*
X0375738Y0047724D01*
X0385120Y0047724D02*
X0386070Y0047724D01*
X0386070Y0050123D02*
X0385120Y0050123D01*
X0390886Y0047724D02*
X0400304Y0047724D01*
X0398932Y0050123D02*
X0392259Y0050123D01*
X0386070Y0054920D02*
X0385120Y0054920D01*
X0385120Y0057318D02*
X0386070Y0057318D01*
X0381160Y0066912D02*
X0331738Y0066912D01*
X0332164Y0069311D02*
X0379263Y0069311D01*
X0378606Y0071709D02*
X0331195Y0071709D01*
X0331612Y0074108D02*
X0378807Y0074108D01*
X0379947Y0076506D02*
X0332164Y0076506D01*
X0331481Y0078905D02*
X0350177Y0078905D01*
X0348290Y0081303D02*
X0329011Y0081303D01*
X0330164Y0083702D02*
X0348027Y0083702D01*
X0348027Y0093296D02*
X0326104Y0093296D01*
X0325982Y0095694D02*
X0348981Y0095694D01*
X0356210Y0095694D02*
X0409316Y0095694D01*
X0409316Y0098093D02*
X0324311Y0098093D01*
X0322183Y0100475D02*
X0323468Y0101760D01*
X0324164Y0103439D01*
X0324164Y0105257D01*
X0323666Y0106458D01*
X0323968Y0106760D01*
X0324664Y0108439D01*
X0324664Y0110257D01*
X0323968Y0111936D01*
X0322683Y0113221D01*
X0321004Y0113917D01*
X0319186Y0113917D01*
X0317507Y0113221D01*
X0316222Y0111936D01*
X0315527Y0110257D01*
X0315527Y0108439D01*
X0316024Y0107238D01*
X0315722Y0106936D01*
X0315027Y0105257D01*
X0315027Y0103439D01*
X0315722Y0101760D01*
X0317007Y0100475D01*
X0318686Y0099780D01*
X0320504Y0099780D01*
X0322183Y0100475D01*
X0322199Y0100491D02*
X0409316Y0100491D01*
X0399044Y0102890D02*
X0391598Y0102890D01*
X0397880Y0105288D02*
X0398001Y0105288D01*
X0386387Y0110086D02*
X0345213Y0110086D01*
X0342595Y0110086D02*
X0342595Y0110086D01*
X0342595Y0112484D02*
X0342595Y0112484D01*
X0342595Y0114348D02*
X0342595Y0114348D01*
X0347583Y0114348D01*
X0342595Y0114348D01*
X0346629Y0117281D02*
X0381299Y0117281D01*
X0381027Y0119680D02*
X0346650Y0119680D01*
X0348332Y0122078D02*
X0382364Y0122078D01*
X0384532Y0124477D02*
X0348764Y0124477D01*
X0348225Y0126875D02*
X0351607Y0126875D01*
X0352007Y0126475D02*
X0353686Y0125780D01*
X0355504Y0125780D01*
X0357183Y0126475D01*
X0358468Y0127760D01*
X0359164Y0129439D01*
X0359164Y0131257D01*
X0358468Y0132936D01*
X0357183Y0134221D01*
X0355504Y0134917D01*
X0353686Y0134917D01*
X0352007Y0134221D01*
X0350722Y0132936D01*
X0350027Y0131257D01*
X0350027Y0129439D01*
X0350722Y0127760D01*
X0352007Y0126475D01*
X0350095Y0129274D02*
X0346393Y0129274D01*
X0348163Y0131672D02*
X0350199Y0131672D01*
X0348764Y0134071D02*
X0351857Y0134071D01*
X0348393Y0136469D02*
X0399781Y0136469D01*
X0398077Y0134071D02*
X0397217Y0134071D01*
X0394178Y0138868D02*
X0346799Y0138868D01*
X0338391Y0138868D02*
X0336799Y0138868D01*
X0337944Y0148462D02*
X0376639Y0148462D01*
X0384552Y0148462D02*
X0390449Y0148462D01*
X0387423Y0150860D02*
X0385164Y0150860D01*
X0385673Y0153259D02*
X0384542Y0153259D01*
X0395395Y0153259D02*
X0397795Y0153259D01*
X0397795Y0155657D02*
X0395395Y0155657D01*
X0395395Y0158056D02*
X0397795Y0158056D01*
X0408599Y0162853D02*
X0409316Y0162853D01*
X0409316Y0165251D02*
X0407612Y0165251D01*
X0405947Y0167650D02*
X0409316Y0167650D01*
X0409316Y0170048D02*
X0403037Y0170048D01*
X0397795Y0170048D02*
X0395395Y0170048D01*
X0395395Y0167650D02*
X0397795Y0167650D01*
X0397795Y0165251D02*
X0395395Y0165251D01*
X0387244Y0167650D02*
X0381087Y0167650D01*
X0381664Y0165251D02*
X0385578Y0165251D01*
X0384592Y0162853D02*
X0381006Y0162853D01*
X0390153Y0170048D02*
X0362893Y0170048D01*
X0365294Y0167650D02*
X0367104Y0167650D01*
X0366527Y0165251D02*
X0365664Y0165251D01*
X0355728Y0160454D02*
X0307450Y0160454D01*
X0309040Y0158056D02*
X0357427Y0158056D01*
X0362764Y0158056D02*
X0364342Y0158056D01*
X0395395Y0150860D02*
X0397795Y0150860D01*
X0397795Y0148462D02*
X0395395Y0148462D01*
X0402664Y0141266D02*
X0409316Y0141266D01*
X0409316Y0138868D02*
X0402013Y0138868D01*
X0408637Y0136469D02*
X0409316Y0136469D01*
X0389942Y0134071D02*
X0357333Y0134071D01*
X0358992Y0131672D02*
X0388088Y0131672D01*
X0387557Y0129274D02*
X0359095Y0129274D01*
X0357583Y0126875D02*
X0387586Y0126875D01*
X0383231Y0114883D02*
X0347560Y0114883D01*
X0347234Y0112484D02*
X0385498Y0112484D01*
X0383912Y0107687D02*
X0324352Y0107687D01*
X0324151Y0105288D02*
X0383527Y0105288D01*
X0384592Y0102890D02*
X0323936Y0102890D01*
X0318879Y0098093D02*
X0316311Y0098093D01*
X0316991Y0100491D02*
X0310199Y0100491D01*
X0310183Y0100475D02*
X0311468Y0101760D01*
X0312164Y0103439D01*
X0312164Y0105257D01*
X0311468Y0106936D01*
X0310183Y0108221D01*
X0308504Y0108917D01*
X0306686Y0108917D01*
X0305007Y0108221D01*
X0303722Y0106936D01*
X0303027Y0105257D01*
X0303027Y0103439D01*
X0303722Y0101760D01*
X0305007Y0100475D01*
X0306686Y0099780D01*
X0308504Y0099780D01*
X0310183Y0100475D01*
X0309879Y0098093D02*
X0291311Y0098093D01*
X0292664Y0095694D02*
X0308527Y0095694D01*
X0308793Y0093296D02*
X0292397Y0093296D01*
X0290496Y0090897D02*
X0310695Y0090897D01*
X0315496Y0090897D02*
X0318585Y0090897D01*
X0321376Y0086100D02*
X0270814Y0086100D01*
X0271164Y0083702D02*
X0321027Y0083702D01*
X0322179Y0081303D02*
X0296277Y0081303D01*
X0296004Y0081417D02*
X0294186Y0081417D01*
X0292507Y0080721D01*
X0291222Y0079436D01*
X0290527Y0077757D01*
X0290527Y0075939D01*
X0291222Y0074260D01*
X0292507Y0072975D01*
X0294186Y0072280D01*
X0296004Y0072280D01*
X0297683Y0072975D01*
X0298968Y0074260D01*
X0299664Y0075939D01*
X0299664Y0077757D01*
X0298968Y0079436D01*
X0297683Y0080721D01*
X0296004Y0081417D01*
X0293913Y0081303D02*
X0271144Y0081303D01*
X0270942Y0078905D02*
X0291002Y0078905D01*
X0290527Y0076506D02*
X0269214Y0076506D01*
X0269183Y0074721D02*
X0267504Y0075417D01*
X0265686Y0075417D01*
X0264007Y0074721D01*
X0262722Y0073436D01*
X0262027Y0071757D01*
X0262027Y0071436D01*
X0261507Y0071221D01*
X0260576Y0070290D01*
X0258822Y0071017D01*
X0256368Y0071017D01*
X0254101Y0070077D01*
X0252366Y0068342D01*
X0251938Y0067310D01*
X0251861Y0067462D01*
X0251399Y0068097D01*
X0250844Y0068652D01*
X0250209Y0069114D01*
X0249510Y0069470D01*
X0248763Y0069713D01*
X0247988Y0069835D01*
X0247595Y0069835D01*
X0247203Y0069835D01*
X0246427Y0069713D01*
X0245681Y0069470D01*
X0244981Y0069114D01*
X0244346Y0068652D01*
X0243791Y0068097D01*
X0243330Y0067462D01*
X0242973Y0066763D01*
X0242731Y0066016D01*
X0242608Y0065241D01*
X0242608Y0064848D01*
X0242608Y0064455D01*
X0242731Y0063680D01*
X0242973Y0062934D01*
X0243330Y0062234D01*
X0243791Y0061599D01*
X0244346Y0061044D01*
X0244981Y0060582D01*
X0245133Y0060505D01*
X0244101Y0060077D01*
X0242366Y0058342D01*
X0241427Y0056075D01*
X0241427Y0053621D01*
X0242366Y0051354D01*
X0243872Y0049848D01*
X0242964Y0048940D01*
X0241683Y0050221D01*
X0240004Y0050917D01*
X0238186Y0050917D01*
X0236507Y0050221D01*
X0235222Y0048936D01*
X0234527Y0047257D01*
X0234527Y0045439D01*
X0235222Y0043760D01*
X0236507Y0042475D01*
X0238186Y0041780D01*
X0240004Y0041780D01*
X0241683Y0042475D01*
X0241837Y0042629D01*
X0242366Y0041354D01*
X0243872Y0039848D01*
X0242366Y0038342D01*
X0241427Y0036075D01*
X0241427Y0033621D01*
X0242366Y0031354D01*
X0244101Y0029619D01*
X0245133Y0029191D01*
X0244981Y0029114D01*
X0244346Y0028652D01*
X0243791Y0028097D01*
X0243330Y0027462D01*
X0242973Y0026763D01*
X0242731Y0026016D01*
X0242608Y0025241D01*
X0242608Y0024848D01*
X0242608Y0024455D01*
X0242731Y0023680D01*
X0242973Y0022934D01*
X0243330Y0022234D01*
X0243791Y0021599D01*
X0244346Y0021044D01*
X0244981Y0020582D01*
X0245681Y0020226D01*
X0246427Y0019983D01*
X0247203Y0019861D01*
X0247595Y0019861D01*
X0247595Y0024848D01*
X0242608Y0024848D01*
X0247595Y0024848D01*
X0247595Y0024848D01*
X0247595Y0024848D01*
X0247595Y0019861D01*
X0247988Y0019861D01*
X0248763Y0019983D01*
X0249510Y0020226D01*
X0250209Y0020582D01*
X0250844Y0021044D01*
X0251399Y0021599D01*
X0251861Y0022234D01*
X0251938Y0022386D01*
X0252366Y0021354D01*
X0254101Y0019619D01*
X0256368Y0018680D01*
X0258822Y0018680D01*
X0261089Y0019619D01*
X0262825Y0021354D01*
X0263764Y0023621D01*
X0263764Y0026075D01*
X0262825Y0028342D01*
X0261319Y0029848D01*
X0262317Y0030847D01*
X0263686Y0030280D01*
X0265027Y0030280D01*
X0265027Y0028939D01*
X0265722Y0027260D01*
X0267007Y0025975D01*
X0268686Y0025280D01*
X0270504Y0025280D01*
X0272183Y0025975D01*
X0273468Y0027260D01*
X0274164Y0028939D01*
X0274164Y0030757D01*
X0273468Y0032436D01*
X0272183Y0033721D01*
X0270504Y0034417D01*
X0269164Y0034417D01*
X0269164Y0035757D01*
X0268468Y0037436D01*
X0267183Y0038721D01*
X0265504Y0039417D01*
X0263686Y0039417D01*
X0262317Y0038849D01*
X0261319Y0039848D01*
X0262825Y0041354D01*
X0262851Y0041418D01*
X0263186Y0041280D01*
X0265004Y0041280D01*
X0266683Y0041975D01*
X0267924Y0043216D01*
X0267527Y0042257D01*
X0267527Y0040439D01*
X0268222Y0038760D01*
X0269507Y0037475D01*
X0270527Y0037053D01*
X0270527Y0036939D01*
X0271222Y0035260D01*
X0272507Y0033975D01*
X0274186Y0033280D01*
X0276004Y0033280D01*
X0277683Y0033975D01*
X0278968Y0035260D01*
X0279664Y0036939D01*
X0279664Y0038757D01*
X0278968Y0040436D01*
X0277683Y0041721D01*
X0276664Y0042143D01*
X0276664Y0042257D01*
X0276648Y0042296D01*
X0276686Y0042280D01*
X0278504Y0042280D01*
X0279537Y0042707D01*
X0279722Y0042260D01*
X0281007Y0040975D01*
X0282686Y0040280D01*
X0284504Y0040280D01*
X0286183Y0040975D01*
X0286855Y0041647D01*
X0287222Y0040760D01*
X0288507Y0039475D01*
X0290186Y0038780D01*
X0292004Y0038780D01*
X0293683Y0039475D01*
X0294595Y0040387D01*
X0295507Y0039475D01*
X0297186Y0038780D01*
X0299004Y0038780D01*
X0300683Y0039475D01*
X0301968Y0040760D01*
X0302189Y0041293D01*
X0303007Y0040475D01*
X0304686Y0039780D01*
X0306504Y0039780D01*
X0308183Y0040475D01*
X0309468Y0041760D01*
X0310164Y0043439D01*
X0310164Y0045257D01*
X0309468Y0046936D01*
X0308183Y0048221D01*
X0306504Y0048917D01*
X0304686Y0048917D01*
X0303007Y0048221D01*
X0301722Y0046936D01*
X0301501Y0046403D01*
X0300683Y0047221D01*
X0299004Y0047917D01*
X0298683Y0047917D01*
X0298468Y0048436D01*
X0297183Y0049721D01*
X0295504Y0050417D01*
X0293686Y0050417D01*
X0292007Y0049721D01*
X0291345Y0049059D01*
X0291312Y0049092D01*
X0291664Y0049939D01*
X0291664Y0051757D01*
X0290968Y0053436D01*
X0289683Y0054721D01*
X0288004Y0055417D01*
X0286186Y0055417D01*
X0284507Y0054721D01*
X0283222Y0053436D01*
X0282527Y0051757D01*
X0282527Y0049939D01*
X0282743Y0049417D01*
X0282686Y0049417D01*
X0281653Y0048989D01*
X0281468Y0049436D01*
X0280183Y0050721D01*
X0278504Y0051417D01*
X0276686Y0051417D01*
X0275007Y0050721D01*
X0273722Y0049436D01*
X0273027Y0047757D01*
X0273027Y0045939D01*
X0273043Y0045900D01*
X0273004Y0045917D01*
X0271186Y0045917D01*
X0269507Y0045221D01*
X0268266Y0043980D01*
X0268664Y0044939D01*
X0268664Y0046757D01*
X0267968Y0048436D01*
X0266683Y0049721D01*
X0265004Y0050417D01*
X0263186Y0050417D01*
X0261507Y0049721D01*
X0261477Y0049690D01*
X0261319Y0049848D01*
X0262825Y0051354D01*
X0263764Y0053621D01*
X0263764Y0056075D01*
X0262825Y0058342D01*
X0261319Y0059848D01*
X0262277Y0060806D01*
X0263307Y0059775D01*
X0264986Y0059080D01*
X0266804Y0059080D01*
X0268483Y0059775D01*
X0269768Y0061060D01*
X0270464Y0062739D01*
X0270464Y0064557D01*
X0269768Y0066236D01*
X0269074Y0066930D01*
X0269183Y0066975D01*
X0270468Y0068260D01*
X0271164Y0069939D01*
X0271164Y0071757D01*
X0270468Y0073436D01*
X0269183Y0074721D01*
X0269796Y0074108D02*
X0291374Y0074108D01*
X0291593Y0069311D02*
X0303240Y0069311D01*
X0303240Y0067342D02*
X0304089Y0066493D01*
X0305290Y0066493D01*
X0317101Y0066493D01*
X0317951Y0067342D01*
X0317951Y0080354D01*
X0317101Y0081204D01*
X0304089Y0081204D01*
X0303240Y0080354D01*
X0303240Y0067342D01*
X0303669Y0066912D02*
X0292664Y0066912D01*
X0286376Y0062115D02*
X0270205Y0062115D01*
X0270464Y0064514D02*
X0283910Y0064514D01*
X0283527Y0066912D02*
X0269092Y0066912D01*
X0270903Y0069311D02*
X0284597Y0069311D01*
X0271164Y0071709D02*
X0303240Y0071709D01*
X0303240Y0074108D02*
X0298816Y0074108D01*
X0299664Y0076506D02*
X0303240Y0076506D01*
X0303240Y0078905D02*
X0299188Y0078905D01*
X0317951Y0078905D02*
X0323709Y0078905D01*
X0323027Y0076506D02*
X0317951Y0076506D01*
X0317951Y0074108D02*
X0323578Y0074108D01*
X0323996Y0071709D02*
X0317951Y0071709D01*
X0317951Y0069311D02*
X0323027Y0069311D01*
X0323452Y0066912D02*
X0317521Y0066912D01*
X0325007Y0060721D02*
X0326686Y0061417D01*
X0328504Y0061417D01*
X0330183Y0060721D01*
X0331468Y0059436D01*
X0332164Y0057757D01*
X0332164Y0055939D01*
X0331812Y0055092D01*
X0331968Y0054936D01*
X0332664Y0053257D01*
X0332664Y0051439D01*
X0331968Y0049760D01*
X0330683Y0048475D01*
X0329004Y0047780D01*
X0327186Y0047780D01*
X0325507Y0048475D01*
X0324222Y0049760D01*
X0323527Y0051439D01*
X0323527Y0053257D01*
X0323878Y0054105D01*
X0323722Y0054260D01*
X0323027Y0055939D01*
X0323027Y0057757D01*
X0323722Y0059436D01*
X0325007Y0060721D01*
X0324003Y0059717D02*
X0268342Y0059717D01*
X0263448Y0059717D02*
X0261450Y0059717D01*
X0263249Y0057318D02*
X0323027Y0057318D01*
X0323449Y0054920D02*
X0289203Y0054920D01*
X0291347Y0052521D02*
X0323527Y0052521D01*
X0324072Y0050123D02*
X0296213Y0050123D01*
X0292977Y0050123D02*
X0291664Y0050123D01*
X0299468Y0047724D02*
X0302510Y0047724D01*
X0308680Y0047724D02*
X0314510Y0047724D01*
X0313055Y0045326D02*
X0310135Y0045326D01*
X0309952Y0042927D02*
X0313239Y0042927D01*
X0314954Y0040529D02*
X0308237Y0040529D01*
X0302954Y0040529D02*
X0301737Y0040529D01*
X0307507Y0033721D02*
X0309186Y0034417D01*
X0311004Y0034417D01*
X0312683Y0033721D01*
X0313968Y0032436D01*
X0314664Y0030757D01*
X0314664Y0030377D01*
X0315007Y0030721D01*
X0316686Y0031417D01*
X0317950Y0031417D01*
X0317527Y0032439D01*
X0317527Y0034257D01*
X0318222Y0035936D01*
X0319507Y0037221D01*
X0321186Y0037917D01*
X0323004Y0037917D01*
X0324683Y0037221D01*
X0325968Y0035936D01*
X0326034Y0035776D01*
X0326722Y0037436D01*
X0328007Y0038721D01*
X0329686Y0039417D01*
X0331504Y0039417D01*
X0333183Y0038721D01*
X0334468Y0037436D01*
X0335164Y0035757D01*
X0335164Y0033939D01*
X0334468Y0032260D01*
X0333183Y0030975D01*
X0331504Y0030280D01*
X0331164Y0030280D01*
X0331164Y0029939D01*
X0330468Y0028260D01*
X0329183Y0026975D01*
X0327617Y0026326D01*
X0326968Y0024760D01*
X0325861Y0023653D01*
X0326638Y0023653D01*
X0328317Y0022957D01*
X0329602Y0021672D01*
X0330297Y0019993D01*
X0330297Y0018176D01*
X0329602Y0016496D01*
X0328317Y0015211D01*
X0326638Y0014516D01*
X0324820Y0014516D01*
X0323141Y0015211D01*
X0322967Y0015386D01*
X0321504Y0014780D01*
X0319686Y0014780D01*
X0318007Y0015475D01*
X0316722Y0016760D01*
X0316027Y0018439D01*
X0316027Y0020257D01*
X0316722Y0021936D01*
X0317066Y0022280D01*
X0316686Y0022280D01*
X0315007Y0022975D01*
X0313722Y0024260D01*
X0313027Y0025939D01*
X0313027Y0026319D01*
X0312683Y0025975D01*
X0311004Y0025280D01*
X0309186Y0025280D01*
X0307507Y0025975D01*
X0306222Y0027260D01*
X0305527Y0028939D01*
X0305527Y0030757D01*
X0306222Y0032436D01*
X0307507Y0033721D01*
X0307119Y0033333D02*
X0276133Y0033333D01*
X0274057Y0033333D02*
X0272571Y0033333D01*
X0274090Y0030935D02*
X0283721Y0030935D01*
X0284007Y0031221D02*
X0282722Y0029936D01*
X0282027Y0028257D01*
X0282027Y0026439D01*
X0282722Y0024760D01*
X0284007Y0023475D01*
X0285686Y0022780D01*
X0287504Y0022780D01*
X0289183Y0023475D01*
X0290468Y0024760D01*
X0291164Y0026439D01*
X0291164Y0028257D01*
X0290468Y0029936D01*
X0289183Y0031221D01*
X0287504Y0031917D01*
X0285686Y0031917D01*
X0284007Y0031221D01*
X0282142Y0028536D02*
X0273997Y0028536D01*
X0272346Y0026138D02*
X0282152Y0026138D01*
X0283743Y0023739D02*
X0263764Y0023739D01*
X0263738Y0026138D02*
X0266845Y0026138D01*
X0265194Y0028536D02*
X0262631Y0028536D01*
X0262811Y0021341D02*
X0306476Y0021341D01*
X0306722Y0021936D02*
X0306027Y0020257D01*
X0306027Y0018439D01*
X0306722Y0016760D01*
X0308007Y0015475D01*
X0309686Y0014780D01*
X0311504Y0014780D01*
X0313183Y0015475D01*
X0314468Y0016760D01*
X0315164Y0018439D01*
X0315164Y0020257D01*
X0314468Y0021936D01*
X0313183Y0023221D01*
X0311504Y0023917D01*
X0309686Y0023917D01*
X0308007Y0023221D01*
X0306722Y0021936D01*
X0306027Y0018942D02*
X0259456Y0018942D01*
X0255734Y0018942D02*
X0218456Y0018942D01*
X0217822Y0018680D02*
X0220089Y0019619D01*
X0221825Y0021354D01*
X0222252Y0022386D01*
X0222330Y0022234D01*
X0222791Y0021599D01*
X0223346Y0021044D01*
X0223981Y0020582D01*
X0224681Y0020226D01*
X0225427Y0019983D01*
X0226203Y0019861D01*
X0226595Y0019861D01*
X0226595Y0024848D01*
X0226595Y0024848D01*
X0226595Y0019861D01*
X0226988Y0019861D01*
X0227763Y0019983D01*
X0228510Y0020226D01*
X0229209Y0020582D01*
X0229844Y0021044D01*
X0230399Y0021599D01*
X0230861Y0022234D01*
X0231217Y0022934D01*
X0231460Y0023680D01*
X0231583Y0024455D01*
X0231583Y0024848D01*
X0231583Y0025241D01*
X0231460Y0026016D01*
X0231217Y0026763D01*
X0230861Y0027462D01*
X0230399Y0028097D01*
X0229844Y0028652D01*
X0229209Y0029114D01*
X0229057Y0029191D01*
X0230089Y0029619D01*
X0231825Y0031354D01*
X0232764Y0033621D01*
X0232764Y0036075D01*
X0231825Y0038342D01*
X0230319Y0039848D01*
X0231825Y0041354D01*
X0232764Y0043621D01*
X0232764Y0046075D01*
X0231825Y0048342D01*
X0230089Y0050077D01*
X0227822Y0051017D01*
X0225368Y0051017D01*
X0223101Y0050077D01*
X0221366Y0048342D01*
X0220938Y0047310D01*
X0220861Y0047462D01*
X0220399Y0048097D01*
X0219844Y0048652D01*
X0219209Y0049114D01*
X0218510Y0049470D01*
X0217763Y0049713D01*
X0216988Y0049835D01*
X0216595Y0049835D01*
X0216203Y0049835D01*
X0215427Y0049713D01*
X0214681Y0049470D01*
X0213981Y0049114D01*
X0213346Y0048652D01*
X0212791Y0048097D01*
X0212330Y0047462D01*
X0211973Y0046763D01*
X0211731Y0046016D01*
X0211608Y0045241D01*
X0211608Y0044848D01*
X0211608Y0044455D01*
X0211731Y0043680D01*
X0211973Y0042934D01*
X0212330Y0042234D01*
X0212791Y0041599D01*
X0213346Y0041044D01*
X0213981Y0040582D01*
X0214133Y0040505D01*
X0213101Y0040077D01*
X0211366Y0038342D01*
X0210427Y0036075D01*
X0210427Y0035809D01*
X0209007Y0035221D01*
X0207722Y0033936D01*
X0207027Y0032257D01*
X0207027Y0030439D01*
X0207722Y0028760D01*
X0209007Y0027475D01*
X0210686Y0026780D01*
X0210718Y0026780D01*
X0210427Y0026075D01*
X0210427Y0023621D01*
X0211366Y0021354D01*
X0213101Y0019619D01*
X0215368Y0018680D01*
X0217822Y0018680D01*
X0214734Y0018942D02*
X0170462Y0018942D01*
X0172045Y0016544D02*
X0306939Y0016544D01*
X0314252Y0016544D02*
X0316939Y0016544D01*
X0316027Y0018942D02*
X0315164Y0018942D01*
X0314715Y0021341D02*
X0316476Y0021341D01*
X0314243Y0023739D02*
X0311932Y0023739D01*
X0312846Y0026138D02*
X0313027Y0026138D01*
X0309258Y0023739D02*
X0289447Y0023739D01*
X0291039Y0026138D02*
X0307345Y0026138D01*
X0305694Y0028536D02*
X0291048Y0028536D01*
X0289469Y0030935D02*
X0305600Y0030935D01*
X0313071Y0033333D02*
X0317527Y0033333D01*
X0318138Y0035732D02*
X0279163Y0035732D01*
X0279664Y0038130D02*
X0327416Y0038130D01*
X0333774Y0038130D02*
X0409316Y0038130D01*
X0409316Y0035732D02*
X0335164Y0035732D01*
X0334913Y0033333D02*
X0348491Y0033333D01*
X0348873Y0033491D02*
X0346615Y0032556D01*
X0344887Y0030828D01*
X0343952Y0028570D01*
X0343952Y0026126D01*
X0344887Y0023868D01*
X0346615Y0022140D01*
X0347618Y0021725D01*
X0348387Y0019868D01*
X0350115Y0018140D01*
X0352373Y0017205D01*
X0354817Y0017205D01*
X0357075Y0018140D01*
X0358803Y0019868D01*
X0359738Y0022126D01*
X0359738Y0024570D01*
X0358803Y0026828D01*
X0357075Y0028556D01*
X0356072Y0028971D01*
X0355303Y0030828D01*
X0353575Y0032556D01*
X0351317Y0033491D01*
X0348873Y0033491D01*
X0351699Y0033333D02*
X0392892Y0033333D01*
X0392387Y0032828D02*
X0391452Y0030570D01*
X0391452Y0028126D01*
X0392387Y0025868D01*
X0394115Y0024140D01*
X0396373Y0023205D01*
X0398817Y0023205D01*
X0401075Y0024140D01*
X0402803Y0025868D01*
X0403738Y0028126D01*
X0403738Y0030570D01*
X0402803Y0032828D01*
X0401075Y0034556D01*
X0398817Y0035491D01*
X0396373Y0035491D01*
X0394115Y0034556D01*
X0392387Y0032828D01*
X0391603Y0030935D02*
X0355196Y0030935D01*
X0357095Y0028536D02*
X0391452Y0028536D01*
X0392275Y0026138D02*
X0359089Y0026138D01*
X0359738Y0023739D02*
X0395083Y0023739D01*
X0400107Y0023739D02*
X0409316Y0023739D01*
X0409316Y0021341D02*
X0359413Y0021341D01*
X0357877Y0018942D02*
X0409316Y0018942D01*
X0409316Y0016544D02*
X0329622Y0016544D01*
X0330297Y0018942D02*
X0349313Y0018942D01*
X0347777Y0021341D02*
X0329739Y0021341D01*
X0325947Y0023739D02*
X0345016Y0023739D01*
X0343952Y0026138D02*
X0327539Y0026138D01*
X0330582Y0028536D02*
X0343952Y0028536D01*
X0344994Y0030935D02*
X0333085Y0030935D01*
X0315523Y0030935D02*
X0314590Y0030935D01*
X0327221Y0045326D02*
X0336368Y0045326D01*
X0334323Y0047724D02*
X0324468Y0047724D01*
X0321722Y0047724D02*
X0320680Y0047724D01*
X0332118Y0050123D02*
X0334027Y0050123D01*
X0335308Y0052521D02*
X0332664Y0052521D01*
X0331975Y0054920D02*
X0339206Y0054920D01*
X0344984Y0054920D02*
X0356094Y0054920D01*
X0356027Y0057318D02*
X0332164Y0057318D01*
X0331187Y0059717D02*
X0356424Y0059717D01*
X0356200Y0052521D02*
X0346554Y0052521D01*
X0346533Y0050123D02*
X0357860Y0050123D01*
X0402298Y0033333D02*
X0409316Y0033333D01*
X0409316Y0030935D02*
X0403587Y0030935D01*
X0403738Y0028536D02*
X0409316Y0028536D01*
X0409316Y0026138D02*
X0402915Y0026138D01*
X0409316Y0014145D02*
X0172042Y0014145D01*
X0167922Y0021341D02*
X0211379Y0021341D01*
X0210427Y0023739D02*
X0176490Y0023739D01*
X0176226Y0023475D02*
X0177511Y0024760D01*
X0178014Y0025972D01*
X0179686Y0025280D01*
X0181504Y0025280D01*
X0183183Y0025975D01*
X0183595Y0026387D01*
X0184007Y0025975D01*
X0185686Y0025280D01*
X0187504Y0025280D01*
X0189183Y0025975D01*
X0190468Y0027260D01*
X0191164Y0028939D01*
X0191164Y0029910D01*
X0192686Y0029280D01*
X0194504Y0029280D01*
X0196183Y0029975D01*
X0197468Y0031260D01*
X0198164Y0032939D01*
X0198164Y0034757D01*
X0197468Y0036436D01*
X0196183Y0037721D01*
X0194504Y0038417D01*
X0192686Y0038417D01*
X0191007Y0037721D01*
X0190345Y0037059D01*
X0189683Y0037721D01*
X0188004Y0038417D01*
X0186186Y0038417D01*
X0184507Y0037721D01*
X0183222Y0036436D01*
X0182527Y0034757D01*
X0182527Y0033993D01*
X0181504Y0034417D01*
X0179686Y0034417D01*
X0178664Y0033993D01*
X0178664Y0034257D01*
X0177968Y0035936D01*
X0176683Y0037221D01*
X0176626Y0037244D01*
X0177183Y0037475D01*
X0178468Y0038760D01*
X0179164Y0040439D01*
X0179164Y0042257D01*
X0178468Y0043936D01*
X0177183Y0045221D01*
X0175504Y0045917D01*
X0173686Y0045917D01*
X0172007Y0045221D01*
X0170722Y0043936D01*
X0170027Y0042257D01*
X0170027Y0040439D01*
X0170722Y0038760D01*
X0172007Y0037475D01*
X0172064Y0037452D01*
X0171507Y0037221D01*
X0170222Y0035936D01*
X0169527Y0034257D01*
X0169527Y0032439D01*
X0170222Y0030760D01*
X0170406Y0030576D01*
X0169765Y0029936D01*
X0169070Y0028257D01*
X0169070Y0026439D01*
X0169765Y0024760D01*
X0171051Y0023475D01*
X0172730Y0022780D01*
X0174547Y0022780D01*
X0176226Y0023475D01*
X0183346Y0026138D02*
X0183845Y0026138D01*
X0189346Y0026138D02*
X0210453Y0026138D01*
X0207946Y0028536D02*
X0190997Y0028536D01*
X0197143Y0030935D02*
X0207027Y0030935D01*
X0207472Y0033333D02*
X0198164Y0033333D01*
X0197760Y0035732D02*
X0210240Y0035732D01*
X0211278Y0038130D02*
X0195195Y0038130D01*
X0191995Y0038130D02*
X0188695Y0038130D01*
X0185495Y0038130D02*
X0177838Y0038130D01*
X0178053Y0035732D02*
X0182930Y0035732D01*
X0179164Y0040529D02*
X0214087Y0040529D01*
X0211976Y0042927D02*
X0178886Y0042927D01*
X0176930Y0045326D02*
X0211621Y0045326D01*
X0211608Y0044848D02*
X0216595Y0044848D01*
X0211608Y0044848D01*
X0208183Y0047475D02*
X0209468Y0048760D01*
X0210164Y0050439D01*
X0210164Y0052257D01*
X0209468Y0053936D01*
X0208724Y0054680D01*
X0210322Y0054680D01*
X0212589Y0055619D01*
X0214095Y0057124D01*
X0215601Y0055619D01*
X0217868Y0054680D01*
X0220322Y0054680D01*
X0222589Y0055619D01*
X0224095Y0057124D01*
X0225601Y0055619D01*
X0227868Y0054680D01*
X0230322Y0054680D01*
X0232589Y0055619D01*
X0234325Y0057354D01*
X0235264Y0059621D01*
X0235264Y0062075D01*
X0234325Y0064342D01*
X0232589Y0066077D01*
X0231557Y0066505D01*
X0231709Y0066582D01*
X0232344Y0067044D01*
X0232899Y0067599D01*
X0233361Y0068234D01*
X0233717Y0068934D01*
X0233960Y0069680D01*
X0234083Y0070455D01*
X0234083Y0070848D01*
X0234083Y0071241D01*
X0233960Y0072016D01*
X0233717Y0072763D01*
X0233361Y0073462D01*
X0232899Y0074097D01*
X0232344Y0074652D01*
X0231709Y0075114D01*
X0231010Y0075470D01*
X0230263Y0075713D01*
X0229488Y0075835D01*
X0229095Y0075835D01*
X0228703Y0075835D01*
X0227927Y0075713D01*
X0227181Y0075470D01*
X0226481Y0075114D01*
X0225846Y0074652D01*
X0225291Y0074097D01*
X0224830Y0073462D01*
X0224752Y0073310D01*
X0224325Y0074342D01*
X0222589Y0076077D01*
X0220322Y0077017D01*
X0217868Y0077017D01*
X0215601Y0076077D01*
X0214095Y0074572D01*
X0212589Y0076077D01*
X0210322Y0077017D01*
X0207868Y0077017D01*
X0207602Y0076906D01*
X0206968Y0078436D01*
X0205683Y0079721D01*
X0204004Y0080417D01*
X0202186Y0080417D01*
X0200507Y0079721D01*
X0199222Y0078436D01*
X0198527Y0076757D01*
X0198527Y0074939D01*
X0199222Y0073260D01*
X0200507Y0071975D01*
X0202186Y0071280D01*
X0202927Y0071280D01*
X0202927Y0069621D01*
X0203866Y0067354D01*
X0205372Y0065848D01*
X0203866Y0064342D01*
X0202927Y0062075D01*
X0202927Y0059621D01*
X0203866Y0057354D01*
X0205303Y0055917D01*
X0204686Y0055917D01*
X0203007Y0055221D01*
X0201722Y0053936D01*
X0201027Y0052257D01*
X0201027Y0050439D01*
X0201722Y0048760D01*
X0203007Y0047475D01*
X0204686Y0046780D01*
X0206504Y0046780D01*
X0208183Y0047475D01*
X0208432Y0047724D02*
X0212520Y0047724D01*
X0210033Y0050123D02*
X0223210Y0050123D01*
X0221110Y0047724D02*
X0220670Y0047724D01*
X0216595Y0047724D02*
X0216595Y0047724D01*
X0216595Y0049835D02*
X0216595Y0044848D01*
X0216595Y0044848D01*
X0216595Y0044848D01*
X0216595Y0049835D01*
X0216595Y0045326D02*
X0216595Y0045326D01*
X0202758Y0047724D02*
X0051414Y0047724D01*
X0051538Y0050123D02*
X0201158Y0050123D01*
X0201136Y0052521D02*
X0052179Y0052521D01*
X0052820Y0054920D02*
X0160063Y0054920D01*
X0160507Y0054475D02*
X0162186Y0053780D01*
X0164004Y0053780D01*
X0165683Y0054475D01*
X0166968Y0055760D01*
X0167664Y0057439D01*
X0167664Y0059257D01*
X0166968Y0060936D01*
X0165683Y0062221D01*
X0164004Y0062917D01*
X0162186Y0062917D01*
X0160507Y0062221D01*
X0159222Y0060936D01*
X0158527Y0059257D01*
X0158527Y0057439D01*
X0159222Y0055760D01*
X0160507Y0054475D01*
X0158577Y0057318D02*
X0053461Y0057318D01*
X0054102Y0059717D02*
X0158717Y0059717D01*
X0160402Y0062115D02*
X0054743Y0062115D01*
X0055385Y0064514D02*
X0204037Y0064514D01*
X0204307Y0066912D02*
X0180324Y0066912D01*
X0180004Y0066780D02*
X0181683Y0067475D01*
X0182968Y0068760D01*
X0183664Y0070439D01*
X0183664Y0072257D01*
X0182968Y0073936D01*
X0181683Y0075221D01*
X0180004Y0075917D01*
X0178186Y0075917D01*
X0176507Y0075221D01*
X0175222Y0073936D01*
X0174527Y0072257D01*
X0174527Y0070439D01*
X0175222Y0068760D01*
X0176507Y0067475D01*
X0178186Y0066780D01*
X0180004Y0066780D01*
X0177866Y0066912D02*
X0060847Y0066912D01*
X0062401Y0069311D02*
X0174994Y0069311D01*
X0174527Y0071709D02*
X0062738Y0071709D01*
X0062101Y0074108D02*
X0175394Y0074108D01*
X0176507Y0077475D02*
X0178186Y0076780D01*
X0180004Y0076780D01*
X0181683Y0077475D01*
X0182968Y0078760D01*
X0183664Y0080439D01*
X0183664Y0082257D01*
X0182968Y0083936D01*
X0182556Y0084348D01*
X0182968Y0084760D01*
X0183664Y0086439D01*
X0183664Y0088257D01*
X0182968Y0089936D01*
X0181683Y0091221D01*
X0180004Y0091917D01*
X0178186Y0091917D01*
X0176507Y0091221D01*
X0175222Y0089936D01*
X0174527Y0088257D01*
X0174527Y0086439D01*
X0175222Y0084760D01*
X0175634Y0084348D01*
X0175222Y0083936D01*
X0174527Y0082257D01*
X0174527Y0080439D01*
X0175222Y0078760D01*
X0176507Y0077475D01*
X0175162Y0078905D02*
X0051414Y0078905D01*
X0051414Y0081303D02*
X0174527Y0081303D01*
X0175125Y0083702D02*
X0051414Y0083702D01*
X0051414Y0086100D02*
X0174667Y0086100D01*
X0174627Y0088499D02*
X0051414Y0088499D01*
X0051414Y0090897D02*
X0176184Y0090897D01*
X0182007Y0090897D02*
X0194402Y0090897D01*
X0194686Y0090780D02*
X0195527Y0090780D01*
X0195527Y0089939D01*
X0196222Y0088260D01*
X0197507Y0086975D01*
X0199186Y0086280D01*
X0201004Y0086280D01*
X0202683Y0086975D01*
X0203095Y0087387D01*
X0203507Y0086975D01*
X0205186Y0086280D01*
X0207004Y0086280D01*
X0208683Y0086975D01*
X0209968Y0088260D01*
X0210664Y0089939D01*
X0210664Y0091757D01*
X0209968Y0093436D01*
X0208683Y0094721D01*
X0207004Y0095417D01*
X0205186Y0095417D01*
X0203507Y0094721D01*
X0203095Y0094309D01*
X0202683Y0094721D01*
X0201004Y0095417D01*
X0200164Y0095417D01*
X0200164Y0096257D01*
X0199812Y0097105D01*
X0200968Y0098260D01*
X0201664Y0099939D01*
X0201664Y0101757D01*
X0200968Y0103436D01*
X0200437Y0103967D01*
X0201825Y0105354D01*
X0202764Y0107621D01*
X0202764Y0110075D01*
X0201825Y0112342D01*
X0200319Y0113848D01*
X0201825Y0115354D01*
X0202764Y0117621D01*
X0202764Y0120075D01*
X0201825Y0122342D01*
X0200089Y0124077D01*
X0197822Y0125017D01*
X0195368Y0125017D01*
X0193101Y0124077D01*
X0191366Y0122342D01*
X0190427Y0120075D01*
X0190427Y0117621D01*
X0191366Y0115354D01*
X0192872Y0113848D01*
X0191366Y0112342D01*
X0190427Y0110075D01*
X0190427Y0107621D01*
X0191366Y0105354D01*
X0193101Y0103619D01*
X0193316Y0103530D01*
X0193222Y0103436D01*
X0193214Y0103417D01*
X0192686Y0103417D01*
X0191007Y0102721D01*
X0189722Y0101436D01*
X0189027Y0099757D01*
X0189027Y0097939D01*
X0189722Y0096260D01*
X0191007Y0094975D01*
X0191027Y0094967D01*
X0191027Y0094439D01*
X0191722Y0092760D01*
X0193007Y0091475D01*
X0194686Y0090780D01*
X0191500Y0093296D02*
X0051414Y0093296D01*
X0051414Y0095694D02*
X0190288Y0095694D01*
X0189027Y0098093D02*
X0051414Y0098093D01*
X0051414Y0100491D02*
X0189331Y0100491D01*
X0191415Y0102890D02*
X0075271Y0102890D01*
X0075004Y0102780D02*
X0076683Y0103475D01*
X0077968Y0104760D01*
X0078664Y0106439D01*
X0078664Y0108257D01*
X0077968Y0109936D01*
X0076683Y0111221D01*
X0075004Y0111917D01*
X0073186Y0111917D01*
X0071507Y0111221D01*
X0070222Y0109936D01*
X0069527Y0108257D01*
X0069527Y0106439D01*
X0070222Y0104760D01*
X0071507Y0103475D01*
X0073186Y0102780D01*
X0075004Y0102780D01*
X0072920Y0102890D02*
X0051414Y0102890D01*
X0051414Y0105288D02*
X0070003Y0105288D01*
X0069527Y0107687D02*
X0051414Y0107687D01*
X0051414Y0110086D02*
X0070372Y0110086D01*
X0077818Y0110086D02*
X0190431Y0110086D01*
X0190427Y0107687D02*
X0078664Y0107687D01*
X0078187Y0105288D02*
X0191431Y0105288D01*
X0201194Y0102890D02*
X0205996Y0102890D01*
X0206222Y0103436D02*
X0205527Y0101757D01*
X0205527Y0099939D01*
X0206222Y0098260D01*
X0207507Y0096975D01*
X0209186Y0096280D01*
X0211004Y0096280D01*
X0212683Y0096975D01*
X0213968Y0098260D01*
X0214664Y0099939D01*
X0214664Y0101757D01*
X0213968Y0103436D01*
X0212683Y0104721D01*
X0211004Y0105417D01*
X0209186Y0105417D01*
X0207507Y0104721D01*
X0206222Y0103436D01*
X0205527Y0100491D02*
X0201664Y0100491D01*
X0200801Y0098093D02*
X0206389Y0098093D01*
X0200164Y0095694D02*
X0244042Y0095694D01*
X0243527Y0098093D02*
X0231801Y0098093D01*
X0231183Y0097475D02*
X0232468Y0098760D01*
X0233164Y0100439D01*
X0233164Y0102257D01*
X0232468Y0103936D01*
X0231183Y0105221D01*
X0229504Y0105917D01*
X0227686Y0105917D01*
X0226007Y0105221D01*
X0224722Y0103936D01*
X0224027Y0102257D01*
X0224027Y0100439D01*
X0224722Y0098760D01*
X0226007Y0097475D01*
X0227686Y0096780D01*
X0229504Y0096780D01*
X0231183Y0097475D01*
X0225389Y0098093D02*
X0213801Y0098093D01*
X0214664Y0100491D02*
X0224027Y0100491D01*
X0224289Y0102890D02*
X0214194Y0102890D01*
X0211313Y0105288D02*
X0226170Y0105288D01*
X0231020Y0105288D02*
X0250003Y0105288D01*
X0252289Y0102890D02*
X0232901Y0102890D01*
X0233164Y0100491D02*
X0244278Y0100491D01*
X0247147Y0093296D02*
X0210026Y0093296D01*
X0210664Y0090897D02*
X0259027Y0090897D01*
X0259457Y0093296D02*
X0255043Y0093296D01*
X0253147Y0093296D02*
X0249043Y0093296D01*
X0258148Y0095694D02*
X0261835Y0095694D01*
X0261527Y0098093D02*
X0259801Y0098093D01*
X0261164Y0100491D02*
X0262778Y0100491D01*
X0247295Y0107687D02*
X0202764Y0107687D01*
X0202759Y0110086D02*
X0246527Y0110086D01*
X0247035Y0112484D02*
X0213498Y0112484D01*
X0213004Y0112280D02*
X0214683Y0112975D01*
X0215968Y0114260D01*
X0216153Y0114707D01*
X0217186Y0114280D01*
X0219004Y0114280D01*
X0220683Y0114975D01*
X0221132Y0115424D01*
X0222686Y0114780D01*
X0224504Y0114780D01*
X0226183Y0115475D01*
X0227468Y0116760D01*
X0228164Y0118439D01*
X0228164Y0120257D01*
X0227468Y0121936D01*
X0226183Y0123221D01*
X0224504Y0123917D01*
X0222686Y0123917D01*
X0221007Y0123221D01*
X0220559Y0122772D01*
X0219004Y0123417D01*
X0217186Y0123417D01*
X0215507Y0122721D01*
X0214222Y0121436D01*
X0214037Y0120989D01*
X0213004Y0121417D01*
X0211186Y0121417D01*
X0209507Y0120721D01*
X0208222Y0119436D01*
X0207527Y0117757D01*
X0207527Y0115939D01*
X0208222Y0114260D01*
X0209507Y0112975D01*
X0211186Y0112280D01*
X0213004Y0112280D01*
X0210693Y0112484D02*
X0201683Y0112484D01*
X0201353Y0114883D02*
X0207964Y0114883D01*
X0207527Y0117281D02*
X0202623Y0117281D01*
X0202764Y0119680D02*
X0208466Y0119680D01*
X0214864Y0122078D02*
X0201934Y0122078D01*
X0199126Y0124477D02*
X0273532Y0124477D01*
X0273027Y0122078D02*
X0262821Y0122078D01*
X0265281Y0119680D02*
X0273803Y0119680D01*
X0271538Y0117281D02*
X0290027Y0117281D01*
X0290671Y0114883D02*
X0288844Y0114883D01*
X0290164Y0112484D02*
X0316770Y0112484D01*
X0315527Y0110086D02*
X0289883Y0110086D01*
X0298519Y0114883D02*
X0326427Y0114883D01*
X0326690Y0112484D02*
X0323420Y0112484D01*
X0324664Y0110086D02*
X0328134Y0110086D01*
X0337056Y0110086D02*
X0339977Y0110086D01*
X0327133Y0117281D02*
X0317715Y0117281D01*
X0319849Y0119680D02*
X0328540Y0119680D01*
X0326859Y0122078D02*
X0320164Y0122078D01*
X0318927Y0124477D02*
X0326427Y0124477D01*
X0313476Y0117281D02*
X0299164Y0117281D01*
X0298574Y0119680D02*
X0311341Y0119680D01*
X0311027Y0122078D02*
X0294786Y0122078D01*
X0287683Y0130475D02*
X0286004Y0129780D01*
X0284186Y0129780D01*
X0282507Y0130475D01*
X0281222Y0131760D01*
X0280527Y0133439D01*
X0280527Y0135257D01*
X0281222Y0136936D01*
X0282507Y0138221D01*
X0284186Y0138917D01*
X0286004Y0138917D01*
X0287683Y0138221D01*
X0288968Y0136936D01*
X0289664Y0135257D01*
X0289664Y0133439D01*
X0288968Y0131760D01*
X0287683Y0130475D01*
X0288880Y0131672D02*
X0306199Y0131672D01*
X0306527Y0134071D02*
X0289664Y0134071D01*
X0289161Y0136469D02*
X0306822Y0136469D01*
X0306474Y0138868D02*
X0286122Y0138868D01*
X0284068Y0138868D02*
X0253134Y0138868D01*
X0253164Y0138939D02*
X0252468Y0137260D01*
X0251183Y0135975D01*
X0249504Y0135280D01*
X0247686Y0135280D01*
X0246007Y0135975D01*
X0244722Y0137260D01*
X0244027Y0138939D01*
X0244027Y0140757D01*
X0244722Y0142436D01*
X0246007Y0143721D01*
X0247686Y0144417D01*
X0249504Y0144417D01*
X0251183Y0143721D01*
X0252468Y0142436D01*
X0253164Y0140757D01*
X0253164Y0138939D01*
X0252953Y0141266D02*
X0303513Y0141266D01*
X0303027Y0143665D02*
X0282873Y0143665D01*
X0283664Y0146063D02*
X0303849Y0146063D01*
X0308717Y0138868D02*
X0308861Y0138868D01*
X0283165Y0148462D02*
X0335247Y0148462D01*
X0281029Y0136469D02*
X0251677Y0136469D01*
X0245513Y0136469D02*
X0205164Y0136469D01*
X0205164Y0136439D02*
X0204468Y0134760D01*
X0203183Y0133475D01*
X0201504Y0132780D01*
X0199686Y0132780D01*
X0198007Y0133475D01*
X0196722Y0134760D01*
X0196027Y0136439D01*
X0196027Y0138257D01*
X0196722Y0139936D01*
X0198007Y0141221D01*
X0199686Y0141917D01*
X0201504Y0141917D01*
X0203183Y0141221D01*
X0204468Y0139936D01*
X0205164Y0138257D01*
X0205164Y0136439D01*
X0204911Y0138868D02*
X0244056Y0138868D01*
X0244238Y0141266D02*
X0227679Y0141266D01*
X0229843Y0143665D02*
X0245951Y0143665D01*
X0251239Y0143665D02*
X0275318Y0143665D01*
X0274527Y0146063D02*
X0260771Y0146063D01*
X0262164Y0148462D02*
X0275026Y0148462D01*
X0255098Y0153259D02*
X0250664Y0153259D01*
X0250664Y0153757D02*
X0249968Y0155436D01*
X0248683Y0156721D01*
X0247004Y0157417D01*
X0245186Y0157417D01*
X0244664Y0157200D01*
X0244664Y0157757D01*
X0243968Y0159436D01*
X0242683Y0160721D01*
X0241004Y0161417D01*
X0239186Y0161417D01*
X0237507Y0160721D01*
X0236222Y0159436D01*
X0235527Y0157757D01*
X0235527Y0155939D01*
X0236222Y0154260D01*
X0237507Y0152975D01*
X0239186Y0152280D01*
X0241004Y0152280D01*
X0241527Y0152496D01*
X0241527Y0151939D01*
X0242222Y0150260D01*
X0243507Y0148975D01*
X0245186Y0148280D01*
X0247004Y0148280D01*
X0248683Y0148975D01*
X0249968Y0150260D01*
X0250664Y0151939D01*
X0250664Y0153757D01*
X0250775Y0155657D02*
X0249747Y0155657D01*
X0248393Y0158056D02*
X0244540Y0158056D01*
X0242950Y0160454D02*
X0248027Y0160454D01*
X0249139Y0162853D02*
X0233210Y0162853D01*
X0233664Y0160454D02*
X0237241Y0160454D01*
X0235650Y0158056D02*
X0232764Y0158056D01*
X0235643Y0155657D02*
X0168247Y0155657D01*
X0169663Y0153259D02*
X0237224Y0153259D01*
X0241974Y0150860D02*
X0169424Y0150860D01*
X0167651Y0148462D02*
X0222248Y0148462D01*
X0228942Y0148462D02*
X0244747Y0148462D01*
X0247444Y0148462D02*
X0253027Y0148462D01*
X0253277Y0150860D02*
X0250217Y0150860D01*
X0254419Y0146063D02*
X0230164Y0146063D01*
X0223512Y0141266D02*
X0203074Y0141266D01*
X0198116Y0141266D02*
X0139453Y0141266D01*
X0139634Y0138868D02*
X0196280Y0138868D01*
X0196027Y0136469D02*
X0138177Y0136469D01*
X0132013Y0136469D02*
X0053809Y0136469D01*
X0054336Y0134071D02*
X0197412Y0134071D01*
X0203779Y0134071D02*
X0280527Y0134071D01*
X0281310Y0131672D02*
X0054864Y0131672D01*
X0053282Y0138868D02*
X0130556Y0138868D01*
X0130738Y0141266D02*
X0052754Y0141266D01*
X0052227Y0143665D02*
X0132451Y0143665D01*
X0144151Y0148462D02*
X0147040Y0148462D01*
X0152151Y0148462D02*
X0154540Y0148462D01*
X0159651Y0148462D02*
X0162540Y0148462D01*
X0164848Y0158056D02*
X0225427Y0158056D01*
X0224527Y0160454D02*
X0192548Y0160454D01*
X0195061Y0162853D02*
X0224981Y0162853D01*
X0194065Y0124477D02*
X0062363Y0124477D01*
X0062738Y0122078D02*
X0191256Y0122078D01*
X0190427Y0119680D02*
X0062139Y0119680D01*
X0060216Y0117281D02*
X0190567Y0117281D01*
X0191837Y0114883D02*
X0051414Y0114883D01*
X0051414Y0117281D02*
X0052974Y0117281D01*
X0051414Y0112484D02*
X0191508Y0112484D01*
X0201759Y0105288D02*
X0208877Y0105288D01*
X0220460Y0114883D02*
X0222438Y0114883D01*
X0224753Y0114883D02*
X0250104Y0114883D01*
X0252086Y0114883D02*
X0257600Y0114883D01*
X0256527Y0117281D02*
X0227684Y0117281D01*
X0228164Y0119680D02*
X0256909Y0119680D01*
X0259369Y0122078D02*
X0227326Y0122078D01*
X0255155Y0112484D02*
X0264527Y0112484D01*
X0264590Y0114883D02*
X0264786Y0114883D01*
X0265664Y0117281D02*
X0266652Y0117281D01*
X0300717Y0107687D02*
X0304473Y0107687D01*
X0303040Y0105288D02*
X0302151Y0105288D01*
X0301936Y0102890D02*
X0303254Y0102890D01*
X0304991Y0100491D02*
X0300199Y0100491D01*
X0311936Y0102890D02*
X0315254Y0102890D01*
X0315040Y0105288D02*
X0312151Y0105288D01*
X0310717Y0107687D02*
X0315838Y0107687D01*
X0262376Y0086100D02*
X0195304Y0086100D01*
X0195468Y0085936D02*
X0194183Y0087221D01*
X0192504Y0087917D01*
X0190686Y0087917D01*
X0189007Y0087221D01*
X0187722Y0085936D01*
X0187027Y0084257D01*
X0187027Y0082439D01*
X0187722Y0080760D01*
X0189007Y0079475D01*
X0189917Y0079098D01*
X0189007Y0078721D01*
X0187722Y0077436D01*
X0187027Y0075757D01*
X0187027Y0073939D01*
X0187722Y0072260D01*
X0189007Y0070975D01*
X0190686Y0070280D01*
X0192504Y0070280D01*
X0194183Y0070975D01*
X0195468Y0072260D01*
X0196164Y0073939D01*
X0196164Y0075757D01*
X0195468Y0077436D01*
X0194183Y0078721D01*
X0193273Y0079098D01*
X0194183Y0079475D01*
X0195468Y0080760D01*
X0196164Y0082439D01*
X0196164Y0084257D01*
X0195468Y0085936D01*
X0196164Y0083702D02*
X0235988Y0083702D01*
X0236507Y0084221D02*
X0235222Y0082936D01*
X0234527Y0081257D01*
X0234527Y0079439D01*
X0235222Y0077760D01*
X0236507Y0076475D01*
X0238186Y0075780D01*
X0240004Y0075780D01*
X0241683Y0076475D01*
X0242968Y0077760D01*
X0243664Y0079439D01*
X0243664Y0081257D01*
X0242968Y0082936D01*
X0241683Y0084221D01*
X0240004Y0084917D01*
X0238186Y0084917D01*
X0236507Y0084221D01*
X0242202Y0083702D02*
X0262027Y0083702D01*
X0262046Y0081303D02*
X0243644Y0081303D01*
X0243442Y0078905D02*
X0262248Y0078905D01*
X0263976Y0076506D02*
X0241714Y0076506D01*
X0236476Y0076506D02*
X0221554Y0076506D01*
X0224422Y0074108D02*
X0225302Y0074108D01*
X0229095Y0074108D02*
X0229095Y0074108D01*
X0229095Y0075835D02*
X0229095Y0070848D01*
X0229095Y0075835D01*
X0232889Y0074108D02*
X0263394Y0074108D01*
X0262027Y0071709D02*
X0234008Y0071709D01*
X0234083Y0070848D02*
X0229095Y0070848D01*
X0229095Y0070848D01*
X0229095Y0070848D01*
X0234083Y0070848D01*
X0233840Y0069311D02*
X0245368Y0069311D01*
X0247595Y0069311D02*
X0247595Y0069311D01*
X0247595Y0069835D02*
X0247595Y0064848D01*
X0242608Y0064848D01*
X0247595Y0064848D01*
X0247595Y0064848D01*
X0247595Y0064848D01*
X0247595Y0069835D01*
X0249822Y0069311D02*
X0253334Y0069311D01*
X0247595Y0066912D02*
X0247595Y0066912D01*
X0243049Y0066912D02*
X0232163Y0066912D01*
X0234153Y0064514D02*
X0242608Y0064514D01*
X0243416Y0062115D02*
X0235247Y0062115D01*
X0235264Y0059717D02*
X0243740Y0059717D01*
X0241942Y0057318D02*
X0234289Y0057318D01*
X0230902Y0054920D02*
X0241427Y0054920D01*
X0241882Y0052521D02*
X0210054Y0052521D01*
X0210902Y0054920D02*
X0217288Y0054920D01*
X0220902Y0054920D02*
X0227288Y0054920D01*
X0229980Y0050123D02*
X0236409Y0050123D01*
X0234720Y0047724D02*
X0232081Y0047724D01*
X0232764Y0045326D02*
X0234574Y0045326D01*
X0236055Y0042927D02*
X0232476Y0042927D01*
X0230999Y0040529D02*
X0243191Y0040529D01*
X0242278Y0038130D02*
X0231912Y0038130D01*
X0232764Y0035732D02*
X0241427Y0035732D01*
X0241546Y0033333D02*
X0232644Y0033333D01*
X0231405Y0030935D02*
X0242785Y0030935D01*
X0244230Y0028536D02*
X0229960Y0028536D01*
X0231420Y0026138D02*
X0242770Y0026138D01*
X0242721Y0023739D02*
X0231469Y0023739D01*
X0231583Y0024848D02*
X0226595Y0024848D01*
X0226595Y0024848D01*
X0231583Y0024848D01*
X0230141Y0021341D02*
X0244049Y0021341D01*
X0247595Y0021341D02*
X0247595Y0021341D01*
X0247595Y0023739D02*
X0247595Y0023739D01*
X0251141Y0021341D02*
X0252379Y0021341D01*
X0269164Y0035732D02*
X0271027Y0035732D01*
X0268852Y0038130D02*
X0267774Y0038130D01*
X0267527Y0040529D02*
X0261999Y0040529D01*
X0267635Y0042927D02*
X0267804Y0042927D01*
X0268664Y0045326D02*
X0269760Y0045326D01*
X0268263Y0047724D02*
X0273027Y0047724D01*
X0274409Y0050123D02*
X0265713Y0050123D01*
X0262477Y0050123D02*
X0261593Y0050123D01*
X0263308Y0052521D02*
X0282843Y0052521D01*
X0282527Y0050123D02*
X0280781Y0050123D01*
X0284987Y0054920D02*
X0263764Y0054920D01*
X0243597Y0050123D02*
X0241781Y0050123D01*
X0203901Y0057318D02*
X0167613Y0057318D01*
X0167473Y0059717D02*
X0202927Y0059717D01*
X0202943Y0062115D02*
X0165789Y0062115D01*
X0166128Y0054920D02*
X0202706Y0054920D01*
X0203055Y0069311D02*
X0183196Y0069311D01*
X0183664Y0071709D02*
X0188273Y0071709D01*
X0187027Y0074108D02*
X0182796Y0074108D01*
X0187337Y0076506D02*
X0060125Y0076506D01*
X0052967Y0076527D02*
X0052967Y0076527D01*
X0052885Y0076506D02*
X0051414Y0076506D01*
X0051414Y0045326D02*
X0172260Y0045326D01*
X0170304Y0042927D02*
X0146977Y0042927D01*
X0147468Y0042436D02*
X0146183Y0043721D01*
X0144504Y0044417D01*
X0142686Y0044417D01*
X0141007Y0043721D01*
X0139722Y0042436D01*
X0139027Y0040757D01*
X0139027Y0038939D01*
X0139722Y0037260D01*
X0141007Y0035975D01*
X0142686Y0035280D01*
X0144504Y0035280D01*
X0146183Y0035975D01*
X0147468Y0037260D01*
X0148164Y0038939D01*
X0148164Y0040757D01*
X0147468Y0042436D01*
X0148164Y0040529D02*
X0158750Y0040529D01*
X0158007Y0040221D02*
X0156722Y0038936D01*
X0156027Y0037257D01*
X0156027Y0035439D01*
X0156722Y0033760D01*
X0158007Y0032475D01*
X0159686Y0031780D01*
X0161504Y0031780D01*
X0163183Y0032475D01*
X0164468Y0033760D01*
X0165164Y0035439D01*
X0165164Y0037257D01*
X0164468Y0038936D01*
X0163183Y0040221D01*
X0161504Y0040917D01*
X0159686Y0040917D01*
X0158007Y0040221D01*
X0156388Y0038130D02*
X0147828Y0038130D01*
X0149186Y0036417D02*
X0147507Y0035721D01*
X0146222Y0034436D01*
X0145527Y0032757D01*
X0145527Y0030939D01*
X0146082Y0029598D01*
X0145527Y0028257D01*
X0145527Y0026439D01*
X0146222Y0024760D01*
X0147507Y0023475D01*
X0149186Y0022780D01*
X0151004Y0022780D01*
X0152683Y0023475D01*
X0153968Y0024760D01*
X0154664Y0026439D01*
X0154664Y0028257D01*
X0154108Y0029598D01*
X0154664Y0030939D01*
X0154664Y0032757D01*
X0153968Y0034436D01*
X0152683Y0035721D01*
X0151004Y0036417D01*
X0149186Y0036417D01*
X0147533Y0035732D02*
X0145595Y0035732D01*
X0145765Y0033333D02*
X0122425Y0033333D01*
X0122664Y0032757D02*
X0121968Y0034436D01*
X0120683Y0035721D01*
X0119004Y0036417D01*
X0117186Y0036417D01*
X0115507Y0035721D01*
X0114222Y0034436D01*
X0113527Y0032757D01*
X0113527Y0030939D01*
X0114222Y0029260D01*
X0115507Y0027975D01*
X0117186Y0027280D01*
X0119004Y0027280D01*
X0120683Y0027975D01*
X0121968Y0029260D01*
X0122664Y0030939D01*
X0122664Y0032757D01*
X0122662Y0030935D02*
X0145529Y0030935D01*
X0145642Y0028536D02*
X0121244Y0028536D01*
X0114946Y0028536D02*
X0079359Y0028536D01*
X0079150Y0029134D02*
X0078542Y0030398D01*
X0077795Y0031586D01*
X0076921Y0032682D01*
X0075929Y0033674D01*
X0074833Y0034548D01*
X0073645Y0035295D01*
X0072381Y0035903D01*
X0071058Y0036366D01*
X0069690Y0036678D01*
X0068795Y0036779D01*
X0068795Y0025548D01*
X0080026Y0025548D01*
X0079925Y0026443D01*
X0079613Y0027810D01*
X0079150Y0029134D01*
X0078204Y0030935D02*
X0113529Y0030935D01*
X0113765Y0033333D02*
X0076270Y0033333D01*
X0072737Y0035732D02*
X0115533Y0035732D01*
X0120657Y0035732D02*
X0141595Y0035732D01*
X0139362Y0038130D02*
X0051414Y0038130D01*
X0051414Y0035732D02*
X0062453Y0035732D01*
X0062809Y0035903D02*
X0061545Y0035295D01*
X0060358Y0034548D01*
X0059261Y0033674D01*
X0058269Y0032682D01*
X0057395Y0031586D01*
X0056649Y0030398D01*
X0056040Y0029134D01*
X0055577Y0027810D01*
X0055265Y0026443D01*
X0055164Y0025548D01*
X0066395Y0025548D01*
X0066395Y0036779D01*
X0065500Y0036678D01*
X0064133Y0036366D01*
X0062809Y0035903D01*
X0066395Y0035732D02*
X0068795Y0035732D01*
X0068795Y0033333D02*
X0066395Y0033333D01*
X0066395Y0030935D02*
X0068795Y0030935D01*
X0068795Y0028536D02*
X0066395Y0028536D01*
X0066395Y0026138D02*
X0068795Y0026138D01*
X0068795Y0023739D02*
X0079311Y0023739D01*
X0079960Y0026138D02*
X0145652Y0026138D01*
X0147243Y0023739D02*
X0093729Y0023739D01*
X0093876Y0021341D02*
X0156275Y0021341D01*
X0156027Y0023739D02*
X0152947Y0023739D01*
X0154539Y0026138D02*
X0157424Y0026138D01*
X0159642Y0028536D02*
X0154548Y0028536D01*
X0154662Y0030935D02*
X0161221Y0030935D01*
X0164041Y0033333D02*
X0169527Y0033333D01*
X0170138Y0035732D02*
X0165164Y0035732D01*
X0164802Y0038130D02*
X0171352Y0038130D01*
X0170027Y0040529D02*
X0162440Y0040529D01*
X0156027Y0035732D02*
X0152657Y0035732D01*
X0154425Y0033333D02*
X0157149Y0033333D01*
X0166969Y0030935D02*
X0170150Y0030935D01*
X0169186Y0028536D02*
X0168548Y0028536D01*
X0168539Y0026138D02*
X0169195Y0026138D01*
X0170787Y0023739D02*
X0166947Y0023739D01*
X0158087Y0018942D02*
X0093876Y0018942D01*
X0093876Y0016544D02*
X0146459Y0016544D01*
X0144817Y0014145D02*
X0093876Y0014145D01*
X0066395Y0023739D02*
X0051414Y0023739D01*
X0051414Y0021341D02*
X0055473Y0021341D01*
X0056339Y0018942D02*
X0051414Y0018942D01*
X0051414Y0016544D02*
X0057847Y0016544D01*
X0060362Y0014145D02*
X0051414Y0014145D01*
X0051414Y0026138D02*
X0055230Y0026138D01*
X0055831Y0028536D02*
X0051414Y0028536D01*
X0051414Y0030935D02*
X0056986Y0030935D01*
X0058920Y0033333D02*
X0051414Y0033333D01*
X0051414Y0040529D02*
X0139027Y0040529D01*
X0140213Y0042927D02*
X0051414Y0042927D01*
X0151990Y0016544D02*
X0159830Y0016544D01*
X0158187Y0014145D02*
X0153632Y0014145D01*
X0221811Y0021341D02*
X0223049Y0021341D01*
X0226595Y0021341D02*
X0226595Y0021341D01*
X0226595Y0023739D02*
X0226595Y0023739D01*
X0278875Y0040529D02*
X0282085Y0040529D01*
X0285105Y0040529D02*
X0287454Y0040529D01*
X0229095Y0071709D02*
X0229095Y0071709D01*
X0216636Y0076506D02*
X0211554Y0076506D01*
X0206499Y0078905D02*
X0234748Y0078905D01*
X0234546Y0081303D02*
X0195693Y0081303D01*
X0193739Y0078905D02*
X0199691Y0078905D01*
X0198527Y0076506D02*
X0195853Y0076506D01*
X0196164Y0074108D02*
X0198871Y0074108D01*
X0201149Y0071709D02*
X0194917Y0071709D01*
X0189451Y0078905D02*
X0183028Y0078905D01*
X0183664Y0081303D02*
X0187497Y0081303D01*
X0187027Y0083702D02*
X0183065Y0083702D01*
X0183523Y0086100D02*
X0187887Y0086100D01*
X0183563Y0088499D02*
X0196123Y0088499D01*
X0210067Y0088499D02*
X0259983Y0088499D01*
X0149842Y0158056D02*
X0149348Y0158056D01*
X0130563Y0172447D02*
X0409316Y0172447D01*
X0406070Y0069311D02*
X0405120Y0069311D01*
X0405120Y0066912D02*
X0406070Y0066912D01*
X0404622Y0064514D02*
X0409316Y0064514D01*
X0409316Y0062115D02*
X0404763Y0062115D01*
X0404429Y0059717D02*
X0409316Y0059717D01*
X0406070Y0057318D02*
X0405120Y0057318D01*
X0405120Y0054920D02*
X0406070Y0054920D01*
X0122926Y0162853D02*
X0122107Y0162853D01*
X0120720Y0172447D02*
X0124312Y0172447D01*
X0115527Y0153259D02*
X0078517Y0153259D01*
X0076767Y0150860D02*
X0115766Y0150860D01*
X0117540Y0148462D02*
X0073741Y0148462D01*
X0068795Y0148462D02*
X0066395Y0148462D01*
X0066395Y0150860D02*
X0068795Y0150860D01*
X0068795Y0153259D02*
X0066395Y0153259D01*
X0066395Y0155657D02*
X0068795Y0155657D01*
D20*
X0051095Y0125348D02*
X0051105Y0125237D01*
X0051119Y0125127D01*
X0051137Y0125017D01*
X0051159Y0124908D01*
X0051184Y0124799D01*
X0051213Y0124692D01*
X0051246Y0124586D01*
X0051283Y0124480D01*
X0051323Y0124376D01*
X0051366Y0124274D01*
X0051413Y0124173D01*
X0051463Y0124074D01*
X0051517Y0123976D01*
X0051574Y0123881D01*
X0051634Y0123787D01*
X0051698Y0123696D01*
X0051764Y0123606D01*
X0051834Y0123519D01*
X0051906Y0123435D01*
X0051981Y0123353D01*
X0052059Y0123273D01*
X0052140Y0123197D01*
X0052223Y0123123D01*
X0052309Y0123052D01*
X0052397Y0122984D01*
X0052488Y0122919D01*
X0052580Y0122857D01*
X0052675Y0122798D01*
X0052771Y0122743D01*
X0052870Y0122691D01*
X0052970Y0122642D01*
X0053072Y0122597D01*
X0053175Y0122555D01*
X0053279Y0122517D01*
X0053385Y0122483D01*
X0053492Y0122452D01*
X0053600Y0122424D01*
X0053709Y0122401D01*
X0053818Y0122381D01*
X0053928Y0122365D01*
X0054039Y0122352D01*
X0054150Y0122344D01*
X0054261Y0122339D01*
X0054373Y0122338D01*
X0054484Y0122341D01*
X0054595Y0122348D01*
X0056595Y0122348D01*
X0051095Y0125348D02*
X0035595Y0195848D01*
X0053595Y0071348D02*
X0056595Y0071348D01*
X0053595Y0071348D02*
X0053514Y0071358D01*
X0053432Y0071364D01*
X0053351Y0071366D01*
X0053269Y0071364D01*
X0053188Y0071359D01*
X0053107Y0071350D01*
X0053026Y0071337D01*
X0052946Y0071320D01*
X0052867Y0071300D01*
X0052789Y0071276D01*
X0052712Y0071249D01*
X0052636Y0071218D01*
X0052562Y0071183D01*
X0052490Y0071145D01*
X0052419Y0071104D01*
X0052351Y0071060D01*
X0052284Y0071012D01*
X0052220Y0070962D01*
X0052158Y0070908D01*
X0052099Y0070852D01*
X0052042Y0070793D01*
X0051989Y0070732D01*
X0051938Y0070668D01*
X0051890Y0070602D01*
X0051845Y0070534D01*
X0051803Y0070463D01*
X0051765Y0070391D01*
X0051730Y0070317D01*
X0051699Y0070242D01*
X0051671Y0070165D01*
X0051646Y0070087D01*
X0051625Y0070008D01*
X0051608Y0069929D01*
X0051595Y0069848D01*
X0038095Y0019348D01*
X0038063Y0019185D01*
X0038027Y0019023D01*
X0037987Y0018862D01*
X0037943Y0018702D01*
X0037895Y0018543D01*
X0037844Y0018386D01*
X0037788Y0018229D01*
X0037729Y0018074D01*
X0037666Y0017921D01*
X0037600Y0017769D01*
X0037530Y0017619D01*
X0037456Y0017470D01*
X0037379Y0017323D01*
X0037298Y0017178D01*
X0037213Y0017036D01*
X0037126Y0016895D01*
X0037034Y0016756D01*
X0036940Y0016620D01*
X0036842Y0016486D01*
X0036741Y0016354D01*
X0036637Y0016225D01*
X0036530Y0016098D01*
X0036420Y0015974D01*
X0036306Y0015853D01*
X0036190Y0015735D01*
X0036071Y0015619D01*
X0035950Y0015506D01*
X0035825Y0015396D01*
X0035698Y0015290D01*
X0035569Y0015186D01*
X0035437Y0015086D01*
X0035302Y0014988D01*
X0035166Y0014894D01*
X0035027Y0014804D01*
X0034886Y0014716D01*
X0034742Y0014633D01*
X0034597Y0014552D01*
X0034450Y0014475D01*
X0034301Y0014402D01*
X0034151Y0014333D01*
X0033999Y0014267D01*
X0033845Y0014204D01*
X0033690Y0014146D01*
X0033533Y0014091D01*
X0033375Y0014040D01*
X0033216Y0013993D01*
X0033056Y0013950D01*
X0032895Y0013910D01*
X0032733Y0013875D01*
X0032570Y0013843D01*
X0032406Y0013816D01*
X0032242Y0013792D01*
X0032077Y0013772D01*
X0031912Y0013756D01*
X0031747Y0013745D01*
X0031581Y0013737D01*
X0031415Y0013733D01*
X0031249Y0013734D01*
X0031083Y0013738D01*
X0030918Y0013746D01*
X0030752Y0013759D01*
X0030587Y0013775D01*
X0030423Y0013795D01*
X0030258Y0013820D01*
X0030095Y0013848D01*
M02*
