G75*
%MOIN*%
%OFA0B0*%
%FSLAX25Y25*%
%IPPOS*%
%LPD*%
%AMOC8*
5,1,8,0,0,1.08239X$1,22.5*
%
%ADD10C,0.00000*%
%ADD11C,0.00600*%
%ADD12C,0.02362*%
%ADD13C,0.01969*%
D10*
X0022595Y0009348D02*
X0412516Y0009348D01*
X0412516Y0203167D01*
X0022595Y0203167D01*
X0022595Y0009348D01*
D11*
X0267195Y0063848D02*
X0268195Y0063848D01*
X0268195Y0065348D01*
X0267195Y0065348D01*
X0267195Y0063848D01*
X0287695Y0034948D02*
X0289195Y0034948D01*
X0289195Y0033948D01*
X0287695Y0033948D01*
X0287695Y0034948D01*
X0319195Y0034948D02*
X0319195Y0033948D01*
X0320695Y0033948D01*
X0320695Y0034948D01*
X0319195Y0034948D01*
X0336995Y0067048D02*
X0336995Y0068548D01*
X0337995Y0068548D01*
X0337995Y0067048D01*
X0336995Y0067048D01*
X0323795Y0103748D02*
X0322295Y0103748D01*
X0322295Y0104748D01*
X0323795Y0104748D01*
X0323795Y0103748D01*
X0292295Y0103748D02*
X0290795Y0103748D01*
X0290795Y0104748D01*
X0292295Y0104748D01*
X0292295Y0103748D01*
D12*
X0402831Y0105569D02*
X0405587Y0105569D01*
X0405587Y0133128D02*
X0402831Y0133128D01*
X0405587Y0133128D01*
D13*
X0309611Y0073848D02*
X0309613Y0073910D01*
X0309619Y0073973D01*
X0309629Y0074034D01*
X0309643Y0074095D01*
X0309660Y0074155D01*
X0309681Y0074214D01*
X0309707Y0074271D01*
X0309735Y0074326D01*
X0309767Y0074380D01*
X0309803Y0074431D01*
X0309841Y0074481D01*
X0309883Y0074527D01*
X0309927Y0074571D01*
X0309975Y0074612D01*
X0310024Y0074650D01*
X0310076Y0074684D01*
X0310130Y0074715D01*
X0310186Y0074743D01*
X0310244Y0074767D01*
X0310303Y0074788D01*
X0310363Y0074804D01*
X0310424Y0074817D01*
X0310486Y0074826D01*
X0310548Y0074831D01*
X0310611Y0074832D01*
X0310673Y0074829D01*
X0310735Y0074822D01*
X0310797Y0074811D01*
X0310857Y0074796D01*
X0310917Y0074778D01*
X0310975Y0074756D01*
X0311032Y0074730D01*
X0311087Y0074700D01*
X0311140Y0074667D01*
X0311191Y0074631D01*
X0311239Y0074592D01*
X0311285Y0074549D01*
X0311328Y0074504D01*
X0311368Y0074456D01*
X0311405Y0074406D01*
X0311439Y0074353D01*
X0311470Y0074299D01*
X0311496Y0074243D01*
X0311520Y0074185D01*
X0311539Y0074125D01*
X0311555Y0074065D01*
X0311567Y0074003D01*
X0311575Y0073942D01*
X0311579Y0073879D01*
X0311579Y0073817D01*
X0311575Y0073754D01*
X0311567Y0073693D01*
X0311555Y0073631D01*
X0311539Y0073571D01*
X0311520Y0073511D01*
X0311496Y0073453D01*
X0311470Y0073397D01*
X0311439Y0073343D01*
X0311405Y0073290D01*
X0311368Y0073240D01*
X0311328Y0073192D01*
X0311285Y0073147D01*
X0311239Y0073104D01*
X0311191Y0073065D01*
X0311140Y0073029D01*
X0311087Y0072996D01*
X0311032Y0072966D01*
X0310975Y0072940D01*
X0310917Y0072918D01*
X0310857Y0072900D01*
X0310797Y0072885D01*
X0310735Y0072874D01*
X0310673Y0072867D01*
X0310611Y0072864D01*
X0310548Y0072865D01*
X0310486Y0072870D01*
X0310424Y0072879D01*
X0310363Y0072892D01*
X0310303Y0072908D01*
X0310244Y0072929D01*
X0310186Y0072953D01*
X0310130Y0072981D01*
X0310076Y0073012D01*
X0310024Y0073046D01*
X0309975Y0073084D01*
X0309927Y0073125D01*
X0309883Y0073169D01*
X0309841Y0073215D01*
X0309803Y0073265D01*
X0309767Y0073316D01*
X0309735Y0073370D01*
X0309707Y0073425D01*
X0309681Y0073482D01*
X0309660Y0073541D01*
X0309643Y0073601D01*
X0309629Y0073662D01*
X0309619Y0073723D01*
X0309613Y0073786D01*
X0309611Y0073848D01*
X0085536Y0017087D02*
X0085538Y0017149D01*
X0085544Y0017212D01*
X0085554Y0017273D01*
X0085568Y0017334D01*
X0085585Y0017394D01*
X0085606Y0017453D01*
X0085632Y0017510D01*
X0085660Y0017565D01*
X0085692Y0017619D01*
X0085728Y0017670D01*
X0085766Y0017720D01*
X0085808Y0017766D01*
X0085852Y0017810D01*
X0085900Y0017851D01*
X0085949Y0017889D01*
X0086001Y0017923D01*
X0086055Y0017954D01*
X0086111Y0017982D01*
X0086169Y0018006D01*
X0086228Y0018027D01*
X0086288Y0018043D01*
X0086349Y0018056D01*
X0086411Y0018065D01*
X0086473Y0018070D01*
X0086536Y0018071D01*
X0086598Y0018068D01*
X0086660Y0018061D01*
X0086722Y0018050D01*
X0086782Y0018035D01*
X0086842Y0018017D01*
X0086900Y0017995D01*
X0086957Y0017969D01*
X0087012Y0017939D01*
X0087065Y0017906D01*
X0087116Y0017870D01*
X0087164Y0017831D01*
X0087210Y0017788D01*
X0087253Y0017743D01*
X0087293Y0017695D01*
X0087330Y0017645D01*
X0087364Y0017592D01*
X0087395Y0017538D01*
X0087421Y0017482D01*
X0087445Y0017424D01*
X0087464Y0017364D01*
X0087480Y0017304D01*
X0087492Y0017242D01*
X0087500Y0017181D01*
X0087504Y0017118D01*
X0087504Y0017056D01*
X0087500Y0016993D01*
X0087492Y0016932D01*
X0087480Y0016870D01*
X0087464Y0016810D01*
X0087445Y0016750D01*
X0087421Y0016692D01*
X0087395Y0016636D01*
X0087364Y0016582D01*
X0087330Y0016529D01*
X0087293Y0016479D01*
X0087253Y0016431D01*
X0087210Y0016386D01*
X0087164Y0016343D01*
X0087116Y0016304D01*
X0087065Y0016268D01*
X0087012Y0016235D01*
X0086957Y0016205D01*
X0086900Y0016179D01*
X0086842Y0016157D01*
X0086782Y0016139D01*
X0086722Y0016124D01*
X0086660Y0016113D01*
X0086598Y0016106D01*
X0086536Y0016103D01*
X0086473Y0016104D01*
X0086411Y0016109D01*
X0086349Y0016118D01*
X0086288Y0016131D01*
X0086228Y0016147D01*
X0086169Y0016168D01*
X0086111Y0016192D01*
X0086055Y0016220D01*
X0086001Y0016251D01*
X0085949Y0016285D01*
X0085900Y0016323D01*
X0085852Y0016364D01*
X0085808Y0016408D01*
X0085766Y0016454D01*
X0085728Y0016504D01*
X0085692Y0016555D01*
X0085660Y0016609D01*
X0085632Y0016664D01*
X0085606Y0016721D01*
X0085585Y0016780D01*
X0085568Y0016840D01*
X0085554Y0016901D01*
X0085544Y0016962D01*
X0085538Y0017025D01*
X0085536Y0017087D01*
X0066611Y0181348D02*
X0066613Y0181410D01*
X0066619Y0181473D01*
X0066629Y0181534D01*
X0066643Y0181595D01*
X0066660Y0181655D01*
X0066681Y0181714D01*
X0066707Y0181771D01*
X0066735Y0181826D01*
X0066767Y0181880D01*
X0066803Y0181931D01*
X0066841Y0181981D01*
X0066883Y0182027D01*
X0066927Y0182071D01*
X0066975Y0182112D01*
X0067024Y0182150D01*
X0067076Y0182184D01*
X0067130Y0182215D01*
X0067186Y0182243D01*
X0067244Y0182267D01*
X0067303Y0182288D01*
X0067363Y0182304D01*
X0067424Y0182317D01*
X0067486Y0182326D01*
X0067548Y0182331D01*
X0067611Y0182332D01*
X0067673Y0182329D01*
X0067735Y0182322D01*
X0067797Y0182311D01*
X0067857Y0182296D01*
X0067917Y0182278D01*
X0067975Y0182256D01*
X0068032Y0182230D01*
X0068087Y0182200D01*
X0068140Y0182167D01*
X0068191Y0182131D01*
X0068239Y0182092D01*
X0068285Y0182049D01*
X0068328Y0182004D01*
X0068368Y0181956D01*
X0068405Y0181906D01*
X0068439Y0181853D01*
X0068470Y0181799D01*
X0068496Y0181743D01*
X0068520Y0181685D01*
X0068539Y0181625D01*
X0068555Y0181565D01*
X0068567Y0181503D01*
X0068575Y0181442D01*
X0068579Y0181379D01*
X0068579Y0181317D01*
X0068575Y0181254D01*
X0068567Y0181193D01*
X0068555Y0181131D01*
X0068539Y0181071D01*
X0068520Y0181011D01*
X0068496Y0180953D01*
X0068470Y0180897D01*
X0068439Y0180843D01*
X0068405Y0180790D01*
X0068368Y0180740D01*
X0068328Y0180692D01*
X0068285Y0180647D01*
X0068239Y0180604D01*
X0068191Y0180565D01*
X0068140Y0180529D01*
X0068087Y0180496D01*
X0068032Y0180466D01*
X0067975Y0180440D01*
X0067917Y0180418D01*
X0067857Y0180400D01*
X0067797Y0180385D01*
X0067735Y0180374D01*
X0067673Y0180367D01*
X0067611Y0180364D01*
X0067548Y0180365D01*
X0067486Y0180370D01*
X0067424Y0180379D01*
X0067363Y0180392D01*
X0067303Y0180408D01*
X0067244Y0180429D01*
X0067186Y0180453D01*
X0067130Y0180481D01*
X0067076Y0180512D01*
X0067024Y0180546D01*
X0066975Y0180584D01*
X0066927Y0180625D01*
X0066883Y0180669D01*
X0066841Y0180715D01*
X0066803Y0180765D01*
X0066767Y0180816D01*
X0066735Y0180870D01*
X0066707Y0180925D01*
X0066681Y0180982D01*
X0066660Y0181041D01*
X0066643Y0181101D01*
X0066629Y0181162D01*
X0066619Y0181223D01*
X0066613Y0181286D01*
X0066611Y0181348D01*
X0404185Y0195793D02*
X0404187Y0195855D01*
X0404193Y0195918D01*
X0404203Y0195979D01*
X0404217Y0196040D01*
X0404234Y0196100D01*
X0404255Y0196159D01*
X0404281Y0196216D01*
X0404309Y0196271D01*
X0404341Y0196325D01*
X0404377Y0196376D01*
X0404415Y0196426D01*
X0404457Y0196472D01*
X0404501Y0196516D01*
X0404549Y0196557D01*
X0404598Y0196595D01*
X0404650Y0196629D01*
X0404704Y0196660D01*
X0404760Y0196688D01*
X0404818Y0196712D01*
X0404877Y0196733D01*
X0404937Y0196749D01*
X0404998Y0196762D01*
X0405060Y0196771D01*
X0405122Y0196776D01*
X0405185Y0196777D01*
X0405247Y0196774D01*
X0405309Y0196767D01*
X0405371Y0196756D01*
X0405431Y0196741D01*
X0405491Y0196723D01*
X0405549Y0196701D01*
X0405606Y0196675D01*
X0405661Y0196645D01*
X0405714Y0196612D01*
X0405765Y0196576D01*
X0405813Y0196537D01*
X0405859Y0196494D01*
X0405902Y0196449D01*
X0405942Y0196401D01*
X0405979Y0196351D01*
X0406013Y0196298D01*
X0406044Y0196244D01*
X0406070Y0196188D01*
X0406094Y0196130D01*
X0406113Y0196070D01*
X0406129Y0196010D01*
X0406141Y0195948D01*
X0406149Y0195887D01*
X0406153Y0195824D01*
X0406153Y0195762D01*
X0406149Y0195699D01*
X0406141Y0195638D01*
X0406129Y0195576D01*
X0406113Y0195516D01*
X0406094Y0195456D01*
X0406070Y0195398D01*
X0406044Y0195342D01*
X0406013Y0195288D01*
X0405979Y0195235D01*
X0405942Y0195185D01*
X0405902Y0195137D01*
X0405859Y0195092D01*
X0405813Y0195049D01*
X0405765Y0195010D01*
X0405714Y0194974D01*
X0405661Y0194941D01*
X0405606Y0194911D01*
X0405549Y0194885D01*
X0405491Y0194863D01*
X0405431Y0194845D01*
X0405371Y0194830D01*
X0405309Y0194819D01*
X0405247Y0194812D01*
X0405185Y0194809D01*
X0405122Y0194810D01*
X0405060Y0194815D01*
X0404998Y0194824D01*
X0404937Y0194837D01*
X0404877Y0194853D01*
X0404818Y0194874D01*
X0404760Y0194898D01*
X0404704Y0194926D01*
X0404650Y0194957D01*
X0404598Y0194991D01*
X0404549Y0195029D01*
X0404501Y0195070D01*
X0404457Y0195114D01*
X0404415Y0195160D01*
X0404377Y0195210D01*
X0404341Y0195261D01*
X0404309Y0195315D01*
X0404281Y0195370D01*
X0404255Y0195427D01*
X0404234Y0195486D01*
X0404217Y0195546D01*
X0404203Y0195607D01*
X0404193Y0195668D01*
X0404187Y0195731D01*
X0404185Y0195793D01*
M02*
