G75*
%MOIN*%
%OFA0B0*%
%FSLAX25Y25*%
%IPPOS*%
%LPD*%
%AMOC8*
5,1,8,0,0,1.08239X$1,22.5*
%
%ADD10C,0.00000*%
%ADD11C,0.00500*%
%ADD12C,0.00300*%
%ADD13C,0.21000*%
%ADD14C,0.06000*%
%ADD15C,0.05709*%
%ADD16C,0.08850*%
%ADD17C,0.10050*%
%ADD18C,0.01969*%
%ADD19C,0.02800*%
%ADD20C,0.00600*%
%ADD21C,0.01600*%
%ADD22C,0.00800*%
D10*
X0022595Y0009348D02*
X0412516Y0009348D01*
X0412516Y0203167D01*
X0022595Y0203167D01*
X0022595Y0009348D01*
D11*
X0372845Y0180766D02*
X0374013Y0179598D01*
X0375180Y0180766D01*
X0375180Y0183101D01*
X0376528Y0181933D02*
X0377696Y0183101D01*
X0377696Y0179598D01*
X0376528Y0179598D02*
X0378864Y0179598D01*
X0380211Y0179598D02*
X0380795Y0179598D01*
X0380795Y0180182D01*
X0380211Y0180182D01*
X0380211Y0179598D01*
X0382053Y0179598D02*
X0384388Y0181933D01*
X0384388Y0182517D01*
X0383804Y0183101D01*
X0382637Y0183101D01*
X0382053Y0182517D01*
X0382053Y0179598D02*
X0384388Y0179598D01*
X0385002Y0185598D02*
X0383251Y0185598D01*
X0382667Y0186182D01*
X0382667Y0187350D01*
X0383251Y0187933D01*
X0385002Y0187933D01*
X0385002Y0189101D02*
X0385002Y0185598D01*
X0386350Y0185598D02*
X0386350Y0189101D01*
X0387518Y0187933D01*
X0388685Y0189101D01*
X0388685Y0185598D01*
X0390033Y0186182D02*
X0390617Y0185598D01*
X0391785Y0185598D01*
X0392368Y0186766D02*
X0390033Y0186766D01*
X0390033Y0187350D02*
X0390617Y0187933D01*
X0391785Y0187933D01*
X0392368Y0187350D01*
X0392368Y0186766D01*
X0393716Y0186182D02*
X0394300Y0185598D01*
X0395468Y0185598D01*
X0396052Y0186182D01*
X0396052Y0186766D01*
X0395468Y0187350D01*
X0394300Y0187350D01*
X0393716Y0187933D01*
X0393716Y0188517D01*
X0394300Y0189101D01*
X0395468Y0189101D01*
X0396052Y0188517D01*
X0397399Y0187933D02*
X0398567Y0189101D01*
X0399735Y0187933D01*
X0399735Y0185598D01*
X0399735Y0187350D02*
X0397399Y0187350D01*
X0397399Y0187933D02*
X0397399Y0185598D01*
X0402250Y0185598D02*
X0402250Y0189101D01*
X0401083Y0189101D02*
X0403418Y0189101D01*
X0392368Y0191598D02*
X0392368Y0195101D01*
X0392368Y0193350D02*
X0390033Y0193350D01*
X0388685Y0193350D02*
X0386350Y0193350D01*
X0386350Y0193933D02*
X0387518Y0195101D01*
X0388685Y0193933D01*
X0388685Y0191598D01*
X0390033Y0191598D02*
X0390033Y0195101D01*
X0386350Y0193933D02*
X0386350Y0191598D01*
X0385062Y0191598D02*
X0383895Y0191598D01*
X0384478Y0191598D02*
X0384478Y0195101D01*
X0383895Y0195101D02*
X0385062Y0195101D01*
X0382547Y0193350D02*
X0380211Y0193350D01*
X0381963Y0195101D01*
X0381963Y0191598D01*
X0377696Y0193350D02*
X0376528Y0193350D01*
X0376528Y0195101D02*
X0378864Y0195101D01*
X0376528Y0195101D02*
X0376528Y0191598D01*
X0375180Y0192182D02*
X0375180Y0194517D01*
X0374597Y0195101D01*
X0372845Y0195101D01*
X0372845Y0191598D01*
X0374597Y0191598D01*
X0375180Y0192182D01*
X0375180Y0189101D02*
X0372845Y0189101D01*
X0372845Y0185598D01*
X0372845Y0187350D02*
X0374013Y0187350D01*
X0376528Y0187933D02*
X0377112Y0187933D01*
X0377112Y0185598D01*
X0376528Y0185598D02*
X0377696Y0185598D01*
X0378984Y0185598D02*
X0378984Y0187933D01*
X0380735Y0187933D01*
X0381319Y0187350D01*
X0381319Y0185598D01*
X0377112Y0189101D02*
X0377112Y0189685D01*
X0372845Y0183101D02*
X0372845Y0180766D01*
X0390033Y0186182D02*
X0390033Y0187350D01*
D12*
X0395543Y0183896D02*
X0395543Y0182928D01*
X0396026Y0182445D01*
X0395543Y0183896D02*
X0396026Y0184380D01*
X0396510Y0184380D01*
X0398445Y0182445D01*
X0398445Y0184380D01*
X0398445Y0181433D02*
X0398445Y0179498D01*
X0395543Y0179498D01*
D13*
X0396595Y0159348D03*
X0067595Y0159348D03*
X0067595Y0024348D03*
D14*
X0209095Y0060848D03*
X0219095Y0060848D03*
X0229095Y0060848D03*
X0229095Y0070848D03*
X0219095Y0070848D03*
X0209095Y0070848D03*
X0247595Y0064848D03*
X0257595Y0064848D03*
X0257595Y0054848D03*
X0247595Y0054848D03*
X0247595Y0044848D03*
X0257595Y0044848D03*
X0257595Y0034848D03*
X0247595Y0034848D03*
X0247595Y0024848D03*
X0257595Y0024848D03*
X0226595Y0024848D03*
X0216595Y0024848D03*
X0216595Y0034848D03*
X0226595Y0034848D03*
X0226595Y0044848D03*
X0216595Y0044848D03*
X0196595Y0108848D03*
X0196595Y0118848D03*
X0127438Y0167065D03*
X0117595Y0167065D03*
X0107753Y0167065D03*
X0332595Y0134348D03*
X0342595Y0134348D03*
X0342595Y0124348D03*
X0332595Y0124348D03*
X0332595Y0114348D03*
X0342595Y0114348D03*
D15*
X0393579Y0109506D03*
X0393579Y0129191D03*
D16*
X0395595Y0062348D03*
D17*
X0385595Y0052348D03*
X0405595Y0052348D03*
X0405595Y0072348D03*
X0385595Y0072348D03*
D18*
X0309611Y0073848D02*
X0309613Y0073910D01*
X0309619Y0073973D01*
X0309629Y0074034D01*
X0309643Y0074095D01*
X0309660Y0074155D01*
X0309681Y0074214D01*
X0309707Y0074271D01*
X0309735Y0074326D01*
X0309767Y0074380D01*
X0309803Y0074431D01*
X0309841Y0074481D01*
X0309883Y0074527D01*
X0309927Y0074571D01*
X0309975Y0074612D01*
X0310024Y0074650D01*
X0310076Y0074684D01*
X0310130Y0074715D01*
X0310186Y0074743D01*
X0310244Y0074767D01*
X0310303Y0074788D01*
X0310363Y0074804D01*
X0310424Y0074817D01*
X0310486Y0074826D01*
X0310548Y0074831D01*
X0310611Y0074832D01*
X0310673Y0074829D01*
X0310735Y0074822D01*
X0310797Y0074811D01*
X0310857Y0074796D01*
X0310917Y0074778D01*
X0310975Y0074756D01*
X0311032Y0074730D01*
X0311087Y0074700D01*
X0311140Y0074667D01*
X0311191Y0074631D01*
X0311239Y0074592D01*
X0311285Y0074549D01*
X0311328Y0074504D01*
X0311368Y0074456D01*
X0311405Y0074406D01*
X0311439Y0074353D01*
X0311470Y0074299D01*
X0311496Y0074243D01*
X0311520Y0074185D01*
X0311539Y0074125D01*
X0311555Y0074065D01*
X0311567Y0074003D01*
X0311575Y0073942D01*
X0311579Y0073879D01*
X0311579Y0073817D01*
X0311575Y0073754D01*
X0311567Y0073693D01*
X0311555Y0073631D01*
X0311539Y0073571D01*
X0311520Y0073511D01*
X0311496Y0073453D01*
X0311470Y0073397D01*
X0311439Y0073343D01*
X0311405Y0073290D01*
X0311368Y0073240D01*
X0311328Y0073192D01*
X0311285Y0073147D01*
X0311239Y0073104D01*
X0311191Y0073065D01*
X0311140Y0073029D01*
X0311087Y0072996D01*
X0311032Y0072966D01*
X0310975Y0072940D01*
X0310917Y0072918D01*
X0310857Y0072900D01*
X0310797Y0072885D01*
X0310735Y0072874D01*
X0310673Y0072867D01*
X0310611Y0072864D01*
X0310548Y0072865D01*
X0310486Y0072870D01*
X0310424Y0072879D01*
X0310363Y0072892D01*
X0310303Y0072908D01*
X0310244Y0072929D01*
X0310186Y0072953D01*
X0310130Y0072981D01*
X0310076Y0073012D01*
X0310024Y0073046D01*
X0309975Y0073084D01*
X0309927Y0073125D01*
X0309883Y0073169D01*
X0309841Y0073215D01*
X0309803Y0073265D01*
X0309767Y0073316D01*
X0309735Y0073370D01*
X0309707Y0073425D01*
X0309681Y0073482D01*
X0309660Y0073541D01*
X0309643Y0073601D01*
X0309629Y0073662D01*
X0309619Y0073723D01*
X0309613Y0073786D01*
X0309611Y0073848D01*
X0085536Y0017087D02*
X0085538Y0017149D01*
X0085544Y0017212D01*
X0085554Y0017273D01*
X0085568Y0017334D01*
X0085585Y0017394D01*
X0085606Y0017453D01*
X0085632Y0017510D01*
X0085660Y0017565D01*
X0085692Y0017619D01*
X0085728Y0017670D01*
X0085766Y0017720D01*
X0085808Y0017766D01*
X0085852Y0017810D01*
X0085900Y0017851D01*
X0085949Y0017889D01*
X0086001Y0017923D01*
X0086055Y0017954D01*
X0086111Y0017982D01*
X0086169Y0018006D01*
X0086228Y0018027D01*
X0086288Y0018043D01*
X0086349Y0018056D01*
X0086411Y0018065D01*
X0086473Y0018070D01*
X0086536Y0018071D01*
X0086598Y0018068D01*
X0086660Y0018061D01*
X0086722Y0018050D01*
X0086782Y0018035D01*
X0086842Y0018017D01*
X0086900Y0017995D01*
X0086957Y0017969D01*
X0087012Y0017939D01*
X0087065Y0017906D01*
X0087116Y0017870D01*
X0087164Y0017831D01*
X0087210Y0017788D01*
X0087253Y0017743D01*
X0087293Y0017695D01*
X0087330Y0017645D01*
X0087364Y0017592D01*
X0087395Y0017538D01*
X0087421Y0017482D01*
X0087445Y0017424D01*
X0087464Y0017364D01*
X0087480Y0017304D01*
X0087492Y0017242D01*
X0087500Y0017181D01*
X0087504Y0017118D01*
X0087504Y0017056D01*
X0087500Y0016993D01*
X0087492Y0016932D01*
X0087480Y0016870D01*
X0087464Y0016810D01*
X0087445Y0016750D01*
X0087421Y0016692D01*
X0087395Y0016636D01*
X0087364Y0016582D01*
X0087330Y0016529D01*
X0087293Y0016479D01*
X0087253Y0016431D01*
X0087210Y0016386D01*
X0087164Y0016343D01*
X0087116Y0016304D01*
X0087065Y0016268D01*
X0087012Y0016235D01*
X0086957Y0016205D01*
X0086900Y0016179D01*
X0086842Y0016157D01*
X0086782Y0016139D01*
X0086722Y0016124D01*
X0086660Y0016113D01*
X0086598Y0016106D01*
X0086536Y0016103D01*
X0086473Y0016104D01*
X0086411Y0016109D01*
X0086349Y0016118D01*
X0086288Y0016131D01*
X0086228Y0016147D01*
X0086169Y0016168D01*
X0086111Y0016192D01*
X0086055Y0016220D01*
X0086001Y0016251D01*
X0085949Y0016285D01*
X0085900Y0016323D01*
X0085852Y0016364D01*
X0085808Y0016408D01*
X0085766Y0016454D01*
X0085728Y0016504D01*
X0085692Y0016555D01*
X0085660Y0016609D01*
X0085632Y0016664D01*
X0085606Y0016721D01*
X0085585Y0016780D01*
X0085568Y0016840D01*
X0085554Y0016901D01*
X0085544Y0016962D01*
X0085538Y0017025D01*
X0085536Y0017087D01*
X0066611Y0181348D02*
X0066613Y0181410D01*
X0066619Y0181473D01*
X0066629Y0181534D01*
X0066643Y0181595D01*
X0066660Y0181655D01*
X0066681Y0181714D01*
X0066707Y0181771D01*
X0066735Y0181826D01*
X0066767Y0181880D01*
X0066803Y0181931D01*
X0066841Y0181981D01*
X0066883Y0182027D01*
X0066927Y0182071D01*
X0066975Y0182112D01*
X0067024Y0182150D01*
X0067076Y0182184D01*
X0067130Y0182215D01*
X0067186Y0182243D01*
X0067244Y0182267D01*
X0067303Y0182288D01*
X0067363Y0182304D01*
X0067424Y0182317D01*
X0067486Y0182326D01*
X0067548Y0182331D01*
X0067611Y0182332D01*
X0067673Y0182329D01*
X0067735Y0182322D01*
X0067797Y0182311D01*
X0067857Y0182296D01*
X0067917Y0182278D01*
X0067975Y0182256D01*
X0068032Y0182230D01*
X0068087Y0182200D01*
X0068140Y0182167D01*
X0068191Y0182131D01*
X0068239Y0182092D01*
X0068285Y0182049D01*
X0068328Y0182004D01*
X0068368Y0181956D01*
X0068405Y0181906D01*
X0068439Y0181853D01*
X0068470Y0181799D01*
X0068496Y0181743D01*
X0068520Y0181685D01*
X0068539Y0181625D01*
X0068555Y0181565D01*
X0068567Y0181503D01*
X0068575Y0181442D01*
X0068579Y0181379D01*
X0068579Y0181317D01*
X0068575Y0181254D01*
X0068567Y0181193D01*
X0068555Y0181131D01*
X0068539Y0181071D01*
X0068520Y0181011D01*
X0068496Y0180953D01*
X0068470Y0180897D01*
X0068439Y0180843D01*
X0068405Y0180790D01*
X0068368Y0180740D01*
X0068328Y0180692D01*
X0068285Y0180647D01*
X0068239Y0180604D01*
X0068191Y0180565D01*
X0068140Y0180529D01*
X0068087Y0180496D01*
X0068032Y0180466D01*
X0067975Y0180440D01*
X0067917Y0180418D01*
X0067857Y0180400D01*
X0067797Y0180385D01*
X0067735Y0180374D01*
X0067673Y0180367D01*
X0067611Y0180364D01*
X0067548Y0180365D01*
X0067486Y0180370D01*
X0067424Y0180379D01*
X0067363Y0180392D01*
X0067303Y0180408D01*
X0067244Y0180429D01*
X0067186Y0180453D01*
X0067130Y0180481D01*
X0067076Y0180512D01*
X0067024Y0180546D01*
X0066975Y0180584D01*
X0066927Y0180625D01*
X0066883Y0180669D01*
X0066841Y0180715D01*
X0066803Y0180765D01*
X0066767Y0180816D01*
X0066735Y0180870D01*
X0066707Y0180925D01*
X0066681Y0180982D01*
X0066660Y0181041D01*
X0066643Y0181101D01*
X0066629Y0181162D01*
X0066619Y0181223D01*
X0066613Y0181286D01*
X0066611Y0181348D01*
X0404185Y0195793D02*
X0404187Y0195855D01*
X0404193Y0195918D01*
X0404203Y0195979D01*
X0404217Y0196040D01*
X0404234Y0196100D01*
X0404255Y0196159D01*
X0404281Y0196216D01*
X0404309Y0196271D01*
X0404341Y0196325D01*
X0404377Y0196376D01*
X0404415Y0196426D01*
X0404457Y0196472D01*
X0404501Y0196516D01*
X0404549Y0196557D01*
X0404598Y0196595D01*
X0404650Y0196629D01*
X0404704Y0196660D01*
X0404760Y0196688D01*
X0404818Y0196712D01*
X0404877Y0196733D01*
X0404937Y0196749D01*
X0404998Y0196762D01*
X0405060Y0196771D01*
X0405122Y0196776D01*
X0405185Y0196777D01*
X0405247Y0196774D01*
X0405309Y0196767D01*
X0405371Y0196756D01*
X0405431Y0196741D01*
X0405491Y0196723D01*
X0405549Y0196701D01*
X0405606Y0196675D01*
X0405661Y0196645D01*
X0405714Y0196612D01*
X0405765Y0196576D01*
X0405813Y0196537D01*
X0405859Y0196494D01*
X0405902Y0196449D01*
X0405942Y0196401D01*
X0405979Y0196351D01*
X0406013Y0196298D01*
X0406044Y0196244D01*
X0406070Y0196188D01*
X0406094Y0196130D01*
X0406113Y0196070D01*
X0406129Y0196010D01*
X0406141Y0195948D01*
X0406149Y0195887D01*
X0406153Y0195824D01*
X0406153Y0195762D01*
X0406149Y0195699D01*
X0406141Y0195638D01*
X0406129Y0195576D01*
X0406113Y0195516D01*
X0406094Y0195456D01*
X0406070Y0195398D01*
X0406044Y0195342D01*
X0406013Y0195288D01*
X0405979Y0195235D01*
X0405942Y0195185D01*
X0405902Y0195137D01*
X0405859Y0195092D01*
X0405813Y0195049D01*
X0405765Y0195010D01*
X0405714Y0194974D01*
X0405661Y0194941D01*
X0405606Y0194911D01*
X0405549Y0194885D01*
X0405491Y0194863D01*
X0405431Y0194845D01*
X0405371Y0194830D01*
X0405309Y0194819D01*
X0405247Y0194812D01*
X0405185Y0194809D01*
X0405122Y0194810D01*
X0405060Y0194815D01*
X0404998Y0194824D01*
X0404937Y0194837D01*
X0404877Y0194853D01*
X0404818Y0194874D01*
X0404760Y0194898D01*
X0404704Y0194926D01*
X0404650Y0194957D01*
X0404598Y0194991D01*
X0404549Y0195029D01*
X0404501Y0195070D01*
X0404457Y0195114D01*
X0404415Y0195160D01*
X0404377Y0195210D01*
X0404341Y0195261D01*
X0404309Y0195315D01*
X0404281Y0195370D01*
X0404255Y0195427D01*
X0404234Y0195486D01*
X0404217Y0195546D01*
X0404203Y0195607D01*
X0404193Y0195668D01*
X0404187Y0195731D01*
X0404185Y0195793D01*
D19*
X0361095Y0165848D03*
X0360095Y0161848D03*
X0371095Y0165348D03*
X0377095Y0165348D03*
X0367095Y0154348D03*
X0380595Y0150848D03*
X0398095Y0141348D03*
X0388095Y0126848D03*
X0388595Y0122348D03*
X0385595Y0118848D03*
X0388595Y0115848D03*
X0388095Y0105848D03*
X0389595Y0095848D03*
X0392355Y0088848D03*
X0397095Y0083348D03*
X0406095Y0087348D03*
X0364595Y0085848D03*
X0352595Y0082848D03*
X0352595Y0092848D03*
X0328095Y0080348D03*
X0327595Y0076348D03*
X0327595Y0068848D03*
X0327595Y0056848D03*
X0328095Y0052348D03*
X0328095Y0048348D03*
X0323095Y0043348D03*
X0317595Y0044348D03*
X0305595Y0044348D03*
X0301595Y0045848D03*
X0298095Y0043348D03*
X0294595Y0045848D03*
X0291095Y0043348D03*
X0287595Y0046348D03*
X0283595Y0044848D03*
X0277595Y0046848D03*
X0272095Y0041348D03*
X0275095Y0037848D03*
X0269595Y0029848D03*
X0264595Y0034848D03*
X0264095Y0045848D03*
X0276595Y0052348D03*
X0287095Y0050848D03*
X0265895Y0063648D03*
X0264095Y0067348D03*
X0266595Y0070848D03*
X0281595Y0071348D03*
X0288095Y0066348D03*
X0295095Y0076848D03*
X0300095Y0089348D03*
X0292095Y0094848D03*
X0288095Y0094848D03*
X0297595Y0104348D03*
X0307595Y0104348D03*
X0319595Y0104348D03*
X0320095Y0109348D03*
X0315595Y0121348D03*
X0310595Y0130348D03*
X0311095Y0134848D03*
X0327095Y0137848D03*
X0307595Y0143348D03*
X0296095Y0135348D03*
X0285095Y0134348D03*
X0281095Y0134348D03*
X0292095Y0125848D03*
X0297595Y0121348D03*
X0294595Y0117348D03*
X0285595Y0111671D03*
X0277595Y0122348D03*
X0269095Y0122348D03*
X0261095Y0117848D03*
X0269095Y0113348D03*
X0262595Y0109848D03*
X0254095Y0107348D03*
X0251095Y0110348D03*
X0256595Y0101348D03*
X0254095Y0097848D03*
X0248095Y0097848D03*
X0263595Y0091348D03*
X0266595Y0088348D03*
X0266595Y0084348D03*
X0266595Y0080348D03*
X0239095Y0080348D03*
X0222595Y0086848D03*
X0214095Y0082710D03*
X0205095Y0083348D03*
X0203095Y0075848D03*
X0191595Y0074848D03*
X0179095Y0071348D03*
X0179095Y0081348D03*
X0179095Y0087348D03*
X0191595Y0083348D03*
X0200095Y0090848D03*
X0206095Y0090848D03*
X0195595Y0095348D03*
X0193595Y0098848D03*
X0197095Y0100848D03*
X0206595Y0098348D03*
X0210095Y0100848D03*
X0228595Y0101348D03*
X0228095Y0115848D03*
X0223595Y0119348D03*
X0218095Y0118848D03*
X0212095Y0116848D03*
X0241095Y0134348D03*
X0248595Y0139848D03*
X0257595Y0149348D03*
X0246095Y0152848D03*
X0240095Y0156848D03*
X0229095Y0160848D03*
X0225595Y0145348D03*
X0211595Y0145348D03*
X0210095Y0137348D03*
X0200595Y0137348D03*
X0165095Y0152348D03*
X0161095Y0155348D03*
X0157095Y0152348D03*
X0153595Y0155348D03*
X0149595Y0152348D03*
X0145595Y0155348D03*
X0141595Y0152348D03*
X0138095Y0155348D03*
X0133095Y0152348D03*
X0120095Y0152348D03*
X0110095Y0143848D03*
X0135095Y0139848D03*
X0182595Y0162848D03*
X0188595Y0162848D03*
X0185595Y0165848D03*
X0191595Y0165848D03*
X0252595Y0159848D03*
X0279095Y0146348D03*
X0270095Y0144348D03*
X0289595Y0150848D03*
X0304595Y0156848D03*
X0336595Y0152848D03*
X0354595Y0130348D03*
X0317095Y0095348D03*
X0313095Y0094848D03*
X0321595Y0094348D03*
X0325595Y0084348D03*
X0364595Y0068848D03*
X0360595Y0057848D03*
X0360595Y0053848D03*
X0369595Y0047848D03*
X0383595Y0040848D03*
X0377095Y0035348D03*
X0357095Y0036848D03*
X0350095Y0027348D03*
X0353595Y0023348D03*
X0365095Y0015348D03*
X0387595Y0014848D03*
X0407595Y0014848D03*
X0397595Y0029348D03*
X0407595Y0043348D03*
X0342095Y0051348D03*
X0338595Y0049348D03*
X0330595Y0034848D03*
X0326595Y0030848D03*
X0323095Y0027348D03*
X0317595Y0026848D03*
X0310095Y0029848D03*
X0322095Y0033348D03*
X0336595Y0021348D03*
X0325729Y0019084D03*
X0320595Y0019348D03*
X0315595Y0019348D03*
X0310595Y0019348D03*
X0286595Y0027348D03*
X0239095Y0046348D03*
X0211595Y0031348D03*
X0200595Y0024348D03*
X0186595Y0029848D03*
X0187095Y0033848D03*
X0180595Y0029848D03*
X0174095Y0033348D03*
X0173638Y0027348D03*
X0164095Y0027348D03*
X0160595Y0022848D03*
X0163595Y0019848D03*
X0167595Y0015348D03*
X0162595Y0012848D03*
X0157595Y0012848D03*
X0149224Y0012848D03*
X0150095Y0027348D03*
X0150095Y0031848D03*
X0160595Y0036348D03*
X0174595Y0041348D03*
X0164544Y0046848D03*
X0149595Y0056348D03*
X0163095Y0058348D03*
X0143595Y0039848D03*
X0118095Y0031848D03*
X0097095Y0014348D03*
X0044359Y0027898D03*
X0036481Y0028066D03*
X0040393Y0042944D03*
X0048215Y0042804D03*
X0044419Y0058031D03*
X0055095Y0063848D03*
X0056595Y0071348D03*
X0048349Y0072938D03*
X0053595Y0077348D03*
X0082095Y0077348D03*
X0084095Y0066348D03*
X0103595Y0052848D03*
X0030095Y0013848D03*
X0040670Y0013323D03*
X0193595Y0033848D03*
X0205595Y0051348D03*
X0266095Y0097348D03*
X0250095Y0126848D03*
X0083595Y0128848D03*
X0083595Y0116848D03*
X0074095Y0107348D03*
X0055095Y0116848D03*
X0056595Y0122348D03*
X0049188Y0116494D03*
X0055595Y0128848D03*
X0046156Y0129477D03*
X0042913Y0144399D03*
X0039280Y0159377D03*
X0047843Y0159414D03*
X0044396Y0174428D03*
X0035897Y0174412D03*
X0032662Y0189434D03*
X0040716Y0189576D03*
X0035595Y0195848D03*
D20*
X0033318Y0190531D02*
X0039800Y0190491D01*
X0050146Y0147104D01*
X0056744Y0131394D01*
X0056650Y0127591D01*
X0055552Y0127591D01*
X0053625Y0126793D01*
X0052150Y0125318D01*
X0051352Y0123391D01*
X0051352Y0121305D01*
X0052150Y0119378D01*
X0053625Y0117903D01*
X0055552Y0117105D01*
X0056595Y0117105D01*
X0056595Y0115348D01*
X0050244Y0115496D01*
X0033318Y0190531D01*
X0033415Y0190098D02*
X0039893Y0190098D01*
X0040036Y0189500D02*
X0033550Y0189500D01*
X0033685Y0188901D02*
X0040179Y0188901D01*
X0040321Y0188303D02*
X0033820Y0188303D01*
X0033955Y0187704D02*
X0040464Y0187704D01*
X0040607Y0187106D02*
X0034090Y0187106D01*
X0034225Y0186507D02*
X0040750Y0186507D01*
X0040892Y0185909D02*
X0034360Y0185909D01*
X0034495Y0185310D02*
X0041035Y0185310D01*
X0041178Y0184712D02*
X0034630Y0184712D01*
X0034765Y0184113D02*
X0041320Y0184113D01*
X0041463Y0183515D02*
X0034900Y0183515D01*
X0035035Y0182916D02*
X0041606Y0182916D01*
X0041749Y0182318D02*
X0035170Y0182318D01*
X0035305Y0181719D02*
X0041891Y0181719D01*
X0042034Y0181121D02*
X0035440Y0181121D01*
X0035575Y0180522D02*
X0042177Y0180522D01*
X0042320Y0179924D02*
X0035710Y0179924D01*
X0035845Y0179325D02*
X0042462Y0179325D01*
X0042605Y0178727D02*
X0035980Y0178727D01*
X0036115Y0178128D02*
X0042748Y0178128D01*
X0042890Y0177530D02*
X0036250Y0177530D01*
X0036385Y0176931D02*
X0043033Y0176931D01*
X0043176Y0176333D02*
X0036520Y0176333D01*
X0036655Y0175734D02*
X0043319Y0175734D01*
X0043461Y0175136D02*
X0036790Y0175136D01*
X0036925Y0174537D02*
X0043604Y0174537D01*
X0043747Y0173939D02*
X0037060Y0173939D01*
X0037196Y0173340D02*
X0043889Y0173340D01*
X0044032Y0172742D02*
X0037331Y0172742D01*
X0037466Y0172143D02*
X0044175Y0172143D01*
X0044318Y0171545D02*
X0037601Y0171545D01*
X0037736Y0170946D02*
X0044460Y0170946D01*
X0044603Y0170348D02*
X0037871Y0170348D01*
X0038006Y0169749D02*
X0044746Y0169749D01*
X0044888Y0169151D02*
X0038141Y0169151D01*
X0038276Y0168552D02*
X0045031Y0168552D01*
X0045174Y0167954D02*
X0038411Y0167954D01*
X0038546Y0167355D02*
X0045317Y0167355D01*
X0045459Y0166757D02*
X0038681Y0166757D01*
X0038816Y0166158D02*
X0045602Y0166158D01*
X0045745Y0165559D02*
X0038951Y0165559D01*
X0039086Y0164961D02*
X0045887Y0164961D01*
X0046030Y0164362D02*
X0039221Y0164362D01*
X0039356Y0163764D02*
X0046173Y0163764D01*
X0046316Y0163165D02*
X0039491Y0163165D01*
X0039626Y0162567D02*
X0046458Y0162567D01*
X0046601Y0161968D02*
X0039761Y0161968D01*
X0039896Y0161370D02*
X0046744Y0161370D01*
X0046887Y0160771D02*
X0040031Y0160771D01*
X0040166Y0160173D02*
X0047029Y0160173D01*
X0047172Y0159574D02*
X0040301Y0159574D01*
X0040436Y0158976D02*
X0047315Y0158976D01*
X0047457Y0158377D02*
X0040571Y0158377D01*
X0040706Y0157779D02*
X0047600Y0157779D01*
X0047743Y0157180D02*
X0040841Y0157180D01*
X0040976Y0156582D02*
X0047886Y0156582D01*
X0048028Y0155983D02*
X0041111Y0155983D01*
X0041246Y0155385D02*
X0048171Y0155385D01*
X0048314Y0154786D02*
X0041381Y0154786D01*
X0041516Y0154188D02*
X0048456Y0154188D01*
X0048599Y0153589D02*
X0041651Y0153589D01*
X0041786Y0152991D02*
X0048742Y0152991D01*
X0048885Y0152392D02*
X0041921Y0152392D01*
X0042056Y0151794D02*
X0049027Y0151794D01*
X0049170Y0151195D02*
X0042191Y0151195D01*
X0042326Y0150597D02*
X0049313Y0150597D01*
X0049455Y0149998D02*
X0042461Y0149998D01*
X0042596Y0149400D02*
X0049598Y0149400D01*
X0049741Y0148801D02*
X0042731Y0148801D01*
X0042866Y0148203D02*
X0049884Y0148203D01*
X0050026Y0147604D02*
X0043001Y0147604D01*
X0043136Y0147006D02*
X0050187Y0147006D01*
X0050438Y0146407D02*
X0043271Y0146407D01*
X0043406Y0145809D02*
X0050690Y0145809D01*
X0050941Y0145210D02*
X0043541Y0145210D01*
X0043676Y0144612D02*
X0051193Y0144612D01*
X0051444Y0144013D02*
X0043811Y0144013D01*
X0043946Y0143415D02*
X0051695Y0143415D01*
X0051947Y0142816D02*
X0044081Y0142816D01*
X0044216Y0142218D02*
X0052198Y0142218D01*
X0052450Y0141619D02*
X0044351Y0141619D01*
X0044486Y0141021D02*
X0052701Y0141021D01*
X0052952Y0140422D02*
X0044621Y0140422D01*
X0044756Y0139823D02*
X0053204Y0139823D01*
X0053455Y0139225D02*
X0044891Y0139225D01*
X0045026Y0138626D02*
X0053706Y0138626D01*
X0053958Y0138028D02*
X0045161Y0138028D01*
X0045296Y0137429D02*
X0054209Y0137429D01*
X0054461Y0136831D02*
X0045431Y0136831D01*
X0045566Y0136232D02*
X0054712Y0136232D01*
X0054963Y0135634D02*
X0045701Y0135634D01*
X0045836Y0135035D02*
X0055215Y0135035D01*
X0055466Y0134437D02*
X0045971Y0134437D01*
X0046106Y0133838D02*
X0055718Y0133838D01*
X0055969Y0133240D02*
X0046241Y0133240D01*
X0046376Y0132641D02*
X0056220Y0132641D01*
X0056472Y0132043D02*
X0046511Y0132043D01*
X0046646Y0131444D02*
X0056723Y0131444D01*
X0056731Y0130846D02*
X0046781Y0130846D01*
X0046916Y0130247D02*
X0056716Y0130247D01*
X0056701Y0129649D02*
X0047051Y0129649D01*
X0047186Y0129050D02*
X0056686Y0129050D01*
X0056672Y0128452D02*
X0047321Y0128452D01*
X0047456Y0127853D02*
X0056657Y0127853D01*
X0054740Y0127255D02*
X0047591Y0127255D01*
X0047726Y0126656D02*
X0053488Y0126656D01*
X0052890Y0126058D02*
X0047861Y0126058D01*
X0047996Y0125459D02*
X0052291Y0125459D01*
X0051961Y0124861D02*
X0048131Y0124861D01*
X0048266Y0124262D02*
X0051713Y0124262D01*
X0051465Y0123664D02*
X0048401Y0123664D01*
X0048536Y0123065D02*
X0051352Y0123065D01*
X0051352Y0122467D02*
X0048671Y0122467D01*
X0048806Y0121868D02*
X0051352Y0121868D01*
X0051366Y0121270D02*
X0048941Y0121270D01*
X0049076Y0120671D02*
X0051614Y0120671D01*
X0051862Y0120073D02*
X0049211Y0120073D01*
X0049346Y0119474D02*
X0052110Y0119474D01*
X0052652Y0118876D02*
X0049481Y0118876D01*
X0049616Y0118277D02*
X0053251Y0118277D01*
X0054167Y0117679D02*
X0049751Y0117679D01*
X0049886Y0117080D02*
X0056595Y0117080D01*
X0056595Y0116482D02*
X0050021Y0116482D01*
X0050156Y0115883D02*
X0056595Y0115883D01*
X0055392Y0078392D02*
X0050594Y0078569D01*
X0034595Y0017348D01*
X0034595Y0016685D01*
X0035338Y0014891D01*
X0035338Y0012805D01*
X0035149Y0012348D01*
X0039595Y0012348D01*
X0051410Y0059144D01*
X0051911Y0059501D01*
X0051948Y0059741D01*
X0051969Y0059757D01*
X0051975Y0059783D01*
X0052200Y0059926D01*
X0052415Y0060084D01*
X0052442Y0060080D01*
X0054995Y0061705D01*
X0056595Y0062848D01*
X0056595Y0066105D01*
X0055552Y0066105D01*
X0053625Y0066903D01*
X0052150Y0068378D01*
X0051352Y0070305D01*
X0051352Y0072391D01*
X0052150Y0074318D01*
X0053625Y0075793D01*
X0055552Y0076591D01*
X0056595Y0076591D01*
X0056595Y0078049D01*
X0055392Y0078392D01*
X0056146Y0078177D02*
X0050492Y0078177D01*
X0050335Y0077578D02*
X0056595Y0077578D01*
X0056595Y0076980D02*
X0050179Y0076980D01*
X0050022Y0076381D02*
X0055045Y0076381D01*
X0053615Y0075783D02*
X0049866Y0075783D01*
X0049710Y0075184D02*
X0053016Y0075184D01*
X0052418Y0074586D02*
X0049553Y0074586D01*
X0049397Y0073987D02*
X0052013Y0073987D01*
X0051765Y0073389D02*
X0049240Y0073389D01*
X0049084Y0072790D02*
X0051517Y0072790D01*
X0051352Y0072192D02*
X0048927Y0072192D01*
X0048771Y0071593D02*
X0051352Y0071593D01*
X0051352Y0070995D02*
X0048615Y0070995D01*
X0048458Y0070396D02*
X0051352Y0070396D01*
X0051562Y0069798D02*
X0048302Y0069798D01*
X0048145Y0069199D02*
X0051810Y0069199D01*
X0052058Y0068601D02*
X0047989Y0068601D01*
X0047833Y0068002D02*
X0052526Y0068002D01*
X0053124Y0067404D02*
X0047676Y0067404D01*
X0047520Y0066805D02*
X0053861Y0066805D01*
X0055306Y0066207D02*
X0047363Y0066207D01*
X0047207Y0065608D02*
X0056595Y0065608D01*
X0056595Y0065010D02*
X0047051Y0065010D01*
X0046894Y0064411D02*
X0056595Y0064411D01*
X0056595Y0063813D02*
X0046738Y0063813D01*
X0046581Y0063214D02*
X0056595Y0063214D01*
X0056270Y0062616D02*
X0046425Y0062616D01*
X0046269Y0062017D02*
X0055432Y0062017D01*
X0054545Y0061419D02*
X0046112Y0061419D01*
X0045956Y0060820D02*
X0053604Y0060820D01*
X0052664Y0060221D02*
X0045799Y0060221D01*
X0045643Y0059623D02*
X0051929Y0059623D01*
X0051380Y0059024D02*
X0045486Y0059024D01*
X0045330Y0058426D02*
X0051229Y0058426D01*
X0051077Y0057827D02*
X0045174Y0057827D01*
X0045017Y0057229D02*
X0050926Y0057229D01*
X0050775Y0056630D02*
X0044861Y0056630D01*
X0044704Y0056032D02*
X0050624Y0056032D01*
X0050473Y0055433D02*
X0044548Y0055433D01*
X0044392Y0054835D02*
X0050322Y0054835D01*
X0050171Y0054236D02*
X0044235Y0054236D01*
X0044079Y0053638D02*
X0050020Y0053638D01*
X0049869Y0053039D02*
X0043922Y0053039D01*
X0043766Y0052441D02*
X0049718Y0052441D01*
X0049566Y0051842D02*
X0043610Y0051842D01*
X0043453Y0051244D02*
X0049415Y0051244D01*
X0049264Y0050645D02*
X0043297Y0050645D01*
X0043140Y0050047D02*
X0049113Y0050047D01*
X0048962Y0049448D02*
X0042984Y0049448D01*
X0042828Y0048850D02*
X0048811Y0048850D01*
X0048660Y0048251D02*
X0042671Y0048251D01*
X0042515Y0047653D02*
X0048509Y0047653D01*
X0048358Y0047054D02*
X0042358Y0047054D01*
X0042202Y0046456D02*
X0048206Y0046456D01*
X0048055Y0045857D02*
X0042045Y0045857D01*
X0041889Y0045259D02*
X0047904Y0045259D01*
X0047753Y0044660D02*
X0041733Y0044660D01*
X0041576Y0044062D02*
X0047602Y0044062D01*
X0047451Y0043463D02*
X0041420Y0043463D01*
X0041263Y0042865D02*
X0047300Y0042865D01*
X0047149Y0042266D02*
X0041107Y0042266D01*
X0040951Y0041668D02*
X0046998Y0041668D01*
X0046846Y0041069D02*
X0040794Y0041069D01*
X0040638Y0040471D02*
X0046695Y0040471D01*
X0046544Y0039872D02*
X0040481Y0039872D01*
X0040325Y0039274D02*
X0046393Y0039274D01*
X0046242Y0038675D02*
X0040169Y0038675D01*
X0040012Y0038077D02*
X0046091Y0038077D01*
X0045940Y0037478D02*
X0039856Y0037478D01*
X0039699Y0036880D02*
X0045789Y0036880D01*
X0045638Y0036281D02*
X0039543Y0036281D01*
X0039387Y0035683D02*
X0045486Y0035683D01*
X0045335Y0035084D02*
X0039230Y0035084D01*
X0039074Y0034486D02*
X0045184Y0034486D01*
X0045033Y0033887D02*
X0038917Y0033887D01*
X0038761Y0033288D02*
X0044882Y0033288D01*
X0044731Y0032690D02*
X0038604Y0032690D01*
X0038448Y0032091D02*
X0044580Y0032091D01*
X0044429Y0031493D02*
X0038292Y0031493D01*
X0038135Y0030894D02*
X0044278Y0030894D01*
X0044127Y0030296D02*
X0037979Y0030296D01*
X0037822Y0029697D02*
X0043975Y0029697D01*
X0043824Y0029099D02*
X0037666Y0029099D01*
X0037510Y0028500D02*
X0043673Y0028500D01*
X0043522Y0027902D02*
X0037353Y0027902D01*
X0037197Y0027303D02*
X0043371Y0027303D01*
X0043220Y0026705D02*
X0037040Y0026705D01*
X0036884Y0026106D02*
X0043069Y0026106D01*
X0042918Y0025508D02*
X0036728Y0025508D01*
X0036571Y0024909D02*
X0042767Y0024909D01*
X0042615Y0024311D02*
X0036415Y0024311D01*
X0036258Y0023712D02*
X0042464Y0023712D01*
X0042313Y0023114D02*
X0036102Y0023114D01*
X0035945Y0022515D02*
X0042162Y0022515D01*
X0042011Y0021917D02*
X0035789Y0021917D01*
X0035633Y0021318D02*
X0041860Y0021318D01*
X0041709Y0020720D02*
X0035476Y0020720D01*
X0035320Y0020121D02*
X0041558Y0020121D01*
X0041407Y0019523D02*
X0035163Y0019523D01*
X0035007Y0018924D02*
X0041255Y0018924D01*
X0041104Y0018326D02*
X0034851Y0018326D01*
X0034694Y0017727D02*
X0040953Y0017727D01*
X0040802Y0017129D02*
X0034595Y0017129D01*
X0034659Y0016530D02*
X0040651Y0016530D01*
X0040500Y0015932D02*
X0034907Y0015932D01*
X0035155Y0015333D02*
X0040349Y0015333D01*
X0040198Y0014735D02*
X0035338Y0014735D01*
X0035338Y0014136D02*
X0040047Y0014136D01*
X0039895Y0013538D02*
X0035338Y0013538D01*
X0035338Y0012939D02*
X0039744Y0012939D01*
X0118095Y0015348D02*
X0118095Y0031848D01*
X0150095Y0031848D02*
X0172595Y0031848D01*
X0174095Y0033348D01*
X0177595Y0043348D02*
X0187095Y0033848D01*
X0177595Y0043348D02*
X0177595Y0052348D01*
X0171595Y0058348D01*
X0163095Y0058348D01*
X0204095Y0067348D02*
X0205595Y0065848D01*
X0218095Y0065848D01*
X0219095Y0066848D01*
X0219095Y0070848D01*
X0214095Y0075848D02*
X0209095Y0070848D01*
X0204095Y0072348D02*
X0204095Y0067348D01*
X0204095Y0072348D02*
X0209095Y0077348D01*
X0257595Y0077348D01*
X0258595Y0078348D01*
X0258595Y0086848D01*
X0263595Y0091348D01*
X0266095Y0088348D02*
X0260595Y0082848D01*
X0260595Y0077348D01*
X0259095Y0075848D01*
X0214095Y0075848D01*
X0229095Y0060848D02*
X0240595Y0072348D01*
X0262595Y0072348D01*
X0264095Y0073848D01*
X0269095Y0073848D01*
X0279595Y0063348D01*
X0298595Y0063348D01*
X0317595Y0044348D01*
X0315845Y0037277D02*
X0315907Y0037203D01*
X0315973Y0037131D01*
X0316041Y0037062D01*
X0316111Y0036996D01*
X0316184Y0036932D01*
X0316259Y0036871D01*
X0316337Y0036813D01*
X0316417Y0036759D01*
X0316499Y0036707D01*
X0316583Y0036659D01*
X0316669Y0036614D01*
X0316756Y0036572D01*
X0316845Y0036533D01*
X0316936Y0036499D01*
X0317027Y0036467D01*
X0317120Y0036439D01*
X0317214Y0036415D01*
X0317309Y0036395D01*
X0317404Y0036378D01*
X0317500Y0036365D01*
X0317596Y0036356D01*
X0317693Y0036350D01*
X0317790Y0036348D01*
X0323056Y0036348D01*
X0323133Y0036340D02*
X0330595Y0034848D01*
X0326595Y0030848D02*
X0322315Y0030420D01*
X0320948Y0030672D02*
X0319445Y0031423D01*
X0318242Y0032731D02*
X0317715Y0034048D01*
X0317698Y0034085D01*
X0317679Y0034121D01*
X0317656Y0034154D01*
X0317630Y0034186D01*
X0317602Y0034215D01*
X0317572Y0034242D01*
X0317539Y0034266D01*
X0317505Y0034287D01*
X0317469Y0034306D01*
X0317431Y0034321D01*
X0317392Y0034333D01*
X0317353Y0034341D01*
X0317313Y0034346D01*
X0317272Y0034348D01*
X0317209Y0034346D01*
X0317147Y0034340D01*
X0317085Y0034330D01*
X0317024Y0034317D01*
X0316964Y0034299D01*
X0316905Y0034278D01*
X0316847Y0034253D01*
X0316792Y0034225D01*
X0316738Y0034193D01*
X0316686Y0034158D01*
X0316636Y0034120D01*
X0316589Y0034078D01*
X0316545Y0034034D01*
X0316503Y0033987D01*
X0316465Y0033938D01*
X0316429Y0033886D01*
X0316397Y0033833D01*
X0316369Y0033777D01*
X0316344Y0033719D01*
X0315767Y0032279D01*
X0315155Y0031702D02*
X0315097Y0031684D01*
X0315037Y0031670D01*
X0314976Y0031660D01*
X0314915Y0031654D01*
X0314853Y0031652D01*
X0314792Y0031654D01*
X0314731Y0031659D01*
X0314670Y0031669D01*
X0314610Y0031682D01*
X0314551Y0031699D01*
X0314493Y0031720D01*
X0314437Y0031744D01*
X0314382Y0031772D01*
X0314329Y0031803D01*
X0314278Y0031838D01*
X0314230Y0031876D01*
X0314184Y0031916D01*
X0314140Y0031960D01*
X0314100Y0032006D01*
X0314063Y0032055D01*
X0314028Y0032106D01*
X0313997Y0032159D01*
X0313970Y0032214D01*
X0313946Y0032270D01*
X0313925Y0032328D01*
X0313909Y0032388D01*
X0313896Y0032448D01*
X0313895Y0032447D02*
X0313274Y0035864D01*
X0312095Y0036848D02*
X0312035Y0036846D01*
X0311974Y0036841D01*
X0311915Y0036832D01*
X0311856Y0036819D01*
X0311797Y0036803D01*
X0311740Y0036783D01*
X0311685Y0036760D01*
X0311630Y0036733D01*
X0311578Y0036704D01*
X0311527Y0036671D01*
X0311478Y0036635D01*
X0311432Y0036597D01*
X0311388Y0036555D01*
X0311346Y0036511D01*
X0311308Y0036465D01*
X0311272Y0036416D01*
X0311239Y0036365D01*
X0311210Y0036313D01*
X0311183Y0036258D01*
X0311160Y0036203D01*
X0311140Y0036146D01*
X0311124Y0036087D01*
X0311111Y0036028D01*
X0311102Y0035969D01*
X0311097Y0035908D01*
X0311095Y0035848D01*
X0312095Y0036848D02*
X0312162Y0036846D01*
X0312228Y0036841D01*
X0312294Y0036831D01*
X0312359Y0036818D01*
X0312424Y0036802D01*
X0312488Y0036782D01*
X0312550Y0036758D01*
X0312611Y0036731D01*
X0312670Y0036701D01*
X0312728Y0036667D01*
X0312783Y0036631D01*
X0312837Y0036591D01*
X0312888Y0036548D01*
X0312937Y0036503D01*
X0312983Y0036454D01*
X0313026Y0036404D01*
X0313067Y0036351D01*
X0313104Y0036296D01*
X0313138Y0036239D01*
X0313170Y0036180D01*
X0313197Y0036119D01*
X0313222Y0036057D01*
X0313243Y0035994D01*
X0313260Y0035930D01*
X0313274Y0035864D01*
X0308605Y0033824D02*
X0308522Y0033937D01*
X0308442Y0034053D01*
X0308364Y0034170D01*
X0308290Y0034290D01*
X0308219Y0034411D01*
X0308045Y0035210D01*
X0308985Y0033552D02*
X0309076Y0033558D01*
X0309166Y0033567D01*
X0309256Y0033580D01*
X0309346Y0033597D01*
X0309435Y0033618D01*
X0309523Y0033642D01*
X0309609Y0033670D01*
X0309695Y0033701D01*
X0309779Y0033736D01*
X0309862Y0033775D01*
X0309943Y0033816D01*
X0310022Y0033862D01*
X0310099Y0033910D01*
X0310175Y0033961D01*
X0310248Y0034016D01*
X0310318Y0034073D01*
X0310387Y0034134D01*
X0310452Y0034197D01*
X0310515Y0034263D01*
X0310576Y0034331D01*
X0310633Y0034402D01*
X0310687Y0034475D01*
X0310739Y0034550D01*
X0310787Y0034628D01*
X0310832Y0034707D01*
X0310874Y0034788D01*
X0310912Y0034871D01*
X0310947Y0034955D01*
X0310978Y0035040D01*
X0311006Y0035127D01*
X0311030Y0035215D01*
X0311050Y0035304D01*
X0311067Y0035394D01*
X0311080Y0035484D01*
X0311090Y0035574D01*
X0311095Y0035665D01*
X0311097Y0035757D01*
X0311095Y0035848D01*
X0308984Y0033552D02*
X0308605Y0033824D01*
X0305095Y0031812D02*
X0305095Y0028384D01*
X0302327Y0027116D02*
X0302259Y0027187D01*
X0302194Y0027260D01*
X0302132Y0027336D01*
X0302072Y0027415D01*
X0302016Y0027495D01*
X0301963Y0027578D01*
X0301914Y0027662D01*
X0301867Y0027749D01*
X0301825Y0027837D01*
X0301785Y0027927D01*
X0301750Y0028019D01*
X0301717Y0028111D01*
X0301689Y0028205D01*
X0301664Y0028300D01*
X0301643Y0028396D01*
X0301626Y0028493D01*
X0301612Y0028590D01*
X0301603Y0028688D01*
X0301597Y0028786D01*
X0301595Y0028884D01*
X0301267Y0029676D02*
X0299449Y0031494D01*
X0298169Y0031774D02*
X0297813Y0031774D01*
X0297535Y0031889D02*
X0297222Y0032202D01*
X0291771Y0039127D01*
X0291095Y0040837D02*
X0291095Y0043348D01*
X0290393Y0048746D02*
X0290469Y0048809D01*
X0290547Y0048868D01*
X0290628Y0048925D01*
X0290711Y0048978D01*
X0290796Y0049028D01*
X0290882Y0049074D01*
X0290971Y0049117D01*
X0291061Y0049157D01*
X0291153Y0049193D01*
X0291246Y0049225D01*
X0291340Y0049254D01*
X0291435Y0049279D01*
X0291531Y0049300D01*
X0291628Y0049317D01*
X0291725Y0049331D01*
X0291823Y0049340D01*
X0291922Y0049346D01*
X0292020Y0049348D01*
X0304901Y0049348D01*
X0306846Y0048419D02*
X0315845Y0037277D01*
X0323056Y0036348D02*
X0323095Y0036346D01*
X0323133Y0036340D01*
X0322315Y0030420D02*
X0322221Y0030413D01*
X0322127Y0030409D01*
X0322033Y0030408D01*
X0321940Y0030411D01*
X0321846Y0030418D01*
X0321753Y0030428D01*
X0321660Y0030441D01*
X0321567Y0030458D01*
X0321476Y0030479D01*
X0321385Y0030503D01*
X0321295Y0030530D01*
X0321206Y0030560D01*
X0321119Y0030594D01*
X0321033Y0030632D01*
X0320948Y0030672D01*
X0319350Y0029221D02*
X0319095Y0029348D01*
X0318184Y0029652D01*
X0316983Y0029746D02*
X0315282Y0029463D01*
X0314066Y0028895D02*
X0311797Y0026950D01*
X0310170Y0026348D02*
X0307249Y0026215D01*
X0306131Y0024348D02*
X0306033Y0024350D01*
X0305935Y0024356D01*
X0305837Y0024365D01*
X0305740Y0024379D01*
X0305643Y0024396D01*
X0305547Y0024417D01*
X0305452Y0024442D01*
X0305358Y0024470D01*
X0305266Y0024503D01*
X0305174Y0024538D01*
X0305084Y0024578D01*
X0304996Y0024620D01*
X0304909Y0024667D01*
X0304825Y0024716D01*
X0304742Y0024769D01*
X0304662Y0024825D01*
X0304583Y0024885D01*
X0304507Y0024947D01*
X0304434Y0025012D01*
X0304363Y0025080D01*
X0302327Y0027116D01*
X0301595Y0028884D02*
X0301593Y0028947D01*
X0301588Y0029010D01*
X0301579Y0029072D01*
X0301567Y0029133D01*
X0301551Y0029194D01*
X0301532Y0029254D01*
X0301510Y0029313D01*
X0301484Y0029370D01*
X0301455Y0029426D01*
X0301423Y0029480D01*
X0301388Y0029533D01*
X0301350Y0029583D01*
X0301310Y0029631D01*
X0301267Y0029677D01*
X0305095Y0031812D02*
X0305093Y0031910D01*
X0305087Y0032008D01*
X0305078Y0032106D01*
X0305064Y0032203D01*
X0305047Y0032300D01*
X0305026Y0032396D01*
X0305001Y0032491D01*
X0304973Y0032585D01*
X0304940Y0032677D01*
X0304905Y0032769D01*
X0304865Y0032859D01*
X0304823Y0032947D01*
X0304776Y0033034D01*
X0304727Y0033118D01*
X0304674Y0033201D01*
X0304618Y0033281D01*
X0304558Y0033360D01*
X0304496Y0033436D01*
X0304431Y0033509D01*
X0304363Y0033580D01*
X0304327Y0033616D01*
X0302560Y0034348D02*
X0300631Y0034348D01*
X0298863Y0035080D02*
X0295327Y0038616D01*
X0294595Y0040384D02*
X0294595Y0045848D01*
X0298095Y0043348D02*
X0298095Y0039262D01*
X0298388Y0038555D02*
X0300302Y0036641D01*
X0298863Y0035080D02*
X0298934Y0035012D01*
X0299007Y0034947D01*
X0299083Y0034885D01*
X0299162Y0034825D01*
X0299242Y0034769D01*
X0299325Y0034716D01*
X0299409Y0034667D01*
X0299496Y0034620D01*
X0299584Y0034578D01*
X0299674Y0034538D01*
X0299766Y0034503D01*
X0299858Y0034470D01*
X0299952Y0034442D01*
X0300047Y0034417D01*
X0300143Y0034396D01*
X0300240Y0034379D01*
X0300337Y0034365D01*
X0300435Y0034356D01*
X0300533Y0034350D01*
X0300631Y0034348D01*
X0300935Y0036496D02*
X0301742Y0036986D01*
X0301847Y0037192D02*
X0302018Y0040058D01*
X0302042Y0040104D01*
X0302069Y0040149D01*
X0302099Y0040192D01*
X0302133Y0040233D01*
X0302169Y0040271D01*
X0302208Y0040306D01*
X0302249Y0040339D01*
X0302293Y0040368D01*
X0302339Y0040394D01*
X0302386Y0040417D01*
X0302435Y0040436D01*
X0302485Y0040452D01*
X0302536Y0040465D01*
X0302588Y0040473D01*
X0302640Y0040478D01*
X0302693Y0040479D01*
X0302745Y0040476D01*
X0302798Y0040470D01*
X0302849Y0040459D01*
X0302900Y0040446D01*
X0302949Y0040428D01*
X0302998Y0040407D01*
X0303044Y0040383D01*
X0303089Y0040355D01*
X0303132Y0040324D01*
X0303172Y0040290D01*
X0303210Y0040254D01*
X0303245Y0040215D01*
X0303277Y0040173D01*
X0303306Y0040129D01*
X0303332Y0040083D01*
X0303354Y0040036D01*
X0303373Y0039987D01*
X0303374Y0039987D02*
X0303730Y0037042D01*
X0303757Y0037000D01*
X0303787Y0036960D01*
X0303820Y0036923D01*
X0303856Y0036889D01*
X0303894Y0036857D01*
X0303934Y0036828D01*
X0303977Y0036803D01*
X0304021Y0036780D01*
X0304067Y0036761D01*
X0304114Y0036746D01*
X0304162Y0036734D01*
X0304211Y0036725D01*
X0304261Y0036721D01*
X0304310Y0036720D01*
X0304360Y0036723D01*
X0304409Y0036730D01*
X0304457Y0036740D01*
X0304505Y0036754D01*
X0304552Y0036772D01*
X0304597Y0036793D01*
X0304640Y0036817D01*
X0304681Y0036844D01*
X0304720Y0036875D01*
X0304757Y0036908D01*
X0304791Y0036944D01*
X0304822Y0036983D01*
X0304851Y0037023D01*
X0304876Y0037066D01*
X0304898Y0037111D01*
X0304916Y0037157D01*
X0305188Y0039150D01*
X0305187Y0039150D02*
X0305221Y0039201D01*
X0305259Y0039250D01*
X0305300Y0039296D01*
X0305343Y0039339D01*
X0305389Y0039380D01*
X0305438Y0039417D01*
X0305489Y0039452D01*
X0305542Y0039483D01*
X0305597Y0039510D01*
X0305653Y0039535D01*
X0305711Y0039555D01*
X0305770Y0039572D01*
X0305830Y0039585D01*
X0305891Y0039595D01*
X0305952Y0039600D01*
X0306013Y0039602D01*
X0306075Y0039600D01*
X0306136Y0039594D01*
X0306197Y0039584D01*
X0306257Y0039570D01*
X0306315Y0039553D01*
X0306373Y0039531D01*
X0306429Y0039507D01*
X0306484Y0039478D01*
X0306537Y0039447D01*
X0306587Y0039412D01*
X0306635Y0039374D01*
X0306681Y0039333D01*
X0306724Y0039289D01*
X0306765Y0039243D01*
X0306802Y0039194D01*
X0306836Y0039143D01*
X0306867Y0039090D01*
X0306907Y0039110D01*
X0301847Y0037192D02*
X0301844Y0037162D01*
X0301838Y0037133D01*
X0301828Y0037105D01*
X0301816Y0037078D01*
X0301801Y0037052D01*
X0301784Y0037028D01*
X0301764Y0037006D01*
X0301742Y0036986D01*
X0300935Y0036497D02*
X0300880Y0036489D01*
X0300825Y0036486D01*
X0300769Y0036485D01*
X0300714Y0036489D01*
X0300659Y0036496D01*
X0300604Y0036506D01*
X0300550Y0036520D01*
X0300498Y0036538D01*
X0300446Y0036559D01*
X0300397Y0036583D01*
X0300348Y0036611D01*
X0300302Y0036642D01*
X0298388Y0038555D02*
X0298346Y0038599D01*
X0298308Y0038645D01*
X0298272Y0038694D01*
X0298239Y0038745D01*
X0298210Y0038797D01*
X0298183Y0038852D01*
X0298160Y0038907D01*
X0298140Y0038964D01*
X0298124Y0039023D01*
X0298111Y0039082D01*
X0298102Y0039141D01*
X0298097Y0039202D01*
X0298095Y0039262D01*
X0295327Y0038616D02*
X0295259Y0038687D01*
X0295194Y0038760D01*
X0295132Y0038836D01*
X0295072Y0038915D01*
X0295016Y0038995D01*
X0294963Y0039078D01*
X0294914Y0039162D01*
X0294867Y0039249D01*
X0294825Y0039337D01*
X0294785Y0039427D01*
X0294750Y0039519D01*
X0294717Y0039611D01*
X0294689Y0039705D01*
X0294664Y0039800D01*
X0294643Y0039896D01*
X0294626Y0039993D01*
X0294612Y0040090D01*
X0294603Y0040188D01*
X0294597Y0040286D01*
X0294595Y0040384D01*
X0291771Y0039127D02*
X0291705Y0039201D01*
X0291641Y0039277D01*
X0291581Y0039356D01*
X0291524Y0039437D01*
X0291470Y0039520D01*
X0291420Y0039605D01*
X0291373Y0039692D01*
X0291329Y0039781D01*
X0291289Y0039872D01*
X0291252Y0039964D01*
X0291220Y0040057D01*
X0291191Y0040152D01*
X0291165Y0040248D01*
X0291144Y0040345D01*
X0291126Y0040442D01*
X0291113Y0040540D01*
X0291103Y0040639D01*
X0291097Y0040738D01*
X0291095Y0040837D01*
X0285359Y0040611D02*
X0285291Y0040678D01*
X0285226Y0040748D01*
X0285164Y0040821D01*
X0285105Y0040896D01*
X0285048Y0040973D01*
X0284995Y0041053D01*
X0284945Y0041134D01*
X0284898Y0041217D01*
X0284854Y0041302D01*
X0284813Y0041388D01*
X0284776Y0041476D01*
X0284742Y0041566D01*
X0284711Y0041656D01*
X0284684Y0041748D01*
X0284660Y0041840D01*
X0284641Y0041934D01*
X0284624Y0042028D01*
X0284611Y0042123D01*
X0284602Y0042218D01*
X0284597Y0042313D01*
X0284595Y0042409D01*
X0284399Y0043240D02*
X0283595Y0044848D01*
X0284399Y0043240D02*
X0284432Y0043169D01*
X0284463Y0043097D01*
X0284490Y0043024D01*
X0284515Y0042949D01*
X0284536Y0042874D01*
X0284554Y0042798D01*
X0284569Y0042721D01*
X0284580Y0042643D01*
X0284588Y0042565D01*
X0284593Y0042487D01*
X0284595Y0042409D01*
X0285359Y0040611D02*
X0299095Y0027348D01*
X0303363Y0023080D01*
X0305131Y0022348D02*
X0322551Y0022348D01*
X0322650Y0022346D01*
X0322748Y0022340D01*
X0322847Y0022330D01*
X0322945Y0022317D01*
X0323042Y0022299D01*
X0323138Y0022278D01*
X0323234Y0022253D01*
X0323328Y0022224D01*
X0323422Y0022191D01*
X0323514Y0022155D01*
X0323604Y0022115D01*
X0323693Y0022072D01*
X0323780Y0022025D01*
X0323865Y0021975D01*
X0323948Y0021921D01*
X0324029Y0021865D01*
X0324107Y0021805D01*
X0324183Y0021742D01*
X0324257Y0021676D01*
X0324328Y0021607D01*
X0324396Y0021535D01*
X0324461Y0021461D01*
X0324523Y0021384D01*
X0324582Y0021305D01*
X0324638Y0021224D01*
X0324691Y0021140D01*
X0324741Y0021055D01*
X0324787Y0020967D01*
X0324786Y0020967D02*
X0325729Y0019084D01*
X0322595Y0026348D02*
X0323095Y0027348D01*
X0322595Y0026348D02*
X0322509Y0026350D01*
X0322423Y0026355D01*
X0322337Y0026364D01*
X0322252Y0026377D01*
X0322168Y0026394D01*
X0322084Y0026414D01*
X0322001Y0026437D01*
X0321919Y0026464D01*
X0321839Y0026495D01*
X0321759Y0026529D01*
X0321682Y0026566D01*
X0321606Y0026606D01*
X0321531Y0026650D01*
X0321459Y0026697D01*
X0321389Y0026747D01*
X0321321Y0026800D01*
X0321255Y0026855D01*
X0321192Y0026914D01*
X0321131Y0026975D01*
X0321073Y0027038D01*
X0321018Y0027104D01*
X0320965Y0027173D01*
X0320916Y0027243D01*
X0320869Y0027316D01*
X0320826Y0027390D01*
X0320786Y0027466D01*
X0320468Y0028103D01*
X0320424Y0028187D01*
X0320377Y0028269D01*
X0320327Y0028349D01*
X0320274Y0028428D01*
X0320218Y0028504D01*
X0320159Y0028578D01*
X0320097Y0028650D01*
X0320033Y0028719D01*
X0319966Y0028786D01*
X0319897Y0028850D01*
X0319825Y0028912D01*
X0319751Y0028971D01*
X0319675Y0029027D01*
X0319596Y0029080D01*
X0319516Y0029130D01*
X0319434Y0029177D01*
X0319350Y0029221D01*
X0318185Y0029652D02*
X0318095Y0029680D01*
X0318005Y0029704D01*
X0317914Y0029725D01*
X0317822Y0029743D01*
X0317729Y0029757D01*
X0317636Y0029768D01*
X0317543Y0029776D01*
X0317449Y0029779D01*
X0317356Y0029780D01*
X0317262Y0029777D01*
X0317169Y0029770D01*
X0317076Y0029760D01*
X0316983Y0029746D01*
X0315155Y0031701D02*
X0315213Y0031723D01*
X0315270Y0031748D01*
X0315325Y0031776D01*
X0315379Y0031808D01*
X0315430Y0031843D01*
X0315479Y0031881D01*
X0315525Y0031922D01*
X0315569Y0031966D01*
X0315610Y0032013D01*
X0315648Y0032062D01*
X0315683Y0032113D01*
X0315714Y0032167D01*
X0315743Y0032222D01*
X0315767Y0032279D01*
X0318242Y0032731D02*
X0318279Y0032642D01*
X0318320Y0032556D01*
X0318363Y0032471D01*
X0318410Y0032388D01*
X0318461Y0032306D01*
X0318514Y0032227D01*
X0318570Y0032150D01*
X0318629Y0032074D01*
X0318691Y0032002D01*
X0318756Y0031931D01*
X0318823Y0031864D01*
X0318893Y0031798D01*
X0318966Y0031736D01*
X0319040Y0031676D01*
X0319117Y0031619D01*
X0319196Y0031566D01*
X0319277Y0031515D01*
X0319360Y0031467D01*
X0319445Y0031423D01*
X0317595Y0026848D02*
X0316346Y0025286D01*
X0314066Y0028895D02*
X0314141Y0028957D01*
X0314218Y0029016D01*
X0314298Y0029071D01*
X0314379Y0029124D01*
X0314463Y0029173D01*
X0314548Y0029219D01*
X0314635Y0029262D01*
X0314724Y0029302D01*
X0314814Y0029337D01*
X0314906Y0029370D01*
X0314998Y0029399D01*
X0315092Y0029424D01*
X0315187Y0029445D01*
X0315282Y0029463D01*
X0316346Y0025286D02*
X0316284Y0025211D01*
X0316219Y0025139D01*
X0316151Y0025069D01*
X0316080Y0025002D01*
X0316007Y0024938D01*
X0315931Y0024877D01*
X0315853Y0024818D01*
X0315773Y0024763D01*
X0315691Y0024711D01*
X0315607Y0024662D01*
X0315521Y0024616D01*
X0315433Y0024574D01*
X0315344Y0024535D01*
X0315253Y0024500D01*
X0315161Y0024468D01*
X0315067Y0024440D01*
X0314973Y0024416D01*
X0314878Y0024395D01*
X0314782Y0024378D01*
X0314686Y0024365D01*
X0314589Y0024356D01*
X0314491Y0024350D01*
X0314394Y0024348D01*
X0306131Y0024348D01*
X0305131Y0022348D02*
X0305033Y0022350D01*
X0304935Y0022356D01*
X0304837Y0022365D01*
X0304740Y0022379D01*
X0304643Y0022396D01*
X0304547Y0022417D01*
X0304452Y0022442D01*
X0304358Y0022470D01*
X0304266Y0022503D01*
X0304174Y0022538D01*
X0304084Y0022578D01*
X0303996Y0022620D01*
X0303909Y0022667D01*
X0303825Y0022716D01*
X0303742Y0022769D01*
X0303662Y0022825D01*
X0303583Y0022885D01*
X0303507Y0022947D01*
X0303434Y0023012D01*
X0303363Y0023080D01*
X0305980Y0026463D02*
X0305827Y0026616D01*
X0305979Y0026463D02*
X0306045Y0026421D01*
X0306113Y0026383D01*
X0306183Y0026347D01*
X0306254Y0026315D01*
X0306327Y0026286D01*
X0306400Y0026261D01*
X0306475Y0026239D01*
X0306551Y0026220D01*
X0306628Y0026205D01*
X0306705Y0026194D01*
X0306783Y0026186D01*
X0306861Y0026182D01*
X0306939Y0026181D01*
X0307017Y0026184D01*
X0307095Y0026191D01*
X0307172Y0026201D01*
X0307249Y0026214D01*
X0305827Y0026616D02*
X0305759Y0026687D01*
X0305694Y0026760D01*
X0305632Y0026836D01*
X0305572Y0026915D01*
X0305516Y0026995D01*
X0305463Y0027078D01*
X0305414Y0027162D01*
X0305367Y0027249D01*
X0305325Y0027337D01*
X0305285Y0027427D01*
X0305250Y0027519D01*
X0305217Y0027611D01*
X0305189Y0027705D01*
X0305164Y0027800D01*
X0305143Y0027896D01*
X0305126Y0027993D01*
X0305112Y0028090D01*
X0305103Y0028188D01*
X0305097Y0028286D01*
X0305095Y0028384D01*
X0299448Y0031495D02*
X0299382Y0031538D01*
X0299315Y0031579D01*
X0299245Y0031616D01*
X0299174Y0031650D01*
X0299101Y0031681D01*
X0299026Y0031708D01*
X0298951Y0031732D01*
X0298875Y0031753D01*
X0298797Y0031770D01*
X0298719Y0031783D01*
X0298641Y0031793D01*
X0298562Y0031799D01*
X0298483Y0031801D01*
X0298404Y0031800D01*
X0298325Y0031795D01*
X0298246Y0031786D01*
X0298168Y0031774D01*
X0297813Y0031774D02*
X0297774Y0031776D01*
X0297736Y0031782D01*
X0297699Y0031791D01*
X0297662Y0031804D01*
X0297627Y0031821D01*
X0297594Y0031840D01*
X0297563Y0031863D01*
X0297534Y0031889D01*
X0302560Y0034348D02*
X0302658Y0034346D01*
X0302756Y0034340D01*
X0302854Y0034331D01*
X0302951Y0034317D01*
X0303048Y0034300D01*
X0303144Y0034279D01*
X0303239Y0034254D01*
X0303333Y0034226D01*
X0303425Y0034193D01*
X0303517Y0034158D01*
X0303607Y0034118D01*
X0303695Y0034076D01*
X0303782Y0034029D01*
X0303866Y0033980D01*
X0303949Y0033927D01*
X0304029Y0033871D01*
X0304108Y0033811D01*
X0304184Y0033749D01*
X0304257Y0033684D01*
X0304328Y0033616D01*
X0308045Y0035210D02*
X0308064Y0035344D01*
X0308079Y0035478D01*
X0308091Y0035613D01*
X0308098Y0035748D01*
X0308102Y0035884D01*
X0308101Y0036019D01*
X0308097Y0036154D01*
X0308090Y0036289D01*
X0308078Y0036424D01*
X0308062Y0036559D01*
X0308043Y0036693D01*
X0308020Y0036826D01*
X0307993Y0036959D01*
X0307963Y0037090D01*
X0307928Y0037221D01*
X0307891Y0037351D01*
X0307849Y0037480D01*
X0307804Y0037608D01*
X0307755Y0037734D01*
X0307703Y0037859D01*
X0307647Y0037982D01*
X0307587Y0038104D01*
X0307525Y0038223D01*
X0307459Y0038342D01*
X0307389Y0038458D01*
X0307317Y0038572D01*
X0307241Y0038684D01*
X0307162Y0038794D01*
X0307080Y0038902D01*
X0306995Y0039007D01*
X0306907Y0039110D01*
X0306846Y0048419D02*
X0306784Y0048493D01*
X0306718Y0048565D01*
X0306650Y0048634D01*
X0306580Y0048700D01*
X0306507Y0048764D01*
X0306432Y0048825D01*
X0306354Y0048883D01*
X0306274Y0048937D01*
X0306192Y0048989D01*
X0306108Y0049037D01*
X0306022Y0049082D01*
X0305935Y0049124D01*
X0305846Y0049163D01*
X0305755Y0049197D01*
X0305664Y0049229D01*
X0305571Y0049257D01*
X0305477Y0049281D01*
X0305382Y0049301D01*
X0305287Y0049318D01*
X0305191Y0049331D01*
X0305095Y0049340D01*
X0304998Y0049346D01*
X0304901Y0049348D01*
X0290393Y0048746D02*
X0287595Y0046348D01*
X0272095Y0041934D02*
X0272095Y0041348D01*
X0272095Y0041934D02*
X0272093Y0041994D01*
X0272088Y0042055D01*
X0272079Y0042114D01*
X0272066Y0042173D01*
X0272050Y0042232D01*
X0272030Y0042289D01*
X0272007Y0042344D01*
X0271980Y0042399D01*
X0271951Y0042451D01*
X0271918Y0042502D01*
X0271882Y0042551D01*
X0271844Y0042597D01*
X0271802Y0042641D01*
X0264888Y0049555D01*
X0264181Y0049848D02*
X0238009Y0049848D01*
X0237302Y0049555D02*
X0234388Y0046641D01*
X0234095Y0045934D02*
X0234095Y0042762D01*
X0233802Y0042055D02*
X0226595Y0034848D01*
X0221888Y0032555D02*
X0221846Y0032599D01*
X0221808Y0032645D01*
X0221772Y0032694D01*
X0221739Y0032745D01*
X0221710Y0032797D01*
X0221683Y0032852D01*
X0221660Y0032907D01*
X0221640Y0032964D01*
X0221624Y0033023D01*
X0221611Y0033082D01*
X0221602Y0033141D01*
X0221597Y0033202D01*
X0221595Y0033262D01*
X0221595Y0039434D01*
X0221888Y0040141D02*
X0226595Y0044848D01*
X0233802Y0042055D02*
X0233844Y0042099D01*
X0233882Y0042145D01*
X0233918Y0042194D01*
X0233951Y0042245D01*
X0233980Y0042297D01*
X0234007Y0042352D01*
X0234030Y0042407D01*
X0234050Y0042464D01*
X0234066Y0042523D01*
X0234079Y0042582D01*
X0234088Y0042641D01*
X0234093Y0042702D01*
X0234095Y0042762D01*
X0238302Y0039555D02*
X0228888Y0030141D01*
X0228181Y0029848D02*
X0225009Y0029848D01*
X0224302Y0030141D02*
X0221888Y0032555D01*
X0224302Y0030141D02*
X0224346Y0030099D01*
X0224392Y0030061D01*
X0224441Y0030025D01*
X0224492Y0029992D01*
X0224544Y0029963D01*
X0224599Y0029936D01*
X0224654Y0029913D01*
X0224711Y0029893D01*
X0224770Y0029877D01*
X0224829Y0029864D01*
X0224888Y0029855D01*
X0224949Y0029850D01*
X0225009Y0029848D01*
X0228181Y0029848D02*
X0228241Y0029850D01*
X0228302Y0029855D01*
X0228361Y0029864D01*
X0228420Y0029877D01*
X0228479Y0029893D01*
X0228536Y0029913D01*
X0228591Y0029936D01*
X0228646Y0029963D01*
X0228698Y0029992D01*
X0228749Y0030025D01*
X0228798Y0030061D01*
X0228844Y0030099D01*
X0228888Y0030141D01*
X0221595Y0039434D02*
X0221597Y0039494D01*
X0221602Y0039555D01*
X0221611Y0039614D01*
X0221624Y0039673D01*
X0221640Y0039732D01*
X0221660Y0039789D01*
X0221683Y0039844D01*
X0221710Y0039899D01*
X0221739Y0039951D01*
X0221772Y0040002D01*
X0221808Y0040051D01*
X0221846Y0040097D01*
X0221888Y0040141D01*
X0234095Y0045934D02*
X0234097Y0045994D01*
X0234102Y0046055D01*
X0234111Y0046114D01*
X0234124Y0046173D01*
X0234140Y0046232D01*
X0234160Y0046289D01*
X0234183Y0046344D01*
X0234210Y0046399D01*
X0234239Y0046451D01*
X0234272Y0046502D01*
X0234308Y0046551D01*
X0234346Y0046597D01*
X0234388Y0046641D01*
X0237302Y0049555D02*
X0237346Y0049597D01*
X0237392Y0049635D01*
X0237441Y0049671D01*
X0237492Y0049704D01*
X0237544Y0049733D01*
X0237599Y0049760D01*
X0237654Y0049783D01*
X0237711Y0049803D01*
X0237770Y0049819D01*
X0237829Y0049832D01*
X0237888Y0049841D01*
X0237949Y0049846D01*
X0238009Y0049848D01*
X0239095Y0053848D02*
X0216095Y0053848D01*
X0209095Y0060848D01*
X0219095Y0060848D02*
X0224095Y0055848D01*
X0231595Y0055848D01*
X0242595Y0066848D01*
X0242595Y0067348D01*
X0245095Y0069848D01*
X0261595Y0069848D01*
X0262595Y0070848D01*
X0266595Y0070848D01*
X0264095Y0067348D02*
X0262595Y0065348D01*
X0262595Y0062348D01*
X0260095Y0059848D01*
X0245095Y0059848D01*
X0239095Y0053848D01*
X0264181Y0049848D02*
X0264241Y0049846D01*
X0264302Y0049841D01*
X0264361Y0049832D01*
X0264420Y0049819D01*
X0264479Y0049803D01*
X0264536Y0049783D01*
X0264591Y0049760D01*
X0264646Y0049733D01*
X0264698Y0049704D01*
X0264749Y0049671D01*
X0264798Y0049635D01*
X0264844Y0049597D01*
X0264888Y0049555D01*
X0267181Y0039848D02*
X0239009Y0039848D01*
X0238949Y0039846D01*
X0238888Y0039841D01*
X0238829Y0039832D01*
X0238770Y0039819D01*
X0238711Y0039803D01*
X0238654Y0039783D01*
X0238599Y0039760D01*
X0238544Y0039733D01*
X0238492Y0039704D01*
X0238441Y0039671D01*
X0238392Y0039635D01*
X0238346Y0039597D01*
X0238302Y0039555D01*
X0257595Y0024848D02*
X0264595Y0031848D01*
X0264595Y0034848D01*
X0269302Y0038141D02*
X0267888Y0039555D01*
X0267844Y0039597D01*
X0267798Y0039635D01*
X0267749Y0039671D01*
X0267698Y0039704D01*
X0267646Y0039733D01*
X0267591Y0039760D01*
X0267536Y0039783D01*
X0267479Y0039803D01*
X0267420Y0039819D01*
X0267361Y0039832D01*
X0267302Y0039841D01*
X0267241Y0039846D01*
X0267181Y0039848D01*
X0269302Y0038141D02*
X0269346Y0038099D01*
X0269392Y0038061D01*
X0269441Y0038025D01*
X0269492Y0037992D01*
X0269544Y0037963D01*
X0269599Y0037936D01*
X0269654Y0037913D01*
X0269711Y0037893D01*
X0269770Y0037877D01*
X0269829Y0037864D01*
X0269888Y0037855D01*
X0269949Y0037850D01*
X0270009Y0037848D01*
X0275095Y0037848D01*
X0286595Y0027348D02*
X0279595Y0019848D01*
X0168095Y0019848D01*
X0164095Y0016348D01*
X0147095Y0016348D01*
X0145595Y0014848D01*
X0143095Y0014848D01*
X0118595Y0014848D01*
X0118095Y0015348D01*
X0162595Y0012848D02*
X0163595Y0011848D01*
X0179095Y0011848D01*
X0181095Y0013848D01*
X0310095Y0013848D01*
X0310595Y0014348D01*
X0310595Y0019348D01*
X0310170Y0026348D02*
X0310268Y0026350D01*
X0310367Y0026356D01*
X0310465Y0026365D01*
X0310562Y0026379D01*
X0310659Y0026396D01*
X0310755Y0026417D01*
X0310850Y0026442D01*
X0310944Y0026471D01*
X0311037Y0026503D01*
X0311129Y0026539D01*
X0311219Y0026579D01*
X0311308Y0026622D01*
X0311394Y0026668D01*
X0311479Y0026718D01*
X0311562Y0026771D01*
X0311643Y0026828D01*
X0311721Y0026887D01*
X0311797Y0026950D01*
X0266595Y0088348D02*
X0266095Y0088348D01*
X0354595Y0130348D02*
X0354595Y0130848D01*
X0374095Y0150348D01*
X0374095Y0170348D01*
X0373095Y0171348D01*
X0154595Y0171348D01*
X0153595Y0170348D01*
X0153595Y0155348D01*
X0165095Y0152348D02*
X0165095Y0168848D01*
X0166095Y0169848D01*
X0370095Y0169848D01*
X0371095Y0168848D01*
X0371095Y0165348D01*
X0379095Y0172848D02*
X0380095Y0171848D01*
X0380095Y0151348D01*
X0380595Y0150848D01*
X0379095Y0172848D02*
X0135595Y0172848D01*
X0134595Y0171848D01*
X0134595Y0155848D01*
X0136095Y0152848D01*
X0136095Y0140848D01*
X0135095Y0139848D01*
D21*
X0131018Y0142024D02*
X0114319Y0142024D01*
X0113995Y0141242D02*
X0114695Y0142933D01*
X0114695Y0144763D01*
X0113995Y0146454D01*
X0112701Y0147748D01*
X0111010Y0148448D01*
X0109180Y0148448D01*
X0107489Y0147748D01*
X0106195Y0146454D01*
X0105495Y0144763D01*
X0105495Y0142933D01*
X0106195Y0141242D01*
X0107489Y0139948D01*
X0109180Y0139248D01*
X0111010Y0139248D01*
X0112701Y0139948D01*
X0113995Y0141242D01*
X0113178Y0140426D02*
X0130495Y0140426D01*
X0130495Y0140763D02*
X0130495Y0138933D01*
X0131195Y0137242D01*
X0132489Y0135948D01*
X0134180Y0135248D01*
X0136010Y0135248D01*
X0137701Y0135948D01*
X0138995Y0137242D01*
X0139695Y0138933D01*
X0139695Y0140763D01*
X0139595Y0141004D01*
X0139595Y0148197D01*
X0140680Y0147748D01*
X0142510Y0147748D01*
X0144201Y0148448D01*
X0145495Y0149742D01*
X0145595Y0149985D01*
X0145695Y0149742D01*
X0146989Y0148448D01*
X0148680Y0147748D01*
X0150510Y0147748D01*
X0152201Y0148448D01*
X0153345Y0149593D01*
X0154489Y0148448D01*
X0156180Y0147748D01*
X0158010Y0147748D01*
X0159701Y0148448D01*
X0160995Y0149742D01*
X0161095Y0149985D01*
X0161195Y0149742D01*
X0162489Y0148448D01*
X0164180Y0147748D01*
X0166010Y0147748D01*
X0167701Y0148448D01*
X0168995Y0149742D01*
X0169695Y0151433D01*
X0169695Y0153263D01*
X0168995Y0154954D01*
X0168595Y0155353D01*
X0168595Y0166348D01*
X0179590Y0166348D01*
X0178695Y0165454D01*
X0177995Y0163763D01*
X0177995Y0161933D01*
X0178695Y0160242D01*
X0179989Y0158948D01*
X0181680Y0158248D01*
X0183510Y0158248D01*
X0185201Y0158948D01*
X0185595Y0159343D01*
X0185989Y0158948D01*
X0187680Y0158248D01*
X0189510Y0158248D01*
X0191201Y0158948D01*
X0192495Y0160242D01*
X0192994Y0161449D01*
X0194201Y0161948D01*
X0195495Y0163242D01*
X0196195Y0164933D01*
X0196195Y0166348D01*
X0356495Y0166348D01*
X0356495Y0164933D01*
X0356548Y0164806D01*
X0356195Y0164454D01*
X0355495Y0162763D01*
X0355495Y0160933D01*
X0356195Y0159242D01*
X0357489Y0157948D01*
X0359180Y0157248D01*
X0361010Y0157248D01*
X0362701Y0157948D01*
X0363995Y0159242D01*
X0364695Y0160933D01*
X0364695Y0162763D01*
X0364643Y0162890D01*
X0364995Y0163242D01*
X0365695Y0164933D01*
X0365695Y0166348D01*
X0366530Y0166348D01*
X0366495Y0166263D01*
X0366495Y0164433D01*
X0367195Y0162742D01*
X0368489Y0161448D01*
X0370180Y0160748D01*
X0370595Y0160748D01*
X0370595Y0157353D01*
X0369701Y0158248D01*
X0368010Y0158948D01*
X0366180Y0158948D01*
X0364489Y0158248D01*
X0363195Y0156954D01*
X0362495Y0155263D01*
X0362495Y0153433D01*
X0363195Y0151742D01*
X0364489Y0150448D01*
X0366180Y0149748D01*
X0368010Y0149748D01*
X0368924Y0150127D01*
X0353745Y0134948D01*
X0353680Y0134948D01*
X0351989Y0134248D01*
X0350695Y0132954D01*
X0349995Y0131263D01*
X0349995Y0129433D01*
X0350695Y0127742D01*
X0351989Y0126448D01*
X0353680Y0125748D01*
X0355510Y0125748D01*
X0357201Y0126448D01*
X0358495Y0127742D01*
X0359195Y0129433D01*
X0359195Y0130498D01*
X0376078Y0147381D01*
X0376817Y0148120D01*
X0377989Y0146948D01*
X0379680Y0146248D01*
X0381500Y0146248D01*
X0381500Y0144800D01*
X0381499Y0144799D01*
X0381500Y0144348D01*
X0381500Y0143894D01*
X0381501Y0143893D01*
X0381501Y0143891D01*
X0381820Y0143574D01*
X0382141Y0143253D01*
X0382143Y0143253D01*
X0382144Y0143252D01*
X0382597Y0143253D01*
X0383049Y0143253D01*
X0383050Y0143254D01*
X0393917Y0143283D01*
X0393495Y0142263D01*
X0393495Y0140433D01*
X0394195Y0138742D01*
X0395489Y0137448D01*
X0397180Y0136748D01*
X0399010Y0136748D01*
X0400701Y0137448D01*
X0401995Y0138742D01*
X0402695Y0140433D01*
X0402695Y0142263D01*
X0402264Y0143305D01*
X0409316Y0143323D01*
X0409316Y0135206D01*
X0409270Y0135270D01*
X0409265Y0135366D01*
X0409079Y0135533D01*
X0408932Y0135736D01*
X0408838Y0135751D01*
X0408755Y0135825D01*
X0408730Y0135917D01*
X0408514Y0136042D01*
X0408328Y0136210D01*
X0408232Y0136205D01*
X0408136Y0136260D01*
X0408093Y0136345D01*
X0407855Y0136423D01*
X0407638Y0136548D01*
X0407546Y0136523D01*
X0407440Y0136557D01*
X0407380Y0136631D01*
X0407131Y0136658D01*
X0406893Y0136735D01*
X0406808Y0136692D01*
X0406745Y0136698D01*
X0406710Y0136733D01*
X0406417Y0136733D01*
X0406126Y0136763D01*
X0406088Y0136733D01*
X0402331Y0136733D01*
X0402293Y0136763D01*
X0402002Y0136733D01*
X0401709Y0136733D01*
X0401674Y0136698D01*
X0401611Y0136692D01*
X0401525Y0136735D01*
X0401287Y0136658D01*
X0401038Y0136631D01*
X0400978Y0136557D01*
X0400873Y0136523D01*
X0400781Y0136548D01*
X0400564Y0136423D01*
X0400326Y0136345D01*
X0400282Y0136260D01*
X0400186Y0136205D01*
X0400091Y0136210D01*
X0399905Y0136042D01*
X0399688Y0135917D01*
X0399663Y0135825D01*
X0399581Y0135751D01*
X0399487Y0135736D01*
X0399340Y0135533D01*
X0399154Y0135366D01*
X0399149Y0135270D01*
X0399083Y0135181D01*
X0398994Y0135146D01*
X0398892Y0134918D01*
X0398745Y0134715D01*
X0398760Y0134621D01*
X0398715Y0134519D01*
X0398635Y0134467D01*
X0398583Y0134223D01*
X0398481Y0133994D01*
X0398515Y0133905D01*
X0398492Y0133796D01*
X0398425Y0133729D01*
X0398425Y0133478D01*
X0398373Y0133234D01*
X0398425Y0133153D01*
X0398425Y0133043D01*
X0398373Y0132963D01*
X0398374Y0132958D01*
X0397009Y0134323D01*
X0394784Y0135245D01*
X0392375Y0135245D01*
X0390150Y0134323D01*
X0388447Y0132620D01*
X0387961Y0131448D01*
X0387180Y0131448D01*
X0385489Y0130748D01*
X0384195Y0129454D01*
X0383495Y0127763D01*
X0383495Y0125933D01*
X0384195Y0124242D01*
X0384341Y0124097D01*
X0383995Y0123263D01*
X0383995Y0123164D01*
X0382989Y0122748D01*
X0381695Y0121454D01*
X0380995Y0119763D01*
X0380995Y0117933D01*
X0381695Y0116242D01*
X0382989Y0114948D01*
X0384196Y0114449D01*
X0384695Y0113242D01*
X0385989Y0111948D01*
X0387680Y0111248D01*
X0387748Y0111248D01*
X0387525Y0110710D01*
X0387525Y0110448D01*
X0387180Y0110448D01*
X0385489Y0109748D01*
X0384195Y0108454D01*
X0383495Y0106763D01*
X0383495Y0104933D01*
X0384195Y0103242D01*
X0385489Y0101948D01*
X0387180Y0101248D01*
X0389010Y0101248D01*
X0390701Y0101948D01*
X0391995Y0103242D01*
X0392124Y0103555D01*
X0392375Y0103451D01*
X0394784Y0103451D01*
X0397009Y0104373D01*
X0398374Y0105738D01*
X0398373Y0105734D01*
X0398425Y0105653D01*
X0398425Y0105543D01*
X0398373Y0105462D01*
X0398425Y0105218D01*
X0398425Y0104967D01*
X0398492Y0104900D01*
X0398515Y0104791D01*
X0398481Y0104702D01*
X0398583Y0104473D01*
X0398635Y0104229D01*
X0398715Y0104177D01*
X0398760Y0104075D01*
X0398745Y0103981D01*
X0398892Y0103778D01*
X0398994Y0103550D01*
X0399083Y0103516D01*
X0399149Y0103426D01*
X0399154Y0103330D01*
X0399340Y0103163D01*
X0399487Y0102960D01*
X0399581Y0102946D01*
X0399663Y0102871D01*
X0399688Y0102779D01*
X0399905Y0102654D01*
X0400091Y0102486D01*
X0400186Y0102491D01*
X0400282Y0102436D01*
X0400326Y0102351D01*
X0400564Y0102274D01*
X0400781Y0102148D01*
X0400873Y0102173D01*
X0400978Y0102139D01*
X0401038Y0102065D01*
X0401287Y0102038D01*
X0401525Y0101961D01*
X0401611Y0102004D01*
X0401674Y0101998D01*
X0401709Y0101963D01*
X0402002Y0101963D01*
X0402293Y0101933D01*
X0402331Y0101963D01*
X0406088Y0101963D01*
X0406126Y0101933D01*
X0406417Y0101963D01*
X0406710Y0101963D01*
X0406745Y0101998D01*
X0406808Y0102004D01*
X0406893Y0101961D01*
X0407131Y0102038D01*
X0407380Y0102065D01*
X0407440Y0102139D01*
X0407546Y0102173D01*
X0407638Y0102148D01*
X0407855Y0102274D01*
X0408093Y0102351D01*
X0408136Y0102436D01*
X0408232Y0102491D01*
X0408328Y0102486D01*
X0408514Y0102654D01*
X0408730Y0102779D01*
X0408755Y0102871D01*
X0408838Y0102946D01*
X0408932Y0102960D01*
X0409079Y0103163D01*
X0409265Y0103330D01*
X0409270Y0103426D01*
X0409316Y0103490D01*
X0409316Y0090632D01*
X0408701Y0091248D01*
X0407010Y0091948D01*
X0405180Y0091948D01*
X0403489Y0091248D01*
X0402195Y0089954D01*
X0401495Y0088263D01*
X0401495Y0087070D01*
X0400348Y0088217D01*
X0398238Y0089091D01*
X0396955Y0089091D01*
X0396955Y0089763D01*
X0396255Y0091454D01*
X0394961Y0092748D01*
X0393535Y0093338D01*
X0394195Y0094933D01*
X0394195Y0096763D01*
X0393495Y0098454D01*
X0392201Y0099748D01*
X0390510Y0100448D01*
X0388680Y0100448D01*
X0386989Y0099748D01*
X0385695Y0098454D01*
X0384995Y0096763D01*
X0384995Y0094933D01*
X0385695Y0093242D01*
X0386989Y0091948D01*
X0388416Y0091358D01*
X0387755Y0089763D01*
X0387755Y0087933D01*
X0388455Y0086242D01*
X0389749Y0084948D01*
X0391352Y0084285D01*
X0391352Y0082206D01*
X0391779Y0081175D01*
X0391182Y0078393D01*
X0390254Y0079321D01*
X0387231Y0080573D01*
X0383959Y0080573D01*
X0380936Y0079321D01*
X0378622Y0077007D01*
X0377370Y0073984D01*
X0377370Y0070712D01*
X0378622Y0067689D01*
X0380936Y0065375D01*
X0381873Y0064987D01*
X0380365Y0064041D01*
X0378061Y0062964D01*
X0373796Y0059376D01*
X0370605Y0054807D01*
X0370605Y0054807D01*
X0370164Y0053591D01*
X0368453Y0053591D01*
X0366342Y0052717D01*
X0364726Y0051101D01*
X0363852Y0048990D01*
X0363852Y0046706D01*
X0364352Y0045499D01*
X0364352Y0043362D01*
X0360656Y0039793D01*
X0359701Y0040748D01*
X0358010Y0041448D01*
X0356180Y0041448D01*
X0354489Y0040748D01*
X0353195Y0039454D01*
X0352495Y0037763D01*
X0352495Y0035933D01*
X0353195Y0034242D01*
X0354036Y0033402D01*
X0352971Y0032373D01*
X0351238Y0033091D01*
X0348953Y0033091D01*
X0346842Y0032217D01*
X0345226Y0030601D01*
X0344352Y0028490D01*
X0344352Y0026206D01*
X0345226Y0024095D01*
X0346842Y0022479D01*
X0347924Y0022031D01*
X0348726Y0020095D01*
X0350342Y0018479D01*
X0352453Y0017605D01*
X0354738Y0017605D01*
X0356848Y0018479D01*
X0356974Y0018605D01*
X0357757Y0018605D01*
X0359924Y0019483D01*
X0360317Y0019865D01*
X0373387Y0032551D01*
X0374489Y0031448D01*
X0376180Y0030748D01*
X0378010Y0030748D01*
X0379701Y0031448D01*
X0380995Y0032742D01*
X0381695Y0034433D01*
X0381695Y0036263D01*
X0381499Y0036737D01*
X0382680Y0036248D01*
X0384510Y0036248D01*
X0386201Y0036948D01*
X0387495Y0038242D01*
X0388195Y0039933D01*
X0388195Y0041763D01*
X0387495Y0043454D01*
X0386825Y0044123D01*
X0387231Y0044123D01*
X0390254Y0045375D01*
X0392568Y0047689D01*
X0393820Y0050712D01*
X0393820Y0053593D01*
X0393851Y0053580D01*
X0397339Y0053580D01*
X0397370Y0053593D01*
X0397370Y0050712D01*
X0398622Y0047689D01*
X0400936Y0045375D01*
X0403087Y0044484D01*
X0402995Y0044263D01*
X0402995Y0042433D01*
X0403695Y0040742D01*
X0404989Y0039448D01*
X0406680Y0038748D01*
X0408510Y0038748D01*
X0409316Y0039082D01*
X0409316Y0019114D01*
X0408510Y0019448D01*
X0406680Y0019448D01*
X0404989Y0018748D01*
X0403695Y0017454D01*
X0402995Y0015763D01*
X0402995Y0013933D01*
X0403569Y0012548D01*
X0391621Y0012548D01*
X0392195Y0013933D01*
X0392195Y0015763D01*
X0391495Y0017454D01*
X0390201Y0018748D01*
X0388510Y0019448D01*
X0386680Y0019448D01*
X0384989Y0018748D01*
X0383695Y0017454D01*
X0382995Y0015763D01*
X0382995Y0013933D01*
X0383569Y0012548D01*
X0368800Y0012548D01*
X0368995Y0012742D01*
X0369695Y0014433D01*
X0369695Y0016263D01*
X0368995Y0017954D01*
X0367701Y0019248D01*
X0366010Y0019948D01*
X0364180Y0019948D01*
X0362489Y0019248D01*
X0361195Y0017954D01*
X0360495Y0016263D01*
X0360495Y0014433D01*
X0361195Y0012742D01*
X0361390Y0012548D01*
X0313638Y0012548D01*
X0314095Y0013652D01*
X0314095Y0014990D01*
X0314680Y0014748D01*
X0316510Y0014748D01*
X0318201Y0015448D01*
X0319495Y0016742D01*
X0320195Y0018433D01*
X0320195Y0018848D01*
X0321129Y0018848D01*
X0321129Y0018169D01*
X0321829Y0016479D01*
X0323123Y0015185D01*
X0324814Y0014484D01*
X0326644Y0014484D01*
X0328335Y0015185D01*
X0329629Y0016479D01*
X0330329Y0018169D01*
X0330329Y0019999D01*
X0329629Y0021690D01*
X0328335Y0022984D01*
X0327522Y0023320D01*
X0327415Y0023535D01*
X0326562Y0024310D01*
X0326995Y0024742D01*
X0327641Y0026302D01*
X0329201Y0026948D01*
X0330495Y0028242D01*
X0331195Y0029933D01*
X0331195Y0030248D01*
X0331510Y0030248D01*
X0333201Y0030948D01*
X0334495Y0032242D01*
X0335195Y0033933D01*
X0335195Y0035763D01*
X0334495Y0037454D01*
X0333201Y0038748D01*
X0331510Y0039448D01*
X0329680Y0039448D01*
X0328300Y0038876D01*
X0325616Y0039413D01*
X0325701Y0039448D01*
X0326995Y0040742D01*
X0327695Y0042433D01*
X0327695Y0043748D01*
X0329010Y0043748D01*
X0330701Y0044448D01*
X0331995Y0045742D01*
X0332695Y0047433D01*
X0332695Y0049263D01*
X0331995Y0050954D01*
X0330701Y0052248D01*
X0329605Y0052702D01*
X0330201Y0052948D01*
X0331495Y0054242D01*
X0332195Y0055933D01*
X0332195Y0057763D01*
X0331495Y0059454D01*
X0330201Y0060748D01*
X0328510Y0061448D01*
X0326680Y0061448D01*
X0324989Y0060748D01*
X0323695Y0059454D01*
X0322995Y0057763D01*
X0322995Y0055933D01*
X0323695Y0054242D01*
X0324989Y0052948D01*
X0326085Y0052494D01*
X0325489Y0052248D01*
X0324195Y0050954D01*
X0323495Y0049263D01*
X0323495Y0047948D01*
X0322180Y0047948D01*
X0320992Y0047456D01*
X0320201Y0048248D01*
X0318510Y0048948D01*
X0317945Y0048948D01*
X0301562Y0065331D01*
X0300578Y0066315D01*
X0299291Y0066848D01*
X0292695Y0066848D01*
X0292695Y0067263D01*
X0291995Y0068954D01*
X0290701Y0070248D01*
X0289010Y0070948D01*
X0287180Y0070948D01*
X0286195Y0070540D01*
X0286195Y0072263D01*
X0285495Y0073954D01*
X0284201Y0075248D01*
X0282510Y0075948D01*
X0280680Y0075948D01*
X0278989Y0075248D01*
X0277695Y0073954D01*
X0276995Y0072263D01*
X0276995Y0070898D01*
X0272062Y0075831D01*
X0271078Y0076815D01*
X0270010Y0077257D01*
X0270495Y0077742D01*
X0271195Y0079433D01*
X0271195Y0081263D01*
X0270746Y0082348D01*
X0271195Y0083433D01*
X0271195Y0085263D01*
X0270746Y0086348D01*
X0271195Y0087433D01*
X0271195Y0089263D01*
X0270495Y0090954D01*
X0269201Y0092248D01*
X0267994Y0092747D01*
X0267850Y0093096D01*
X0268701Y0093448D01*
X0269995Y0094742D01*
X0270695Y0096433D01*
X0270695Y0098263D01*
X0269995Y0099954D01*
X0268701Y0101248D01*
X0267010Y0101948D01*
X0265180Y0101948D01*
X0263489Y0101248D01*
X0262195Y0099954D01*
X0261495Y0098263D01*
X0261495Y0096433D01*
X0261840Y0095600D01*
X0260989Y0095248D01*
X0259695Y0093954D01*
X0258995Y0092263D01*
X0258995Y0091917D01*
X0256700Y0089852D01*
X0256613Y0089815D01*
X0256185Y0089388D01*
X0255736Y0088984D01*
X0255695Y0088898D01*
X0255628Y0088831D01*
X0255397Y0088272D01*
X0255137Y0087727D01*
X0255132Y0087632D01*
X0255095Y0087544D01*
X0255095Y0086940D01*
X0255063Y0086337D01*
X0255095Y0086247D01*
X0255095Y0080848D01*
X0218303Y0080848D01*
X0218695Y0081795D01*
X0218695Y0083625D01*
X0217995Y0085316D01*
X0216701Y0086610D01*
X0215010Y0087310D01*
X0213180Y0087310D01*
X0211489Y0086610D01*
X0210195Y0085316D01*
X0209695Y0084108D01*
X0209695Y0084263D01*
X0208995Y0085954D01*
X0208205Y0086743D01*
X0208701Y0086948D01*
X0209995Y0088242D01*
X0210695Y0089933D01*
X0210695Y0091763D01*
X0209995Y0093454D01*
X0209059Y0094390D01*
X0209201Y0094448D01*
X0210495Y0095742D01*
X0211195Y0097433D01*
X0211195Y0099263D01*
X0210495Y0100954D01*
X0209201Y0102248D01*
X0207510Y0102948D01*
X0205680Y0102948D01*
X0203989Y0102248D01*
X0202695Y0100954D01*
X0201995Y0099263D01*
X0201995Y0097433D01*
X0202695Y0095742D01*
X0203631Y0094806D01*
X0203489Y0094748D01*
X0203095Y0094353D01*
X0202701Y0094748D01*
X0201010Y0095448D01*
X0200195Y0095448D01*
X0200195Y0096263D01*
X0199850Y0097097D01*
X0200995Y0098242D01*
X0201695Y0099933D01*
X0201695Y0101763D01*
X0200995Y0103454D01*
X0200482Y0103967D01*
X0201851Y0105336D01*
X0202795Y0107615D01*
X0202795Y0110081D01*
X0201851Y0112360D01*
X0200363Y0113848D01*
X0201851Y0115336D01*
X0202795Y0117615D01*
X0202795Y0120081D01*
X0201851Y0122360D01*
X0200107Y0124104D01*
X0197828Y0125048D01*
X0195362Y0125048D01*
X0193083Y0124104D01*
X0191339Y0122360D01*
X0190395Y0120081D01*
X0190395Y0117615D01*
X0191339Y0115336D01*
X0192827Y0113848D01*
X0191339Y0112360D01*
X0190395Y0110081D01*
X0190395Y0107615D01*
X0191339Y0105336D01*
X0193083Y0103592D01*
X0193260Y0103519D01*
X0193195Y0103454D01*
X0193193Y0103448D01*
X0192680Y0103448D01*
X0190989Y0102748D01*
X0189695Y0101454D01*
X0188995Y0099763D01*
X0188995Y0097933D01*
X0189695Y0096242D01*
X0190989Y0094948D01*
X0190995Y0094946D01*
X0190995Y0094433D01*
X0191695Y0092742D01*
X0192989Y0091448D01*
X0194680Y0090748D01*
X0195495Y0090748D01*
X0195495Y0089933D01*
X0196195Y0088242D01*
X0197489Y0086948D01*
X0199180Y0086248D01*
X0201010Y0086248D01*
X0201829Y0086587D01*
X0201195Y0085954D01*
X0200495Y0084263D01*
X0200495Y0082433D01*
X0201195Y0080742D01*
X0201692Y0080246D01*
X0200489Y0079748D01*
X0199195Y0078454D01*
X0198495Y0076763D01*
X0198495Y0074933D01*
X0199195Y0073242D01*
X0200489Y0071948D01*
X0200595Y0071905D01*
X0200595Y0066652D01*
X0201128Y0065365D01*
X0202628Y0063865D01*
X0203339Y0063154D01*
X0202895Y0062081D01*
X0202895Y0059615D01*
X0203839Y0057336D01*
X0205583Y0055592D01*
X0207862Y0054648D01*
X0210328Y0054648D01*
X0210340Y0054653D01*
X0214113Y0050881D01*
X0214535Y0050706D01*
X0213083Y0050104D01*
X0211339Y0048360D01*
X0210395Y0046081D01*
X0210395Y0043615D01*
X0211339Y0041336D01*
X0212827Y0039848D01*
X0211339Y0038360D01*
X0210395Y0036081D01*
X0210395Y0035830D01*
X0208989Y0035248D01*
X0207695Y0033954D01*
X0206995Y0032263D01*
X0206995Y0030433D01*
X0207695Y0028742D01*
X0208989Y0027448D01*
X0210680Y0026748D01*
X0212415Y0026748D01*
X0212344Y0026609D01*
X0212121Y0025922D01*
X0212008Y0025209D01*
X0212008Y0025048D01*
X0216395Y0025048D01*
X0216395Y0024648D01*
X0212008Y0024648D01*
X0212008Y0024487D01*
X0212121Y0023774D01*
X0212259Y0023348D01*
X0205160Y0023348D01*
X0205195Y0023433D01*
X0205195Y0025263D01*
X0204495Y0026954D01*
X0203201Y0028248D01*
X0201510Y0028948D01*
X0199680Y0028948D01*
X0197989Y0028248D01*
X0196695Y0026954D01*
X0195995Y0025263D01*
X0195995Y0023433D01*
X0196030Y0023348D01*
X0176002Y0023348D01*
X0176244Y0023448D01*
X0177538Y0024742D01*
X0178031Y0025931D01*
X0179680Y0025248D01*
X0181510Y0025248D01*
X0183201Y0025948D01*
X0183595Y0026343D01*
X0183989Y0025948D01*
X0185680Y0025248D01*
X0187510Y0025248D01*
X0189201Y0025948D01*
X0190495Y0027242D01*
X0191195Y0028933D01*
X0191195Y0029863D01*
X0192680Y0029248D01*
X0194510Y0029248D01*
X0196201Y0029948D01*
X0197495Y0031242D01*
X0198195Y0032933D01*
X0198195Y0034763D01*
X0197495Y0036454D01*
X0196201Y0037748D01*
X0194510Y0038448D01*
X0192680Y0038448D01*
X0190989Y0037748D01*
X0190345Y0037103D01*
X0189701Y0037748D01*
X0188010Y0038448D01*
X0187445Y0038448D01*
X0181095Y0044798D01*
X0181095Y0053044D01*
X0180562Y0054331D01*
X0174562Y0060331D01*
X0173578Y0061315D01*
X0172291Y0061848D01*
X0166101Y0061848D01*
X0165701Y0062248D01*
X0164010Y0062948D01*
X0162180Y0062948D01*
X0160489Y0062248D01*
X0159195Y0060954D01*
X0158495Y0059263D01*
X0158495Y0057433D01*
X0159195Y0055742D01*
X0160489Y0054448D01*
X0162180Y0053748D01*
X0164010Y0053748D01*
X0165701Y0054448D01*
X0166101Y0054848D01*
X0170145Y0054848D01*
X0174095Y0050898D01*
X0174095Y0045948D01*
X0173680Y0045948D01*
X0171989Y0045248D01*
X0170695Y0043954D01*
X0169995Y0042263D01*
X0169995Y0040433D01*
X0170695Y0038742D01*
X0171985Y0037453D01*
X0171489Y0037248D01*
X0170195Y0035954D01*
X0169945Y0035348D01*
X0165160Y0035348D01*
X0165195Y0035433D01*
X0165195Y0037263D01*
X0164495Y0038954D01*
X0163201Y0040248D01*
X0161510Y0040948D01*
X0159680Y0040948D01*
X0157989Y0040248D01*
X0156695Y0038954D01*
X0155995Y0037263D01*
X0155995Y0035433D01*
X0156030Y0035348D01*
X0153101Y0035348D01*
X0152701Y0035748D01*
X0151010Y0036448D01*
X0149180Y0036448D01*
X0147489Y0035748D01*
X0146195Y0034454D01*
X0145495Y0032763D01*
X0145495Y0030933D01*
X0146048Y0029598D01*
X0145495Y0028263D01*
X0145495Y0026433D01*
X0146195Y0024742D01*
X0147489Y0023448D01*
X0149180Y0022748D01*
X0151010Y0022748D01*
X0152701Y0023448D01*
X0153995Y0024742D01*
X0154695Y0026433D01*
X0154695Y0028263D01*
X0154660Y0028348D01*
X0159530Y0028348D01*
X0159495Y0028263D01*
X0159495Y0027371D01*
X0157989Y0026748D01*
X0156695Y0025454D01*
X0155995Y0023763D01*
X0155995Y0021933D01*
X0156695Y0020242D01*
X0157090Y0019848D01*
X0146399Y0019848D01*
X0145113Y0019315D01*
X0144145Y0018348D01*
X0121595Y0018348D01*
X0121595Y0028843D01*
X0121995Y0029242D01*
X0122695Y0030933D01*
X0122695Y0032763D01*
X0121995Y0034454D01*
X0120701Y0035748D01*
X0119010Y0036448D01*
X0117180Y0036448D01*
X0115489Y0035748D01*
X0114195Y0034454D01*
X0113495Y0032763D01*
X0113495Y0030933D01*
X0114195Y0029242D01*
X0114595Y0028843D01*
X0114595Y0014652D01*
X0115128Y0013365D01*
X0115945Y0012548D01*
X0101329Y0012548D01*
X0101695Y0013433D01*
X0101695Y0015263D01*
X0100995Y0016954D01*
X0099701Y0018248D01*
X0098010Y0018948D01*
X0096180Y0018948D01*
X0094489Y0018248D01*
X0093476Y0017234D01*
X0093476Y0023427D01*
X0092860Y0024042D01*
X0083731Y0024042D01*
X0083690Y0039351D01*
X0083690Y0039803D01*
X0083689Y0039804D01*
X0083689Y0039805D01*
X0083367Y0040125D01*
X0083048Y0040444D01*
X0083047Y0040444D01*
X0083046Y0040445D01*
X0082592Y0040443D01*
X0052202Y0040409D01*
X0052815Y0041889D01*
X0052815Y0043719D01*
X0052115Y0045410D01*
X0051765Y0045759D01*
X0054558Y0056827D01*
X0059961Y0060638D01*
X0060060Y0060635D01*
X0060358Y0060917D01*
X0060693Y0061154D01*
X0060710Y0061251D01*
X0060781Y0061319D01*
X0060792Y0061729D01*
X0060862Y0062133D01*
X0060805Y0062214D01*
X0060948Y0067579D01*
X0061464Y0068095D01*
X0062338Y0070206D01*
X0062338Y0072490D01*
X0061464Y0074601D01*
X0061144Y0074921D01*
X0061277Y0079911D01*
X0061288Y0079922D01*
X0061290Y0080406D01*
X0061303Y0080890D01*
X0061293Y0080901D01*
X0061293Y0080916D01*
X0060953Y0081260D01*
X0060619Y0081612D01*
X0060604Y0081612D01*
X0060594Y0081623D01*
X0060110Y0081625D01*
X0059625Y0081638D01*
X0059615Y0081628D01*
X0057817Y0081638D01*
X0057420Y0081820D01*
X0057353Y0081822D01*
X0057291Y0081848D01*
X0056660Y0081848D01*
X0054565Y0081925D01*
X0054510Y0081948D01*
X0053950Y0081948D01*
X0051414Y0082042D01*
X0051414Y0111798D01*
X0058530Y0111798D01*
X0060030Y0113298D01*
X0060645Y0113913D01*
X0060645Y0118276D01*
X0061464Y0119095D01*
X0062338Y0121206D01*
X0062338Y0123490D01*
X0061464Y0125601D01*
X0060645Y0126420D01*
X0060645Y0131157D01*
X0060731Y0131385D01*
X0060645Y0131574D01*
X0060645Y0131783D01*
X0060473Y0131955D01*
X0059043Y0135117D01*
X0054538Y0145774D01*
X0065322Y0145774D01*
X0065791Y0145648D01*
X0069399Y0145648D01*
X0069868Y0145774D01*
X0081149Y0145774D01*
X0081600Y0145773D01*
X0081601Y0145774D01*
X0081603Y0145774D01*
X0081924Y0146095D01*
X0082243Y0146412D01*
X0082243Y0146414D01*
X0082245Y0146415D01*
X0082245Y0146868D01*
X0082318Y0173893D01*
X0082319Y0173894D01*
X0082319Y0174348D01*
X0132145Y0174348D01*
X0131628Y0173831D01*
X0131095Y0172544D01*
X0131095Y0172175D01*
X0130950Y0172321D01*
X0128671Y0173265D01*
X0126204Y0173265D01*
X0123926Y0172321D01*
X0122516Y0170911D01*
X0121107Y0172321D01*
X0118828Y0173265D01*
X0116362Y0173265D01*
X0114083Y0172321D01*
X0112674Y0170911D01*
X0111265Y0172321D01*
X0108986Y0173265D01*
X0106519Y0173265D01*
X0104241Y0172321D01*
X0102497Y0170577D01*
X0101553Y0168298D01*
X0101553Y0165831D01*
X0102497Y0163553D01*
X0104241Y0161808D01*
X0106519Y0160865D01*
X0108986Y0160865D01*
X0111265Y0161808D01*
X0112674Y0163218D01*
X0114083Y0161808D01*
X0116362Y0160865D01*
X0118828Y0160865D01*
X0121107Y0161808D01*
X0122516Y0163218D01*
X0123926Y0161808D01*
X0126204Y0160865D01*
X0128671Y0160865D01*
X0130950Y0161808D01*
X0131095Y0161954D01*
X0131095Y0156499D01*
X0130489Y0156248D01*
X0129195Y0154954D01*
X0128495Y0153263D01*
X0128495Y0151433D01*
X0129195Y0149742D01*
X0130489Y0148448D01*
X0132180Y0147748D01*
X0132595Y0147748D01*
X0132595Y0143791D01*
X0132489Y0143748D01*
X0131195Y0142454D01*
X0130495Y0140763D01*
X0130539Y0138827D02*
X0057474Y0138827D01*
X0058150Y0137229D02*
X0131209Y0137229D01*
X0133257Y0135630D02*
X0058826Y0135630D01*
X0059534Y0134032D02*
X0197406Y0134032D01*
X0197989Y0133448D02*
X0196695Y0134742D01*
X0195995Y0136433D01*
X0195995Y0138263D01*
X0196695Y0139954D01*
X0197989Y0141248D01*
X0199680Y0141948D01*
X0201510Y0141948D01*
X0203201Y0141248D01*
X0204495Y0139954D01*
X0205195Y0138263D01*
X0205195Y0136433D01*
X0204495Y0134742D01*
X0203201Y0133448D01*
X0201510Y0132748D01*
X0199680Y0132748D01*
X0197989Y0133448D01*
X0196328Y0135630D02*
X0136933Y0135630D01*
X0138981Y0137229D02*
X0195995Y0137229D01*
X0196229Y0138827D02*
X0139651Y0138827D01*
X0139695Y0140426D02*
X0197168Y0140426D01*
X0204023Y0140426D02*
X0206668Y0140426D01*
X0206195Y0139954D02*
X0205495Y0138263D01*
X0205495Y0136433D01*
X0206195Y0134742D01*
X0207489Y0133448D01*
X0209180Y0132748D01*
X0211010Y0132748D01*
X0212701Y0133448D01*
X0213995Y0134742D01*
X0214695Y0136433D01*
X0214695Y0138263D01*
X0213995Y0139954D01*
X0212998Y0140950D01*
X0214201Y0141448D01*
X0215495Y0142742D01*
X0216195Y0144433D01*
X0216195Y0146263D01*
X0215495Y0147954D01*
X0214201Y0149248D01*
X0212510Y0149948D01*
X0210680Y0149948D01*
X0208989Y0149248D01*
X0207695Y0147954D01*
X0206995Y0146263D01*
X0206995Y0144433D01*
X0207695Y0142742D01*
X0208692Y0141746D01*
X0207489Y0141248D01*
X0206195Y0139954D01*
X0205729Y0138827D02*
X0204961Y0138827D01*
X0205195Y0137229D02*
X0205495Y0137229D01*
X0205828Y0135630D02*
X0204863Y0135630D01*
X0203784Y0134032D02*
X0206906Y0134032D01*
X0213284Y0134032D02*
X0236495Y0134032D01*
X0236495Y0133433D02*
X0236495Y0135263D01*
X0237195Y0136954D01*
X0238489Y0138248D01*
X0240180Y0138948D01*
X0242010Y0138948D01*
X0243701Y0138248D01*
X0244688Y0137261D01*
X0243995Y0138933D01*
X0243995Y0140763D01*
X0244695Y0142454D01*
X0245989Y0143748D01*
X0247680Y0144448D01*
X0249510Y0144448D01*
X0251201Y0143748D01*
X0252495Y0142454D01*
X0253195Y0140763D01*
X0253195Y0138933D01*
X0252495Y0137242D01*
X0251201Y0135948D01*
X0249510Y0135248D01*
X0247680Y0135248D01*
X0245989Y0135948D01*
X0245002Y0136935D01*
X0245695Y0135263D01*
X0245695Y0133433D01*
X0244995Y0131742D01*
X0243701Y0130448D01*
X0242010Y0129748D01*
X0240180Y0129748D01*
X0238489Y0130448D01*
X0237195Y0131742D01*
X0236495Y0133433D01*
X0236909Y0132433D02*
X0086515Y0132433D01*
X0086201Y0132748D02*
X0084510Y0133448D01*
X0082680Y0133448D01*
X0080989Y0132748D01*
X0079695Y0131454D01*
X0078995Y0129763D01*
X0078995Y0127933D01*
X0079695Y0126242D01*
X0080989Y0124948D01*
X0082680Y0124248D01*
X0084510Y0124248D01*
X0086201Y0124948D01*
X0087495Y0126242D01*
X0088195Y0127933D01*
X0088195Y0129763D01*
X0087495Y0131454D01*
X0086201Y0132748D01*
X0087751Y0130835D02*
X0238103Y0130835D01*
X0236647Y0135630D02*
X0214363Y0135630D01*
X0214695Y0137229D02*
X0237471Y0137229D01*
X0239889Y0138827D02*
X0214461Y0138827D01*
X0213523Y0140426D02*
X0243995Y0140426D01*
X0244039Y0138827D02*
X0242301Y0138827D01*
X0244518Y0142024D02*
X0214777Y0142024D01*
X0215860Y0143623D02*
X0245865Y0143623D01*
X0251326Y0143623D02*
X0265495Y0143623D01*
X0265495Y0143433D02*
X0266195Y0141742D01*
X0267489Y0140448D01*
X0269180Y0139748D01*
X0271010Y0139748D01*
X0272701Y0140448D01*
X0273995Y0141742D01*
X0274695Y0143433D01*
X0274695Y0144950D01*
X0275195Y0143742D01*
X0276489Y0142448D01*
X0278180Y0141748D01*
X0280010Y0141748D01*
X0281701Y0142448D01*
X0282995Y0143742D01*
X0283695Y0145433D01*
X0283695Y0147263D01*
X0282995Y0148954D01*
X0281701Y0150248D01*
X0280010Y0150948D01*
X0278180Y0150948D01*
X0276489Y0150248D01*
X0275195Y0148954D01*
X0274495Y0147263D01*
X0274495Y0145746D01*
X0273995Y0146954D01*
X0272701Y0148248D01*
X0271010Y0148948D01*
X0269180Y0148948D01*
X0267489Y0148248D01*
X0266195Y0146954D01*
X0265495Y0145263D01*
X0265495Y0143433D01*
X0266079Y0142024D02*
X0252673Y0142024D01*
X0253195Y0140426D02*
X0267543Y0140426D01*
X0272647Y0140426D02*
X0304012Y0140426D01*
X0303695Y0140742D02*
X0304989Y0139448D01*
X0306680Y0138748D01*
X0308490Y0138748D01*
X0308489Y0138748D01*
X0307195Y0137454D01*
X0306495Y0135763D01*
X0306495Y0133933D01*
X0306841Y0133099D01*
X0306695Y0132954D01*
X0305995Y0131263D01*
X0305995Y0129433D01*
X0306695Y0127742D01*
X0307989Y0126448D01*
X0309680Y0125748D01*
X0311510Y0125748D01*
X0313201Y0126448D01*
X0314495Y0127742D01*
X0315195Y0129433D01*
X0315195Y0131263D01*
X0314850Y0132097D01*
X0314995Y0132242D01*
X0315695Y0133933D01*
X0315695Y0135763D01*
X0314995Y0137454D01*
X0313701Y0138748D01*
X0312010Y0139448D01*
X0310200Y0139448D01*
X0310201Y0139448D01*
X0311495Y0140742D01*
X0312195Y0142433D01*
X0312195Y0144263D01*
X0311495Y0145954D01*
X0310201Y0147248D01*
X0308510Y0147948D01*
X0306680Y0147948D01*
X0304989Y0147248D01*
X0303695Y0145954D01*
X0302995Y0144263D01*
X0302995Y0142433D01*
X0303695Y0140742D01*
X0303164Y0142024D02*
X0280678Y0142024D01*
X0282875Y0143623D02*
X0302995Y0143623D01*
X0303392Y0145221D02*
X0283608Y0145221D01*
X0283695Y0146820D02*
X0287299Y0146820D01*
X0286989Y0146948D02*
X0288680Y0146248D01*
X0290510Y0146248D01*
X0292201Y0146948D01*
X0293495Y0148242D01*
X0294195Y0149933D01*
X0294195Y0151763D01*
X0293495Y0153454D01*
X0292201Y0154748D01*
X0290510Y0155448D01*
X0288680Y0155448D01*
X0286989Y0154748D01*
X0285695Y0153454D01*
X0284995Y0151763D01*
X0284995Y0149933D01*
X0285695Y0148242D01*
X0286989Y0146948D01*
X0285622Y0148419D02*
X0283217Y0148419D01*
X0281932Y0150017D02*
X0284995Y0150017D01*
X0284995Y0151616D02*
X0250564Y0151616D01*
X0250695Y0151933D02*
X0249995Y0150242D01*
X0248701Y0148948D01*
X0247010Y0148248D01*
X0245180Y0148248D01*
X0243489Y0148948D01*
X0242195Y0150242D01*
X0241495Y0151933D01*
X0241495Y0152449D01*
X0241010Y0152248D01*
X0239180Y0152248D01*
X0237489Y0152948D01*
X0236195Y0154242D01*
X0235495Y0155933D01*
X0235495Y0157763D01*
X0236195Y0159454D01*
X0237489Y0160748D01*
X0239180Y0161448D01*
X0241010Y0161448D01*
X0242701Y0160748D01*
X0243995Y0159454D01*
X0244695Y0157763D01*
X0244695Y0157247D01*
X0245180Y0157448D01*
X0247010Y0157448D01*
X0248701Y0156748D01*
X0249995Y0155454D01*
X0250695Y0153763D01*
X0250695Y0151933D01*
X0250695Y0153214D02*
X0285596Y0153214D01*
X0287146Y0154813D02*
X0250260Y0154813D01*
X0249989Y0155948D02*
X0251680Y0155248D01*
X0253510Y0155248D01*
X0255201Y0155948D01*
X0256495Y0157242D01*
X0257195Y0158933D01*
X0257195Y0160763D01*
X0256495Y0162454D01*
X0255201Y0163748D01*
X0253510Y0164448D01*
X0251680Y0164448D01*
X0249989Y0163748D01*
X0248695Y0162454D01*
X0247995Y0160763D01*
X0247995Y0158933D01*
X0248695Y0157242D01*
X0249989Y0155948D01*
X0249527Y0156411D02*
X0249037Y0156411D01*
X0248378Y0158010D02*
X0244593Y0158010D01*
X0243840Y0159608D02*
X0247995Y0159608D01*
X0248179Y0161207D02*
X0241593Y0161207D01*
X0238597Y0161207D02*
X0233695Y0161207D01*
X0233695Y0161763D02*
X0232995Y0163454D01*
X0231701Y0164748D01*
X0230010Y0165448D01*
X0228180Y0165448D01*
X0226489Y0164748D01*
X0225195Y0163454D01*
X0224495Y0161763D01*
X0224495Y0159933D01*
X0225195Y0158242D01*
X0226489Y0156948D01*
X0228180Y0156248D01*
X0230010Y0156248D01*
X0231701Y0156948D01*
X0232995Y0158242D01*
X0233695Y0159933D01*
X0233695Y0161763D01*
X0233263Y0162805D02*
X0249047Y0162805D01*
X0251573Y0164404D02*
X0232045Y0164404D01*
X0226145Y0164404D02*
X0195976Y0164404D01*
X0196195Y0166002D02*
X0356495Y0166002D01*
X0356175Y0164404D02*
X0253617Y0164404D01*
X0256143Y0162805D02*
X0355513Y0162805D01*
X0355495Y0161207D02*
X0306093Y0161207D01*
X0305510Y0161448D02*
X0307201Y0160748D01*
X0308495Y0159454D01*
X0309195Y0157763D01*
X0309195Y0155933D01*
X0308495Y0154242D01*
X0307201Y0152948D01*
X0305510Y0152248D01*
X0303680Y0152248D01*
X0301989Y0152948D01*
X0300695Y0154242D01*
X0299995Y0155933D01*
X0299995Y0157763D01*
X0300695Y0159454D01*
X0301989Y0160748D01*
X0303680Y0161448D01*
X0305510Y0161448D01*
X0303097Y0161207D02*
X0257011Y0161207D01*
X0257195Y0159608D02*
X0300850Y0159608D01*
X0300097Y0158010D02*
X0256813Y0158010D01*
X0255664Y0156411D02*
X0299995Y0156411D01*
X0300459Y0154813D02*
X0292044Y0154813D01*
X0293594Y0153214D02*
X0301724Y0153214D01*
X0307467Y0153214D02*
X0331995Y0153214D01*
X0331995Y0153763D02*
X0331995Y0151933D01*
X0332695Y0150242D01*
X0333989Y0148948D01*
X0335680Y0148248D01*
X0337510Y0148248D01*
X0339201Y0148948D01*
X0340495Y0150242D01*
X0341195Y0151933D01*
X0341195Y0153763D01*
X0340495Y0155454D01*
X0339201Y0156748D01*
X0337510Y0157448D01*
X0335680Y0157448D01*
X0333989Y0156748D01*
X0332695Y0155454D01*
X0331995Y0153763D01*
X0332430Y0154813D02*
X0308731Y0154813D01*
X0309195Y0156411D02*
X0333653Y0156411D01*
X0339537Y0156411D02*
X0362971Y0156411D01*
X0362762Y0158010D02*
X0364251Y0158010D01*
X0364146Y0159608D02*
X0370595Y0159608D01*
X0370595Y0158010D02*
X0369939Y0158010D01*
X0369073Y0161207D02*
X0364695Y0161207D01*
X0364678Y0162805D02*
X0367169Y0162805D01*
X0366507Y0164404D02*
X0365476Y0164404D01*
X0365695Y0166002D02*
X0366495Y0166002D01*
X0356044Y0159608D02*
X0308340Y0159608D01*
X0309093Y0158010D02*
X0357428Y0158010D01*
X0362495Y0154813D02*
X0340760Y0154813D01*
X0341195Y0153214D02*
X0362586Y0153214D01*
X0363322Y0151616D02*
X0341064Y0151616D01*
X0340270Y0150017D02*
X0365531Y0150017D01*
X0367216Y0148419D02*
X0337922Y0148419D01*
X0335269Y0148419D02*
X0293568Y0148419D01*
X0294195Y0150017D02*
X0332921Y0150017D01*
X0332127Y0151616D02*
X0294195Y0151616D01*
X0291891Y0146820D02*
X0304562Y0146820D01*
X0310629Y0146820D02*
X0365617Y0146820D01*
X0364019Y0145221D02*
X0311798Y0145221D01*
X0312195Y0143623D02*
X0362420Y0143623D01*
X0360822Y0142024D02*
X0329033Y0142024D01*
X0329701Y0141748D02*
X0328010Y0142448D01*
X0326180Y0142448D01*
X0324489Y0141748D01*
X0323195Y0140454D01*
X0322495Y0138763D01*
X0322495Y0136933D01*
X0323195Y0135242D01*
X0324489Y0133948D01*
X0326180Y0133248D01*
X0326395Y0133248D01*
X0326395Y0133115D01*
X0327339Y0130836D01*
X0328827Y0129348D01*
X0327339Y0127860D01*
X0326395Y0125581D01*
X0326395Y0123115D01*
X0327339Y0120836D01*
X0328827Y0119348D01*
X0327339Y0117860D01*
X0326395Y0115581D01*
X0326395Y0113115D01*
X0327339Y0110836D01*
X0329083Y0109092D01*
X0331362Y0108148D01*
X0333828Y0108148D01*
X0336107Y0109092D01*
X0337595Y0110580D01*
X0339083Y0109092D01*
X0341362Y0108148D01*
X0343828Y0108148D01*
X0346107Y0109092D01*
X0347851Y0110836D01*
X0348795Y0113115D01*
X0348795Y0115581D01*
X0347851Y0117860D01*
X0346363Y0119348D01*
X0347851Y0120836D01*
X0348795Y0123115D01*
X0348795Y0125581D01*
X0347851Y0127860D01*
X0346107Y0129604D01*
X0344608Y0130225D01*
X0344999Y0130425D01*
X0345584Y0130849D01*
X0346094Y0131360D01*
X0346519Y0131944D01*
X0346846Y0132587D01*
X0347070Y0133274D01*
X0347183Y0133987D01*
X0347183Y0134148D01*
X0342795Y0134148D01*
X0342795Y0134548D01*
X0342395Y0134548D01*
X0342395Y0138935D01*
X0342234Y0138935D01*
X0341521Y0138822D01*
X0340834Y0138599D01*
X0340191Y0138272D01*
X0339607Y0137847D01*
X0339096Y0137337D01*
X0338672Y0136752D01*
X0338472Y0136361D01*
X0337851Y0137860D01*
X0336107Y0139604D01*
X0333828Y0140548D01*
X0331362Y0140548D01*
X0331015Y0140404D01*
X0330995Y0140454D01*
X0329701Y0141748D01*
X0331006Y0140426D02*
X0331067Y0140426D01*
X0334123Y0140426D02*
X0359223Y0140426D01*
X0357625Y0138827D02*
X0343638Y0138827D01*
X0343669Y0138822D02*
X0342956Y0138935D01*
X0342795Y0138935D01*
X0342795Y0134548D01*
X0347183Y0134548D01*
X0347183Y0134709D01*
X0347070Y0135422D01*
X0346846Y0136109D01*
X0346519Y0136752D01*
X0346094Y0137337D01*
X0345584Y0137847D01*
X0344999Y0138272D01*
X0344356Y0138599D01*
X0343669Y0138822D01*
X0342795Y0138827D02*
X0342395Y0138827D01*
X0341552Y0138827D02*
X0336884Y0138827D01*
X0338113Y0137229D02*
X0339018Y0137229D01*
X0342395Y0137229D02*
X0342795Y0137229D01*
X0342795Y0135630D02*
X0342395Y0135630D01*
X0346172Y0137229D02*
X0356026Y0137229D01*
X0354428Y0135630D02*
X0347002Y0135630D01*
X0347183Y0134032D02*
X0351774Y0134032D01*
X0350480Y0132433D02*
X0346768Y0132433D01*
X0345564Y0130835D02*
X0349995Y0130835D01*
X0350077Y0129236D02*
X0346475Y0129236D01*
X0347943Y0127638D02*
X0350800Y0127638D01*
X0352977Y0126039D02*
X0348605Y0126039D01*
X0348795Y0124441D02*
X0384113Y0124441D01*
X0383495Y0126039D02*
X0356213Y0126039D01*
X0358390Y0127638D02*
X0383495Y0127638D01*
X0384105Y0129236D02*
X0359114Y0129236D01*
X0359532Y0130835D02*
X0385700Y0130835D01*
X0388369Y0132433D02*
X0361130Y0132433D01*
X0362729Y0134032D02*
X0389859Y0134032D01*
X0394160Y0138827D02*
X0367524Y0138827D01*
X0365926Y0137229D02*
X0396019Y0137229D01*
X0397300Y0134032D02*
X0398498Y0134032D01*
X0399410Y0135630D02*
X0364327Y0135630D01*
X0369123Y0140426D02*
X0393498Y0140426D01*
X0393495Y0142024D02*
X0370721Y0142024D01*
X0372320Y0143623D02*
X0381771Y0143623D01*
X0381500Y0145221D02*
X0373918Y0145221D01*
X0375517Y0146820D02*
X0378299Y0146820D01*
X0368814Y0150017D02*
X0368660Y0150017D01*
X0400171Y0137229D02*
X0409316Y0137229D01*
X0409316Y0138827D02*
X0402030Y0138827D01*
X0402692Y0140426D02*
X0409316Y0140426D01*
X0409316Y0142024D02*
X0402695Y0142024D01*
X0409008Y0135630D02*
X0409316Y0135630D01*
X0383218Y0122842D02*
X0348682Y0122842D01*
X0348020Y0121244D02*
X0381609Y0121244D01*
X0380995Y0119645D02*
X0346661Y0119645D01*
X0347664Y0118047D02*
X0380995Y0118047D01*
X0381610Y0116448D02*
X0348436Y0116448D01*
X0348795Y0114850D02*
X0383227Y0114850D01*
X0384692Y0113251D02*
X0348795Y0113251D01*
X0348190Y0111653D02*
X0386703Y0111653D01*
X0386229Y0110054D02*
X0347069Y0110054D01*
X0344571Y0108456D02*
X0384197Y0108456D01*
X0383534Y0106857D02*
X0324042Y0106857D01*
X0323995Y0106742D02*
X0324695Y0108433D01*
X0324695Y0110263D01*
X0323995Y0111954D01*
X0322701Y0113248D01*
X0321010Y0113948D01*
X0319180Y0113948D01*
X0317489Y0113248D01*
X0316195Y0111954D01*
X0315495Y0110263D01*
X0315495Y0108433D01*
X0315987Y0107245D01*
X0315695Y0106954D01*
X0314995Y0105263D01*
X0314995Y0103433D01*
X0315695Y0101742D01*
X0316989Y0100448D01*
X0318680Y0099748D01*
X0320510Y0099748D01*
X0322201Y0100448D01*
X0323495Y0101742D01*
X0324195Y0103433D01*
X0324195Y0105263D01*
X0323703Y0106451D01*
X0323995Y0106742D01*
X0324195Y0105259D02*
X0383495Y0105259D01*
X0384022Y0103660D02*
X0324195Y0103660D01*
X0323627Y0102062D02*
X0385376Y0102062D01*
X0386106Y0098865D02*
X0322711Y0098865D01*
X0322510Y0098948D02*
X0320680Y0098948D01*
X0320200Y0098749D01*
X0319701Y0099248D01*
X0318010Y0099948D01*
X0316180Y0099948D01*
X0314489Y0099248D01*
X0313195Y0097954D01*
X0312495Y0096263D01*
X0312495Y0094433D01*
X0313195Y0092742D01*
X0314489Y0091448D01*
X0316180Y0090748D01*
X0318010Y0090748D01*
X0318491Y0090947D01*
X0318989Y0090448D01*
X0320680Y0089748D01*
X0322510Y0089748D01*
X0324201Y0090448D01*
X0325495Y0091742D01*
X0326195Y0093433D01*
X0326195Y0095263D01*
X0325495Y0096954D01*
X0324201Y0098248D01*
X0322510Y0098948D01*
X0322216Y0100463D02*
X0409316Y0100463D01*
X0409316Y0098865D02*
X0393084Y0098865D01*
X0393987Y0097266D02*
X0409316Y0097266D01*
X0409316Y0095668D02*
X0394195Y0095668D01*
X0393837Y0094069D02*
X0409316Y0094069D01*
X0409316Y0092471D02*
X0395238Y0092471D01*
X0396496Y0090872D02*
X0403114Y0090872D01*
X0401914Y0089274D02*
X0396955Y0089274D01*
X0400890Y0087675D02*
X0401495Y0087675D01*
X0409076Y0090872D02*
X0409316Y0090872D01*
X0409316Y0102062D02*
X0407352Y0102062D01*
X0401066Y0102062D02*
X0390814Y0102062D01*
X0395288Y0103660D02*
X0398945Y0103660D01*
X0398416Y0105259D02*
X0397895Y0105259D01*
X0385204Y0097266D02*
X0353949Y0097266D01*
X0353510Y0097448D02*
X0351680Y0097448D01*
X0349989Y0096748D01*
X0348695Y0095454D01*
X0347995Y0093763D01*
X0347995Y0091933D01*
X0348695Y0090242D01*
X0349989Y0088948D01*
X0351680Y0088248D01*
X0353510Y0088248D01*
X0355201Y0088948D01*
X0356495Y0090242D01*
X0357195Y0091933D01*
X0357195Y0093763D01*
X0356495Y0095454D01*
X0355201Y0096748D01*
X0353510Y0097448D01*
X0351241Y0097266D02*
X0325182Y0097266D01*
X0326028Y0095668D02*
X0348909Y0095668D01*
X0348122Y0094069D02*
X0326195Y0094069D01*
X0325796Y0092471D02*
X0347995Y0092471D01*
X0348435Y0090872D02*
X0324625Y0090872D01*
X0318566Y0090872D02*
X0318310Y0090872D01*
X0315881Y0090872D02*
X0304443Y0090872D01*
X0304695Y0090263D02*
X0303995Y0091954D01*
X0302701Y0093248D01*
X0301010Y0093948D01*
X0299180Y0093948D01*
X0297489Y0093248D01*
X0296195Y0091954D01*
X0295495Y0090263D01*
X0295495Y0088433D01*
X0296195Y0086742D01*
X0297489Y0085448D01*
X0299180Y0084748D01*
X0301010Y0084748D01*
X0302701Y0085448D01*
X0303995Y0086742D01*
X0304695Y0088433D01*
X0304695Y0090263D01*
X0304695Y0089274D02*
X0349664Y0089274D01*
X0349989Y0086748D02*
X0348695Y0085454D01*
X0347995Y0083763D01*
X0347995Y0081933D01*
X0348695Y0080242D01*
X0349989Y0078948D01*
X0351680Y0078248D01*
X0353510Y0078248D01*
X0355201Y0078948D01*
X0356495Y0080242D01*
X0357195Y0081933D01*
X0357195Y0083763D01*
X0356495Y0085454D01*
X0355201Y0086748D01*
X0353510Y0087448D01*
X0351680Y0087448D01*
X0349989Y0086748D01*
X0349318Y0086077D02*
X0303329Y0086077D01*
X0304381Y0087675D02*
X0360373Y0087675D01*
X0360695Y0088454D02*
X0359995Y0086763D01*
X0359995Y0084933D01*
X0360695Y0083242D01*
X0361989Y0081948D01*
X0363680Y0081248D01*
X0365510Y0081248D01*
X0367201Y0081948D01*
X0368495Y0083242D01*
X0369195Y0084933D01*
X0369195Y0086763D01*
X0368495Y0088454D01*
X0367201Y0089748D01*
X0365510Y0090448D01*
X0363680Y0090448D01*
X0361989Y0089748D01*
X0360695Y0088454D01*
X0361515Y0089274D02*
X0355526Y0089274D01*
X0356756Y0090872D02*
X0388214Y0090872D01*
X0387755Y0089274D02*
X0367675Y0089274D01*
X0368817Y0087675D02*
X0387862Y0087675D01*
X0388621Y0086077D02*
X0369195Y0086077D01*
X0369007Y0084478D02*
X0390885Y0084478D01*
X0391352Y0082880D02*
X0368132Y0082880D01*
X0365590Y0081281D02*
X0391735Y0081281D01*
X0391459Y0079683D02*
X0389381Y0079683D01*
X0381809Y0079683D02*
X0355935Y0079683D01*
X0356925Y0081281D02*
X0363600Y0081281D01*
X0361058Y0082880D02*
X0357195Y0082880D01*
X0356899Y0084478D02*
X0360184Y0084478D01*
X0359995Y0086077D02*
X0355872Y0086077D01*
X0348291Y0084478D02*
X0330145Y0084478D01*
X0330701Y0084248D02*
X0329010Y0084948D01*
X0327180Y0084948D01*
X0325489Y0084248D01*
X0324195Y0082954D01*
X0323495Y0081263D01*
X0323495Y0079433D01*
X0323695Y0078952D01*
X0322995Y0077263D01*
X0322995Y0075433D01*
X0323695Y0073742D01*
X0324840Y0072598D01*
X0323695Y0071454D01*
X0322995Y0069763D01*
X0322995Y0067933D01*
X0323695Y0066242D01*
X0324989Y0064948D01*
X0326680Y0064248D01*
X0328510Y0064248D01*
X0330201Y0064948D01*
X0331495Y0066242D01*
X0332195Y0067933D01*
X0332195Y0069763D01*
X0331495Y0071454D01*
X0330351Y0072598D01*
X0331495Y0073742D01*
X0332195Y0075433D01*
X0332195Y0077263D01*
X0331996Y0077744D01*
X0332695Y0079433D01*
X0332695Y0081263D01*
X0331995Y0082954D01*
X0330701Y0084248D01*
X0332026Y0082880D02*
X0347995Y0082880D01*
X0348265Y0081281D02*
X0332688Y0081281D01*
X0332695Y0079683D02*
X0349255Y0079683D01*
X0360695Y0071454D02*
X0361989Y0072748D01*
X0363680Y0073448D01*
X0365510Y0073448D01*
X0367201Y0072748D01*
X0368495Y0071454D01*
X0369195Y0069763D01*
X0369195Y0067933D01*
X0368495Y0066242D01*
X0367201Y0064948D01*
X0365510Y0064248D01*
X0363680Y0064248D01*
X0361989Y0064948D01*
X0360695Y0066242D01*
X0359995Y0067933D01*
X0359995Y0069763D01*
X0360695Y0071454D01*
X0360932Y0071690D02*
X0331259Y0071690D01*
X0331041Y0073288D02*
X0363295Y0073288D01*
X0365895Y0073288D02*
X0377370Y0073288D01*
X0377370Y0071690D02*
X0368259Y0071690D01*
X0369059Y0070091D02*
X0377627Y0070091D01*
X0378289Y0068493D02*
X0369195Y0068493D01*
X0368765Y0066894D02*
X0379417Y0066894D01*
X0381127Y0065296D02*
X0367548Y0065296D01*
X0363201Y0061748D02*
X0361510Y0062448D01*
X0359680Y0062448D01*
X0357989Y0061748D01*
X0356695Y0060454D01*
X0355995Y0058763D01*
X0355995Y0056933D01*
X0356445Y0055848D01*
X0355995Y0054763D01*
X0355995Y0052933D01*
X0356695Y0051242D01*
X0357989Y0049948D01*
X0359680Y0049248D01*
X0361510Y0049248D01*
X0363201Y0049948D01*
X0364495Y0051242D01*
X0365195Y0052933D01*
X0365195Y0054763D01*
X0364746Y0055848D01*
X0365195Y0056933D01*
X0365195Y0058763D01*
X0364495Y0060454D01*
X0363201Y0061748D01*
X0362353Y0062099D02*
X0377033Y0062099D01*
X0378061Y0062964D02*
X0378061Y0062964D01*
X0379630Y0063697D02*
X0303195Y0063697D01*
X0301597Y0065296D02*
X0324642Y0065296D01*
X0323425Y0066894D02*
X0316937Y0066894D01*
X0316936Y0066893D02*
X0305125Y0066893D01*
X0304255Y0066893D01*
X0303640Y0067508D01*
X0303640Y0080188D01*
X0304255Y0080804D01*
X0316936Y0080804D01*
X0317551Y0080188D01*
X0317551Y0067508D01*
X0316936Y0066893D01*
X0317551Y0068493D02*
X0322995Y0068493D01*
X0323131Y0070091D02*
X0317551Y0070091D01*
X0317551Y0071690D02*
X0323932Y0071690D01*
X0324149Y0073288D02*
X0317551Y0073288D01*
X0317551Y0074887D02*
X0323221Y0074887D01*
X0322995Y0076486D02*
X0317551Y0076486D01*
X0317551Y0078084D02*
X0323335Y0078084D01*
X0323495Y0079683D02*
X0317551Y0079683D01*
X0323503Y0081281D02*
X0271188Y0081281D01*
X0271195Y0079683D02*
X0303640Y0079683D01*
X0303640Y0078084D02*
X0270636Y0078084D01*
X0271407Y0076486D02*
X0303640Y0076486D01*
X0303640Y0074887D02*
X0284562Y0074887D01*
X0285770Y0073288D02*
X0303640Y0073288D01*
X0303640Y0071690D02*
X0286195Y0071690D01*
X0290857Y0070091D02*
X0303640Y0070091D01*
X0303640Y0068493D02*
X0292186Y0068493D01*
X0292695Y0066894D02*
X0304253Y0066894D01*
X0304794Y0062099D02*
X0358837Y0062099D01*
X0356742Y0060500D02*
X0330448Y0060500D01*
X0331723Y0058902D02*
X0356053Y0058902D01*
X0355995Y0057303D02*
X0332195Y0057303D01*
X0332101Y0055705D02*
X0340593Y0055705D01*
X0341180Y0055948D02*
X0339489Y0055248D01*
X0338195Y0053954D01*
X0338193Y0053948D01*
X0337680Y0053948D01*
X0335989Y0053248D01*
X0334695Y0051954D01*
X0333995Y0050263D01*
X0333995Y0048433D01*
X0334695Y0046742D01*
X0335989Y0045448D01*
X0337680Y0044748D01*
X0339510Y0044748D01*
X0341201Y0045448D01*
X0342495Y0046742D01*
X0342497Y0046748D01*
X0343010Y0046748D01*
X0344701Y0047448D01*
X0345995Y0048742D01*
X0346695Y0050433D01*
X0346695Y0052263D01*
X0345995Y0053954D01*
X0344701Y0055248D01*
X0343010Y0055948D01*
X0341180Y0055948D01*
X0343597Y0055705D02*
X0356385Y0055705D01*
X0355995Y0054106D02*
X0345842Y0054106D01*
X0346594Y0052508D02*
X0356171Y0052508D01*
X0357028Y0050909D02*
X0346695Y0050909D01*
X0346230Y0049311D02*
X0359529Y0049311D01*
X0361662Y0049311D02*
X0363985Y0049311D01*
X0363852Y0047712D02*
X0344965Y0047712D01*
X0341866Y0046114D02*
X0364097Y0046114D01*
X0364352Y0044515D02*
X0330768Y0044515D01*
X0332149Y0046114D02*
X0335324Y0046114D01*
X0334294Y0047712D02*
X0332695Y0047712D01*
X0332675Y0049311D02*
X0333995Y0049311D01*
X0334263Y0050909D02*
X0332013Y0050909D01*
X0330073Y0052508D02*
X0335250Y0052508D01*
X0338348Y0054106D02*
X0331359Y0054106D01*
X0326053Y0052508D02*
X0314385Y0052508D01*
X0312787Y0054106D02*
X0323831Y0054106D01*
X0323090Y0055705D02*
X0311188Y0055705D01*
X0309590Y0057303D02*
X0322995Y0057303D01*
X0323467Y0058902D02*
X0307991Y0058902D01*
X0306393Y0060500D02*
X0324742Y0060500D01*
X0330548Y0065296D02*
X0361642Y0065296D01*
X0360425Y0066894D02*
X0331765Y0066894D01*
X0332195Y0068493D02*
X0359995Y0068493D01*
X0360131Y0070091D02*
X0332059Y0070091D01*
X0331969Y0074887D02*
X0377744Y0074887D01*
X0378406Y0076486D02*
X0332195Y0076486D01*
X0332136Y0078084D02*
X0379699Y0078084D01*
X0386467Y0092471D02*
X0357195Y0092471D01*
X0357068Y0094069D02*
X0385353Y0094069D01*
X0384995Y0095668D02*
X0356281Y0095668D01*
X0340619Y0108456D02*
X0334571Y0108456D01*
X0337069Y0110054D02*
X0338121Y0110054D01*
X0330619Y0108456D02*
X0324695Y0108456D01*
X0324695Y0110054D02*
X0328121Y0110054D01*
X0327001Y0111653D02*
X0324119Y0111653D01*
X0322692Y0113251D02*
X0326395Y0113251D01*
X0326395Y0114850D02*
X0288922Y0114850D01*
X0289495Y0114277D02*
X0288201Y0115571D01*
X0286510Y0116271D01*
X0284680Y0116271D01*
X0282989Y0115571D01*
X0281695Y0114277D01*
X0280995Y0112586D01*
X0280995Y0110756D01*
X0281695Y0109065D01*
X0282989Y0107771D01*
X0284680Y0107071D01*
X0286510Y0107071D01*
X0288201Y0107771D01*
X0289495Y0109065D01*
X0290195Y0110756D01*
X0290195Y0112586D01*
X0289495Y0114277D01*
X0289920Y0113251D02*
X0317498Y0113251D01*
X0316071Y0111653D02*
X0290195Y0111653D01*
X0289905Y0110054D02*
X0315495Y0110054D01*
X0315495Y0108456D02*
X0309699Y0108456D01*
X0310201Y0108248D02*
X0308510Y0108948D01*
X0306680Y0108948D01*
X0304989Y0108248D01*
X0303695Y0106954D01*
X0302995Y0105263D01*
X0302995Y0103433D01*
X0303695Y0101742D01*
X0304989Y0100448D01*
X0306680Y0099748D01*
X0308510Y0099748D01*
X0310201Y0100448D01*
X0311495Y0101742D01*
X0312195Y0103433D01*
X0312195Y0105263D01*
X0311495Y0106954D01*
X0310201Y0108248D01*
X0311535Y0106857D02*
X0315655Y0106857D01*
X0314995Y0105259D02*
X0312195Y0105259D01*
X0312195Y0103660D02*
X0314995Y0103660D01*
X0315563Y0102062D02*
X0311627Y0102062D01*
X0310216Y0100463D02*
X0316975Y0100463D01*
X0314106Y0098865D02*
X0294418Y0098865D01*
X0294701Y0098748D02*
X0293010Y0099448D01*
X0291180Y0099448D01*
X0290095Y0098999D01*
X0289010Y0099448D01*
X0287180Y0099448D01*
X0285489Y0098748D01*
X0284195Y0097454D01*
X0283495Y0095763D01*
X0283495Y0093933D01*
X0284195Y0092242D01*
X0285489Y0090948D01*
X0287180Y0090248D01*
X0289010Y0090248D01*
X0290095Y0090697D01*
X0291180Y0090248D01*
X0293010Y0090248D01*
X0294701Y0090948D01*
X0295995Y0092242D01*
X0296695Y0093933D01*
X0296695Y0095763D01*
X0295995Y0097454D01*
X0294701Y0098748D01*
X0294989Y0100448D02*
X0296680Y0099748D01*
X0298510Y0099748D01*
X0300201Y0100448D01*
X0301495Y0101742D01*
X0302195Y0103433D01*
X0302195Y0105263D01*
X0301495Y0106954D01*
X0300201Y0108248D01*
X0298510Y0108948D01*
X0296680Y0108948D01*
X0294989Y0108248D01*
X0293695Y0106954D01*
X0292995Y0105263D01*
X0292995Y0103433D01*
X0293695Y0101742D01*
X0294989Y0100448D01*
X0294975Y0100463D02*
X0269485Y0100463D01*
X0270446Y0098865D02*
X0285772Y0098865D01*
X0284118Y0097266D02*
X0270695Y0097266D01*
X0270378Y0095668D02*
X0283495Y0095668D01*
X0283495Y0094069D02*
X0269322Y0094069D01*
X0268663Y0092471D02*
X0284101Y0092471D01*
X0285673Y0090872D02*
X0270529Y0090872D01*
X0271191Y0089274D02*
X0295495Y0089274D01*
X0295747Y0090872D02*
X0294517Y0090872D01*
X0296089Y0092471D02*
X0296712Y0092471D01*
X0296695Y0094069D02*
X0312646Y0094069D01*
X0312495Y0095668D02*
X0296695Y0095668D01*
X0296073Y0097266D02*
X0312911Y0097266D01*
X0313467Y0092471D02*
X0303478Y0092471D01*
X0295809Y0087675D02*
X0271195Y0087675D01*
X0270858Y0086077D02*
X0296861Y0086077D01*
X0278629Y0074887D02*
X0273006Y0074887D01*
X0274604Y0073288D02*
X0277420Y0073288D01*
X0276995Y0071690D02*
X0276203Y0071690D01*
X0271099Y0066894D02*
X0269154Y0066894D01*
X0269130Y0066919D02*
X0269201Y0066948D01*
X0270123Y0067870D01*
X0277613Y0060381D01*
X0278899Y0059848D01*
X0280291Y0059848D01*
X0297145Y0059848D01*
X0304145Y0052848D01*
X0291246Y0052848D01*
X0290995Y0053454D01*
X0289701Y0054748D01*
X0288010Y0055448D01*
X0286180Y0055448D01*
X0284489Y0054748D01*
X0283195Y0053454D01*
X0282495Y0051763D01*
X0282495Y0049933D01*
X0282696Y0049448D01*
X0282680Y0049448D01*
X0280989Y0048748D01*
X0279695Y0047454D01*
X0278995Y0045763D01*
X0278995Y0043933D01*
X0279695Y0042242D01*
X0280989Y0040948D01*
X0281241Y0040844D01*
X0282049Y0038941D01*
X0282427Y0038577D01*
X0282427Y0038577D01*
X0283153Y0037875D01*
X0283428Y0037609D01*
X0283428Y0037609D01*
X0296642Y0024852D01*
X0300396Y0021098D01*
X0300461Y0021032D01*
X0301380Y0020113D01*
X0301380Y0020113D01*
X0301732Y0019761D01*
X0303937Y0018848D01*
X0305995Y0018848D01*
X0305995Y0018433D01*
X0306445Y0017348D01*
X0282049Y0017348D01*
X0282113Y0017416D01*
X0282562Y0017865D01*
X0282586Y0017923D01*
X0287089Y0022748D01*
X0287510Y0022748D01*
X0289201Y0023448D01*
X0290495Y0024742D01*
X0291195Y0026433D01*
X0291195Y0028263D01*
X0290495Y0029954D01*
X0289201Y0031248D01*
X0287510Y0031948D01*
X0285680Y0031948D01*
X0283989Y0031248D01*
X0282695Y0029954D01*
X0281995Y0028263D01*
X0281995Y0027549D01*
X0278074Y0023348D01*
X0263685Y0023348D01*
X0263795Y0023615D01*
X0263795Y0026081D01*
X0263790Y0026093D01*
X0265474Y0027777D01*
X0265695Y0027242D01*
X0266989Y0025948D01*
X0268680Y0025248D01*
X0270510Y0025248D01*
X0272201Y0025948D01*
X0273495Y0027242D01*
X0274195Y0028933D01*
X0274195Y0030763D01*
X0273495Y0032454D01*
X0272201Y0033748D01*
X0270752Y0034348D01*
X0272090Y0034348D01*
X0272489Y0033948D01*
X0274180Y0033248D01*
X0276010Y0033248D01*
X0277701Y0033948D01*
X0278995Y0035242D01*
X0279695Y0036933D01*
X0279695Y0038763D01*
X0278995Y0040454D01*
X0277701Y0041748D01*
X0276695Y0042164D01*
X0276695Y0042263D01*
X0275995Y0043954D01*
X0274701Y0045248D01*
X0273752Y0045641D01*
X0267855Y0051538D01*
X0267363Y0052030D01*
X0267060Y0052333D01*
X0266871Y0052522D01*
X0266730Y0052663D01*
X0266730Y0052663D01*
X0265076Y0053348D01*
X0261931Y0053348D01*
X0262070Y0053774D01*
X0262183Y0054487D01*
X0262183Y0054648D01*
X0257795Y0054648D01*
X0257795Y0055048D01*
X0262183Y0055048D01*
X0262183Y0055209D01*
X0262070Y0055922D01*
X0261846Y0056609D01*
X0261772Y0056754D01*
X0262078Y0056881D01*
X0263062Y0057865D01*
X0264460Y0059263D01*
X0264980Y0059048D01*
X0266810Y0059048D01*
X0268501Y0059748D01*
X0269795Y0061042D01*
X0270495Y0062733D01*
X0270495Y0064563D01*
X0269795Y0066254D01*
X0269130Y0066919D01*
X0270192Y0065296D02*
X0272697Y0065296D01*
X0274296Y0063697D02*
X0270495Y0063697D01*
X0270232Y0062099D02*
X0275895Y0062099D01*
X0277493Y0060500D02*
X0269253Y0060500D01*
X0264099Y0058902D02*
X0298092Y0058902D01*
X0299690Y0057303D02*
X0262500Y0057303D01*
X0262104Y0055705D02*
X0273447Y0055705D01*
X0273989Y0056248D02*
X0272695Y0054954D01*
X0271995Y0053263D01*
X0271995Y0051433D01*
X0272695Y0049742D01*
X0273989Y0048448D01*
X0275680Y0047748D01*
X0277510Y0047748D01*
X0279201Y0048448D01*
X0280495Y0049742D01*
X0281195Y0051433D01*
X0281195Y0053263D01*
X0280495Y0054954D01*
X0279201Y0056248D01*
X0277510Y0056948D01*
X0275680Y0056948D01*
X0273989Y0056248D01*
X0272344Y0054106D02*
X0262122Y0054106D01*
X0266871Y0052522D02*
X0266871Y0052522D01*
X0266885Y0052508D02*
X0271995Y0052508D01*
X0272212Y0050909D02*
X0268484Y0050909D01*
X0267363Y0052030D02*
X0267363Y0052030D01*
X0270082Y0049311D02*
X0273127Y0049311D01*
X0271681Y0047712D02*
X0279954Y0047712D01*
X0280063Y0049311D02*
X0282349Y0049311D01*
X0282495Y0050909D02*
X0280978Y0050909D01*
X0281195Y0052508D02*
X0282804Y0052508D01*
X0283848Y0054106D02*
X0280846Y0054106D01*
X0279744Y0055705D02*
X0301289Y0055705D01*
X0302887Y0054106D02*
X0290342Y0054106D01*
X0279140Y0046114D02*
X0273279Y0046114D01*
X0275433Y0044515D02*
X0278995Y0044515D01*
X0279416Y0042917D02*
X0276424Y0042917D01*
X0278130Y0041318D02*
X0280620Y0041318D01*
X0281719Y0039720D02*
X0279299Y0039720D01*
X0279695Y0038121D02*
X0282898Y0038121D01*
X0282049Y0038941D02*
X0282049Y0038941D01*
X0284554Y0036523D02*
X0279525Y0036523D01*
X0278677Y0034924D02*
X0286209Y0034924D01*
X0287865Y0033326D02*
X0276198Y0033326D01*
X0273993Y0033326D02*
X0272623Y0033326D01*
X0273796Y0031727D02*
X0285147Y0031727D01*
X0282870Y0030129D02*
X0274195Y0030129D01*
X0274028Y0028530D02*
X0282106Y0028530D01*
X0281419Y0026932D02*
X0273184Y0026932D01*
X0270716Y0025333D02*
X0279927Y0025333D01*
X0278435Y0023735D02*
X0263795Y0023735D01*
X0263795Y0025333D02*
X0268475Y0025333D01*
X0266006Y0026932D02*
X0264628Y0026932D01*
X0283534Y0018939D02*
X0303717Y0018939D01*
X0301732Y0019761D02*
X0301732Y0019761D01*
X0300956Y0020538D02*
X0285026Y0020538D01*
X0286518Y0022136D02*
X0299357Y0022136D01*
X0297759Y0023735D02*
X0289487Y0023735D01*
X0290740Y0025333D02*
X0296143Y0025333D01*
X0294487Y0026932D02*
X0291195Y0026932D01*
X0291084Y0028530D02*
X0292832Y0028530D01*
X0291176Y0030129D02*
X0290320Y0030129D01*
X0289521Y0031727D02*
X0288043Y0031727D01*
X0314095Y0014144D02*
X0360615Y0014144D01*
X0360495Y0015742D02*
X0328892Y0015742D01*
X0329986Y0017341D02*
X0334250Y0017341D01*
X0333989Y0017448D02*
X0335680Y0016748D01*
X0337510Y0016748D01*
X0339201Y0017448D01*
X0340495Y0018742D01*
X0341195Y0020433D01*
X0341195Y0022263D01*
X0340495Y0023954D01*
X0339201Y0025248D01*
X0337510Y0025948D01*
X0335680Y0025948D01*
X0333989Y0025248D01*
X0332695Y0023954D01*
X0331995Y0022263D01*
X0331995Y0020433D01*
X0332695Y0018742D01*
X0333989Y0017448D01*
X0332614Y0018939D02*
X0330329Y0018939D01*
X0330106Y0020538D02*
X0331995Y0020538D01*
X0331995Y0022136D02*
X0329182Y0022136D01*
X0327415Y0023535D02*
X0327415Y0023535D01*
X0327195Y0023735D02*
X0332605Y0023735D01*
X0334196Y0025333D02*
X0327240Y0025333D01*
X0329161Y0026932D02*
X0344352Y0026932D01*
X0344368Y0028530D02*
X0330614Y0028530D01*
X0331195Y0030129D02*
X0345030Y0030129D01*
X0346352Y0031727D02*
X0333980Y0031727D01*
X0334944Y0033326D02*
X0353957Y0033326D01*
X0352913Y0034924D02*
X0335195Y0034924D01*
X0334880Y0036523D02*
X0352495Y0036523D01*
X0352644Y0038121D02*
X0333827Y0038121D01*
X0327233Y0041318D02*
X0355867Y0041318D01*
X0358323Y0041318D02*
X0362235Y0041318D01*
X0363891Y0042917D02*
X0327695Y0042917D01*
X0325972Y0039720D02*
X0353461Y0039720D01*
X0370892Y0030129D02*
X0390610Y0030129D01*
X0390610Y0031727D02*
X0379980Y0031727D01*
X0381236Y0033326D02*
X0390610Y0033326D01*
X0390610Y0034924D02*
X0381695Y0034924D01*
X0381588Y0036523D02*
X0382017Y0036523D01*
X0385173Y0036523D02*
X0409316Y0036523D01*
X0409316Y0038121D02*
X0387374Y0038121D01*
X0388107Y0039720D02*
X0404718Y0039720D01*
X0403457Y0041318D02*
X0388195Y0041318D01*
X0387717Y0042917D02*
X0402995Y0042917D01*
X0403012Y0044515D02*
X0388178Y0044515D01*
X0390993Y0046114D02*
X0400197Y0046114D01*
X0398613Y0047712D02*
X0392578Y0047712D01*
X0393240Y0049311D02*
X0397951Y0049311D01*
X0397370Y0050909D02*
X0393820Y0050909D01*
X0393820Y0052508D02*
X0397370Y0052508D01*
X0375132Y0060500D02*
X0364448Y0060500D01*
X0365138Y0058902D02*
X0373465Y0058902D01*
X0373796Y0059376D02*
X0373796Y0059376D01*
X0373796Y0059376D01*
X0372348Y0057303D02*
X0365195Y0057303D01*
X0364805Y0055705D02*
X0371232Y0055705D01*
X0370351Y0054106D02*
X0365195Y0054106D01*
X0365019Y0052508D02*
X0366133Y0052508D01*
X0364647Y0050909D02*
X0364162Y0050909D01*
X0390610Y0035618D02*
X0390610Y0023079D01*
X0391252Y0022437D01*
X0392159Y0022437D01*
X0404087Y0022437D01*
X0404729Y0023079D01*
X0404729Y0035618D01*
X0404087Y0036259D01*
X0391252Y0036259D01*
X0390610Y0035618D01*
X0390610Y0028530D02*
X0369245Y0028530D01*
X0367598Y0026932D02*
X0390610Y0026932D01*
X0390610Y0025333D02*
X0365951Y0025333D01*
X0364304Y0023735D02*
X0390610Y0023735D01*
X0389739Y0018939D02*
X0405452Y0018939D01*
X0403649Y0017341D02*
X0391542Y0017341D01*
X0392195Y0015742D02*
X0402995Y0015742D01*
X0402995Y0014144D02*
X0392195Y0014144D01*
X0385452Y0018939D02*
X0368009Y0018939D01*
X0369249Y0017341D02*
X0383649Y0017341D01*
X0382995Y0015742D02*
X0369695Y0015742D01*
X0369575Y0014144D02*
X0382995Y0014144D01*
X0362181Y0018939D02*
X0358582Y0018939D01*
X0359924Y0019483D02*
X0359924Y0019483D01*
X0361010Y0020538D02*
X0409316Y0020538D01*
X0409316Y0022136D02*
X0362657Y0022136D01*
X0360941Y0017341D02*
X0338941Y0017341D01*
X0340576Y0018939D02*
X0349882Y0018939D01*
X0348543Y0020538D02*
X0341195Y0020538D01*
X0341195Y0022136D02*
X0347670Y0022136D01*
X0345586Y0023735D02*
X0340586Y0023735D01*
X0338995Y0025333D02*
X0344713Y0025333D01*
X0322566Y0015742D02*
X0318495Y0015742D01*
X0319743Y0017341D02*
X0321472Y0017341D01*
X0372539Y0031727D02*
X0374211Y0031727D01*
X0404729Y0031727D02*
X0409316Y0031727D01*
X0409316Y0030129D02*
X0404729Y0030129D01*
X0404729Y0028530D02*
X0409316Y0028530D01*
X0409316Y0026932D02*
X0404729Y0026932D01*
X0404729Y0025333D02*
X0409316Y0025333D01*
X0409316Y0023735D02*
X0404729Y0023735D01*
X0404729Y0033326D02*
X0409316Y0033326D01*
X0409316Y0034924D02*
X0404729Y0034924D01*
X0324177Y0050909D02*
X0315984Y0050909D01*
X0317582Y0049311D02*
X0323515Y0049311D01*
X0321611Y0047712D02*
X0320736Y0047712D01*
X0324165Y0082880D02*
X0270966Y0082880D01*
X0271195Y0084478D02*
X0326046Y0084478D01*
X0320479Y0098865D02*
X0320084Y0098865D01*
X0304975Y0100463D02*
X0300216Y0100463D01*
X0301627Y0102062D02*
X0303563Y0102062D01*
X0302995Y0103660D02*
X0302195Y0103660D01*
X0302195Y0105259D02*
X0302995Y0105259D01*
X0303655Y0106857D02*
X0301535Y0106857D01*
X0299699Y0108456D02*
X0305492Y0108456D01*
X0295492Y0108456D02*
X0288885Y0108456D01*
X0293655Y0106857D02*
X0266110Y0106857D01*
X0266495Y0107242D02*
X0267195Y0108933D01*
X0267195Y0109156D01*
X0268180Y0108748D01*
X0270010Y0108748D01*
X0271701Y0109448D01*
X0272995Y0110742D01*
X0273695Y0112433D01*
X0273695Y0114263D01*
X0272995Y0115954D01*
X0271701Y0117248D01*
X0270252Y0117848D01*
X0271701Y0118448D01*
X0272995Y0119742D01*
X0273345Y0120588D01*
X0273695Y0119742D01*
X0274989Y0118448D01*
X0276680Y0117748D01*
X0278510Y0117748D01*
X0280201Y0118448D01*
X0281495Y0119742D01*
X0282195Y0121433D01*
X0282195Y0123263D01*
X0281495Y0124954D01*
X0280201Y0126248D01*
X0278510Y0126948D01*
X0276680Y0126948D01*
X0274989Y0126248D01*
X0273695Y0124954D01*
X0273345Y0124108D01*
X0272995Y0124954D01*
X0271701Y0126248D01*
X0270010Y0126948D01*
X0268180Y0126948D01*
X0266489Y0126248D01*
X0265195Y0124954D01*
X0264495Y0123263D01*
X0264495Y0121433D01*
X0264834Y0120614D01*
X0263701Y0121748D01*
X0262010Y0122448D01*
X0260180Y0122448D01*
X0258489Y0121748D01*
X0257195Y0120454D01*
X0256495Y0118763D01*
X0256495Y0116933D01*
X0257195Y0115242D01*
X0258489Y0113948D01*
X0259692Y0113450D01*
X0258695Y0112454D01*
X0257995Y0110763D01*
X0257995Y0109953D01*
X0257995Y0109954D01*
X0256701Y0111248D01*
X0255495Y0111747D01*
X0254995Y0112954D01*
X0253701Y0114248D01*
X0252010Y0114948D01*
X0250180Y0114948D01*
X0248489Y0114248D01*
X0247195Y0112954D01*
X0246495Y0111263D01*
X0246495Y0109433D01*
X0247195Y0107742D01*
X0248489Y0106448D01*
X0249696Y0105949D01*
X0250195Y0104742D01*
X0251489Y0103448D01*
X0252340Y0103096D01*
X0251995Y0102263D01*
X0251995Y0101957D01*
X0251489Y0101748D01*
X0251095Y0101353D01*
X0250701Y0101748D01*
X0249010Y0102448D01*
X0247180Y0102448D01*
X0245489Y0101748D01*
X0244195Y0100454D01*
X0243495Y0098763D01*
X0243495Y0096933D01*
X0244195Y0095242D01*
X0245489Y0093948D01*
X0247180Y0093248D01*
X0249010Y0093248D01*
X0250701Y0093948D01*
X0251095Y0094343D01*
X0251489Y0093948D01*
X0253180Y0093248D01*
X0255010Y0093248D01*
X0256701Y0093948D01*
X0257995Y0095242D01*
X0258695Y0096933D01*
X0258695Y0097239D01*
X0259201Y0097448D01*
X0260495Y0098742D01*
X0261195Y0100433D01*
X0261195Y0102263D01*
X0260495Y0103954D01*
X0259201Y0105248D01*
X0258350Y0105600D01*
X0258695Y0106433D01*
X0258695Y0107243D01*
X0258695Y0107242D01*
X0259989Y0105948D01*
X0261680Y0105248D01*
X0263510Y0105248D01*
X0265201Y0105948D01*
X0266495Y0107242D01*
X0266997Y0108456D02*
X0282305Y0108456D01*
X0281286Y0110054D02*
X0272307Y0110054D01*
X0273372Y0111653D02*
X0280995Y0111653D01*
X0281271Y0113251D02*
X0273695Y0113251D01*
X0273452Y0114850D02*
X0282269Y0114850D01*
X0279231Y0118047D02*
X0294391Y0118047D01*
X0294989Y0117448D02*
X0293695Y0118742D01*
X0292995Y0120433D01*
X0292995Y0121248D01*
X0291180Y0121248D01*
X0289489Y0121948D01*
X0288195Y0123242D01*
X0287495Y0124933D01*
X0287495Y0126763D01*
X0288195Y0128454D01*
X0289489Y0129748D01*
X0291180Y0130448D01*
X0293010Y0130448D01*
X0294701Y0129748D01*
X0295995Y0128454D01*
X0296695Y0126763D01*
X0296695Y0125948D01*
X0298510Y0125948D01*
X0300201Y0125248D01*
X0301495Y0123954D01*
X0302195Y0122263D01*
X0302195Y0120433D01*
X0301495Y0118742D01*
X0300201Y0117448D01*
X0298510Y0116748D01*
X0296680Y0116748D01*
X0294989Y0117448D01*
X0293321Y0119645D02*
X0281398Y0119645D01*
X0282117Y0121244D02*
X0292995Y0121244D01*
X0288595Y0122842D02*
X0282195Y0122842D01*
X0281707Y0124441D02*
X0287699Y0124441D01*
X0287495Y0126039D02*
X0280409Y0126039D01*
X0274781Y0126039D02*
X0271909Y0126039D01*
X0273207Y0124441D02*
X0273483Y0124441D01*
X0266281Y0126039D02*
X0254695Y0126039D01*
X0254695Y0125933D02*
X0253995Y0124242D01*
X0252701Y0122948D01*
X0251010Y0122248D01*
X0249180Y0122248D01*
X0247489Y0122948D01*
X0246195Y0124242D01*
X0245495Y0125933D01*
X0245495Y0127763D01*
X0246195Y0129454D01*
X0247489Y0130748D01*
X0249180Y0131448D01*
X0251010Y0131448D01*
X0252701Y0130748D01*
X0253995Y0129454D01*
X0254695Y0127763D01*
X0254695Y0125933D01*
X0254077Y0124441D02*
X0264983Y0124441D01*
X0264495Y0122842D02*
X0252445Y0122842D01*
X0247745Y0122842D02*
X0220472Y0122842D01*
X0220701Y0122748D02*
X0219010Y0123448D01*
X0217180Y0123448D01*
X0215489Y0122748D01*
X0214195Y0121454D01*
X0214020Y0121030D01*
X0213010Y0121448D01*
X0211180Y0121448D01*
X0209489Y0120748D01*
X0208195Y0119454D01*
X0207495Y0117763D01*
X0207495Y0115933D01*
X0208195Y0114242D01*
X0209489Y0112948D01*
X0211180Y0112248D01*
X0213010Y0112248D01*
X0214701Y0112948D01*
X0215995Y0114242D01*
X0216170Y0114666D01*
X0217180Y0114248D01*
X0219010Y0114248D01*
X0220701Y0114948D01*
X0221995Y0116242D01*
X0222695Y0117933D01*
X0222695Y0119763D01*
X0221995Y0121454D01*
X0220701Y0122748D01*
X0222082Y0121244D02*
X0257986Y0121244D01*
X0256861Y0119645D02*
X0230803Y0119645D01*
X0230701Y0119748D02*
X0229010Y0120448D01*
X0227180Y0120448D01*
X0225489Y0119748D01*
X0224195Y0118454D01*
X0223495Y0116763D01*
X0223495Y0114933D01*
X0224195Y0113242D01*
X0225489Y0111948D01*
X0227180Y0111248D01*
X0229010Y0111248D01*
X0230701Y0111948D01*
X0231995Y0113242D01*
X0232695Y0114933D01*
X0232695Y0116763D01*
X0231995Y0118454D01*
X0230701Y0119748D01*
X0232163Y0118047D02*
X0256495Y0118047D01*
X0256696Y0116448D02*
X0232695Y0116448D01*
X0232661Y0114850D02*
X0249943Y0114850D01*
X0252247Y0114850D02*
X0257588Y0114850D01*
X0259493Y0113251D02*
X0254697Y0113251D01*
X0255723Y0111653D02*
X0258364Y0111653D01*
X0257995Y0110054D02*
X0257894Y0110054D01*
X0258695Y0106857D02*
X0259081Y0106857D01*
X0259174Y0105259D02*
X0261654Y0105259D01*
X0263536Y0105259D02*
X0292995Y0105259D01*
X0292995Y0103660D02*
X0260616Y0103660D01*
X0261195Y0102062D02*
X0293563Y0102062D01*
X0272500Y0116448D02*
X0326754Y0116448D01*
X0327526Y0118047D02*
X0300799Y0118047D01*
X0301869Y0119645D02*
X0328530Y0119645D01*
X0327170Y0121244D02*
X0302195Y0121244D01*
X0301955Y0122842D02*
X0326508Y0122842D01*
X0326395Y0124441D02*
X0301008Y0124441D01*
X0296695Y0126039D02*
X0308977Y0126039D01*
X0306800Y0127638D02*
X0296333Y0127638D01*
X0295212Y0129236D02*
X0306077Y0129236D01*
X0305995Y0130835D02*
X0297220Y0130835D01*
X0297010Y0130748D02*
X0298701Y0131448D01*
X0299995Y0132742D01*
X0300695Y0134433D01*
X0300695Y0136263D01*
X0299995Y0137954D01*
X0298701Y0139248D01*
X0297010Y0139948D01*
X0295180Y0139948D01*
X0293489Y0139248D01*
X0292195Y0137954D01*
X0291495Y0136263D01*
X0291495Y0134433D01*
X0292195Y0132742D01*
X0293489Y0131448D01*
X0295180Y0130748D01*
X0297010Y0130748D01*
X0294970Y0130835D02*
X0284087Y0130835D01*
X0283701Y0130448D02*
X0284995Y0131742D01*
X0285695Y0133433D01*
X0285695Y0135263D01*
X0284995Y0136954D01*
X0283701Y0138248D01*
X0282010Y0138948D01*
X0280180Y0138948D01*
X0278489Y0138248D01*
X0277195Y0136954D01*
X0276495Y0135263D01*
X0276495Y0133433D01*
X0277195Y0131742D01*
X0278489Y0130448D01*
X0280180Y0129748D01*
X0282010Y0129748D01*
X0283701Y0130448D01*
X0285281Y0132433D02*
X0292504Y0132433D01*
X0291661Y0134032D02*
X0285695Y0134032D01*
X0285543Y0135630D02*
X0291495Y0135630D01*
X0291895Y0137229D02*
X0284720Y0137229D01*
X0282301Y0138827D02*
X0293069Y0138827D01*
X0299121Y0138827D02*
X0306488Y0138827D01*
X0307102Y0137229D02*
X0300295Y0137229D01*
X0300695Y0135630D02*
X0306495Y0135630D01*
X0306495Y0134032D02*
X0300529Y0134032D01*
X0299686Y0132433D02*
X0306480Y0132433D01*
X0315074Y0132433D02*
X0326677Y0132433D01*
X0327340Y0130835D02*
X0315195Y0130835D01*
X0315114Y0129236D02*
X0328715Y0129236D01*
X0327247Y0127638D02*
X0314390Y0127638D01*
X0312213Y0126039D02*
X0326585Y0126039D01*
X0324406Y0134032D02*
X0315695Y0134032D01*
X0315695Y0135630D02*
X0323035Y0135630D01*
X0322495Y0137229D02*
X0315088Y0137229D01*
X0313508Y0138827D02*
X0322522Y0138827D01*
X0323184Y0140426D02*
X0311178Y0140426D01*
X0312026Y0142024D02*
X0325158Y0142024D01*
X0288978Y0129236D02*
X0254085Y0129236D01*
X0254695Y0127638D02*
X0287858Y0127638D01*
X0278103Y0130835D02*
X0252490Y0130835D01*
X0247700Y0130835D02*
X0244087Y0130835D01*
X0245281Y0132433D02*
X0276909Y0132433D01*
X0276495Y0134032D02*
X0245695Y0134032D01*
X0245543Y0135630D02*
X0246757Y0135630D01*
X0250433Y0135630D02*
X0276647Y0135630D01*
X0277471Y0137229D02*
X0252481Y0137229D01*
X0253151Y0138827D02*
X0279889Y0138827D01*
X0277513Y0142024D02*
X0274112Y0142024D01*
X0274695Y0143623D02*
X0275315Y0143623D01*
X0274495Y0146820D02*
X0274050Y0146820D01*
X0274974Y0148419D02*
X0272288Y0148419D01*
X0276259Y0150017D02*
X0249770Y0150017D01*
X0247422Y0148419D02*
X0267902Y0148419D01*
X0266140Y0146820D02*
X0215964Y0146820D01*
X0216195Y0145221D02*
X0265495Y0145221D01*
X0244769Y0148419D02*
X0215030Y0148419D01*
X0208160Y0148419D02*
X0167629Y0148419D01*
X0169109Y0150017D02*
X0242421Y0150017D01*
X0241627Y0151616D02*
X0169695Y0151616D01*
X0169695Y0153214D02*
X0237224Y0153214D01*
X0235959Y0154813D02*
X0169053Y0154813D01*
X0168595Y0156411D02*
X0227787Y0156411D01*
X0230404Y0156411D02*
X0235495Y0156411D01*
X0235597Y0158010D02*
X0232762Y0158010D01*
X0233561Y0159608D02*
X0236350Y0159608D01*
X0225428Y0158010D02*
X0168595Y0158010D01*
X0168595Y0159608D02*
X0179330Y0159608D01*
X0178296Y0161207D02*
X0168595Y0161207D01*
X0168595Y0162805D02*
X0177995Y0162805D01*
X0178260Y0164404D02*
X0168595Y0164404D01*
X0168595Y0166002D02*
X0179244Y0166002D01*
X0191861Y0159608D02*
X0224630Y0159608D01*
X0224495Y0161207D02*
X0192894Y0161207D01*
X0195058Y0162805D02*
X0224927Y0162805D01*
X0207226Y0146820D02*
X0139595Y0146820D01*
X0139595Y0145221D02*
X0206995Y0145221D01*
X0207331Y0143623D02*
X0139595Y0143623D01*
X0139595Y0142024D02*
X0208413Y0142024D01*
X0199294Y0124441D02*
X0246113Y0124441D01*
X0245495Y0126039D02*
X0087292Y0126039D01*
X0088073Y0127638D02*
X0245495Y0127638D01*
X0246105Y0129236D02*
X0088195Y0129236D01*
X0084976Y0124441D02*
X0193896Y0124441D01*
X0191821Y0122842D02*
X0062338Y0122842D01*
X0062338Y0121244D02*
X0082187Y0121244D01*
X0082680Y0121448D02*
X0080989Y0120748D01*
X0079695Y0119454D01*
X0078995Y0117763D01*
X0078995Y0115933D01*
X0079695Y0114242D01*
X0080989Y0112948D01*
X0082680Y0112248D01*
X0084510Y0112248D01*
X0086201Y0112948D01*
X0087495Y0114242D01*
X0088195Y0115933D01*
X0088195Y0117763D01*
X0087495Y0119454D01*
X0086201Y0120748D01*
X0084510Y0121448D01*
X0082680Y0121448D01*
X0085003Y0121244D02*
X0190877Y0121244D01*
X0190395Y0119645D02*
X0087303Y0119645D01*
X0088078Y0118047D02*
X0190395Y0118047D01*
X0190878Y0116448D02*
X0088195Y0116448D01*
X0087746Y0114850D02*
X0191825Y0114850D01*
X0192230Y0113251D02*
X0086504Y0113251D01*
X0080687Y0113251D02*
X0059983Y0113251D01*
X0060645Y0114850D02*
X0079444Y0114850D01*
X0078995Y0116448D02*
X0060645Y0116448D01*
X0060645Y0118047D02*
X0079113Y0118047D01*
X0079887Y0119645D02*
X0061692Y0119645D01*
X0061945Y0124441D02*
X0082215Y0124441D01*
X0079898Y0126039D02*
X0061026Y0126039D01*
X0060645Y0127638D02*
X0079117Y0127638D01*
X0078995Y0129236D02*
X0060645Y0129236D01*
X0060645Y0130835D02*
X0079439Y0130835D01*
X0080675Y0132433D02*
X0060257Y0132433D01*
X0056799Y0140426D02*
X0107012Y0140426D01*
X0105871Y0142024D02*
X0056123Y0142024D01*
X0055447Y0143623D02*
X0105495Y0143623D01*
X0105685Y0145221D02*
X0054772Y0145221D01*
X0082245Y0146820D02*
X0106562Y0146820D01*
X0109109Y0148419D02*
X0082249Y0148419D01*
X0082253Y0150017D02*
X0116082Y0150017D01*
X0116195Y0149742D02*
X0115495Y0151433D01*
X0115495Y0153263D01*
X0116195Y0154954D01*
X0117489Y0156248D01*
X0119180Y0156948D01*
X0121010Y0156948D01*
X0122701Y0156248D01*
X0123995Y0154954D01*
X0124695Y0153263D01*
X0124695Y0151433D01*
X0123995Y0149742D01*
X0122701Y0148448D01*
X0121010Y0147748D01*
X0119180Y0147748D01*
X0117489Y0148448D01*
X0116195Y0149742D01*
X0117561Y0148419D02*
X0111081Y0148419D01*
X0113629Y0146820D02*
X0132595Y0146820D01*
X0132595Y0145221D02*
X0114505Y0145221D01*
X0114695Y0143623D02*
X0132365Y0143623D01*
X0130561Y0148419D02*
X0122629Y0148419D01*
X0124109Y0150017D02*
X0129082Y0150017D01*
X0128495Y0151616D02*
X0124695Y0151616D01*
X0124695Y0153214D02*
X0128495Y0153214D01*
X0129137Y0154813D02*
X0124053Y0154813D01*
X0122306Y0156411D02*
X0130884Y0156411D01*
X0131095Y0158010D02*
X0082275Y0158010D01*
X0082279Y0159608D02*
X0131095Y0159608D01*
X0131095Y0161207D02*
X0129497Y0161207D01*
X0125379Y0161207D02*
X0119654Y0161207D01*
X0122104Y0162805D02*
X0122929Y0162805D01*
X0115536Y0161207D02*
X0109812Y0161207D01*
X0112261Y0162805D02*
X0113086Y0162805D01*
X0105694Y0161207D02*
X0082283Y0161207D01*
X0082288Y0162805D02*
X0103244Y0162805D01*
X0102144Y0164404D02*
X0082292Y0164404D01*
X0082296Y0166002D02*
X0101553Y0166002D01*
X0101553Y0167601D02*
X0082301Y0167601D01*
X0082305Y0169199D02*
X0101926Y0169199D01*
X0102718Y0170798D02*
X0082309Y0170798D01*
X0082313Y0172396D02*
X0104423Y0172396D01*
X0111082Y0172396D02*
X0114265Y0172396D01*
X0120925Y0172396D02*
X0124108Y0172396D01*
X0130767Y0172396D02*
X0131095Y0172396D01*
X0131792Y0173995D02*
X0082319Y0173995D01*
X0082270Y0156411D02*
X0117884Y0156411D01*
X0116137Y0154813D02*
X0082266Y0154813D01*
X0082262Y0153214D02*
X0115495Y0153214D01*
X0115495Y0151616D02*
X0082257Y0151616D01*
X0144129Y0148419D02*
X0147061Y0148419D01*
X0152129Y0148419D02*
X0154561Y0148419D01*
X0159629Y0148419D02*
X0162561Y0148419D01*
X0201369Y0122842D02*
X0215718Y0122842D01*
X0214109Y0121244D02*
X0213503Y0121244D01*
X0210687Y0121244D02*
X0202314Y0121244D01*
X0202795Y0119645D02*
X0208387Y0119645D01*
X0207613Y0118047D02*
X0202795Y0118047D01*
X0202312Y0116448D02*
X0207495Y0116448D01*
X0207944Y0114850D02*
X0201365Y0114850D01*
X0200960Y0113251D02*
X0209187Y0113251D01*
X0215004Y0113251D02*
X0224192Y0113251D01*
X0223530Y0114850D02*
X0220463Y0114850D01*
X0222080Y0116448D02*
X0223495Y0116448D01*
X0224027Y0118047D02*
X0222695Y0118047D01*
X0222695Y0119645D02*
X0225387Y0119645D01*
X0226203Y0111653D02*
X0202144Y0111653D01*
X0202795Y0110054D02*
X0246495Y0110054D01*
X0246657Y0111653D02*
X0229987Y0111653D01*
X0231999Y0113251D02*
X0247493Y0113251D01*
X0246900Y0108456D02*
X0202795Y0108456D01*
X0202481Y0106857D02*
X0248081Y0106857D01*
X0249982Y0105259D02*
X0201774Y0105259D01*
X0200788Y0103660D02*
X0251278Y0103660D01*
X0251995Y0102062D02*
X0249943Y0102062D01*
X0246247Y0102062D02*
X0209387Y0102062D01*
X0210698Y0100463D02*
X0244205Y0100463D01*
X0243537Y0098865D02*
X0211195Y0098865D01*
X0211126Y0097266D02*
X0243495Y0097266D01*
X0244019Y0095668D02*
X0210420Y0095668D01*
X0209379Y0094069D02*
X0245369Y0094069D01*
X0250822Y0094069D02*
X0251369Y0094069D01*
X0256822Y0094069D02*
X0259811Y0094069D01*
X0259081Y0092471D02*
X0210402Y0092471D01*
X0210695Y0090872D02*
X0220290Y0090872D01*
X0219989Y0090748D02*
X0221680Y0091448D01*
X0223510Y0091448D01*
X0225201Y0090748D01*
X0226495Y0089454D01*
X0227195Y0087763D01*
X0227195Y0085933D01*
X0226495Y0084242D01*
X0225201Y0082948D01*
X0223510Y0082248D01*
X0221680Y0082248D01*
X0219989Y0082948D01*
X0218695Y0084242D01*
X0217995Y0085933D01*
X0217995Y0087763D01*
X0218695Y0089454D01*
X0219989Y0090748D01*
X0218621Y0089274D02*
X0210422Y0089274D01*
X0209428Y0087675D02*
X0217995Y0087675D01*
X0217995Y0086077D02*
X0217234Y0086077D01*
X0218342Y0084478D02*
X0218598Y0084478D01*
X0218695Y0082880D02*
X0220155Y0082880D01*
X0218482Y0081281D02*
X0255095Y0081281D01*
X0255095Y0082880D02*
X0225035Y0082880D01*
X0226592Y0084478D02*
X0255095Y0084478D01*
X0255095Y0086077D02*
X0227195Y0086077D01*
X0227195Y0087675D02*
X0255134Y0087675D01*
X0256058Y0089274D02*
X0226569Y0089274D01*
X0224901Y0090872D02*
X0257834Y0090872D01*
X0258171Y0095668D02*
X0261812Y0095668D01*
X0261495Y0097266D02*
X0258761Y0097266D01*
X0260545Y0098865D02*
X0261744Y0098865D01*
X0261195Y0100463D02*
X0262705Y0100463D01*
X0270731Y0118047D02*
X0275959Y0118047D01*
X0273792Y0119645D02*
X0272898Y0119645D01*
X0264573Y0121244D02*
X0264205Y0121244D01*
X0203803Y0102062D02*
X0201571Y0102062D01*
X0201695Y0100463D02*
X0202492Y0100463D01*
X0201995Y0098865D02*
X0201253Y0098865D01*
X0202064Y0097266D02*
X0200019Y0097266D01*
X0200195Y0095668D02*
X0202770Y0095668D01*
X0194381Y0090872D02*
X0182076Y0090872D01*
X0181701Y0091248D02*
X0180010Y0091948D01*
X0178180Y0091948D01*
X0176489Y0091248D01*
X0175195Y0089954D01*
X0174495Y0088263D01*
X0174495Y0086433D01*
X0175195Y0084742D01*
X0175590Y0084348D01*
X0175195Y0083954D01*
X0174495Y0082263D01*
X0174495Y0080433D01*
X0175195Y0078742D01*
X0176489Y0077448D01*
X0178180Y0076748D01*
X0180010Y0076748D01*
X0181701Y0077448D01*
X0182995Y0078742D01*
X0183695Y0080433D01*
X0183695Y0082263D01*
X0182995Y0083954D01*
X0182601Y0084348D01*
X0182995Y0084742D01*
X0183695Y0086433D01*
X0183695Y0088263D01*
X0182995Y0089954D01*
X0181701Y0091248D01*
X0183277Y0089274D02*
X0195768Y0089274D01*
X0196763Y0087675D02*
X0193169Y0087675D01*
X0192510Y0087948D02*
X0190680Y0087948D01*
X0188989Y0087248D01*
X0187695Y0085954D01*
X0186995Y0084263D01*
X0186995Y0082433D01*
X0187695Y0080742D01*
X0188989Y0079448D01*
X0189835Y0079098D01*
X0188989Y0078748D01*
X0187695Y0077454D01*
X0186995Y0075763D01*
X0186995Y0073933D01*
X0187695Y0072242D01*
X0188989Y0070948D01*
X0190680Y0070248D01*
X0192510Y0070248D01*
X0194201Y0070948D01*
X0195495Y0072242D01*
X0196195Y0073933D01*
X0196195Y0075763D01*
X0195495Y0077454D01*
X0194201Y0078748D01*
X0193355Y0079098D01*
X0194201Y0079448D01*
X0195495Y0080742D01*
X0196195Y0082433D01*
X0196195Y0084263D01*
X0195495Y0085954D01*
X0194201Y0087248D01*
X0192510Y0087948D01*
X0190021Y0087675D02*
X0183695Y0087675D01*
X0183547Y0086077D02*
X0187818Y0086077D01*
X0187084Y0084478D02*
X0182731Y0084478D01*
X0183440Y0082880D02*
X0186995Y0082880D01*
X0187472Y0081281D02*
X0183695Y0081281D01*
X0183384Y0079683D02*
X0188755Y0079683D01*
X0188326Y0078084D02*
X0182337Y0078084D01*
X0181701Y0075248D02*
X0180010Y0075948D01*
X0178180Y0075948D01*
X0176489Y0075248D01*
X0175195Y0073954D01*
X0174495Y0072263D01*
X0174495Y0070433D01*
X0175195Y0068742D01*
X0176489Y0067448D01*
X0178180Y0066748D01*
X0180010Y0066748D01*
X0181701Y0067448D01*
X0182995Y0068742D01*
X0183695Y0070433D01*
X0183695Y0072263D01*
X0182995Y0073954D01*
X0181701Y0075248D01*
X0182062Y0074887D02*
X0186995Y0074887D01*
X0187262Y0073288D02*
X0183270Y0073288D01*
X0183695Y0071690D02*
X0188248Y0071690D01*
X0183554Y0070091D02*
X0200595Y0070091D01*
X0200595Y0068493D02*
X0182745Y0068493D01*
X0180364Y0066894D02*
X0200595Y0066894D01*
X0201197Y0065296D02*
X0088638Y0065296D01*
X0088695Y0065433D02*
X0087995Y0063742D01*
X0086701Y0062448D01*
X0085010Y0061748D01*
X0083180Y0061748D01*
X0081489Y0062448D01*
X0080195Y0063742D01*
X0079495Y0065433D01*
X0079495Y0067263D01*
X0080195Y0068954D01*
X0081489Y0070248D01*
X0083180Y0070948D01*
X0085010Y0070948D01*
X0086701Y0070248D01*
X0087995Y0068954D01*
X0088695Y0067263D01*
X0088695Y0065433D01*
X0088695Y0066894D02*
X0177827Y0066894D01*
X0175445Y0068493D02*
X0088186Y0068493D01*
X0086857Y0070091D02*
X0174637Y0070091D01*
X0174495Y0071690D02*
X0062338Y0071690D01*
X0062291Y0070091D02*
X0081333Y0070091D01*
X0080005Y0068493D02*
X0061629Y0068493D01*
X0060930Y0066894D02*
X0079495Y0066894D01*
X0079552Y0065296D02*
X0060887Y0065296D01*
X0060845Y0063697D02*
X0080240Y0063697D01*
X0082333Y0062099D02*
X0060856Y0062099D01*
X0059766Y0060500D02*
X0147599Y0060500D01*
X0146989Y0060248D02*
X0145695Y0058954D01*
X0144995Y0057263D01*
X0144995Y0055433D01*
X0145695Y0053742D01*
X0146989Y0052448D01*
X0148680Y0051748D01*
X0150510Y0051748D01*
X0152201Y0052448D01*
X0153495Y0053742D01*
X0154195Y0055433D01*
X0154195Y0057263D01*
X0153495Y0058954D01*
X0152201Y0060248D01*
X0150510Y0060948D01*
X0148680Y0060948D01*
X0146989Y0060248D01*
X0145674Y0058902D02*
X0057500Y0058902D01*
X0055233Y0057303D02*
X0102331Y0057303D01*
X0102680Y0057448D02*
X0100989Y0056748D01*
X0099695Y0055454D01*
X0098995Y0053763D01*
X0098995Y0051933D01*
X0099695Y0050242D01*
X0100989Y0048948D01*
X0102680Y0048248D01*
X0104510Y0048248D01*
X0106201Y0048948D01*
X0107495Y0050242D01*
X0108195Y0051933D01*
X0108195Y0053763D01*
X0107495Y0055454D01*
X0106201Y0056748D01*
X0104510Y0057448D01*
X0102680Y0057448D01*
X0104859Y0057303D02*
X0145012Y0057303D01*
X0144995Y0055705D02*
X0107244Y0055705D01*
X0108053Y0054106D02*
X0145545Y0054106D01*
X0146930Y0052508D02*
X0108195Y0052508D01*
X0107771Y0050909D02*
X0162328Y0050909D01*
X0161938Y0050748D02*
X0160644Y0049454D01*
X0159944Y0047763D01*
X0159944Y0045933D01*
X0160644Y0044242D01*
X0161938Y0042948D01*
X0163629Y0042248D01*
X0165459Y0042248D01*
X0167150Y0042948D01*
X0168444Y0044242D01*
X0169144Y0045933D01*
X0169144Y0047763D01*
X0168444Y0049454D01*
X0167150Y0050748D01*
X0165459Y0051448D01*
X0163629Y0051448D01*
X0161938Y0050748D01*
X0160585Y0049311D02*
X0106563Y0049311D01*
X0100627Y0049311D02*
X0052661Y0049311D01*
X0053065Y0050909D02*
X0099419Y0050909D01*
X0098995Y0052508D02*
X0053468Y0052508D01*
X0053871Y0054106D02*
X0099137Y0054106D01*
X0099947Y0055705D02*
X0054275Y0055705D01*
X0052258Y0047712D02*
X0159944Y0047712D01*
X0159944Y0046114D02*
X0051855Y0046114D01*
X0052485Y0044515D02*
X0160531Y0044515D01*
X0162014Y0042917D02*
X0052815Y0042917D01*
X0052578Y0041318D02*
X0169995Y0041318D01*
X0170266Y0042917D02*
X0167073Y0042917D01*
X0168557Y0044515D02*
X0171257Y0044515D01*
X0169144Y0046114D02*
X0174095Y0046114D01*
X0174095Y0047712D02*
X0169144Y0047712D01*
X0168503Y0049311D02*
X0174095Y0049311D01*
X0174084Y0050909D02*
X0166759Y0050909D01*
X0164875Y0054106D02*
X0170887Y0054106D01*
X0172486Y0052508D02*
X0152260Y0052508D01*
X0153646Y0054106D02*
X0161315Y0054106D01*
X0159233Y0055705D02*
X0154195Y0055705D01*
X0154178Y0057303D02*
X0158549Y0057303D01*
X0158495Y0058902D02*
X0153516Y0058902D01*
X0151591Y0060500D02*
X0159008Y0060500D01*
X0160341Y0062099D02*
X0085857Y0062099D01*
X0087950Y0063697D02*
X0202796Y0063697D01*
X0202902Y0062099D02*
X0165850Y0062099D01*
X0174393Y0060500D02*
X0202895Y0060500D01*
X0203190Y0058902D02*
X0175991Y0058902D01*
X0177590Y0057303D02*
X0203872Y0057303D01*
X0205470Y0055705D02*
X0179188Y0055705D01*
X0180655Y0054106D02*
X0210887Y0054106D01*
X0212486Y0052508D02*
X0181095Y0052508D01*
X0181095Y0050909D02*
X0214084Y0050909D01*
X0212290Y0049311D02*
X0181095Y0049311D01*
X0181095Y0047712D02*
X0211071Y0047712D01*
X0210409Y0046114D02*
X0181095Y0046114D01*
X0181378Y0044515D02*
X0210395Y0044515D01*
X0210684Y0042917D02*
X0182976Y0042917D01*
X0184575Y0041318D02*
X0211357Y0041318D01*
X0212699Y0039720D02*
X0186173Y0039720D01*
X0188799Y0038121D02*
X0191891Y0038121D01*
X0195299Y0038121D02*
X0211240Y0038121D01*
X0210578Y0036523D02*
X0197426Y0036523D01*
X0198128Y0034924D02*
X0208666Y0034924D01*
X0207435Y0033326D02*
X0198195Y0033326D01*
X0197696Y0031727D02*
X0206995Y0031727D01*
X0207121Y0030129D02*
X0196381Y0030129D01*
X0198671Y0028530D02*
X0191028Y0028530D01*
X0190184Y0026932D02*
X0196686Y0026932D01*
X0196024Y0025333D02*
X0187716Y0025333D01*
X0185475Y0025333D02*
X0181716Y0025333D01*
X0179475Y0025333D02*
X0177783Y0025333D01*
X0176530Y0023735D02*
X0195995Y0023735D01*
X0202519Y0028530D02*
X0207908Y0028530D01*
X0210237Y0026932D02*
X0204504Y0026932D01*
X0205166Y0025333D02*
X0212027Y0025333D01*
X0212133Y0023735D02*
X0205195Y0023735D01*
X0171317Y0038121D02*
X0164840Y0038121D01*
X0165195Y0036523D02*
X0170764Y0036523D01*
X0170291Y0039720D02*
X0163729Y0039720D01*
X0157461Y0039720D02*
X0083690Y0039720D01*
X0083694Y0038121D02*
X0156351Y0038121D01*
X0155995Y0036523D02*
X0083698Y0036523D01*
X0083702Y0034924D02*
X0114666Y0034924D01*
X0113728Y0033326D02*
X0083707Y0033326D01*
X0083711Y0031727D02*
X0113495Y0031727D01*
X0113828Y0030129D02*
X0083715Y0030129D01*
X0083719Y0028530D02*
X0114595Y0028530D01*
X0114595Y0026932D02*
X0083724Y0026932D01*
X0083728Y0025333D02*
X0114595Y0025333D01*
X0114595Y0023735D02*
X0093168Y0023735D01*
X0093476Y0022136D02*
X0114595Y0022136D01*
X0114595Y0020538D02*
X0093476Y0020538D01*
X0093476Y0018939D02*
X0096159Y0018939D01*
X0098032Y0018939D02*
X0114595Y0018939D01*
X0114595Y0017341D02*
X0100608Y0017341D01*
X0101497Y0015742D02*
X0114595Y0015742D01*
X0114806Y0014144D02*
X0101695Y0014144D01*
X0093582Y0017341D02*
X0093476Y0017341D01*
X0121595Y0018939D02*
X0144736Y0018939D01*
X0147203Y0023735D02*
X0121595Y0023735D01*
X0121595Y0025333D02*
X0145951Y0025333D01*
X0145495Y0026932D02*
X0121595Y0026932D01*
X0121595Y0028530D02*
X0145606Y0028530D01*
X0145828Y0030129D02*
X0122362Y0030129D01*
X0122695Y0031727D02*
X0145495Y0031727D01*
X0145728Y0033326D02*
X0122462Y0033326D01*
X0121524Y0034924D02*
X0146666Y0034924D01*
X0154695Y0026932D02*
X0158434Y0026932D01*
X0156646Y0025333D02*
X0154240Y0025333D01*
X0152987Y0023735D02*
X0155995Y0023735D01*
X0155995Y0022136D02*
X0121595Y0022136D01*
X0121595Y0020538D02*
X0156573Y0020538D01*
X0237595Y0043133D02*
X0237595Y0044898D01*
X0239045Y0046348D01*
X0241506Y0046348D01*
X0241395Y0046081D01*
X0241395Y0043615D01*
X0241506Y0043348D01*
X0238114Y0043348D01*
X0237595Y0043133D01*
X0237595Y0044515D02*
X0241395Y0044515D01*
X0241409Y0046114D02*
X0238811Y0046114D01*
X0200595Y0071690D02*
X0194942Y0071690D01*
X0195928Y0073288D02*
X0199176Y0073288D01*
X0198514Y0074887D02*
X0196195Y0074887D01*
X0195896Y0076486D02*
X0198495Y0076486D01*
X0199042Y0078084D02*
X0194865Y0078084D01*
X0194435Y0079683D02*
X0200424Y0079683D01*
X0200972Y0081281D02*
X0195718Y0081281D01*
X0196195Y0082880D02*
X0200495Y0082880D01*
X0200584Y0084478D02*
X0196106Y0084478D01*
X0195372Y0086077D02*
X0201318Y0086077D01*
X0208872Y0086077D02*
X0210956Y0086077D01*
X0209848Y0084478D02*
X0209606Y0084478D01*
X0191967Y0092471D02*
X0051414Y0092471D01*
X0051414Y0094069D02*
X0191146Y0094069D01*
X0190270Y0095668D02*
X0051414Y0095668D01*
X0051414Y0097266D02*
X0189271Y0097266D01*
X0188995Y0098865D02*
X0051414Y0098865D01*
X0051414Y0100463D02*
X0189285Y0100463D01*
X0190303Y0102062D02*
X0051414Y0102062D01*
X0051414Y0103660D02*
X0071278Y0103660D01*
X0071489Y0103448D02*
X0073180Y0102748D01*
X0075010Y0102748D01*
X0076701Y0103448D01*
X0077995Y0104742D01*
X0078695Y0106433D01*
X0078695Y0108263D01*
X0077995Y0109954D01*
X0076701Y0111248D01*
X0075010Y0111948D01*
X0073180Y0111948D01*
X0071489Y0111248D01*
X0070195Y0109954D01*
X0069495Y0108263D01*
X0069495Y0106433D01*
X0070195Y0104742D01*
X0071489Y0103448D01*
X0069982Y0105259D02*
X0051414Y0105259D01*
X0051414Y0106857D02*
X0069495Y0106857D01*
X0069575Y0108456D02*
X0051414Y0108456D01*
X0051414Y0110054D02*
X0070296Y0110054D01*
X0072467Y0111653D02*
X0051414Y0111653D01*
X0075723Y0111653D02*
X0191046Y0111653D01*
X0190395Y0110054D02*
X0077894Y0110054D01*
X0078615Y0108456D02*
X0190395Y0108456D01*
X0190709Y0106857D02*
X0078695Y0106857D01*
X0078209Y0105259D02*
X0191416Y0105259D01*
X0193015Y0103660D02*
X0076913Y0103660D01*
X0051414Y0090872D02*
X0176114Y0090872D01*
X0174914Y0089274D02*
X0051414Y0089274D01*
X0051414Y0087675D02*
X0174495Y0087675D01*
X0174643Y0086077D02*
X0051414Y0086077D01*
X0051414Y0084478D02*
X0175460Y0084478D01*
X0174751Y0082880D02*
X0051414Y0082880D01*
X0060933Y0081281D02*
X0079570Y0081281D01*
X0079489Y0081248D02*
X0078195Y0079954D01*
X0077495Y0078263D01*
X0077495Y0076433D01*
X0078195Y0074742D01*
X0079489Y0073448D01*
X0081180Y0072748D01*
X0083010Y0072748D01*
X0084701Y0073448D01*
X0085995Y0074742D01*
X0086695Y0076433D01*
X0086695Y0078263D01*
X0085995Y0079954D01*
X0084701Y0081248D01*
X0083010Y0081948D01*
X0081180Y0081948D01*
X0079489Y0081248D01*
X0078083Y0079683D02*
X0061271Y0079683D01*
X0061228Y0078084D02*
X0077495Y0078084D01*
X0077495Y0076486D02*
X0061186Y0076486D01*
X0061178Y0074887D02*
X0078136Y0074887D01*
X0079875Y0073288D02*
X0062008Y0073288D01*
X0084315Y0073288D02*
X0174920Y0073288D01*
X0176129Y0074887D02*
X0086055Y0074887D01*
X0086695Y0076486D02*
X0187294Y0076486D01*
X0175854Y0078084D02*
X0086695Y0078084D01*
X0086107Y0079683D02*
X0174806Y0079683D01*
X0174495Y0081281D02*
X0084620Y0081281D01*
D22*
X0350095Y0027348D02*
X0354090Y0027348D01*
X0354958Y0027699D02*
X0368713Y0040979D01*
X0369095Y0041879D02*
X0369095Y0046830D01*
X0369461Y0047714D02*
X0369595Y0047848D01*
X0369461Y0047714D02*
X0369413Y0047663D01*
X0369368Y0047609D01*
X0369326Y0047553D01*
X0369287Y0047495D01*
X0369251Y0047435D01*
X0369219Y0047372D01*
X0369190Y0047308D01*
X0369165Y0047243D01*
X0369144Y0047176D01*
X0369126Y0047108D01*
X0369113Y0047039D01*
X0369103Y0046970D01*
X0369097Y0046900D01*
X0369095Y0046830D01*
X0369095Y0041879D02*
X0369093Y0041812D01*
X0369088Y0041745D01*
X0369079Y0041679D01*
X0369066Y0041613D01*
X0369050Y0041548D01*
X0369031Y0041484D01*
X0369008Y0041422D01*
X0368982Y0041360D01*
X0368953Y0041300D01*
X0368920Y0041241D01*
X0368884Y0041185D01*
X0368846Y0041130D01*
X0368804Y0041078D01*
X0368760Y0041027D01*
X0368713Y0040980D01*
X0373716Y0039480D02*
X0373762Y0039528D01*
X0373806Y0039578D01*
X0373847Y0039630D01*
X0373886Y0039685D01*
X0373921Y0039741D01*
X0373954Y0039800D01*
X0373983Y0039860D01*
X0374009Y0039921D01*
X0374031Y0039984D01*
X0374051Y0040047D01*
X0374067Y0040112D01*
X0374079Y0040178D01*
X0374088Y0040244D01*
X0374093Y0040310D01*
X0374095Y0040377D01*
X0374048Y0050310D01*
X0374114Y0050570D01*
X0374256Y0050947D01*
X0374407Y0051321D01*
X0374568Y0051691D01*
X0374737Y0052056D01*
X0374915Y0052418D01*
X0375102Y0052775D01*
X0375298Y0053127D01*
X0375503Y0053475D01*
X0375716Y0053817D01*
X0375937Y0054154D01*
X0376166Y0054485D01*
X0376404Y0054811D01*
X0376649Y0055131D01*
X0376903Y0055444D01*
X0377163Y0055752D01*
X0377432Y0056052D01*
X0377707Y0056347D01*
X0377990Y0056634D01*
X0378280Y0056914D01*
X0378576Y0057187D01*
X0378879Y0057453D01*
X0379189Y0057711D01*
X0379505Y0057962D01*
X0379827Y0058204D01*
X0380154Y0058439D01*
X0380488Y0058666D01*
X0380826Y0058884D01*
X0381171Y0059094D01*
X0381520Y0059296D01*
X0381874Y0059489D01*
X0382232Y0059673D01*
X0382595Y0059848D01*
X0395595Y0076348D02*
X0397095Y0083348D01*
X0395596Y0076348D02*
X0395405Y0075701D01*
X0395199Y0075060D01*
X0394977Y0074424D01*
X0394739Y0073794D01*
X0394486Y0073170D01*
X0394218Y0072552D01*
X0393934Y0071941D01*
X0393636Y0071337D01*
X0393323Y0070740D01*
X0392996Y0070152D01*
X0392654Y0069571D01*
X0392298Y0068999D01*
X0391928Y0068436D01*
X0391544Y0067883D01*
X0391147Y0067339D01*
X0390737Y0066804D01*
X0390313Y0066280D01*
X0389877Y0065767D01*
X0389429Y0065265D01*
X0388968Y0064773D01*
X0388495Y0064293D01*
X0388011Y0063825D01*
X0387515Y0063369D01*
X0387009Y0062925D01*
X0386491Y0062494D01*
X0385963Y0062075D01*
X0385425Y0061670D01*
X0384878Y0061278D01*
X0384320Y0060899D01*
X0383754Y0060534D01*
X0383179Y0060184D01*
X0382595Y0059847D01*
X0373716Y0039480D02*
X0357459Y0023701D01*
X0356588Y0023348D02*
X0353595Y0023348D01*
X0356588Y0023348D02*
X0356657Y0023350D01*
X0356725Y0023356D01*
X0356793Y0023365D01*
X0356861Y0023378D01*
X0356928Y0023395D01*
X0356993Y0023416D01*
X0357058Y0023440D01*
X0357121Y0023467D01*
X0357182Y0023498D01*
X0357242Y0023533D01*
X0357299Y0023570D01*
X0357355Y0023611D01*
X0357408Y0023654D01*
X0357459Y0023701D01*
X0354958Y0027699D02*
X0354908Y0027653D01*
X0354855Y0027609D01*
X0354799Y0027569D01*
X0354742Y0027531D01*
X0354682Y0027497D01*
X0354621Y0027466D01*
X0354558Y0027439D01*
X0354494Y0027415D01*
X0354429Y0027395D01*
X0354362Y0027378D01*
X0354295Y0027365D01*
X0354227Y0027356D01*
X0354159Y0027350D01*
X0354090Y0027348D01*
M02*
