%
M48
M72
T01C0.01200
T02C0.03346
T03C0.04000
T04C0.05900
T05C0.06700
T06C0.11024
%
T01
X30095Y13848
X40670Y13323
X44359Y27898
X36481Y28066
X40393Y42944
X48215Y42804
X44419Y58031
X55095Y63848
X56595Y71348
X48349Y72938
X53595Y77348
X82095Y77348
X84095Y66348
X103595Y52848
X143595Y39848
X150095Y31848
X150095Y27348
X160595Y22848
X163595Y19848
X167595Y15348
X162595Y12848
X157595Y12848
X149224Y12848
X164095Y27348
X173638Y27348
X174095Y33348
X180595Y29848
X186595Y29848
X187095Y33848
X193595Y33848
X200595Y24348
X211595Y31348
X239095Y46348
X264095Y45848
X272095Y41348
X275095Y37848
X269595Y29848
X264595Y34848
X277595Y46848
X283595Y44848
X287595Y46348
X291095Y43348
X294595Y45848
X298095Y43348
X301595Y45848
X305595Y44348
X317595Y44348
X323095Y43348
X328095Y48348
X328095Y52348
X327595Y56848
X338595Y49348
X342095Y51348
X360595Y53848
X360595Y57848
X369595Y47848
X383595Y40848
X377095Y35348
X357095Y36848
X350095Y27348
X353595Y23348
X365095Y15348
X387595Y14848
X407595Y14848
X397595Y29348
X407595Y43348
X364595Y68848
X352595Y82848
X364595Y85848
X352595Y92848
X328095Y80348
X327595Y76348
X327595Y68848
X325595Y84348
X321595Y94348
X317095Y95348
X313095Y94848
X300095Y89348
X292095Y94848
X288095Y94848
X297595Y104348
X307595Y104348
X319595Y104348
X320095Y109348
X315595Y121348
X310595Y130348
X311095Y134848
X327095Y137848
X307595Y143348
X296095Y135348
X285095Y134348
X281095Y134348
X292095Y125848
X297595Y121348
X294595Y117348
X285595Y111671
X277595Y122348
X269095Y122348
X261095Y117848
X269095Y113348
X262595Y109848
X254095Y107348
X251095Y110348
X256595Y101348
X254095Y97848
X248095Y97848
X263595Y91348
X266595Y88348
X266595Y84348
X266595Y80348
X266595Y70848
X264095Y67348
X265895Y63648
X281595Y71348
X288095Y66348
X295095Y76848
X266095Y97348
X239095Y80348
X222595Y86848
X214095Y82710
X205095Y83348
X203095Y75848
X191595Y74848
X179095Y71348
X179095Y81348
X179095Y87348
X191595Y83348
X200095Y90848
X206095Y90848
X195595Y95348
X193595Y98848
X197095Y100848
X206595Y98348
X210095Y100848
X228595Y101348
X228095Y115848
X223595Y119348
X218095Y118848
X212095Y116848
X241095Y134348
X248595Y139848
X257595Y149348
X246095Y152848
X240095Y156848
X229095Y160848
X225595Y145348
X211595Y145348
X210095Y137348
X200595Y137348
X165095Y152348
X161095Y155348
X157095Y152348
X153595Y155348
X149595Y152348
X145595Y155348
X141595Y152348
X138095Y155348
X133095Y152348
X120095Y152348
X110095Y143848
X135095Y139848
X182595Y162848
X188595Y162848
X185595Y165848
X191595Y165848
X252595Y159848
X279095Y146348
X270095Y144348
X289595Y150848
X304595Y156848
X336595Y152848
X360095Y161848
X361095Y165848
X371095Y165348
X377095Y165348
X367095Y154348
X380595Y150848
X398095Y141348
X388095Y126848
X388595Y122348
X385595Y118848
X388595Y115848
X388095Y105848
X389595Y95848
X392355Y88848
X397095Y83348
X406095Y87348
X354595Y130348
X250095Y126848
X163095Y58348
X149595Y56348
X164544Y46848
X174595Y41348
X160595Y36348
X118095Y31848
X97095Y14348
X205595Y51348
X276595Y52348
X287095Y50848
X322095Y33348
X326595Y30848
X323095Y27348
X317595Y26848
X310095Y29848
X310595Y19348
X315595Y19348
X320595Y19348
X325729Y19084
X336595Y21348
X330595Y34848
X286595Y27348
X83595Y116848
X74095Y107348
X55095Y116848
X56595Y122348
X49188Y116494
X55595Y128848
X46156Y129477
X42913Y144399
X39280Y159377
X47843Y159414
X44396Y174428
X35897Y174412
X32662Y189434
X40716Y189576
X35595Y195848
X83595Y128848
T02
X393579Y129191
X393579Y109506
T03
X342595Y114348
X332595Y114348
X332595Y124348
X342595Y124348
X342595Y134348
X332595Y134348
X229095Y70848
X219095Y70848
X209095Y70848
X209095Y60848
X219095Y60848
X229095Y60848
X247595Y64848
X257595Y64848
X257595Y54848
X247595Y54848
X247595Y44848
X257595Y44848
X257595Y34848
X247595Y34848
X247595Y24848
X257595Y24848
X226595Y24848
X216595Y24848
X216595Y34848
X226595Y34848
X226595Y44848
X216595Y44848
X196595Y108848
X196595Y118848
X127438Y167065
X117595Y167065
X107753Y167065
T04
X395595Y62348
T05
X385595Y52348
X405595Y52348
X405595Y72348
X385595Y72348
T06
X396595Y159348
X67595Y159348
X67595Y24348
M30
