%
M48
M72
T01C0.01181
T02C0.03346
T03C0.04000
T04C0.05900
T05C0.06700
T06C0.11024
%
T01
X25095Y12635
X97095Y12635
X150095Y12635
X159095Y12635
X161595Y14135
X161595Y18135
X165595Y20135
X161595Y21135
X161595Y24135
X164095Y27635
X164095Y32135
X164595Y37135
X164595Y40135
X174595Y37635
X174095Y33635
X180095Y31635
X185095Y30135
X186095Y35635
X190595Y33135
X182095Y25135
X174095Y27635
X180095Y41635
X164595Y46135
X149095Y38635
X150095Y27635
X103595Y53635
X84095Y67135
X81595Y77635
X56595Y72135
X55095Y77635
X55095Y64635
X74095Y108135
X83595Y117635
X83595Y129635
X56595Y123135
X55095Y129635
X55095Y117635
X110095Y144635
X120095Y153135
X133595Y154135
X137595Y154135
X141595Y154135
X145595Y154135
X149595Y154135
X153095Y154135
X157095Y154135
X161095Y154135
X165095Y154135
X182595Y163135
X185595Y163135
X188595Y163135
X191595Y163135
X211595Y146135
X225595Y146135
X210095Y138635
X200095Y138135
X223095Y119135
X228095Y116635
X217095Y117635
X212595Y117635
X228595Y102635
X210095Y100135
X207595Y98135
X197095Y101635
X194095Y99135
X196095Y96135
X199595Y91635
X205095Y91635
X191595Y88135
X191595Y84635
X191595Y81135
X191595Y76135
X191595Y72635
X202595Y71635
X214095Y79635
X206595Y80135
X221595Y87635
X232095Y78135
X264595Y68135
X266395Y65435
X266595Y71635
X281595Y72135
X287095Y66635
X295095Y79135
X300095Y90135
X292595Y96135
X288595Y96135
X297595Y105135
X307595Y104635
X313095Y96135
X317095Y96135
X320595Y96135
X319595Y105135
X319595Y109635
X315595Y121635
X311095Y131135
X311595Y135635
X327095Y138635
X307595Y144135
X296095Y136135
X285095Y135135
X281595Y135135
X282095Y144635
X270095Y145135
X257595Y150135
X246095Y153635
X240595Y157135
X248095Y165135
X252595Y160635
X229095Y160635
X248595Y140635
X242095Y136635
X250095Y127635
X268095Y122635
X261595Y118135
X268095Y114135
X262595Y111635
X255095Y107635
X251095Y111135
X255095Y102635
X254095Y98635
X248095Y98635
X264595Y92635
X266595Y89635
X266595Y84635
X266595Y81135
X266095Y98135
X286095Y112135
X293595Y118635
X299095Y121135
X291095Y126635
X278595Y122635
X289595Y153135
X304595Y158135
X336595Y153635
X358095Y163135
X360595Y161135
X364595Y155135
X370095Y161135
X370095Y165135
X363595Y167135
X352595Y167135
X398095Y142135
X389095Y126135
X388595Y122635
X387095Y119635
X388595Y116635
X388095Y106635
X390095Y96635
X392355Y89135
X395595Y83635
X406095Y88135
X364595Y86635
X352595Y83635
X352595Y93635
X328095Y84135
X328095Y81135
X328095Y77135
X328095Y69135
X328095Y57635
X328595Y52635
X328595Y49635
X323095Y44135
X318595Y44135
X305095Y44135
X301595Y44135
X298095Y44135
X294595Y44135
X291095Y44135
X287595Y44135
X284095Y44135
X280595Y44635
X276595Y49635
X276595Y53135
X264595Y46635
X239095Y47135
X216095Y32135
X224595Y30635
X200595Y25135
X205595Y52135
X149595Y57135
X279095Y32135
X286595Y28135
X309595Y29635
X317595Y27635
X324095Y28635
X326595Y31635
X330595Y33635
X321095Y34135
X322595Y20635
X327095Y21635
X315595Y20635
X336595Y22135
X349095Y27635
X353095Y24635
X357095Y37635
X369595Y48635
X360595Y54635
X360595Y58635
X341095Y52635
X338595Y50135
X364595Y69635
X407595Y44135
X397595Y30135
X383595Y42135
X387595Y15635
X407595Y15635
X135595Y142135
X32595Y201635
T02
X394257Y129978
X394257Y110293
T03
X342595Y115135
X332595Y115135
X332595Y125135
X342595Y125135
X342595Y135135
X332595Y135135
X235095Y66635
X247595Y65135
X257595Y65135
X257595Y55135
X247595Y55135
X235095Y56635
X225095Y56635
X215095Y56635
X215095Y66635
X225095Y66635
X220595Y45135
X230595Y45135
X247595Y45135
X257595Y45135
X257595Y35135
X247595Y35135
X230595Y35135
X220595Y35135
X220595Y25135
X230595Y25135
X247595Y25135
X257595Y25135
X196595Y109635
X196595Y119635
X127438Y167852
X117595Y167852
X107753Y167852
T04
X395595Y63135
T05
X385595Y53135
X405595Y53135
X405595Y73135
X385595Y73135
T06
X396595Y160135
X67595Y160135
X67595Y25135
M30
