G75*
%MOIN*%
%OFA0B0*%
%FSLAX25Y25*%
%IPPOS*%
%LPD*%
%AMOC8*
5,1,8,0,0,1.08239X$1,22.5*
%
%ADD10C,0.00000*%
%ADD11C,0.00300*%
%ADD12C,0.16535*%
%ADD13C,0.06000*%
%ADD14C,0.05020*%
%ADD15C,0.08850*%
%ADD16C,0.10050*%
%ADD17C,0.02165*%
%ADD18C,0.01600*%
%ADD19C,0.02378*%
D10*
X0022595Y0010135D02*
X0412516Y0010135D01*
X0412516Y0203954D01*
X0022595Y0203954D01*
X0022595Y0010135D01*
D11*
X0377745Y0199285D02*
X0379680Y0199285D01*
X0380692Y0199769D02*
X0381175Y0200253D01*
X0382627Y0200253D01*
X0382627Y0200737D02*
X0382627Y0199285D01*
X0381175Y0199285D01*
X0380692Y0199769D01*
X0381175Y0201220D02*
X0382143Y0201220D01*
X0382627Y0200737D01*
X0383638Y0201220D02*
X0383638Y0199769D01*
X0384122Y0199285D01*
X0385573Y0199285D01*
X0385573Y0198802D02*
X0385089Y0198318D01*
X0384606Y0198318D01*
X0385573Y0198802D02*
X0385573Y0201220D01*
X0386585Y0200737D02*
X0387068Y0201220D01*
X0388036Y0201220D01*
X0388520Y0200737D01*
X0388520Y0200253D01*
X0386585Y0200253D01*
X0386585Y0199769D02*
X0386585Y0200737D01*
X0386585Y0199769D02*
X0387068Y0199285D01*
X0388036Y0199285D01*
X0389531Y0199285D02*
X0389531Y0201220D01*
X0389531Y0200253D02*
X0390499Y0201220D01*
X0390982Y0201220D01*
X0391987Y0200737D02*
X0393922Y0200737D01*
X0394933Y0201704D02*
X0395417Y0202188D01*
X0396384Y0202188D01*
X0396868Y0201704D01*
X0396868Y0201220D01*
X0396384Y0200737D01*
X0396868Y0200253D01*
X0396868Y0199769D01*
X0396384Y0199285D01*
X0395417Y0199285D01*
X0394933Y0199769D01*
X0395901Y0200737D02*
X0396384Y0200737D01*
X0377745Y0202188D02*
X0377745Y0199285D01*
D12*
X0396595Y0160135D03*
X0067595Y0160135D03*
X0067595Y0025135D03*
D13*
X0215095Y0056635D03*
X0225095Y0056635D03*
X0235095Y0056635D03*
X0247595Y0055135D03*
X0257595Y0055135D03*
X0257595Y0065135D03*
X0247595Y0065135D03*
X0235095Y0066635D03*
X0225095Y0066635D03*
X0215095Y0066635D03*
X0220595Y0045135D03*
X0230595Y0045135D03*
X0247595Y0045135D03*
X0257595Y0045135D03*
X0257595Y0035135D03*
X0247595Y0035135D03*
X0230595Y0035135D03*
X0220595Y0035135D03*
X0220595Y0025135D03*
X0230595Y0025135D03*
X0247595Y0025135D03*
X0257595Y0025135D03*
X0196595Y0109635D03*
X0196595Y0119635D03*
X0127438Y0167852D03*
X0117595Y0167852D03*
X0107753Y0167852D03*
X0332595Y0135135D03*
X0342595Y0135135D03*
X0342595Y0125135D03*
X0332595Y0125135D03*
X0332595Y0115135D03*
X0342595Y0115135D03*
D14*
X0394257Y0110293D03*
X0394257Y0129978D03*
D15*
X0395595Y0063135D03*
D16*
X0385595Y0053135D03*
X0405595Y0053135D03*
X0405595Y0073135D03*
X0385595Y0073135D03*
D17*
X0395595Y0083635D03*
X0406095Y0088135D03*
X0392355Y0089135D03*
X0390095Y0096635D03*
X0388095Y0106635D03*
X0388595Y0116635D03*
X0387095Y0119635D03*
X0388595Y0122635D03*
X0389095Y0126135D03*
X0398095Y0142135D03*
X0364595Y0155135D03*
X0360595Y0161135D03*
X0358095Y0163135D03*
X0352595Y0167135D03*
X0363595Y0167135D03*
X0370095Y0165135D03*
X0370095Y0161135D03*
X0336595Y0153635D03*
X0327095Y0138635D03*
X0311595Y0135635D03*
X0311095Y0131135D03*
X0315595Y0121635D03*
X0299095Y0121135D03*
X0293595Y0118635D03*
X0291095Y0126635D03*
X0278595Y0122635D03*
X0268095Y0122635D03*
X0261595Y0118135D03*
X0268095Y0114135D03*
X0262595Y0111635D03*
X0255095Y0107635D03*
X0251095Y0111135D03*
X0255095Y0102635D03*
X0254095Y0098635D03*
X0248095Y0098635D03*
X0264595Y0092635D03*
X0266595Y0089635D03*
X0266595Y0084635D03*
X0266595Y0081135D03*
X0266595Y0071635D03*
X0264595Y0068135D03*
X0266395Y0065435D03*
X0281595Y0072135D03*
X0287095Y0066635D03*
X0295095Y0079135D03*
X0300095Y0090135D03*
X0292595Y0096135D03*
X0288595Y0096135D03*
X0297595Y0105135D03*
X0307595Y0104635D03*
X0313095Y0096135D03*
X0317095Y0096135D03*
X0320595Y0096135D03*
X0319595Y0105135D03*
X0319595Y0109635D03*
X0352595Y0093635D03*
X0364595Y0086635D03*
X0352595Y0083635D03*
X0328095Y0084135D03*
X0328095Y0081135D03*
X0328095Y0077135D03*
X0328095Y0069135D03*
X0328095Y0057635D03*
X0328595Y0052635D03*
X0328595Y0049635D03*
X0323095Y0044135D03*
X0318595Y0044135D03*
X0305095Y0044135D03*
X0301595Y0044135D03*
X0298095Y0044135D03*
X0294595Y0044135D03*
X0291095Y0044135D03*
X0287595Y0044135D03*
X0284095Y0044135D03*
X0280595Y0044635D03*
X0276595Y0049635D03*
X0276595Y0053135D03*
X0264595Y0046635D03*
X0239095Y0047135D03*
X0216095Y0032135D03*
X0224595Y0030635D03*
X0200595Y0025135D03*
X0190595Y0033135D03*
X0186095Y0035635D03*
X0185095Y0030135D03*
X0180095Y0031635D03*
X0174095Y0033635D03*
X0174595Y0037635D03*
X0180095Y0041635D03*
X0164595Y0040135D03*
X0164595Y0037135D03*
X0164095Y0032135D03*
X0164095Y0027635D03*
X0161595Y0024135D03*
X0161595Y0021135D03*
X0165595Y0020135D03*
X0161595Y0018135D03*
X0161595Y0014135D03*
X0159095Y0012635D03*
X0150095Y0012635D03*
X0150095Y0027635D03*
X0149095Y0038635D03*
X0164595Y0046135D03*
X0149595Y0057135D03*
X0191595Y0072635D03*
X0191595Y0076135D03*
X0191595Y0081135D03*
X0191595Y0084635D03*
X0191595Y0088135D03*
X0199595Y0091635D03*
X0205095Y0091635D03*
X0196095Y0096135D03*
X0194095Y0099135D03*
X0197095Y0101635D03*
X0207595Y0098135D03*
X0210095Y0100135D03*
X0228595Y0102635D03*
X0228095Y0116635D03*
X0223095Y0119135D03*
X0217095Y0117635D03*
X0212595Y0117635D03*
X0242095Y0136635D03*
X0248595Y0140635D03*
X0257595Y0150135D03*
X0246095Y0153635D03*
X0240595Y0157135D03*
X0248095Y0165135D03*
X0252595Y0160635D03*
X0229095Y0160635D03*
X0225595Y0146135D03*
X0211595Y0146135D03*
X0210095Y0138635D03*
X0200095Y0138135D03*
X0165095Y0154135D03*
X0161095Y0154135D03*
X0157095Y0154135D03*
X0153095Y0154135D03*
X0149595Y0154135D03*
X0145595Y0154135D03*
X0141595Y0154135D03*
X0137595Y0154135D03*
X0133595Y0154135D03*
X0120095Y0153135D03*
X0110095Y0144635D03*
X0135595Y0142135D03*
X0182595Y0163135D03*
X0185595Y0163135D03*
X0188595Y0163135D03*
X0191595Y0163135D03*
X0250095Y0127635D03*
X0270095Y0145135D03*
X0282095Y0144635D03*
X0281595Y0135135D03*
X0285095Y0135135D03*
X0296095Y0136135D03*
X0307595Y0144135D03*
X0289595Y0153135D03*
X0304595Y0158135D03*
X0286095Y0112135D03*
X0266095Y0098135D03*
X0232095Y0078135D03*
X0221595Y0087635D03*
X0214095Y0079635D03*
X0206595Y0080135D03*
X0202595Y0071635D03*
X0205595Y0052135D03*
X0174095Y0027635D03*
X0182095Y0025135D03*
X0103595Y0053635D03*
X0084095Y0067135D03*
X0081595Y0077635D03*
X0056595Y0072135D03*
X0055095Y0077635D03*
X0055095Y0064635D03*
X0074095Y0108135D03*
X0083595Y0117635D03*
X0083595Y0129635D03*
X0056595Y0123135D03*
X0055095Y0129635D03*
X0055095Y0117635D03*
X0032595Y0201635D03*
X0338595Y0050135D03*
X0341095Y0052635D03*
X0360595Y0054635D03*
X0360595Y0058635D03*
X0369595Y0048635D03*
X0383595Y0042135D03*
X0397595Y0030135D03*
X0407595Y0044135D03*
X0364595Y0069635D03*
X0357095Y0037635D03*
X0349095Y0027635D03*
X0353095Y0024635D03*
X0336595Y0022135D03*
X0327095Y0021635D03*
X0322595Y0020635D03*
X0315595Y0020635D03*
X0317595Y0027635D03*
X0324095Y0028635D03*
X0326595Y0031635D03*
X0330595Y0033635D03*
X0321095Y0034135D03*
X0309595Y0029635D03*
X0286595Y0028135D03*
X0279095Y0032135D03*
X0387595Y0015635D03*
X0407595Y0015635D03*
X0097095Y0012635D03*
X0025095Y0012635D03*
D18*
X0051414Y0013332D02*
X0094511Y0013332D01*
X0094528Y0013414D02*
X0094425Y0012898D01*
X0094425Y0012635D01*
X0094425Y0012372D01*
X0094515Y0011920D01*
X0051414Y0011920D01*
X0051414Y0058155D01*
X0053136Y0062818D01*
X0053393Y0062561D01*
X0053830Y0062269D01*
X0054316Y0062068D01*
X0054832Y0061965D01*
X0055095Y0061965D01*
X0055095Y0064635D01*
X0055095Y0064635D01*
X0055095Y0061965D01*
X0055358Y0061965D01*
X0055874Y0062068D01*
X0056360Y0062269D01*
X0056797Y0062561D01*
X0057169Y0062933D01*
X0057461Y0063371D01*
X0057663Y0063857D01*
X0057765Y0064372D01*
X0057765Y0064635D01*
X0055095Y0064635D01*
X0055095Y0064635D01*
X0057765Y0064635D01*
X0057765Y0064898D01*
X0057663Y0065414D01*
X0057461Y0065900D01*
X0057169Y0066338D01*
X0056797Y0066709D01*
X0056360Y0067002D01*
X0055874Y0067203D01*
X0055358Y0067305D01*
X0055095Y0067305D01*
X0054832Y0067305D01*
X0054791Y0067297D01*
X0055043Y0067981D01*
X0057421Y0067981D01*
X0058948Y0068614D01*
X0060117Y0069782D01*
X0060749Y0071309D01*
X0060749Y0072962D01*
X0060117Y0074489D01*
X0058948Y0075657D01*
X0057421Y0076290D01*
X0057407Y0076290D01*
X0057461Y0076371D01*
X0057663Y0076857D01*
X0057765Y0077372D01*
X0057765Y0077635D01*
X0055095Y0077635D01*
X0052425Y0077635D01*
X0052425Y0077372D01*
X0052528Y0076857D01*
X0052729Y0076371D01*
X0052746Y0076345D01*
X0051414Y0076004D01*
X0051414Y0119544D01*
X0052846Y0119075D01*
X0052729Y0118900D01*
X0052528Y0118414D01*
X0052425Y0117898D01*
X0052425Y0117635D01*
X0052425Y0117372D01*
X0052528Y0116857D01*
X0052729Y0116371D01*
X0053021Y0115933D01*
X0053393Y0115561D01*
X0053830Y0115269D01*
X0054316Y0115068D01*
X0054832Y0114965D01*
X0055095Y0114965D01*
X0055095Y0117635D01*
X0055095Y0117635D01*
X0055095Y0114965D01*
X0055358Y0114965D01*
X0055874Y0115068D01*
X0056360Y0115269D01*
X0056797Y0115561D01*
X0057169Y0115933D01*
X0057461Y0116371D01*
X0057663Y0116857D01*
X0057765Y0117372D01*
X0057765Y0117635D01*
X0055095Y0117635D01*
X0052425Y0117635D01*
X0055095Y0117635D01*
X0055095Y0117635D01*
X0055095Y0117635D01*
X0057765Y0117635D01*
X0057765Y0117898D01*
X0057663Y0118414D01*
X0057461Y0118900D01*
X0057407Y0118981D01*
X0057421Y0118981D01*
X0058948Y0119614D01*
X0060117Y0120782D01*
X0060749Y0122309D01*
X0060749Y0123962D01*
X0060117Y0125489D01*
X0058948Y0126657D01*
X0057421Y0127290D01*
X0056391Y0127290D01*
X0056797Y0127561D01*
X0057169Y0127933D01*
X0057461Y0128371D01*
X0057663Y0128857D01*
X0057765Y0129372D01*
X0057765Y0129635D01*
X0055095Y0129635D01*
X0055095Y0129635D01*
X0057765Y0129635D01*
X0057765Y0129898D01*
X0057663Y0130414D01*
X0057461Y0130900D01*
X0057169Y0131338D01*
X0056797Y0131709D01*
X0056360Y0132002D01*
X0055874Y0132203D01*
X0055358Y0132305D01*
X0055095Y0132305D01*
X0054832Y0132305D01*
X0054316Y0132203D01*
X0054010Y0132076D01*
X0051414Y0143550D01*
X0051414Y0175135D01*
X0410732Y0175135D01*
X0410732Y0077303D01*
X0410577Y0077505D01*
X0409964Y0078118D01*
X0409277Y0078645D01*
X0408526Y0079079D01*
X0407725Y0079410D01*
X0406888Y0079635D01*
X0406395Y0079700D01*
X0406395Y0073935D01*
X0404795Y0073935D01*
X0404795Y0072335D01*
X0406395Y0072335D01*
X0406395Y0066571D01*
X0406888Y0066636D01*
X0407725Y0066861D01*
X0408526Y0067192D01*
X0409277Y0067626D01*
X0409964Y0068153D01*
X0410577Y0068766D01*
X0410732Y0068968D01*
X0410732Y0057303D01*
X0410577Y0057505D01*
X0409964Y0058118D01*
X0409277Y0058645D01*
X0408526Y0059079D01*
X0407725Y0059410D01*
X0406888Y0059635D01*
X0406395Y0059700D01*
X0406395Y0053935D01*
X0404795Y0053935D01*
X0404795Y0052335D01*
X0406395Y0052335D01*
X0406395Y0046571D01*
X0406547Y0046591D01*
X0406330Y0046502D01*
X0405893Y0046209D01*
X0405521Y0045837D01*
X0405229Y0045400D01*
X0405028Y0044914D01*
X0404925Y0044398D01*
X0404925Y0044135D01*
X0404925Y0043872D01*
X0405028Y0043357D01*
X0405229Y0042871D01*
X0405521Y0042433D01*
X0405893Y0042061D01*
X0406330Y0041769D01*
X0406816Y0041568D01*
X0407332Y0041465D01*
X0407595Y0041465D01*
X0407595Y0044135D01*
X0407595Y0044135D01*
X0407595Y0041465D01*
X0407858Y0041465D01*
X0408374Y0041568D01*
X0408860Y0041769D01*
X0409297Y0042061D01*
X0409669Y0042433D01*
X0409961Y0042871D01*
X0410163Y0043357D01*
X0410265Y0043872D01*
X0410265Y0044135D01*
X0407595Y0044135D01*
X0404925Y0044135D01*
X0407595Y0044135D01*
X0407595Y0044135D01*
X0407595Y0044135D01*
X0410265Y0044135D01*
X0410265Y0044398D01*
X0410163Y0044914D01*
X0409961Y0045400D01*
X0409669Y0045837D01*
X0409297Y0046209D01*
X0408860Y0046502D01*
X0408374Y0046703D01*
X0407858Y0046805D01*
X0407595Y0046805D01*
X0407520Y0046805D01*
X0407725Y0046861D01*
X0408526Y0047192D01*
X0409277Y0047626D01*
X0409964Y0048153D01*
X0410577Y0048766D01*
X0410732Y0048968D01*
X0410732Y0011920D01*
X0162709Y0011920D01*
X0162996Y0012039D01*
X0163692Y0012734D01*
X0164068Y0013643D01*
X0164068Y0014627D01*
X0163692Y0015536D01*
X0163093Y0016135D01*
X0163692Y0016734D01*
X0164068Y0017643D01*
X0164068Y0018165D01*
X0164194Y0018039D01*
X0165103Y0017662D01*
X0166087Y0017662D01*
X0166996Y0018039D01*
X0167692Y0018734D01*
X0168068Y0019643D01*
X0168068Y0020627D01*
X0167692Y0021536D01*
X0166996Y0022232D01*
X0166087Y0022609D01*
X0165103Y0022609D01*
X0164194Y0022232D01*
X0163928Y0021966D01*
X0163692Y0022536D01*
X0163593Y0022635D01*
X0163692Y0022734D01*
X0164068Y0023643D01*
X0164068Y0024627D01*
X0163847Y0025162D01*
X0164587Y0025162D01*
X0165496Y0025539D01*
X0166192Y0026234D01*
X0166568Y0027143D01*
X0166568Y0028127D01*
X0166192Y0029036D01*
X0165496Y0029732D01*
X0165126Y0029885D01*
X0165496Y0030039D01*
X0166192Y0030734D01*
X0166568Y0031643D01*
X0166568Y0032627D01*
X0166192Y0033536D01*
X0165496Y0034232D01*
X0164587Y0034609D01*
X0163603Y0034609D01*
X0162694Y0034232D01*
X0161998Y0033536D01*
X0161622Y0032627D01*
X0161622Y0031643D01*
X0161998Y0030734D01*
X0162694Y0030039D01*
X0163064Y0029885D01*
X0162694Y0029732D01*
X0161998Y0029036D01*
X0161622Y0028127D01*
X0161622Y0027143D01*
X0161843Y0026609D01*
X0161103Y0026609D01*
X0160194Y0026232D01*
X0159498Y0025536D01*
X0159122Y0024627D01*
X0159122Y0023643D01*
X0159498Y0022734D01*
X0159597Y0022635D01*
X0159498Y0022536D01*
X0159122Y0021627D01*
X0159122Y0020643D01*
X0159498Y0019734D01*
X0159597Y0019635D01*
X0159498Y0019536D01*
X0159122Y0018627D01*
X0159122Y0017643D01*
X0159498Y0016734D01*
X0160097Y0016135D01*
X0159498Y0015536D01*
X0159399Y0015297D01*
X0159358Y0015305D01*
X0159095Y0015305D01*
X0158832Y0015305D01*
X0158316Y0015203D01*
X0157830Y0015002D01*
X0157393Y0014709D01*
X0157021Y0014337D01*
X0156729Y0013900D01*
X0156528Y0013414D01*
X0156425Y0012898D01*
X0156425Y0012635D01*
X0156425Y0012372D01*
X0156515Y0011920D01*
X0152476Y0011920D01*
X0152568Y0012143D01*
X0152568Y0013127D01*
X0152192Y0014036D01*
X0151496Y0014732D01*
X0150587Y0015109D01*
X0149603Y0015109D01*
X0148694Y0014732D01*
X0147998Y0014036D01*
X0147622Y0013127D01*
X0147622Y0012143D01*
X0147715Y0011920D01*
X0099675Y0011920D01*
X0099765Y0012372D01*
X0099765Y0012635D01*
X0097095Y0012635D01*
X0094425Y0012635D01*
X0097095Y0012635D01*
X0097095Y0012635D01*
X0097095Y0012635D01*
X0099765Y0012635D01*
X0099765Y0012898D01*
X0099663Y0013414D01*
X0099461Y0013900D01*
X0099169Y0014337D01*
X0098797Y0014709D01*
X0098360Y0015002D01*
X0097874Y0015203D01*
X0097358Y0015305D01*
X0097095Y0015305D01*
X0096832Y0015305D01*
X0096316Y0015203D01*
X0095830Y0015002D01*
X0095393Y0014709D01*
X0095021Y0014337D01*
X0094729Y0013900D01*
X0094528Y0013414D01*
X0095725Y0014931D02*
X0051414Y0014931D01*
X0051414Y0016529D02*
X0062768Y0016529D01*
X0062821Y0016496D02*
X0063818Y0016016D01*
X0064863Y0015651D01*
X0065942Y0015404D01*
X0066795Y0015308D01*
X0066795Y0024335D01*
X0068395Y0024335D01*
X0068395Y0015308D01*
X0069249Y0015404D01*
X0070328Y0015651D01*
X0071372Y0016016D01*
X0072370Y0016496D01*
X0073307Y0017085D01*
X0074172Y0017775D01*
X0074955Y0018558D01*
X0075645Y0019424D01*
X0076234Y0020361D01*
X0076714Y0021358D01*
X0077080Y0022403D01*
X0077326Y0023482D01*
X0077422Y0024335D01*
X0068395Y0024335D01*
X0068395Y0025935D01*
X0077422Y0025935D01*
X0077326Y0026789D01*
X0077080Y0027868D01*
X0076714Y0028913D01*
X0076234Y0029910D01*
X0075645Y0030847D01*
X0074955Y0031713D01*
X0074172Y0032495D01*
X0073307Y0033186D01*
X0072370Y0033774D01*
X0071372Y0034255D01*
X0070328Y0034620D01*
X0069249Y0034867D01*
X0068395Y0034963D01*
X0068395Y0025935D01*
X0066795Y0025935D01*
X0066795Y0024335D01*
X0057768Y0024335D01*
X0057864Y0023482D01*
X0058110Y0022403D01*
X0058476Y0021358D01*
X0058956Y0020361D01*
X0059545Y0019424D01*
X0060235Y0018558D01*
X0061018Y0017775D01*
X0061883Y0017085D01*
X0062821Y0016496D01*
X0060665Y0018128D02*
X0051414Y0018128D01*
X0051414Y0019727D02*
X0059355Y0019727D01*
X0058492Y0021325D02*
X0051414Y0021325D01*
X0051414Y0022924D02*
X0057991Y0022924D01*
X0057768Y0025935D02*
X0066795Y0025935D01*
X0066795Y0034963D01*
X0065942Y0034867D01*
X0064863Y0034620D01*
X0063818Y0034255D01*
X0062821Y0033774D01*
X0061883Y0033186D01*
X0061018Y0032495D01*
X0060235Y0031713D01*
X0059545Y0030847D01*
X0058956Y0029910D01*
X0058476Y0028913D01*
X0058110Y0027868D01*
X0057864Y0026789D01*
X0057768Y0025935D01*
X0057789Y0026121D02*
X0051414Y0026121D01*
X0051414Y0027719D02*
X0058076Y0027719D01*
X0058671Y0029318D02*
X0051414Y0029318D01*
X0051414Y0030916D02*
X0059600Y0030916D01*
X0061042Y0032515D02*
X0051414Y0032515D01*
X0051414Y0034113D02*
X0063524Y0034113D01*
X0066795Y0034113D02*
X0068395Y0034113D01*
X0068395Y0032515D02*
X0066795Y0032515D01*
X0066795Y0030916D02*
X0068395Y0030916D01*
X0068395Y0029318D02*
X0066795Y0029318D01*
X0066795Y0027719D02*
X0068395Y0027719D01*
X0068395Y0026121D02*
X0066795Y0026121D01*
X0066795Y0024522D02*
X0051414Y0024522D01*
X0066795Y0022924D02*
X0068395Y0022924D01*
X0068395Y0024522D02*
X0159122Y0024522D01*
X0159420Y0022924D02*
X0077199Y0022924D01*
X0076698Y0021325D02*
X0159122Y0021325D01*
X0159506Y0019727D02*
X0075836Y0019727D01*
X0074525Y0018128D02*
X0159122Y0018128D01*
X0159703Y0016529D02*
X0072422Y0016529D01*
X0068395Y0016529D02*
X0066795Y0016529D01*
X0066795Y0018128D02*
X0068395Y0018128D01*
X0068395Y0019727D02*
X0066795Y0019727D01*
X0066795Y0021325D02*
X0068395Y0021325D01*
X0077402Y0026121D02*
X0148112Y0026121D01*
X0147998Y0026234D02*
X0148694Y0025539D01*
X0149603Y0025162D01*
X0150587Y0025162D01*
X0151496Y0025539D01*
X0152192Y0026234D01*
X0152568Y0027143D01*
X0152568Y0028127D01*
X0152192Y0029036D01*
X0151496Y0029732D01*
X0150587Y0030109D01*
X0149603Y0030109D01*
X0148694Y0029732D01*
X0147998Y0029036D01*
X0147622Y0028127D01*
X0147622Y0027143D01*
X0147998Y0026234D01*
X0147622Y0027719D02*
X0077114Y0027719D01*
X0076519Y0029318D02*
X0148280Y0029318D01*
X0151911Y0029318D02*
X0162280Y0029318D01*
X0161923Y0030916D02*
X0075590Y0030916D01*
X0074148Y0032515D02*
X0161622Y0032515D01*
X0162575Y0034113D02*
X0071667Y0034113D01*
X0051414Y0035712D02*
X0162521Y0035712D01*
X0162498Y0035734D02*
X0163194Y0035039D01*
X0164103Y0034662D01*
X0165087Y0034662D01*
X0165996Y0035039D01*
X0166692Y0035734D01*
X0167068Y0036643D01*
X0167068Y0037627D01*
X0166692Y0038536D01*
X0166593Y0038635D01*
X0166692Y0038734D01*
X0167068Y0039643D01*
X0167068Y0040627D01*
X0166692Y0041536D01*
X0165996Y0042232D01*
X0165087Y0042609D01*
X0164103Y0042609D01*
X0163194Y0042232D01*
X0162498Y0041536D01*
X0162122Y0040627D01*
X0162122Y0039643D01*
X0162498Y0038734D01*
X0162597Y0038635D01*
X0162498Y0038536D01*
X0162122Y0037627D01*
X0162122Y0036643D01*
X0162498Y0035734D01*
X0162122Y0037310D02*
X0151223Y0037310D01*
X0151192Y0037234D02*
X0151568Y0038143D01*
X0151568Y0039127D01*
X0151192Y0040036D01*
X0150496Y0040732D01*
X0149587Y0041109D01*
X0148603Y0041109D01*
X0147694Y0040732D01*
X0146998Y0040036D01*
X0146622Y0039127D01*
X0146622Y0038143D01*
X0146998Y0037234D01*
X0147694Y0036539D01*
X0148603Y0036162D01*
X0149587Y0036162D01*
X0150496Y0036539D01*
X0151192Y0037234D01*
X0151568Y0038909D02*
X0162426Y0038909D01*
X0162122Y0040507D02*
X0150721Y0040507D01*
X0147469Y0040507D02*
X0051414Y0040507D01*
X0051414Y0038909D02*
X0146622Y0038909D01*
X0146967Y0037310D02*
X0051414Y0037310D01*
X0051414Y0042106D02*
X0163068Y0042106D01*
X0163816Y0043568D02*
X0163330Y0043769D01*
X0162893Y0044061D01*
X0162521Y0044433D01*
X0162229Y0044871D01*
X0162028Y0045357D01*
X0161925Y0045872D01*
X0161925Y0046135D01*
X0164595Y0046135D01*
X0164595Y0046135D01*
X0164595Y0043465D01*
X0164332Y0043465D01*
X0163816Y0043568D01*
X0163487Y0043704D02*
X0051414Y0043704D01*
X0051414Y0045303D02*
X0162050Y0045303D01*
X0161925Y0046135D02*
X0164595Y0046135D01*
X0164595Y0043465D01*
X0164858Y0043465D01*
X0165374Y0043568D01*
X0165860Y0043769D01*
X0166297Y0044061D01*
X0166669Y0044433D01*
X0166961Y0044871D01*
X0167163Y0045357D01*
X0167265Y0045872D01*
X0167265Y0046135D01*
X0164595Y0046135D01*
X0164595Y0046135D01*
X0164595Y0046135D01*
X0167265Y0046135D01*
X0167265Y0046398D01*
X0167163Y0046914D01*
X0166961Y0047400D01*
X0166669Y0047837D01*
X0166297Y0048209D01*
X0165860Y0048502D01*
X0165374Y0048703D01*
X0164858Y0048805D01*
X0164595Y0048805D01*
X0164332Y0048805D01*
X0163816Y0048703D01*
X0163330Y0048502D01*
X0162893Y0048209D01*
X0162521Y0047837D01*
X0162229Y0047400D01*
X0162028Y0046914D01*
X0161925Y0046398D01*
X0161925Y0046135D01*
X0162025Y0046901D02*
X0051414Y0046901D01*
X0051414Y0048500D02*
X0163328Y0048500D01*
X0164595Y0048500D02*
X0164595Y0048500D01*
X0164595Y0048805D02*
X0164595Y0046136D01*
X0164595Y0046136D01*
X0164595Y0048805D01*
X0165863Y0048500D02*
X0217472Y0048500D01*
X0217607Y0048634D02*
X0217096Y0048124D01*
X0216672Y0047540D01*
X0216344Y0046896D01*
X0216121Y0046210D01*
X0216008Y0045496D01*
X0216008Y0045335D01*
X0220395Y0045335D01*
X0220395Y0044935D01*
X0220795Y0044935D01*
X0220795Y0040548D01*
X0220956Y0040548D01*
X0221669Y0040661D01*
X0222356Y0040884D01*
X0222999Y0041212D01*
X0223584Y0041636D01*
X0224094Y0042147D01*
X0224519Y0042731D01*
X0224846Y0043374D01*
X0225070Y0044061D01*
X0225183Y0044774D01*
X0225183Y0044935D01*
X0220795Y0044935D01*
X0220795Y0045335D01*
X0225183Y0045335D01*
X0225183Y0045496D01*
X0225070Y0046210D01*
X0224846Y0046896D01*
X0224519Y0047540D01*
X0224094Y0048124D01*
X0223584Y0048634D01*
X0222999Y0049059D01*
X0222356Y0049387D01*
X0221669Y0049610D01*
X0220956Y0049723D01*
X0220795Y0049723D01*
X0220795Y0045336D01*
X0220395Y0045336D01*
X0220395Y0049723D01*
X0220234Y0049723D01*
X0219521Y0049610D01*
X0218834Y0049387D01*
X0218191Y0049059D01*
X0217607Y0048634D01*
X0216346Y0046901D02*
X0167165Y0046901D01*
X0167140Y0045303D02*
X0220395Y0045303D01*
X0220395Y0044935D02*
X0216008Y0044935D01*
X0216008Y0044774D01*
X0216121Y0044061D01*
X0216344Y0043374D01*
X0216672Y0042731D01*
X0217096Y0042147D01*
X0217607Y0041636D01*
X0218191Y0041212D01*
X0218834Y0040884D01*
X0219521Y0040661D01*
X0220234Y0040548D01*
X0220395Y0040548D01*
X0220395Y0044935D01*
X0220795Y0045303D02*
X0226205Y0045303D01*
X0226205Y0046009D02*
X0226205Y0044262D01*
X0226873Y0042648D01*
X0228108Y0041413D01*
X0229722Y0040745D01*
X0231468Y0040745D01*
X0233082Y0041413D01*
X0234317Y0042648D01*
X0234986Y0044262D01*
X0234986Y0046009D01*
X0234317Y0047622D01*
X0233082Y0048858D01*
X0231468Y0049526D01*
X0229722Y0049526D01*
X0228108Y0048858D01*
X0226873Y0047622D01*
X0226205Y0046009D01*
X0226574Y0046901D02*
X0224844Y0046901D01*
X0223718Y0048500D02*
X0227750Y0048500D01*
X0225968Y0052245D02*
X0224222Y0052245D01*
X0222608Y0052913D01*
X0221373Y0054148D01*
X0220705Y0055762D01*
X0220705Y0057509D01*
X0221373Y0059122D01*
X0222608Y0060358D01*
X0224222Y0061026D01*
X0225968Y0061026D01*
X0227582Y0060358D01*
X0228817Y0059122D01*
X0229486Y0057509D01*
X0229486Y0055762D01*
X0228817Y0054148D01*
X0227582Y0052913D01*
X0225968Y0052245D01*
X0227964Y0053295D02*
X0232226Y0053295D01*
X0232608Y0052913D02*
X0234222Y0052245D01*
X0235968Y0052245D01*
X0237582Y0052913D01*
X0238817Y0054148D01*
X0239486Y0055762D01*
X0239486Y0057509D01*
X0238817Y0059122D01*
X0237582Y0060358D01*
X0235968Y0061026D01*
X0234222Y0061026D01*
X0232608Y0060358D01*
X0231373Y0059122D01*
X0230705Y0057509D01*
X0230705Y0055762D01*
X0231373Y0054148D01*
X0232608Y0052913D01*
X0231064Y0054894D02*
X0229126Y0054894D01*
X0229486Y0056492D02*
X0230705Y0056492D01*
X0230946Y0058091D02*
X0229245Y0058091D01*
X0228250Y0059689D02*
X0231940Y0059689D01*
X0233334Y0062384D02*
X0234021Y0062161D01*
X0234734Y0062048D01*
X0234895Y0062048D01*
X0234895Y0066435D01*
X0235295Y0066435D01*
X0235295Y0062048D01*
X0235456Y0062048D01*
X0236169Y0062161D01*
X0236856Y0062384D01*
X0237499Y0062712D01*
X0238084Y0063136D01*
X0238594Y0063647D01*
X0239019Y0064231D01*
X0239346Y0064874D01*
X0239570Y0065561D01*
X0239683Y0066274D01*
X0239683Y0066435D01*
X0235295Y0066435D01*
X0235295Y0066835D01*
X0239683Y0066835D01*
X0239683Y0066996D01*
X0239570Y0067710D01*
X0239346Y0068396D01*
X0239019Y0069040D01*
X0238594Y0069624D01*
X0238084Y0070134D01*
X0237499Y0070559D01*
X0236856Y0070887D01*
X0236169Y0071110D01*
X0235456Y0071223D01*
X0235295Y0071223D01*
X0235295Y0066836D01*
X0234895Y0066836D01*
X0234895Y0071223D01*
X0234734Y0071223D01*
X0234021Y0071110D01*
X0233334Y0070887D01*
X0232691Y0070559D01*
X0232107Y0070134D01*
X0231596Y0069624D01*
X0231172Y0069040D01*
X0230844Y0068396D01*
X0230621Y0067710D01*
X0230508Y0066996D01*
X0230508Y0066835D01*
X0234895Y0066835D01*
X0234895Y0066435D01*
X0230508Y0066435D01*
X0230508Y0066274D01*
X0230621Y0065561D01*
X0230844Y0064874D01*
X0231172Y0064231D01*
X0231596Y0063647D01*
X0232107Y0063136D01*
X0232691Y0062712D01*
X0233334Y0062384D01*
X0232451Y0062886D02*
X0227517Y0062886D01*
X0227582Y0062913D02*
X0228817Y0064148D01*
X0229486Y0065762D01*
X0229486Y0067509D01*
X0228817Y0069122D01*
X0227582Y0070358D01*
X0225968Y0071026D01*
X0224222Y0071026D01*
X0222608Y0070358D01*
X0221373Y0069122D01*
X0220705Y0067509D01*
X0220705Y0065762D01*
X0221373Y0064148D01*
X0222608Y0062913D01*
X0224222Y0062245D01*
X0225968Y0062245D01*
X0227582Y0062913D01*
X0228957Y0064485D02*
X0231042Y0064485D01*
X0230538Y0066083D02*
X0229486Y0066083D01*
X0229414Y0067682D02*
X0230616Y0067682D01*
X0231346Y0069280D02*
X0228659Y0069280D01*
X0226324Y0070879D02*
X0233319Y0070879D01*
X0234895Y0070879D02*
X0235295Y0070879D01*
X0236872Y0070879D02*
X0264232Y0070879D01*
X0264122Y0071143D02*
X0264343Y0070609D01*
X0264103Y0070609D01*
X0263194Y0070232D01*
X0262498Y0069536D01*
X0262122Y0068627D01*
X0262122Y0067643D01*
X0262498Y0066734D01*
X0263194Y0066039D01*
X0263922Y0065737D01*
X0263922Y0064943D01*
X0264298Y0064034D01*
X0264994Y0063339D01*
X0265903Y0062962D01*
X0266887Y0062962D01*
X0267796Y0063339D01*
X0268492Y0064034D01*
X0268868Y0064943D01*
X0268868Y0065927D01*
X0268492Y0066836D01*
X0267796Y0067532D01*
X0267068Y0067834D01*
X0267068Y0068627D01*
X0266847Y0069162D01*
X0267087Y0069162D01*
X0267996Y0069539D01*
X0268692Y0070234D01*
X0269068Y0071143D01*
X0269068Y0072127D01*
X0268692Y0073036D01*
X0267996Y0073732D01*
X0267087Y0074109D01*
X0266103Y0074109D01*
X0265194Y0073732D01*
X0264498Y0073036D01*
X0264122Y0072127D01*
X0264122Y0071143D01*
X0264267Y0072477D02*
X0204923Y0072477D01*
X0205068Y0072127D02*
X0204692Y0073036D01*
X0203996Y0073732D01*
X0203087Y0074109D01*
X0202103Y0074109D01*
X0201194Y0073732D01*
X0200498Y0073036D01*
X0200122Y0072127D01*
X0200122Y0071143D01*
X0200498Y0070234D01*
X0201194Y0069539D01*
X0202103Y0069162D01*
X0203087Y0069162D01*
X0203996Y0069539D01*
X0204692Y0070234D01*
X0205068Y0071143D01*
X0205068Y0072127D01*
X0204959Y0070879D02*
X0213867Y0070879D01*
X0214222Y0071026D02*
X0212608Y0070358D01*
X0211373Y0069122D01*
X0210705Y0067509D01*
X0210705Y0065762D01*
X0211373Y0064148D01*
X0212608Y0062913D01*
X0214222Y0062245D01*
X0215968Y0062245D01*
X0217582Y0062913D01*
X0218817Y0064148D01*
X0219486Y0065762D01*
X0219486Y0067509D01*
X0218817Y0069122D01*
X0217582Y0070358D01*
X0215968Y0071026D01*
X0214222Y0071026D01*
X0216324Y0070879D02*
X0223867Y0070879D01*
X0221531Y0069280D02*
X0218659Y0069280D01*
X0219414Y0067682D02*
X0220776Y0067682D01*
X0220705Y0066083D02*
X0219486Y0066083D01*
X0218957Y0064485D02*
X0221234Y0064485D01*
X0222673Y0062886D02*
X0217517Y0062886D01*
X0215968Y0061026D02*
X0214222Y0061026D01*
X0212608Y0060358D01*
X0211373Y0059122D01*
X0210705Y0057509D01*
X0210705Y0055762D01*
X0211373Y0054148D01*
X0212608Y0052913D01*
X0214222Y0052245D01*
X0215968Y0052245D01*
X0217582Y0052913D01*
X0218817Y0054148D01*
X0219486Y0055762D01*
X0219486Y0057509D01*
X0218817Y0059122D01*
X0217582Y0060358D01*
X0215968Y0061026D01*
X0218250Y0059689D02*
X0221940Y0059689D01*
X0220946Y0058091D02*
X0219245Y0058091D01*
X0219486Y0056492D02*
X0220705Y0056492D01*
X0221064Y0054894D02*
X0219126Y0054894D01*
X0217964Y0053295D02*
X0222226Y0053295D01*
X0220795Y0048500D02*
X0220395Y0048500D01*
X0220395Y0046901D02*
X0220795Y0046901D01*
X0220795Y0043704D02*
X0220395Y0043704D01*
X0220395Y0042106D02*
X0220795Y0042106D01*
X0221468Y0039526D02*
X0219722Y0039526D01*
X0218108Y0038858D01*
X0216873Y0037622D01*
X0216205Y0036009D01*
X0216205Y0034609D01*
X0215603Y0034609D01*
X0214694Y0034232D01*
X0213998Y0033536D01*
X0213622Y0032627D01*
X0213622Y0031643D01*
X0213998Y0030734D01*
X0214694Y0030039D01*
X0215603Y0029662D01*
X0216587Y0029662D01*
X0217496Y0030039D01*
X0218192Y0030734D01*
X0218420Y0031284D01*
X0219722Y0030745D01*
X0221468Y0030745D01*
X0222122Y0031016D01*
X0222122Y0030143D01*
X0222498Y0029234D01*
X0222729Y0029004D01*
X0221468Y0029526D01*
X0219722Y0029526D01*
X0218108Y0028858D01*
X0216873Y0027622D01*
X0216205Y0026009D01*
X0216205Y0024262D01*
X0216873Y0022648D01*
X0218108Y0021413D01*
X0219722Y0020745D01*
X0221468Y0020745D01*
X0223082Y0021413D01*
X0224317Y0022648D01*
X0224986Y0024262D01*
X0224986Y0026009D01*
X0224317Y0027622D01*
X0223547Y0028392D01*
X0224103Y0028162D01*
X0225087Y0028162D01*
X0225996Y0028539D01*
X0226692Y0029234D01*
X0227068Y0030143D01*
X0227068Y0031127D01*
X0226692Y0032036D01*
X0225996Y0032732D01*
X0225087Y0033109D01*
X0224508Y0033109D01*
X0224986Y0034262D01*
X0224986Y0036009D01*
X0224317Y0037622D01*
X0223082Y0038858D01*
X0221468Y0039526D01*
X0222959Y0038909D02*
X0228231Y0038909D01*
X0228108Y0038858D02*
X0226873Y0037622D01*
X0226205Y0036009D01*
X0226205Y0034262D01*
X0226873Y0032648D01*
X0228108Y0031413D01*
X0229722Y0030745D01*
X0231468Y0030745D01*
X0233082Y0031413D01*
X0234317Y0032648D01*
X0234986Y0034262D01*
X0234986Y0036009D01*
X0234317Y0037622D01*
X0233082Y0038858D01*
X0231468Y0039526D01*
X0229722Y0039526D01*
X0228108Y0038858D01*
X0226744Y0037310D02*
X0224447Y0037310D01*
X0224986Y0035712D02*
X0226205Y0035712D01*
X0226266Y0034113D02*
X0224924Y0034113D01*
X0226214Y0032515D02*
X0227007Y0032515D01*
X0227068Y0030916D02*
X0229308Y0030916D01*
X0229521Y0029610D02*
X0228834Y0029387D01*
X0228191Y0029059D01*
X0227607Y0028634D01*
X0227096Y0028124D01*
X0226672Y0027540D01*
X0226344Y0026896D01*
X0226121Y0026210D01*
X0226008Y0025496D01*
X0226008Y0025335D01*
X0230395Y0025335D01*
X0230395Y0024935D01*
X0230795Y0024935D01*
X0230795Y0020548D01*
X0230956Y0020548D01*
X0231669Y0020661D01*
X0232356Y0020884D01*
X0232999Y0021212D01*
X0233584Y0021636D01*
X0234094Y0022147D01*
X0234519Y0022731D01*
X0234846Y0023374D01*
X0235070Y0024061D01*
X0235183Y0024774D01*
X0235183Y0024935D01*
X0230795Y0024935D01*
X0230795Y0025335D01*
X0235183Y0025335D01*
X0235183Y0025496D01*
X0235070Y0026210D01*
X0234846Y0026896D01*
X0234519Y0027540D01*
X0234094Y0028124D01*
X0233584Y0028634D01*
X0232999Y0029059D01*
X0232356Y0029387D01*
X0231669Y0029610D01*
X0230956Y0029723D01*
X0230795Y0029723D01*
X0230795Y0025336D01*
X0230395Y0025336D01*
X0230395Y0029723D01*
X0230234Y0029723D01*
X0229521Y0029610D01*
X0228698Y0029318D02*
X0226726Y0029318D01*
X0226802Y0027719D02*
X0224221Y0027719D01*
X0224939Y0026121D02*
X0226107Y0026121D01*
X0226008Y0024935D02*
X0226008Y0024774D01*
X0226121Y0024061D01*
X0226344Y0023374D01*
X0226672Y0022731D01*
X0227096Y0022147D01*
X0227607Y0021636D01*
X0228191Y0021212D01*
X0228834Y0020884D01*
X0229521Y0020661D01*
X0230234Y0020548D01*
X0230395Y0020548D01*
X0230395Y0024935D01*
X0226008Y0024935D01*
X0226048Y0024522D02*
X0224986Y0024522D01*
X0224431Y0022924D02*
X0226574Y0022924D01*
X0228035Y0021325D02*
X0222869Y0021325D01*
X0218321Y0021325D02*
X0167779Y0021325D01*
X0168068Y0019727D02*
X0313082Y0019727D01*
X0313028Y0019857D02*
X0313229Y0019371D01*
X0313521Y0018933D01*
X0313893Y0018561D01*
X0314330Y0018269D01*
X0314816Y0018068D01*
X0315332Y0017965D01*
X0315595Y0017965D01*
X0315595Y0020635D01*
X0315595Y0020635D01*
X0315595Y0017965D01*
X0315858Y0017965D01*
X0316374Y0018068D01*
X0316860Y0018269D01*
X0317297Y0018561D01*
X0317669Y0018933D01*
X0317961Y0019371D01*
X0318163Y0019857D01*
X0318265Y0020372D01*
X0318265Y0020635D01*
X0315595Y0020635D01*
X0312925Y0020635D01*
X0312925Y0020372D01*
X0313028Y0019857D01*
X0312925Y0020635D02*
X0315595Y0020635D01*
X0315595Y0020635D01*
X0315595Y0020635D01*
X0318265Y0020635D01*
X0318265Y0020898D01*
X0318163Y0021414D01*
X0317961Y0021900D01*
X0317669Y0022337D01*
X0317297Y0022709D01*
X0316860Y0023002D01*
X0316374Y0023203D01*
X0315858Y0023305D01*
X0315595Y0023305D01*
X0315332Y0023305D01*
X0314816Y0023203D01*
X0314330Y0023002D01*
X0313893Y0022709D01*
X0313521Y0022337D01*
X0313229Y0021900D01*
X0313028Y0021414D01*
X0312925Y0020898D01*
X0312925Y0020635D01*
X0313010Y0021325D02*
X0259869Y0021325D01*
X0260082Y0021413D02*
X0261317Y0022648D01*
X0261986Y0024262D01*
X0261986Y0026009D01*
X0261317Y0027622D01*
X0260082Y0028858D01*
X0258468Y0029526D01*
X0256722Y0029526D01*
X0255108Y0028858D01*
X0253873Y0027622D01*
X0253205Y0026009D01*
X0253205Y0024262D01*
X0253873Y0022648D01*
X0255108Y0021413D01*
X0256722Y0020745D01*
X0258468Y0020745D01*
X0260082Y0021413D01*
X0261431Y0022924D02*
X0314214Y0022924D01*
X0315595Y0022924D02*
X0315595Y0022924D01*
X0315595Y0023305D02*
X0315595Y0020636D01*
X0315595Y0020636D01*
X0315595Y0023305D01*
X0316977Y0022924D02*
X0321656Y0022924D01*
X0322103Y0023109D02*
X0321194Y0022732D01*
X0320498Y0022036D01*
X0320122Y0021127D01*
X0320122Y0020143D01*
X0320498Y0019234D01*
X0321194Y0018539D01*
X0322103Y0018162D01*
X0323087Y0018162D01*
X0323996Y0018539D01*
X0324692Y0019234D01*
X0325068Y0020143D01*
X0325068Y0020165D01*
X0325694Y0019539D01*
X0326603Y0019162D01*
X0327587Y0019162D01*
X0328496Y0019539D01*
X0329192Y0020234D01*
X0329568Y0021143D01*
X0329568Y0022127D01*
X0329192Y0023036D01*
X0328496Y0023732D01*
X0327587Y0024109D01*
X0326603Y0024109D01*
X0325694Y0023732D01*
X0324998Y0023036D01*
X0324622Y0022127D01*
X0324622Y0022106D01*
X0323996Y0022732D01*
X0323087Y0023109D01*
X0322103Y0023109D01*
X0323534Y0022924D02*
X0324952Y0022924D01*
X0324587Y0026162D02*
X0325496Y0026539D01*
X0326192Y0027234D01*
X0326568Y0028143D01*
X0326568Y0029127D01*
X0326554Y0029162D01*
X0327087Y0029162D01*
X0327996Y0029539D01*
X0328692Y0030234D01*
X0329068Y0031143D01*
X0329068Y0031665D01*
X0329194Y0031539D01*
X0330103Y0031162D01*
X0331087Y0031162D01*
X0331996Y0031539D01*
X0332692Y0032234D01*
X0333068Y0033143D01*
X0333068Y0034127D01*
X0332692Y0035036D01*
X0331996Y0035732D01*
X0331087Y0036109D01*
X0330103Y0036109D01*
X0329194Y0035732D01*
X0328498Y0035036D01*
X0328122Y0034127D01*
X0328122Y0033606D01*
X0327996Y0033732D01*
X0327087Y0034109D01*
X0326103Y0034109D01*
X0325194Y0033732D01*
X0324498Y0033036D01*
X0324122Y0032127D01*
X0324122Y0031143D01*
X0324136Y0031109D01*
X0323603Y0031109D01*
X0322694Y0030732D01*
X0321998Y0030036D01*
X0321622Y0029127D01*
X0321622Y0028143D01*
X0321998Y0027234D01*
X0322694Y0026539D01*
X0323603Y0026162D01*
X0324587Y0026162D01*
X0326393Y0027719D02*
X0345047Y0027719D01*
X0345047Y0028441D02*
X0345047Y0026830D01*
X0345663Y0025342D01*
X0346802Y0024204D01*
X0348290Y0023587D01*
X0349148Y0023587D01*
X0349663Y0022342D01*
X0350802Y0021204D01*
X0352290Y0020587D01*
X0353900Y0020587D01*
X0355388Y0021204D01*
X0356527Y0022342D01*
X0357143Y0023830D01*
X0357143Y0025441D01*
X0356527Y0026928D01*
X0355388Y0028067D01*
X0353900Y0028683D01*
X0353043Y0028683D01*
X0352527Y0029928D01*
X0351388Y0031067D01*
X0349900Y0031683D01*
X0348290Y0031683D01*
X0346802Y0031067D01*
X0345663Y0029928D01*
X0345047Y0028441D01*
X0345410Y0029318D02*
X0327462Y0029318D01*
X0328974Y0030916D02*
X0346651Y0030916D01*
X0351539Y0030916D02*
X0393547Y0030916D01*
X0393547Y0030941D02*
X0393547Y0029330D01*
X0394163Y0027842D01*
X0395302Y0026704D01*
X0396790Y0026087D01*
X0398400Y0026087D01*
X0399888Y0026704D01*
X0401027Y0027842D01*
X0401643Y0029330D01*
X0401643Y0030941D01*
X0401027Y0032428D01*
X0399888Y0033567D01*
X0398400Y0034183D01*
X0396790Y0034183D01*
X0395302Y0033567D01*
X0394163Y0032428D01*
X0393547Y0030941D01*
X0393552Y0029318D02*
X0352780Y0029318D01*
X0355736Y0027719D02*
X0394287Y0027719D01*
X0396710Y0026121D02*
X0356862Y0026121D01*
X0357143Y0024522D02*
X0410732Y0024522D01*
X0410732Y0022924D02*
X0356768Y0022924D01*
X0355509Y0021325D02*
X0410732Y0021325D01*
X0410732Y0019727D02*
X0337757Y0019727D01*
X0337860Y0019769D02*
X0338297Y0020061D01*
X0338669Y0020433D01*
X0338961Y0020871D01*
X0339163Y0021357D01*
X0339265Y0021872D01*
X0339265Y0022135D01*
X0336595Y0022135D01*
X0336595Y0022135D01*
X0336595Y0019465D01*
X0336332Y0019465D01*
X0335816Y0019568D01*
X0335330Y0019769D01*
X0334893Y0020061D01*
X0334521Y0020433D01*
X0334229Y0020871D01*
X0334028Y0021357D01*
X0333925Y0021872D01*
X0333925Y0022135D01*
X0336595Y0022135D01*
X0336595Y0019465D01*
X0336858Y0019465D01*
X0337374Y0019568D01*
X0337860Y0019769D01*
X0336595Y0019727D02*
X0336595Y0019727D01*
X0335434Y0019727D02*
X0328684Y0019727D01*
X0329568Y0021325D02*
X0334041Y0021325D01*
X0333925Y0022135D02*
X0336595Y0022135D01*
X0336595Y0022135D01*
X0336595Y0022135D01*
X0339265Y0022135D01*
X0339265Y0022398D01*
X0339163Y0022914D01*
X0338961Y0023400D01*
X0338669Y0023837D01*
X0338297Y0024209D01*
X0337860Y0024502D01*
X0337374Y0024703D01*
X0336858Y0024805D01*
X0336595Y0024805D01*
X0336332Y0024805D01*
X0335816Y0024703D01*
X0335330Y0024502D01*
X0334893Y0024209D01*
X0334521Y0023837D01*
X0334229Y0023400D01*
X0334028Y0022914D01*
X0333925Y0022398D01*
X0333925Y0022135D01*
X0334032Y0022924D02*
X0329239Y0022924D01*
X0335380Y0024522D02*
X0261986Y0024522D01*
X0261939Y0026121D02*
X0285112Y0026121D01*
X0285194Y0026039D02*
X0286103Y0025662D01*
X0287087Y0025662D01*
X0287996Y0026039D01*
X0288692Y0026734D01*
X0289068Y0027643D01*
X0289068Y0028627D01*
X0288692Y0029536D01*
X0287996Y0030232D01*
X0287087Y0030609D01*
X0286103Y0030609D01*
X0285194Y0030232D01*
X0284498Y0029536D01*
X0284122Y0028627D01*
X0284122Y0027643D01*
X0284498Y0026734D01*
X0285194Y0026039D01*
X0284122Y0027719D02*
X0261221Y0027719D01*
X0258972Y0029318D02*
X0284408Y0029318D01*
X0281192Y0030734D02*
X0281568Y0031643D01*
X0281568Y0032627D01*
X0281192Y0033536D01*
X0280496Y0034232D01*
X0279587Y0034609D01*
X0278603Y0034609D01*
X0277694Y0034232D01*
X0276998Y0033536D01*
X0276622Y0032627D01*
X0276622Y0031643D01*
X0276998Y0030734D01*
X0277694Y0030039D01*
X0278603Y0029662D01*
X0279587Y0029662D01*
X0280496Y0030039D01*
X0281192Y0030734D01*
X0281267Y0030916D02*
X0307449Y0030916D01*
X0307498Y0031036D02*
X0307122Y0030127D01*
X0307122Y0029143D01*
X0307498Y0028234D01*
X0308194Y0027539D01*
X0309103Y0027162D01*
X0310087Y0027162D01*
X0310996Y0027539D01*
X0311692Y0028234D01*
X0312068Y0029143D01*
X0312068Y0030127D01*
X0311692Y0031036D01*
X0310996Y0031732D01*
X0310087Y0032109D01*
X0309103Y0032109D01*
X0308194Y0031732D01*
X0307498Y0031036D01*
X0307122Y0029318D02*
X0288782Y0029318D01*
X0289068Y0027719D02*
X0308014Y0027719D01*
X0311176Y0027719D02*
X0315122Y0027719D01*
X0315122Y0028127D02*
X0315122Y0027143D01*
X0315498Y0026234D01*
X0316194Y0025539D01*
X0317103Y0025162D01*
X0318087Y0025162D01*
X0318996Y0025539D01*
X0319692Y0026234D01*
X0320068Y0027143D01*
X0320068Y0028127D01*
X0319692Y0029036D01*
X0318996Y0029732D01*
X0318087Y0030109D01*
X0317103Y0030109D01*
X0316194Y0029732D01*
X0315498Y0029036D01*
X0315122Y0028127D01*
X0315780Y0029318D02*
X0312068Y0029318D01*
X0311742Y0030916D02*
X0323138Y0030916D01*
X0322496Y0032039D02*
X0323192Y0032734D01*
X0323568Y0033643D01*
X0323568Y0034627D01*
X0323192Y0035536D01*
X0322496Y0036232D01*
X0321587Y0036609D01*
X0320603Y0036609D01*
X0319694Y0036232D01*
X0318998Y0035536D01*
X0318622Y0034627D01*
X0318622Y0033643D01*
X0318998Y0032734D01*
X0319694Y0032039D01*
X0320603Y0031662D01*
X0321587Y0031662D01*
X0322496Y0032039D01*
X0322972Y0032515D02*
X0324282Y0032515D01*
X0323568Y0034113D02*
X0328122Y0034113D01*
X0329174Y0035712D02*
X0323017Y0035712D01*
X0319174Y0035712D02*
X0261986Y0035712D01*
X0261986Y0036009D02*
X0261317Y0037622D01*
X0260082Y0038858D01*
X0258468Y0039526D01*
X0256722Y0039526D01*
X0255108Y0038858D01*
X0253873Y0037622D01*
X0253205Y0036009D01*
X0253205Y0034262D01*
X0253873Y0032648D01*
X0255108Y0031413D01*
X0256722Y0030745D01*
X0258468Y0030745D01*
X0260082Y0031413D01*
X0261317Y0032648D01*
X0261986Y0034262D01*
X0261986Y0036009D01*
X0261447Y0037310D02*
X0354437Y0037310D01*
X0354425Y0037372D02*
X0354528Y0036857D01*
X0354729Y0036371D01*
X0355021Y0035933D01*
X0355393Y0035561D01*
X0355830Y0035269D01*
X0356316Y0035068D01*
X0356832Y0034965D01*
X0357095Y0034965D01*
X0357095Y0037635D01*
X0357095Y0037635D01*
X0357095Y0034965D01*
X0357358Y0034965D01*
X0357874Y0035068D01*
X0358360Y0035269D01*
X0358797Y0035561D01*
X0359169Y0035933D01*
X0359461Y0036371D01*
X0359663Y0036857D01*
X0359765Y0037372D01*
X0359765Y0037635D01*
X0357095Y0037635D01*
X0354425Y0037635D01*
X0354425Y0037372D01*
X0354425Y0037635D02*
X0357095Y0037635D01*
X0357095Y0037635D01*
X0357095Y0037635D01*
X0359765Y0037635D01*
X0359765Y0037898D01*
X0359663Y0038414D01*
X0359461Y0038900D01*
X0359169Y0039338D01*
X0358797Y0039709D01*
X0358360Y0040002D01*
X0357874Y0040203D01*
X0357358Y0040305D01*
X0357095Y0040305D01*
X0356832Y0040305D01*
X0356316Y0040203D01*
X0355830Y0040002D01*
X0355393Y0039709D01*
X0355021Y0039338D01*
X0354729Y0038900D01*
X0354528Y0038414D01*
X0354425Y0037898D01*
X0354425Y0037635D01*
X0354735Y0038909D02*
X0259959Y0038909D01*
X0258468Y0040745D02*
X0260082Y0041413D01*
X0261317Y0042648D01*
X0261986Y0044262D01*
X0261986Y0046009D01*
X0261317Y0047622D01*
X0260082Y0048858D01*
X0258468Y0049526D01*
X0256722Y0049526D01*
X0255108Y0048858D01*
X0253873Y0047622D01*
X0253205Y0046009D01*
X0253205Y0044262D01*
X0253873Y0042648D01*
X0255108Y0041413D01*
X0256722Y0040745D01*
X0258468Y0040745D01*
X0260775Y0042106D02*
X0282627Y0042106D01*
X0282694Y0042039D02*
X0283603Y0041662D01*
X0284587Y0041662D01*
X0285496Y0042039D01*
X0285845Y0042388D01*
X0286194Y0042039D01*
X0287103Y0041662D01*
X0288087Y0041662D01*
X0288996Y0042039D01*
X0289345Y0042388D01*
X0289694Y0042039D01*
X0290603Y0041662D01*
X0291587Y0041662D01*
X0292496Y0042039D01*
X0292845Y0042388D01*
X0293194Y0042039D01*
X0294103Y0041662D01*
X0295087Y0041662D01*
X0295996Y0042039D01*
X0296345Y0042388D01*
X0296694Y0042039D01*
X0297603Y0041662D01*
X0298587Y0041662D01*
X0299496Y0042039D01*
X0299706Y0042249D01*
X0299893Y0042061D01*
X0300330Y0041769D01*
X0300816Y0041568D01*
X0301332Y0041465D01*
X0301595Y0041465D01*
X0301595Y0044135D01*
X0301595Y0044135D01*
X0301595Y0041465D01*
X0301858Y0041465D01*
X0302374Y0041568D01*
X0302860Y0041769D01*
X0303297Y0042061D01*
X0303484Y0042249D01*
X0303694Y0042039D01*
X0304603Y0041662D01*
X0305587Y0041662D01*
X0306496Y0042039D01*
X0307192Y0042734D01*
X0307568Y0043643D01*
X0307568Y0044627D01*
X0307192Y0045536D01*
X0306496Y0046232D01*
X0305587Y0046609D01*
X0304603Y0046609D01*
X0303694Y0046232D01*
X0303484Y0046022D01*
X0303297Y0046209D01*
X0302860Y0046502D01*
X0302374Y0046703D01*
X0301858Y0046805D01*
X0301595Y0046805D01*
X0301332Y0046805D01*
X0300816Y0046703D01*
X0300330Y0046502D01*
X0299893Y0046209D01*
X0299706Y0046022D01*
X0299496Y0046232D01*
X0298587Y0046609D01*
X0297603Y0046609D01*
X0296694Y0046232D01*
X0296345Y0045883D01*
X0295996Y0046232D01*
X0295087Y0046609D01*
X0294103Y0046609D01*
X0293194Y0046232D01*
X0292845Y0045883D01*
X0292496Y0046232D01*
X0291587Y0046609D01*
X0290603Y0046609D01*
X0289694Y0046232D01*
X0289345Y0045883D01*
X0288996Y0046232D01*
X0288087Y0046609D01*
X0287103Y0046609D01*
X0286194Y0046232D01*
X0285845Y0045883D01*
X0285496Y0046232D01*
X0284587Y0046609D01*
X0283603Y0046609D01*
X0282694Y0046232D01*
X0282595Y0046133D01*
X0281996Y0046732D01*
X0281087Y0047109D01*
X0280103Y0047109D01*
X0279194Y0046732D01*
X0278498Y0046036D01*
X0278122Y0045127D01*
X0278122Y0044143D01*
X0278498Y0043234D01*
X0279194Y0042539D01*
X0280103Y0042162D01*
X0281087Y0042162D01*
X0281996Y0042539D01*
X0282095Y0042638D01*
X0282694Y0042039D01*
X0285563Y0042106D02*
X0286127Y0042106D01*
X0289063Y0042106D02*
X0289627Y0042106D01*
X0292563Y0042106D02*
X0293127Y0042106D01*
X0296063Y0042106D02*
X0296627Y0042106D01*
X0299563Y0042106D02*
X0299849Y0042106D01*
X0301595Y0042106D02*
X0301595Y0042106D01*
X0301595Y0043704D02*
X0301595Y0043704D01*
X0301595Y0044136D02*
X0301595Y0046805D01*
X0301595Y0044136D01*
X0301595Y0044136D01*
X0301595Y0045303D02*
X0301595Y0045303D01*
X0303341Y0042106D02*
X0303627Y0042106D01*
X0306563Y0042106D02*
X0317127Y0042106D01*
X0317194Y0042039D02*
X0318103Y0041662D01*
X0319087Y0041662D01*
X0319996Y0042039D01*
X0320692Y0042734D01*
X0320845Y0043105D01*
X0320998Y0042734D01*
X0321694Y0042039D01*
X0322603Y0041662D01*
X0323587Y0041662D01*
X0324496Y0042039D01*
X0325192Y0042734D01*
X0325568Y0043643D01*
X0325568Y0044627D01*
X0325192Y0045536D01*
X0324496Y0046232D01*
X0323587Y0046609D01*
X0322603Y0046609D01*
X0321694Y0046232D01*
X0320998Y0045536D01*
X0320845Y0045166D01*
X0320692Y0045536D01*
X0319996Y0046232D01*
X0319087Y0046609D01*
X0318103Y0046609D01*
X0317194Y0046232D01*
X0316498Y0045536D01*
X0316122Y0044627D01*
X0316122Y0043643D01*
X0316498Y0042734D01*
X0317194Y0042039D01*
X0316122Y0043704D02*
X0307568Y0043704D01*
X0307289Y0045303D02*
X0316402Y0045303D01*
X0320789Y0045303D02*
X0320902Y0045303D01*
X0321627Y0042106D02*
X0320063Y0042106D01*
X0324563Y0042106D02*
X0380925Y0042106D01*
X0380925Y0042135D02*
X0380925Y0041872D01*
X0381028Y0041357D01*
X0381229Y0040871D01*
X0381521Y0040433D01*
X0381893Y0040061D01*
X0382330Y0039769D01*
X0382816Y0039568D01*
X0383332Y0039465D01*
X0383595Y0039465D01*
X0383595Y0042135D01*
X0383595Y0042135D01*
X0383595Y0039465D01*
X0383858Y0039465D01*
X0384374Y0039568D01*
X0384860Y0039769D01*
X0385297Y0040061D01*
X0385669Y0040433D01*
X0385961Y0040871D01*
X0386163Y0041357D01*
X0386265Y0041872D01*
X0386265Y0042135D01*
X0383595Y0042135D01*
X0380925Y0042135D01*
X0383595Y0042135D01*
X0383595Y0042135D01*
X0383595Y0042135D01*
X0386265Y0042135D01*
X0386265Y0042398D01*
X0386163Y0042914D01*
X0385961Y0043400D01*
X0385669Y0043837D01*
X0385297Y0044209D01*
X0384860Y0044502D01*
X0384374Y0044703D01*
X0383858Y0044805D01*
X0383595Y0044805D01*
X0383332Y0044805D01*
X0382816Y0044703D01*
X0382330Y0044502D01*
X0381893Y0044209D01*
X0381521Y0043837D01*
X0381229Y0043400D01*
X0381028Y0042914D01*
X0380925Y0042398D01*
X0380925Y0042135D01*
X0381432Y0043704D02*
X0325568Y0043704D01*
X0325289Y0045303D02*
X0367203Y0045303D01*
X0367302Y0045204D02*
X0368790Y0044587D01*
X0370400Y0044587D01*
X0371888Y0045204D01*
X0373027Y0046342D01*
X0373643Y0047830D01*
X0373643Y0049441D01*
X0373027Y0050928D01*
X0371888Y0052067D01*
X0370400Y0052683D01*
X0368790Y0052683D01*
X0367302Y0052067D01*
X0366163Y0050928D01*
X0365547Y0049441D01*
X0365547Y0047830D01*
X0366163Y0046342D01*
X0367302Y0045204D01*
X0365932Y0046901D02*
X0281588Y0046901D01*
X0279602Y0046901D02*
X0267068Y0046901D01*
X0267068Y0047127D02*
X0266692Y0048036D01*
X0265996Y0048732D01*
X0265087Y0049109D01*
X0264103Y0049109D01*
X0263194Y0048732D01*
X0262498Y0048036D01*
X0262122Y0047127D01*
X0262122Y0046143D01*
X0262498Y0045234D01*
X0263194Y0044539D01*
X0264103Y0044162D01*
X0265087Y0044162D01*
X0265996Y0044539D01*
X0266692Y0045234D01*
X0267068Y0046143D01*
X0267068Y0047127D01*
X0266229Y0048500D02*
X0274389Y0048500D01*
X0274498Y0048234D02*
X0274122Y0049143D01*
X0274122Y0050127D01*
X0274498Y0051036D01*
X0274708Y0051246D01*
X0274521Y0051433D01*
X0274229Y0051871D01*
X0274028Y0052357D01*
X0273925Y0052872D01*
X0273925Y0053135D01*
X0276595Y0053135D01*
X0276595Y0053135D01*
X0276595Y0053135D01*
X0279265Y0053135D01*
X0279265Y0052872D01*
X0279163Y0052357D01*
X0278961Y0051871D01*
X0278669Y0051433D01*
X0278482Y0051246D01*
X0278692Y0051036D01*
X0279068Y0050127D01*
X0279068Y0049143D01*
X0278692Y0048234D01*
X0277996Y0047539D01*
X0277087Y0047162D01*
X0276103Y0047162D01*
X0275194Y0047539D01*
X0274498Y0048234D01*
X0274122Y0050098D02*
X0207056Y0050098D01*
X0206996Y0050039D02*
X0207692Y0050734D01*
X0208068Y0051643D01*
X0208068Y0052627D01*
X0207692Y0053536D01*
X0206996Y0054232D01*
X0206087Y0054609D01*
X0205103Y0054609D01*
X0204194Y0054232D01*
X0203498Y0053536D01*
X0203122Y0052627D01*
X0203122Y0051643D01*
X0203498Y0050734D01*
X0204194Y0050039D01*
X0205103Y0049662D01*
X0206087Y0049662D01*
X0206996Y0050039D01*
X0208068Y0051697D02*
X0244825Y0051697D01*
X0245108Y0051413D02*
X0246722Y0050745D01*
X0248468Y0050745D01*
X0250082Y0051413D01*
X0251317Y0052648D01*
X0251986Y0054262D01*
X0251986Y0056009D01*
X0251317Y0057622D01*
X0250082Y0058858D01*
X0248468Y0059526D01*
X0246722Y0059526D01*
X0245108Y0058858D01*
X0243873Y0057622D01*
X0243205Y0056009D01*
X0243205Y0054262D01*
X0243873Y0052648D01*
X0245108Y0051413D01*
X0243605Y0053295D02*
X0237964Y0053295D01*
X0239126Y0054894D02*
X0243205Y0054894D01*
X0243405Y0056492D02*
X0239486Y0056492D01*
X0239245Y0058091D02*
X0244341Y0058091D01*
X0245834Y0060884D02*
X0246521Y0060661D01*
X0247234Y0060548D01*
X0247395Y0060548D01*
X0247395Y0064935D01*
X0247795Y0064935D01*
X0247795Y0060548D01*
X0247956Y0060548D01*
X0248669Y0060661D01*
X0249356Y0060884D01*
X0249999Y0061212D01*
X0250584Y0061636D01*
X0251094Y0062147D01*
X0251519Y0062731D01*
X0251846Y0063374D01*
X0252070Y0064061D01*
X0252183Y0064774D01*
X0252183Y0064935D01*
X0247795Y0064935D01*
X0247795Y0065335D01*
X0252183Y0065335D01*
X0252183Y0065496D01*
X0252070Y0066210D01*
X0251846Y0066896D01*
X0251519Y0067540D01*
X0251094Y0068124D01*
X0250584Y0068634D01*
X0249999Y0069059D01*
X0249356Y0069387D01*
X0248669Y0069610D01*
X0247956Y0069723D01*
X0247795Y0069723D01*
X0247795Y0065336D01*
X0247395Y0065336D01*
X0247395Y0069723D01*
X0247234Y0069723D01*
X0246521Y0069610D01*
X0245834Y0069387D01*
X0245191Y0069059D01*
X0244607Y0068634D01*
X0244096Y0068124D01*
X0243672Y0067540D01*
X0243344Y0066896D01*
X0243121Y0066210D01*
X0243008Y0065496D01*
X0243008Y0065335D01*
X0247395Y0065335D01*
X0247395Y0064935D01*
X0243008Y0064935D01*
X0243008Y0064774D01*
X0243121Y0064061D01*
X0243344Y0063374D01*
X0243672Y0062731D01*
X0244096Y0062147D01*
X0244607Y0061636D01*
X0245191Y0061212D01*
X0245834Y0060884D01*
X0245086Y0061288D02*
X0052571Y0061288D01*
X0051981Y0059689D02*
X0148783Y0059689D01*
X0148816Y0059703D02*
X0148330Y0059502D01*
X0147893Y0059209D01*
X0147521Y0058837D01*
X0147229Y0058400D01*
X0147028Y0057914D01*
X0146925Y0057398D01*
X0146925Y0057135D01*
X0146925Y0056872D01*
X0147028Y0056357D01*
X0147229Y0055871D01*
X0147521Y0055433D01*
X0147893Y0055061D01*
X0148330Y0054769D01*
X0148816Y0054568D01*
X0149332Y0054465D01*
X0149595Y0054465D01*
X0149595Y0057135D01*
X0149595Y0057135D01*
X0149595Y0054465D01*
X0149858Y0054465D01*
X0150374Y0054568D01*
X0150860Y0054769D01*
X0151297Y0055061D01*
X0151669Y0055433D01*
X0151961Y0055871D01*
X0152163Y0056357D01*
X0152265Y0056872D01*
X0152265Y0057135D01*
X0149595Y0057135D01*
X0146925Y0057135D01*
X0149595Y0057135D01*
X0149595Y0057135D01*
X0149595Y0057135D01*
X0152265Y0057135D01*
X0152265Y0057398D01*
X0152163Y0057914D01*
X0151961Y0058400D01*
X0151669Y0058837D01*
X0151297Y0059209D01*
X0150860Y0059502D01*
X0150374Y0059703D01*
X0149858Y0059805D01*
X0149595Y0059805D01*
X0149332Y0059805D01*
X0148816Y0059703D01*
X0149595Y0059689D02*
X0149595Y0059689D01*
X0149595Y0059805D02*
X0149595Y0057136D01*
X0149595Y0057136D01*
X0149595Y0059805D01*
X0150407Y0059689D02*
X0211940Y0059689D01*
X0210946Y0058091D02*
X0152089Y0058091D01*
X0152190Y0056492D02*
X0210705Y0056492D01*
X0211064Y0054894D02*
X0151046Y0054894D01*
X0149595Y0054894D02*
X0149595Y0054894D01*
X0148144Y0054894D02*
X0105964Y0054894D01*
X0105961Y0054900D02*
X0105669Y0055337D01*
X0105297Y0055709D01*
X0104860Y0056002D01*
X0104374Y0056203D01*
X0103858Y0056305D01*
X0103595Y0056305D01*
X0103332Y0056305D01*
X0102816Y0056203D01*
X0102330Y0056002D01*
X0101893Y0055709D01*
X0101521Y0055337D01*
X0101229Y0054900D01*
X0101028Y0054414D01*
X0100925Y0053898D01*
X0100925Y0053635D01*
X0100925Y0053372D01*
X0101028Y0052857D01*
X0101229Y0052371D01*
X0101521Y0051933D01*
X0101893Y0051561D01*
X0102330Y0051269D01*
X0102816Y0051068D01*
X0103332Y0050965D01*
X0103595Y0050965D01*
X0103595Y0053635D01*
X0103595Y0053635D01*
X0103595Y0050965D01*
X0103858Y0050965D01*
X0104374Y0051068D01*
X0104860Y0051269D01*
X0105297Y0051561D01*
X0105669Y0051933D01*
X0105961Y0052371D01*
X0106163Y0052857D01*
X0106265Y0053372D01*
X0106265Y0053635D01*
X0103595Y0053635D01*
X0100925Y0053635D01*
X0103595Y0053635D01*
X0103595Y0053635D01*
X0103595Y0053635D01*
X0106265Y0053635D01*
X0106265Y0053898D01*
X0106163Y0054414D01*
X0105961Y0054900D01*
X0106250Y0053295D02*
X0203399Y0053295D01*
X0203122Y0051697D02*
X0105432Y0051697D01*
X0103595Y0051697D02*
X0103595Y0051697D01*
X0103595Y0053295D02*
X0103595Y0053295D01*
X0103595Y0053636D02*
X0103595Y0056305D01*
X0103595Y0053636D01*
X0103595Y0053636D01*
X0103595Y0054894D02*
X0103595Y0054894D01*
X0101226Y0054894D02*
X0051414Y0054894D01*
X0051414Y0056492D02*
X0147001Y0056492D01*
X0147101Y0058091D02*
X0051414Y0058091D01*
X0051414Y0053295D02*
X0100940Y0053295D01*
X0101758Y0051697D02*
X0051414Y0051697D01*
X0051414Y0050098D02*
X0204135Y0050098D01*
X0207792Y0053295D02*
X0212226Y0053295D01*
X0212673Y0062886D02*
X0057122Y0062886D01*
X0057765Y0064485D02*
X0083734Y0064485D01*
X0083832Y0064465D02*
X0084095Y0064465D01*
X0084095Y0067135D01*
X0084095Y0067135D01*
X0084095Y0064465D01*
X0084358Y0064465D01*
X0084874Y0064568D01*
X0085360Y0064769D01*
X0085797Y0065061D01*
X0086169Y0065433D01*
X0086461Y0065871D01*
X0086663Y0066357D01*
X0086765Y0066872D01*
X0086765Y0067135D01*
X0084095Y0067135D01*
X0081425Y0067135D01*
X0081425Y0066872D01*
X0081528Y0066357D01*
X0081729Y0065871D01*
X0082021Y0065433D01*
X0082393Y0065061D01*
X0082830Y0064769D01*
X0083316Y0064568D01*
X0083832Y0064465D01*
X0084095Y0064485D02*
X0084095Y0064485D01*
X0084456Y0064485D02*
X0211234Y0064485D01*
X0210705Y0066083D02*
X0086549Y0066083D01*
X0086765Y0067135D02*
X0086765Y0067398D01*
X0086663Y0067914D01*
X0086461Y0068400D01*
X0086169Y0068838D01*
X0085797Y0069209D01*
X0085360Y0069502D01*
X0084874Y0069703D01*
X0084358Y0069805D01*
X0084095Y0069805D01*
X0083832Y0069805D01*
X0083316Y0069703D01*
X0082830Y0069502D01*
X0082393Y0069209D01*
X0082021Y0068838D01*
X0081729Y0068400D01*
X0081528Y0067914D01*
X0081425Y0067398D01*
X0081425Y0067135D01*
X0084095Y0067135D01*
X0084095Y0067135D01*
X0084095Y0067135D01*
X0086765Y0067135D01*
X0086709Y0067682D02*
X0210776Y0067682D01*
X0211531Y0069280D02*
X0203372Y0069280D01*
X0201818Y0069280D02*
X0085691Y0069280D01*
X0084095Y0069280D02*
X0084095Y0069280D01*
X0084095Y0069805D02*
X0084095Y0067136D01*
X0084095Y0067136D01*
X0084095Y0069805D01*
X0082499Y0069280D02*
X0059615Y0069280D01*
X0060571Y0070879D02*
X0189854Y0070879D01*
X0190194Y0070539D02*
X0189498Y0071234D01*
X0189122Y0072143D01*
X0189122Y0073127D01*
X0189498Y0074036D01*
X0189847Y0074385D01*
X0189498Y0074734D01*
X0189122Y0075643D01*
X0189122Y0076627D01*
X0189498Y0077536D01*
X0190194Y0078232D01*
X0191103Y0078609D01*
X0192087Y0078609D01*
X0192996Y0078232D01*
X0193692Y0077536D01*
X0194068Y0076627D01*
X0194068Y0075643D01*
X0193692Y0074734D01*
X0193343Y0074385D01*
X0193692Y0074036D01*
X0194068Y0073127D01*
X0194068Y0072143D01*
X0193692Y0071234D01*
X0192996Y0070539D01*
X0192087Y0070162D01*
X0191103Y0070162D01*
X0190194Y0070539D01*
X0189122Y0072477D02*
X0060749Y0072477D01*
X0060288Y0074076D02*
X0189538Y0074076D01*
X0189122Y0075674D02*
X0083410Y0075674D01*
X0083297Y0075561D02*
X0083669Y0075933D01*
X0083961Y0076371D01*
X0084163Y0076857D01*
X0084265Y0077372D01*
X0084265Y0077635D01*
X0081595Y0077635D01*
X0081595Y0077635D01*
X0081595Y0074965D01*
X0081332Y0074965D01*
X0080816Y0075068D01*
X0080330Y0075269D01*
X0079893Y0075561D01*
X0079521Y0075933D01*
X0079229Y0076371D01*
X0079028Y0076857D01*
X0078925Y0077372D01*
X0078925Y0077635D01*
X0081595Y0077635D01*
X0081595Y0074965D01*
X0081858Y0074965D01*
X0082374Y0075068D01*
X0082860Y0075269D01*
X0083297Y0075561D01*
X0081595Y0075674D02*
X0081595Y0075674D01*
X0081595Y0077273D02*
X0081595Y0077273D01*
X0081595Y0077635D02*
X0081595Y0077635D01*
X0081595Y0077635D01*
X0078925Y0077635D01*
X0078925Y0077898D01*
X0079028Y0078414D01*
X0079229Y0078900D01*
X0079521Y0079338D01*
X0079893Y0079709D01*
X0080330Y0080002D01*
X0080816Y0080203D01*
X0081332Y0080305D01*
X0081595Y0080305D01*
X0081595Y0077636D01*
X0081595Y0077636D01*
X0081595Y0080305D01*
X0081858Y0080305D01*
X0082374Y0080203D01*
X0082860Y0080002D01*
X0083297Y0079709D01*
X0083669Y0079338D01*
X0083961Y0078900D01*
X0084163Y0078414D01*
X0084265Y0077898D01*
X0084265Y0077635D01*
X0081595Y0077635D01*
X0081595Y0078871D02*
X0081595Y0078871D01*
X0079217Y0078871D02*
X0057473Y0078871D01*
X0057461Y0078900D02*
X0057169Y0079338D01*
X0056797Y0079709D01*
X0056360Y0080002D01*
X0055874Y0080203D01*
X0055358Y0080305D01*
X0055095Y0080305D01*
X0054832Y0080305D01*
X0054316Y0080203D01*
X0053830Y0080002D01*
X0053393Y0079709D01*
X0053021Y0079338D01*
X0052729Y0078900D01*
X0052528Y0078414D01*
X0052425Y0077898D01*
X0052425Y0077635D01*
X0055095Y0077635D01*
X0055095Y0077635D01*
X0055095Y0077635D01*
X0057765Y0077635D01*
X0057765Y0077898D01*
X0057663Y0078414D01*
X0057461Y0078900D01*
X0057745Y0077273D02*
X0078945Y0077273D01*
X0079780Y0075674D02*
X0058907Y0075674D01*
X0055095Y0077636D02*
X0055095Y0077636D01*
X0055095Y0080305D01*
X0055095Y0077636D01*
X0055095Y0078871D02*
X0055095Y0078871D01*
X0052717Y0078871D02*
X0051414Y0078871D01*
X0051414Y0077273D02*
X0052445Y0077273D01*
X0051414Y0080470D02*
X0189194Y0080470D01*
X0189122Y0080643D02*
X0189498Y0079734D01*
X0190194Y0079039D01*
X0191103Y0078662D01*
X0192087Y0078662D01*
X0192996Y0079039D01*
X0193692Y0079734D01*
X0194068Y0080643D01*
X0194068Y0081627D01*
X0193692Y0082536D01*
X0193343Y0082885D01*
X0193692Y0083234D01*
X0194068Y0084143D01*
X0194068Y0085127D01*
X0193692Y0086036D01*
X0193343Y0086385D01*
X0193692Y0086734D01*
X0194068Y0087643D01*
X0194068Y0088627D01*
X0193692Y0089536D01*
X0192996Y0090232D01*
X0192087Y0090609D01*
X0191103Y0090609D01*
X0190194Y0090232D01*
X0189498Y0089536D01*
X0189122Y0088627D01*
X0189122Y0087643D01*
X0189498Y0086734D01*
X0189847Y0086385D01*
X0189498Y0086036D01*
X0189122Y0085127D01*
X0189122Y0084143D01*
X0189498Y0083234D01*
X0189847Y0082885D01*
X0189498Y0082536D01*
X0189122Y0081627D01*
X0189122Y0080643D01*
X0189305Y0082068D02*
X0051414Y0082068D01*
X0051414Y0083667D02*
X0189319Y0083667D01*
X0189179Y0085265D02*
X0051414Y0085265D01*
X0051414Y0086864D02*
X0189445Y0086864D01*
X0189122Y0088462D02*
X0051414Y0088462D01*
X0051414Y0090061D02*
X0190023Y0090061D01*
X0193167Y0090061D02*
X0197672Y0090061D01*
X0197498Y0090234D02*
X0198194Y0089539D01*
X0199103Y0089162D01*
X0200087Y0089162D01*
X0200996Y0089539D01*
X0201692Y0090234D01*
X0202068Y0091143D01*
X0202068Y0092127D01*
X0201692Y0093036D01*
X0200996Y0093732D01*
X0200087Y0094109D01*
X0199103Y0094109D01*
X0198194Y0093732D01*
X0197498Y0093036D01*
X0197122Y0092127D01*
X0197122Y0091143D01*
X0197498Y0090234D01*
X0197122Y0091660D02*
X0051414Y0091660D01*
X0051414Y0093258D02*
X0197720Y0093258D01*
X0197496Y0094039D02*
X0198192Y0094734D01*
X0198568Y0095643D01*
X0198568Y0096627D01*
X0198192Y0097536D01*
X0197496Y0098232D01*
X0196587Y0098609D01*
X0196554Y0098609D01*
X0196568Y0098643D01*
X0196568Y0099177D01*
X0196603Y0099162D01*
X0197587Y0099162D01*
X0198496Y0099539D01*
X0199192Y0100234D01*
X0199568Y0101143D01*
X0199568Y0102127D01*
X0199192Y0103036D01*
X0198496Y0103732D01*
X0197587Y0104109D01*
X0196603Y0104109D01*
X0195694Y0103732D01*
X0194998Y0103036D01*
X0194622Y0102127D01*
X0194622Y0101594D01*
X0194587Y0101609D01*
X0193603Y0101609D01*
X0192694Y0101232D01*
X0191998Y0100536D01*
X0191622Y0099627D01*
X0191622Y0098643D01*
X0191998Y0097734D01*
X0192694Y0097039D01*
X0193603Y0096662D01*
X0193636Y0096662D01*
X0193622Y0096627D01*
X0193622Y0095643D01*
X0193998Y0094734D01*
X0194694Y0094039D01*
X0195603Y0093662D01*
X0196587Y0093662D01*
X0197496Y0094039D01*
X0198242Y0094857D02*
X0263495Y0094857D01*
X0263194Y0094732D02*
X0262498Y0094036D01*
X0262122Y0093127D01*
X0262122Y0092143D01*
X0262498Y0091234D01*
X0263194Y0090539D01*
X0264103Y0090162D01*
X0264136Y0090162D01*
X0264122Y0090127D01*
X0264122Y0089143D01*
X0264498Y0088234D01*
X0265194Y0087539D01*
X0266103Y0087162D01*
X0267087Y0087162D01*
X0267996Y0087539D01*
X0268692Y0088234D01*
X0269068Y0089143D01*
X0269068Y0090127D01*
X0268692Y0091036D01*
X0267996Y0091732D01*
X0267087Y0092109D01*
X0267054Y0092109D01*
X0267068Y0092143D01*
X0267068Y0093127D01*
X0266692Y0094036D01*
X0265996Y0094732D01*
X0265087Y0095109D01*
X0264103Y0095109D01*
X0263194Y0094732D01*
X0262176Y0093258D02*
X0206970Y0093258D01*
X0207192Y0093036D02*
X0206496Y0093732D01*
X0205587Y0094109D01*
X0204603Y0094109D01*
X0203694Y0093732D01*
X0202998Y0093036D01*
X0202622Y0092127D01*
X0202622Y0091143D01*
X0202998Y0090234D01*
X0203694Y0089539D01*
X0204603Y0089162D01*
X0205587Y0089162D01*
X0206496Y0089539D01*
X0207192Y0090234D01*
X0207568Y0091143D01*
X0207568Y0092127D01*
X0207192Y0093036D01*
X0207568Y0091660D02*
X0262322Y0091660D01*
X0264122Y0090061D02*
X0222717Y0090061D01*
X0222860Y0090002D02*
X0222374Y0090203D01*
X0221858Y0090305D01*
X0221595Y0090305D01*
X0221332Y0090305D01*
X0220816Y0090203D01*
X0220330Y0090002D01*
X0219893Y0089709D01*
X0219521Y0089337D01*
X0219229Y0088900D01*
X0219028Y0088414D01*
X0218925Y0087898D01*
X0218925Y0087635D01*
X0218925Y0087372D01*
X0219028Y0086857D01*
X0219229Y0086371D01*
X0219521Y0085933D01*
X0219893Y0085561D01*
X0220330Y0085269D01*
X0220816Y0085068D01*
X0221332Y0084965D01*
X0221595Y0084965D01*
X0221595Y0087635D01*
X0221595Y0087635D01*
X0221595Y0084965D01*
X0221858Y0084965D01*
X0222374Y0085068D01*
X0222860Y0085269D01*
X0223297Y0085561D01*
X0223669Y0085933D01*
X0223961Y0086371D01*
X0224163Y0086857D01*
X0224265Y0087372D01*
X0224265Y0087635D01*
X0221595Y0087635D01*
X0218925Y0087635D01*
X0221595Y0087635D01*
X0221595Y0087635D01*
X0221595Y0087635D01*
X0224265Y0087635D01*
X0224265Y0087898D01*
X0224163Y0088414D01*
X0223961Y0088900D01*
X0223669Y0089337D01*
X0223297Y0089709D01*
X0222860Y0090002D01*
X0221595Y0090061D02*
X0221595Y0090061D01*
X0221595Y0090305D02*
X0221595Y0087636D01*
X0221595Y0087636D01*
X0221595Y0090305D01*
X0220474Y0090061D02*
X0207018Y0090061D01*
X0203172Y0090061D02*
X0201518Y0090061D01*
X0202068Y0091660D02*
X0202622Y0091660D01*
X0203220Y0093258D02*
X0201470Y0093258D01*
X0206330Y0095769D02*
X0206816Y0095568D01*
X0207332Y0095465D01*
X0207595Y0095465D01*
X0207595Y0098135D01*
X0207595Y0098135D01*
X0207595Y0095465D01*
X0207858Y0095465D01*
X0208374Y0095568D01*
X0208860Y0095769D01*
X0209297Y0096061D01*
X0209669Y0096433D01*
X0209961Y0096871D01*
X0210163Y0097357D01*
X0210223Y0097662D01*
X0210587Y0097662D01*
X0211496Y0098039D01*
X0212192Y0098734D01*
X0212568Y0099643D01*
X0212568Y0100627D01*
X0212192Y0101536D01*
X0211496Y0102232D01*
X0210587Y0102609D01*
X0209603Y0102609D01*
X0208694Y0102232D01*
X0207998Y0101536D01*
X0207696Y0100805D01*
X0207595Y0100805D01*
X0207332Y0100805D01*
X0206816Y0100703D01*
X0206330Y0100502D01*
X0205893Y0100209D01*
X0205521Y0099837D01*
X0205229Y0099400D01*
X0205028Y0098914D01*
X0204925Y0098398D01*
X0204925Y0098135D01*
X0204925Y0097872D01*
X0205028Y0097357D01*
X0205229Y0096871D01*
X0205521Y0096433D01*
X0205893Y0096061D01*
X0206330Y0095769D01*
X0205507Y0096455D02*
X0198568Y0096455D01*
X0197675Y0098054D02*
X0204925Y0098054D01*
X0204925Y0098135D02*
X0207595Y0098135D01*
X0207595Y0098135D01*
X0204925Y0098135D01*
X0205397Y0099652D02*
X0198609Y0099652D01*
X0199568Y0101251D02*
X0207880Y0101251D01*
X0207595Y0100805D02*
X0207595Y0098136D01*
X0207595Y0100805D01*
X0207595Y0099652D02*
X0207595Y0099652D01*
X0207595Y0098136D02*
X0207595Y0098136D01*
X0207595Y0098054D02*
X0207595Y0098054D01*
X0207595Y0096455D02*
X0207595Y0096455D01*
X0209684Y0096455D02*
X0246896Y0096455D01*
X0246694Y0096539D02*
X0247603Y0096162D01*
X0248587Y0096162D01*
X0249496Y0096539D01*
X0250192Y0097234D01*
X0250568Y0098143D01*
X0250568Y0099127D01*
X0250192Y0100036D01*
X0249496Y0100732D01*
X0248587Y0101109D01*
X0247603Y0101109D01*
X0246694Y0100732D01*
X0245998Y0100036D01*
X0245622Y0099127D01*
X0245622Y0098143D01*
X0245998Y0097234D01*
X0246694Y0096539D01*
X0245659Y0098054D02*
X0211511Y0098054D01*
X0212568Y0099652D02*
X0245839Y0099652D01*
X0250351Y0099652D02*
X0251839Y0099652D01*
X0251998Y0100036D02*
X0251622Y0099127D01*
X0251622Y0098143D01*
X0251998Y0097234D01*
X0252694Y0096539D01*
X0253603Y0096162D01*
X0254587Y0096162D01*
X0255496Y0096539D01*
X0256192Y0097234D01*
X0256568Y0098143D01*
X0256568Y0099127D01*
X0256192Y0100036D01*
X0255926Y0100302D01*
X0256496Y0100539D01*
X0257192Y0101234D01*
X0257568Y0102143D01*
X0257568Y0103127D01*
X0257192Y0104036D01*
X0256496Y0104732D01*
X0255587Y0105109D01*
X0254603Y0105109D01*
X0253694Y0104732D01*
X0252998Y0104036D01*
X0252622Y0103127D01*
X0252622Y0102143D01*
X0252998Y0101234D01*
X0253265Y0100968D01*
X0252694Y0100732D01*
X0251998Y0100036D01*
X0252992Y0101251D02*
X0230698Y0101251D01*
X0230692Y0101234D02*
X0231068Y0102143D01*
X0231068Y0103127D01*
X0230692Y0104036D01*
X0229996Y0104732D01*
X0229087Y0105109D01*
X0228103Y0105109D01*
X0227194Y0104732D01*
X0226498Y0104036D01*
X0226122Y0103127D01*
X0226122Y0102143D01*
X0226498Y0101234D01*
X0227194Y0100539D01*
X0228103Y0100162D01*
X0229087Y0100162D01*
X0229996Y0100539D01*
X0230692Y0101234D01*
X0231068Y0102849D02*
X0252622Y0102849D01*
X0253410Y0104448D02*
X0230281Y0104448D01*
X0226910Y0104448D02*
X0051414Y0104448D01*
X0051414Y0106046D02*
X0072687Y0106046D01*
X0072694Y0106039D02*
X0073603Y0105662D01*
X0074587Y0105662D01*
X0075496Y0106039D01*
X0076192Y0106734D01*
X0076568Y0107643D01*
X0076568Y0108627D01*
X0076192Y0109536D01*
X0075496Y0110232D01*
X0074587Y0110609D01*
X0073603Y0110609D01*
X0072694Y0110232D01*
X0071998Y0109536D01*
X0071622Y0108627D01*
X0071622Y0107643D01*
X0071998Y0106734D01*
X0072694Y0106039D01*
X0071622Y0107645D02*
X0051414Y0107645D01*
X0051414Y0109243D02*
X0071877Y0109243D01*
X0076313Y0109243D02*
X0192205Y0109243D01*
X0192205Y0108762D02*
X0192873Y0107148D01*
X0194108Y0105913D01*
X0195722Y0105245D01*
X0197468Y0105245D01*
X0199082Y0105913D01*
X0200317Y0107148D01*
X0200986Y0108762D01*
X0200986Y0110509D01*
X0200317Y0112122D01*
X0199082Y0113358D01*
X0197468Y0114026D01*
X0195722Y0114026D01*
X0194108Y0113358D01*
X0192873Y0112122D01*
X0192205Y0110509D01*
X0192205Y0108762D01*
X0192667Y0107645D02*
X0076568Y0107645D01*
X0075503Y0106046D02*
X0193975Y0106046D01*
X0194921Y0102849D02*
X0051414Y0102849D01*
X0051414Y0101251D02*
X0192739Y0101251D01*
X0191632Y0099652D02*
X0051414Y0099652D01*
X0051414Y0098054D02*
X0191866Y0098054D01*
X0193622Y0096455D02*
X0051414Y0096455D01*
X0051414Y0094857D02*
X0193948Y0094857D01*
X0194068Y0088462D02*
X0219048Y0088462D01*
X0219026Y0086864D02*
X0193745Y0086864D01*
X0194011Y0085265D02*
X0220339Y0085265D01*
X0221595Y0085265D02*
X0221595Y0085265D01*
X0222851Y0085265D02*
X0264179Y0085265D01*
X0264122Y0085127D02*
X0264122Y0084143D01*
X0264498Y0083234D01*
X0264847Y0082885D01*
X0264498Y0082536D01*
X0264122Y0081627D01*
X0264122Y0080643D01*
X0264498Y0079734D01*
X0265194Y0079039D01*
X0266103Y0078662D01*
X0267087Y0078662D01*
X0267996Y0079039D01*
X0268692Y0079734D01*
X0269068Y0080643D01*
X0269068Y0081627D01*
X0268692Y0082536D01*
X0268343Y0082885D01*
X0268692Y0083234D01*
X0269068Y0084143D01*
X0269068Y0085127D01*
X0268692Y0086036D01*
X0267996Y0086732D01*
X0267087Y0087109D01*
X0266103Y0087109D01*
X0265194Y0086732D01*
X0264498Y0086036D01*
X0264122Y0085127D01*
X0264319Y0083667D02*
X0193871Y0083667D01*
X0193886Y0082068D02*
X0204752Y0082068D01*
X0204893Y0082209D02*
X0204521Y0081838D01*
X0204229Y0081400D01*
X0204028Y0080914D01*
X0203925Y0080398D01*
X0203925Y0080135D01*
X0203925Y0079872D01*
X0204028Y0079357D01*
X0204229Y0078871D01*
X0204521Y0078433D01*
X0204893Y0078061D01*
X0205330Y0077769D01*
X0205816Y0077568D01*
X0206332Y0077465D01*
X0206595Y0077465D01*
X0206595Y0080135D01*
X0206595Y0080135D01*
X0206595Y0077465D01*
X0206858Y0077465D01*
X0207374Y0077568D01*
X0207860Y0077769D01*
X0208297Y0078061D01*
X0208669Y0078433D01*
X0208961Y0078871D01*
X0209163Y0079357D01*
X0209265Y0079872D01*
X0209265Y0080135D01*
X0206595Y0080135D01*
X0203925Y0080135D01*
X0206595Y0080135D01*
X0206595Y0080135D01*
X0206595Y0080135D01*
X0209265Y0080135D01*
X0209265Y0080398D01*
X0209163Y0080914D01*
X0208961Y0081400D01*
X0208669Y0081838D01*
X0208297Y0082209D01*
X0207860Y0082502D01*
X0207374Y0082703D01*
X0206858Y0082805D01*
X0206595Y0082805D01*
X0206332Y0082805D01*
X0205816Y0082703D01*
X0205330Y0082502D01*
X0204893Y0082209D01*
X0206595Y0082068D02*
X0206595Y0082068D01*
X0206595Y0082805D02*
X0206595Y0080136D01*
X0206595Y0080136D01*
X0206595Y0082805D01*
X0208438Y0082068D02*
X0212992Y0082068D01*
X0212830Y0082002D02*
X0212393Y0081709D01*
X0212021Y0081338D01*
X0211729Y0080900D01*
X0211528Y0080414D01*
X0211425Y0079898D01*
X0211425Y0079635D01*
X0211425Y0079372D01*
X0211528Y0078857D01*
X0211729Y0078371D01*
X0212021Y0077933D01*
X0212393Y0077561D01*
X0212830Y0077269D01*
X0213316Y0077068D01*
X0213832Y0076965D01*
X0214095Y0076965D01*
X0214095Y0079635D01*
X0214095Y0079635D01*
X0214095Y0076965D01*
X0214358Y0076965D01*
X0214874Y0077068D01*
X0215360Y0077269D01*
X0215797Y0077561D01*
X0216169Y0077933D01*
X0216461Y0078371D01*
X0216663Y0078857D01*
X0216765Y0079372D01*
X0216765Y0079635D01*
X0214095Y0079635D01*
X0211425Y0079635D01*
X0214095Y0079635D01*
X0214095Y0079635D01*
X0214095Y0079635D01*
X0216765Y0079635D01*
X0216765Y0079898D01*
X0216663Y0080414D01*
X0216461Y0080900D01*
X0216169Y0081338D01*
X0215797Y0081709D01*
X0215360Y0082002D01*
X0214874Y0082203D01*
X0214358Y0082305D01*
X0214095Y0082305D01*
X0213832Y0082305D01*
X0213316Y0082203D01*
X0212830Y0082002D01*
X0214095Y0082068D02*
X0214095Y0082068D01*
X0214095Y0082305D02*
X0214095Y0079636D01*
X0214095Y0079636D01*
X0214095Y0082305D01*
X0215199Y0082068D02*
X0264305Y0082068D01*
X0264194Y0080470D02*
X0232922Y0080470D01*
X0232587Y0080609D02*
X0231603Y0080609D01*
X0230694Y0080232D01*
X0229998Y0079536D01*
X0229622Y0078627D01*
X0229622Y0077643D01*
X0229998Y0076734D01*
X0230694Y0076039D01*
X0231603Y0075662D01*
X0232587Y0075662D01*
X0233496Y0076039D01*
X0234192Y0076734D01*
X0234568Y0077643D01*
X0234568Y0078627D01*
X0234192Y0079536D01*
X0233496Y0080232D01*
X0232587Y0080609D01*
X0231268Y0080470D02*
X0216640Y0080470D01*
X0216666Y0078871D02*
X0229723Y0078871D01*
X0229775Y0077273D02*
X0215365Y0077273D01*
X0214095Y0077273D02*
X0214095Y0077273D01*
X0212825Y0077273D02*
X0193801Y0077273D01*
X0194068Y0075674D02*
X0231574Y0075674D01*
X0232617Y0075674D02*
X0326059Y0075674D01*
X0325998Y0075734D02*
X0326694Y0075039D01*
X0327603Y0074662D01*
X0328587Y0074662D01*
X0329496Y0075039D01*
X0330192Y0075734D01*
X0330568Y0076643D01*
X0330568Y0077627D01*
X0330192Y0078536D01*
X0329719Y0079009D01*
X0329797Y0079061D01*
X0330169Y0079433D01*
X0330461Y0079871D01*
X0330663Y0080357D01*
X0330765Y0080872D01*
X0330765Y0081135D01*
X0328095Y0081135D01*
X0325425Y0081135D01*
X0325425Y0080872D01*
X0325528Y0080357D01*
X0325729Y0079871D01*
X0326021Y0079433D01*
X0326393Y0079061D01*
X0326471Y0079009D01*
X0325998Y0078536D01*
X0325622Y0077627D01*
X0325622Y0076643D01*
X0325998Y0075734D01*
X0325622Y0077273D02*
X0296730Y0077273D01*
X0296496Y0077039D02*
X0297192Y0077734D01*
X0297568Y0078643D01*
X0297568Y0079627D01*
X0297192Y0080536D01*
X0296496Y0081232D01*
X0295587Y0081609D01*
X0294603Y0081609D01*
X0293694Y0081232D01*
X0292998Y0080536D01*
X0292622Y0079627D01*
X0292622Y0078643D01*
X0292998Y0077734D01*
X0293694Y0077039D01*
X0294603Y0076662D01*
X0295587Y0076662D01*
X0296496Y0077039D01*
X0297568Y0078871D02*
X0326333Y0078871D01*
X0325505Y0080470D02*
X0297219Y0080470D01*
X0292971Y0080470D02*
X0268996Y0080470D01*
X0268886Y0082068D02*
X0325592Y0082068D01*
X0325528Y0081914D02*
X0325729Y0082400D01*
X0325981Y0082777D01*
X0325622Y0083643D01*
X0325622Y0084627D01*
X0325998Y0085536D01*
X0326694Y0086232D01*
X0327603Y0086609D01*
X0328587Y0086609D01*
X0329496Y0086232D01*
X0330192Y0085536D01*
X0330568Y0084627D01*
X0330568Y0083643D01*
X0330209Y0082777D01*
X0330461Y0082400D01*
X0330663Y0081914D01*
X0330765Y0081398D01*
X0330765Y0081135D01*
X0328095Y0081135D01*
X0328095Y0081135D01*
X0328095Y0081135D01*
X0325425Y0081135D01*
X0325425Y0081398D01*
X0325528Y0081914D01*
X0325622Y0083667D02*
X0268871Y0083667D01*
X0269011Y0085265D02*
X0325886Y0085265D01*
X0330304Y0085265D02*
X0350728Y0085265D01*
X0350498Y0085036D02*
X0350122Y0084127D01*
X0350122Y0083143D01*
X0350498Y0082234D01*
X0351194Y0081539D01*
X0352103Y0081162D01*
X0353087Y0081162D01*
X0353996Y0081539D01*
X0354692Y0082234D01*
X0355068Y0083143D01*
X0355068Y0084127D01*
X0354692Y0085036D01*
X0353996Y0085732D01*
X0353087Y0086109D01*
X0352103Y0086109D01*
X0351194Y0085732D01*
X0350498Y0085036D01*
X0350122Y0083667D02*
X0330568Y0083667D01*
X0330599Y0082068D02*
X0350664Y0082068D01*
X0354526Y0082068D02*
X0391863Y0082068D01*
X0392163Y0081342D02*
X0391547Y0082830D01*
X0391547Y0084441D01*
X0392163Y0085928D01*
X0392933Y0086698D01*
X0392847Y0086662D01*
X0391863Y0086662D01*
X0390954Y0087039D01*
X0390258Y0087734D01*
X0389882Y0088643D01*
X0389882Y0089627D01*
X0390258Y0090536D01*
X0390954Y0091232D01*
X0391863Y0091609D01*
X0392847Y0091609D01*
X0393756Y0091232D01*
X0394452Y0090536D01*
X0394828Y0089627D01*
X0394828Y0088643D01*
X0394452Y0087734D01*
X0394125Y0087408D01*
X0394790Y0087683D01*
X0396400Y0087683D01*
X0397888Y0087067D01*
X0399027Y0085928D01*
X0399643Y0084441D01*
X0399643Y0082830D01*
X0399027Y0081342D01*
X0397888Y0080204D01*
X0396400Y0079587D01*
X0394790Y0079587D01*
X0393302Y0080204D01*
X0392163Y0081342D01*
X0393036Y0080470D02*
X0330685Y0080470D01*
X0329857Y0078871D02*
X0382305Y0078871D01*
X0382664Y0079079D02*
X0381914Y0078645D01*
X0381226Y0078118D01*
X0380613Y0077505D01*
X0380085Y0076817D01*
X0379652Y0076066D01*
X0379320Y0075265D01*
X0379096Y0074428D01*
X0379031Y0073935D01*
X0384795Y0073935D01*
X0384795Y0072335D01*
X0386395Y0072335D01*
X0386395Y0066571D01*
X0386888Y0066636D01*
X0387725Y0066861D01*
X0388526Y0067192D01*
X0389277Y0067626D01*
X0389964Y0068153D01*
X0390577Y0068766D01*
X0391105Y0069454D01*
X0391538Y0070205D01*
X0391870Y0071005D01*
X0392094Y0071843D01*
X0392159Y0072335D01*
X0386395Y0072335D01*
X0386395Y0073935D01*
X0392159Y0073935D01*
X0392094Y0074428D01*
X0391870Y0075265D01*
X0391538Y0076066D01*
X0391105Y0076817D01*
X0390577Y0077505D01*
X0389964Y0078118D01*
X0389277Y0078645D01*
X0388526Y0079079D01*
X0387725Y0079410D01*
X0386888Y0079635D01*
X0386395Y0079700D01*
X0386395Y0073935D01*
X0384795Y0073935D01*
X0384795Y0079700D01*
X0384302Y0079635D01*
X0383465Y0079410D01*
X0382664Y0079079D01*
X0384795Y0078871D02*
X0386395Y0078871D01*
X0386395Y0077273D02*
X0384795Y0077273D01*
X0384795Y0075674D02*
X0386395Y0075674D01*
X0386395Y0074076D02*
X0384795Y0074076D01*
X0384795Y0072477D02*
X0284250Y0072477D01*
X0284265Y0072398D02*
X0284163Y0072914D01*
X0283961Y0073400D01*
X0283669Y0073838D01*
X0283297Y0074209D01*
X0282860Y0074502D01*
X0282374Y0074703D01*
X0281858Y0074805D01*
X0281595Y0074805D01*
X0281332Y0074805D01*
X0280816Y0074703D01*
X0280330Y0074502D01*
X0279893Y0074209D01*
X0279521Y0073838D01*
X0279229Y0073400D01*
X0279028Y0072914D01*
X0278925Y0072398D01*
X0278925Y0072135D01*
X0278925Y0071872D01*
X0279028Y0071357D01*
X0279229Y0070871D01*
X0279521Y0070433D01*
X0279893Y0070061D01*
X0280330Y0069769D01*
X0280816Y0069568D01*
X0281332Y0069465D01*
X0281595Y0069465D01*
X0281595Y0072135D01*
X0281595Y0072135D01*
X0281595Y0069465D01*
X0281858Y0069465D01*
X0282374Y0069568D01*
X0282860Y0069769D01*
X0283297Y0070061D01*
X0283669Y0070433D01*
X0283961Y0070871D01*
X0284163Y0071357D01*
X0284265Y0071872D01*
X0284265Y0072135D01*
X0281595Y0072135D01*
X0278925Y0072135D01*
X0281595Y0072135D01*
X0281595Y0072135D01*
X0281595Y0072135D01*
X0284265Y0072135D01*
X0284265Y0072398D01*
X0283965Y0070879D02*
X0326341Y0070879D01*
X0325998Y0070536D02*
X0326694Y0071232D01*
X0327603Y0071609D01*
X0328587Y0071609D01*
X0329496Y0071232D01*
X0330192Y0070536D01*
X0330568Y0069627D01*
X0330568Y0068643D01*
X0330192Y0067734D01*
X0329496Y0067039D01*
X0328587Y0066662D01*
X0327603Y0066662D01*
X0326694Y0067039D01*
X0325998Y0067734D01*
X0325622Y0068643D01*
X0325622Y0069627D01*
X0325998Y0070536D01*
X0325622Y0069280D02*
X0267372Y0069280D01*
X0267435Y0067682D02*
X0284852Y0067682D01*
X0284998Y0068036D02*
X0284622Y0067127D01*
X0284622Y0066143D01*
X0284998Y0065234D01*
X0285694Y0064539D01*
X0286603Y0064162D01*
X0287587Y0064162D01*
X0288496Y0064539D01*
X0289192Y0065234D01*
X0289568Y0066143D01*
X0289568Y0067127D01*
X0289192Y0068036D01*
X0288496Y0068732D01*
X0287587Y0069109D01*
X0286603Y0069109D01*
X0285694Y0068732D01*
X0284998Y0068036D01*
X0284647Y0066083D02*
X0268804Y0066083D01*
X0268678Y0064485D02*
X0285824Y0064485D01*
X0288366Y0064485D02*
X0388205Y0064485D01*
X0388205Y0064605D02*
X0388205Y0061665D01*
X0389330Y0058949D01*
X0391409Y0056870D01*
X0394125Y0055745D01*
X0397065Y0055745D01*
X0399781Y0056870D01*
X0401860Y0058949D01*
X0402985Y0061665D01*
X0402985Y0064605D01*
X0401860Y0067322D01*
X0399781Y0069401D01*
X0397065Y0070526D01*
X0394125Y0070526D01*
X0391409Y0069401D01*
X0389330Y0067322D01*
X0388205Y0064605D01*
X0388817Y0066083D02*
X0289543Y0066083D01*
X0289339Y0067682D02*
X0326051Y0067682D01*
X0330139Y0067682D02*
X0362773Y0067682D01*
X0362893Y0067561D02*
X0363330Y0067269D01*
X0363816Y0067068D01*
X0364332Y0066965D01*
X0364595Y0066965D01*
X0364595Y0069635D01*
X0364595Y0069635D01*
X0364595Y0066965D01*
X0364858Y0066965D01*
X0365374Y0067068D01*
X0365860Y0067269D01*
X0366297Y0067561D01*
X0366669Y0067933D01*
X0366961Y0068371D01*
X0367163Y0068857D01*
X0367265Y0069372D01*
X0367265Y0069635D01*
X0364595Y0069635D01*
X0361925Y0069635D01*
X0361925Y0069372D01*
X0362028Y0068857D01*
X0362229Y0068371D01*
X0362521Y0067933D01*
X0362893Y0067561D01*
X0364595Y0067682D02*
X0364595Y0067682D01*
X0364595Y0069280D02*
X0364595Y0069280D01*
X0364595Y0069635D02*
X0364595Y0069635D01*
X0364595Y0069635D01*
X0361925Y0069635D01*
X0361925Y0069898D01*
X0362028Y0070414D01*
X0362229Y0070900D01*
X0362521Y0071338D01*
X0362893Y0071709D01*
X0363330Y0072002D01*
X0363816Y0072203D01*
X0364332Y0072305D01*
X0364595Y0072305D01*
X0364595Y0069636D01*
X0364595Y0069636D01*
X0364595Y0072305D01*
X0364858Y0072305D01*
X0365374Y0072203D01*
X0365860Y0072002D01*
X0366297Y0071709D01*
X0366669Y0071338D01*
X0366961Y0070900D01*
X0367163Y0070414D01*
X0367265Y0069898D01*
X0367265Y0069635D01*
X0364595Y0069635D01*
X0364595Y0070879D02*
X0364595Y0070879D01*
X0362220Y0070879D02*
X0329849Y0070879D01*
X0330568Y0069280D02*
X0361943Y0069280D01*
X0366418Y0067682D02*
X0381840Y0067682D01*
X0381914Y0067626D02*
X0382664Y0067192D01*
X0383465Y0066861D01*
X0384302Y0066636D01*
X0384795Y0066571D01*
X0384795Y0072335D01*
X0379031Y0072335D01*
X0379096Y0071843D01*
X0379320Y0071005D01*
X0379652Y0070205D01*
X0380085Y0069454D01*
X0380613Y0068766D01*
X0381226Y0068153D01*
X0381914Y0067626D01*
X0380218Y0069280D02*
X0367247Y0069280D01*
X0366970Y0070879D02*
X0379373Y0070879D01*
X0379049Y0074076D02*
X0283431Y0074076D01*
X0281595Y0074076D02*
X0281595Y0074076D01*
X0281595Y0074805D02*
X0281595Y0072136D01*
X0281595Y0072136D01*
X0281595Y0074805D01*
X0279760Y0074076D02*
X0267166Y0074076D01*
X0266024Y0074076D02*
X0203166Y0074076D01*
X0202024Y0074076D02*
X0193652Y0074076D01*
X0194068Y0072477D02*
X0200267Y0072477D01*
X0200232Y0070879D02*
X0193336Y0070879D01*
X0189389Y0077273D02*
X0084245Y0077273D01*
X0083973Y0078871D02*
X0190598Y0078871D01*
X0192592Y0078871D02*
X0204229Y0078871D01*
X0203939Y0080470D02*
X0193996Y0080470D01*
X0206595Y0080470D02*
X0206595Y0080470D01*
X0206595Y0078871D02*
X0206595Y0078871D01*
X0208962Y0078871D02*
X0211525Y0078871D01*
X0211551Y0080470D02*
X0209251Y0080470D01*
X0214095Y0080470D02*
X0214095Y0080470D01*
X0214095Y0078871D02*
X0214095Y0078871D01*
X0221595Y0086864D02*
X0221595Y0086864D01*
X0221595Y0088462D02*
X0221595Y0088462D01*
X0224143Y0088462D02*
X0264404Y0088462D01*
X0265512Y0086864D02*
X0224164Y0086864D01*
X0234467Y0078871D02*
X0265598Y0078871D01*
X0267592Y0078871D02*
X0292622Y0078871D01*
X0293460Y0077273D02*
X0234415Y0077273D01*
X0234895Y0069280D02*
X0235295Y0069280D01*
X0235295Y0067682D02*
X0234895Y0067682D01*
X0234895Y0066083D02*
X0235295Y0066083D01*
X0235295Y0064485D02*
X0234895Y0064485D01*
X0234895Y0062886D02*
X0235295Y0062886D01*
X0237739Y0062886D02*
X0243593Y0062886D01*
X0243054Y0064485D02*
X0239148Y0064485D01*
X0239652Y0066083D02*
X0243101Y0066083D01*
X0243775Y0067682D02*
X0239574Y0067682D01*
X0238844Y0069280D02*
X0245625Y0069280D01*
X0247395Y0069280D02*
X0247795Y0069280D01*
X0247795Y0067682D02*
X0247395Y0067682D01*
X0247395Y0066083D02*
X0247795Y0066083D01*
X0247795Y0064485D02*
X0247395Y0064485D01*
X0247395Y0062886D02*
X0247795Y0062886D01*
X0247795Y0061288D02*
X0247395Y0061288D01*
X0250104Y0061288D02*
X0255411Y0061288D01*
X0255108Y0061413D02*
X0256722Y0060745D01*
X0258468Y0060745D01*
X0260082Y0061413D01*
X0261317Y0062648D01*
X0261986Y0064262D01*
X0261986Y0066009D01*
X0261317Y0067622D01*
X0260082Y0068858D01*
X0258468Y0069526D01*
X0256722Y0069526D01*
X0255108Y0068858D01*
X0253873Y0067622D01*
X0253205Y0066009D01*
X0253205Y0064262D01*
X0253873Y0062648D01*
X0255108Y0061413D01*
X0253774Y0062886D02*
X0251598Y0062886D01*
X0252137Y0064485D02*
X0253205Y0064485D01*
X0253235Y0066083D02*
X0252090Y0066083D01*
X0251415Y0067682D02*
X0253932Y0067682D01*
X0256129Y0069280D02*
X0249565Y0069280D01*
X0259061Y0069280D02*
X0262392Y0069280D01*
X0262122Y0067682D02*
X0261258Y0067682D01*
X0261955Y0066083D02*
X0263150Y0066083D01*
X0264112Y0064485D02*
X0261986Y0064485D01*
X0261416Y0062886D02*
X0388205Y0062886D01*
X0388361Y0061288D02*
X0259779Y0061288D01*
X0258468Y0059526D02*
X0256722Y0059526D01*
X0255108Y0058858D01*
X0253873Y0057622D01*
X0253205Y0056009D01*
X0253205Y0054262D01*
X0253873Y0052648D01*
X0255108Y0051413D01*
X0256722Y0050745D01*
X0258468Y0050745D01*
X0260082Y0051413D01*
X0261317Y0052648D01*
X0261986Y0054262D01*
X0261986Y0056009D01*
X0261317Y0057622D01*
X0260082Y0058858D01*
X0258468Y0059526D01*
X0260849Y0058091D02*
X0325622Y0058091D01*
X0325622Y0058127D02*
X0325622Y0057143D01*
X0325998Y0056234D01*
X0326694Y0055539D01*
X0327603Y0055162D01*
X0328587Y0055162D01*
X0329496Y0055539D01*
X0330192Y0056234D01*
X0330568Y0057143D01*
X0330568Y0058127D01*
X0330192Y0059036D01*
X0329496Y0059732D01*
X0328587Y0060109D01*
X0327603Y0060109D01*
X0326694Y0059732D01*
X0325998Y0059036D01*
X0325622Y0058127D01*
X0325892Y0056492D02*
X0261785Y0056492D01*
X0261986Y0054894D02*
X0274577Y0054894D01*
X0274521Y0054837D02*
X0274229Y0054400D01*
X0274028Y0053914D01*
X0273925Y0053398D01*
X0273925Y0053135D01*
X0276595Y0053135D01*
X0279265Y0053135D01*
X0279265Y0053398D01*
X0279163Y0053914D01*
X0278961Y0054400D01*
X0278669Y0054837D01*
X0278297Y0055209D01*
X0277860Y0055502D01*
X0277374Y0055703D01*
X0276858Y0055805D01*
X0276595Y0055805D01*
X0276332Y0055805D01*
X0275816Y0055703D01*
X0275330Y0055502D01*
X0274893Y0055209D01*
X0274521Y0054837D01*
X0273925Y0053295D02*
X0261585Y0053295D01*
X0260366Y0051697D02*
X0274345Y0051697D01*
X0276595Y0053136D02*
X0276595Y0055805D01*
X0276595Y0053136D01*
X0276595Y0053136D01*
X0276595Y0053295D02*
X0276595Y0053295D01*
X0276595Y0054894D02*
X0276595Y0054894D01*
X0278613Y0054894D02*
X0327584Y0054894D01*
X0327194Y0054732D02*
X0328103Y0055109D01*
X0329087Y0055109D01*
X0329996Y0054732D01*
X0330692Y0054036D01*
X0331068Y0053127D01*
X0331068Y0052143D01*
X0330709Y0051277D01*
X0330961Y0050900D01*
X0331163Y0050414D01*
X0331265Y0049898D01*
X0331265Y0049635D01*
X0328595Y0049635D01*
X0328595Y0049635D01*
X0328595Y0046965D01*
X0328332Y0046965D01*
X0327816Y0047068D01*
X0327330Y0047269D01*
X0326893Y0047561D01*
X0326521Y0047933D01*
X0326229Y0048371D01*
X0326028Y0048857D01*
X0325925Y0049372D01*
X0325925Y0049635D01*
X0328595Y0049635D01*
X0328595Y0046965D01*
X0328858Y0046965D01*
X0329374Y0047068D01*
X0329860Y0047269D01*
X0330297Y0047561D01*
X0330669Y0047933D01*
X0330961Y0048371D01*
X0331163Y0048857D01*
X0331265Y0049372D01*
X0331265Y0049635D01*
X0328595Y0049635D01*
X0328595Y0049635D01*
X0328595Y0049635D01*
X0325925Y0049635D01*
X0325925Y0049898D01*
X0326028Y0050414D01*
X0326229Y0050900D01*
X0326481Y0051277D01*
X0326122Y0052143D01*
X0326122Y0053127D01*
X0326498Y0054036D01*
X0327194Y0054732D01*
X0326191Y0053295D02*
X0279265Y0053295D01*
X0278845Y0051697D02*
X0326307Y0051697D01*
X0325965Y0050098D02*
X0279068Y0050098D01*
X0278802Y0048500D02*
X0326175Y0048500D01*
X0328595Y0048500D02*
X0328595Y0048500D01*
X0331015Y0048500D02*
X0336733Y0048500D01*
X0336498Y0048734D02*
X0337194Y0048039D01*
X0338103Y0047662D01*
X0339087Y0047662D01*
X0339996Y0048039D01*
X0340692Y0048734D01*
X0341068Y0049643D01*
X0341068Y0050162D01*
X0341587Y0050162D01*
X0342496Y0050539D01*
X0343192Y0051234D01*
X0343568Y0052143D01*
X0343568Y0053127D01*
X0343192Y0054036D01*
X0342496Y0054732D01*
X0341587Y0055109D01*
X0340603Y0055109D01*
X0339694Y0054732D01*
X0338998Y0054036D01*
X0338622Y0053127D01*
X0338622Y0052609D01*
X0338103Y0052609D01*
X0337194Y0052232D01*
X0336498Y0051536D01*
X0336122Y0050627D01*
X0336122Y0049643D01*
X0336498Y0048734D01*
X0336122Y0050098D02*
X0331225Y0050098D01*
X0330883Y0051697D02*
X0336659Y0051697D01*
X0338691Y0053295D02*
X0330999Y0053295D01*
X0329606Y0054894D02*
X0340084Y0054894D01*
X0342106Y0054894D02*
X0358122Y0054894D01*
X0358122Y0055127D02*
X0358122Y0054143D01*
X0358498Y0053234D01*
X0359194Y0052539D01*
X0360103Y0052162D01*
X0361087Y0052162D01*
X0361996Y0052539D01*
X0362692Y0053234D01*
X0363068Y0054143D01*
X0363068Y0055127D01*
X0362692Y0056036D01*
X0362093Y0056635D01*
X0362692Y0057234D01*
X0363068Y0058143D01*
X0363068Y0059127D01*
X0362692Y0060036D01*
X0361996Y0060732D01*
X0361087Y0061109D01*
X0360103Y0061109D01*
X0359194Y0060732D01*
X0358498Y0060036D01*
X0358122Y0059127D01*
X0358122Y0058143D01*
X0358498Y0057234D01*
X0359097Y0056635D01*
X0358498Y0056036D01*
X0358122Y0055127D01*
X0358954Y0056492D02*
X0330299Y0056492D01*
X0330568Y0058091D02*
X0358144Y0058091D01*
X0358355Y0059689D02*
X0329539Y0059689D01*
X0326651Y0059689D02*
X0238250Y0059689D01*
X0250849Y0058091D02*
X0254341Y0058091D01*
X0253405Y0056492D02*
X0251785Y0056492D01*
X0251986Y0054894D02*
X0253205Y0054894D01*
X0253605Y0053295D02*
X0251585Y0053295D01*
X0250366Y0051697D02*
X0254825Y0051697D01*
X0254750Y0048500D02*
X0250440Y0048500D01*
X0250082Y0048858D02*
X0248468Y0049526D01*
X0246722Y0049526D01*
X0245108Y0048858D01*
X0243873Y0047622D01*
X0243205Y0046009D01*
X0243205Y0044262D01*
X0243873Y0042648D01*
X0245108Y0041413D01*
X0246722Y0040745D01*
X0248468Y0040745D01*
X0250082Y0041413D01*
X0251317Y0042648D01*
X0251986Y0044262D01*
X0251986Y0046009D01*
X0251317Y0047622D01*
X0250082Y0048858D01*
X0251616Y0046901D02*
X0253574Y0046901D01*
X0253205Y0045303D02*
X0251986Y0045303D01*
X0251755Y0043704D02*
X0253436Y0043704D01*
X0254416Y0042106D02*
X0250775Y0042106D01*
X0249959Y0038909D02*
X0255231Y0038909D01*
X0253744Y0037310D02*
X0251447Y0037310D01*
X0251317Y0037622D02*
X0250082Y0038858D01*
X0248468Y0039526D01*
X0246722Y0039526D01*
X0245108Y0038858D01*
X0243873Y0037622D01*
X0243205Y0036009D01*
X0243205Y0034262D01*
X0243873Y0032648D01*
X0245108Y0031413D01*
X0246722Y0030745D01*
X0248468Y0030745D01*
X0250082Y0031413D01*
X0251317Y0032648D01*
X0251986Y0034262D01*
X0251986Y0036009D01*
X0251317Y0037622D01*
X0251986Y0035712D02*
X0253205Y0035712D01*
X0253266Y0034113D02*
X0251924Y0034113D01*
X0251183Y0032515D02*
X0254007Y0032515D01*
X0256308Y0030916D02*
X0248882Y0030916D01*
X0248669Y0029610D02*
X0247956Y0029723D01*
X0247795Y0029723D01*
X0247795Y0025336D01*
X0247395Y0025336D01*
X0247395Y0029723D01*
X0247234Y0029723D01*
X0246521Y0029610D01*
X0245834Y0029387D01*
X0245191Y0029059D01*
X0244607Y0028634D01*
X0244096Y0028124D01*
X0243672Y0027540D01*
X0243344Y0026896D01*
X0243121Y0026210D01*
X0243008Y0025496D01*
X0243008Y0025335D01*
X0247395Y0025335D01*
X0247395Y0024935D01*
X0247795Y0024935D01*
X0247795Y0020548D01*
X0247956Y0020548D01*
X0248669Y0020661D01*
X0249356Y0020884D01*
X0249999Y0021212D01*
X0250584Y0021636D01*
X0251094Y0022147D01*
X0251519Y0022731D01*
X0251846Y0023374D01*
X0252070Y0024061D01*
X0252183Y0024774D01*
X0252183Y0024935D01*
X0247795Y0024935D01*
X0247795Y0025335D01*
X0252183Y0025335D01*
X0252183Y0025496D01*
X0252070Y0026210D01*
X0251846Y0026896D01*
X0251519Y0027540D01*
X0251094Y0028124D01*
X0250584Y0028634D01*
X0249999Y0029059D01*
X0249356Y0029387D01*
X0248669Y0029610D01*
X0249492Y0029318D02*
X0256219Y0029318D01*
X0253970Y0027719D02*
X0251388Y0027719D01*
X0252084Y0026121D02*
X0253251Y0026121D01*
X0253205Y0024522D02*
X0252143Y0024522D01*
X0251617Y0022924D02*
X0253759Y0022924D01*
X0255321Y0021325D02*
X0250155Y0021325D01*
X0247795Y0021325D02*
X0247395Y0021325D01*
X0247395Y0020548D02*
X0247395Y0024935D01*
X0243008Y0024935D01*
X0243008Y0024774D01*
X0243121Y0024061D01*
X0243344Y0023374D01*
X0243672Y0022731D01*
X0244096Y0022147D01*
X0244607Y0021636D01*
X0245191Y0021212D01*
X0245834Y0020884D01*
X0246521Y0020661D01*
X0247234Y0020548D01*
X0247395Y0020548D01*
X0247395Y0022924D02*
X0247795Y0022924D01*
X0247795Y0024522D02*
X0247395Y0024522D01*
X0247395Y0026121D02*
X0247795Y0026121D01*
X0247795Y0027719D02*
X0247395Y0027719D01*
X0247395Y0029318D02*
X0247795Y0029318D01*
X0245698Y0029318D02*
X0232492Y0029318D01*
X0230795Y0029318D02*
X0230395Y0029318D01*
X0230395Y0027719D02*
X0230795Y0027719D01*
X0230795Y0026121D02*
X0230395Y0026121D01*
X0230395Y0024522D02*
X0230795Y0024522D01*
X0230795Y0022924D02*
X0230395Y0022924D01*
X0230395Y0021325D02*
X0230795Y0021325D01*
X0233155Y0021325D02*
X0245035Y0021325D01*
X0243574Y0022924D02*
X0234617Y0022924D01*
X0235143Y0024522D02*
X0243048Y0024522D01*
X0243107Y0026121D02*
X0235084Y0026121D01*
X0234388Y0027719D02*
X0243802Y0027719D01*
X0246308Y0030916D02*
X0231882Y0030916D01*
X0234183Y0032515D02*
X0244007Y0032515D01*
X0243266Y0034113D02*
X0234924Y0034113D01*
X0234986Y0035712D02*
X0243205Y0035712D01*
X0243744Y0037310D02*
X0234447Y0037310D01*
X0232959Y0038909D02*
X0245231Y0038909D01*
X0244416Y0042106D02*
X0233775Y0042106D01*
X0234755Y0043704D02*
X0243436Y0043704D01*
X0243205Y0045303D02*
X0240760Y0045303D01*
X0240496Y0045039D02*
X0241192Y0045734D01*
X0241568Y0046643D01*
X0241568Y0047627D01*
X0241192Y0048536D01*
X0240496Y0049232D01*
X0239587Y0049609D01*
X0238603Y0049609D01*
X0237694Y0049232D01*
X0236998Y0048536D01*
X0236622Y0047627D01*
X0236622Y0046643D01*
X0236998Y0045734D01*
X0237694Y0045039D01*
X0238603Y0044662D01*
X0239587Y0044662D01*
X0240496Y0045039D01*
X0241568Y0046901D02*
X0243574Y0046901D01*
X0244750Y0048500D02*
X0241207Y0048500D01*
X0236983Y0048500D02*
X0233440Y0048500D01*
X0234616Y0046901D02*
X0236622Y0046901D01*
X0237430Y0045303D02*
X0234986Y0045303D01*
X0227416Y0042106D02*
X0224053Y0042106D01*
X0224954Y0043704D02*
X0226436Y0043704D01*
X0217137Y0042106D02*
X0182568Y0042106D01*
X0182568Y0042127D02*
X0182192Y0043036D01*
X0181496Y0043732D01*
X0180587Y0044109D01*
X0179603Y0044109D01*
X0178694Y0043732D01*
X0177998Y0043036D01*
X0177622Y0042127D01*
X0177622Y0041143D01*
X0177998Y0040234D01*
X0178694Y0039539D01*
X0179603Y0039162D01*
X0180587Y0039162D01*
X0181496Y0039539D01*
X0182192Y0040234D01*
X0182568Y0041143D01*
X0182568Y0042127D01*
X0182305Y0040507D02*
X0381472Y0040507D01*
X0383595Y0040507D02*
X0383595Y0040507D01*
X0383595Y0042106D02*
X0383595Y0042106D01*
X0383595Y0042136D02*
X0383595Y0044805D01*
X0383595Y0042136D01*
X0383595Y0042136D01*
X0383595Y0043704D02*
X0383595Y0043704D01*
X0385758Y0043704D02*
X0404959Y0043704D01*
X0405189Y0045303D02*
X0371987Y0045303D01*
X0373258Y0046901D02*
X0383367Y0046901D01*
X0383465Y0046861D02*
X0384302Y0046636D01*
X0384795Y0046571D01*
X0384795Y0052335D01*
X0386395Y0052335D01*
X0386395Y0046571D01*
X0386888Y0046636D01*
X0387725Y0046861D01*
X0388526Y0047192D01*
X0389277Y0047626D01*
X0389964Y0048153D01*
X0390577Y0048766D01*
X0391105Y0049454D01*
X0391538Y0050205D01*
X0391870Y0051005D01*
X0392094Y0051843D01*
X0392159Y0052335D01*
X0386395Y0052335D01*
X0386395Y0053935D01*
X0392159Y0053935D01*
X0392094Y0054428D01*
X0391870Y0055265D01*
X0391538Y0056066D01*
X0391105Y0056817D01*
X0390577Y0057505D01*
X0389964Y0058118D01*
X0389277Y0058645D01*
X0388526Y0059079D01*
X0387725Y0059410D01*
X0386888Y0059635D01*
X0386395Y0059700D01*
X0386395Y0053935D01*
X0384795Y0053935D01*
X0384795Y0052335D01*
X0379031Y0052335D01*
X0379096Y0051843D01*
X0379320Y0051005D01*
X0379652Y0050205D01*
X0380085Y0049454D01*
X0380613Y0048766D01*
X0381226Y0048153D01*
X0381914Y0047626D01*
X0382664Y0047192D01*
X0383465Y0046861D01*
X0384795Y0046901D02*
X0386395Y0046901D01*
X0387823Y0046901D02*
X0403367Y0046901D01*
X0403465Y0046861D02*
X0404302Y0046636D01*
X0404795Y0046571D01*
X0404795Y0052335D01*
X0399031Y0052335D01*
X0399096Y0051843D01*
X0399320Y0051005D01*
X0399652Y0050205D01*
X0400085Y0049454D01*
X0400613Y0048766D01*
X0401226Y0048153D01*
X0401914Y0047626D01*
X0402664Y0047192D01*
X0403465Y0046861D01*
X0404795Y0046901D02*
X0406395Y0046901D01*
X0407595Y0046805D02*
X0407595Y0044136D01*
X0407595Y0044136D01*
X0407595Y0046805D01*
X0407823Y0046901D02*
X0410732Y0046901D01*
X0410732Y0045303D02*
X0410002Y0045303D01*
X0410232Y0043704D02*
X0410732Y0043704D01*
X0410732Y0042106D02*
X0409341Y0042106D01*
X0407595Y0042106D02*
X0407595Y0042106D01*
X0407595Y0043704D02*
X0407595Y0043704D01*
X0407595Y0045303D02*
X0407595Y0045303D01*
X0405849Y0042106D02*
X0386265Y0042106D01*
X0385718Y0040507D02*
X0410732Y0040507D01*
X0410732Y0038909D02*
X0359456Y0038909D01*
X0359753Y0037310D02*
X0410732Y0037310D01*
X0410732Y0035712D02*
X0358947Y0035712D01*
X0357095Y0035712D02*
X0357095Y0035712D01*
X0357095Y0037310D02*
X0357095Y0037310D01*
X0357095Y0037636D02*
X0357095Y0040305D01*
X0357095Y0037636D01*
X0357095Y0037636D01*
X0357095Y0038909D02*
X0357095Y0038909D01*
X0355243Y0035712D02*
X0332017Y0035712D01*
X0333068Y0034113D02*
X0396620Y0034113D01*
X0398570Y0034113D02*
X0410732Y0034113D01*
X0410732Y0032515D02*
X0400941Y0032515D01*
X0401643Y0030916D02*
X0410732Y0030916D01*
X0410732Y0029318D02*
X0401638Y0029318D01*
X0400904Y0027719D02*
X0410732Y0027719D01*
X0410732Y0026121D02*
X0398480Y0026121D01*
X0394250Y0032515D02*
X0332808Y0032515D01*
X0321701Y0029318D02*
X0319411Y0029318D01*
X0320068Y0027719D02*
X0321798Y0027719D01*
X0319578Y0026121D02*
X0345341Y0026121D01*
X0346484Y0024522D02*
X0337811Y0024522D01*
X0336595Y0024522D02*
X0336595Y0024522D01*
X0336595Y0024805D02*
X0336595Y0022136D01*
X0336595Y0022136D01*
X0336595Y0024805D01*
X0336595Y0022924D02*
X0336595Y0022924D01*
X0336595Y0021325D02*
X0336595Y0021325D01*
X0339150Y0021325D02*
X0350681Y0021325D01*
X0349423Y0022924D02*
X0339159Y0022924D01*
X0325506Y0019727D02*
X0324896Y0019727D01*
X0320295Y0019727D02*
X0318109Y0019727D01*
X0318180Y0021325D02*
X0320204Y0021325D01*
X0315595Y0021325D02*
X0315595Y0021325D01*
X0315595Y0019727D02*
X0315595Y0019727D01*
X0315595Y0018128D02*
X0315595Y0018128D01*
X0314671Y0018128D02*
X0167085Y0018128D01*
X0164105Y0018128D02*
X0164068Y0018128D01*
X0163487Y0016529D02*
X0385075Y0016529D01*
X0385028Y0016414D02*
X0385229Y0016900D01*
X0385521Y0017338D01*
X0385893Y0017709D01*
X0386330Y0018002D01*
X0386816Y0018203D01*
X0387332Y0018305D01*
X0387595Y0018305D01*
X0387595Y0015636D01*
X0387595Y0015636D01*
X0387595Y0018305D01*
X0387858Y0018305D01*
X0388374Y0018203D01*
X0388860Y0018002D01*
X0389297Y0017709D01*
X0389669Y0017338D01*
X0389961Y0016900D01*
X0390163Y0016414D01*
X0390265Y0015898D01*
X0390265Y0015635D01*
X0387595Y0015635D01*
X0387595Y0015635D01*
X0387595Y0012965D01*
X0387332Y0012965D01*
X0386816Y0013068D01*
X0386330Y0013269D01*
X0385893Y0013561D01*
X0385521Y0013933D01*
X0385229Y0014371D01*
X0385028Y0014857D01*
X0384925Y0015372D01*
X0384925Y0015635D01*
X0387595Y0015635D01*
X0387595Y0012965D01*
X0387858Y0012965D01*
X0388374Y0013068D01*
X0388860Y0013269D01*
X0389297Y0013561D01*
X0389669Y0013933D01*
X0389961Y0014371D01*
X0390163Y0014857D01*
X0390265Y0015372D01*
X0390265Y0015635D01*
X0387595Y0015635D01*
X0387595Y0015635D01*
X0387595Y0015635D01*
X0384925Y0015635D01*
X0384925Y0015898D01*
X0385028Y0016414D01*
X0385013Y0014931D02*
X0163943Y0014931D01*
X0163940Y0013332D02*
X0386236Y0013332D01*
X0387595Y0013332D02*
X0387595Y0013332D01*
X0388954Y0013332D02*
X0406236Y0013332D01*
X0406330Y0013269D02*
X0406816Y0013068D01*
X0407332Y0012965D01*
X0407595Y0012965D01*
X0407595Y0015635D01*
X0407595Y0015635D01*
X0407595Y0012965D01*
X0407858Y0012965D01*
X0408374Y0013068D01*
X0408860Y0013269D01*
X0409297Y0013561D01*
X0409669Y0013933D01*
X0409961Y0014371D01*
X0410163Y0014857D01*
X0410265Y0015372D01*
X0410265Y0015635D01*
X0407595Y0015635D01*
X0404925Y0015635D01*
X0404925Y0015372D01*
X0405028Y0014857D01*
X0405229Y0014371D01*
X0405521Y0013933D01*
X0405893Y0013561D01*
X0406330Y0013269D01*
X0407595Y0013332D02*
X0407595Y0013332D01*
X0408954Y0013332D02*
X0410732Y0013332D01*
X0410732Y0014931D02*
X0410177Y0014931D01*
X0410265Y0015635D02*
X0410265Y0015898D01*
X0410163Y0016414D01*
X0409961Y0016900D01*
X0409669Y0017338D01*
X0409297Y0017709D01*
X0408860Y0018002D01*
X0408374Y0018203D01*
X0407858Y0018305D01*
X0407595Y0018305D01*
X0407332Y0018305D01*
X0406816Y0018203D01*
X0406330Y0018002D01*
X0405893Y0017709D01*
X0405521Y0017338D01*
X0405229Y0016900D01*
X0405028Y0016414D01*
X0404925Y0015898D01*
X0404925Y0015635D01*
X0407595Y0015635D01*
X0407595Y0015635D01*
X0407595Y0015635D01*
X0410265Y0015635D01*
X0410115Y0016529D02*
X0410732Y0016529D01*
X0410732Y0018128D02*
X0408555Y0018128D01*
X0407595Y0018128D02*
X0407595Y0018128D01*
X0407595Y0018305D02*
X0407595Y0015636D01*
X0407595Y0015636D01*
X0407595Y0018305D01*
X0406635Y0018128D02*
X0388555Y0018128D01*
X0387595Y0018128D02*
X0387595Y0018128D01*
X0386635Y0018128D02*
X0316519Y0018128D01*
X0315612Y0026121D02*
X0288078Y0026121D01*
X0281568Y0032515D02*
X0319218Y0032515D01*
X0318622Y0034113D02*
X0280615Y0034113D01*
X0277575Y0034113D02*
X0261924Y0034113D01*
X0261183Y0032515D02*
X0276622Y0032515D01*
X0276923Y0030916D02*
X0258882Y0030916D01*
X0261755Y0043704D02*
X0278304Y0043704D01*
X0278195Y0045303D02*
X0266720Y0045303D01*
X0262470Y0045303D02*
X0261986Y0045303D01*
X0262122Y0046901D02*
X0261616Y0046901D01*
X0260440Y0048500D02*
X0262962Y0048500D01*
X0222122Y0030916D02*
X0221882Y0030916D01*
X0221972Y0029318D02*
X0222464Y0029318D01*
X0219219Y0029318D02*
X0187433Y0029318D01*
X0187568Y0029643D02*
X0187192Y0028734D01*
X0186496Y0028039D01*
X0185587Y0027662D01*
X0184603Y0027662D01*
X0183694Y0028039D01*
X0182998Y0028734D01*
X0182622Y0029643D01*
X0182622Y0030627D01*
X0182998Y0031536D01*
X0183694Y0032232D01*
X0184603Y0032609D01*
X0185587Y0032609D01*
X0186496Y0032232D01*
X0187192Y0031536D01*
X0187568Y0030627D01*
X0187568Y0029643D01*
X0187449Y0030916D02*
X0189490Y0030916D01*
X0189194Y0031039D02*
X0190103Y0030662D01*
X0191087Y0030662D01*
X0191996Y0031039D01*
X0192692Y0031734D01*
X0193068Y0032643D01*
X0193068Y0033627D01*
X0192692Y0034536D01*
X0191996Y0035232D01*
X0191087Y0035609D01*
X0190103Y0035609D01*
X0189194Y0035232D01*
X0188498Y0034536D01*
X0188122Y0033627D01*
X0188122Y0032643D01*
X0188498Y0031734D01*
X0189194Y0031039D01*
X0188175Y0032515D02*
X0185814Y0032515D01*
X0185603Y0033162D02*
X0186587Y0033162D01*
X0187496Y0033539D01*
X0188192Y0034234D01*
X0188568Y0035143D01*
X0188568Y0036127D01*
X0188192Y0037036D01*
X0187496Y0037732D01*
X0186587Y0038109D01*
X0185603Y0038109D01*
X0184694Y0037732D01*
X0183998Y0037036D01*
X0183622Y0036127D01*
X0183622Y0035143D01*
X0183998Y0034234D01*
X0184694Y0033539D01*
X0185603Y0033162D01*
X0184376Y0032515D02*
X0182408Y0032515D01*
X0182568Y0032127D02*
X0182192Y0033036D01*
X0181496Y0033732D01*
X0180587Y0034109D01*
X0179603Y0034109D01*
X0178694Y0033732D01*
X0177998Y0033036D01*
X0177622Y0032127D01*
X0177622Y0031143D01*
X0177998Y0030234D01*
X0178694Y0029539D01*
X0179603Y0029162D01*
X0180587Y0029162D01*
X0181496Y0029539D01*
X0182192Y0030234D01*
X0182568Y0031143D01*
X0182568Y0032127D01*
X0182474Y0030916D02*
X0182741Y0030916D01*
X0182757Y0029318D02*
X0180962Y0029318D01*
X0181316Y0027703D02*
X0180830Y0027502D01*
X0180393Y0027209D01*
X0180021Y0026837D01*
X0179729Y0026400D01*
X0179528Y0025914D01*
X0179425Y0025398D01*
X0179425Y0025135D01*
X0179425Y0024872D01*
X0179528Y0024357D01*
X0179729Y0023871D01*
X0180021Y0023433D01*
X0180393Y0023061D01*
X0180830Y0022769D01*
X0181316Y0022568D01*
X0181832Y0022465D01*
X0182095Y0022465D01*
X0182095Y0025135D01*
X0182095Y0025135D01*
X0182095Y0022465D01*
X0182358Y0022465D01*
X0182874Y0022568D01*
X0183360Y0022769D01*
X0183797Y0023061D01*
X0184169Y0023433D01*
X0184461Y0023871D01*
X0184663Y0024357D01*
X0184765Y0024872D01*
X0184765Y0025135D01*
X0182095Y0025135D01*
X0179425Y0025135D01*
X0182095Y0025135D01*
X0182095Y0025135D01*
X0182095Y0025135D01*
X0184765Y0025135D01*
X0184765Y0025398D01*
X0184663Y0025914D01*
X0184461Y0026400D01*
X0184169Y0026837D01*
X0183797Y0027209D01*
X0183360Y0027502D01*
X0182874Y0027703D01*
X0182358Y0027805D01*
X0182095Y0027805D01*
X0181832Y0027805D01*
X0181316Y0027703D01*
X0181398Y0027719D02*
X0176568Y0027719D01*
X0176568Y0028127D02*
X0176192Y0029036D01*
X0175496Y0029732D01*
X0174587Y0030109D01*
X0173603Y0030109D01*
X0172694Y0029732D01*
X0171998Y0029036D01*
X0171622Y0028127D01*
X0171622Y0027143D01*
X0171998Y0026234D01*
X0172694Y0025539D01*
X0173603Y0025162D01*
X0174587Y0025162D01*
X0175496Y0025539D01*
X0176192Y0026234D01*
X0176568Y0027143D01*
X0176568Y0028127D01*
X0175911Y0029318D02*
X0179228Y0029318D01*
X0177716Y0030916D02*
X0166267Y0030916D01*
X0166568Y0032515D02*
X0171882Y0032515D01*
X0171998Y0032234D02*
X0172694Y0031539D01*
X0173603Y0031162D01*
X0174587Y0031162D01*
X0175496Y0031539D01*
X0176192Y0032234D01*
X0176568Y0033143D01*
X0176568Y0034127D01*
X0176192Y0035036D01*
X0175779Y0035449D01*
X0175996Y0035539D01*
X0176692Y0036234D01*
X0177068Y0037143D01*
X0177068Y0038127D01*
X0176692Y0039036D01*
X0175996Y0039732D01*
X0175087Y0040109D01*
X0174103Y0040109D01*
X0173194Y0039732D01*
X0172498Y0039036D01*
X0172122Y0038127D01*
X0172122Y0037143D01*
X0172498Y0036234D01*
X0172911Y0035822D01*
X0172694Y0035732D01*
X0171998Y0035036D01*
X0171622Y0034127D01*
X0171622Y0033143D01*
X0171998Y0032234D01*
X0171622Y0034113D02*
X0165615Y0034113D01*
X0166669Y0035712D02*
X0172674Y0035712D01*
X0172122Y0037310D02*
X0167068Y0037310D01*
X0166764Y0038909D02*
X0172446Y0038909D01*
X0176745Y0038909D02*
X0218231Y0038909D01*
X0216744Y0037310D02*
X0187918Y0037310D01*
X0188568Y0035712D02*
X0216205Y0035712D01*
X0214575Y0034113D02*
X0192867Y0034113D01*
X0193015Y0032515D02*
X0213622Y0032515D01*
X0213923Y0030916D02*
X0191700Y0030916D01*
X0188323Y0034113D02*
X0188070Y0034113D01*
X0184120Y0034113D02*
X0176568Y0034113D01*
X0176308Y0032515D02*
X0177782Y0032515D01*
X0176169Y0035712D02*
X0183622Y0035712D01*
X0184272Y0037310D02*
X0177068Y0037310D01*
X0177885Y0040507D02*
X0167068Y0040507D01*
X0166123Y0042106D02*
X0177622Y0042106D01*
X0178666Y0043704D02*
X0165703Y0043704D01*
X0164595Y0043704D02*
X0164595Y0043704D01*
X0164595Y0045303D02*
X0164595Y0045303D01*
X0164595Y0046901D02*
X0164595Y0046901D01*
X0181524Y0043704D02*
X0216237Y0043704D01*
X0218267Y0030916D02*
X0219308Y0030916D01*
X0216970Y0027719D02*
X0201293Y0027719D01*
X0201374Y0027703D02*
X0200858Y0027805D01*
X0200595Y0027805D01*
X0200332Y0027805D01*
X0199816Y0027703D01*
X0199330Y0027502D01*
X0198893Y0027209D01*
X0198521Y0026837D01*
X0198229Y0026400D01*
X0198028Y0025914D01*
X0197925Y0025398D01*
X0197925Y0025135D01*
X0197925Y0024872D01*
X0198028Y0024357D01*
X0198229Y0023871D01*
X0198521Y0023433D01*
X0198893Y0023061D01*
X0199330Y0022769D01*
X0199816Y0022568D01*
X0200332Y0022465D01*
X0200595Y0022465D01*
X0200595Y0025135D01*
X0200595Y0025135D01*
X0200595Y0022465D01*
X0200858Y0022465D01*
X0201374Y0022568D01*
X0201860Y0022769D01*
X0202297Y0023061D01*
X0202669Y0023433D01*
X0202961Y0023871D01*
X0203163Y0024357D01*
X0203265Y0024872D01*
X0203265Y0025135D01*
X0200595Y0025135D01*
X0197925Y0025135D01*
X0200595Y0025135D01*
X0200595Y0025135D01*
X0200595Y0025135D01*
X0203265Y0025135D01*
X0203265Y0025398D01*
X0203163Y0025914D01*
X0202961Y0026400D01*
X0202669Y0026837D01*
X0202297Y0027209D01*
X0201860Y0027502D01*
X0201374Y0027703D01*
X0200595Y0027719D02*
X0200595Y0027719D01*
X0200595Y0027805D02*
X0200595Y0025136D01*
X0200595Y0025136D01*
X0200595Y0027805D01*
X0199898Y0027719D02*
X0185724Y0027719D01*
X0184466Y0027719D02*
X0182793Y0027719D01*
X0182095Y0027719D02*
X0182095Y0027719D01*
X0182095Y0027805D02*
X0182095Y0025136D01*
X0182095Y0025136D01*
X0182095Y0027805D01*
X0182095Y0026121D02*
X0182095Y0026121D01*
X0182095Y0024522D02*
X0182095Y0024522D01*
X0182095Y0022924D02*
X0182095Y0022924D01*
X0180599Y0022924D02*
X0163770Y0022924D01*
X0164068Y0024522D02*
X0179495Y0024522D01*
X0179613Y0026121D02*
X0176078Y0026121D01*
X0172112Y0026121D02*
X0166078Y0026121D01*
X0166568Y0027719D02*
X0171622Y0027719D01*
X0172280Y0029318D02*
X0165911Y0029318D01*
X0161622Y0027719D02*
X0152568Y0027719D01*
X0152078Y0026121D02*
X0160083Y0026121D01*
X0159095Y0015305D02*
X0159095Y0012636D01*
X0159095Y0015305D01*
X0159095Y0014931D02*
X0159095Y0014931D01*
X0157725Y0014931D02*
X0151016Y0014931D01*
X0149174Y0014931D02*
X0098466Y0014931D01*
X0097095Y0014931D02*
X0097095Y0014931D01*
X0097095Y0015305D02*
X0097095Y0012636D01*
X0097095Y0012636D01*
X0097095Y0015305D01*
X0097095Y0013332D02*
X0097095Y0013332D01*
X0099679Y0013332D02*
X0147707Y0013332D01*
X0152483Y0013332D02*
X0156511Y0013332D01*
X0156425Y0012635D02*
X0159095Y0012635D01*
X0156425Y0012635D01*
X0159095Y0012635D02*
X0159095Y0012635D01*
X0159095Y0012636D02*
X0159095Y0012636D01*
X0159095Y0013332D02*
X0159095Y0013332D01*
X0183591Y0022924D02*
X0199099Y0022924D01*
X0200595Y0022924D02*
X0200595Y0022924D01*
X0202091Y0022924D02*
X0216759Y0022924D01*
X0216205Y0024522D02*
X0203195Y0024522D01*
X0203077Y0026121D02*
X0216251Y0026121D01*
X0200595Y0026121D02*
X0200595Y0026121D01*
X0200595Y0024522D02*
X0200595Y0024522D01*
X0197995Y0024522D02*
X0184695Y0024522D01*
X0184577Y0026121D02*
X0198113Y0026121D01*
X0149595Y0056492D02*
X0149595Y0056492D01*
X0149595Y0058091D02*
X0149595Y0058091D01*
X0084095Y0066083D02*
X0084095Y0066083D01*
X0084095Y0067682D02*
X0084095Y0067682D01*
X0081481Y0067682D02*
X0054933Y0067682D01*
X0055095Y0067305D02*
X0055095Y0064636D01*
X0055095Y0064636D01*
X0055095Y0067305D01*
X0055095Y0066083D02*
X0055095Y0066083D01*
X0055095Y0064485D02*
X0055095Y0064485D01*
X0055095Y0062886D02*
X0055095Y0062886D01*
X0057339Y0066083D02*
X0081641Y0066083D01*
X0051414Y0110842D02*
X0192342Y0110842D01*
X0193191Y0112440D02*
X0051414Y0112440D01*
X0051414Y0114039D02*
X0227464Y0114039D01*
X0227316Y0114068D02*
X0227832Y0113965D01*
X0228095Y0113965D01*
X0228095Y0116635D01*
X0228095Y0116635D01*
X0228095Y0113965D01*
X0228358Y0113965D01*
X0228874Y0114068D01*
X0229360Y0114269D01*
X0229797Y0114561D01*
X0230169Y0114933D01*
X0230461Y0115371D01*
X0230663Y0115857D01*
X0230765Y0116372D01*
X0230765Y0116635D01*
X0228095Y0116635D01*
X0225425Y0116635D01*
X0225425Y0116372D01*
X0225528Y0115857D01*
X0225729Y0115371D01*
X0226021Y0114933D01*
X0226393Y0114561D01*
X0226830Y0114269D01*
X0227316Y0114068D01*
X0228095Y0114039D02*
X0228095Y0114039D01*
X0228727Y0114039D02*
X0261420Y0114039D01*
X0261330Y0114002D02*
X0260893Y0113709D01*
X0260521Y0113337D01*
X0260229Y0112900D01*
X0260028Y0112414D01*
X0259925Y0111898D01*
X0259925Y0111635D01*
X0259925Y0111372D01*
X0260028Y0110857D01*
X0260229Y0110371D01*
X0260521Y0109933D01*
X0260893Y0109561D01*
X0261330Y0109269D01*
X0261816Y0109068D01*
X0262332Y0108965D01*
X0262595Y0108965D01*
X0262595Y0111635D01*
X0262595Y0111635D01*
X0262595Y0108965D01*
X0262858Y0108965D01*
X0263374Y0109068D01*
X0263860Y0109269D01*
X0264297Y0109561D01*
X0264669Y0109933D01*
X0264961Y0110371D01*
X0265163Y0110857D01*
X0265265Y0111372D01*
X0265265Y0111635D01*
X0262595Y0111635D01*
X0259925Y0111635D01*
X0262595Y0111635D01*
X0262595Y0111635D01*
X0262595Y0111635D01*
X0265265Y0111635D01*
X0265265Y0111898D01*
X0265163Y0112414D01*
X0264961Y0112900D01*
X0264669Y0113337D01*
X0264297Y0113709D01*
X0263860Y0114002D01*
X0263374Y0114203D01*
X0262858Y0114305D01*
X0262595Y0114305D01*
X0262332Y0114305D01*
X0261816Y0114203D01*
X0261330Y0114002D01*
X0262595Y0114039D02*
X0262595Y0114039D01*
X0262595Y0114305D02*
X0262595Y0111636D01*
X0262595Y0111636D01*
X0262595Y0114305D01*
X0263770Y0114039D02*
X0265622Y0114039D01*
X0265622Y0113643D02*
X0265622Y0114627D01*
X0265998Y0115536D01*
X0266694Y0116232D01*
X0267603Y0116609D01*
X0268587Y0116609D01*
X0269496Y0116232D01*
X0270192Y0115536D01*
X0270568Y0114627D01*
X0270568Y0113643D01*
X0270192Y0112734D01*
X0269496Y0112039D01*
X0268587Y0111662D01*
X0267603Y0111662D01*
X0266694Y0112039D01*
X0265998Y0112734D01*
X0265622Y0113643D01*
X0265152Y0112440D02*
X0266293Y0112440D01*
X0265156Y0110842D02*
X0283954Y0110842D01*
X0283998Y0110734D02*
X0284694Y0110039D01*
X0285603Y0109662D01*
X0286587Y0109662D01*
X0287496Y0110039D01*
X0288192Y0110734D01*
X0288568Y0111643D01*
X0288568Y0112627D01*
X0288192Y0113536D01*
X0287496Y0114232D01*
X0286587Y0114609D01*
X0285603Y0114609D01*
X0284694Y0114232D01*
X0283998Y0113536D01*
X0283622Y0112627D01*
X0283622Y0111643D01*
X0283998Y0110734D01*
X0283622Y0112440D02*
X0269898Y0112440D01*
X0270568Y0114039D02*
X0284501Y0114039D01*
X0287690Y0114039D02*
X0328297Y0114039D01*
X0328205Y0114262D02*
X0328873Y0112648D01*
X0330108Y0111413D01*
X0331722Y0110745D01*
X0333468Y0110745D01*
X0335082Y0111413D01*
X0336317Y0112648D01*
X0336986Y0114262D01*
X0336986Y0116009D01*
X0336317Y0117622D01*
X0335082Y0118858D01*
X0333468Y0119526D01*
X0331722Y0119526D01*
X0330108Y0118858D01*
X0328873Y0117622D01*
X0328205Y0116009D01*
X0328205Y0114262D01*
X0328205Y0115637D02*
X0270091Y0115637D01*
X0266099Y0115637D02*
X0230572Y0115637D01*
X0230765Y0116635D02*
X0228095Y0116635D01*
X0228095Y0116635D01*
X0228095Y0116635D01*
X0225425Y0116635D01*
X0225425Y0116898D01*
X0225528Y0117414D01*
X0225729Y0117900D01*
X0226021Y0118337D01*
X0226393Y0118709D01*
X0226830Y0119002D01*
X0227316Y0119203D01*
X0227832Y0119305D01*
X0228095Y0119305D01*
X0228095Y0116636D01*
X0228095Y0116636D01*
X0228095Y0119305D01*
X0228358Y0119305D01*
X0228874Y0119203D01*
X0229360Y0119002D01*
X0229797Y0118709D01*
X0230169Y0118337D01*
X0230461Y0117900D01*
X0230663Y0117414D01*
X0230765Y0116898D01*
X0230765Y0116635D01*
X0230698Y0117236D02*
X0259291Y0117236D01*
X0259122Y0117643D02*
X0259498Y0116734D01*
X0260194Y0116039D01*
X0261103Y0115662D01*
X0262087Y0115662D01*
X0262996Y0116039D01*
X0263692Y0116734D01*
X0264068Y0117643D01*
X0264068Y0118627D01*
X0263692Y0119536D01*
X0262996Y0120232D01*
X0262087Y0120609D01*
X0261103Y0120609D01*
X0260194Y0120232D01*
X0259498Y0119536D01*
X0259122Y0118627D01*
X0259122Y0117643D01*
X0259208Y0118834D02*
X0229610Y0118834D01*
X0228095Y0118834D02*
X0228095Y0118834D01*
X0226580Y0118834D02*
X0225568Y0118834D01*
X0225568Y0118643D02*
X0225192Y0117734D01*
X0224496Y0117039D01*
X0223587Y0116662D01*
X0222603Y0116662D01*
X0221694Y0117039D01*
X0220998Y0117734D01*
X0220622Y0118643D01*
X0220622Y0119627D01*
X0220998Y0120536D01*
X0221694Y0121232D01*
X0222603Y0121609D01*
X0223587Y0121609D01*
X0224496Y0121232D01*
X0225192Y0120536D01*
X0225568Y0119627D01*
X0225568Y0118643D01*
X0225492Y0117236D02*
X0224693Y0117236D01*
X0225619Y0115637D02*
X0218595Y0115637D01*
X0218496Y0115539D02*
X0219192Y0116234D01*
X0219568Y0117143D01*
X0219568Y0118127D01*
X0219192Y0119036D01*
X0218496Y0119732D01*
X0217587Y0120109D01*
X0216603Y0120109D01*
X0215694Y0119732D01*
X0214998Y0119036D01*
X0214845Y0118666D01*
X0214692Y0119036D01*
X0213996Y0119732D01*
X0213087Y0120109D01*
X0212103Y0120109D01*
X0211194Y0119732D01*
X0210498Y0119036D01*
X0210122Y0118127D01*
X0210122Y0117143D01*
X0210498Y0116234D01*
X0211194Y0115539D01*
X0212103Y0115162D01*
X0213087Y0115162D01*
X0213996Y0115539D01*
X0214692Y0116234D01*
X0214845Y0116605D01*
X0214998Y0116234D01*
X0215694Y0115539D01*
X0216603Y0115162D01*
X0217587Y0115162D01*
X0218496Y0115539D01*
X0219568Y0117236D02*
X0221497Y0117236D01*
X0220622Y0118834D02*
X0219276Y0118834D01*
X0220955Y0120433D02*
X0200986Y0120433D01*
X0200986Y0120509D02*
X0200317Y0122122D01*
X0199082Y0123358D01*
X0197468Y0124026D01*
X0195722Y0124026D01*
X0194108Y0123358D01*
X0192873Y0122122D01*
X0192205Y0120509D01*
X0192205Y0118762D01*
X0192873Y0117148D01*
X0194108Y0115913D01*
X0195722Y0115245D01*
X0197468Y0115245D01*
X0199082Y0115913D01*
X0200317Y0117148D01*
X0200986Y0118762D01*
X0200986Y0120509D01*
X0200355Y0122031D02*
X0265493Y0122031D01*
X0265528Y0121857D02*
X0265729Y0121371D01*
X0266021Y0120933D01*
X0266393Y0120561D01*
X0266830Y0120269D01*
X0267316Y0120068D01*
X0267832Y0119965D01*
X0268095Y0119965D01*
X0268095Y0122635D01*
X0268095Y0122635D01*
X0268095Y0119965D01*
X0268358Y0119965D01*
X0268874Y0120068D01*
X0269360Y0120269D01*
X0269797Y0120561D01*
X0270169Y0120933D01*
X0270461Y0121371D01*
X0270663Y0121857D01*
X0270765Y0122372D01*
X0270765Y0122635D01*
X0268095Y0122635D01*
X0265425Y0122635D01*
X0265425Y0122372D01*
X0265528Y0121857D01*
X0265425Y0122635D02*
X0268095Y0122635D01*
X0268095Y0122635D01*
X0268095Y0122635D01*
X0270765Y0122635D01*
X0270765Y0122898D01*
X0270663Y0123414D01*
X0270461Y0123900D01*
X0270169Y0124337D01*
X0269797Y0124709D01*
X0269360Y0125002D01*
X0268874Y0125203D01*
X0268358Y0125305D01*
X0268095Y0125305D01*
X0267832Y0125305D01*
X0267316Y0125203D01*
X0266830Y0125002D01*
X0266393Y0124709D01*
X0266021Y0124337D01*
X0265729Y0123900D01*
X0265528Y0123414D01*
X0265425Y0122898D01*
X0265425Y0122635D01*
X0265617Y0123630D02*
X0198425Y0123630D01*
X0194765Y0123630D02*
X0060749Y0123630D01*
X0060634Y0122031D02*
X0192835Y0122031D01*
X0192205Y0120433D02*
X0059768Y0120433D01*
X0057489Y0118834D02*
X0081202Y0118834D01*
X0081229Y0118900D02*
X0081028Y0118414D01*
X0080925Y0117898D01*
X0080925Y0117635D01*
X0080925Y0117372D01*
X0081028Y0116857D01*
X0081229Y0116371D01*
X0081521Y0115933D01*
X0081893Y0115561D01*
X0082330Y0115269D01*
X0082816Y0115068D01*
X0083332Y0114965D01*
X0083595Y0114965D01*
X0083595Y0117635D01*
X0083595Y0117635D01*
X0083595Y0114965D01*
X0083858Y0114965D01*
X0084374Y0115068D01*
X0084860Y0115269D01*
X0085297Y0115561D01*
X0085669Y0115933D01*
X0085961Y0116371D01*
X0086163Y0116857D01*
X0086265Y0117372D01*
X0086265Y0117635D01*
X0083595Y0117635D01*
X0080925Y0117635D01*
X0083595Y0117635D01*
X0083595Y0117635D01*
X0083595Y0117635D01*
X0086265Y0117635D01*
X0086265Y0117898D01*
X0086163Y0118414D01*
X0085961Y0118900D01*
X0085669Y0119337D01*
X0085297Y0119709D01*
X0084860Y0120002D01*
X0084374Y0120203D01*
X0083858Y0120305D01*
X0083595Y0120305D01*
X0083332Y0120305D01*
X0082816Y0120203D01*
X0082330Y0120002D01*
X0081893Y0119709D01*
X0081521Y0119337D01*
X0081229Y0118900D01*
X0080952Y0117236D02*
X0057738Y0117236D01*
X0056873Y0115637D02*
X0081817Y0115637D01*
X0083595Y0115637D02*
X0083595Y0115637D01*
X0083595Y0117236D02*
X0083595Y0117236D01*
X0083595Y0117636D02*
X0083595Y0120305D01*
X0083595Y0117636D01*
X0083595Y0117636D01*
X0083595Y0118834D02*
X0083595Y0118834D01*
X0085989Y0118834D02*
X0192205Y0118834D01*
X0192837Y0117236D02*
X0086238Y0117236D01*
X0085373Y0115637D02*
X0194775Y0115637D01*
X0198416Y0115637D02*
X0211096Y0115637D01*
X0210122Y0117236D02*
X0200353Y0117236D01*
X0200986Y0118834D02*
X0210415Y0118834D01*
X0214776Y0118834D02*
X0214915Y0118834D01*
X0215596Y0115637D02*
X0214095Y0115637D01*
X0225235Y0120433D02*
X0260678Y0120433D01*
X0262512Y0120433D02*
X0266586Y0120433D01*
X0268095Y0120433D02*
X0268095Y0120433D01*
X0269605Y0120433D02*
X0277450Y0120433D01*
X0277194Y0120539D02*
X0278103Y0120162D01*
X0279087Y0120162D01*
X0279996Y0120539D01*
X0280692Y0121234D01*
X0281068Y0122143D01*
X0281068Y0123127D01*
X0280692Y0124036D01*
X0279996Y0124732D01*
X0279087Y0125109D01*
X0278103Y0125109D01*
X0277194Y0124732D01*
X0276498Y0124036D01*
X0276122Y0123127D01*
X0276122Y0122143D01*
X0276498Y0121234D01*
X0277194Y0120539D01*
X0276168Y0122031D02*
X0270697Y0122031D01*
X0270573Y0123630D02*
X0276330Y0123630D01*
X0280860Y0123630D02*
X0298140Y0123630D01*
X0298316Y0123703D02*
X0297830Y0123502D01*
X0297393Y0123209D01*
X0297021Y0122837D01*
X0296729Y0122400D01*
X0296528Y0121914D01*
X0296425Y0121398D01*
X0296425Y0121135D01*
X0296425Y0120872D01*
X0296528Y0120357D01*
X0296729Y0119871D01*
X0297021Y0119433D01*
X0297393Y0119061D01*
X0297830Y0118769D01*
X0298316Y0118568D01*
X0298832Y0118465D01*
X0299095Y0118465D01*
X0299095Y0121135D01*
X0299095Y0121135D01*
X0299095Y0118465D01*
X0299358Y0118465D01*
X0299874Y0118568D01*
X0300360Y0118769D01*
X0300797Y0119061D01*
X0301169Y0119433D01*
X0301461Y0119871D01*
X0301663Y0120357D01*
X0301765Y0120872D01*
X0301765Y0121135D01*
X0299095Y0121135D01*
X0296425Y0121135D01*
X0299095Y0121135D01*
X0299095Y0121135D01*
X0299095Y0121135D01*
X0301765Y0121135D01*
X0301765Y0121398D01*
X0301663Y0121914D01*
X0301461Y0122400D01*
X0301169Y0122837D01*
X0300797Y0123209D01*
X0300360Y0123502D01*
X0299874Y0123703D01*
X0299358Y0123805D01*
X0299095Y0123805D01*
X0298832Y0123805D01*
X0298316Y0123703D01*
X0299095Y0123630D02*
X0299095Y0123630D01*
X0299095Y0123805D02*
X0299095Y0121136D01*
X0299095Y0121136D01*
X0299095Y0123805D01*
X0300051Y0123630D02*
X0314092Y0123630D01*
X0314194Y0123732D02*
X0313498Y0123036D01*
X0313122Y0122127D01*
X0313122Y0121143D01*
X0313498Y0120234D01*
X0314194Y0119539D01*
X0315103Y0119162D01*
X0316087Y0119162D01*
X0316996Y0119539D01*
X0317692Y0120234D01*
X0318068Y0121143D01*
X0318068Y0122127D01*
X0317692Y0123036D01*
X0316996Y0123732D01*
X0316087Y0124109D01*
X0315103Y0124109D01*
X0314194Y0123732D01*
X0313122Y0122031D02*
X0301614Y0122031D01*
X0301678Y0120433D02*
X0313416Y0120433D01*
X0317774Y0120433D02*
X0384748Y0120433D01*
X0384622Y0120127D02*
X0384622Y0119143D01*
X0384998Y0118234D01*
X0385694Y0117539D01*
X0386205Y0117327D01*
X0386122Y0117127D01*
X0386122Y0116143D01*
X0386498Y0115234D01*
X0387194Y0114539D01*
X0388103Y0114162D01*
X0389087Y0114162D01*
X0389996Y0114539D01*
X0390692Y0115234D01*
X0391068Y0116143D01*
X0391068Y0117127D01*
X0390692Y0118036D01*
X0389996Y0118732D01*
X0389486Y0118944D01*
X0389568Y0119143D01*
X0389568Y0120127D01*
X0389486Y0120327D01*
X0389996Y0120539D01*
X0390692Y0121234D01*
X0391068Y0122143D01*
X0391068Y0123127D01*
X0390707Y0124001D01*
X0390797Y0124061D01*
X0391169Y0124433D01*
X0391461Y0124871D01*
X0391663Y0125357D01*
X0391765Y0125872D01*
X0391765Y0126135D01*
X0389095Y0126135D01*
X0386425Y0126135D01*
X0386425Y0125872D01*
X0386528Y0125357D01*
X0386729Y0124871D01*
X0386971Y0124509D01*
X0386498Y0124036D01*
X0386122Y0123127D01*
X0386122Y0122143D01*
X0386205Y0121944D01*
X0385694Y0121732D01*
X0384998Y0121036D01*
X0384622Y0120127D01*
X0384750Y0118834D02*
X0345309Y0118834D01*
X0345584Y0118634D02*
X0344999Y0119059D01*
X0344356Y0119387D01*
X0343669Y0119610D01*
X0342956Y0119723D01*
X0342795Y0119723D01*
X0342795Y0115336D01*
X0342395Y0115336D01*
X0342395Y0119723D01*
X0342234Y0119723D01*
X0341521Y0119610D01*
X0340834Y0119387D01*
X0340191Y0119059D01*
X0339607Y0118634D01*
X0339096Y0118124D01*
X0338672Y0117540D01*
X0338344Y0116896D01*
X0338121Y0116210D01*
X0338008Y0115496D01*
X0338008Y0115335D01*
X0342395Y0115335D01*
X0342395Y0114935D01*
X0342795Y0114935D01*
X0342795Y0110548D01*
X0342956Y0110548D01*
X0343669Y0110661D01*
X0344356Y0110884D01*
X0344999Y0111212D01*
X0345584Y0111636D01*
X0346094Y0112147D01*
X0346519Y0112731D01*
X0346846Y0113374D01*
X0347070Y0114061D01*
X0347183Y0114774D01*
X0347183Y0114935D01*
X0342795Y0114935D01*
X0342795Y0115335D01*
X0347183Y0115335D01*
X0347183Y0115496D01*
X0347070Y0116210D01*
X0346846Y0116896D01*
X0346519Y0117540D01*
X0346094Y0118124D01*
X0345584Y0118634D01*
X0346674Y0117236D02*
X0386167Y0117236D01*
X0386332Y0115637D02*
X0347160Y0115637D01*
X0347062Y0114039D02*
X0393107Y0114039D01*
X0393481Y0114193D02*
X0392047Y0113599D01*
X0390950Y0112502D01*
X0390356Y0111069D01*
X0390356Y0109517D01*
X0390950Y0108084D01*
X0392047Y0106986D01*
X0393481Y0106393D01*
X0395032Y0106393D01*
X0396466Y0106986D01*
X0397563Y0108084D01*
X0398157Y0109517D01*
X0398157Y0111069D01*
X0397563Y0112502D01*
X0396466Y0113599D01*
X0395032Y0114193D01*
X0393481Y0114193D01*
X0395406Y0114039D02*
X0410732Y0114039D01*
X0410732Y0115637D02*
X0390859Y0115637D01*
X0391023Y0117236D02*
X0410732Y0117236D01*
X0410732Y0118834D02*
X0389750Y0118834D01*
X0389740Y0120433D02*
X0410732Y0120433D01*
X0410732Y0122031D02*
X0391022Y0122031D01*
X0390860Y0123630D02*
X0410732Y0123630D01*
X0410732Y0125228D02*
X0391609Y0125228D01*
X0391765Y0126135D02*
X0389095Y0126135D01*
X0389095Y0126135D01*
X0389095Y0126135D01*
X0386425Y0126135D01*
X0386425Y0126398D01*
X0386528Y0126914D01*
X0386729Y0127400D01*
X0387021Y0127837D01*
X0387393Y0128209D01*
X0387830Y0128502D01*
X0388316Y0128703D01*
X0388832Y0128805D01*
X0389095Y0128805D01*
X0389095Y0126136D01*
X0389095Y0126136D01*
X0389095Y0128805D01*
X0389358Y0128805D01*
X0389874Y0128703D01*
X0390360Y0128502D01*
X0390756Y0128237D01*
X0390356Y0129202D01*
X0390356Y0130754D01*
X0390950Y0132187D01*
X0392047Y0133285D01*
X0393481Y0133878D01*
X0395032Y0133878D01*
X0396466Y0133285D01*
X0397563Y0132187D01*
X0398157Y0130754D01*
X0398157Y0129202D01*
X0397563Y0127769D01*
X0396466Y0126671D01*
X0395032Y0126078D01*
X0393481Y0126078D01*
X0392047Y0126671D01*
X0391562Y0127156D01*
X0391663Y0126914D01*
X0391765Y0126398D01*
X0391765Y0126135D01*
X0391680Y0126827D02*
X0391892Y0126827D01*
X0390678Y0128425D02*
X0390474Y0128425D01*
X0389095Y0128425D02*
X0389095Y0128425D01*
X0387716Y0128425D02*
X0345514Y0128425D01*
X0345082Y0128858D02*
X0346317Y0127622D01*
X0346986Y0126009D01*
X0346986Y0124262D01*
X0346317Y0122648D01*
X0345082Y0121413D01*
X0343468Y0120745D01*
X0341722Y0120745D01*
X0340108Y0121413D01*
X0338873Y0122648D01*
X0338205Y0124262D01*
X0338205Y0126009D01*
X0338873Y0127622D01*
X0340108Y0128858D01*
X0341722Y0129526D01*
X0343468Y0129526D01*
X0345082Y0128858D01*
X0343468Y0130745D02*
X0345082Y0131413D01*
X0346317Y0132648D01*
X0346986Y0134262D01*
X0346986Y0136009D01*
X0346317Y0137622D01*
X0345082Y0138858D01*
X0343468Y0139526D01*
X0341722Y0139526D01*
X0340108Y0138858D01*
X0338873Y0137622D01*
X0338205Y0136009D01*
X0338205Y0134262D01*
X0338873Y0132648D01*
X0340108Y0131413D01*
X0341722Y0130745D01*
X0343468Y0130745D01*
X0345291Y0131622D02*
X0390716Y0131622D01*
X0390356Y0130024D02*
X0313312Y0130024D01*
X0313192Y0129734D02*
X0313568Y0130643D01*
X0313568Y0131627D01*
X0313192Y0132536D01*
X0312496Y0133232D01*
X0312376Y0133282D01*
X0312996Y0133539D01*
X0313692Y0134234D01*
X0314068Y0135143D01*
X0314068Y0136127D01*
X0313692Y0137036D01*
X0312996Y0137732D01*
X0312087Y0138109D01*
X0311103Y0138109D01*
X0310194Y0137732D01*
X0309498Y0137036D01*
X0309122Y0136127D01*
X0309122Y0135143D01*
X0309498Y0134234D01*
X0310194Y0133539D01*
X0310314Y0133489D01*
X0309694Y0133232D01*
X0308998Y0132536D01*
X0308622Y0131627D01*
X0308622Y0130643D01*
X0308998Y0129734D01*
X0309694Y0129039D01*
X0310603Y0128662D01*
X0311587Y0128662D01*
X0312496Y0129039D01*
X0313192Y0129734D01*
X0313568Y0131622D02*
X0329899Y0131622D01*
X0330108Y0131413D02*
X0331722Y0130745D01*
X0333468Y0130745D01*
X0335082Y0131413D01*
X0336317Y0132648D01*
X0336986Y0134262D01*
X0336986Y0136009D01*
X0336317Y0137622D01*
X0335082Y0138858D01*
X0333468Y0139526D01*
X0331722Y0139526D01*
X0330108Y0138858D01*
X0329765Y0138515D01*
X0329765Y0138635D01*
X0327095Y0138635D01*
X0327095Y0138635D01*
X0327095Y0135965D01*
X0326832Y0135965D01*
X0326316Y0136068D01*
X0325830Y0136269D01*
X0325393Y0136561D01*
X0325021Y0136933D01*
X0324729Y0137371D01*
X0324528Y0137857D01*
X0324425Y0138372D01*
X0324425Y0138635D01*
X0327095Y0138635D01*
X0327095Y0135965D01*
X0327358Y0135965D01*
X0327874Y0136068D01*
X0328303Y0136246D01*
X0328205Y0136009D01*
X0328205Y0134262D01*
X0328873Y0132648D01*
X0330108Y0131413D01*
X0328636Y0133221D02*
X0312507Y0133221D01*
X0313934Y0134819D02*
X0328205Y0134819D01*
X0327095Y0136418D02*
X0327095Y0136418D01*
X0325608Y0136418D02*
X0313948Y0136418D01*
X0312310Y0138016D02*
X0324496Y0138016D01*
X0324425Y0138635D02*
X0327095Y0138635D01*
X0327095Y0138635D01*
X0327095Y0138635D01*
X0329765Y0138635D01*
X0329765Y0138898D01*
X0329663Y0139414D01*
X0329461Y0139900D01*
X0329169Y0140338D01*
X0328797Y0140709D01*
X0328360Y0141002D01*
X0327874Y0141203D01*
X0327358Y0141305D01*
X0327095Y0141305D01*
X0326832Y0141305D01*
X0326316Y0141203D01*
X0325830Y0141002D01*
X0325393Y0140709D01*
X0325021Y0140338D01*
X0324729Y0139900D01*
X0324528Y0139414D01*
X0324425Y0138898D01*
X0324425Y0138635D01*
X0324611Y0139615D02*
X0250849Y0139615D01*
X0250692Y0139234D02*
X0251068Y0140143D01*
X0251068Y0141127D01*
X0250692Y0142036D01*
X0249996Y0142732D01*
X0249087Y0143109D01*
X0248103Y0143109D01*
X0247194Y0142732D01*
X0246498Y0142036D01*
X0246122Y0141127D01*
X0246122Y0140143D01*
X0246498Y0139234D01*
X0247194Y0138539D01*
X0248103Y0138162D01*
X0249087Y0138162D01*
X0249996Y0138539D01*
X0250692Y0139234D01*
X0251033Y0141213D02*
X0326369Y0141213D01*
X0327095Y0141213D02*
X0327095Y0141213D01*
X0327095Y0141305D02*
X0327095Y0138636D01*
X0327095Y0138636D01*
X0327095Y0141305D01*
X0327821Y0141213D02*
X0395800Y0141213D01*
X0395622Y0141643D02*
X0395998Y0140734D01*
X0396694Y0140039D01*
X0397603Y0139662D01*
X0398587Y0139662D01*
X0399496Y0140039D01*
X0400192Y0140734D01*
X0400568Y0141643D01*
X0400568Y0142627D01*
X0400192Y0143536D01*
X0399496Y0144232D01*
X0398587Y0144609D01*
X0397603Y0144609D01*
X0396694Y0144232D01*
X0395998Y0143536D01*
X0395622Y0142627D01*
X0395622Y0141643D01*
X0395698Y0142812D02*
X0309724Y0142812D01*
X0309692Y0142734D02*
X0310068Y0143643D01*
X0310068Y0144627D01*
X0309692Y0145536D01*
X0308996Y0146232D01*
X0308087Y0146609D01*
X0307103Y0146609D01*
X0306194Y0146232D01*
X0305498Y0145536D01*
X0305122Y0144627D01*
X0305122Y0143643D01*
X0305498Y0142734D01*
X0306194Y0142039D01*
X0307103Y0141662D01*
X0308087Y0141662D01*
X0308996Y0142039D01*
X0309692Y0142734D01*
X0310068Y0144410D02*
X0397125Y0144410D01*
X0399066Y0144410D02*
X0410732Y0144410D01*
X0410732Y0142812D02*
X0400492Y0142812D01*
X0400390Y0141213D02*
X0410732Y0141213D01*
X0410732Y0139615D02*
X0329580Y0139615D01*
X0327095Y0139615D02*
X0327095Y0139615D01*
X0327095Y0138016D02*
X0327095Y0138016D01*
X0335923Y0138016D02*
X0339267Y0138016D01*
X0338374Y0136418D02*
X0336816Y0136418D01*
X0336986Y0134819D02*
X0338205Y0134819D01*
X0338636Y0133221D02*
X0336554Y0133221D01*
X0335291Y0131622D02*
X0339899Y0131622D01*
X0339676Y0128425D02*
X0335514Y0128425D01*
X0335082Y0128858D02*
X0333468Y0129526D01*
X0331722Y0129526D01*
X0330108Y0128858D01*
X0328873Y0127622D01*
X0328205Y0126009D01*
X0328205Y0124262D01*
X0328873Y0122648D01*
X0330108Y0121413D01*
X0331722Y0120745D01*
X0333468Y0120745D01*
X0335082Y0121413D01*
X0336317Y0122648D01*
X0336986Y0124262D01*
X0336986Y0126009D01*
X0336317Y0127622D01*
X0335082Y0128858D01*
X0336647Y0126827D02*
X0338543Y0126827D01*
X0338205Y0125228D02*
X0336986Y0125228D01*
X0336724Y0123630D02*
X0338467Y0123630D01*
X0339490Y0122031D02*
X0335700Y0122031D01*
X0335106Y0118834D02*
X0339882Y0118834D01*
X0338517Y0117236D02*
X0336477Y0117236D01*
X0336986Y0115637D02*
X0338030Y0115637D01*
X0338008Y0114935D02*
X0338008Y0114774D01*
X0338121Y0114061D01*
X0338344Y0113374D01*
X0338672Y0112731D01*
X0339096Y0112147D01*
X0339607Y0111636D01*
X0340191Y0111212D01*
X0340834Y0110884D01*
X0341521Y0110661D01*
X0342234Y0110548D01*
X0342395Y0110548D01*
X0342395Y0114935D01*
X0338008Y0114935D01*
X0338128Y0114039D02*
X0336893Y0114039D01*
X0336109Y0112440D02*
X0338883Y0112440D01*
X0340965Y0110842D02*
X0333702Y0110842D01*
X0331488Y0110842D02*
X0321773Y0110842D01*
X0321692Y0111036D02*
X0320996Y0111732D01*
X0320087Y0112109D01*
X0319103Y0112109D01*
X0318194Y0111732D01*
X0317498Y0111036D01*
X0317122Y0110127D01*
X0317122Y0109143D01*
X0317498Y0108234D01*
X0318194Y0107539D01*
X0318564Y0107385D01*
X0318194Y0107232D01*
X0317498Y0106536D01*
X0317122Y0105627D01*
X0317122Y0104643D01*
X0317498Y0103734D01*
X0318194Y0103039D01*
X0319103Y0102662D01*
X0320087Y0102662D01*
X0320996Y0103039D01*
X0321692Y0103734D01*
X0322068Y0104643D01*
X0322068Y0105627D01*
X0321692Y0106536D01*
X0320996Y0107232D01*
X0320626Y0107385D01*
X0320996Y0107539D01*
X0321692Y0108234D01*
X0322068Y0109143D01*
X0322068Y0110127D01*
X0321692Y0111036D01*
X0322068Y0109243D02*
X0390470Y0109243D01*
X0389496Y0108732D02*
X0388587Y0109109D01*
X0387603Y0109109D01*
X0386694Y0108732D01*
X0385998Y0108036D01*
X0385622Y0107127D01*
X0385622Y0106143D01*
X0385998Y0105234D01*
X0386694Y0104539D01*
X0387603Y0104162D01*
X0388587Y0104162D01*
X0389496Y0104539D01*
X0390192Y0105234D01*
X0390568Y0106143D01*
X0390568Y0107127D01*
X0390192Y0108036D01*
X0389496Y0108732D01*
X0390354Y0107645D02*
X0391389Y0107645D01*
X0390528Y0106046D02*
X0410732Y0106046D01*
X0410732Y0104448D02*
X0389276Y0104448D01*
X0386914Y0104448D02*
X0321987Y0104448D01*
X0321895Y0106046D02*
X0385662Y0106046D01*
X0385836Y0107645D02*
X0321102Y0107645D01*
X0318088Y0107645D02*
X0257568Y0107645D01*
X0257568Y0108127D02*
X0257192Y0109036D01*
X0256496Y0109732D01*
X0255587Y0110109D01*
X0254603Y0110109D01*
X0253694Y0109732D01*
X0252998Y0109036D01*
X0252622Y0108127D01*
X0252622Y0107143D01*
X0252998Y0106234D01*
X0253694Y0105539D01*
X0254603Y0105162D01*
X0255587Y0105162D01*
X0256496Y0105539D01*
X0257192Y0106234D01*
X0257568Y0107143D01*
X0257568Y0108127D01*
X0256985Y0109243D02*
X0261393Y0109243D01*
X0262595Y0109243D02*
X0262595Y0109243D01*
X0263797Y0109243D02*
X0317122Y0109243D01*
X0317418Y0110842D02*
X0288236Y0110842D01*
X0288568Y0112440D02*
X0329081Y0112440D01*
X0328713Y0117236D02*
X0295692Y0117236D01*
X0295692Y0117234D02*
X0296068Y0118143D01*
X0296068Y0119127D01*
X0295692Y0120036D01*
X0294996Y0120732D01*
X0294087Y0121109D01*
X0293103Y0121109D01*
X0292194Y0120732D01*
X0291498Y0120036D01*
X0291122Y0119127D01*
X0291122Y0118143D01*
X0291498Y0117234D01*
X0292194Y0116539D01*
X0293103Y0116162D01*
X0294087Y0116162D01*
X0294996Y0116539D01*
X0295692Y0117234D01*
X0296068Y0118834D02*
X0297733Y0118834D01*
X0299095Y0118834D02*
X0299095Y0118834D01*
X0300457Y0118834D02*
X0330085Y0118834D01*
X0329490Y0122031D02*
X0318068Y0122031D01*
X0317098Y0123630D02*
X0328467Y0123630D01*
X0328205Y0125228D02*
X0293186Y0125228D01*
X0293192Y0125234D02*
X0293568Y0126143D01*
X0293568Y0127127D01*
X0293192Y0128036D01*
X0292496Y0128732D01*
X0291587Y0129109D01*
X0290603Y0129109D01*
X0289694Y0128732D01*
X0288998Y0128036D01*
X0288622Y0127127D01*
X0288622Y0126143D01*
X0288998Y0125234D01*
X0289694Y0124539D01*
X0290603Y0124162D01*
X0291587Y0124162D01*
X0292496Y0124539D01*
X0293192Y0125234D01*
X0293568Y0126827D02*
X0328543Y0126827D01*
X0329676Y0128425D02*
X0292803Y0128425D01*
X0289387Y0128425D02*
X0252658Y0128425D01*
X0252663Y0128414D02*
X0252461Y0128900D01*
X0252169Y0129337D01*
X0251797Y0129709D01*
X0251360Y0130002D01*
X0250874Y0130203D01*
X0250358Y0130305D01*
X0250095Y0130305D01*
X0249832Y0130305D01*
X0249316Y0130203D01*
X0248830Y0130002D01*
X0248393Y0129709D01*
X0248021Y0129337D01*
X0247729Y0128900D01*
X0247528Y0128414D01*
X0247425Y0127898D01*
X0247425Y0127635D01*
X0247425Y0127372D01*
X0247528Y0126857D01*
X0247729Y0126371D01*
X0248021Y0125933D01*
X0248393Y0125561D01*
X0248830Y0125269D01*
X0249316Y0125068D01*
X0249832Y0124965D01*
X0250095Y0124965D01*
X0250095Y0127635D01*
X0250095Y0127635D01*
X0250095Y0124965D01*
X0250358Y0124965D01*
X0250874Y0125068D01*
X0251360Y0125269D01*
X0251797Y0125561D01*
X0252169Y0125933D01*
X0252461Y0126371D01*
X0252663Y0126857D01*
X0252765Y0127372D01*
X0252765Y0127635D01*
X0250095Y0127635D01*
X0247425Y0127635D01*
X0250095Y0127635D01*
X0250095Y0127635D01*
X0250095Y0127635D01*
X0252765Y0127635D01*
X0252765Y0127898D01*
X0252663Y0128414D01*
X0252650Y0126827D02*
X0288622Y0126827D01*
X0289005Y0125228D02*
X0268746Y0125228D01*
X0268095Y0125228D02*
X0268095Y0125228D01*
X0268095Y0125305D02*
X0268095Y0122636D01*
X0268095Y0122636D01*
X0268095Y0125305D01*
X0267444Y0125228D02*
X0251261Y0125228D01*
X0250095Y0125228D02*
X0250095Y0125228D01*
X0248929Y0125228D02*
X0060225Y0125228D01*
X0058539Y0126827D02*
X0247540Y0126827D01*
X0247532Y0128425D02*
X0085984Y0128425D01*
X0085961Y0128371D02*
X0086163Y0128857D01*
X0086265Y0129372D01*
X0086265Y0129635D01*
X0083595Y0129635D01*
X0083595Y0129635D01*
X0083595Y0126965D01*
X0083332Y0126965D01*
X0082816Y0127068D01*
X0082330Y0127269D01*
X0081893Y0127561D01*
X0081521Y0127933D01*
X0081229Y0128371D01*
X0081028Y0128857D01*
X0080925Y0129372D01*
X0080925Y0129635D01*
X0083595Y0129635D01*
X0083595Y0126965D01*
X0083858Y0126965D01*
X0084374Y0127068D01*
X0084860Y0127269D01*
X0085297Y0127561D01*
X0085669Y0127933D01*
X0085961Y0128371D01*
X0086265Y0129635D02*
X0086265Y0129898D01*
X0086163Y0130414D01*
X0085961Y0130900D01*
X0085669Y0131338D01*
X0085297Y0131709D01*
X0084860Y0132002D01*
X0084374Y0132203D01*
X0083858Y0132305D01*
X0083595Y0132305D01*
X0083332Y0132305D01*
X0082816Y0132203D01*
X0082330Y0132002D01*
X0081893Y0131709D01*
X0081521Y0131338D01*
X0081229Y0130900D01*
X0081028Y0130414D01*
X0080925Y0129898D01*
X0080925Y0129635D01*
X0083595Y0129635D01*
X0083595Y0129635D01*
X0083595Y0129635D01*
X0086265Y0129635D01*
X0086240Y0130024D02*
X0248884Y0130024D01*
X0250095Y0130024D02*
X0250095Y0130024D01*
X0250095Y0130305D02*
X0250095Y0127636D01*
X0250095Y0127636D01*
X0250095Y0130305D01*
X0251306Y0130024D02*
X0308879Y0130024D01*
X0308622Y0131622D02*
X0085384Y0131622D01*
X0083595Y0131622D02*
X0083595Y0131622D01*
X0083595Y0132305D02*
X0083595Y0129636D01*
X0083595Y0129636D01*
X0083595Y0132305D01*
X0081806Y0131622D02*
X0056884Y0131622D01*
X0055095Y0131622D02*
X0055095Y0131622D01*
X0055095Y0132305D02*
X0055095Y0129636D01*
X0055095Y0129636D01*
X0055095Y0132305D01*
X0053751Y0133221D02*
X0279734Y0133221D01*
X0279893Y0133061D02*
X0280330Y0132769D01*
X0280816Y0132568D01*
X0281332Y0132465D01*
X0281595Y0132465D01*
X0281595Y0135135D01*
X0281595Y0135135D01*
X0281595Y0132465D01*
X0281858Y0132465D01*
X0282374Y0132568D01*
X0282860Y0132769D01*
X0283297Y0133061D01*
X0283484Y0133249D01*
X0283694Y0133039D01*
X0284603Y0132662D01*
X0285587Y0132662D01*
X0286496Y0133039D01*
X0287192Y0133734D01*
X0287568Y0134643D01*
X0287568Y0135627D01*
X0287192Y0136536D01*
X0286496Y0137232D01*
X0285587Y0137609D01*
X0284603Y0137609D01*
X0283694Y0137232D01*
X0283484Y0137022D01*
X0283297Y0137209D01*
X0282860Y0137502D01*
X0282374Y0137703D01*
X0281858Y0137805D01*
X0281595Y0137805D01*
X0281332Y0137805D01*
X0280816Y0137703D01*
X0280330Y0137502D01*
X0279893Y0137209D01*
X0279521Y0136838D01*
X0279229Y0136400D01*
X0279028Y0135914D01*
X0278925Y0135398D01*
X0278925Y0135135D01*
X0278925Y0134872D01*
X0279028Y0134357D01*
X0279229Y0133871D01*
X0279521Y0133433D01*
X0279893Y0133061D01*
X0281595Y0133221D02*
X0281595Y0133221D01*
X0281595Y0134819D02*
X0281595Y0134819D01*
X0281595Y0135135D02*
X0278925Y0135135D01*
X0281595Y0135135D01*
X0281595Y0135135D01*
X0281595Y0135136D02*
X0281595Y0137805D01*
X0281595Y0135136D01*
X0281595Y0135136D01*
X0281595Y0136418D02*
X0281595Y0136418D01*
X0279241Y0136418D02*
X0244765Y0136418D01*
X0244765Y0136372D02*
X0244765Y0136635D01*
X0242095Y0136635D01*
X0242095Y0136635D01*
X0242095Y0133965D01*
X0241832Y0133965D01*
X0241316Y0134068D01*
X0240830Y0134269D01*
X0240393Y0134561D01*
X0240021Y0134933D01*
X0239729Y0135371D01*
X0239528Y0135857D01*
X0239425Y0136372D01*
X0239425Y0136635D01*
X0242095Y0136635D01*
X0242095Y0133965D01*
X0242358Y0133965D01*
X0242874Y0134068D01*
X0243360Y0134269D01*
X0243797Y0134561D01*
X0244169Y0134933D01*
X0244461Y0135371D01*
X0244663Y0135857D01*
X0244765Y0136372D01*
X0244765Y0136635D02*
X0244765Y0136898D01*
X0244663Y0137414D01*
X0244461Y0137900D01*
X0244169Y0138338D01*
X0243797Y0138709D01*
X0243360Y0139002D01*
X0242874Y0139203D01*
X0242358Y0139305D01*
X0242095Y0139305D01*
X0241832Y0139305D01*
X0241316Y0139203D01*
X0240830Y0139002D01*
X0240393Y0138709D01*
X0240021Y0138338D01*
X0239729Y0137900D01*
X0239528Y0137414D01*
X0239425Y0136898D01*
X0239425Y0136635D01*
X0242095Y0136635D01*
X0242095Y0136635D01*
X0242095Y0136635D01*
X0244765Y0136635D01*
X0244384Y0138016D02*
X0294200Y0138016D01*
X0294021Y0137838D02*
X0293729Y0137400D01*
X0293528Y0136914D01*
X0293425Y0136398D01*
X0293425Y0136135D01*
X0293425Y0135872D01*
X0293528Y0135357D01*
X0293729Y0134871D01*
X0294021Y0134433D01*
X0294393Y0134061D01*
X0294830Y0133769D01*
X0295316Y0133568D01*
X0295832Y0133465D01*
X0296095Y0133465D01*
X0296095Y0136135D01*
X0296095Y0136135D01*
X0296095Y0133465D01*
X0296358Y0133465D01*
X0296874Y0133568D01*
X0297360Y0133769D01*
X0297797Y0134061D01*
X0298169Y0134433D01*
X0298461Y0134871D01*
X0298663Y0135357D01*
X0298765Y0135872D01*
X0298765Y0136135D01*
X0296095Y0136135D01*
X0293425Y0136135D01*
X0296095Y0136135D01*
X0296095Y0136135D01*
X0296095Y0136135D01*
X0298765Y0136135D01*
X0298765Y0136398D01*
X0298663Y0136914D01*
X0298461Y0137400D01*
X0298169Y0137838D01*
X0297797Y0138209D01*
X0297360Y0138502D01*
X0296874Y0138703D01*
X0296358Y0138805D01*
X0296095Y0138805D01*
X0295832Y0138805D01*
X0295316Y0138703D01*
X0294830Y0138502D01*
X0294393Y0138209D01*
X0294021Y0137838D01*
X0293429Y0136418D02*
X0287241Y0136418D01*
X0287568Y0134819D02*
X0293763Y0134819D01*
X0296095Y0134819D02*
X0296095Y0134819D01*
X0296095Y0136136D02*
X0296095Y0138805D01*
X0296095Y0136136D01*
X0296095Y0136136D01*
X0296095Y0136418D02*
X0296095Y0136418D01*
X0296095Y0138016D02*
X0296095Y0138016D01*
X0297990Y0138016D02*
X0310880Y0138016D01*
X0309242Y0136418D02*
X0298761Y0136418D01*
X0298427Y0134819D02*
X0309256Y0134819D01*
X0309683Y0133221D02*
X0286678Y0133221D01*
X0283512Y0133221D02*
X0283457Y0133221D01*
X0278936Y0134819D02*
X0244055Y0134819D01*
X0242095Y0134819D02*
X0242095Y0134819D01*
X0242095Y0136418D02*
X0242095Y0136418D01*
X0242095Y0136636D02*
X0242095Y0139305D01*
X0242095Y0136636D01*
X0242095Y0136636D01*
X0242095Y0138016D02*
X0242095Y0138016D01*
X0239807Y0138016D02*
X0212694Y0138016D01*
X0212663Y0137857D02*
X0212765Y0138372D01*
X0212765Y0138635D01*
X0210095Y0138635D01*
X0210095Y0138635D01*
X0210095Y0135965D01*
X0209832Y0135965D01*
X0209316Y0136068D01*
X0208830Y0136269D01*
X0208393Y0136561D01*
X0208021Y0136933D01*
X0207729Y0137371D01*
X0207528Y0137857D01*
X0207425Y0138372D01*
X0207425Y0138635D01*
X0210095Y0138635D01*
X0210095Y0135965D01*
X0210358Y0135965D01*
X0210874Y0136068D01*
X0211360Y0136269D01*
X0211797Y0136561D01*
X0212169Y0136933D01*
X0212461Y0137371D01*
X0212663Y0137857D01*
X0212765Y0138635D02*
X0212765Y0138898D01*
X0212663Y0139414D01*
X0212461Y0139900D01*
X0212169Y0140338D01*
X0211797Y0140709D01*
X0211360Y0141002D01*
X0210874Y0141203D01*
X0210358Y0141305D01*
X0210095Y0141305D01*
X0209832Y0141305D01*
X0209316Y0141203D01*
X0208830Y0141002D01*
X0208393Y0140709D01*
X0208021Y0140338D01*
X0207729Y0139900D01*
X0207528Y0139414D01*
X0207425Y0138898D01*
X0207425Y0138635D01*
X0210095Y0138635D01*
X0210095Y0138635D01*
X0210095Y0138635D01*
X0212765Y0138635D01*
X0212580Y0139615D02*
X0246341Y0139615D01*
X0246158Y0141213D02*
X0210821Y0141213D01*
X0210095Y0141213D02*
X0210095Y0141213D01*
X0210095Y0141305D02*
X0210095Y0138636D01*
X0210095Y0138636D01*
X0210095Y0141305D01*
X0209369Y0141213D02*
X0137890Y0141213D01*
X0138068Y0141643D02*
X0137692Y0140734D01*
X0136996Y0140039D01*
X0136087Y0139662D01*
X0135103Y0139662D01*
X0134194Y0140039D01*
X0133498Y0140734D01*
X0133122Y0141643D01*
X0133122Y0142627D01*
X0133498Y0143536D01*
X0134194Y0144232D01*
X0135103Y0144609D01*
X0136087Y0144609D01*
X0136996Y0144232D01*
X0137692Y0143536D01*
X0138068Y0142627D01*
X0138068Y0141643D01*
X0137992Y0142812D02*
X0247387Y0142812D01*
X0249804Y0142812D02*
X0268767Y0142812D01*
X0268830Y0142769D02*
X0269316Y0142568D01*
X0269832Y0142465D01*
X0270095Y0142465D01*
X0270095Y0145135D01*
X0270095Y0145135D01*
X0270095Y0142465D01*
X0270358Y0142465D01*
X0270874Y0142568D01*
X0271360Y0142769D01*
X0271797Y0143061D01*
X0272169Y0143433D01*
X0272461Y0143871D01*
X0272663Y0144357D01*
X0272765Y0144872D01*
X0272765Y0145135D01*
X0270095Y0145135D01*
X0267425Y0145135D01*
X0267425Y0144872D01*
X0267528Y0144357D01*
X0267729Y0143871D01*
X0268021Y0143433D01*
X0268393Y0143061D01*
X0268830Y0142769D01*
X0270095Y0142812D02*
X0270095Y0142812D01*
X0271424Y0142812D02*
X0280421Y0142812D01*
X0280694Y0142539D02*
X0281603Y0142162D01*
X0282587Y0142162D01*
X0283496Y0142539D01*
X0284192Y0143234D01*
X0284568Y0144143D01*
X0284568Y0145127D01*
X0284192Y0146036D01*
X0283496Y0146732D01*
X0282587Y0147109D01*
X0281603Y0147109D01*
X0280694Y0146732D01*
X0279998Y0146036D01*
X0279622Y0145127D01*
X0279622Y0144143D01*
X0279998Y0143234D01*
X0280694Y0142539D01*
X0279622Y0144410D02*
X0272673Y0144410D01*
X0272765Y0145135D02*
X0272765Y0145398D01*
X0272663Y0145914D01*
X0272461Y0146400D01*
X0272169Y0146838D01*
X0271797Y0147209D01*
X0271360Y0147502D01*
X0270874Y0147703D01*
X0270358Y0147805D01*
X0270095Y0147805D01*
X0269832Y0147805D01*
X0269316Y0147703D01*
X0268830Y0147502D01*
X0268393Y0147209D01*
X0268021Y0146838D01*
X0267729Y0146400D01*
X0267528Y0145914D01*
X0267425Y0145398D01*
X0267425Y0145135D01*
X0270095Y0145135D01*
X0270095Y0145135D01*
X0270095Y0145135D01*
X0272765Y0145135D01*
X0272623Y0146009D02*
X0279987Y0146009D01*
X0284203Y0146009D02*
X0305971Y0146009D01*
X0305122Y0144410D02*
X0284568Y0144410D01*
X0283769Y0142812D02*
X0305466Y0142812D01*
X0309219Y0146009D02*
X0410732Y0146009D01*
X0410732Y0147607D02*
X0271104Y0147607D01*
X0270095Y0147607D02*
X0270095Y0147607D01*
X0270095Y0147805D02*
X0270095Y0145136D01*
X0270095Y0145136D01*
X0270095Y0147805D01*
X0269086Y0147607D02*
X0227621Y0147607D01*
X0227692Y0147536D02*
X0226996Y0148232D01*
X0226087Y0148609D01*
X0225103Y0148609D01*
X0224194Y0148232D01*
X0223498Y0147536D01*
X0223122Y0146627D01*
X0223122Y0145643D01*
X0223498Y0144734D01*
X0224194Y0144039D01*
X0225103Y0143662D01*
X0226087Y0143662D01*
X0226996Y0144039D01*
X0227692Y0144734D01*
X0228068Y0145643D01*
X0228068Y0146627D01*
X0227692Y0147536D01*
X0228068Y0146009D02*
X0267567Y0146009D01*
X0267517Y0144410D02*
X0227368Y0144410D01*
X0223823Y0144410D02*
X0213646Y0144410D01*
X0213669Y0144433D02*
X0213961Y0144871D01*
X0214163Y0145357D01*
X0214265Y0145872D01*
X0214265Y0146135D01*
X0211595Y0146135D01*
X0211595Y0146135D01*
X0211595Y0143465D01*
X0211332Y0143465D01*
X0210816Y0143568D01*
X0210330Y0143769D01*
X0209893Y0144061D01*
X0209521Y0144433D01*
X0209229Y0144871D01*
X0209028Y0145357D01*
X0208925Y0145872D01*
X0208925Y0146135D01*
X0211595Y0146135D01*
X0211595Y0143465D01*
X0211858Y0143465D01*
X0212374Y0143568D01*
X0212860Y0143769D01*
X0213297Y0144061D01*
X0213669Y0144433D01*
X0214265Y0146009D02*
X0223122Y0146009D01*
X0223569Y0147607D02*
X0213823Y0147607D01*
X0213961Y0147400D02*
X0213669Y0147838D01*
X0213297Y0148209D01*
X0212860Y0148502D01*
X0212374Y0148703D01*
X0211858Y0148805D01*
X0211595Y0148805D01*
X0211332Y0148805D01*
X0210816Y0148703D01*
X0210330Y0148502D01*
X0209893Y0148209D01*
X0209521Y0147838D01*
X0209229Y0147400D01*
X0209028Y0146914D01*
X0208925Y0146398D01*
X0208925Y0146135D01*
X0211595Y0146135D01*
X0211595Y0146135D01*
X0211595Y0146135D01*
X0214265Y0146135D01*
X0214265Y0146398D01*
X0214163Y0146914D01*
X0213961Y0147400D01*
X0211595Y0147607D02*
X0211595Y0147607D01*
X0211595Y0148805D02*
X0211595Y0146136D01*
X0211595Y0146136D01*
X0211595Y0148805D01*
X0209367Y0147607D02*
X0051414Y0147607D01*
X0051414Y0146009D02*
X0107802Y0146009D01*
X0107729Y0145900D02*
X0107528Y0145414D01*
X0107425Y0144898D01*
X0107425Y0144635D01*
X0107425Y0144372D01*
X0107528Y0143857D01*
X0107729Y0143371D01*
X0108021Y0142933D01*
X0108393Y0142561D01*
X0108830Y0142269D01*
X0109316Y0142068D01*
X0109832Y0141965D01*
X0110095Y0141965D01*
X0110095Y0144635D01*
X0110095Y0144635D01*
X0110095Y0141965D01*
X0110358Y0141965D01*
X0110874Y0142068D01*
X0111360Y0142269D01*
X0111797Y0142561D01*
X0112169Y0142933D01*
X0112461Y0143371D01*
X0112663Y0143857D01*
X0112765Y0144372D01*
X0112765Y0144635D01*
X0110095Y0144635D01*
X0107425Y0144635D01*
X0110095Y0144635D01*
X0110095Y0144635D01*
X0110095Y0144635D01*
X0112765Y0144635D01*
X0112765Y0144898D01*
X0112663Y0145414D01*
X0112461Y0145900D01*
X0112169Y0146338D01*
X0111797Y0146709D01*
X0111360Y0147002D01*
X0110874Y0147203D01*
X0110358Y0147305D01*
X0110095Y0147305D01*
X0109832Y0147305D01*
X0109316Y0147203D01*
X0108830Y0147002D01*
X0108393Y0146709D01*
X0108021Y0146338D01*
X0107729Y0145900D01*
X0107425Y0144410D02*
X0051414Y0144410D01*
X0051581Y0142812D02*
X0108143Y0142812D01*
X0110095Y0142812D02*
X0110095Y0142812D01*
X0110095Y0144410D02*
X0110095Y0144410D01*
X0110095Y0144636D02*
X0110095Y0147305D01*
X0110095Y0144636D01*
X0110095Y0144636D01*
X0110095Y0146009D02*
X0110095Y0146009D01*
X0112389Y0146009D02*
X0208925Y0146009D01*
X0209544Y0144410D02*
X0136566Y0144410D01*
X0134625Y0144410D02*
X0112765Y0144410D01*
X0112048Y0142812D02*
X0133198Y0142812D01*
X0133300Y0141213D02*
X0051943Y0141213D01*
X0052304Y0139615D02*
X0198077Y0139615D01*
X0197998Y0139536D02*
X0197622Y0138627D01*
X0197622Y0137643D01*
X0197998Y0136734D01*
X0198694Y0136039D01*
X0199603Y0135662D01*
X0200587Y0135662D01*
X0201496Y0136039D01*
X0202192Y0136734D01*
X0202568Y0137643D01*
X0202568Y0138627D01*
X0202192Y0139536D01*
X0201496Y0140232D01*
X0200587Y0140609D01*
X0199603Y0140609D01*
X0198694Y0140232D01*
X0197998Y0139536D01*
X0197622Y0138016D02*
X0052666Y0138016D01*
X0053028Y0136418D02*
X0198315Y0136418D01*
X0201875Y0136418D02*
X0208608Y0136418D01*
X0210095Y0136418D02*
X0210095Y0136418D01*
X0211582Y0136418D02*
X0239425Y0136418D01*
X0240135Y0134819D02*
X0053390Y0134819D01*
X0055095Y0130024D02*
X0055095Y0130024D01*
X0057740Y0130024D02*
X0080950Y0130024D01*
X0081206Y0128425D02*
X0057484Y0128425D01*
X0052702Y0118834D02*
X0051414Y0118834D01*
X0051414Y0117236D02*
X0052452Y0117236D01*
X0053317Y0115637D02*
X0051414Y0115637D01*
X0055095Y0115637D02*
X0055095Y0115637D01*
X0055095Y0117236D02*
X0055095Y0117236D01*
X0083595Y0128425D02*
X0083595Y0128425D01*
X0083595Y0130024D02*
X0083595Y0130024D01*
X0051414Y0149206D02*
X0255303Y0149206D01*
X0255122Y0149643D02*
X0255498Y0148734D01*
X0256194Y0148039D01*
X0257103Y0147662D01*
X0258087Y0147662D01*
X0258996Y0148039D01*
X0259692Y0148734D01*
X0260068Y0149643D01*
X0260068Y0150627D01*
X0259692Y0151536D01*
X0258996Y0152232D01*
X0258087Y0152609D01*
X0257103Y0152609D01*
X0256194Y0152232D01*
X0255498Y0151536D01*
X0255122Y0150627D01*
X0255122Y0149643D01*
X0255195Y0150804D02*
X0120930Y0150804D01*
X0120587Y0150662D02*
X0121496Y0151039D01*
X0122192Y0151734D01*
X0122568Y0152643D01*
X0122568Y0153627D01*
X0122192Y0154536D01*
X0121496Y0155232D01*
X0120587Y0155609D01*
X0119603Y0155609D01*
X0118694Y0155232D01*
X0117998Y0154536D01*
X0117622Y0153627D01*
X0117622Y0152643D01*
X0117998Y0151734D01*
X0118694Y0151039D01*
X0119603Y0150662D01*
X0120587Y0150662D01*
X0119260Y0150804D02*
X0070767Y0150804D01*
X0070328Y0150651D02*
X0071372Y0151016D01*
X0072370Y0151496D01*
X0073307Y0152085D01*
X0074172Y0152775D01*
X0074955Y0153558D01*
X0075645Y0154424D01*
X0076234Y0155361D01*
X0076714Y0156358D01*
X0077080Y0157403D01*
X0077326Y0158482D01*
X0077422Y0159335D01*
X0068395Y0159335D01*
X0068395Y0150308D01*
X0069249Y0150404D01*
X0070328Y0150651D01*
X0068395Y0150804D02*
X0066795Y0150804D01*
X0066795Y0150308D02*
X0066795Y0159335D01*
X0068395Y0159335D01*
X0068395Y0160935D01*
X0077422Y0160935D01*
X0077326Y0161789D01*
X0077080Y0162868D01*
X0076714Y0163913D01*
X0076234Y0164910D01*
X0075645Y0165847D01*
X0074955Y0166713D01*
X0074172Y0167495D01*
X0073307Y0168186D01*
X0072370Y0168774D01*
X0071372Y0169255D01*
X0070328Y0169620D01*
X0069249Y0169867D01*
X0068395Y0169963D01*
X0068395Y0160935D01*
X0066795Y0160935D01*
X0066795Y0159335D01*
X0057768Y0159335D01*
X0057864Y0158482D01*
X0058110Y0157403D01*
X0058476Y0156358D01*
X0058956Y0155361D01*
X0059545Y0154424D01*
X0060235Y0153558D01*
X0061018Y0152775D01*
X0061883Y0152085D01*
X0062821Y0151496D01*
X0063818Y0151016D01*
X0064863Y0150651D01*
X0065942Y0150404D01*
X0066795Y0150308D01*
X0066795Y0152403D02*
X0068395Y0152403D01*
X0068395Y0154001D02*
X0066795Y0154001D01*
X0066795Y0155600D02*
X0068395Y0155600D01*
X0068395Y0157198D02*
X0066795Y0157198D01*
X0066795Y0158797D02*
X0068395Y0158797D01*
X0068395Y0160395D02*
X0226622Y0160395D01*
X0226622Y0160143D02*
X0226998Y0159234D01*
X0227694Y0158539D01*
X0228603Y0158162D01*
X0229587Y0158162D01*
X0230496Y0158539D01*
X0231192Y0159234D01*
X0231568Y0160143D01*
X0231568Y0161127D01*
X0231192Y0162036D01*
X0230496Y0162732D01*
X0229587Y0163109D01*
X0228603Y0163109D01*
X0227694Y0162732D01*
X0226998Y0162036D01*
X0226622Y0161127D01*
X0226622Y0160143D01*
X0227436Y0158797D02*
X0077362Y0158797D01*
X0077008Y0157198D02*
X0238122Y0157198D01*
X0238122Y0157627D02*
X0238122Y0156643D01*
X0238498Y0155734D01*
X0239194Y0155039D01*
X0240103Y0154662D01*
X0241087Y0154662D01*
X0241996Y0155039D01*
X0242692Y0155734D01*
X0243068Y0156643D01*
X0243068Y0157627D01*
X0242692Y0158536D01*
X0241996Y0159232D01*
X0241087Y0159609D01*
X0240103Y0159609D01*
X0239194Y0159232D01*
X0238498Y0158536D01*
X0238122Y0157627D01*
X0238759Y0158797D02*
X0230754Y0158797D01*
X0231568Y0160395D02*
X0250122Y0160395D01*
X0250122Y0160143D02*
X0250498Y0159234D01*
X0251194Y0158539D01*
X0252103Y0158162D01*
X0253087Y0158162D01*
X0253996Y0158539D01*
X0254692Y0159234D01*
X0255068Y0160143D01*
X0255068Y0161127D01*
X0254692Y0162036D01*
X0253996Y0162732D01*
X0253087Y0163109D01*
X0252103Y0163109D01*
X0251194Y0162732D01*
X0250498Y0162036D01*
X0250122Y0161127D01*
X0250122Y0160143D01*
X0250936Y0158797D02*
X0242431Y0158797D01*
X0243068Y0157198D02*
X0302306Y0157198D01*
X0302122Y0157643D02*
X0302498Y0156734D01*
X0303194Y0156039D01*
X0304103Y0155662D01*
X0305087Y0155662D01*
X0305996Y0156039D01*
X0306692Y0156734D01*
X0307068Y0157643D01*
X0307068Y0158627D01*
X0306692Y0159536D01*
X0305996Y0160232D01*
X0305087Y0160609D01*
X0304103Y0160609D01*
X0303194Y0160232D01*
X0302498Y0159536D01*
X0302122Y0158627D01*
X0302122Y0157643D01*
X0302192Y0158797D02*
X0254254Y0158797D01*
X0255068Y0160395D02*
X0303589Y0160395D01*
X0305602Y0160395D02*
X0358225Y0160395D01*
X0358122Y0160643D02*
X0358498Y0159734D01*
X0359194Y0159039D01*
X0360103Y0158662D01*
X0361087Y0158662D01*
X0361996Y0159039D01*
X0362692Y0159734D01*
X0363068Y0160643D01*
X0363068Y0161627D01*
X0362692Y0162536D01*
X0361996Y0163232D01*
X0361087Y0163609D01*
X0360568Y0163609D01*
X0360568Y0163627D01*
X0360192Y0164536D01*
X0359496Y0165232D01*
X0358587Y0165609D01*
X0357603Y0165609D01*
X0356694Y0165232D01*
X0355998Y0164536D01*
X0355622Y0163627D01*
X0355622Y0162643D01*
X0355998Y0161734D01*
X0356694Y0161039D01*
X0357603Y0160662D01*
X0358122Y0160662D01*
X0358122Y0160643D01*
X0359778Y0158797D02*
X0306998Y0158797D01*
X0306884Y0157198D02*
X0363161Y0157198D01*
X0363194Y0157232D02*
X0362498Y0156536D01*
X0362122Y0155627D01*
X0362122Y0154643D01*
X0362498Y0153734D01*
X0363194Y0153039D01*
X0364103Y0152662D01*
X0365087Y0152662D01*
X0365996Y0153039D01*
X0366692Y0153734D01*
X0367068Y0154643D01*
X0367068Y0155627D01*
X0366692Y0156536D01*
X0365996Y0157232D01*
X0365087Y0157609D01*
X0364103Y0157609D01*
X0363194Y0157232D01*
X0362122Y0155600D02*
X0338128Y0155600D01*
X0337996Y0155732D02*
X0337087Y0156109D01*
X0336103Y0156109D01*
X0335194Y0155732D01*
X0334498Y0155036D01*
X0334122Y0154127D01*
X0334122Y0153143D01*
X0334498Y0152234D01*
X0335194Y0151539D01*
X0336103Y0151162D01*
X0337087Y0151162D01*
X0337996Y0151539D01*
X0338692Y0152234D01*
X0339068Y0153143D01*
X0339068Y0154127D01*
X0338692Y0155036D01*
X0337996Y0155732D01*
X0339068Y0154001D02*
X0362388Y0154001D01*
X0366802Y0154001D02*
X0388882Y0154001D01*
X0388545Y0154424D02*
X0389235Y0153558D01*
X0390018Y0152775D01*
X0390883Y0152085D01*
X0391821Y0151496D01*
X0392818Y0151016D01*
X0393863Y0150651D01*
X0394942Y0150404D01*
X0395795Y0150308D01*
X0395795Y0159335D01*
X0397395Y0159335D01*
X0397395Y0150308D01*
X0398249Y0150404D01*
X0399328Y0150651D01*
X0400372Y0151016D01*
X0401370Y0151496D01*
X0402307Y0152085D01*
X0403172Y0152775D01*
X0403955Y0153558D01*
X0404645Y0154424D01*
X0405234Y0155361D01*
X0405714Y0156358D01*
X0406080Y0157403D01*
X0406326Y0158482D01*
X0406422Y0159335D01*
X0397395Y0159335D01*
X0397395Y0160935D01*
X0406422Y0160935D01*
X0406326Y0161789D01*
X0406080Y0162868D01*
X0405714Y0163913D01*
X0405234Y0164910D01*
X0404645Y0165847D01*
X0403955Y0166713D01*
X0403172Y0167495D01*
X0402307Y0168186D01*
X0401370Y0168774D01*
X0400372Y0169255D01*
X0399328Y0169620D01*
X0398249Y0169867D01*
X0397395Y0169963D01*
X0397395Y0160935D01*
X0395795Y0160935D01*
X0395795Y0159335D01*
X0386768Y0159335D01*
X0386864Y0158482D01*
X0387110Y0157403D01*
X0387476Y0156358D01*
X0387956Y0155361D01*
X0388545Y0154424D01*
X0387841Y0155600D02*
X0367068Y0155600D01*
X0366030Y0157198D02*
X0387182Y0157198D01*
X0386828Y0158797D02*
X0370912Y0158797D01*
X0370587Y0158662D02*
X0371496Y0159039D01*
X0372192Y0159734D01*
X0372568Y0160643D01*
X0372568Y0161627D01*
X0372192Y0162536D01*
X0371593Y0163135D01*
X0372192Y0163734D01*
X0372568Y0164643D01*
X0372568Y0165627D01*
X0372192Y0166536D01*
X0371496Y0167232D01*
X0370587Y0167609D01*
X0369603Y0167609D01*
X0368694Y0167232D01*
X0367998Y0166536D01*
X0367622Y0165627D01*
X0367622Y0164643D01*
X0367998Y0163734D01*
X0368597Y0163135D01*
X0367998Y0162536D01*
X0367622Y0161627D01*
X0367622Y0160643D01*
X0367998Y0159734D01*
X0368694Y0159039D01*
X0369603Y0158662D01*
X0370587Y0158662D01*
X0369278Y0158797D02*
X0361412Y0158797D01*
X0362966Y0160395D02*
X0367725Y0160395D01*
X0367774Y0161994D02*
X0362916Y0161994D01*
X0361126Y0163593D02*
X0368140Y0163593D01*
X0367622Y0165191D02*
X0365148Y0165191D01*
X0364996Y0165039D02*
X0365692Y0165734D01*
X0366068Y0166643D01*
X0366068Y0167627D01*
X0365692Y0168536D01*
X0364996Y0169232D01*
X0364087Y0169609D01*
X0363103Y0169609D01*
X0362194Y0169232D01*
X0361498Y0168536D01*
X0361122Y0167627D01*
X0361122Y0166643D01*
X0361498Y0165734D01*
X0362194Y0165039D01*
X0363103Y0164662D01*
X0364087Y0164662D01*
X0364996Y0165039D01*
X0366068Y0166790D02*
X0368252Y0166790D01*
X0365753Y0168388D02*
X0391206Y0168388D01*
X0390883Y0168186D02*
X0390018Y0167495D01*
X0389235Y0166713D01*
X0388545Y0165847D01*
X0387956Y0164910D01*
X0387476Y0163913D01*
X0387110Y0162868D01*
X0386864Y0161789D01*
X0386768Y0160935D01*
X0395795Y0160935D01*
X0395795Y0169963D01*
X0394942Y0169867D01*
X0393863Y0169620D01*
X0392818Y0169255D01*
X0391821Y0168774D01*
X0390883Y0168186D01*
X0389312Y0166790D02*
X0371939Y0166790D01*
X0372568Y0165191D02*
X0388133Y0165191D01*
X0387364Y0163593D02*
X0372050Y0163593D01*
X0372416Y0161994D02*
X0386911Y0161994D01*
X0395795Y0161994D02*
X0397395Y0161994D01*
X0397395Y0160395D02*
X0410732Y0160395D01*
X0410732Y0158797D02*
X0406362Y0158797D01*
X0406008Y0157198D02*
X0410732Y0157198D01*
X0410732Y0155600D02*
X0405349Y0155600D01*
X0404309Y0154001D02*
X0410732Y0154001D01*
X0410732Y0152403D02*
X0402705Y0152403D01*
X0399767Y0150804D02*
X0410732Y0150804D01*
X0410732Y0149206D02*
X0259887Y0149206D01*
X0259995Y0150804D02*
X0288278Y0150804D01*
X0288330Y0150769D02*
X0288816Y0150568D01*
X0289332Y0150465D01*
X0289595Y0150465D01*
X0289595Y0153135D01*
X0289595Y0153135D01*
X0289595Y0150465D01*
X0289858Y0150465D01*
X0290374Y0150568D01*
X0290860Y0150769D01*
X0291297Y0151061D01*
X0291669Y0151433D01*
X0291961Y0151871D01*
X0292163Y0152357D01*
X0292265Y0152872D01*
X0292265Y0153135D01*
X0289595Y0153135D01*
X0286925Y0153135D01*
X0286925Y0152872D01*
X0287028Y0152357D01*
X0287229Y0151871D01*
X0287521Y0151433D01*
X0287893Y0151061D01*
X0288330Y0150769D01*
X0289595Y0150804D02*
X0289595Y0150804D01*
X0290913Y0150804D02*
X0393423Y0150804D01*
X0395795Y0150804D02*
X0397395Y0150804D01*
X0397395Y0152403D02*
X0395795Y0152403D01*
X0395795Y0154001D02*
X0397395Y0154001D01*
X0397395Y0155600D02*
X0395795Y0155600D01*
X0395795Y0157198D02*
X0397395Y0157198D01*
X0397395Y0158797D02*
X0395795Y0158797D01*
X0395795Y0160395D02*
X0372466Y0160395D01*
X0362042Y0165191D02*
X0359537Y0165191D01*
X0361122Y0166790D02*
X0355068Y0166790D01*
X0355068Y0166643D02*
X0354692Y0165734D01*
X0353996Y0165039D01*
X0353087Y0164662D01*
X0352103Y0164662D01*
X0351194Y0165039D01*
X0350498Y0165734D01*
X0350122Y0166643D01*
X0350122Y0167627D01*
X0350498Y0168536D01*
X0351194Y0169232D01*
X0352103Y0169609D01*
X0353087Y0169609D01*
X0353996Y0169232D01*
X0354692Y0168536D01*
X0355068Y0167627D01*
X0355068Y0166643D01*
X0354148Y0165191D02*
X0356653Y0165191D01*
X0355622Y0163593D02*
X0250050Y0163593D01*
X0250192Y0163734D02*
X0250568Y0164643D01*
X0250568Y0165627D01*
X0250192Y0166536D01*
X0249496Y0167232D01*
X0248587Y0167609D01*
X0247603Y0167609D01*
X0246694Y0167232D01*
X0245998Y0166536D01*
X0245622Y0165627D01*
X0245622Y0164643D01*
X0245998Y0163734D01*
X0246694Y0163039D01*
X0247603Y0162662D01*
X0248587Y0162662D01*
X0249496Y0163039D01*
X0250192Y0163734D01*
X0250568Y0165191D02*
X0351042Y0165191D01*
X0350122Y0166790D02*
X0249939Y0166790D01*
X0246252Y0166790D02*
X0131750Y0166790D01*
X0131828Y0166979D02*
X0131160Y0165365D01*
X0129925Y0164130D01*
X0128311Y0163461D01*
X0126564Y0163461D01*
X0124951Y0164130D01*
X0123716Y0165365D01*
X0123047Y0166979D01*
X0123047Y0168725D01*
X0123716Y0170339D01*
X0124951Y0171574D01*
X0126564Y0172243D01*
X0128311Y0172243D01*
X0129925Y0171574D01*
X0131160Y0170339D01*
X0131828Y0168725D01*
X0131828Y0166979D01*
X0131828Y0168388D02*
X0350437Y0168388D01*
X0354753Y0168388D02*
X0361437Y0168388D01*
X0355891Y0161994D02*
X0254709Y0161994D01*
X0250481Y0161994D02*
X0231209Y0161994D01*
X0226981Y0161994D02*
X0193799Y0161994D01*
X0193692Y0161734D02*
X0194068Y0162643D01*
X0194068Y0163627D01*
X0193692Y0164536D01*
X0192996Y0165232D01*
X0192087Y0165609D01*
X0191103Y0165609D01*
X0190194Y0165232D01*
X0190095Y0165133D01*
X0189996Y0165232D01*
X0189087Y0165609D01*
X0188103Y0165609D01*
X0187194Y0165232D01*
X0187095Y0165133D01*
X0186996Y0165232D01*
X0186087Y0165609D01*
X0185103Y0165609D01*
X0184194Y0165232D01*
X0184095Y0165133D01*
X0183996Y0165232D01*
X0183087Y0165609D01*
X0182103Y0165609D01*
X0181194Y0165232D01*
X0180498Y0164536D01*
X0180122Y0163627D01*
X0180122Y0162643D01*
X0180498Y0161734D01*
X0181194Y0161039D01*
X0182103Y0160662D01*
X0183087Y0160662D01*
X0183996Y0161039D01*
X0184095Y0161138D01*
X0184194Y0161039D01*
X0185103Y0160662D01*
X0186087Y0160662D01*
X0186996Y0161039D01*
X0187095Y0161138D01*
X0187194Y0161039D01*
X0188103Y0160662D01*
X0189087Y0160662D01*
X0189996Y0161039D01*
X0190095Y0161138D01*
X0190194Y0161039D01*
X0191103Y0160662D01*
X0192087Y0160662D01*
X0192996Y0161039D01*
X0193692Y0161734D01*
X0194068Y0163593D02*
X0246140Y0163593D01*
X0245622Y0165191D02*
X0193037Y0165191D01*
X0190153Y0165191D02*
X0190037Y0165191D01*
X0187153Y0165191D02*
X0187037Y0165191D01*
X0184153Y0165191D02*
X0184037Y0165191D01*
X0181153Y0165191D02*
X0130986Y0165191D01*
X0128627Y0163593D02*
X0180122Y0163593D01*
X0180391Y0161994D02*
X0077279Y0161994D01*
X0076826Y0163593D02*
X0106017Y0163593D01*
X0105992Y0163601D02*
X0106678Y0163378D01*
X0107392Y0163265D01*
X0107553Y0163265D01*
X0107553Y0167652D01*
X0107953Y0167652D01*
X0107953Y0168052D01*
X0112340Y0168052D01*
X0112340Y0168213D01*
X0112227Y0168926D01*
X0112004Y0169613D01*
X0111676Y0170256D01*
X0111252Y0170840D01*
X0110741Y0171351D01*
X0110157Y0171775D01*
X0109514Y0172103D01*
X0108827Y0172326D01*
X0108114Y0172439D01*
X0107953Y0172439D01*
X0107953Y0168052D01*
X0107553Y0168052D01*
X0107553Y0172439D01*
X0107392Y0172439D01*
X0106678Y0172326D01*
X0105992Y0172103D01*
X0105348Y0171775D01*
X0104764Y0171351D01*
X0104254Y0170840D01*
X0103829Y0170256D01*
X0103501Y0169613D01*
X0103278Y0168926D01*
X0103165Y0168213D01*
X0103165Y0168052D01*
X0107553Y0168052D01*
X0107553Y0167652D01*
X0103165Y0167652D01*
X0103165Y0167491D01*
X0103278Y0166778D01*
X0103501Y0166091D01*
X0103829Y0165448D01*
X0104254Y0164863D01*
X0104764Y0164353D01*
X0105348Y0163928D01*
X0105992Y0163601D01*
X0107553Y0163593D02*
X0107953Y0163593D01*
X0107953Y0163265D02*
X0108114Y0163265D01*
X0108827Y0163378D01*
X0109514Y0163601D01*
X0110157Y0163928D01*
X0110741Y0164353D01*
X0111252Y0164863D01*
X0111676Y0165448D01*
X0112004Y0166091D01*
X0112227Y0166778D01*
X0112340Y0167491D01*
X0112340Y0167652D01*
X0107953Y0167652D01*
X0107953Y0163265D01*
X0109489Y0163593D02*
X0116405Y0163593D01*
X0116722Y0163461D02*
X0118468Y0163461D01*
X0120082Y0164130D01*
X0121317Y0165365D01*
X0121986Y0166979D01*
X0121986Y0168725D01*
X0121317Y0170339D01*
X0120082Y0171574D01*
X0118468Y0172243D01*
X0116722Y0172243D01*
X0115108Y0171574D01*
X0113873Y0170339D01*
X0113205Y0168725D01*
X0113205Y0166979D01*
X0113873Y0165365D01*
X0115108Y0164130D01*
X0116722Y0163461D01*
X0118785Y0163593D02*
X0126248Y0163593D01*
X0123889Y0165191D02*
X0121143Y0165191D01*
X0121907Y0166790D02*
X0123125Y0166790D01*
X0123047Y0168388D02*
X0121986Y0168388D01*
X0121463Y0169987D02*
X0123570Y0169987D01*
X0124977Y0171585D02*
X0120056Y0171585D01*
X0115135Y0171585D02*
X0110419Y0171585D01*
X0111814Y0169987D02*
X0113727Y0169987D01*
X0113205Y0168388D02*
X0112312Y0168388D01*
X0112229Y0166790D02*
X0113283Y0166790D01*
X0114047Y0165191D02*
X0111490Y0165191D01*
X0107953Y0165191D02*
X0107553Y0165191D01*
X0107553Y0166790D02*
X0107953Y0166790D01*
X0107953Y0168388D02*
X0107553Y0168388D01*
X0107553Y0169987D02*
X0107953Y0169987D01*
X0107953Y0171585D02*
X0107553Y0171585D01*
X0105086Y0171585D02*
X0051414Y0171585D01*
X0051414Y0169987D02*
X0103692Y0169987D01*
X0103193Y0168388D02*
X0072985Y0168388D01*
X0074878Y0166790D02*
X0103276Y0166790D01*
X0104016Y0165191D02*
X0076058Y0165191D01*
X0068395Y0165191D02*
X0066795Y0165191D01*
X0066795Y0163593D02*
X0068395Y0163593D01*
X0068395Y0161994D02*
X0066795Y0161994D01*
X0066795Y0160935D02*
X0066795Y0169963D01*
X0065942Y0169867D01*
X0064863Y0169620D01*
X0063818Y0169255D01*
X0062821Y0168774D01*
X0061883Y0168186D01*
X0061018Y0167495D01*
X0060235Y0166713D01*
X0059545Y0165847D01*
X0058956Y0164910D01*
X0058476Y0163913D01*
X0058110Y0162868D01*
X0057864Y0161789D01*
X0057768Y0160935D01*
X0066795Y0160935D01*
X0066795Y0160395D02*
X0051414Y0160395D01*
X0051414Y0158797D02*
X0057828Y0158797D01*
X0058182Y0157198D02*
X0051414Y0157198D01*
X0051414Y0155600D02*
X0058841Y0155600D01*
X0059882Y0154001D02*
X0051414Y0154001D01*
X0051414Y0152403D02*
X0061485Y0152403D01*
X0064423Y0150804D02*
X0051414Y0150804D01*
X0051414Y0161994D02*
X0057911Y0161994D01*
X0058364Y0163593D02*
X0051414Y0163593D01*
X0051414Y0165191D02*
X0059133Y0165191D01*
X0060312Y0166790D02*
X0051414Y0166790D01*
X0051414Y0168388D02*
X0062206Y0168388D01*
X0066795Y0168388D02*
X0068395Y0168388D01*
X0068395Y0166790D02*
X0066795Y0166790D01*
X0051414Y0173184D02*
X0410732Y0173184D01*
X0410732Y0174782D02*
X0051414Y0174782D01*
X0076349Y0155600D02*
X0119582Y0155600D01*
X0120608Y0155600D02*
X0131562Y0155600D01*
X0131498Y0155536D02*
X0131122Y0154627D01*
X0131122Y0153643D01*
X0131498Y0152734D01*
X0132194Y0152039D01*
X0133103Y0151662D01*
X0134087Y0151662D01*
X0134996Y0152039D01*
X0135595Y0152638D01*
X0136194Y0152039D01*
X0137103Y0151662D01*
X0138087Y0151662D01*
X0138996Y0152039D01*
X0139595Y0152638D01*
X0140194Y0152039D01*
X0141103Y0151662D01*
X0142087Y0151662D01*
X0142996Y0152039D01*
X0143595Y0152638D01*
X0144194Y0152039D01*
X0145103Y0151662D01*
X0146087Y0151662D01*
X0146996Y0152039D01*
X0147595Y0152638D01*
X0148194Y0152039D01*
X0149103Y0151662D01*
X0150087Y0151662D01*
X0150996Y0152039D01*
X0151345Y0152388D01*
X0151694Y0152039D01*
X0152603Y0151662D01*
X0153587Y0151662D01*
X0154496Y0152039D01*
X0155095Y0152638D01*
X0155694Y0152039D01*
X0156603Y0151662D01*
X0157587Y0151662D01*
X0158496Y0152039D01*
X0159095Y0152638D01*
X0159694Y0152039D01*
X0160603Y0151662D01*
X0161587Y0151662D01*
X0162496Y0152039D01*
X0163095Y0152638D01*
X0163694Y0152039D01*
X0164603Y0151662D01*
X0165587Y0151662D01*
X0166496Y0152039D01*
X0167192Y0152734D01*
X0167568Y0153643D01*
X0167568Y0154627D01*
X0167192Y0155536D01*
X0166496Y0156232D01*
X0165587Y0156609D01*
X0164603Y0156609D01*
X0163694Y0156232D01*
X0163095Y0155633D01*
X0162496Y0156232D01*
X0161587Y0156609D01*
X0160603Y0156609D01*
X0159694Y0156232D01*
X0159095Y0155633D01*
X0158496Y0156232D01*
X0157587Y0156609D01*
X0156603Y0156609D01*
X0155694Y0156232D01*
X0155095Y0155633D01*
X0154496Y0156232D01*
X0153587Y0156609D01*
X0152603Y0156609D01*
X0151694Y0156232D01*
X0151345Y0155883D01*
X0150996Y0156232D01*
X0150087Y0156609D01*
X0149103Y0156609D01*
X0148194Y0156232D01*
X0147595Y0155633D01*
X0146996Y0156232D01*
X0146087Y0156609D01*
X0145103Y0156609D01*
X0144194Y0156232D01*
X0143595Y0155633D01*
X0142996Y0156232D01*
X0142087Y0156609D01*
X0141103Y0156609D01*
X0140194Y0156232D01*
X0139595Y0155633D01*
X0138996Y0156232D01*
X0138087Y0156609D01*
X0137103Y0156609D01*
X0136194Y0156232D01*
X0135595Y0155633D01*
X0134996Y0156232D01*
X0134087Y0156609D01*
X0133103Y0156609D01*
X0132194Y0156232D01*
X0131498Y0155536D01*
X0131122Y0154001D02*
X0122413Y0154001D01*
X0122469Y0152403D02*
X0131830Y0152403D01*
X0135360Y0152403D02*
X0135830Y0152403D01*
X0139360Y0152403D02*
X0139830Y0152403D01*
X0143360Y0152403D02*
X0143830Y0152403D01*
X0147360Y0152403D02*
X0147830Y0152403D01*
X0154860Y0152403D02*
X0155330Y0152403D01*
X0158860Y0152403D02*
X0159330Y0152403D01*
X0162860Y0152403D02*
X0163330Y0152403D01*
X0166860Y0152403D02*
X0243929Y0152403D01*
X0243998Y0152234D02*
X0244694Y0151539D01*
X0245603Y0151162D01*
X0246587Y0151162D01*
X0247496Y0151539D01*
X0248192Y0152234D01*
X0248568Y0153143D01*
X0248568Y0154127D01*
X0248192Y0155036D01*
X0247496Y0155732D01*
X0246587Y0156109D01*
X0245603Y0156109D01*
X0244694Y0155732D01*
X0243998Y0155036D01*
X0243622Y0154127D01*
X0243622Y0153143D01*
X0243998Y0152234D01*
X0243622Y0154001D02*
X0167568Y0154001D01*
X0167128Y0155600D02*
X0238633Y0155600D01*
X0242557Y0155600D02*
X0244562Y0155600D01*
X0247628Y0155600D02*
X0288568Y0155600D01*
X0288330Y0155502D02*
X0287893Y0155209D01*
X0287521Y0154838D01*
X0287229Y0154400D01*
X0287028Y0153914D01*
X0286925Y0153398D01*
X0286925Y0153135D01*
X0289595Y0153135D01*
X0289595Y0153135D01*
X0289595Y0153135D01*
X0292265Y0153135D01*
X0292265Y0153398D01*
X0292163Y0153914D01*
X0291961Y0154400D01*
X0291669Y0154838D01*
X0291297Y0155209D01*
X0290860Y0155502D01*
X0290374Y0155703D01*
X0289858Y0155805D01*
X0289595Y0155805D01*
X0289332Y0155805D01*
X0288816Y0155703D01*
X0288330Y0155502D01*
X0289595Y0155600D02*
X0289595Y0155600D01*
X0289595Y0155805D02*
X0289595Y0153136D01*
X0289595Y0153136D01*
X0289595Y0155805D01*
X0290622Y0155600D02*
X0335062Y0155600D01*
X0334122Y0154001D02*
X0292126Y0154001D01*
X0292172Y0152403D02*
X0334429Y0152403D01*
X0338762Y0152403D02*
X0390485Y0152403D01*
X0395795Y0163593D02*
X0397395Y0163593D01*
X0397395Y0165191D02*
X0395795Y0165191D01*
X0395795Y0166790D02*
X0397395Y0166790D01*
X0397395Y0168388D02*
X0395795Y0168388D01*
X0401985Y0168388D02*
X0410732Y0168388D01*
X0410732Y0166790D02*
X0403878Y0166790D01*
X0405058Y0165191D02*
X0410732Y0165191D01*
X0410732Y0163593D02*
X0405826Y0163593D01*
X0406279Y0161994D02*
X0410732Y0161994D01*
X0410732Y0169987D02*
X0131306Y0169987D01*
X0129898Y0171585D02*
X0410732Y0171585D01*
X0410732Y0138016D02*
X0345923Y0138016D01*
X0346816Y0136418D02*
X0410732Y0136418D01*
X0410732Y0134819D02*
X0346986Y0134819D01*
X0346554Y0133221D02*
X0391983Y0133221D01*
X0396530Y0133221D02*
X0410732Y0133221D01*
X0410732Y0131622D02*
X0397797Y0131622D01*
X0398157Y0130024D02*
X0410732Y0130024D01*
X0410732Y0128425D02*
X0397835Y0128425D01*
X0396621Y0126827D02*
X0410732Y0126827D01*
X0389095Y0126827D02*
X0389095Y0126827D01*
X0386510Y0126827D02*
X0346647Y0126827D01*
X0346986Y0125228D02*
X0386581Y0125228D01*
X0386330Y0123630D02*
X0346724Y0123630D01*
X0345700Y0122031D02*
X0386168Y0122031D01*
X0390924Y0112440D02*
X0346307Y0112440D01*
X0344225Y0110842D02*
X0390356Y0110842D01*
X0397589Y0112440D02*
X0410732Y0112440D01*
X0410732Y0110842D02*
X0398157Y0110842D01*
X0398043Y0109243D02*
X0410732Y0109243D01*
X0410732Y0107645D02*
X0397124Y0107645D01*
X0410732Y0102849D02*
X0320538Y0102849D01*
X0318652Y0102849D02*
X0309306Y0102849D01*
X0308996Y0102539D02*
X0309692Y0103234D01*
X0310068Y0104143D01*
X0310068Y0105127D01*
X0309692Y0106036D01*
X0308996Y0106732D01*
X0308087Y0107109D01*
X0307103Y0107109D01*
X0306194Y0106732D01*
X0305498Y0106036D01*
X0305122Y0105127D01*
X0305122Y0104143D01*
X0305498Y0103234D01*
X0306194Y0102539D01*
X0307103Y0102162D01*
X0308087Y0102162D01*
X0308996Y0102539D01*
X0310068Y0104448D02*
X0317203Y0104448D01*
X0317295Y0106046D02*
X0309682Y0106046D01*
X0305508Y0106046D02*
X0299895Y0106046D01*
X0300068Y0105627D02*
X0299692Y0106536D01*
X0298996Y0107232D01*
X0298087Y0107609D01*
X0297103Y0107609D01*
X0296194Y0107232D01*
X0295498Y0106536D01*
X0295122Y0105627D01*
X0295122Y0104643D01*
X0295498Y0103734D01*
X0296194Y0103039D01*
X0297103Y0102662D01*
X0298087Y0102662D01*
X0298996Y0103039D01*
X0299692Y0103734D01*
X0300068Y0104643D01*
X0300068Y0105627D01*
X0299987Y0104448D02*
X0305122Y0104448D01*
X0305884Y0102849D02*
X0298538Y0102849D01*
X0296652Y0102849D02*
X0257568Y0102849D01*
X0257198Y0101251D02*
X0410732Y0101251D01*
X0410732Y0099652D02*
X0268076Y0099652D01*
X0268192Y0099536D02*
X0267496Y0100232D01*
X0266587Y0100609D01*
X0265603Y0100609D01*
X0264694Y0100232D01*
X0263998Y0099536D01*
X0263622Y0098627D01*
X0263622Y0097643D01*
X0263998Y0096734D01*
X0264694Y0096039D01*
X0265603Y0095662D01*
X0266587Y0095662D01*
X0267496Y0096039D01*
X0268192Y0096734D01*
X0268568Y0097643D01*
X0268568Y0098627D01*
X0268192Y0099536D01*
X0268568Y0098054D02*
X0287016Y0098054D01*
X0287194Y0098232D02*
X0286498Y0097536D01*
X0286122Y0096627D01*
X0286122Y0095643D01*
X0286498Y0094734D01*
X0287194Y0094039D01*
X0288103Y0093662D01*
X0289087Y0093662D01*
X0289996Y0094039D01*
X0290469Y0094512D01*
X0290521Y0094433D01*
X0290893Y0094061D01*
X0291330Y0093769D01*
X0291816Y0093568D01*
X0292332Y0093465D01*
X0292595Y0093465D01*
X0292595Y0096135D01*
X0292595Y0096135D01*
X0292595Y0093465D01*
X0292858Y0093465D01*
X0293374Y0093568D01*
X0293860Y0093769D01*
X0294297Y0094061D01*
X0294669Y0094433D01*
X0294961Y0094871D01*
X0295163Y0095357D01*
X0295265Y0095872D01*
X0295265Y0096135D01*
X0292595Y0096135D01*
X0292595Y0096135D01*
X0295265Y0096135D01*
X0295265Y0096398D01*
X0295163Y0096914D01*
X0294961Y0097400D01*
X0294669Y0097837D01*
X0294297Y0098209D01*
X0293860Y0098502D01*
X0293374Y0098703D01*
X0292858Y0098805D01*
X0292595Y0098805D01*
X0292332Y0098805D01*
X0291816Y0098703D01*
X0291330Y0098502D01*
X0290893Y0098209D01*
X0290521Y0097837D01*
X0290469Y0097759D01*
X0289996Y0098232D01*
X0289087Y0098609D01*
X0288103Y0098609D01*
X0287194Y0098232D01*
X0286122Y0096455D02*
X0267912Y0096455D01*
X0265696Y0094857D02*
X0286448Y0094857D01*
X0290175Y0098054D02*
X0290737Y0098054D01*
X0292595Y0098054D02*
X0292595Y0098054D01*
X0292595Y0098805D02*
X0292595Y0096136D01*
X0292595Y0096136D01*
X0292595Y0098805D01*
X0294453Y0098054D02*
X0311516Y0098054D01*
X0311694Y0098232D02*
X0310998Y0097536D01*
X0310622Y0096627D01*
X0310622Y0095643D01*
X0310998Y0094734D01*
X0311694Y0094039D01*
X0312603Y0093662D01*
X0313587Y0093662D01*
X0314496Y0094039D01*
X0314969Y0094512D01*
X0315021Y0094433D01*
X0315393Y0094061D01*
X0315830Y0093769D01*
X0316316Y0093568D01*
X0316832Y0093465D01*
X0317095Y0093465D01*
X0317095Y0096135D01*
X0317095Y0096135D01*
X0317095Y0093465D01*
X0317358Y0093465D01*
X0317874Y0093568D01*
X0318360Y0093769D01*
X0318797Y0094061D01*
X0318984Y0094249D01*
X0319194Y0094039D01*
X0320103Y0093662D01*
X0321087Y0093662D01*
X0321996Y0094039D01*
X0322692Y0094734D01*
X0323068Y0095643D01*
X0323068Y0096627D01*
X0322692Y0097536D01*
X0321996Y0098232D01*
X0321087Y0098609D01*
X0320103Y0098609D01*
X0319194Y0098232D01*
X0318984Y0098022D01*
X0318797Y0098209D01*
X0318360Y0098502D01*
X0317874Y0098703D01*
X0317358Y0098805D01*
X0317095Y0098805D01*
X0316832Y0098805D01*
X0316316Y0098703D01*
X0315830Y0098502D01*
X0315393Y0098209D01*
X0315021Y0097837D01*
X0314969Y0097759D01*
X0314496Y0098232D01*
X0313587Y0098609D01*
X0312603Y0098609D01*
X0311694Y0098232D01*
X0310622Y0096455D02*
X0295254Y0096455D01*
X0294952Y0094857D02*
X0310948Y0094857D01*
X0317095Y0094857D02*
X0317095Y0094857D01*
X0317095Y0096136D02*
X0317095Y0098805D01*
X0317095Y0096136D01*
X0317095Y0096136D01*
X0317095Y0096455D02*
X0317095Y0096455D01*
X0317095Y0098054D02*
X0317095Y0098054D01*
X0315237Y0098054D02*
X0314675Y0098054D01*
X0318953Y0098054D02*
X0319016Y0098054D01*
X0322175Y0098054D02*
X0387831Y0098054D01*
X0387729Y0097900D02*
X0388021Y0098337D01*
X0388393Y0098709D01*
X0388830Y0099002D01*
X0389316Y0099203D01*
X0389832Y0099305D01*
X0390095Y0099305D01*
X0390095Y0096636D01*
X0390095Y0096636D01*
X0390095Y0099305D01*
X0390358Y0099305D01*
X0390874Y0099203D01*
X0391360Y0099002D01*
X0391797Y0098709D01*
X0392169Y0098337D01*
X0392461Y0097900D01*
X0392663Y0097414D01*
X0392765Y0096898D01*
X0392765Y0096635D01*
X0390095Y0096635D01*
X0390095Y0096635D01*
X0390095Y0093965D01*
X0389832Y0093965D01*
X0389316Y0094068D01*
X0388830Y0094269D01*
X0388393Y0094561D01*
X0388021Y0094933D01*
X0387729Y0095371D01*
X0387528Y0095857D01*
X0387425Y0096372D01*
X0387425Y0096635D01*
X0390095Y0096635D01*
X0390095Y0093965D01*
X0390358Y0093965D01*
X0390874Y0094068D01*
X0391360Y0094269D01*
X0391797Y0094561D01*
X0392169Y0094933D01*
X0392461Y0095371D01*
X0392663Y0095857D01*
X0392765Y0096372D01*
X0392765Y0096635D01*
X0390095Y0096635D01*
X0390095Y0096635D01*
X0390095Y0096635D01*
X0387425Y0096635D01*
X0387425Y0096898D01*
X0387528Y0097414D01*
X0387729Y0097900D01*
X0387425Y0096455D02*
X0323068Y0096455D01*
X0322742Y0094857D02*
X0350424Y0094857D01*
X0350498Y0095036D02*
X0350122Y0094127D01*
X0350122Y0093143D01*
X0350498Y0092234D01*
X0351194Y0091539D01*
X0352103Y0091162D01*
X0353087Y0091162D01*
X0353996Y0091539D01*
X0354692Y0092234D01*
X0355068Y0093143D01*
X0355068Y0094127D01*
X0354692Y0095036D01*
X0353996Y0095732D01*
X0353087Y0096109D01*
X0352103Y0096109D01*
X0351194Y0095732D01*
X0350498Y0095036D01*
X0350122Y0093258D02*
X0267014Y0093258D01*
X0268069Y0091660D02*
X0297902Y0091660D01*
X0298021Y0091837D02*
X0297729Y0091400D01*
X0297528Y0090914D01*
X0297425Y0090398D01*
X0297425Y0090135D01*
X0297425Y0089872D01*
X0297528Y0089357D01*
X0297729Y0088871D01*
X0298021Y0088433D01*
X0298393Y0088061D01*
X0298830Y0087769D01*
X0299316Y0087568D01*
X0299832Y0087465D01*
X0300095Y0087465D01*
X0300095Y0090135D01*
X0300095Y0090135D01*
X0300095Y0087465D01*
X0300358Y0087465D01*
X0300874Y0087568D01*
X0301360Y0087769D01*
X0301797Y0088061D01*
X0302169Y0088433D01*
X0302461Y0088871D01*
X0302663Y0089357D01*
X0302765Y0089872D01*
X0302765Y0090135D01*
X0300095Y0090135D01*
X0297425Y0090135D01*
X0300095Y0090135D01*
X0300095Y0090135D01*
X0300095Y0090135D01*
X0302765Y0090135D01*
X0302765Y0090398D01*
X0302663Y0090914D01*
X0302461Y0091400D01*
X0302169Y0091837D01*
X0301797Y0092209D01*
X0301360Y0092502D01*
X0300874Y0092703D01*
X0300358Y0092805D01*
X0300095Y0092805D01*
X0299832Y0092805D01*
X0299316Y0092703D01*
X0298830Y0092502D01*
X0298393Y0092209D01*
X0298021Y0091837D01*
X0297425Y0090061D02*
X0269068Y0090061D01*
X0268786Y0088462D02*
X0298002Y0088462D01*
X0300095Y0088462D02*
X0300095Y0088462D01*
X0300095Y0090061D02*
X0300095Y0090061D01*
X0300095Y0090136D02*
X0300095Y0092805D01*
X0300095Y0090136D01*
X0300095Y0090136D01*
X0300095Y0091660D02*
X0300095Y0091660D01*
X0302288Y0091660D02*
X0351073Y0091660D01*
X0354117Y0091660D02*
X0410732Y0091660D01*
X0410732Y0093258D02*
X0355068Y0093258D01*
X0354766Y0094857D02*
X0388098Y0094857D01*
X0390095Y0094857D02*
X0390095Y0094857D01*
X0390095Y0096455D02*
X0390095Y0096455D01*
X0390095Y0098054D02*
X0390095Y0098054D01*
X0392359Y0098054D02*
X0410732Y0098054D01*
X0410732Y0096455D02*
X0392765Y0096455D01*
X0392092Y0094857D02*
X0410732Y0094857D01*
X0410732Y0090061D02*
X0407946Y0090061D01*
X0407797Y0090209D02*
X0407360Y0090502D01*
X0406874Y0090703D01*
X0406358Y0090805D01*
X0406095Y0090805D01*
X0405832Y0090805D01*
X0405316Y0090703D01*
X0404830Y0090502D01*
X0404393Y0090209D01*
X0404021Y0089837D01*
X0403729Y0089400D01*
X0403528Y0088914D01*
X0403425Y0088398D01*
X0403425Y0088135D01*
X0403425Y0087872D01*
X0403528Y0087357D01*
X0403729Y0086871D01*
X0404021Y0086433D01*
X0404393Y0086061D01*
X0404830Y0085769D01*
X0405316Y0085568D01*
X0405832Y0085465D01*
X0406095Y0085465D01*
X0406095Y0088135D01*
X0406095Y0088135D01*
X0406095Y0085465D01*
X0406358Y0085465D01*
X0406874Y0085568D01*
X0407360Y0085769D01*
X0407797Y0086061D01*
X0408169Y0086433D01*
X0408461Y0086871D01*
X0408663Y0087357D01*
X0408765Y0087872D01*
X0408765Y0088135D01*
X0406095Y0088135D01*
X0403425Y0088135D01*
X0406095Y0088135D01*
X0406095Y0088135D01*
X0406095Y0088135D01*
X0408765Y0088135D01*
X0408765Y0088398D01*
X0408663Y0088914D01*
X0408461Y0089400D01*
X0408169Y0089837D01*
X0407797Y0090209D01*
X0406095Y0090061D02*
X0406095Y0090061D01*
X0406095Y0090805D02*
X0406095Y0088136D01*
X0406095Y0088136D01*
X0406095Y0090805D01*
X0404245Y0090061D02*
X0394649Y0090061D01*
X0394753Y0088462D02*
X0403438Y0088462D01*
X0403733Y0086864D02*
X0398091Y0086864D01*
X0399302Y0085265D02*
X0410732Y0085265D01*
X0410732Y0083667D02*
X0399643Y0083667D01*
X0399328Y0082068D02*
X0410732Y0082068D01*
X0410732Y0080470D02*
X0398154Y0080470D01*
X0400613Y0077505D02*
X0400085Y0076817D01*
X0399652Y0076066D01*
X0399320Y0075265D01*
X0399096Y0074428D01*
X0399031Y0073935D01*
X0404795Y0073935D01*
X0404795Y0079700D01*
X0404302Y0079635D01*
X0403465Y0079410D01*
X0402664Y0079079D01*
X0401914Y0078645D01*
X0401226Y0078118D01*
X0400613Y0077505D01*
X0400435Y0077273D02*
X0390755Y0077273D01*
X0391701Y0075674D02*
X0399490Y0075674D01*
X0399049Y0074076D02*
X0392141Y0074076D01*
X0391818Y0070879D02*
X0399373Y0070879D01*
X0399320Y0071005D02*
X0399652Y0070205D01*
X0400085Y0069454D01*
X0400613Y0068766D01*
X0401226Y0068153D01*
X0401914Y0067626D01*
X0402664Y0067192D01*
X0403465Y0066861D01*
X0404302Y0066636D01*
X0404795Y0066571D01*
X0404795Y0072335D01*
X0399031Y0072335D01*
X0399096Y0071843D01*
X0399320Y0071005D01*
X0399902Y0069280D02*
X0400218Y0069280D01*
X0401500Y0067682D02*
X0401840Y0067682D01*
X0402373Y0066083D02*
X0410732Y0066083D01*
X0410732Y0064485D02*
X0402985Y0064485D01*
X0402985Y0062886D02*
X0410732Y0062886D01*
X0410732Y0061288D02*
X0402829Y0061288D01*
X0402167Y0059689D02*
X0404717Y0059689D01*
X0404795Y0059689D02*
X0406395Y0059689D01*
X0406473Y0059689D02*
X0410732Y0059689D01*
X0410732Y0058091D02*
X0409991Y0058091D01*
X0406395Y0058091D02*
X0404795Y0058091D01*
X0404795Y0056492D02*
X0406395Y0056492D01*
X0406395Y0054894D02*
X0404795Y0054894D01*
X0404795Y0053935D02*
X0404795Y0059700D01*
X0404302Y0059635D01*
X0403465Y0059410D01*
X0402664Y0059079D01*
X0401914Y0058645D01*
X0401226Y0058118D01*
X0400613Y0057505D01*
X0400085Y0056817D01*
X0399652Y0056066D01*
X0399320Y0055265D01*
X0399096Y0054428D01*
X0399031Y0053935D01*
X0404795Y0053935D01*
X0404795Y0053295D02*
X0386395Y0053295D01*
X0386395Y0051697D02*
X0384795Y0051697D01*
X0384795Y0053295D02*
X0362717Y0053295D01*
X0363068Y0054894D02*
X0379221Y0054894D01*
X0379320Y0055265D02*
X0379096Y0054428D01*
X0379031Y0053935D01*
X0384795Y0053935D01*
X0384795Y0059700D01*
X0384302Y0059635D01*
X0383465Y0059410D01*
X0382664Y0059079D01*
X0381914Y0058645D01*
X0381226Y0058118D01*
X0380613Y0057505D01*
X0380085Y0056817D01*
X0379652Y0056066D01*
X0379320Y0055265D01*
X0379898Y0056492D02*
X0362236Y0056492D01*
X0363047Y0058091D02*
X0381199Y0058091D01*
X0384795Y0058091D02*
X0386395Y0058091D01*
X0386395Y0059689D02*
X0384795Y0059689D01*
X0384717Y0059689D02*
X0362836Y0059689D01*
X0358473Y0053295D02*
X0343499Y0053295D01*
X0343383Y0051697D02*
X0366932Y0051697D01*
X0365819Y0050098D02*
X0341068Y0050098D01*
X0340457Y0048500D02*
X0365547Y0048500D01*
X0372259Y0051697D02*
X0379135Y0051697D01*
X0379713Y0050098D02*
X0373371Y0050098D01*
X0373643Y0048500D02*
X0380880Y0048500D01*
X0384795Y0048500D02*
X0386395Y0048500D01*
X0386395Y0050098D02*
X0384795Y0050098D01*
X0390311Y0048500D02*
X0400880Y0048500D01*
X0399713Y0050098D02*
X0391477Y0050098D01*
X0392055Y0051697D02*
X0399135Y0051697D01*
X0404795Y0051697D02*
X0406395Y0051697D01*
X0406395Y0050098D02*
X0404795Y0050098D01*
X0404795Y0048500D02*
X0406395Y0048500D01*
X0410311Y0048500D02*
X0410732Y0048500D01*
X0399221Y0054894D02*
X0391970Y0054894D01*
X0392321Y0056492D02*
X0391292Y0056492D01*
X0390188Y0058091D02*
X0389991Y0058091D01*
X0389023Y0059689D02*
X0386473Y0059689D01*
X0386395Y0056492D02*
X0384795Y0056492D01*
X0384795Y0054894D02*
X0386395Y0054894D01*
X0398869Y0056492D02*
X0399898Y0056492D01*
X0401002Y0058091D02*
X0401199Y0058091D01*
X0404795Y0067682D02*
X0406395Y0067682D01*
X0406395Y0069280D02*
X0404795Y0069280D01*
X0404795Y0070879D02*
X0406395Y0070879D01*
X0404795Y0072477D02*
X0386395Y0072477D01*
X0386395Y0070879D02*
X0384795Y0070879D01*
X0384795Y0069280D02*
X0386395Y0069280D01*
X0386395Y0067682D02*
X0384795Y0067682D01*
X0389350Y0067682D02*
X0389690Y0067682D01*
X0390972Y0069280D02*
X0391289Y0069280D01*
X0379490Y0075674D02*
X0330132Y0075674D01*
X0330568Y0077273D02*
X0380435Y0077273D01*
X0388885Y0078871D02*
X0402305Y0078871D01*
X0404795Y0078871D02*
X0406395Y0078871D01*
X0406395Y0077273D02*
X0404795Y0077273D01*
X0404795Y0075674D02*
X0406395Y0075674D01*
X0406395Y0074076D02*
X0404795Y0074076D01*
X0408885Y0078871D02*
X0410732Y0078871D01*
X0410732Y0086864D02*
X0408457Y0086864D01*
X0408752Y0088462D02*
X0410732Y0088462D01*
X0406095Y0088462D02*
X0406095Y0088462D01*
X0406095Y0086864D02*
X0406095Y0086864D01*
X0391889Y0085265D02*
X0366705Y0085265D01*
X0366692Y0085234D02*
X0367068Y0086143D01*
X0367068Y0087127D01*
X0366692Y0088036D01*
X0365996Y0088732D01*
X0365087Y0089109D01*
X0364103Y0089109D01*
X0363194Y0088732D01*
X0362498Y0088036D01*
X0362122Y0087127D01*
X0362122Y0086143D01*
X0362498Y0085234D01*
X0363194Y0084539D01*
X0364103Y0084162D01*
X0365087Y0084162D01*
X0365996Y0084539D01*
X0366692Y0085234D01*
X0367068Y0086864D02*
X0391376Y0086864D01*
X0389957Y0088462D02*
X0366266Y0088462D01*
X0362925Y0088462D02*
X0302189Y0088462D01*
X0302765Y0090061D02*
X0390061Y0090061D01*
X0391547Y0083667D02*
X0355068Y0083667D01*
X0354463Y0085265D02*
X0362486Y0085265D01*
X0362122Y0086864D02*
X0267678Y0086864D01*
X0264278Y0096455D02*
X0255294Y0096455D01*
X0256531Y0098054D02*
X0263622Y0098054D01*
X0264114Y0099652D02*
X0256351Y0099652D01*
X0252896Y0096455D02*
X0249294Y0096455D01*
X0250531Y0098054D02*
X0251659Y0098054D01*
X0256781Y0104448D02*
X0295203Y0104448D01*
X0295295Y0106046D02*
X0257003Y0106046D01*
X0253187Y0106046D02*
X0199215Y0106046D01*
X0200523Y0107645D02*
X0252622Y0107645D01*
X0252496Y0109039D02*
X0253192Y0109734D01*
X0253568Y0110643D01*
X0253568Y0111627D01*
X0253192Y0112536D01*
X0252496Y0113232D01*
X0251587Y0113609D01*
X0250603Y0113609D01*
X0249694Y0113232D01*
X0248998Y0112536D01*
X0248622Y0111627D01*
X0248622Y0110643D01*
X0248998Y0109734D01*
X0249694Y0109039D01*
X0250603Y0108662D01*
X0251587Y0108662D01*
X0252496Y0109039D01*
X0252701Y0109243D02*
X0253205Y0109243D01*
X0253568Y0110842D02*
X0260034Y0110842D01*
X0260038Y0112440D02*
X0253232Y0112440D01*
X0248959Y0112440D02*
X0200000Y0112440D01*
X0200848Y0110842D02*
X0248622Y0110842D01*
X0249490Y0109243D02*
X0200986Y0109243D01*
X0199269Y0102849D02*
X0226122Y0102849D01*
X0226492Y0101251D02*
X0212310Y0101251D01*
X0228095Y0115637D02*
X0228095Y0115637D01*
X0228095Y0117236D02*
X0228095Y0117236D01*
X0250095Y0126827D02*
X0250095Y0126827D01*
X0250095Y0128425D02*
X0250095Y0128425D01*
X0263983Y0118834D02*
X0291122Y0118834D01*
X0291498Y0117236D02*
X0263899Y0117236D01*
X0262595Y0112440D02*
X0262595Y0112440D01*
X0262595Y0110842D02*
X0262595Y0110842D01*
X0279740Y0120433D02*
X0291895Y0120433D01*
X0295296Y0120433D02*
X0296513Y0120433D01*
X0296576Y0122031D02*
X0281022Y0122031D01*
X0268095Y0122031D02*
X0268095Y0122031D01*
X0268095Y0123630D02*
X0268095Y0123630D01*
X0299095Y0122031D02*
X0299095Y0122031D01*
X0299095Y0120433D02*
X0299095Y0120433D01*
X0292595Y0096455D02*
X0292595Y0096455D01*
X0292595Y0094857D02*
X0292595Y0094857D01*
X0281595Y0072477D02*
X0281595Y0072477D01*
X0281595Y0070879D02*
X0281595Y0070879D01*
X0279226Y0070879D02*
X0268959Y0070879D01*
X0268923Y0072477D02*
X0278941Y0072477D01*
X0342395Y0110842D02*
X0342795Y0110842D01*
X0342795Y0112440D02*
X0342395Y0112440D01*
X0342395Y0114039D02*
X0342795Y0114039D01*
X0342795Y0115637D02*
X0342395Y0115637D01*
X0342395Y0117236D02*
X0342795Y0117236D01*
X0342795Y0118834D02*
X0342395Y0118834D01*
X0289595Y0152403D02*
X0289595Y0152403D01*
X0289595Y0154001D02*
X0289595Y0154001D01*
X0287064Y0154001D02*
X0248568Y0154001D01*
X0248262Y0152403D02*
X0256607Y0152403D01*
X0258584Y0152403D02*
X0287018Y0152403D01*
X0270095Y0146009D02*
X0270095Y0146009D01*
X0270095Y0144410D02*
X0270095Y0144410D01*
X0211595Y0144410D02*
X0211595Y0144410D01*
X0211595Y0146009D02*
X0211595Y0146009D01*
X0210095Y0139615D02*
X0210095Y0139615D01*
X0210095Y0138016D02*
X0210095Y0138016D01*
X0207496Y0138016D02*
X0202568Y0138016D01*
X0202113Y0139615D02*
X0207611Y0139615D01*
X0117722Y0152403D02*
X0073705Y0152403D01*
X0075309Y0154001D02*
X0117777Y0154001D01*
X0387595Y0016529D02*
X0387595Y0016529D01*
X0387595Y0014931D02*
X0387595Y0014931D01*
X0390177Y0014931D02*
X0405013Y0014931D01*
X0405075Y0016529D02*
X0390115Y0016529D01*
X0407595Y0016529D02*
X0407595Y0016529D01*
X0407595Y0014931D02*
X0407595Y0014931D01*
X0409350Y0067682D02*
X0410732Y0067682D01*
D19*
X0056595Y0072135D02*
X0053595Y0072135D01*
X0053514Y0072145D01*
X0053432Y0072151D01*
X0053351Y0072153D01*
X0053269Y0072151D01*
X0053188Y0072146D01*
X0053107Y0072137D01*
X0053026Y0072124D01*
X0052946Y0072107D01*
X0052867Y0072087D01*
X0052789Y0072063D01*
X0052712Y0072036D01*
X0052636Y0072005D01*
X0052562Y0071970D01*
X0052490Y0071932D01*
X0052419Y0071891D01*
X0052351Y0071847D01*
X0052284Y0071799D01*
X0052220Y0071749D01*
X0052158Y0071695D01*
X0052099Y0071639D01*
X0052042Y0071580D01*
X0051989Y0071519D01*
X0051938Y0071455D01*
X0051890Y0071389D01*
X0051845Y0071321D01*
X0051803Y0071250D01*
X0051765Y0071178D01*
X0051730Y0071104D01*
X0051699Y0071029D01*
X0051671Y0070952D01*
X0051646Y0070874D01*
X0051625Y0070795D01*
X0051608Y0070716D01*
X0051595Y0070635D01*
X0031095Y0015135D01*
X0031083Y0015032D01*
X0031068Y0014930D01*
X0031049Y0014829D01*
X0031027Y0014728D01*
X0031000Y0014628D01*
X0030970Y0014529D01*
X0030936Y0014432D01*
X0030899Y0014336D01*
X0030858Y0014241D01*
X0030813Y0014148D01*
X0030765Y0014056D01*
X0030714Y0013967D01*
X0030659Y0013879D01*
X0030601Y0013794D01*
X0030540Y0013710D01*
X0030476Y0013630D01*
X0030409Y0013551D01*
X0030339Y0013475D01*
X0030266Y0013402D01*
X0030191Y0013332D01*
X0030113Y0013264D01*
X0030032Y0013199D01*
X0029949Y0013138D01*
X0029864Y0013079D01*
X0029777Y0013024D01*
X0029687Y0012972D01*
X0029596Y0012924D01*
X0029503Y0012879D01*
X0029409Y0012837D01*
X0029313Y0012799D01*
X0029215Y0012765D01*
X0029117Y0012734D01*
X0029017Y0012707D01*
X0028917Y0012684D01*
X0028815Y0012664D01*
X0028713Y0012649D01*
X0028611Y0012637D01*
X0028508Y0012629D01*
X0028404Y0012625D01*
X0028301Y0012624D01*
X0028198Y0012628D01*
X0028095Y0012635D01*
X0025095Y0012635D01*
X0054595Y0123135D02*
X0056595Y0123135D01*
X0054595Y0123135D02*
X0054484Y0123128D01*
X0054373Y0123125D01*
X0054261Y0123126D01*
X0054150Y0123131D01*
X0054039Y0123139D01*
X0053928Y0123152D01*
X0053818Y0123168D01*
X0053709Y0123188D01*
X0053600Y0123211D01*
X0053492Y0123239D01*
X0053385Y0123270D01*
X0053279Y0123304D01*
X0053175Y0123342D01*
X0053072Y0123384D01*
X0052970Y0123429D01*
X0052870Y0123478D01*
X0052771Y0123530D01*
X0052675Y0123585D01*
X0052580Y0123644D01*
X0052488Y0123706D01*
X0052397Y0123771D01*
X0052309Y0123839D01*
X0052223Y0123910D01*
X0052140Y0123984D01*
X0052059Y0124060D01*
X0051981Y0124140D01*
X0051906Y0124222D01*
X0051834Y0124306D01*
X0051764Y0124393D01*
X0051698Y0124483D01*
X0051634Y0124574D01*
X0051574Y0124668D01*
X0051517Y0124763D01*
X0051463Y0124861D01*
X0051413Y0124960D01*
X0051366Y0125061D01*
X0051323Y0125163D01*
X0051283Y0125267D01*
X0051246Y0125373D01*
X0051213Y0125479D01*
X0051184Y0125586D01*
X0051159Y0125695D01*
X0051137Y0125804D01*
X0051119Y0125914D01*
X0051105Y0126024D01*
X0051095Y0126135D01*
X0035595Y0194635D01*
X0035604Y0194728D01*
X0035608Y0194822D01*
X0035609Y0194915D01*
X0035606Y0195009D01*
X0035599Y0195102D01*
X0035588Y0195195D01*
X0035573Y0195287D01*
X0035554Y0195379D01*
X0035532Y0195470D01*
X0035506Y0195560D01*
X0035476Y0195649D01*
X0035443Y0195736D01*
X0035406Y0195822D01*
X0035365Y0195906D01*
X0035322Y0195989D01*
X0035274Y0196070D01*
X0035224Y0196148D01*
X0035170Y0196225D01*
X0035113Y0196299D01*
X0035053Y0196371D01*
X0034990Y0196440D01*
X0034924Y0196507D01*
X0034856Y0196571D01*
X0034785Y0196632D01*
X0034712Y0196690D01*
X0034636Y0196745D01*
X0034558Y0196797D01*
X0034478Y0196845D01*
X0034396Y0196890D01*
X0034312Y0196932D01*
X0034227Y0196970D01*
X0034140Y0197005D01*
X0034051Y0197036D01*
X0033962Y0197063D01*
X0033871Y0197087D01*
X0033780Y0197107D01*
X0033688Y0197123D01*
X0033595Y0197135D01*
X0033502Y0197196D01*
X0033411Y0197261D01*
X0033323Y0197328D01*
X0033237Y0197399D01*
X0033153Y0197472D01*
X0033072Y0197548D01*
X0032993Y0197627D01*
X0032918Y0197709D01*
X0032845Y0197793D01*
X0032775Y0197880D01*
X0032708Y0197968D01*
X0032644Y0198060D01*
X0032583Y0198153D01*
X0032526Y0198248D01*
X0032471Y0198345D01*
X0032421Y0198444D01*
X0032373Y0198545D01*
X0032329Y0198647D01*
X0032289Y0198751D01*
X0032252Y0198856D01*
X0032218Y0198962D01*
X0032189Y0199070D01*
X0032163Y0199178D01*
X0032140Y0199287D01*
X0032122Y0199397D01*
X0032107Y0199507D01*
X0032096Y0199618D01*
X0032089Y0199729D01*
X0032085Y0199840D01*
X0032086Y0199951D01*
X0032090Y0200063D01*
X0032098Y0200174D01*
X0032110Y0200284D01*
X0032125Y0200395D01*
X0032144Y0200504D01*
X0032167Y0200613D01*
X0032194Y0200721D01*
X0032224Y0200828D01*
X0032258Y0200934D01*
X0032296Y0201039D01*
X0032337Y0201142D01*
X0032382Y0201244D01*
X0032430Y0201345D01*
X0032482Y0201443D01*
X0032537Y0201540D01*
X0032595Y0201635D01*
M02*
