G75*
%MOIN*%
%OFA0B0*%
%FSLAX25Y25*%
%IPPOS*%
%LPD*%
%AMOC8*
5,1,8,0,0,1.08239X$1,22.5*
%
%ADD10C,0.00000*%
%ADD11C,0.00500*%
%ADD12C,0.00300*%
%ADD13C,0.16535*%
%ADD14C,0.06000*%
%ADD15C,0.05020*%
%ADD16C,0.08850*%
%ADD17C,0.10050*%
%ADD18C,0.02165*%
%ADD19C,0.00591*%
%ADD20C,0.01600*%
%ADD21C,0.00886*%
D10*
X0022595Y0010135D02*
X0412516Y0010135D01*
X0412516Y0203954D01*
X0022595Y0203954D01*
X0022595Y0010135D01*
D11*
X0377845Y0178553D02*
X0379013Y0177385D01*
X0380180Y0178553D01*
X0380180Y0180888D01*
X0381528Y0179721D02*
X0382696Y0180888D01*
X0382696Y0177385D01*
X0381528Y0177385D02*
X0383864Y0177385D01*
X0385211Y0177385D02*
X0385211Y0177969D01*
X0385795Y0177969D01*
X0385795Y0177385D01*
X0385211Y0177385D01*
X0387053Y0177969D02*
X0387637Y0177385D01*
X0388804Y0177385D01*
X0389388Y0177969D01*
X0389388Y0180305D01*
X0387053Y0177969D01*
X0387053Y0180305D01*
X0387637Y0180888D01*
X0388804Y0180888D01*
X0389388Y0180305D01*
X0390002Y0183385D02*
X0388251Y0183385D01*
X0387667Y0183969D01*
X0387667Y0185137D01*
X0388251Y0185721D01*
X0390002Y0185721D01*
X0390002Y0186888D02*
X0390002Y0183385D01*
X0391350Y0183385D02*
X0391350Y0186888D01*
X0392518Y0185721D01*
X0393685Y0186888D01*
X0393685Y0183385D01*
X0395033Y0183969D02*
X0395033Y0185137D01*
X0395617Y0185721D01*
X0396785Y0185721D01*
X0397368Y0185137D01*
X0397368Y0184553D01*
X0395033Y0184553D01*
X0395033Y0183969D02*
X0395617Y0183385D01*
X0396785Y0183385D01*
X0398716Y0183969D02*
X0399300Y0183385D01*
X0400468Y0183385D01*
X0401052Y0183969D01*
X0401052Y0184553D01*
X0400468Y0185137D01*
X0399300Y0185137D01*
X0398716Y0185721D01*
X0398716Y0186305D01*
X0399300Y0186888D01*
X0400468Y0186888D01*
X0401052Y0186305D01*
X0402399Y0185721D02*
X0403567Y0186888D01*
X0404735Y0185721D01*
X0404735Y0183385D01*
X0404735Y0185137D02*
X0402399Y0185137D01*
X0402399Y0185721D02*
X0402399Y0183385D01*
X0407250Y0183385D02*
X0407250Y0186888D01*
X0406083Y0186888D02*
X0408418Y0186888D01*
X0397368Y0189385D02*
X0397368Y0192888D01*
X0397368Y0191137D02*
X0395033Y0191137D01*
X0393685Y0191137D02*
X0391350Y0191137D01*
X0391350Y0191721D02*
X0391350Y0189385D01*
X0390062Y0189385D02*
X0388895Y0189385D01*
X0389478Y0189385D02*
X0389478Y0192888D01*
X0388895Y0192888D02*
X0390062Y0192888D01*
X0391350Y0191721D02*
X0392518Y0192888D01*
X0393685Y0191721D01*
X0393685Y0189385D01*
X0395033Y0189385D02*
X0395033Y0192888D01*
X0387547Y0191137D02*
X0385211Y0191137D01*
X0386963Y0192888D01*
X0386963Y0189385D01*
X0382696Y0191137D02*
X0381528Y0191137D01*
X0381528Y0192888D02*
X0381528Y0189385D01*
X0380180Y0189969D02*
X0380180Y0192305D01*
X0379597Y0192888D01*
X0377845Y0192888D01*
X0377845Y0189385D01*
X0379597Y0189385D01*
X0380180Y0189969D01*
X0380180Y0186888D02*
X0377845Y0186888D01*
X0377845Y0183385D01*
X0377845Y0185137D02*
X0379013Y0185137D01*
X0381528Y0185721D02*
X0382112Y0185721D01*
X0382112Y0183385D01*
X0381528Y0183385D02*
X0382696Y0183385D01*
X0383984Y0183385D02*
X0383984Y0185721D01*
X0385735Y0185721D01*
X0386319Y0185137D01*
X0386319Y0183385D01*
X0382112Y0186888D02*
X0382112Y0187472D01*
X0381528Y0192888D02*
X0383864Y0192888D01*
X0377845Y0180888D02*
X0377845Y0178553D01*
D12*
X0377745Y0199285D02*
X0379680Y0199285D01*
X0380692Y0199769D02*
X0381175Y0200253D01*
X0382627Y0200253D01*
X0382627Y0200737D02*
X0382627Y0199285D01*
X0381175Y0199285D01*
X0380692Y0199769D01*
X0381175Y0201220D02*
X0382143Y0201220D01*
X0382627Y0200737D01*
X0383638Y0201220D02*
X0383638Y0199769D01*
X0384122Y0199285D01*
X0385573Y0199285D01*
X0385573Y0198802D02*
X0385089Y0198318D01*
X0384606Y0198318D01*
X0385573Y0198802D02*
X0385573Y0201220D01*
X0386585Y0200737D02*
X0387068Y0201220D01*
X0388036Y0201220D01*
X0388520Y0200737D01*
X0388520Y0200253D01*
X0386585Y0200253D01*
X0386585Y0199769D02*
X0386585Y0200737D01*
X0386585Y0199769D02*
X0387068Y0199285D01*
X0388036Y0199285D01*
X0389531Y0199285D02*
X0389531Y0201220D01*
X0389531Y0200253D02*
X0390499Y0201220D01*
X0390982Y0201220D01*
X0391987Y0200737D02*
X0393922Y0200737D01*
X0394933Y0201704D02*
X0395417Y0202188D01*
X0396384Y0202188D01*
X0396868Y0201704D01*
X0396868Y0201220D01*
X0394933Y0199285D01*
X0396868Y0199285D01*
X0377745Y0199285D02*
X0377745Y0202188D01*
D13*
X0396595Y0160135D03*
X0067595Y0160135D03*
X0067595Y0025135D03*
D14*
X0215095Y0056635D03*
X0225095Y0056635D03*
X0235095Y0056635D03*
X0247595Y0055135D03*
X0257595Y0055135D03*
X0257595Y0065135D03*
X0247595Y0065135D03*
X0235095Y0066635D03*
X0225095Y0066635D03*
X0215095Y0066635D03*
X0220595Y0045135D03*
X0230595Y0045135D03*
X0247595Y0045135D03*
X0257595Y0045135D03*
X0257595Y0035135D03*
X0247595Y0035135D03*
X0230595Y0035135D03*
X0220595Y0035135D03*
X0220595Y0025135D03*
X0230595Y0025135D03*
X0247595Y0025135D03*
X0257595Y0025135D03*
X0196595Y0109635D03*
X0196595Y0119635D03*
X0127438Y0167852D03*
X0117595Y0167852D03*
X0107753Y0167852D03*
X0332595Y0135135D03*
X0342595Y0135135D03*
X0342595Y0125135D03*
X0332595Y0125135D03*
X0332595Y0115135D03*
X0342595Y0115135D03*
D15*
X0394257Y0110293D03*
X0394257Y0129978D03*
D16*
X0395595Y0063135D03*
D17*
X0385595Y0053135D03*
X0405595Y0053135D03*
X0405595Y0073135D03*
X0385595Y0073135D03*
D18*
X0395595Y0083635D03*
X0406095Y0088135D03*
X0392355Y0089135D03*
X0390095Y0096635D03*
X0388095Y0106635D03*
X0388595Y0116635D03*
X0387095Y0119635D03*
X0388595Y0122635D03*
X0389095Y0126135D03*
X0398095Y0142135D03*
X0364595Y0155135D03*
X0360595Y0161135D03*
X0358095Y0163135D03*
X0352595Y0167135D03*
X0363595Y0167135D03*
X0370095Y0165135D03*
X0370095Y0161135D03*
X0336595Y0153635D03*
X0327095Y0138635D03*
X0311595Y0135635D03*
X0311095Y0131135D03*
X0315595Y0121635D03*
X0299095Y0121135D03*
X0293595Y0118635D03*
X0291095Y0126635D03*
X0278595Y0122635D03*
X0268095Y0122635D03*
X0261595Y0118135D03*
X0268095Y0114135D03*
X0262595Y0111635D03*
X0255095Y0107635D03*
X0251095Y0111135D03*
X0255095Y0102635D03*
X0254095Y0098635D03*
X0248095Y0098635D03*
X0264595Y0092635D03*
X0266595Y0089635D03*
X0266595Y0084635D03*
X0266595Y0081135D03*
X0266595Y0071635D03*
X0264595Y0068135D03*
X0266395Y0065435D03*
X0281595Y0072135D03*
X0287095Y0066635D03*
X0295095Y0079135D03*
X0300095Y0090135D03*
X0292595Y0096135D03*
X0288595Y0096135D03*
X0297595Y0105135D03*
X0307595Y0104635D03*
X0313095Y0096135D03*
X0317095Y0096135D03*
X0320595Y0096135D03*
X0319595Y0105135D03*
X0319595Y0109635D03*
X0352595Y0093635D03*
X0364595Y0086635D03*
X0352595Y0083635D03*
X0328095Y0084135D03*
X0328095Y0081135D03*
X0328095Y0077135D03*
X0328095Y0069135D03*
X0328095Y0057635D03*
X0328595Y0052635D03*
X0328595Y0049635D03*
X0323095Y0044135D03*
X0318595Y0044135D03*
X0305095Y0044135D03*
X0301595Y0044135D03*
X0298095Y0044135D03*
X0294595Y0044135D03*
X0291095Y0044135D03*
X0287595Y0044135D03*
X0284095Y0044135D03*
X0280595Y0044635D03*
X0276595Y0049635D03*
X0276595Y0053135D03*
X0264595Y0046635D03*
X0239095Y0047135D03*
X0216095Y0032135D03*
X0224595Y0030635D03*
X0200595Y0025135D03*
X0190595Y0033135D03*
X0186095Y0035635D03*
X0185095Y0030135D03*
X0180095Y0031635D03*
X0174095Y0033635D03*
X0174595Y0037635D03*
X0180095Y0041635D03*
X0164595Y0040135D03*
X0164595Y0037135D03*
X0164095Y0032135D03*
X0164095Y0027635D03*
X0161595Y0024135D03*
X0161595Y0021135D03*
X0165595Y0020135D03*
X0161595Y0018135D03*
X0161595Y0014135D03*
X0159095Y0012635D03*
X0150095Y0012635D03*
X0150095Y0027635D03*
X0149095Y0038635D03*
X0164595Y0046135D03*
X0149595Y0057135D03*
X0191595Y0072635D03*
X0191595Y0076135D03*
X0191595Y0081135D03*
X0191595Y0084635D03*
X0191595Y0088135D03*
X0199595Y0091635D03*
X0205095Y0091635D03*
X0196095Y0096135D03*
X0194095Y0099135D03*
X0197095Y0101635D03*
X0207595Y0098135D03*
X0210095Y0100135D03*
X0228595Y0102635D03*
X0228095Y0116635D03*
X0223095Y0119135D03*
X0217095Y0117635D03*
X0212595Y0117635D03*
X0242095Y0136635D03*
X0248595Y0140635D03*
X0257595Y0150135D03*
X0246095Y0153635D03*
X0240595Y0157135D03*
X0248095Y0165135D03*
X0252595Y0160635D03*
X0229095Y0160635D03*
X0225595Y0146135D03*
X0211595Y0146135D03*
X0210095Y0138635D03*
X0200095Y0138135D03*
X0165095Y0154135D03*
X0161095Y0154135D03*
X0157095Y0154135D03*
X0153095Y0154135D03*
X0149595Y0154135D03*
X0145595Y0154135D03*
X0141595Y0154135D03*
X0137595Y0154135D03*
X0133595Y0154135D03*
X0120095Y0153135D03*
X0110095Y0144635D03*
X0135595Y0142135D03*
X0182595Y0163135D03*
X0185595Y0163135D03*
X0188595Y0163135D03*
X0191595Y0163135D03*
X0250095Y0127635D03*
X0270095Y0145135D03*
X0282095Y0144635D03*
X0281595Y0135135D03*
X0285095Y0135135D03*
X0296095Y0136135D03*
X0307595Y0144135D03*
X0289595Y0153135D03*
X0304595Y0158135D03*
X0286095Y0112135D03*
X0266095Y0098135D03*
X0232095Y0078135D03*
X0221595Y0087635D03*
X0214095Y0079635D03*
X0206595Y0080135D03*
X0202595Y0071635D03*
X0205595Y0052135D03*
X0174095Y0027635D03*
X0182095Y0025135D03*
X0103595Y0053635D03*
X0084095Y0067135D03*
X0081595Y0077635D03*
X0056595Y0072135D03*
X0055095Y0077635D03*
X0055095Y0064635D03*
X0074095Y0108135D03*
X0083595Y0117635D03*
X0083595Y0129635D03*
X0056595Y0123135D03*
X0055095Y0129635D03*
X0055095Y0117635D03*
X0032595Y0201635D03*
X0338595Y0050135D03*
X0341095Y0052635D03*
X0360595Y0054635D03*
X0360595Y0058635D03*
X0369595Y0048635D03*
X0383595Y0042135D03*
X0397595Y0030135D03*
X0407595Y0044135D03*
X0364595Y0069635D03*
X0357095Y0037635D03*
X0349095Y0027635D03*
X0353095Y0024635D03*
X0336595Y0022135D03*
X0327095Y0021635D03*
X0322595Y0020635D03*
X0315595Y0020635D03*
X0317595Y0027635D03*
X0324095Y0028635D03*
X0326595Y0031635D03*
X0330595Y0033635D03*
X0321095Y0034135D03*
X0309595Y0029635D03*
X0286595Y0028135D03*
X0279095Y0032135D03*
X0387595Y0015635D03*
X0407595Y0015635D03*
X0097095Y0012635D03*
X0025095Y0012635D03*
D19*
X0028425Y0011415D02*
X0028638Y0011931D01*
X0028638Y0013340D01*
X0028099Y0014643D01*
X0027732Y0015009D01*
X0051595Y0080135D01*
X0056595Y0079135D01*
X0056595Y0075679D01*
X0055890Y0075679D01*
X0054588Y0075139D01*
X0053591Y0074143D01*
X0053052Y0072840D01*
X0053052Y0071431D01*
X0053591Y0070128D01*
X0054588Y0069132D01*
X0055890Y0068592D01*
X0056595Y0068592D01*
X0056595Y0063635D01*
X0051595Y0060635D01*
X0033384Y0011415D01*
X0028425Y0011415D01*
X0028627Y0011903D02*
X0033564Y0011903D01*
X0033782Y0012492D02*
X0028638Y0012492D01*
X0028638Y0013081D02*
X0034000Y0013081D01*
X0034218Y0013670D02*
X0028502Y0013670D01*
X0028258Y0014259D02*
X0034436Y0014259D01*
X0034654Y0014848D02*
X0027894Y0014848D01*
X0027889Y0015437D02*
X0034872Y0015437D01*
X0035090Y0016026D02*
X0028105Y0016026D01*
X0028321Y0016615D02*
X0035308Y0016615D01*
X0035526Y0017204D02*
X0028536Y0017204D01*
X0028752Y0017793D02*
X0035744Y0017793D01*
X0035961Y0018382D02*
X0028968Y0018382D01*
X0029184Y0018971D02*
X0036179Y0018971D01*
X0036397Y0019560D02*
X0029400Y0019560D01*
X0029616Y0020149D02*
X0036615Y0020149D01*
X0036833Y0020739D02*
X0029831Y0020739D01*
X0030047Y0021328D02*
X0037051Y0021328D01*
X0037269Y0021917D02*
X0030263Y0021917D01*
X0030479Y0022506D02*
X0037487Y0022506D01*
X0037705Y0023095D02*
X0030695Y0023095D01*
X0030911Y0023684D02*
X0037923Y0023684D01*
X0038141Y0024273D02*
X0031126Y0024273D01*
X0031342Y0024862D02*
X0038359Y0024862D01*
X0038577Y0025451D02*
X0031558Y0025451D01*
X0031774Y0026040D02*
X0038795Y0026040D01*
X0039013Y0026629D02*
X0031990Y0026629D01*
X0032206Y0027218D02*
X0039231Y0027218D01*
X0039449Y0027807D02*
X0032421Y0027807D01*
X0032637Y0028396D02*
X0039667Y0028396D01*
X0039885Y0028985D02*
X0032853Y0028985D01*
X0033069Y0029574D02*
X0040103Y0029574D01*
X0040321Y0030164D02*
X0033285Y0030164D01*
X0033501Y0030753D02*
X0040538Y0030753D01*
X0040756Y0031342D02*
X0033717Y0031342D01*
X0033932Y0031931D02*
X0040974Y0031931D01*
X0041192Y0032520D02*
X0034148Y0032520D01*
X0034364Y0033109D02*
X0041410Y0033109D01*
X0041628Y0033698D02*
X0034580Y0033698D01*
X0034796Y0034287D02*
X0041846Y0034287D01*
X0042064Y0034876D02*
X0035012Y0034876D01*
X0035227Y0035465D02*
X0042282Y0035465D01*
X0042500Y0036054D02*
X0035443Y0036054D01*
X0035659Y0036643D02*
X0042718Y0036643D01*
X0042936Y0037232D02*
X0035875Y0037232D01*
X0036091Y0037821D02*
X0043154Y0037821D01*
X0043372Y0038410D02*
X0036307Y0038410D01*
X0036522Y0038999D02*
X0043590Y0038999D01*
X0043808Y0039589D02*
X0036738Y0039589D01*
X0036954Y0040178D02*
X0044026Y0040178D01*
X0044244Y0040767D02*
X0037170Y0040767D01*
X0037386Y0041356D02*
X0044462Y0041356D01*
X0044680Y0041945D02*
X0037602Y0041945D01*
X0037817Y0042534D02*
X0044898Y0042534D01*
X0045116Y0043123D02*
X0038033Y0043123D01*
X0038249Y0043712D02*
X0045333Y0043712D01*
X0045551Y0044301D02*
X0038465Y0044301D01*
X0038681Y0044890D02*
X0045769Y0044890D01*
X0045987Y0045479D02*
X0038897Y0045479D01*
X0039113Y0046068D02*
X0046205Y0046068D01*
X0046423Y0046657D02*
X0039328Y0046657D01*
X0039544Y0047246D02*
X0046641Y0047246D01*
X0046859Y0047835D02*
X0039760Y0047835D01*
X0039976Y0048424D02*
X0047077Y0048424D01*
X0047295Y0049014D02*
X0040192Y0049014D01*
X0040408Y0049603D02*
X0047513Y0049603D01*
X0047731Y0050192D02*
X0040623Y0050192D01*
X0040839Y0050781D02*
X0047949Y0050781D01*
X0048167Y0051370D02*
X0041055Y0051370D01*
X0041271Y0051959D02*
X0048385Y0051959D01*
X0048603Y0052548D02*
X0041487Y0052548D01*
X0041703Y0053137D02*
X0048821Y0053137D01*
X0049039Y0053726D02*
X0041918Y0053726D01*
X0042134Y0054315D02*
X0049257Y0054315D01*
X0049475Y0054904D02*
X0042350Y0054904D01*
X0042566Y0055493D02*
X0049693Y0055493D01*
X0049910Y0056082D02*
X0042782Y0056082D01*
X0042998Y0056671D02*
X0050128Y0056671D01*
X0050346Y0057260D02*
X0043213Y0057260D01*
X0043429Y0057849D02*
X0050564Y0057849D01*
X0050782Y0058439D02*
X0043645Y0058439D01*
X0043861Y0059028D02*
X0051000Y0059028D01*
X0051218Y0059617D02*
X0044077Y0059617D01*
X0044293Y0060206D02*
X0051436Y0060206D01*
X0051861Y0060795D02*
X0044508Y0060795D01*
X0044724Y0061384D02*
X0052843Y0061384D01*
X0053824Y0061973D02*
X0044940Y0061973D01*
X0045156Y0062562D02*
X0054806Y0062562D01*
X0055788Y0063151D02*
X0045372Y0063151D01*
X0045588Y0063740D02*
X0056595Y0063740D01*
X0056595Y0064329D02*
X0045804Y0064329D01*
X0046019Y0064918D02*
X0056595Y0064918D01*
X0056595Y0065507D02*
X0046235Y0065507D01*
X0046451Y0066096D02*
X0056595Y0066096D01*
X0056595Y0066685D02*
X0046667Y0066685D01*
X0046883Y0067274D02*
X0056595Y0067274D01*
X0056595Y0067864D02*
X0047099Y0067864D01*
X0047314Y0068453D02*
X0056595Y0068453D01*
X0054805Y0069042D02*
X0047530Y0069042D01*
X0047746Y0069631D02*
X0054089Y0069631D01*
X0053553Y0070220D02*
X0047962Y0070220D01*
X0048178Y0070809D02*
X0053309Y0070809D01*
X0053065Y0071398D02*
X0048394Y0071398D01*
X0048609Y0071987D02*
X0053052Y0071987D01*
X0053052Y0072576D02*
X0048825Y0072576D01*
X0049041Y0073165D02*
X0053186Y0073165D01*
X0053430Y0073754D02*
X0049257Y0073754D01*
X0049473Y0074343D02*
X0053792Y0074343D01*
X0054381Y0074932D02*
X0049689Y0074932D01*
X0049904Y0075521D02*
X0055510Y0075521D01*
X0056595Y0076110D02*
X0050120Y0076110D01*
X0050336Y0076699D02*
X0056595Y0076699D01*
X0056595Y0077289D02*
X0050552Y0077289D01*
X0050768Y0077878D02*
X0056595Y0077878D01*
X0056595Y0078467D02*
X0050984Y0078467D01*
X0051200Y0079056D02*
X0056595Y0079056D01*
X0054048Y0079645D02*
X0051415Y0079645D01*
X0050095Y0116135D02*
X0032595Y0194135D01*
X0031672Y0194085D01*
X0030754Y0194196D01*
X0029870Y0194464D01*
X0029045Y0194882D01*
X0028305Y0195436D01*
X0027674Y0196111D01*
X0027168Y0196885D01*
X0026805Y0197735D01*
X0026595Y0198635D01*
X0030584Y0198635D01*
X0030588Y0198632D01*
X0031890Y0198092D01*
X0033300Y0198092D01*
X0034602Y0198632D01*
X0034606Y0198635D01*
X0038095Y0198635D01*
X0051595Y0138635D01*
X0056595Y0131635D01*
X0056595Y0126679D01*
X0055890Y0126679D01*
X0054588Y0126139D01*
X0053591Y0125143D01*
X0053052Y0123840D01*
X0053052Y0122431D01*
X0053591Y0121128D01*
X0054588Y0120132D01*
X0055890Y0119592D01*
X0056595Y0119592D01*
X0056595Y0116135D01*
X0050095Y0116135D01*
X0050088Y0116167D02*
X0056595Y0116167D01*
X0056595Y0116756D02*
X0049956Y0116756D01*
X0049824Y0117345D02*
X0056595Y0117345D01*
X0056595Y0117934D02*
X0049692Y0117934D01*
X0049559Y0118523D02*
X0056595Y0118523D01*
X0056595Y0119112D02*
X0049427Y0119112D01*
X0049295Y0119701D02*
X0055627Y0119701D01*
X0054429Y0120290D02*
X0049163Y0120290D01*
X0049031Y0120879D02*
X0053840Y0120879D01*
X0053450Y0121468D02*
X0048899Y0121468D01*
X0048767Y0122057D02*
X0053206Y0122057D01*
X0053052Y0122646D02*
X0048634Y0122646D01*
X0048502Y0123235D02*
X0053052Y0123235D01*
X0053052Y0123824D02*
X0048370Y0123824D01*
X0048238Y0124414D02*
X0053289Y0124414D01*
X0053533Y0125003D02*
X0048106Y0125003D01*
X0047974Y0125592D02*
X0054040Y0125592D01*
X0054688Y0126181D02*
X0047841Y0126181D01*
X0047709Y0126770D02*
X0056595Y0126770D01*
X0056595Y0127359D02*
X0047577Y0127359D01*
X0047445Y0127948D02*
X0056595Y0127948D01*
X0056595Y0128537D02*
X0047313Y0128537D01*
X0047181Y0129126D02*
X0056595Y0129126D01*
X0056595Y0129715D02*
X0047048Y0129715D01*
X0046916Y0130304D02*
X0056595Y0130304D01*
X0056595Y0130893D02*
X0046784Y0130893D01*
X0046652Y0131482D02*
X0056595Y0131482D01*
X0056284Y0132071D02*
X0046520Y0132071D01*
X0046388Y0132660D02*
X0055863Y0132660D01*
X0055442Y0133249D02*
X0046255Y0133249D01*
X0046123Y0133839D02*
X0055021Y0133839D01*
X0054601Y0134428D02*
X0045991Y0134428D01*
X0045859Y0135017D02*
X0054180Y0135017D01*
X0053759Y0135606D02*
X0045727Y0135606D01*
X0045595Y0136195D02*
X0053338Y0136195D01*
X0052918Y0136784D02*
X0045462Y0136784D01*
X0045330Y0137373D02*
X0052497Y0137373D01*
X0052076Y0137962D02*
X0045198Y0137962D01*
X0045066Y0138551D02*
X0051655Y0138551D01*
X0051482Y0139140D02*
X0044934Y0139140D01*
X0044802Y0139729D02*
X0051349Y0139729D01*
X0051216Y0140318D02*
X0044670Y0140318D01*
X0044537Y0140907D02*
X0051084Y0140907D01*
X0050951Y0141496D02*
X0044405Y0141496D01*
X0044273Y0142085D02*
X0050819Y0142085D01*
X0050686Y0142674D02*
X0044141Y0142674D01*
X0044009Y0143264D02*
X0050554Y0143264D01*
X0050421Y0143853D02*
X0043877Y0143853D01*
X0043744Y0144442D02*
X0050289Y0144442D01*
X0050156Y0145031D02*
X0043612Y0145031D01*
X0043480Y0145620D02*
X0050024Y0145620D01*
X0049891Y0146209D02*
X0043348Y0146209D01*
X0043216Y0146798D02*
X0049759Y0146798D01*
X0049626Y0147387D02*
X0043084Y0147387D01*
X0042951Y0147976D02*
X0049493Y0147976D01*
X0049361Y0148565D02*
X0042819Y0148565D01*
X0042687Y0149154D02*
X0049228Y0149154D01*
X0049096Y0149743D02*
X0042555Y0149743D01*
X0042423Y0150332D02*
X0048963Y0150332D01*
X0048831Y0150921D02*
X0042291Y0150921D01*
X0042158Y0151510D02*
X0048698Y0151510D01*
X0048566Y0152099D02*
X0042026Y0152099D01*
X0041894Y0152689D02*
X0048433Y0152689D01*
X0048301Y0153278D02*
X0041762Y0153278D01*
X0041630Y0153867D02*
X0048168Y0153867D01*
X0048036Y0154456D02*
X0041498Y0154456D01*
X0041365Y0155045D02*
X0047903Y0155045D01*
X0047770Y0155634D02*
X0041233Y0155634D01*
X0041101Y0156223D02*
X0047638Y0156223D01*
X0047505Y0156812D02*
X0040969Y0156812D01*
X0040837Y0157401D02*
X0047373Y0157401D01*
X0047240Y0157990D02*
X0040705Y0157990D01*
X0040573Y0158579D02*
X0047108Y0158579D01*
X0046975Y0159168D02*
X0040440Y0159168D01*
X0040308Y0159757D02*
X0046843Y0159757D01*
X0046710Y0160346D02*
X0040176Y0160346D01*
X0040044Y0160935D02*
X0046578Y0160935D01*
X0046445Y0161524D02*
X0039912Y0161524D01*
X0039780Y0162114D02*
X0046313Y0162114D01*
X0046180Y0162703D02*
X0039647Y0162703D01*
X0039515Y0163292D02*
X0046047Y0163292D01*
X0045915Y0163881D02*
X0039383Y0163881D01*
X0039251Y0164470D02*
X0045782Y0164470D01*
X0045650Y0165059D02*
X0039119Y0165059D01*
X0038987Y0165648D02*
X0045517Y0165648D01*
X0045385Y0166237D02*
X0038854Y0166237D01*
X0038722Y0166826D02*
X0045252Y0166826D01*
X0045120Y0167415D02*
X0038590Y0167415D01*
X0038458Y0168004D02*
X0044987Y0168004D01*
X0044855Y0168593D02*
X0038326Y0168593D01*
X0038194Y0169182D02*
X0044722Y0169182D01*
X0044590Y0169771D02*
X0038061Y0169771D01*
X0037929Y0170360D02*
X0044457Y0170360D01*
X0044324Y0170949D02*
X0037797Y0170949D01*
X0037665Y0171539D02*
X0044192Y0171539D01*
X0044059Y0172128D02*
X0037533Y0172128D01*
X0037401Y0172717D02*
X0043927Y0172717D01*
X0043794Y0173306D02*
X0037268Y0173306D01*
X0037136Y0173895D02*
X0043662Y0173895D01*
X0043529Y0174484D02*
X0037004Y0174484D01*
X0036872Y0175073D02*
X0043397Y0175073D01*
X0043264Y0175662D02*
X0036740Y0175662D01*
X0036608Y0176251D02*
X0043132Y0176251D01*
X0042999Y0176840D02*
X0036476Y0176840D01*
X0036343Y0177429D02*
X0042867Y0177429D01*
X0042734Y0178018D02*
X0036211Y0178018D01*
X0036079Y0178607D02*
X0042601Y0178607D01*
X0042469Y0179196D02*
X0035947Y0179196D01*
X0035815Y0179785D02*
X0042336Y0179785D01*
X0042204Y0180374D02*
X0035683Y0180374D01*
X0035550Y0180964D02*
X0042071Y0180964D01*
X0041939Y0181553D02*
X0035418Y0181553D01*
X0035286Y0182142D02*
X0041806Y0182142D01*
X0041674Y0182731D02*
X0035154Y0182731D01*
X0035022Y0183320D02*
X0041541Y0183320D01*
X0041409Y0183909D02*
X0034890Y0183909D01*
X0034757Y0184498D02*
X0041276Y0184498D01*
X0041144Y0185087D02*
X0034625Y0185087D01*
X0034493Y0185676D02*
X0041011Y0185676D01*
X0040878Y0186265D02*
X0034361Y0186265D01*
X0034229Y0186854D02*
X0040746Y0186854D01*
X0040613Y0187443D02*
X0034097Y0187443D01*
X0033964Y0188032D02*
X0040481Y0188032D01*
X0040348Y0188621D02*
X0033832Y0188621D01*
X0033700Y0189210D02*
X0040216Y0189210D01*
X0040083Y0189799D02*
X0033568Y0189799D01*
X0033436Y0190389D02*
X0039951Y0190389D01*
X0039818Y0190978D02*
X0033304Y0190978D01*
X0033171Y0191567D02*
X0039686Y0191567D01*
X0039553Y0192156D02*
X0033039Y0192156D01*
X0032907Y0192745D02*
X0039421Y0192745D01*
X0039288Y0193334D02*
X0032775Y0193334D01*
X0032643Y0193923D02*
X0039155Y0193923D01*
X0039023Y0194512D02*
X0029775Y0194512D01*
X0028752Y0195101D02*
X0038890Y0195101D01*
X0038758Y0195690D02*
X0028068Y0195690D01*
X0027564Y0196279D02*
X0038625Y0196279D01*
X0038493Y0196868D02*
X0027179Y0196868D01*
X0026924Y0197457D02*
X0038360Y0197457D01*
X0038228Y0198046D02*
X0026733Y0198046D01*
X0258595Y0086635D02*
X0258595Y0079135D01*
X0255095Y0075635D01*
X0217095Y0075635D01*
X0210595Y0069135D01*
X0210595Y0064135D01*
X0212595Y0062135D01*
X0220595Y0062135D01*
X0225095Y0066635D01*
X0222095Y0073635D02*
X0215095Y0066635D01*
X0222095Y0073635D02*
X0256095Y0073635D01*
X0260595Y0078135D01*
X0260595Y0083635D01*
X0266595Y0089635D01*
X0264595Y0092635D02*
X0258595Y0086635D01*
X0264595Y0074635D02*
X0269095Y0074635D01*
X0279595Y0064135D01*
X0298595Y0064135D01*
X0318595Y0044135D01*
X0262595Y0053135D02*
X0259095Y0050135D01*
X0221595Y0050135D01*
X0215095Y0056635D01*
X0225095Y0056635D02*
X0229095Y0052135D01*
X0240095Y0052135D01*
X0242595Y0054635D01*
X0242595Y0066635D01*
X0245595Y0069635D01*
X0262595Y0069635D01*
X0263595Y0070635D01*
X0265595Y0070635D01*
X0266595Y0071635D01*
X0264595Y0074635D02*
X0261595Y0071635D01*
X0244595Y0071635D01*
X0240595Y0067635D01*
X0240595Y0058135D01*
X0239095Y0056635D01*
X0235095Y0056635D01*
X0262595Y0053135D02*
X0262595Y0066135D01*
X0264595Y0068135D01*
D20*
X0266847Y0069162D02*
X0267087Y0069162D01*
X0267996Y0069539D01*
X0268692Y0070234D01*
X0269068Y0071143D01*
X0269068Y0072127D01*
X0268962Y0072385D01*
X0278897Y0062450D01*
X0297897Y0062450D01*
X0316122Y0044225D01*
X0316122Y0043643D01*
X0316498Y0042734D01*
X0317194Y0042039D01*
X0318103Y0041662D01*
X0319087Y0041662D01*
X0319996Y0042039D01*
X0320692Y0042734D01*
X0320845Y0043105D01*
X0320998Y0042734D01*
X0321694Y0042039D01*
X0322603Y0041662D01*
X0323587Y0041662D01*
X0324496Y0042039D01*
X0325192Y0042734D01*
X0325568Y0043643D01*
X0325568Y0044627D01*
X0325192Y0045536D01*
X0324496Y0046232D01*
X0323587Y0046609D01*
X0322603Y0046609D01*
X0321694Y0046232D01*
X0320998Y0045536D01*
X0320845Y0045166D01*
X0320692Y0045536D01*
X0319996Y0046232D01*
X0319087Y0046609D01*
X0318506Y0046609D01*
X0300281Y0064834D01*
X0299293Y0065821D01*
X0289435Y0065821D01*
X0289568Y0066143D01*
X0289568Y0067127D01*
X0289192Y0068036D01*
X0288496Y0068732D01*
X0287587Y0069109D01*
X0286603Y0069109D01*
X0285694Y0068732D01*
X0284998Y0068036D01*
X0284622Y0067127D01*
X0284622Y0066143D01*
X0284755Y0065821D01*
X0280293Y0065821D01*
X0270781Y0075334D01*
X0269793Y0076321D01*
X0263897Y0076321D01*
X0262909Y0075334D01*
X0262909Y0075334D01*
X0260897Y0073321D01*
X0258165Y0073321D01*
X0262281Y0077437D01*
X0262281Y0082937D01*
X0264122Y0084778D01*
X0264122Y0084143D01*
X0264498Y0083234D01*
X0264847Y0082885D01*
X0264498Y0082536D01*
X0264122Y0081627D01*
X0264122Y0080643D01*
X0264498Y0079734D01*
X0265194Y0079039D01*
X0266103Y0078662D01*
X0267087Y0078662D01*
X0267996Y0079039D01*
X0268692Y0079734D01*
X0269068Y0080643D01*
X0269068Y0081627D01*
X0268692Y0082536D01*
X0268343Y0082885D01*
X0268692Y0083234D01*
X0269068Y0084143D01*
X0269068Y0085127D01*
X0268692Y0086036D01*
X0267996Y0086732D01*
X0267087Y0087109D01*
X0266452Y0087109D01*
X0266506Y0087162D01*
X0267087Y0087162D01*
X0267996Y0087539D01*
X0268692Y0088234D01*
X0269068Y0089143D01*
X0269068Y0090127D01*
X0268692Y0091036D01*
X0267996Y0091732D01*
X0267087Y0092109D01*
X0267054Y0092109D01*
X0267068Y0092143D01*
X0267068Y0093127D01*
X0266692Y0094036D01*
X0265996Y0094732D01*
X0265087Y0095109D01*
X0264103Y0095109D01*
X0263194Y0094732D01*
X0262498Y0094036D01*
X0262122Y0093127D01*
X0262122Y0092546D01*
X0257897Y0088321D01*
X0256909Y0087334D01*
X0256909Y0079834D01*
X0254397Y0077321D01*
X0234648Y0077321D01*
X0234663Y0077357D01*
X0234765Y0077872D01*
X0234765Y0078135D01*
X0232095Y0078135D01*
X0229425Y0078135D01*
X0229425Y0077872D01*
X0229528Y0077357D01*
X0229542Y0077321D01*
X0216397Y0077321D01*
X0209897Y0070821D01*
X0208909Y0069834D01*
X0208909Y0063437D01*
X0210909Y0061437D01*
X0211897Y0060450D01*
X0212830Y0060450D01*
X0212608Y0060358D01*
X0211373Y0059122D01*
X0210705Y0057509D01*
X0210705Y0055762D01*
X0211373Y0054148D01*
X0212608Y0052913D01*
X0214222Y0052245D01*
X0215968Y0052245D01*
X0216770Y0052577D01*
X0219820Y0049526D01*
X0219722Y0049526D01*
X0218108Y0048858D01*
X0216873Y0047622D01*
X0216205Y0046009D01*
X0216205Y0044262D01*
X0216873Y0042648D01*
X0218108Y0041413D01*
X0219722Y0040745D01*
X0221468Y0040745D01*
X0223082Y0041413D01*
X0224317Y0042648D01*
X0224986Y0044262D01*
X0224986Y0046009D01*
X0224317Y0047622D01*
X0223490Y0048450D01*
X0227700Y0048450D01*
X0226873Y0047622D01*
X0226205Y0046009D01*
X0226205Y0044262D01*
X0226873Y0042648D01*
X0228108Y0041413D01*
X0229722Y0040745D01*
X0231468Y0040745D01*
X0233082Y0041413D01*
X0234317Y0042648D01*
X0234986Y0044262D01*
X0234986Y0046009D01*
X0234317Y0047622D01*
X0233490Y0048450D01*
X0236762Y0048450D01*
X0236729Y0048400D01*
X0236528Y0047914D01*
X0236425Y0047398D01*
X0236425Y0047135D01*
X0236425Y0046872D01*
X0236528Y0046357D01*
X0236729Y0045871D01*
X0237021Y0045433D01*
X0237393Y0045061D01*
X0237830Y0044769D01*
X0238316Y0044568D01*
X0238832Y0044465D01*
X0239095Y0044465D01*
X0239095Y0047135D01*
X0239095Y0047135D01*
X0239095Y0044465D01*
X0239358Y0044465D01*
X0239874Y0044568D01*
X0240360Y0044769D01*
X0240797Y0045061D01*
X0241169Y0045433D01*
X0241461Y0045871D01*
X0241663Y0046357D01*
X0241765Y0046872D01*
X0241765Y0047135D01*
X0239095Y0047135D01*
X0236425Y0047135D01*
X0239095Y0047135D01*
X0239095Y0047135D01*
X0239095Y0047135D01*
X0241765Y0047135D01*
X0241765Y0047398D01*
X0241663Y0047914D01*
X0241461Y0048400D01*
X0241428Y0048450D01*
X0244700Y0048450D01*
X0243873Y0047622D01*
X0243205Y0046009D01*
X0243205Y0044262D01*
X0243873Y0042648D01*
X0245108Y0041413D01*
X0246722Y0040745D01*
X0248468Y0040745D01*
X0250082Y0041413D01*
X0251317Y0042648D01*
X0251986Y0044262D01*
X0251986Y0046009D01*
X0251317Y0047622D01*
X0250490Y0048450D01*
X0254700Y0048450D01*
X0253873Y0047622D01*
X0253205Y0046009D01*
X0253205Y0044262D01*
X0253873Y0042648D01*
X0255108Y0041413D01*
X0256722Y0040745D01*
X0258468Y0040745D01*
X0260082Y0041413D01*
X0261317Y0042648D01*
X0261986Y0044262D01*
X0261986Y0046009D01*
X0261317Y0047622D01*
X0260142Y0048798D01*
X0260241Y0048898D01*
X0263219Y0051450D01*
X0263293Y0051450D01*
X0263741Y0051898D01*
X0264222Y0052310D01*
X0264228Y0052384D01*
X0264281Y0052437D01*
X0264281Y0053071D01*
X0264330Y0053702D01*
X0264281Y0053759D01*
X0264281Y0064077D01*
X0264298Y0064034D01*
X0264994Y0063339D01*
X0265903Y0062962D01*
X0266887Y0062962D01*
X0267796Y0063339D01*
X0268492Y0064034D01*
X0268868Y0064943D01*
X0268868Y0065927D01*
X0268492Y0066836D01*
X0267796Y0067532D01*
X0267068Y0067834D01*
X0267068Y0068627D01*
X0266847Y0069162D01*
X0267372Y0069280D02*
X0272066Y0069280D01*
X0273665Y0067682D02*
X0267435Y0067682D01*
X0268804Y0066083D02*
X0275263Y0066083D01*
X0276862Y0064485D02*
X0268678Y0064485D01*
X0264281Y0062886D02*
X0278460Y0062886D01*
X0280031Y0066083D02*
X0284647Y0066083D01*
X0284852Y0067682D02*
X0278433Y0067682D01*
X0276834Y0069280D02*
X0325622Y0069280D01*
X0325622Y0069627D02*
X0325622Y0068643D01*
X0325998Y0067734D01*
X0326694Y0067039D01*
X0327603Y0066662D01*
X0328587Y0066662D01*
X0329496Y0067039D01*
X0330192Y0067734D01*
X0330568Y0068643D01*
X0330568Y0069627D01*
X0330192Y0070536D01*
X0329496Y0071232D01*
X0328587Y0071609D01*
X0327603Y0071609D01*
X0326694Y0071232D01*
X0325998Y0070536D01*
X0325622Y0069627D01*
X0326341Y0070879D02*
X0283752Y0070879D01*
X0283692Y0070734D02*
X0284068Y0071643D01*
X0284068Y0072627D01*
X0283692Y0073536D01*
X0282996Y0074232D01*
X0282087Y0074609D01*
X0281103Y0074609D01*
X0280194Y0074232D01*
X0279498Y0073536D01*
X0279122Y0072627D01*
X0279122Y0071643D01*
X0279498Y0070734D01*
X0280194Y0070039D01*
X0281103Y0069662D01*
X0282087Y0069662D01*
X0282996Y0070039D01*
X0283692Y0070734D01*
X0284068Y0072477D02*
X0379180Y0072477D01*
X0379180Y0071859D02*
X0380156Y0069501D01*
X0381961Y0067697D01*
X0384319Y0066720D01*
X0385102Y0066720D01*
X0382928Y0064861D01*
X0381013Y0063661D01*
X0378849Y0062691D01*
X0378849Y0062691D01*
X0374849Y0059437D01*
X0371829Y0055258D01*
X0370928Y0052895D01*
X0370776Y0052528D01*
X0370400Y0052683D01*
X0368790Y0052683D01*
X0367302Y0052067D01*
X0366163Y0050928D01*
X0365547Y0049441D01*
X0365547Y0047830D01*
X0365687Y0047493D01*
X0365687Y0041047D01*
X0355683Y0031044D01*
X0351412Y0031044D01*
X0351388Y0031067D01*
X0349900Y0031683D01*
X0348290Y0031683D01*
X0346802Y0031067D01*
X0345663Y0029928D01*
X0345047Y0028441D01*
X0345047Y0026830D01*
X0345663Y0025342D01*
X0346802Y0024204D01*
X0348290Y0023587D01*
X0349148Y0023587D01*
X0349663Y0022342D01*
X0350802Y0021204D01*
X0352290Y0020587D01*
X0353900Y0020587D01*
X0355388Y0021204D01*
X0355412Y0021227D01*
X0357569Y0021227D01*
X0358221Y0021217D01*
X0358246Y0021227D01*
X0358273Y0021227D01*
X0358875Y0021477D01*
X0359481Y0021717D01*
X0359501Y0021736D01*
X0359526Y0021746D01*
X0359987Y0022207D01*
X0376001Y0037736D01*
X0376026Y0037746D01*
X0376487Y0038207D01*
X0376954Y0038661D01*
X0376965Y0038686D01*
X0376985Y0038705D01*
X0377234Y0039307D01*
X0377493Y0039905D01*
X0377493Y0039932D01*
X0377503Y0039957D01*
X0377503Y0040609D01*
X0377513Y0041261D01*
X0377503Y0041286D01*
X0377503Y0050909D01*
X0377975Y0051940D01*
X0379180Y0053606D01*
X0379180Y0051859D01*
X0380156Y0049501D01*
X0381961Y0047697D01*
X0384319Y0046720D01*
X0386871Y0046720D01*
X0389229Y0047697D01*
X0391034Y0049501D01*
X0392011Y0051859D01*
X0392011Y0054412D01*
X0391034Y0056770D01*
X0389229Y0058574D01*
X0387217Y0059408D01*
X0388637Y0060622D01*
X0389330Y0058949D01*
X0391409Y0056870D01*
X0394125Y0055745D01*
X0397065Y0055745D01*
X0399781Y0056870D01*
X0401860Y0058949D01*
X0402985Y0061665D01*
X0402985Y0064605D01*
X0401860Y0067322D01*
X0399781Y0069401D01*
X0397065Y0070526D01*
X0396646Y0070526D01*
X0398052Y0073286D01*
X0398052Y0073286D01*
X0398821Y0076017D01*
X0399003Y0076457D01*
X0399003Y0076665D01*
X0399060Y0076864D01*
X0399003Y0077337D01*
X0399003Y0081319D01*
X0399027Y0081342D01*
X0399643Y0082830D01*
X0399643Y0084441D01*
X0399027Y0085928D01*
X0397888Y0087067D01*
X0396400Y0087683D01*
X0394790Y0087683D01*
X0394125Y0087408D01*
X0394452Y0087734D01*
X0394828Y0088643D01*
X0394828Y0089627D01*
X0394452Y0090536D01*
X0393756Y0091232D01*
X0392847Y0091609D01*
X0391863Y0091609D01*
X0390954Y0091232D01*
X0390258Y0090536D01*
X0389882Y0089627D01*
X0389882Y0088643D01*
X0390258Y0087734D01*
X0390954Y0087039D01*
X0391863Y0086662D01*
X0392847Y0086662D01*
X0392933Y0086698D01*
X0392163Y0085928D01*
X0391547Y0084441D01*
X0391547Y0082830D01*
X0392163Y0081342D01*
X0392187Y0081319D01*
X0392187Y0077679D01*
X0391564Y0075823D01*
X0391488Y0075673D01*
X0391034Y0076770D01*
X0389229Y0078574D01*
X0386871Y0079551D01*
X0384319Y0079551D01*
X0381961Y0078574D01*
X0380156Y0076770D01*
X0379180Y0074412D01*
X0379180Y0071859D01*
X0379586Y0070879D02*
X0366757Y0070879D01*
X0366692Y0071036D02*
X0365996Y0071732D01*
X0365087Y0072109D01*
X0364103Y0072109D01*
X0363194Y0071732D01*
X0362498Y0071036D01*
X0362122Y0070127D01*
X0362122Y0069143D01*
X0362498Y0068234D01*
X0363194Y0067539D01*
X0364103Y0067162D01*
X0365087Y0067162D01*
X0365996Y0067539D01*
X0366692Y0068234D01*
X0367068Y0069143D01*
X0367068Y0070127D01*
X0366692Y0071036D01*
X0367068Y0069280D02*
X0380377Y0069280D01*
X0381997Y0067682D02*
X0366139Y0067682D01*
X0363051Y0067682D02*
X0330139Y0067682D01*
X0330568Y0069280D02*
X0362122Y0069280D01*
X0362433Y0070879D02*
X0329849Y0070879D01*
X0328587Y0074662D02*
X0329496Y0075039D01*
X0330192Y0075734D01*
X0330568Y0076643D01*
X0330568Y0077627D01*
X0330192Y0078536D01*
X0329593Y0079135D01*
X0330192Y0079734D01*
X0330568Y0080643D01*
X0330568Y0081627D01*
X0330209Y0082494D01*
X0330461Y0082871D01*
X0330663Y0083357D01*
X0330765Y0083872D01*
X0330765Y0084135D01*
X0328095Y0084135D01*
X0325425Y0084135D01*
X0325425Y0083872D01*
X0325528Y0083357D01*
X0325729Y0082871D01*
X0325981Y0082494D01*
X0325622Y0081627D01*
X0325622Y0080643D01*
X0325998Y0079734D01*
X0326597Y0079135D01*
X0325998Y0078536D01*
X0325622Y0077627D01*
X0325622Y0076643D01*
X0325998Y0075734D01*
X0326694Y0075039D01*
X0327603Y0074662D01*
X0328587Y0074662D01*
X0330132Y0075674D02*
X0379703Y0075674D01*
X0379180Y0074076D02*
X0283152Y0074076D01*
X0280038Y0074076D02*
X0272039Y0074076D01*
X0273637Y0072477D02*
X0279122Y0072477D01*
X0279439Y0070879D02*
X0275236Y0070879D01*
X0270468Y0070879D02*
X0268959Y0070879D01*
X0261651Y0074076D02*
X0258920Y0074076D01*
X0260518Y0075674D02*
X0263250Y0075674D01*
X0262117Y0077273D02*
X0293182Y0077273D01*
X0293021Y0077433D02*
X0293393Y0077061D01*
X0293830Y0076769D01*
X0294316Y0076568D01*
X0294832Y0076465D01*
X0295095Y0076465D01*
X0295095Y0079135D01*
X0295095Y0079135D01*
X0295095Y0076465D01*
X0295358Y0076465D01*
X0295874Y0076568D01*
X0296360Y0076769D01*
X0296797Y0077061D01*
X0297169Y0077433D01*
X0297461Y0077871D01*
X0297663Y0078357D01*
X0297765Y0078872D01*
X0297765Y0079135D01*
X0295095Y0079135D01*
X0292425Y0079135D01*
X0292425Y0078872D01*
X0292528Y0078357D01*
X0292729Y0077871D01*
X0293021Y0077433D01*
X0292425Y0078871D02*
X0267592Y0078871D01*
X0265598Y0078871D02*
X0262281Y0078871D01*
X0262281Y0080470D02*
X0264194Y0080470D01*
X0264305Y0082068D02*
X0262281Y0082068D01*
X0263011Y0083667D02*
X0264319Y0083667D01*
X0268871Y0083667D02*
X0325466Y0083667D01*
X0325425Y0084135D02*
X0328095Y0084135D01*
X0328095Y0084135D01*
X0328095Y0084135D01*
X0330765Y0084135D01*
X0330765Y0084398D01*
X0330663Y0084914D01*
X0330461Y0085400D01*
X0330169Y0085838D01*
X0329797Y0086209D01*
X0329360Y0086502D01*
X0328874Y0086703D01*
X0328358Y0086805D01*
X0328095Y0086805D01*
X0327832Y0086805D01*
X0327316Y0086703D01*
X0326830Y0086502D01*
X0326393Y0086209D01*
X0326021Y0085838D01*
X0325729Y0085400D01*
X0325528Y0084914D01*
X0325425Y0084398D01*
X0325425Y0084135D01*
X0325673Y0085265D02*
X0269011Y0085265D01*
X0267678Y0086864D02*
X0362122Y0086864D01*
X0362122Y0087127D02*
X0362122Y0086143D01*
X0362498Y0085234D01*
X0363194Y0084539D01*
X0364103Y0084162D01*
X0365087Y0084162D01*
X0365996Y0084539D01*
X0366692Y0085234D01*
X0367068Y0086143D01*
X0367068Y0087127D01*
X0366692Y0088036D01*
X0365996Y0088732D01*
X0365087Y0089109D01*
X0364103Y0089109D01*
X0363194Y0088732D01*
X0362498Y0088036D01*
X0362122Y0087127D01*
X0362925Y0088462D02*
X0301920Y0088462D01*
X0302192Y0088734D02*
X0302568Y0089643D01*
X0302568Y0090627D01*
X0302192Y0091536D01*
X0301496Y0092232D01*
X0300587Y0092609D01*
X0299603Y0092609D01*
X0298694Y0092232D01*
X0297998Y0091536D01*
X0297622Y0090627D01*
X0297622Y0089643D01*
X0297998Y0088734D01*
X0298694Y0088039D01*
X0299603Y0087662D01*
X0300587Y0087662D01*
X0301496Y0088039D01*
X0302192Y0088734D01*
X0302568Y0090061D02*
X0390061Y0090061D01*
X0389957Y0088462D02*
X0366266Y0088462D01*
X0367068Y0086864D02*
X0391376Y0086864D01*
X0391889Y0085265D02*
X0366705Y0085265D01*
X0362486Y0085265D02*
X0354463Y0085265D01*
X0354692Y0085036D02*
X0353996Y0085732D01*
X0353087Y0086109D01*
X0352103Y0086109D01*
X0351194Y0085732D01*
X0350498Y0085036D01*
X0350122Y0084127D01*
X0350122Y0083143D01*
X0350498Y0082234D01*
X0351194Y0081539D01*
X0352103Y0081162D01*
X0353087Y0081162D01*
X0353996Y0081539D01*
X0354692Y0082234D01*
X0355068Y0083143D01*
X0355068Y0084127D01*
X0354692Y0085036D01*
X0355068Y0083667D02*
X0391547Y0083667D01*
X0391863Y0082068D02*
X0354526Y0082068D01*
X0350664Y0082068D02*
X0330386Y0082068D01*
X0330496Y0080470D02*
X0392187Y0080470D01*
X0392187Y0078871D02*
X0388512Y0078871D01*
X0390531Y0077273D02*
X0392051Y0077273D01*
X0391488Y0075674D02*
X0391488Y0075674D01*
X0398274Y0074076D02*
X0399180Y0074076D01*
X0399180Y0074412D02*
X0399180Y0071859D01*
X0400156Y0069501D01*
X0401961Y0067697D01*
X0404319Y0066720D01*
X0406871Y0066720D01*
X0409229Y0067697D01*
X0410732Y0069199D01*
X0410732Y0057071D01*
X0409229Y0058574D01*
X0406871Y0059551D01*
X0404319Y0059551D01*
X0401961Y0058574D01*
X0400156Y0056770D01*
X0399180Y0054412D01*
X0399180Y0051859D01*
X0400156Y0049501D01*
X0401961Y0047697D01*
X0404319Y0046720D01*
X0406871Y0046720D01*
X0409229Y0047697D01*
X0410732Y0049199D01*
X0410732Y0011920D01*
X0162709Y0011920D01*
X0162996Y0012039D01*
X0163692Y0012734D01*
X0164068Y0013643D01*
X0164068Y0014627D01*
X0163692Y0015536D01*
X0163093Y0016135D01*
X0163692Y0016734D01*
X0164068Y0017643D01*
X0164068Y0018165D01*
X0164194Y0018039D01*
X0165103Y0017662D01*
X0166087Y0017662D01*
X0166996Y0018039D01*
X0167692Y0018734D01*
X0168068Y0019643D01*
X0168068Y0020627D01*
X0167692Y0021536D01*
X0166996Y0022232D01*
X0166087Y0022609D01*
X0165103Y0022609D01*
X0164194Y0022232D01*
X0163928Y0021966D01*
X0163692Y0022536D01*
X0163593Y0022635D01*
X0163692Y0022734D01*
X0164068Y0023643D01*
X0164068Y0024627D01*
X0163847Y0025162D01*
X0164587Y0025162D01*
X0165496Y0025539D01*
X0166192Y0026234D01*
X0166568Y0027143D01*
X0166568Y0028127D01*
X0166192Y0029036D01*
X0165496Y0029732D01*
X0165126Y0029885D01*
X0165496Y0030039D01*
X0166192Y0030734D01*
X0166568Y0031643D01*
X0166568Y0032627D01*
X0166192Y0033536D01*
X0165496Y0034232D01*
X0164587Y0034609D01*
X0163603Y0034609D01*
X0162694Y0034232D01*
X0161998Y0033536D01*
X0161622Y0032627D01*
X0161622Y0031643D01*
X0161998Y0030734D01*
X0162694Y0030039D01*
X0163064Y0029885D01*
X0162694Y0029732D01*
X0161998Y0029036D01*
X0161622Y0028127D01*
X0161622Y0027143D01*
X0161843Y0026609D01*
X0161103Y0026609D01*
X0160194Y0026232D01*
X0159498Y0025536D01*
X0159122Y0024627D01*
X0159122Y0023643D01*
X0159498Y0022734D01*
X0159597Y0022635D01*
X0159498Y0022536D01*
X0159122Y0021627D01*
X0159122Y0020643D01*
X0159498Y0019734D01*
X0159597Y0019635D01*
X0159498Y0019536D01*
X0159122Y0018627D01*
X0159122Y0017643D01*
X0159498Y0016734D01*
X0160097Y0016135D01*
X0159498Y0015536D01*
X0159321Y0015109D01*
X0158603Y0015109D01*
X0157694Y0014732D01*
X0156998Y0014036D01*
X0156622Y0013127D01*
X0156622Y0012143D01*
X0156715Y0011920D01*
X0152476Y0011920D01*
X0152568Y0012143D01*
X0152568Y0013127D01*
X0152192Y0014036D01*
X0151496Y0014732D01*
X0150587Y0015109D01*
X0149603Y0015109D01*
X0148694Y0014732D01*
X0147998Y0014036D01*
X0147622Y0013127D01*
X0147622Y0012143D01*
X0147715Y0011920D01*
X0099476Y0011920D01*
X0099568Y0012143D01*
X0099568Y0013127D01*
X0099192Y0014036D01*
X0098496Y0014732D01*
X0097587Y0015109D01*
X0096603Y0015109D01*
X0095694Y0014732D01*
X0094998Y0014036D01*
X0094622Y0013127D01*
X0094622Y0012143D01*
X0094715Y0011920D01*
X0051414Y0011920D01*
X0051414Y0055288D01*
X0052971Y0059495D01*
X0057062Y0061950D01*
X0057293Y0061950D01*
X0057640Y0062297D01*
X0058061Y0062549D01*
X0058117Y0062774D01*
X0058281Y0062937D01*
X0058281Y0063428D01*
X0058400Y0063904D01*
X0058281Y0064102D01*
X0058281Y0068452D01*
X0058888Y0068704D01*
X0060027Y0069842D01*
X0060643Y0071330D01*
X0060643Y0072941D01*
X0060027Y0074428D01*
X0058888Y0075567D01*
X0058281Y0075819D01*
X0058281Y0078969D01*
X0058385Y0079490D01*
X0058281Y0079646D01*
X0058281Y0079834D01*
X0057905Y0080209D01*
X0057610Y0080652D01*
X0057426Y0080688D01*
X0057293Y0080821D01*
X0056762Y0080821D01*
X0052053Y0081763D01*
X0051519Y0081959D01*
X0051414Y0081910D01*
X0051414Y0114450D01*
X0057293Y0114450D01*
X0058281Y0115437D01*
X0058281Y0119452D01*
X0058888Y0119704D01*
X0060027Y0120842D01*
X0060643Y0122330D01*
X0060643Y0123941D01*
X0060027Y0125428D01*
X0058888Y0126567D01*
X0058281Y0126819D01*
X0058281Y0131496D01*
X0058373Y0132047D01*
X0058281Y0132176D01*
X0058281Y0132334D01*
X0057886Y0132729D01*
X0053165Y0139338D01*
X0051414Y0147120D01*
X0051414Y0175135D01*
X0410732Y0175135D01*
X0410732Y0077071D01*
X0409229Y0078574D01*
X0406871Y0079551D01*
X0404319Y0079551D01*
X0401961Y0078574D01*
X0400156Y0076770D01*
X0399180Y0074412D01*
X0398724Y0075674D02*
X0399703Y0075674D01*
X0399011Y0077273D02*
X0400660Y0077273D01*
X0399003Y0078871D02*
X0402678Y0078871D01*
X0399003Y0080470D02*
X0410732Y0080470D01*
X0410732Y0082068D02*
X0399328Y0082068D01*
X0399643Y0083667D02*
X0410732Y0083667D01*
X0410732Y0085265D02*
X0399302Y0085265D01*
X0398091Y0086864D02*
X0403945Y0086864D01*
X0403998Y0086734D02*
X0404694Y0086039D01*
X0405603Y0085662D01*
X0406587Y0085662D01*
X0407496Y0086039D01*
X0408192Y0086734D01*
X0408568Y0087643D01*
X0408568Y0088627D01*
X0408192Y0089536D01*
X0407496Y0090232D01*
X0406587Y0090609D01*
X0405603Y0090609D01*
X0404694Y0090232D01*
X0403998Y0089536D01*
X0403622Y0088627D01*
X0403622Y0087643D01*
X0403998Y0086734D01*
X0403622Y0088462D02*
X0394753Y0088462D01*
X0394649Y0090061D02*
X0404523Y0090061D01*
X0407667Y0090061D02*
X0410732Y0090061D01*
X0410732Y0088462D02*
X0408568Y0088462D01*
X0408245Y0086864D02*
X0410732Y0086864D01*
X0410732Y0091660D02*
X0354117Y0091660D01*
X0353996Y0091539D02*
X0354692Y0092234D01*
X0355068Y0093143D01*
X0355068Y0094127D01*
X0354692Y0095036D01*
X0353996Y0095732D01*
X0353087Y0096109D01*
X0352103Y0096109D01*
X0351194Y0095732D01*
X0350498Y0095036D01*
X0350122Y0094127D01*
X0350122Y0093143D01*
X0350498Y0092234D01*
X0351194Y0091539D01*
X0352103Y0091162D01*
X0353087Y0091162D01*
X0353996Y0091539D01*
X0355068Y0093258D02*
X0410732Y0093258D01*
X0410732Y0094857D02*
X0391814Y0094857D01*
X0391496Y0094539D02*
X0392192Y0095234D01*
X0392568Y0096143D01*
X0392568Y0097127D01*
X0392192Y0098036D01*
X0391496Y0098732D01*
X0390587Y0099109D01*
X0389603Y0099109D01*
X0388694Y0098732D01*
X0387998Y0098036D01*
X0387622Y0097127D01*
X0387622Y0096143D01*
X0387998Y0095234D01*
X0388694Y0094539D01*
X0389603Y0094162D01*
X0390587Y0094162D01*
X0391496Y0094539D01*
X0392568Y0096455D02*
X0410732Y0096455D01*
X0410732Y0098054D02*
X0392175Y0098054D01*
X0388016Y0098054D02*
X0322175Y0098054D01*
X0321996Y0098232D02*
X0321087Y0098609D01*
X0320103Y0098609D01*
X0319194Y0098232D01*
X0318845Y0097883D01*
X0318496Y0098232D01*
X0317587Y0098609D01*
X0316603Y0098609D01*
X0315694Y0098232D01*
X0315221Y0097759D01*
X0315169Y0097837D01*
X0314797Y0098209D01*
X0314360Y0098502D01*
X0313874Y0098703D01*
X0313358Y0098805D01*
X0313095Y0098805D01*
X0312832Y0098805D01*
X0312316Y0098703D01*
X0311830Y0098502D01*
X0311393Y0098209D01*
X0311021Y0097837D01*
X0310729Y0097400D01*
X0310528Y0096914D01*
X0310425Y0096398D01*
X0310425Y0096135D01*
X0310425Y0095872D01*
X0310528Y0095357D01*
X0310729Y0094871D01*
X0311021Y0094433D01*
X0311393Y0094061D01*
X0311830Y0093769D01*
X0312316Y0093568D01*
X0312832Y0093465D01*
X0313095Y0093465D01*
X0313095Y0096135D01*
X0313095Y0096135D01*
X0313095Y0093465D01*
X0313358Y0093465D01*
X0313874Y0093568D01*
X0314360Y0093769D01*
X0314797Y0094061D01*
X0315169Y0094433D01*
X0315221Y0094512D01*
X0315694Y0094039D01*
X0316603Y0093662D01*
X0317587Y0093662D01*
X0318496Y0094039D01*
X0318845Y0094388D01*
X0319194Y0094039D01*
X0320103Y0093662D01*
X0321087Y0093662D01*
X0321996Y0094039D01*
X0322692Y0094734D01*
X0323068Y0095643D01*
X0323068Y0096627D01*
X0322692Y0097536D01*
X0321996Y0098232D01*
X0323068Y0096455D02*
X0387622Y0096455D01*
X0388376Y0094857D02*
X0354766Y0094857D01*
X0350424Y0094857D02*
X0322742Y0094857D01*
X0319016Y0098054D02*
X0318675Y0098054D01*
X0315516Y0098054D02*
X0314953Y0098054D01*
X0313095Y0098054D02*
X0313095Y0098054D01*
X0313095Y0098805D02*
X0313095Y0096136D01*
X0313095Y0096136D01*
X0313095Y0098805D01*
X0311237Y0098054D02*
X0294175Y0098054D01*
X0293996Y0098232D02*
X0293087Y0098609D01*
X0292103Y0098609D01*
X0291194Y0098232D01*
X0290595Y0097633D01*
X0289996Y0098232D01*
X0289087Y0098609D01*
X0288103Y0098609D01*
X0287194Y0098232D01*
X0286498Y0097536D01*
X0286122Y0096627D01*
X0286122Y0095643D01*
X0286498Y0094734D01*
X0287194Y0094039D01*
X0288103Y0093662D01*
X0289087Y0093662D01*
X0289996Y0094039D01*
X0290595Y0094638D01*
X0291194Y0094039D01*
X0292103Y0093662D01*
X0293087Y0093662D01*
X0293996Y0094039D01*
X0294692Y0094734D01*
X0295068Y0095643D01*
X0295068Y0096627D01*
X0294692Y0097536D01*
X0293996Y0098232D01*
X0295068Y0096455D02*
X0310436Y0096455D01*
X0310425Y0096135D02*
X0313095Y0096135D01*
X0310425Y0096135D01*
X0310738Y0094857D02*
X0294742Y0094857D01*
X0298122Y0091660D02*
X0268069Y0091660D01*
X0269068Y0090061D02*
X0297622Y0090061D01*
X0298270Y0088462D02*
X0268786Y0088462D01*
X0267014Y0093258D02*
X0350122Y0093258D01*
X0351073Y0091660D02*
X0302069Y0091660D01*
X0313095Y0094857D02*
X0313095Y0094857D01*
X0313095Y0096135D02*
X0313095Y0096135D01*
X0313095Y0096455D02*
X0313095Y0096455D01*
X0308996Y0102539D02*
X0308087Y0102162D01*
X0307103Y0102162D01*
X0306194Y0102539D01*
X0305498Y0103234D01*
X0305122Y0104143D01*
X0305122Y0105127D01*
X0305498Y0106036D01*
X0306194Y0106732D01*
X0307103Y0107109D01*
X0308087Y0107109D01*
X0308996Y0106732D01*
X0309692Y0106036D01*
X0310068Y0105127D01*
X0310068Y0104143D01*
X0309692Y0103234D01*
X0308996Y0102539D01*
X0309306Y0102849D02*
X0318652Y0102849D01*
X0319103Y0102662D02*
X0318194Y0103039D01*
X0317498Y0103734D01*
X0317122Y0104643D01*
X0317122Y0105627D01*
X0317498Y0106536D01*
X0318194Y0107232D01*
X0318564Y0107385D01*
X0318194Y0107539D01*
X0317498Y0108234D01*
X0317122Y0109143D01*
X0317122Y0110127D01*
X0317498Y0111036D01*
X0318194Y0111732D01*
X0319103Y0112109D01*
X0320087Y0112109D01*
X0320996Y0111732D01*
X0321692Y0111036D01*
X0322068Y0110127D01*
X0322068Y0109143D01*
X0321692Y0108234D01*
X0320996Y0107539D01*
X0320626Y0107385D01*
X0320996Y0107232D01*
X0321692Y0106536D01*
X0322068Y0105627D01*
X0322068Y0104643D01*
X0321692Y0103734D01*
X0320996Y0103039D01*
X0320087Y0102662D01*
X0319103Y0102662D01*
X0320538Y0102849D02*
X0410732Y0102849D01*
X0410732Y0101251D02*
X0257198Y0101251D01*
X0257192Y0101234D02*
X0257568Y0102143D01*
X0257568Y0103127D01*
X0257192Y0104036D01*
X0256496Y0104732D01*
X0255587Y0105109D01*
X0254603Y0105109D01*
X0253694Y0104732D01*
X0252998Y0104036D01*
X0252622Y0103127D01*
X0252622Y0102143D01*
X0252998Y0101234D01*
X0253265Y0100968D01*
X0252694Y0100732D01*
X0251998Y0100036D01*
X0251622Y0099127D01*
X0251622Y0098143D01*
X0251998Y0097234D01*
X0252694Y0096539D01*
X0253603Y0096162D01*
X0254587Y0096162D01*
X0255496Y0096539D01*
X0256192Y0097234D01*
X0256568Y0098143D01*
X0256568Y0099127D01*
X0256192Y0100036D01*
X0255926Y0100302D01*
X0256496Y0100539D01*
X0257192Y0101234D01*
X0257568Y0102849D02*
X0296652Y0102849D01*
X0297103Y0102662D02*
X0298087Y0102662D01*
X0298996Y0103039D01*
X0299692Y0103734D01*
X0300068Y0104643D01*
X0300068Y0105627D01*
X0299692Y0106536D01*
X0298996Y0107232D01*
X0298087Y0107609D01*
X0297103Y0107609D01*
X0296194Y0107232D01*
X0295498Y0106536D01*
X0295122Y0105627D01*
X0295122Y0104643D01*
X0295498Y0103734D01*
X0296194Y0103039D01*
X0297103Y0102662D01*
X0298538Y0102849D02*
X0305884Y0102849D01*
X0305122Y0104448D02*
X0299987Y0104448D01*
X0299895Y0106046D02*
X0305508Y0106046D01*
X0309682Y0106046D02*
X0317295Y0106046D01*
X0317203Y0104448D02*
X0310068Y0104448D01*
X0317122Y0109243D02*
X0263282Y0109243D01*
X0263087Y0109162D02*
X0263996Y0109539D01*
X0264692Y0110234D01*
X0265068Y0111143D01*
X0265068Y0112127D01*
X0264692Y0113036D01*
X0263996Y0113732D01*
X0263087Y0114109D01*
X0262103Y0114109D01*
X0261194Y0113732D01*
X0260498Y0113036D01*
X0260122Y0112127D01*
X0260122Y0111143D01*
X0260498Y0110234D01*
X0261194Y0109539D01*
X0262103Y0109162D01*
X0263087Y0109162D01*
X0261908Y0109243D02*
X0256985Y0109243D01*
X0257192Y0109036D02*
X0256496Y0109732D01*
X0255587Y0110109D01*
X0254603Y0110109D01*
X0253694Y0109732D01*
X0252998Y0109036D01*
X0252622Y0108127D01*
X0252622Y0107143D01*
X0252998Y0106234D01*
X0253694Y0105539D01*
X0254603Y0105162D01*
X0255587Y0105162D01*
X0256496Y0105539D01*
X0257192Y0106234D01*
X0257568Y0107143D01*
X0257568Y0108127D01*
X0257192Y0109036D01*
X0257568Y0107645D02*
X0318088Y0107645D01*
X0321102Y0107645D02*
X0385836Y0107645D01*
X0385998Y0108036D02*
X0385622Y0107127D01*
X0385622Y0106143D01*
X0385998Y0105234D01*
X0386694Y0104539D01*
X0387603Y0104162D01*
X0388587Y0104162D01*
X0389496Y0104539D01*
X0390192Y0105234D01*
X0390568Y0106143D01*
X0390568Y0107127D01*
X0390192Y0108036D01*
X0389496Y0108732D01*
X0388587Y0109109D01*
X0387603Y0109109D01*
X0386694Y0108732D01*
X0385998Y0108036D01*
X0385662Y0106046D02*
X0321895Y0106046D01*
X0321987Y0104448D02*
X0386914Y0104448D01*
X0389276Y0104448D02*
X0410732Y0104448D01*
X0410732Y0106046D02*
X0390528Y0106046D01*
X0390354Y0107645D02*
X0391389Y0107645D01*
X0390950Y0108084D02*
X0392047Y0106986D01*
X0393481Y0106393D01*
X0395032Y0106393D01*
X0396466Y0106986D01*
X0397563Y0108084D01*
X0398157Y0109517D01*
X0398157Y0111069D01*
X0397563Y0112502D01*
X0396466Y0113599D01*
X0395032Y0114193D01*
X0393481Y0114193D01*
X0392047Y0113599D01*
X0390950Y0112502D01*
X0390356Y0111069D01*
X0390356Y0109517D01*
X0390950Y0108084D01*
X0390470Y0109243D02*
X0322068Y0109243D01*
X0321773Y0110842D02*
X0331488Y0110842D01*
X0331722Y0110745D02*
X0333468Y0110745D01*
X0335082Y0111413D01*
X0336317Y0112648D01*
X0336986Y0114262D01*
X0336986Y0116009D01*
X0336317Y0117622D01*
X0335082Y0118858D01*
X0333468Y0119526D01*
X0331722Y0119526D01*
X0330108Y0118858D01*
X0328873Y0117622D01*
X0328205Y0116009D01*
X0328205Y0114262D01*
X0328873Y0112648D01*
X0330108Y0111413D01*
X0331722Y0110745D01*
X0333702Y0110842D02*
X0341488Y0110842D01*
X0341722Y0110745D02*
X0343468Y0110745D01*
X0345082Y0111413D01*
X0346317Y0112648D01*
X0346986Y0114262D01*
X0346986Y0116009D01*
X0346317Y0117622D01*
X0345082Y0118858D01*
X0343468Y0119526D01*
X0341722Y0119526D01*
X0340108Y0118858D01*
X0338873Y0117622D01*
X0338205Y0116009D01*
X0338205Y0114262D01*
X0338873Y0112648D01*
X0340108Y0111413D01*
X0341722Y0110745D01*
X0343702Y0110842D02*
X0390356Y0110842D01*
X0390924Y0112440D02*
X0346109Y0112440D01*
X0346893Y0114039D02*
X0393107Y0114039D01*
X0395406Y0114039D02*
X0410732Y0114039D01*
X0410732Y0115637D02*
X0390859Y0115637D01*
X0390692Y0115234D02*
X0391068Y0116143D01*
X0391068Y0117127D01*
X0390692Y0118036D01*
X0389996Y0118732D01*
X0389486Y0118944D01*
X0389568Y0119143D01*
X0389568Y0120127D01*
X0389486Y0120327D01*
X0389996Y0120539D01*
X0390692Y0121234D01*
X0391068Y0122143D01*
X0391068Y0123127D01*
X0390692Y0124036D01*
X0390593Y0124135D01*
X0391192Y0124734D01*
X0391568Y0125643D01*
X0391568Y0126627D01*
X0391199Y0127520D01*
X0392047Y0126671D01*
X0393481Y0126078D01*
X0395032Y0126078D01*
X0396466Y0126671D01*
X0397563Y0127769D01*
X0398157Y0129202D01*
X0398157Y0130754D01*
X0397563Y0132187D01*
X0396466Y0133285D01*
X0395032Y0133878D01*
X0393481Y0133878D01*
X0392047Y0133285D01*
X0390950Y0132187D01*
X0390356Y0130754D01*
X0390356Y0129202D01*
X0390943Y0127785D01*
X0390496Y0128232D01*
X0389587Y0128609D01*
X0388603Y0128609D01*
X0387694Y0128232D01*
X0386998Y0127536D01*
X0386622Y0126627D01*
X0386622Y0125643D01*
X0386998Y0124734D01*
X0387097Y0124635D01*
X0386498Y0124036D01*
X0386122Y0123127D01*
X0386122Y0122143D01*
X0386205Y0121944D01*
X0385694Y0121732D01*
X0384998Y0121036D01*
X0384622Y0120127D01*
X0384622Y0119143D01*
X0384998Y0118234D01*
X0385694Y0117539D01*
X0386205Y0117327D01*
X0386122Y0117127D01*
X0386122Y0116143D01*
X0386498Y0115234D01*
X0387194Y0114539D01*
X0388103Y0114162D01*
X0389087Y0114162D01*
X0389996Y0114539D01*
X0390692Y0115234D01*
X0391023Y0117236D02*
X0410732Y0117236D01*
X0410732Y0118834D02*
X0389750Y0118834D01*
X0389740Y0120433D02*
X0410732Y0120433D01*
X0410732Y0122031D02*
X0391022Y0122031D01*
X0390860Y0123630D02*
X0410732Y0123630D01*
X0410732Y0125228D02*
X0391396Y0125228D01*
X0391486Y0126827D02*
X0391892Y0126827D01*
X0390678Y0128425D02*
X0390030Y0128425D01*
X0390356Y0130024D02*
X0313312Y0130024D01*
X0313192Y0129734D02*
X0313568Y0130643D01*
X0313568Y0131627D01*
X0313192Y0132536D01*
X0312496Y0133232D01*
X0312376Y0133282D01*
X0312996Y0133539D01*
X0313692Y0134234D01*
X0314068Y0135143D01*
X0314068Y0136127D01*
X0313692Y0137036D01*
X0312996Y0137732D01*
X0312087Y0138109D01*
X0311103Y0138109D01*
X0310194Y0137732D01*
X0309498Y0137036D01*
X0309122Y0136127D01*
X0309122Y0135143D01*
X0309498Y0134234D01*
X0310194Y0133539D01*
X0310314Y0133489D01*
X0309694Y0133232D01*
X0308998Y0132536D01*
X0308622Y0131627D01*
X0308622Y0130643D01*
X0308998Y0129734D01*
X0309694Y0129039D01*
X0310603Y0128662D01*
X0311587Y0128662D01*
X0312496Y0129039D01*
X0313192Y0129734D01*
X0313568Y0131622D02*
X0329899Y0131622D01*
X0330108Y0131413D02*
X0331722Y0130745D01*
X0333468Y0130745D01*
X0335082Y0131413D01*
X0336317Y0132648D01*
X0336986Y0134262D01*
X0336986Y0136009D01*
X0336317Y0137622D01*
X0335082Y0138858D01*
X0333468Y0139526D01*
X0331722Y0139526D01*
X0330108Y0138858D01*
X0329568Y0138318D01*
X0329568Y0139127D01*
X0329192Y0140036D01*
X0328496Y0140732D01*
X0327587Y0141109D01*
X0326603Y0141109D01*
X0325694Y0140732D01*
X0324998Y0140036D01*
X0324622Y0139127D01*
X0324622Y0138143D01*
X0324998Y0137234D01*
X0325694Y0136539D01*
X0326603Y0136162D01*
X0327587Y0136162D01*
X0328409Y0136503D01*
X0328205Y0136009D01*
X0328205Y0134262D01*
X0328873Y0132648D01*
X0330108Y0131413D01*
X0328636Y0133221D02*
X0312507Y0133221D01*
X0313934Y0134819D02*
X0328205Y0134819D01*
X0328204Y0136418D02*
X0328374Y0136418D01*
X0325986Y0136418D02*
X0313948Y0136418D01*
X0312310Y0138016D02*
X0324675Y0138016D01*
X0324824Y0139615D02*
X0250849Y0139615D01*
X0250692Y0139234D02*
X0251068Y0140143D01*
X0251068Y0141127D01*
X0250692Y0142036D01*
X0249996Y0142732D01*
X0249087Y0143109D01*
X0248103Y0143109D01*
X0247194Y0142732D01*
X0246498Y0142036D01*
X0246122Y0141127D01*
X0246122Y0140143D01*
X0246498Y0139234D01*
X0247194Y0138539D01*
X0248103Y0138162D01*
X0249087Y0138162D01*
X0249996Y0138539D01*
X0250692Y0139234D01*
X0251033Y0141213D02*
X0395800Y0141213D01*
X0395622Y0141643D02*
X0395998Y0140734D01*
X0396694Y0140039D01*
X0397603Y0139662D01*
X0398587Y0139662D01*
X0399496Y0140039D01*
X0400192Y0140734D01*
X0400568Y0141643D01*
X0400568Y0142627D01*
X0400192Y0143536D01*
X0399496Y0144232D01*
X0398587Y0144609D01*
X0397603Y0144609D01*
X0396694Y0144232D01*
X0395998Y0143536D01*
X0395622Y0142627D01*
X0395622Y0141643D01*
X0395698Y0142812D02*
X0309724Y0142812D01*
X0309692Y0142734D02*
X0310068Y0143643D01*
X0310068Y0144627D01*
X0309692Y0145536D01*
X0308996Y0146232D01*
X0308087Y0146609D01*
X0307103Y0146609D01*
X0306194Y0146232D01*
X0305498Y0145536D01*
X0305122Y0144627D01*
X0305122Y0143643D01*
X0305498Y0142734D01*
X0306194Y0142039D01*
X0307103Y0141662D01*
X0308087Y0141662D01*
X0308996Y0142039D01*
X0309692Y0142734D01*
X0310068Y0144410D02*
X0397125Y0144410D01*
X0399066Y0144410D02*
X0410732Y0144410D01*
X0410732Y0142812D02*
X0400492Y0142812D01*
X0400390Y0141213D02*
X0410732Y0141213D01*
X0410732Y0139615D02*
X0343638Y0139615D01*
X0343669Y0139610D02*
X0342956Y0139723D01*
X0342795Y0139723D01*
X0342795Y0135336D01*
X0342395Y0135336D01*
X0342395Y0139723D01*
X0342234Y0139723D01*
X0341521Y0139610D01*
X0340834Y0139387D01*
X0340191Y0139059D01*
X0339607Y0138634D01*
X0339096Y0138124D01*
X0338672Y0137540D01*
X0338344Y0136896D01*
X0338121Y0136210D01*
X0338008Y0135496D01*
X0338008Y0135335D01*
X0342395Y0135335D01*
X0342395Y0134935D01*
X0342795Y0134935D01*
X0342795Y0130548D01*
X0342956Y0130548D01*
X0343669Y0130661D01*
X0344356Y0130884D01*
X0344999Y0131212D01*
X0345584Y0131636D01*
X0346094Y0132147D01*
X0346519Y0132731D01*
X0346846Y0133374D01*
X0347070Y0134061D01*
X0347183Y0134774D01*
X0347183Y0134935D01*
X0342795Y0134935D01*
X0342795Y0135335D01*
X0347183Y0135335D01*
X0347183Y0135496D01*
X0347070Y0136210D01*
X0346846Y0136896D01*
X0346519Y0137540D01*
X0346094Y0138124D01*
X0345584Y0138634D01*
X0344999Y0139059D01*
X0344356Y0139387D01*
X0343669Y0139610D01*
X0342795Y0139615D02*
X0342395Y0139615D01*
X0341552Y0139615D02*
X0329366Y0139615D01*
X0335923Y0138016D02*
X0339018Y0138016D01*
X0338188Y0136418D02*
X0336816Y0136418D01*
X0336986Y0134819D02*
X0338008Y0134819D01*
X0338008Y0134774D02*
X0338121Y0134061D01*
X0338344Y0133374D01*
X0338672Y0132731D01*
X0339096Y0132147D01*
X0339607Y0131636D01*
X0340191Y0131212D01*
X0340834Y0130884D01*
X0341521Y0130661D01*
X0342234Y0130548D01*
X0342395Y0130548D01*
X0342395Y0134935D01*
X0338008Y0134935D01*
X0338008Y0134774D01*
X0338422Y0133221D02*
X0336554Y0133221D01*
X0335291Y0131622D02*
X0339626Y0131622D01*
X0342395Y0131622D02*
X0342795Y0131622D01*
X0342795Y0133221D02*
X0342395Y0133221D01*
X0342395Y0134819D02*
X0342795Y0134819D01*
X0342795Y0136418D02*
X0342395Y0136418D01*
X0342395Y0138016D02*
X0342795Y0138016D01*
X0346172Y0138016D02*
X0410732Y0138016D01*
X0410732Y0136418D02*
X0347002Y0136418D01*
X0347183Y0134819D02*
X0410732Y0134819D01*
X0410732Y0133221D02*
X0396530Y0133221D01*
X0397797Y0131622D02*
X0410732Y0131622D01*
X0410732Y0130024D02*
X0398157Y0130024D01*
X0397835Y0128425D02*
X0410732Y0128425D01*
X0410732Y0126827D02*
X0396621Y0126827D01*
X0390716Y0131622D02*
X0345564Y0131622D01*
X0346768Y0133221D02*
X0391983Y0133221D01*
X0388160Y0128425D02*
X0345514Y0128425D01*
X0345082Y0128858D02*
X0346317Y0127622D01*
X0346986Y0126009D01*
X0346986Y0124262D01*
X0346317Y0122648D01*
X0345082Y0121413D01*
X0343468Y0120745D01*
X0341722Y0120745D01*
X0340108Y0121413D01*
X0338873Y0122648D01*
X0338205Y0124262D01*
X0338205Y0126009D01*
X0338873Y0127622D01*
X0340108Y0128858D01*
X0341722Y0129526D01*
X0343468Y0129526D01*
X0345082Y0128858D01*
X0346647Y0126827D02*
X0386705Y0126827D01*
X0386794Y0125228D02*
X0346986Y0125228D01*
X0346724Y0123630D02*
X0386330Y0123630D01*
X0386168Y0122031D02*
X0345700Y0122031D01*
X0345106Y0118834D02*
X0384750Y0118834D01*
X0384748Y0120433D02*
X0317987Y0120433D01*
X0317961Y0120371D02*
X0318163Y0120857D01*
X0318265Y0121372D01*
X0318265Y0121635D01*
X0315595Y0121635D01*
X0315595Y0121635D01*
X0315595Y0118965D01*
X0315332Y0118965D01*
X0314816Y0119068D01*
X0314330Y0119269D01*
X0313893Y0119561D01*
X0313521Y0119933D01*
X0313229Y0120371D01*
X0313028Y0120857D01*
X0312925Y0121372D01*
X0312925Y0121635D01*
X0315595Y0121635D01*
X0315595Y0118965D01*
X0315858Y0118965D01*
X0316374Y0119068D01*
X0316860Y0119269D01*
X0317297Y0119561D01*
X0317669Y0119933D01*
X0317961Y0120371D01*
X0318265Y0121635D02*
X0318265Y0121898D01*
X0318163Y0122414D01*
X0317961Y0122900D01*
X0317669Y0123337D01*
X0317297Y0123709D01*
X0316860Y0124002D01*
X0316374Y0124203D01*
X0315858Y0124305D01*
X0315595Y0124305D01*
X0315332Y0124305D01*
X0314816Y0124203D01*
X0314330Y0124002D01*
X0313893Y0123709D01*
X0313521Y0123337D01*
X0313229Y0122900D01*
X0313028Y0122414D01*
X0312925Y0121898D01*
X0312925Y0121635D01*
X0315595Y0121635D01*
X0315595Y0121635D01*
X0315595Y0121635D01*
X0318265Y0121635D01*
X0318239Y0122031D02*
X0329490Y0122031D01*
X0328873Y0122648D02*
X0330108Y0121413D01*
X0331722Y0120745D01*
X0333468Y0120745D01*
X0335082Y0121413D01*
X0336317Y0122648D01*
X0336986Y0124262D01*
X0336986Y0126009D01*
X0336317Y0127622D01*
X0335082Y0128858D01*
X0333468Y0129526D01*
X0331722Y0129526D01*
X0330108Y0128858D01*
X0328873Y0127622D01*
X0328205Y0126009D01*
X0328205Y0124262D01*
X0328873Y0122648D01*
X0328467Y0123630D02*
X0317377Y0123630D01*
X0315595Y0123630D02*
X0315595Y0123630D01*
X0315595Y0124305D02*
X0315595Y0121636D01*
X0315595Y0121636D01*
X0315595Y0124305D01*
X0313813Y0123630D02*
X0280860Y0123630D01*
X0280692Y0124036D02*
X0279996Y0124732D01*
X0279087Y0125109D01*
X0278103Y0125109D01*
X0277194Y0124732D01*
X0276498Y0124036D01*
X0276122Y0123127D01*
X0276122Y0122143D01*
X0276498Y0121234D01*
X0277194Y0120539D01*
X0278103Y0120162D01*
X0279087Y0120162D01*
X0279996Y0120539D01*
X0280692Y0121234D01*
X0281068Y0122143D01*
X0281068Y0123127D01*
X0280692Y0124036D01*
X0281022Y0122031D02*
X0296789Y0122031D01*
X0296622Y0121627D02*
X0296622Y0120643D01*
X0296998Y0119734D01*
X0297694Y0119039D01*
X0298603Y0118662D01*
X0299587Y0118662D01*
X0300496Y0119039D01*
X0301192Y0119734D01*
X0301568Y0120643D01*
X0301568Y0121627D01*
X0301192Y0122536D01*
X0300496Y0123232D01*
X0299587Y0123609D01*
X0298603Y0123609D01*
X0297694Y0123232D01*
X0296998Y0122536D01*
X0296622Y0121627D01*
X0296709Y0120433D02*
X0295574Y0120433D01*
X0295669Y0120337D02*
X0295297Y0120709D01*
X0294860Y0121002D01*
X0294374Y0121203D01*
X0293858Y0121305D01*
X0293595Y0121305D01*
X0293332Y0121305D01*
X0292816Y0121203D01*
X0292330Y0121002D01*
X0291893Y0120709D01*
X0291521Y0120337D01*
X0291229Y0119900D01*
X0291028Y0119414D01*
X0290925Y0118898D01*
X0290925Y0118635D01*
X0290925Y0118372D01*
X0291028Y0117857D01*
X0291229Y0117371D01*
X0291521Y0116933D01*
X0291893Y0116561D01*
X0292330Y0116269D01*
X0292816Y0116068D01*
X0293332Y0115965D01*
X0293595Y0115965D01*
X0293595Y0118635D01*
X0293595Y0118635D01*
X0293595Y0115965D01*
X0293858Y0115965D01*
X0294374Y0116068D01*
X0294860Y0116269D01*
X0295297Y0116561D01*
X0295669Y0116933D01*
X0295961Y0117371D01*
X0296163Y0117857D01*
X0296265Y0118372D01*
X0296265Y0118635D01*
X0293595Y0118635D01*
X0290925Y0118635D01*
X0293595Y0118635D01*
X0293595Y0118635D01*
X0293595Y0118635D01*
X0296265Y0118635D01*
X0296265Y0118898D01*
X0296163Y0119414D01*
X0295961Y0119900D01*
X0295669Y0120337D01*
X0296265Y0118834D02*
X0298188Y0118834D01*
X0300002Y0118834D02*
X0330085Y0118834D01*
X0328713Y0117236D02*
X0295871Y0117236D01*
X0293595Y0117236D02*
X0293595Y0117236D01*
X0293595Y0118636D02*
X0293595Y0121305D01*
X0293595Y0118636D01*
X0293595Y0118636D01*
X0293595Y0118834D02*
X0293595Y0118834D01*
X0293595Y0120433D02*
X0293595Y0120433D01*
X0291616Y0120433D02*
X0279740Y0120433D01*
X0277450Y0120433D02*
X0269240Y0120433D01*
X0269496Y0120539D02*
X0270192Y0121234D01*
X0270568Y0122143D01*
X0270568Y0123127D01*
X0270192Y0124036D01*
X0269496Y0124732D01*
X0268587Y0125109D01*
X0267603Y0125109D01*
X0266694Y0124732D01*
X0265998Y0124036D01*
X0265622Y0123127D01*
X0265622Y0122143D01*
X0265998Y0121234D01*
X0266694Y0120539D01*
X0267603Y0120162D01*
X0268587Y0120162D01*
X0269496Y0120539D01*
X0270522Y0122031D02*
X0276168Y0122031D01*
X0276330Y0123630D02*
X0270360Y0123630D01*
X0265830Y0123630D02*
X0198425Y0123630D01*
X0199082Y0123358D02*
X0197468Y0124026D01*
X0195722Y0124026D01*
X0194108Y0123358D01*
X0192873Y0122122D01*
X0192205Y0120509D01*
X0192205Y0118762D01*
X0192873Y0117148D01*
X0194108Y0115913D01*
X0195722Y0115245D01*
X0197468Y0115245D01*
X0199082Y0115913D01*
X0200317Y0117148D01*
X0200986Y0118762D01*
X0200986Y0120509D01*
X0200317Y0122122D01*
X0199082Y0123358D01*
X0200355Y0122031D02*
X0265668Y0122031D01*
X0266950Y0120433D02*
X0262512Y0120433D01*
X0262087Y0120609D02*
X0261103Y0120609D01*
X0260194Y0120232D01*
X0259498Y0119536D01*
X0259122Y0118627D01*
X0259122Y0117643D01*
X0259498Y0116734D01*
X0260194Y0116039D01*
X0261103Y0115662D01*
X0262087Y0115662D01*
X0262996Y0116039D01*
X0263692Y0116734D01*
X0264068Y0117643D01*
X0264068Y0118627D01*
X0263692Y0119536D01*
X0262996Y0120232D01*
X0262087Y0120609D01*
X0260678Y0120433D02*
X0225440Y0120433D01*
X0225461Y0120400D02*
X0225169Y0120837D01*
X0224797Y0121209D01*
X0224360Y0121502D01*
X0223874Y0121703D01*
X0223358Y0121805D01*
X0223095Y0121805D01*
X0222832Y0121805D01*
X0222316Y0121703D01*
X0221830Y0121502D01*
X0221393Y0121209D01*
X0221021Y0120837D01*
X0220729Y0120400D01*
X0220528Y0119914D01*
X0220425Y0119398D01*
X0220425Y0119135D01*
X0220425Y0118872D01*
X0220528Y0118357D01*
X0220729Y0117871D01*
X0221021Y0117433D01*
X0221393Y0117061D01*
X0221830Y0116769D01*
X0222316Y0116568D01*
X0222832Y0116465D01*
X0223095Y0116465D01*
X0223095Y0119135D01*
X0223095Y0119135D01*
X0223095Y0116465D01*
X0223358Y0116465D01*
X0223874Y0116568D01*
X0224360Y0116769D01*
X0224797Y0117061D01*
X0225169Y0117433D01*
X0225461Y0117871D01*
X0225663Y0118357D01*
X0225765Y0118872D01*
X0225765Y0119135D01*
X0223095Y0119135D01*
X0220425Y0119135D01*
X0223095Y0119135D01*
X0223095Y0119135D01*
X0223095Y0119135D01*
X0225765Y0119135D01*
X0225765Y0119398D01*
X0225663Y0119914D01*
X0225461Y0120400D01*
X0225758Y0118834D02*
X0226941Y0118834D01*
X0226694Y0118732D02*
X0225998Y0118036D01*
X0225622Y0117127D01*
X0225622Y0116143D01*
X0225998Y0115234D01*
X0226694Y0114539D01*
X0227603Y0114162D01*
X0228587Y0114162D01*
X0229496Y0114539D01*
X0230192Y0115234D01*
X0230568Y0116143D01*
X0230568Y0117127D01*
X0230192Y0118036D01*
X0229496Y0118732D01*
X0228587Y0119109D01*
X0227603Y0119109D01*
X0226694Y0118732D01*
X0225667Y0117236D02*
X0224971Y0117236D01*
X0225832Y0115637D02*
X0218595Y0115637D01*
X0218496Y0115539D02*
X0219192Y0116234D01*
X0219568Y0117143D01*
X0219568Y0118127D01*
X0219192Y0119036D01*
X0218496Y0119732D01*
X0217587Y0120109D01*
X0216603Y0120109D01*
X0215694Y0119732D01*
X0214998Y0119036D01*
X0214845Y0118666D01*
X0214692Y0119036D01*
X0213996Y0119732D01*
X0213087Y0120109D01*
X0212103Y0120109D01*
X0211194Y0119732D01*
X0210498Y0119036D01*
X0210122Y0118127D01*
X0210122Y0117143D01*
X0210498Y0116234D01*
X0211194Y0115539D01*
X0212103Y0115162D01*
X0213087Y0115162D01*
X0213996Y0115539D01*
X0214692Y0116234D01*
X0214845Y0116605D01*
X0214998Y0116234D01*
X0215694Y0115539D01*
X0216603Y0115162D01*
X0217587Y0115162D01*
X0218496Y0115539D01*
X0219568Y0117236D02*
X0221219Y0117236D01*
X0220433Y0118834D02*
X0219276Y0118834D01*
X0220751Y0120433D02*
X0200986Y0120433D01*
X0200986Y0118834D02*
X0210415Y0118834D01*
X0210122Y0117236D02*
X0200353Y0117236D01*
X0198416Y0115637D02*
X0211096Y0115637D01*
X0214095Y0115637D02*
X0215596Y0115637D01*
X0214915Y0118834D02*
X0214776Y0118834D01*
X0223095Y0118834D02*
X0223095Y0118834D01*
X0223095Y0119136D02*
X0223095Y0121805D01*
X0223095Y0119136D01*
X0223095Y0119136D01*
X0223095Y0120433D02*
X0223095Y0120433D01*
X0223095Y0117236D02*
X0223095Y0117236D01*
X0229250Y0118834D02*
X0259208Y0118834D01*
X0259291Y0117236D02*
X0230523Y0117236D01*
X0230359Y0115637D02*
X0266099Y0115637D01*
X0265998Y0115536D02*
X0265622Y0114627D01*
X0265622Y0113643D01*
X0265998Y0112734D01*
X0266694Y0112039D01*
X0267603Y0111662D01*
X0268587Y0111662D01*
X0269496Y0112039D01*
X0270192Y0112734D01*
X0270568Y0113643D01*
X0270568Y0114627D01*
X0270192Y0115536D01*
X0269496Y0116232D01*
X0268587Y0116609D01*
X0267603Y0116609D01*
X0266694Y0116232D01*
X0265998Y0115536D01*
X0265622Y0114039D02*
X0263256Y0114039D01*
X0261934Y0114039D02*
X0051414Y0114039D01*
X0051414Y0112440D02*
X0193191Y0112440D01*
X0192873Y0112122D02*
X0192205Y0110509D01*
X0192205Y0108762D01*
X0192873Y0107148D01*
X0194108Y0105913D01*
X0195722Y0105245D01*
X0197468Y0105245D01*
X0199082Y0105913D01*
X0200317Y0107148D01*
X0200986Y0108762D01*
X0200986Y0110509D01*
X0200317Y0112122D01*
X0199082Y0113358D01*
X0197468Y0114026D01*
X0195722Y0114026D01*
X0194108Y0113358D01*
X0192873Y0112122D01*
X0192342Y0110842D02*
X0051414Y0110842D01*
X0051414Y0109243D02*
X0071877Y0109243D01*
X0071998Y0109536D02*
X0071622Y0108627D01*
X0071622Y0107643D01*
X0071998Y0106734D01*
X0072694Y0106039D01*
X0073603Y0105662D01*
X0074587Y0105662D01*
X0075496Y0106039D01*
X0076192Y0106734D01*
X0076568Y0107643D01*
X0076568Y0108627D01*
X0076192Y0109536D01*
X0075496Y0110232D01*
X0074587Y0110609D01*
X0073603Y0110609D01*
X0072694Y0110232D01*
X0071998Y0109536D01*
X0071622Y0107645D02*
X0051414Y0107645D01*
X0051414Y0106046D02*
X0072687Y0106046D01*
X0075503Y0106046D02*
X0193975Y0106046D01*
X0192667Y0107645D02*
X0076568Y0107645D01*
X0076313Y0109243D02*
X0192205Y0109243D01*
X0195694Y0103732D02*
X0194998Y0103036D01*
X0194622Y0102127D01*
X0194622Y0101594D01*
X0194587Y0101609D01*
X0193603Y0101609D01*
X0192694Y0101232D01*
X0191998Y0100536D01*
X0191622Y0099627D01*
X0191622Y0098643D01*
X0191998Y0097734D01*
X0192694Y0097039D01*
X0193603Y0096662D01*
X0193636Y0096662D01*
X0193622Y0096627D01*
X0193622Y0095643D01*
X0193998Y0094734D01*
X0194694Y0094039D01*
X0195603Y0093662D01*
X0196587Y0093662D01*
X0197496Y0094039D01*
X0198192Y0094734D01*
X0198568Y0095643D01*
X0198568Y0096627D01*
X0198192Y0097536D01*
X0197496Y0098232D01*
X0196587Y0098609D01*
X0196554Y0098609D01*
X0196568Y0098643D01*
X0196568Y0099177D01*
X0196603Y0099162D01*
X0197587Y0099162D01*
X0198496Y0099539D01*
X0199192Y0100234D01*
X0199568Y0101143D01*
X0199568Y0102127D01*
X0199192Y0103036D01*
X0198496Y0103732D01*
X0197587Y0104109D01*
X0196603Y0104109D01*
X0195694Y0103732D01*
X0194921Y0102849D02*
X0051414Y0102849D01*
X0051414Y0101251D02*
X0192739Y0101251D01*
X0191632Y0099652D02*
X0051414Y0099652D01*
X0051414Y0098054D02*
X0191866Y0098054D01*
X0193622Y0096455D02*
X0051414Y0096455D01*
X0051414Y0094857D02*
X0193948Y0094857D01*
X0197498Y0093036D02*
X0197122Y0092127D01*
X0197122Y0091143D01*
X0197498Y0090234D01*
X0198194Y0089539D01*
X0199103Y0089162D01*
X0200087Y0089162D01*
X0200996Y0089539D01*
X0201692Y0090234D01*
X0202068Y0091143D01*
X0202068Y0092127D01*
X0201692Y0093036D01*
X0200996Y0093732D01*
X0200087Y0094109D01*
X0199103Y0094109D01*
X0198194Y0093732D01*
X0197498Y0093036D01*
X0197720Y0093258D02*
X0051414Y0093258D01*
X0051414Y0091660D02*
X0197122Y0091660D01*
X0197672Y0090061D02*
X0193167Y0090061D01*
X0192996Y0090232D02*
X0192087Y0090609D01*
X0191103Y0090609D01*
X0190194Y0090232D01*
X0189498Y0089536D01*
X0189122Y0088627D01*
X0189122Y0087643D01*
X0189498Y0086734D01*
X0189847Y0086385D01*
X0189498Y0086036D01*
X0189122Y0085127D01*
X0189122Y0084143D01*
X0189498Y0083234D01*
X0189847Y0082885D01*
X0189498Y0082536D01*
X0189122Y0081627D01*
X0189122Y0080643D01*
X0189498Y0079734D01*
X0190194Y0079039D01*
X0191103Y0078662D01*
X0192087Y0078662D01*
X0192996Y0079039D01*
X0193692Y0079734D01*
X0194068Y0080643D01*
X0194068Y0081627D01*
X0193692Y0082536D01*
X0193343Y0082885D01*
X0193692Y0083234D01*
X0194068Y0084143D01*
X0194068Y0085127D01*
X0193692Y0086036D01*
X0193343Y0086385D01*
X0193692Y0086734D01*
X0194068Y0087643D01*
X0194068Y0088627D01*
X0193692Y0089536D01*
X0192996Y0090232D01*
X0194068Y0088462D02*
X0219261Y0088462D01*
X0219122Y0088127D02*
X0219122Y0087143D01*
X0219498Y0086234D01*
X0220194Y0085539D01*
X0221103Y0085162D01*
X0222087Y0085162D01*
X0222996Y0085539D01*
X0223692Y0086234D01*
X0224068Y0087143D01*
X0224068Y0088127D01*
X0223692Y0089036D01*
X0222996Y0089732D01*
X0222087Y0090109D01*
X0221103Y0090109D01*
X0220194Y0089732D01*
X0219498Y0089036D01*
X0219122Y0088127D01*
X0219238Y0086864D02*
X0193745Y0086864D01*
X0194011Y0085265D02*
X0220854Y0085265D01*
X0222336Y0085265D02*
X0256909Y0085265D01*
X0256909Y0083667D02*
X0193871Y0083667D01*
X0193886Y0082068D02*
X0205030Y0082068D01*
X0205194Y0082232D02*
X0204498Y0081536D01*
X0204122Y0080627D01*
X0204122Y0079643D01*
X0204498Y0078734D01*
X0205194Y0078039D01*
X0206103Y0077662D01*
X0207087Y0077662D01*
X0207996Y0078039D01*
X0208692Y0078734D01*
X0209068Y0079643D01*
X0209068Y0080627D01*
X0208692Y0081536D01*
X0207996Y0082232D01*
X0207087Y0082609D01*
X0206103Y0082609D01*
X0205194Y0082232D01*
X0204122Y0080470D02*
X0193996Y0080470D01*
X0192592Y0078871D02*
X0204442Y0078871D01*
X0208749Y0078871D02*
X0211735Y0078871D01*
X0211622Y0079143D02*
X0211998Y0078234D01*
X0212694Y0077539D01*
X0213603Y0077162D01*
X0214587Y0077162D01*
X0215496Y0077539D01*
X0216192Y0078234D01*
X0216568Y0079143D01*
X0216568Y0080127D01*
X0216192Y0081036D01*
X0215496Y0081732D01*
X0214587Y0082109D01*
X0213603Y0082109D01*
X0212694Y0081732D01*
X0211998Y0081036D01*
X0211622Y0080127D01*
X0211622Y0079143D01*
X0211764Y0080470D02*
X0209068Y0080470D01*
X0208160Y0082068D02*
X0213506Y0082068D01*
X0214684Y0082068D02*
X0256909Y0082068D01*
X0256909Y0080470D02*
X0233407Y0080470D01*
X0233360Y0080502D02*
X0232874Y0080703D01*
X0232358Y0080805D01*
X0232095Y0080805D01*
X0231832Y0080805D01*
X0231316Y0080703D01*
X0230830Y0080502D01*
X0230393Y0080209D01*
X0230021Y0079838D01*
X0229729Y0079400D01*
X0229528Y0078914D01*
X0229425Y0078398D01*
X0229425Y0078135D01*
X0232095Y0078135D01*
X0232095Y0078135D01*
X0232095Y0078135D01*
X0234765Y0078135D01*
X0234765Y0078398D01*
X0234663Y0078914D01*
X0234461Y0079400D01*
X0234169Y0079838D01*
X0233797Y0080209D01*
X0233360Y0080502D01*
X0232095Y0080470D02*
X0232095Y0080470D01*
X0232095Y0080805D02*
X0232095Y0078136D01*
X0232095Y0078136D01*
X0232095Y0080805D01*
X0230783Y0080470D02*
X0216426Y0080470D01*
X0216456Y0078871D02*
X0229519Y0078871D01*
X0232095Y0078871D02*
X0232095Y0078871D01*
X0234671Y0078871D02*
X0255947Y0078871D01*
X0268996Y0080470D02*
X0292776Y0080470D01*
X0292729Y0080400D02*
X0292528Y0079914D01*
X0292425Y0079398D01*
X0292425Y0079135D01*
X0295095Y0079135D01*
X0295095Y0079135D01*
X0295095Y0079135D01*
X0297765Y0079135D01*
X0297765Y0079398D01*
X0297663Y0079914D01*
X0297461Y0080400D01*
X0297169Y0080838D01*
X0296797Y0081209D01*
X0296360Y0081502D01*
X0295874Y0081703D01*
X0295358Y0081805D01*
X0295095Y0081805D01*
X0294832Y0081805D01*
X0294316Y0081703D01*
X0293830Y0081502D01*
X0293393Y0081209D01*
X0293021Y0080838D01*
X0292729Y0080400D01*
X0295095Y0080470D02*
X0295095Y0080470D01*
X0295095Y0079136D02*
X0295095Y0081805D01*
X0295095Y0079136D01*
X0295095Y0079136D01*
X0295095Y0078871D02*
X0295095Y0078871D01*
X0295095Y0077273D02*
X0295095Y0077273D01*
X0297009Y0077273D02*
X0325622Y0077273D01*
X0326059Y0075674D02*
X0270440Y0075674D01*
X0268886Y0082068D02*
X0325805Y0082068D01*
X0325694Y0080470D02*
X0297415Y0080470D01*
X0297765Y0078871D02*
X0326333Y0078871D01*
X0329857Y0078871D02*
X0382678Y0078871D01*
X0380660Y0077273D02*
X0330568Y0077273D01*
X0330724Y0083667D02*
X0350122Y0083667D01*
X0350728Y0085265D02*
X0330517Y0085265D01*
X0328095Y0085265D02*
X0328095Y0085265D01*
X0328095Y0084136D02*
X0328095Y0086805D01*
X0328095Y0084136D01*
X0328095Y0084136D01*
X0326051Y0067682D02*
X0289339Y0067682D01*
X0289543Y0066083D02*
X0384358Y0066083D01*
X0382327Y0064485D02*
X0300630Y0064485D01*
X0302228Y0062886D02*
X0379284Y0062886D01*
X0377124Y0061288D02*
X0303827Y0061288D01*
X0305425Y0059689D02*
X0326651Y0059689D01*
X0326694Y0059732D02*
X0325998Y0059036D01*
X0325622Y0058127D01*
X0325622Y0057143D01*
X0325998Y0056234D01*
X0326694Y0055539D01*
X0327603Y0055162D01*
X0327718Y0055162D01*
X0327330Y0055002D01*
X0326893Y0054709D01*
X0326521Y0054337D01*
X0326229Y0053900D01*
X0326028Y0053414D01*
X0325925Y0052898D01*
X0325925Y0052635D01*
X0325925Y0052372D01*
X0326028Y0051857D01*
X0326229Y0051371D01*
X0326481Y0050994D01*
X0326122Y0050127D01*
X0326122Y0049143D01*
X0326498Y0048234D01*
X0327194Y0047539D01*
X0328103Y0047162D01*
X0329087Y0047162D01*
X0329996Y0047539D01*
X0330692Y0048234D01*
X0331068Y0049143D01*
X0331068Y0050127D01*
X0330709Y0050994D01*
X0330961Y0051371D01*
X0331163Y0051857D01*
X0331265Y0052372D01*
X0331265Y0052635D01*
X0328595Y0052635D01*
X0325925Y0052635D01*
X0328595Y0052635D01*
X0328595Y0052635D01*
X0328595Y0052635D01*
X0331265Y0052635D01*
X0331265Y0052898D01*
X0331163Y0053414D01*
X0330961Y0053900D01*
X0330669Y0054337D01*
X0330297Y0054709D01*
X0329860Y0055002D01*
X0329374Y0055203D01*
X0328909Y0055295D01*
X0329496Y0055539D01*
X0330192Y0056234D01*
X0330568Y0057143D01*
X0330568Y0058127D01*
X0330192Y0059036D01*
X0329496Y0059732D01*
X0328587Y0060109D01*
X0327603Y0060109D01*
X0326694Y0059732D01*
X0325622Y0058091D02*
X0307024Y0058091D01*
X0308622Y0056492D02*
X0325892Y0056492D01*
X0327169Y0054894D02*
X0310221Y0054894D01*
X0311819Y0053295D02*
X0326004Y0053295D01*
X0326094Y0051697D02*
X0313418Y0051697D01*
X0315016Y0050098D02*
X0326122Y0050098D01*
X0326389Y0048500D02*
X0316615Y0048500D01*
X0318213Y0046901D02*
X0365687Y0046901D01*
X0365687Y0045303D02*
X0325289Y0045303D01*
X0325568Y0043704D02*
X0365687Y0043704D01*
X0365687Y0042106D02*
X0324563Y0042106D01*
X0321627Y0042106D02*
X0320063Y0042106D01*
X0317127Y0042106D02*
X0313854Y0042106D01*
X0315612Y0040507D02*
X0365147Y0040507D01*
X0363548Y0038909D02*
X0359245Y0038909D01*
X0359192Y0039036D02*
X0358496Y0039732D01*
X0357587Y0040109D01*
X0356603Y0040109D01*
X0355694Y0039732D01*
X0354998Y0039036D01*
X0354622Y0038127D01*
X0354622Y0037143D01*
X0354998Y0036234D01*
X0355694Y0035539D01*
X0356603Y0035162D01*
X0357587Y0035162D01*
X0358496Y0035539D01*
X0359192Y0036234D01*
X0359568Y0037143D01*
X0359568Y0038127D01*
X0359192Y0039036D01*
X0359568Y0037310D02*
X0361950Y0037310D01*
X0360351Y0035712D02*
X0358669Y0035712D01*
X0358753Y0034113D02*
X0333068Y0034113D01*
X0333068Y0034127D02*
X0332692Y0035036D01*
X0331996Y0035732D01*
X0331087Y0036109D01*
X0330103Y0036109D01*
X0329537Y0035874D01*
X0320067Y0038756D01*
X0319855Y0038969D01*
X0319368Y0038969D01*
X0318902Y0039111D01*
X0318637Y0038969D01*
X0317304Y0038969D01*
X0306861Y0048463D01*
X0306355Y0048969D01*
X0306304Y0048969D01*
X0306267Y0049003D01*
X0305552Y0048969D01*
X0289836Y0048969D01*
X0288762Y0047895D01*
X0287475Y0046609D01*
X0287103Y0046609D01*
X0286194Y0046232D01*
X0285845Y0045883D01*
X0285496Y0046232D01*
X0284587Y0046609D01*
X0283603Y0046609D01*
X0282694Y0046232D01*
X0282595Y0046133D01*
X0281996Y0046732D01*
X0281087Y0047109D01*
X0280103Y0047109D01*
X0279194Y0046732D01*
X0278498Y0046036D01*
X0278122Y0045127D01*
X0278122Y0044143D01*
X0278498Y0043234D01*
X0279194Y0042539D01*
X0280103Y0042162D01*
X0281087Y0042162D01*
X0281996Y0042539D01*
X0282095Y0042638D01*
X0282262Y0042471D01*
X0282262Y0041876D01*
X0282788Y0041350D01*
X0282789Y0041313D01*
X0283321Y0040817D01*
X0283836Y0040302D01*
X0283872Y0040302D01*
X0298321Y0026817D01*
X0302762Y0022376D01*
X0303836Y0021302D01*
X0313194Y0021302D01*
X0313122Y0021127D01*
X0313122Y0020143D01*
X0313498Y0019234D01*
X0314194Y0018539D01*
X0315103Y0018162D01*
X0316087Y0018162D01*
X0316996Y0018539D01*
X0317692Y0019234D01*
X0318068Y0020143D01*
X0318068Y0021127D01*
X0317996Y0021302D01*
X0320005Y0021302D01*
X0319925Y0020898D01*
X0319925Y0020635D01*
X0319925Y0020372D01*
X0320028Y0019857D01*
X0320229Y0019371D01*
X0320521Y0018933D01*
X0320893Y0018561D01*
X0321330Y0018269D01*
X0321816Y0018068D01*
X0322332Y0017965D01*
X0322595Y0017965D01*
X0322595Y0020635D01*
X0322595Y0020635D01*
X0322595Y0017965D01*
X0322858Y0017965D01*
X0323374Y0018068D01*
X0323860Y0018269D01*
X0324297Y0018561D01*
X0324669Y0018933D01*
X0324961Y0019371D01*
X0325163Y0019857D01*
X0325198Y0020035D01*
X0325694Y0019539D01*
X0326603Y0019162D01*
X0327587Y0019162D01*
X0328496Y0019539D01*
X0329192Y0020234D01*
X0329568Y0021143D01*
X0329568Y0022127D01*
X0329192Y0023036D01*
X0328496Y0023732D01*
X0327587Y0024109D01*
X0326603Y0024109D01*
X0326184Y0023935D01*
X0324111Y0024713D01*
X0323855Y0024969D01*
X0323428Y0024969D01*
X0323028Y0025119D01*
X0322698Y0024969D01*
X0317521Y0024969D01*
X0317715Y0025162D01*
X0318087Y0025162D01*
X0318996Y0025539D01*
X0319548Y0026090D01*
X0319740Y0025898D01*
X0320173Y0025378D01*
X0320268Y0025370D01*
X0320336Y0025302D01*
X0321012Y0025302D01*
X0321685Y0025241D01*
X0321759Y0025302D01*
X0323355Y0025302D01*
X0324215Y0026162D01*
X0324587Y0026162D01*
X0325496Y0026539D01*
X0326192Y0027234D01*
X0326568Y0028143D01*
X0326568Y0029127D01*
X0326554Y0029162D01*
X0327087Y0029162D01*
X0327996Y0029539D01*
X0328692Y0030234D01*
X0329068Y0031143D01*
X0329068Y0031665D01*
X0329194Y0031539D01*
X0330103Y0031162D01*
X0331087Y0031162D01*
X0331996Y0031539D01*
X0332692Y0032234D01*
X0333068Y0033143D01*
X0333068Y0034127D01*
X0332808Y0032515D02*
X0357154Y0032515D01*
X0355521Y0035712D02*
X0332017Y0035712D01*
X0328974Y0030916D02*
X0346651Y0030916D01*
X0345410Y0029318D02*
X0327462Y0029318D01*
X0326393Y0027719D02*
X0345047Y0027719D01*
X0345341Y0026121D02*
X0324173Y0026121D01*
X0324619Y0024522D02*
X0335894Y0024522D01*
X0336103Y0024609D02*
X0335194Y0024232D01*
X0334498Y0023536D01*
X0334122Y0022627D01*
X0334122Y0021643D01*
X0334498Y0020734D01*
X0335194Y0020039D01*
X0336103Y0019662D01*
X0337087Y0019662D01*
X0337996Y0020039D01*
X0338692Y0020734D01*
X0339068Y0021643D01*
X0339068Y0022627D01*
X0338692Y0023536D01*
X0337996Y0024232D01*
X0337087Y0024609D01*
X0336103Y0024609D01*
X0337296Y0024522D02*
X0346484Y0024522D01*
X0349423Y0022924D02*
X0338946Y0022924D01*
X0338936Y0021325D02*
X0350681Y0021325D01*
X0358509Y0021325D02*
X0410732Y0021325D01*
X0410732Y0019727D02*
X0337242Y0019727D01*
X0335948Y0019727D02*
X0328684Y0019727D01*
X0329568Y0021325D02*
X0334254Y0021325D01*
X0334245Y0022924D02*
X0329239Y0022924D01*
X0325506Y0019727D02*
X0325109Y0019727D01*
X0323519Y0018128D02*
X0410732Y0018128D01*
X0409692Y0017036D02*
X0408996Y0017732D01*
X0408087Y0018109D01*
X0407103Y0018109D01*
X0406194Y0017732D01*
X0405498Y0017036D01*
X0405122Y0016127D01*
X0405122Y0015143D01*
X0405498Y0014234D01*
X0406194Y0013539D01*
X0407103Y0013162D01*
X0408087Y0013162D01*
X0408996Y0013539D01*
X0409692Y0014234D01*
X0410068Y0015143D01*
X0410068Y0016127D01*
X0409692Y0017036D01*
X0409902Y0016529D02*
X0410732Y0016529D01*
X0410732Y0014931D02*
X0409980Y0014931D01*
X0410732Y0013332D02*
X0408498Y0013332D01*
X0406692Y0013332D02*
X0388498Y0013332D01*
X0388087Y0013162D02*
X0388996Y0013539D01*
X0389692Y0014234D01*
X0390068Y0015143D01*
X0390068Y0016127D01*
X0389692Y0017036D01*
X0388996Y0017732D01*
X0388087Y0018109D01*
X0387103Y0018109D01*
X0386194Y0017732D01*
X0385498Y0017036D01*
X0385122Y0016127D01*
X0385122Y0015143D01*
X0385498Y0014234D01*
X0386194Y0013539D01*
X0387103Y0013162D01*
X0388087Y0013162D01*
X0386692Y0013332D02*
X0163940Y0013332D01*
X0163943Y0014931D02*
X0385210Y0014931D01*
X0385288Y0016529D02*
X0163487Y0016529D01*
X0164068Y0018128D02*
X0164105Y0018128D01*
X0167085Y0018128D02*
X0321671Y0018128D01*
X0322595Y0018128D02*
X0322595Y0018128D01*
X0322595Y0019727D02*
X0322595Y0019727D01*
X0322595Y0020635D02*
X0319925Y0020635D01*
X0322595Y0020635D01*
X0322595Y0020635D01*
X0320082Y0019727D02*
X0317896Y0019727D01*
X0313295Y0019727D02*
X0168068Y0019727D01*
X0167779Y0021325D02*
X0218035Y0021325D01*
X0218191Y0021212D02*
X0218834Y0020884D01*
X0219521Y0020661D01*
X0220234Y0020548D01*
X0220395Y0020548D01*
X0220395Y0024935D01*
X0220795Y0024935D01*
X0220795Y0020548D01*
X0220956Y0020548D01*
X0221669Y0020661D01*
X0222356Y0020884D01*
X0222999Y0021212D01*
X0223584Y0021636D01*
X0224094Y0022147D01*
X0224519Y0022731D01*
X0224846Y0023374D01*
X0225070Y0024061D01*
X0225183Y0024774D01*
X0225183Y0024935D01*
X0220795Y0024935D01*
X0220795Y0025335D01*
X0225183Y0025335D01*
X0225183Y0025496D01*
X0225070Y0026210D01*
X0224846Y0026896D01*
X0224519Y0027540D01*
X0224094Y0028124D01*
X0224022Y0028196D01*
X0224103Y0028162D01*
X0225087Y0028162D01*
X0225996Y0028539D01*
X0226692Y0029234D01*
X0227068Y0030143D01*
X0227068Y0031127D01*
X0226692Y0032036D01*
X0225996Y0032732D01*
X0225087Y0033109D01*
X0224508Y0033109D01*
X0224986Y0034262D01*
X0224986Y0036009D01*
X0224317Y0037622D01*
X0223082Y0038858D01*
X0221468Y0039526D01*
X0219722Y0039526D01*
X0218108Y0038858D01*
X0216873Y0037622D01*
X0216205Y0036009D01*
X0216205Y0034609D01*
X0215603Y0034609D01*
X0214694Y0034232D01*
X0213998Y0033536D01*
X0213622Y0032627D01*
X0213622Y0031643D01*
X0213998Y0030734D01*
X0214694Y0030039D01*
X0215603Y0029662D01*
X0216587Y0029662D01*
X0217496Y0030039D01*
X0218192Y0030734D01*
X0218420Y0031284D01*
X0219722Y0030745D01*
X0221468Y0030745D01*
X0222122Y0031016D01*
X0222122Y0030143D01*
X0222457Y0029336D01*
X0222356Y0029387D01*
X0221669Y0029610D01*
X0220956Y0029723D01*
X0220795Y0029723D01*
X0220795Y0025336D01*
X0220395Y0025336D01*
X0220395Y0029723D01*
X0220234Y0029723D01*
X0219521Y0029610D01*
X0218834Y0029387D01*
X0218191Y0029059D01*
X0217607Y0028634D01*
X0217096Y0028124D01*
X0216672Y0027540D01*
X0216344Y0026896D01*
X0216121Y0026210D01*
X0216008Y0025496D01*
X0216008Y0025335D01*
X0220395Y0025335D01*
X0220395Y0024935D01*
X0216008Y0024935D01*
X0216008Y0024774D01*
X0216121Y0024061D01*
X0216344Y0023374D01*
X0216672Y0022731D01*
X0217096Y0022147D01*
X0217607Y0021636D01*
X0218191Y0021212D01*
X0220395Y0021325D02*
X0220795Y0021325D01*
X0220795Y0022924D02*
X0220395Y0022924D01*
X0220395Y0024522D02*
X0220795Y0024522D01*
X0220795Y0026121D02*
X0220395Y0026121D01*
X0220395Y0027719D02*
X0220795Y0027719D01*
X0220795Y0029318D02*
X0220395Y0029318D01*
X0218698Y0029318D02*
X0187433Y0029318D01*
X0187568Y0029643D02*
X0187192Y0028734D01*
X0186496Y0028039D01*
X0185587Y0027662D01*
X0184603Y0027662D01*
X0183694Y0028039D01*
X0182998Y0028734D01*
X0182622Y0029643D01*
X0182622Y0030627D01*
X0182998Y0031536D01*
X0183694Y0032232D01*
X0184603Y0032609D01*
X0185587Y0032609D01*
X0186496Y0032232D01*
X0187192Y0031536D01*
X0187568Y0030627D01*
X0187568Y0029643D01*
X0187449Y0030916D02*
X0189490Y0030916D01*
X0189194Y0031039D02*
X0190103Y0030662D01*
X0191087Y0030662D01*
X0191996Y0031039D01*
X0192692Y0031734D01*
X0193068Y0032643D01*
X0193068Y0033627D01*
X0192692Y0034536D01*
X0191996Y0035232D01*
X0191087Y0035609D01*
X0190103Y0035609D01*
X0189194Y0035232D01*
X0188498Y0034536D01*
X0188122Y0033627D01*
X0188122Y0032643D01*
X0188498Y0031734D01*
X0189194Y0031039D01*
X0188175Y0032515D02*
X0185814Y0032515D01*
X0185603Y0033162D02*
X0186587Y0033162D01*
X0187496Y0033539D01*
X0188192Y0034234D01*
X0188568Y0035143D01*
X0188568Y0036127D01*
X0188192Y0037036D01*
X0187496Y0037732D01*
X0186587Y0038109D01*
X0185603Y0038109D01*
X0184694Y0037732D01*
X0183998Y0037036D01*
X0183622Y0036127D01*
X0183622Y0035143D01*
X0183998Y0034234D01*
X0184694Y0033539D01*
X0185603Y0033162D01*
X0184376Y0032515D02*
X0182408Y0032515D01*
X0182568Y0032127D02*
X0182192Y0033036D01*
X0181496Y0033732D01*
X0180587Y0034109D01*
X0179603Y0034109D01*
X0178694Y0033732D01*
X0177998Y0033036D01*
X0177622Y0032127D01*
X0177622Y0031143D01*
X0177998Y0030234D01*
X0178694Y0029539D01*
X0179603Y0029162D01*
X0180587Y0029162D01*
X0181496Y0029539D01*
X0182192Y0030234D01*
X0182568Y0031143D01*
X0182568Y0032127D01*
X0182474Y0030916D02*
X0182741Y0030916D01*
X0182757Y0029318D02*
X0180962Y0029318D01*
X0179228Y0029318D02*
X0175911Y0029318D01*
X0176192Y0029036D02*
X0175496Y0029732D01*
X0174587Y0030109D01*
X0173603Y0030109D01*
X0172694Y0029732D01*
X0171998Y0029036D01*
X0171622Y0028127D01*
X0171622Y0027143D01*
X0171998Y0026234D01*
X0172694Y0025539D01*
X0173603Y0025162D01*
X0174587Y0025162D01*
X0175496Y0025539D01*
X0176192Y0026234D01*
X0176568Y0027143D01*
X0176568Y0028127D01*
X0176192Y0029036D01*
X0176568Y0027719D02*
X0184466Y0027719D01*
X0183496Y0027232D02*
X0182587Y0027609D01*
X0181603Y0027609D01*
X0180694Y0027232D01*
X0179998Y0026536D01*
X0179622Y0025627D01*
X0179622Y0024643D01*
X0179998Y0023734D01*
X0180694Y0023039D01*
X0181603Y0022662D01*
X0182587Y0022662D01*
X0183496Y0023039D01*
X0184192Y0023734D01*
X0184568Y0024643D01*
X0184568Y0025627D01*
X0184192Y0026536D01*
X0183496Y0027232D01*
X0184364Y0026121D02*
X0198326Y0026121D01*
X0198498Y0026536D02*
X0198122Y0025627D01*
X0198122Y0024643D01*
X0198498Y0023734D01*
X0199194Y0023039D01*
X0200103Y0022662D01*
X0201087Y0022662D01*
X0201996Y0023039D01*
X0202692Y0023734D01*
X0203068Y0024643D01*
X0203068Y0025627D01*
X0202692Y0026536D01*
X0201996Y0027232D01*
X0201087Y0027609D01*
X0200103Y0027609D01*
X0199194Y0027232D01*
X0198498Y0026536D01*
X0198172Y0024522D02*
X0184518Y0024522D01*
X0183218Y0022924D02*
X0199472Y0022924D01*
X0201718Y0022924D02*
X0216574Y0022924D01*
X0216048Y0024522D02*
X0203018Y0024522D01*
X0202864Y0026121D02*
X0216107Y0026121D01*
X0216802Y0027719D02*
X0185724Y0027719D01*
X0179826Y0026121D02*
X0176078Y0026121D01*
X0179672Y0024522D02*
X0164068Y0024522D01*
X0163770Y0022924D02*
X0180972Y0022924D01*
X0172112Y0026121D02*
X0166078Y0026121D01*
X0166568Y0027719D02*
X0171622Y0027719D01*
X0172280Y0029318D02*
X0165911Y0029318D01*
X0166267Y0030916D02*
X0177716Y0030916D01*
X0177782Y0032515D02*
X0176308Y0032515D01*
X0176192Y0032234D02*
X0176568Y0033143D01*
X0176568Y0034127D01*
X0176192Y0035036D01*
X0175779Y0035449D01*
X0175996Y0035539D01*
X0176692Y0036234D01*
X0177068Y0037143D01*
X0177068Y0038127D01*
X0176692Y0039036D01*
X0175996Y0039732D01*
X0175087Y0040109D01*
X0174103Y0040109D01*
X0173194Y0039732D01*
X0172498Y0039036D01*
X0172122Y0038127D01*
X0172122Y0037143D01*
X0172498Y0036234D01*
X0172911Y0035822D01*
X0172694Y0035732D01*
X0171998Y0035036D01*
X0171622Y0034127D01*
X0171622Y0033143D01*
X0171998Y0032234D01*
X0172694Y0031539D01*
X0173603Y0031162D01*
X0174587Y0031162D01*
X0175496Y0031539D01*
X0176192Y0032234D01*
X0176568Y0034113D02*
X0184120Y0034113D01*
X0183622Y0035712D02*
X0176169Y0035712D01*
X0177068Y0037310D02*
X0184272Y0037310D01*
X0181496Y0039539D02*
X0180587Y0039162D01*
X0179603Y0039162D01*
X0178694Y0039539D01*
X0177998Y0040234D01*
X0177622Y0041143D01*
X0177622Y0042127D01*
X0177998Y0043036D01*
X0178694Y0043732D01*
X0179603Y0044109D01*
X0180587Y0044109D01*
X0181496Y0043732D01*
X0182192Y0043036D01*
X0182568Y0042127D01*
X0182568Y0041143D01*
X0182192Y0040234D01*
X0181496Y0039539D01*
X0182305Y0040507D02*
X0283631Y0040507D01*
X0282262Y0042106D02*
X0260775Y0042106D01*
X0261755Y0043704D02*
X0278304Y0043704D01*
X0278195Y0045303D02*
X0266720Y0045303D01*
X0266692Y0045234D02*
X0267068Y0046143D01*
X0267068Y0047127D01*
X0266692Y0048036D01*
X0265996Y0048732D01*
X0265087Y0049109D01*
X0264103Y0049109D01*
X0263194Y0048732D01*
X0262498Y0048036D01*
X0262122Y0047127D01*
X0262122Y0046143D01*
X0262498Y0045234D01*
X0263194Y0044539D01*
X0264103Y0044162D01*
X0265087Y0044162D01*
X0265996Y0044539D01*
X0266692Y0045234D01*
X0267068Y0046901D02*
X0279602Y0046901D01*
X0278669Y0047933D02*
X0278961Y0048371D01*
X0279163Y0048857D01*
X0279265Y0049372D01*
X0279265Y0049635D01*
X0276595Y0049635D01*
X0276595Y0049635D01*
X0276595Y0046965D01*
X0276332Y0046965D01*
X0275816Y0047068D01*
X0275330Y0047269D01*
X0274893Y0047561D01*
X0274521Y0047933D01*
X0274229Y0048371D01*
X0274028Y0048857D01*
X0273925Y0049372D01*
X0273925Y0049635D01*
X0276595Y0049635D01*
X0276595Y0046965D01*
X0276858Y0046965D01*
X0277374Y0047068D01*
X0277860Y0047269D01*
X0278297Y0047561D01*
X0278669Y0047933D01*
X0279015Y0048500D02*
X0289367Y0048500D01*
X0287768Y0046901D02*
X0281588Y0046901D01*
X0279265Y0049635D02*
X0276595Y0049635D01*
X0276595Y0049635D01*
X0276595Y0049635D01*
X0273925Y0049635D01*
X0273925Y0049898D01*
X0274028Y0050414D01*
X0274229Y0050900D01*
X0274521Y0051337D01*
X0274708Y0051525D01*
X0274498Y0051734D01*
X0274122Y0052643D01*
X0274122Y0053627D01*
X0274498Y0054536D01*
X0275194Y0055232D01*
X0276103Y0055609D01*
X0277087Y0055609D01*
X0277996Y0055232D01*
X0278692Y0054536D01*
X0279068Y0053627D01*
X0279068Y0052643D01*
X0278692Y0051734D01*
X0278482Y0051525D01*
X0278669Y0051337D01*
X0278961Y0050900D01*
X0279163Y0050414D01*
X0279265Y0049898D01*
X0279265Y0049635D01*
X0279225Y0050098D02*
X0310248Y0050098D01*
X0308650Y0051697D02*
X0278654Y0051697D01*
X0279068Y0053295D02*
X0307051Y0053295D01*
X0305453Y0054894D02*
X0278334Y0054894D01*
X0274856Y0054894D02*
X0264281Y0054894D01*
X0264281Y0056492D02*
X0303854Y0056492D01*
X0302256Y0058091D02*
X0264281Y0058091D01*
X0264281Y0059689D02*
X0300657Y0059689D01*
X0299059Y0061288D02*
X0264281Y0061288D01*
X0260909Y0061288D02*
X0259779Y0061288D01*
X0260082Y0061413D02*
X0260909Y0062240D01*
X0260909Y0058309D01*
X0260584Y0058634D01*
X0259999Y0059059D01*
X0259356Y0059387D01*
X0258669Y0059610D01*
X0257956Y0059723D01*
X0257795Y0059723D01*
X0257795Y0055336D01*
X0257395Y0055336D01*
X0257395Y0059723D01*
X0257234Y0059723D01*
X0256521Y0059610D01*
X0255834Y0059387D01*
X0255191Y0059059D01*
X0254607Y0058634D01*
X0254096Y0058124D01*
X0253672Y0057540D01*
X0253344Y0056896D01*
X0253121Y0056210D01*
X0253008Y0055496D01*
X0253008Y0055335D01*
X0257395Y0055335D01*
X0257395Y0054935D01*
X0253008Y0054935D01*
X0253008Y0054774D01*
X0253121Y0054061D01*
X0253344Y0053374D01*
X0253672Y0052731D01*
X0254096Y0052147D01*
X0254422Y0051821D01*
X0250490Y0051821D01*
X0251317Y0052648D01*
X0251986Y0054262D01*
X0251986Y0056009D01*
X0251317Y0057622D01*
X0250082Y0058858D01*
X0248468Y0059526D01*
X0246722Y0059526D01*
X0245108Y0058858D01*
X0244281Y0058030D01*
X0244281Y0062240D01*
X0245108Y0061413D01*
X0246722Y0060745D01*
X0248468Y0060745D01*
X0250082Y0061413D01*
X0251317Y0062648D01*
X0251986Y0064262D01*
X0251986Y0066009D01*
X0251317Y0067622D01*
X0250990Y0067950D01*
X0254200Y0067950D01*
X0253873Y0067622D01*
X0253205Y0066009D01*
X0253205Y0064262D01*
X0253873Y0062648D01*
X0255108Y0061413D01*
X0256722Y0060745D01*
X0258468Y0060745D01*
X0260082Y0061413D01*
X0260909Y0059689D02*
X0258168Y0059689D01*
X0257795Y0059689D02*
X0257395Y0059689D01*
X0257022Y0059689D02*
X0244281Y0059689D01*
X0244281Y0058091D02*
X0244341Y0058091D01*
X0244281Y0061288D02*
X0245411Y0061288D01*
X0249779Y0061288D02*
X0255411Y0061288D01*
X0253774Y0062886D02*
X0251416Y0062886D01*
X0251986Y0064485D02*
X0253205Y0064485D01*
X0253235Y0066083D02*
X0251955Y0066083D01*
X0251258Y0067682D02*
X0253932Y0067682D01*
X0254072Y0058091D02*
X0250849Y0058091D01*
X0251785Y0056492D02*
X0253213Y0056492D01*
X0253008Y0054894D02*
X0251986Y0054894D01*
X0251585Y0053295D02*
X0253384Y0053295D01*
X0257395Y0056492D02*
X0257795Y0056492D01*
X0257795Y0058091D02*
X0257395Y0058091D01*
X0264298Y0053295D02*
X0274122Y0053295D01*
X0274536Y0051697D02*
X0263541Y0051697D01*
X0261642Y0050098D02*
X0273965Y0050098D01*
X0274175Y0048500D02*
X0266229Y0048500D01*
X0262962Y0048500D02*
X0260440Y0048500D01*
X0261616Y0046901D02*
X0262122Y0046901D01*
X0261986Y0045303D02*
X0262470Y0045303D01*
X0259959Y0038909D02*
X0285365Y0038909D01*
X0287078Y0037310D02*
X0261447Y0037310D01*
X0261317Y0037622D02*
X0260082Y0038858D01*
X0258468Y0039526D01*
X0256722Y0039526D01*
X0255108Y0038858D01*
X0253873Y0037622D01*
X0253205Y0036009D01*
X0253205Y0034262D01*
X0253873Y0032648D01*
X0255108Y0031413D01*
X0256722Y0030745D01*
X0258468Y0030745D01*
X0260082Y0031413D01*
X0261317Y0032648D01*
X0261986Y0034262D01*
X0261986Y0036009D01*
X0261317Y0037622D01*
X0261986Y0035712D02*
X0288791Y0035712D01*
X0290503Y0034113D02*
X0280615Y0034113D01*
X0280496Y0034232D02*
X0281192Y0033536D01*
X0281568Y0032627D01*
X0281568Y0031643D01*
X0281192Y0030734D01*
X0280496Y0030039D01*
X0279587Y0029662D01*
X0278603Y0029662D01*
X0277694Y0030039D01*
X0276998Y0030734D01*
X0276622Y0031643D01*
X0276622Y0032627D01*
X0276998Y0033536D01*
X0277694Y0034232D01*
X0278603Y0034609D01*
X0279587Y0034609D01*
X0280496Y0034232D01*
X0281568Y0032515D02*
X0292216Y0032515D01*
X0293929Y0030916D02*
X0281267Y0030916D01*
X0284498Y0029536D02*
X0284122Y0028627D01*
X0284122Y0027643D01*
X0284498Y0026734D01*
X0285194Y0026039D01*
X0286103Y0025662D01*
X0287087Y0025662D01*
X0287996Y0026039D01*
X0288692Y0026734D01*
X0289068Y0027643D01*
X0289068Y0028627D01*
X0288692Y0029536D01*
X0287996Y0030232D01*
X0287087Y0030609D01*
X0286103Y0030609D01*
X0285194Y0030232D01*
X0284498Y0029536D01*
X0284408Y0029318D02*
X0258972Y0029318D01*
X0258468Y0029526D02*
X0256722Y0029526D01*
X0255108Y0028858D01*
X0253873Y0027622D01*
X0253205Y0026009D01*
X0253205Y0024262D01*
X0253873Y0022648D01*
X0255108Y0021413D01*
X0256722Y0020745D01*
X0258468Y0020745D01*
X0260082Y0021413D01*
X0261317Y0022648D01*
X0261986Y0024262D01*
X0261986Y0026009D01*
X0261317Y0027622D01*
X0260082Y0028858D01*
X0258468Y0029526D01*
X0258882Y0030916D02*
X0276923Y0030916D01*
X0276622Y0032515D02*
X0261183Y0032515D01*
X0261924Y0034113D02*
X0277575Y0034113D01*
X0284122Y0027719D02*
X0261221Y0027719D01*
X0261939Y0026121D02*
X0285112Y0026121D01*
X0288078Y0026121D02*
X0299017Y0026121D01*
X0300616Y0024522D02*
X0261986Y0024522D01*
X0261431Y0022924D02*
X0302214Y0022924D01*
X0303813Y0021325D02*
X0259869Y0021325D01*
X0255321Y0021325D02*
X0249869Y0021325D01*
X0250082Y0021413D02*
X0251317Y0022648D01*
X0251986Y0024262D01*
X0251986Y0026009D01*
X0251317Y0027622D01*
X0250082Y0028858D01*
X0248468Y0029526D01*
X0246722Y0029526D01*
X0245108Y0028858D01*
X0243873Y0027622D01*
X0243205Y0026009D01*
X0243205Y0024262D01*
X0243873Y0022648D01*
X0245108Y0021413D01*
X0246722Y0020745D01*
X0248468Y0020745D01*
X0250082Y0021413D01*
X0251431Y0022924D02*
X0253759Y0022924D01*
X0253205Y0024522D02*
X0251986Y0024522D01*
X0251939Y0026121D02*
X0253251Y0026121D01*
X0253970Y0027719D02*
X0251221Y0027719D01*
X0248972Y0029318D02*
X0256219Y0029318D01*
X0256308Y0030916D02*
X0248882Y0030916D01*
X0248468Y0030745D02*
X0250082Y0031413D01*
X0251317Y0032648D01*
X0251986Y0034262D01*
X0251986Y0036009D01*
X0251317Y0037622D01*
X0250082Y0038858D01*
X0248468Y0039526D01*
X0246722Y0039526D01*
X0245108Y0038858D01*
X0243873Y0037622D01*
X0243205Y0036009D01*
X0243205Y0034262D01*
X0243873Y0032648D01*
X0245108Y0031413D01*
X0246722Y0030745D01*
X0248468Y0030745D01*
X0246308Y0030916D02*
X0231882Y0030916D01*
X0231468Y0030745D02*
X0233082Y0031413D01*
X0234317Y0032648D01*
X0234986Y0034262D01*
X0234986Y0036009D01*
X0234317Y0037622D01*
X0233082Y0038858D01*
X0231468Y0039526D01*
X0229722Y0039526D01*
X0228108Y0038858D01*
X0226873Y0037622D01*
X0226205Y0036009D01*
X0226205Y0034262D01*
X0226873Y0032648D01*
X0228108Y0031413D01*
X0229722Y0030745D01*
X0231468Y0030745D01*
X0231468Y0029526D02*
X0229722Y0029526D01*
X0228108Y0028858D01*
X0226873Y0027622D01*
X0226205Y0026009D01*
X0226205Y0024262D01*
X0226873Y0022648D01*
X0228108Y0021413D01*
X0229722Y0020745D01*
X0231468Y0020745D01*
X0233082Y0021413D01*
X0234317Y0022648D01*
X0234986Y0024262D01*
X0234986Y0026009D01*
X0234317Y0027622D01*
X0233082Y0028858D01*
X0231468Y0029526D01*
X0231972Y0029318D02*
X0246219Y0029318D01*
X0243970Y0027719D02*
X0234221Y0027719D01*
X0234939Y0026121D02*
X0243251Y0026121D01*
X0243205Y0024522D02*
X0234986Y0024522D01*
X0234431Y0022924D02*
X0243759Y0022924D01*
X0245321Y0021325D02*
X0232869Y0021325D01*
X0228321Y0021325D02*
X0223155Y0021325D01*
X0224617Y0022924D02*
X0226759Y0022924D01*
X0226205Y0024522D02*
X0225143Y0024522D01*
X0225084Y0026121D02*
X0226251Y0026121D01*
X0226970Y0027719D02*
X0224388Y0027719D01*
X0226726Y0029318D02*
X0229219Y0029318D01*
X0229308Y0030916D02*
X0227068Y0030916D01*
X0227007Y0032515D02*
X0226214Y0032515D01*
X0226266Y0034113D02*
X0224924Y0034113D01*
X0224986Y0035712D02*
X0226205Y0035712D01*
X0226744Y0037310D02*
X0224447Y0037310D01*
X0222959Y0038909D02*
X0228231Y0038909D01*
X0227416Y0042106D02*
X0223775Y0042106D01*
X0224755Y0043704D02*
X0226436Y0043704D01*
X0226205Y0045303D02*
X0224986Y0045303D01*
X0224616Y0046901D02*
X0226574Y0046901D01*
X0219248Y0050098D02*
X0207334Y0050098D01*
X0207297Y0050061D02*
X0207669Y0050433D01*
X0207961Y0050871D01*
X0208163Y0051357D01*
X0208265Y0051872D01*
X0208265Y0052135D01*
X0205595Y0052135D01*
X0205595Y0052135D01*
X0205595Y0049465D01*
X0205332Y0049465D01*
X0204816Y0049568D01*
X0204330Y0049769D01*
X0203893Y0050061D01*
X0203521Y0050433D01*
X0203229Y0050871D01*
X0203028Y0051357D01*
X0202925Y0051872D01*
X0202925Y0052135D01*
X0205595Y0052135D01*
X0205595Y0049465D01*
X0205858Y0049465D01*
X0206374Y0049568D01*
X0206860Y0049769D01*
X0207297Y0050061D01*
X0205595Y0050098D02*
X0205595Y0050098D01*
X0205595Y0051697D02*
X0205595Y0051697D01*
X0205595Y0052135D02*
X0205595Y0052135D01*
X0205595Y0052135D01*
X0202925Y0052135D01*
X0202925Y0052398D01*
X0203028Y0052914D01*
X0203229Y0053400D01*
X0203521Y0053837D01*
X0203893Y0054209D01*
X0204330Y0054502D01*
X0204816Y0054703D01*
X0205332Y0054805D01*
X0205595Y0054805D01*
X0205595Y0052136D01*
X0205595Y0052136D01*
X0205595Y0054805D01*
X0205858Y0054805D01*
X0206374Y0054703D01*
X0206860Y0054502D01*
X0207297Y0054209D01*
X0207669Y0053837D01*
X0207961Y0053400D01*
X0208163Y0052914D01*
X0208265Y0052398D01*
X0208265Y0052135D01*
X0205595Y0052135D01*
X0205595Y0053295D02*
X0205595Y0053295D01*
X0203185Y0053295D02*
X0106068Y0053295D01*
X0106068Y0053143D02*
X0105692Y0052234D01*
X0104996Y0051539D01*
X0104087Y0051162D01*
X0103103Y0051162D01*
X0102194Y0051539D01*
X0101498Y0052234D01*
X0101122Y0053143D01*
X0101122Y0054127D01*
X0101498Y0055036D01*
X0102194Y0055732D01*
X0103103Y0056109D01*
X0104087Y0056109D01*
X0104996Y0055732D01*
X0105692Y0055036D01*
X0106068Y0054127D01*
X0106068Y0053143D01*
X0105154Y0051697D02*
X0202960Y0051697D01*
X0203856Y0050098D02*
X0051414Y0050098D01*
X0051414Y0048500D02*
X0163840Y0048500D01*
X0164103Y0048609D02*
X0163194Y0048232D01*
X0162498Y0047536D01*
X0162122Y0046627D01*
X0162122Y0045643D01*
X0162498Y0044734D01*
X0163194Y0044039D01*
X0164103Y0043662D01*
X0165087Y0043662D01*
X0165996Y0044039D01*
X0166692Y0044734D01*
X0167068Y0045643D01*
X0167068Y0046627D01*
X0166692Y0047536D01*
X0165996Y0048232D01*
X0165087Y0048609D01*
X0164103Y0048609D01*
X0165350Y0048500D02*
X0217750Y0048500D01*
X0216574Y0046901D02*
X0166955Y0046901D01*
X0166927Y0045303D02*
X0216205Y0045303D01*
X0216436Y0043704D02*
X0181524Y0043704D01*
X0182568Y0042106D02*
X0217416Y0042106D01*
X0218231Y0038909D02*
X0176745Y0038909D01*
X0177885Y0040507D02*
X0167068Y0040507D01*
X0167068Y0040627D02*
X0166692Y0041536D01*
X0165996Y0042232D01*
X0165087Y0042609D01*
X0164103Y0042609D01*
X0163194Y0042232D01*
X0162498Y0041536D01*
X0162122Y0040627D01*
X0162122Y0039643D01*
X0162498Y0038734D01*
X0162597Y0038635D01*
X0162498Y0038536D01*
X0162122Y0037627D01*
X0162122Y0036643D01*
X0162498Y0035734D01*
X0163194Y0035039D01*
X0164103Y0034662D01*
X0165087Y0034662D01*
X0165996Y0035039D01*
X0166692Y0035734D01*
X0167068Y0036643D01*
X0167068Y0037627D01*
X0166692Y0038536D01*
X0166593Y0038635D01*
X0166692Y0038734D01*
X0167068Y0039643D01*
X0167068Y0040627D01*
X0166764Y0038909D02*
X0172446Y0038909D01*
X0172122Y0037310D02*
X0167068Y0037310D01*
X0166669Y0035712D02*
X0172674Y0035712D01*
X0171622Y0034113D02*
X0165615Y0034113D01*
X0166568Y0032515D02*
X0171882Y0032515D01*
X0162575Y0034113D02*
X0071159Y0034113D01*
X0069516Y0034794D02*
X0073066Y0033323D01*
X0075783Y0030606D01*
X0077253Y0027057D01*
X0077253Y0023214D01*
X0075783Y0019664D01*
X0073066Y0016948D01*
X0069516Y0015477D01*
X0065674Y0015477D01*
X0062124Y0016948D01*
X0059407Y0019664D01*
X0057937Y0023214D01*
X0057937Y0027057D01*
X0059407Y0030606D01*
X0062124Y0033323D01*
X0065674Y0034794D01*
X0069516Y0034794D01*
X0073875Y0032515D02*
X0161622Y0032515D01*
X0161923Y0030916D02*
X0075473Y0030916D01*
X0076317Y0029318D02*
X0148280Y0029318D01*
X0147998Y0029036D02*
X0147622Y0028127D01*
X0147622Y0027143D01*
X0147998Y0026234D01*
X0148694Y0025539D01*
X0149603Y0025162D01*
X0150587Y0025162D01*
X0151496Y0025539D01*
X0152192Y0026234D01*
X0152568Y0027143D01*
X0152568Y0028127D01*
X0152192Y0029036D01*
X0151496Y0029732D01*
X0150587Y0030109D01*
X0149603Y0030109D01*
X0148694Y0029732D01*
X0147998Y0029036D01*
X0147622Y0027719D02*
X0076979Y0027719D01*
X0077253Y0026121D02*
X0148112Y0026121D01*
X0152078Y0026121D02*
X0160083Y0026121D01*
X0159122Y0024522D02*
X0077253Y0024522D01*
X0077133Y0022924D02*
X0159420Y0022924D01*
X0159122Y0021325D02*
X0076471Y0021325D01*
X0075809Y0019727D02*
X0159506Y0019727D01*
X0159122Y0018128D02*
X0074247Y0018128D01*
X0072057Y0016529D02*
X0159703Y0016529D01*
X0158174Y0014931D02*
X0151016Y0014931D01*
X0149174Y0014931D02*
X0098016Y0014931D01*
X0096174Y0014931D02*
X0051414Y0014931D01*
X0051414Y0016529D02*
X0063133Y0016529D01*
X0060944Y0018128D02*
X0051414Y0018128D01*
X0051414Y0019727D02*
X0059382Y0019727D01*
X0058719Y0021325D02*
X0051414Y0021325D01*
X0051414Y0022924D02*
X0058057Y0022924D01*
X0057937Y0024522D02*
X0051414Y0024522D01*
X0051414Y0026121D02*
X0057937Y0026121D01*
X0058211Y0027719D02*
X0051414Y0027719D01*
X0051414Y0029318D02*
X0058873Y0029318D01*
X0059717Y0030916D02*
X0051414Y0030916D01*
X0051414Y0032515D02*
X0061315Y0032515D01*
X0064031Y0034113D02*
X0051414Y0034113D01*
X0051414Y0035712D02*
X0162521Y0035712D01*
X0162122Y0037310D02*
X0151421Y0037310D01*
X0151461Y0037371D02*
X0151663Y0037857D01*
X0151765Y0038372D01*
X0151765Y0038635D01*
X0149095Y0038635D01*
X0149095Y0038635D01*
X0149095Y0035965D01*
X0148832Y0035965D01*
X0148316Y0036068D01*
X0147830Y0036269D01*
X0147393Y0036561D01*
X0147021Y0036933D01*
X0146729Y0037371D01*
X0146528Y0037857D01*
X0146425Y0038372D01*
X0146425Y0038635D01*
X0149095Y0038635D01*
X0149095Y0035965D01*
X0149358Y0035965D01*
X0149874Y0036068D01*
X0150360Y0036269D01*
X0150797Y0036561D01*
X0151169Y0036933D01*
X0151461Y0037371D01*
X0151765Y0038635D02*
X0151765Y0038898D01*
X0151663Y0039414D01*
X0151461Y0039900D01*
X0151169Y0040338D01*
X0150797Y0040709D01*
X0150360Y0041002D01*
X0149874Y0041203D01*
X0149358Y0041305D01*
X0149095Y0041305D01*
X0148832Y0041305D01*
X0148316Y0041203D01*
X0147830Y0041002D01*
X0147393Y0040709D01*
X0147021Y0040338D01*
X0146729Y0039900D01*
X0146528Y0039414D01*
X0146425Y0038898D01*
X0146425Y0038635D01*
X0149095Y0038635D01*
X0149095Y0038635D01*
X0149095Y0038635D01*
X0151765Y0038635D01*
X0151763Y0038909D02*
X0162426Y0038909D01*
X0162122Y0040507D02*
X0150999Y0040507D01*
X0149095Y0040507D02*
X0149095Y0040507D01*
X0149095Y0041305D02*
X0149095Y0038636D01*
X0149095Y0038636D01*
X0149095Y0041305D01*
X0147191Y0040507D02*
X0051414Y0040507D01*
X0051414Y0038909D02*
X0146427Y0038909D01*
X0146769Y0037310D02*
X0051414Y0037310D01*
X0051414Y0042106D02*
X0163068Y0042106D01*
X0164002Y0043704D02*
X0051414Y0043704D01*
X0051414Y0045303D02*
X0162263Y0045303D01*
X0162235Y0046901D02*
X0051414Y0046901D01*
X0051414Y0051697D02*
X0102036Y0051697D01*
X0101122Y0053295D02*
X0051414Y0053295D01*
X0051414Y0054894D02*
X0101439Y0054894D01*
X0105751Y0054894D02*
X0148544Y0054894D01*
X0148194Y0055039D02*
X0149103Y0054662D01*
X0150087Y0054662D01*
X0150996Y0055039D01*
X0151692Y0055734D01*
X0152068Y0056643D01*
X0152068Y0057627D01*
X0151692Y0058536D01*
X0150996Y0059232D01*
X0150087Y0059609D01*
X0149103Y0059609D01*
X0148194Y0059232D01*
X0147498Y0058536D01*
X0147122Y0057627D01*
X0147122Y0056643D01*
X0147498Y0055734D01*
X0148194Y0055039D01*
X0147185Y0056492D02*
X0051860Y0056492D01*
X0052451Y0058091D02*
X0147314Y0058091D01*
X0151876Y0058091D02*
X0210946Y0058091D01*
X0210705Y0056492D02*
X0152006Y0056492D01*
X0150646Y0054894D02*
X0211064Y0054894D01*
X0212226Y0053295D02*
X0208005Y0053295D01*
X0208230Y0051697D02*
X0217650Y0051697D01*
X0211940Y0059689D02*
X0053295Y0059689D01*
X0055959Y0061288D02*
X0211059Y0061288D01*
X0209460Y0062886D02*
X0058230Y0062886D01*
X0058281Y0064485D02*
X0208909Y0064485D01*
X0208909Y0066083D02*
X0086336Y0066083D01*
X0086192Y0065734D02*
X0086568Y0066643D01*
X0086568Y0067627D01*
X0086192Y0068536D01*
X0085496Y0069232D01*
X0084587Y0069609D01*
X0083603Y0069609D01*
X0082694Y0069232D01*
X0081998Y0068536D01*
X0081622Y0067627D01*
X0081622Y0066643D01*
X0081998Y0065734D01*
X0082694Y0065039D01*
X0083603Y0064662D01*
X0084587Y0064662D01*
X0085496Y0065039D01*
X0086192Y0065734D01*
X0086546Y0067682D02*
X0208909Y0067682D01*
X0208909Y0069280D02*
X0203372Y0069280D01*
X0203087Y0069162D02*
X0203996Y0069539D01*
X0204692Y0070234D01*
X0205068Y0071143D01*
X0205068Y0072127D01*
X0204692Y0073036D01*
X0203996Y0073732D01*
X0203087Y0074109D01*
X0202103Y0074109D01*
X0201194Y0073732D01*
X0200498Y0073036D01*
X0200122Y0072127D01*
X0200122Y0071143D01*
X0200498Y0070234D01*
X0201194Y0069539D01*
X0202103Y0069162D01*
X0203087Y0069162D01*
X0201818Y0069280D02*
X0085380Y0069280D01*
X0082811Y0069280D02*
X0059465Y0069280D01*
X0060456Y0070879D02*
X0189854Y0070879D01*
X0190194Y0070539D02*
X0189498Y0071234D01*
X0189122Y0072143D01*
X0189122Y0073127D01*
X0189498Y0074036D01*
X0189847Y0074385D01*
X0189498Y0074734D01*
X0189122Y0075643D01*
X0189122Y0076627D01*
X0189498Y0077536D01*
X0190194Y0078232D01*
X0191103Y0078609D01*
X0192087Y0078609D01*
X0192996Y0078232D01*
X0193692Y0077536D01*
X0194068Y0076627D01*
X0194068Y0075643D01*
X0193692Y0074734D01*
X0193343Y0074385D01*
X0193692Y0074036D01*
X0194068Y0073127D01*
X0194068Y0072143D01*
X0193692Y0071234D01*
X0192996Y0070539D01*
X0192087Y0070162D01*
X0191103Y0070162D01*
X0190194Y0070539D01*
X0189122Y0072477D02*
X0060643Y0072477D01*
X0060173Y0074076D02*
X0189538Y0074076D01*
X0189122Y0075674D02*
X0083132Y0075674D01*
X0082996Y0075539D02*
X0083692Y0076234D01*
X0084068Y0077143D01*
X0084068Y0078127D01*
X0083692Y0079036D01*
X0082996Y0079732D01*
X0082087Y0080109D01*
X0081103Y0080109D01*
X0080194Y0079732D01*
X0079498Y0079036D01*
X0079122Y0078127D01*
X0079122Y0077143D01*
X0079498Y0076234D01*
X0080194Y0075539D01*
X0081103Y0075162D01*
X0082087Y0075162D01*
X0082996Y0075539D01*
X0084068Y0077273D02*
X0189389Y0077273D01*
X0190598Y0078871D02*
X0083760Y0078871D01*
X0079430Y0078871D02*
X0058281Y0078871D01*
X0058281Y0077273D02*
X0079122Y0077273D01*
X0080059Y0075674D02*
X0058629Y0075674D01*
X0057732Y0080470D02*
X0189194Y0080470D01*
X0189305Y0082068D02*
X0051414Y0082068D01*
X0051414Y0083667D02*
X0189319Y0083667D01*
X0189179Y0085265D02*
X0051414Y0085265D01*
X0051414Y0086864D02*
X0189445Y0086864D01*
X0189122Y0088462D02*
X0051414Y0088462D01*
X0051414Y0090061D02*
X0190023Y0090061D01*
X0198242Y0094857D02*
X0263495Y0094857D01*
X0264694Y0096039D02*
X0265603Y0095662D01*
X0266587Y0095662D01*
X0267496Y0096039D01*
X0268192Y0096734D01*
X0268568Y0097643D01*
X0268568Y0098627D01*
X0268192Y0099536D01*
X0267496Y0100232D01*
X0266587Y0100609D01*
X0265603Y0100609D01*
X0264694Y0100232D01*
X0263998Y0099536D01*
X0263622Y0098627D01*
X0263622Y0097643D01*
X0263998Y0096734D01*
X0264694Y0096039D01*
X0264278Y0096455D02*
X0255294Y0096455D01*
X0256531Y0098054D02*
X0263622Y0098054D01*
X0264114Y0099652D02*
X0256351Y0099652D01*
X0252992Y0101251D02*
X0230881Y0101251D01*
X0230961Y0101371D02*
X0231163Y0101857D01*
X0231265Y0102372D01*
X0231265Y0102635D01*
X0228595Y0102635D01*
X0228595Y0102635D01*
X0228595Y0099965D01*
X0228332Y0099965D01*
X0227816Y0100068D01*
X0227330Y0100269D01*
X0226893Y0100561D01*
X0226521Y0100933D01*
X0226229Y0101371D01*
X0226028Y0101857D01*
X0225925Y0102372D01*
X0225925Y0102635D01*
X0228595Y0102635D01*
X0228595Y0099965D01*
X0228858Y0099965D01*
X0229374Y0100068D01*
X0229860Y0100269D01*
X0230297Y0100561D01*
X0230669Y0100933D01*
X0230961Y0101371D01*
X0231265Y0102635D02*
X0228595Y0102635D01*
X0228595Y0102635D01*
X0228595Y0102635D01*
X0225925Y0102635D01*
X0225925Y0102898D01*
X0226028Y0103414D01*
X0226229Y0103900D01*
X0226521Y0104337D01*
X0226893Y0104709D01*
X0227330Y0105002D01*
X0227816Y0105203D01*
X0228332Y0105305D01*
X0228595Y0105305D01*
X0228595Y0102636D01*
X0228595Y0102636D01*
X0228595Y0105305D01*
X0228858Y0105305D01*
X0229374Y0105203D01*
X0229860Y0105002D01*
X0230297Y0104709D01*
X0230669Y0104337D01*
X0230961Y0103900D01*
X0231163Y0103414D01*
X0231265Y0102898D01*
X0231265Y0102635D01*
X0231265Y0102849D02*
X0252622Y0102849D01*
X0253410Y0104448D02*
X0230559Y0104448D01*
X0228595Y0104448D02*
X0228595Y0104448D01*
X0228595Y0102849D02*
X0228595Y0102849D01*
X0228595Y0101251D02*
X0228595Y0101251D01*
X0226309Y0101251D02*
X0212523Y0101251D01*
X0212461Y0101400D02*
X0212169Y0101837D01*
X0211797Y0102209D01*
X0211360Y0102502D01*
X0210874Y0102703D01*
X0210358Y0102805D01*
X0210095Y0102805D01*
X0209832Y0102805D01*
X0209316Y0102703D01*
X0208830Y0102502D01*
X0208393Y0102209D01*
X0208021Y0101837D01*
X0207729Y0101400D01*
X0207528Y0100914D01*
X0207467Y0100609D01*
X0207103Y0100609D01*
X0206194Y0100232D01*
X0205498Y0099536D01*
X0205122Y0098627D01*
X0205122Y0097643D01*
X0205498Y0096734D01*
X0206194Y0096039D01*
X0207103Y0095662D01*
X0208087Y0095662D01*
X0208996Y0096039D01*
X0209692Y0096734D01*
X0209995Y0097465D01*
X0210095Y0097465D01*
X0210095Y0100135D01*
X0210095Y0100135D01*
X0210095Y0097465D01*
X0210358Y0097465D01*
X0210874Y0097568D01*
X0211360Y0097769D01*
X0211797Y0098061D01*
X0212169Y0098433D01*
X0212461Y0098871D01*
X0212663Y0099357D01*
X0212765Y0099872D01*
X0212765Y0100135D01*
X0210095Y0100135D01*
X0210095Y0100135D01*
X0212765Y0100135D01*
X0212765Y0100398D01*
X0212663Y0100914D01*
X0212461Y0101400D01*
X0212721Y0099652D02*
X0245839Y0099652D01*
X0245998Y0100036D02*
X0245622Y0099127D01*
X0245622Y0098143D01*
X0245998Y0097234D01*
X0246694Y0096539D01*
X0247603Y0096162D01*
X0248587Y0096162D01*
X0249496Y0096539D01*
X0250192Y0097234D01*
X0250568Y0098143D01*
X0250568Y0099127D01*
X0250192Y0100036D01*
X0249496Y0100732D01*
X0248587Y0101109D01*
X0247603Y0101109D01*
X0246694Y0100732D01*
X0245998Y0100036D01*
X0245659Y0098054D02*
X0211785Y0098054D01*
X0210095Y0098054D02*
X0210095Y0098054D01*
X0210095Y0099652D02*
X0210095Y0099652D01*
X0210095Y0100136D02*
X0210095Y0102805D01*
X0210095Y0100136D01*
X0210095Y0100136D01*
X0210095Y0101251D02*
X0210095Y0101251D01*
X0207667Y0101251D02*
X0199568Y0101251D01*
X0199269Y0102849D02*
X0225925Y0102849D01*
X0226631Y0104448D02*
X0051414Y0104448D01*
X0058281Y0115637D02*
X0082096Y0115637D01*
X0082194Y0115539D02*
X0083103Y0115162D01*
X0084087Y0115162D01*
X0084996Y0115539D01*
X0085692Y0116234D01*
X0086068Y0117143D01*
X0086068Y0118127D01*
X0085692Y0119036D01*
X0084996Y0119732D01*
X0084087Y0120109D01*
X0083103Y0120109D01*
X0082194Y0119732D01*
X0081498Y0119036D01*
X0081122Y0118127D01*
X0081122Y0117143D01*
X0081498Y0116234D01*
X0082194Y0115539D01*
X0081122Y0117236D02*
X0058281Y0117236D01*
X0058281Y0118834D02*
X0081415Y0118834D01*
X0085776Y0118834D02*
X0192205Y0118834D01*
X0192205Y0120433D02*
X0059617Y0120433D01*
X0060519Y0122031D02*
X0192835Y0122031D01*
X0194765Y0123630D02*
X0060643Y0123630D01*
X0060110Y0125228D02*
X0249444Y0125228D01*
X0249603Y0125162D02*
X0250587Y0125162D01*
X0251496Y0125539D01*
X0252192Y0126234D01*
X0252568Y0127143D01*
X0252568Y0128127D01*
X0252192Y0129036D01*
X0251496Y0129732D01*
X0250587Y0130109D01*
X0249603Y0130109D01*
X0248694Y0129732D01*
X0247998Y0129036D01*
X0247622Y0128127D01*
X0247622Y0127143D01*
X0247998Y0126234D01*
X0248694Y0125539D01*
X0249603Y0125162D01*
X0250747Y0125228D02*
X0289005Y0125228D01*
X0288998Y0125234D02*
X0289694Y0124539D01*
X0290603Y0124162D01*
X0291587Y0124162D01*
X0292496Y0124539D01*
X0293192Y0125234D01*
X0293568Y0126143D01*
X0293568Y0127127D01*
X0293192Y0128036D01*
X0292496Y0128732D01*
X0291587Y0129109D01*
X0290603Y0129109D01*
X0289694Y0128732D01*
X0288998Y0128036D01*
X0288622Y0127127D01*
X0288622Y0126143D01*
X0288998Y0125234D01*
X0288622Y0126827D02*
X0252437Y0126827D01*
X0252445Y0128425D02*
X0289387Y0128425D01*
X0292803Y0128425D02*
X0329676Y0128425D01*
X0328543Y0126827D02*
X0293568Y0126827D01*
X0293186Y0125228D02*
X0328205Y0125228D01*
X0335700Y0122031D02*
X0339490Y0122031D01*
X0338467Y0123630D02*
X0336724Y0123630D01*
X0336986Y0125228D02*
X0338205Y0125228D01*
X0338543Y0126827D02*
X0336647Y0126827D01*
X0335514Y0128425D02*
X0339676Y0128425D01*
X0340085Y0118834D02*
X0335106Y0118834D01*
X0336477Y0117236D02*
X0338713Y0117236D01*
X0338205Y0115637D02*
X0336986Y0115637D01*
X0336893Y0114039D02*
X0338297Y0114039D01*
X0339081Y0112440D02*
X0336109Y0112440D01*
X0329081Y0112440D02*
X0288568Y0112440D01*
X0288568Y0112627D02*
X0288192Y0113536D01*
X0287496Y0114232D01*
X0286587Y0114609D01*
X0285603Y0114609D01*
X0284694Y0114232D01*
X0283998Y0113536D01*
X0283622Y0112627D01*
X0283622Y0111643D01*
X0283998Y0110734D01*
X0284694Y0110039D01*
X0285603Y0109662D01*
X0286587Y0109662D01*
X0287496Y0110039D01*
X0288192Y0110734D01*
X0288568Y0111643D01*
X0288568Y0112627D01*
X0287690Y0114039D02*
X0328297Y0114039D01*
X0328205Y0115637D02*
X0270091Y0115637D01*
X0270568Y0114039D02*
X0284501Y0114039D01*
X0283622Y0112440D02*
X0269898Y0112440D01*
X0266293Y0112440D02*
X0264939Y0112440D01*
X0264943Y0110842D02*
X0283954Y0110842D01*
X0288236Y0110842D02*
X0317418Y0110842D01*
X0315595Y0120433D02*
X0315595Y0120433D01*
X0315595Y0122031D02*
X0315595Y0122031D01*
X0312951Y0122031D02*
X0301401Y0122031D01*
X0301481Y0120433D02*
X0313203Y0120433D01*
X0308879Y0130024D02*
X0250792Y0130024D01*
X0249398Y0130024D02*
X0086068Y0130024D01*
X0086068Y0130127D02*
X0085692Y0131036D01*
X0084996Y0131732D01*
X0084087Y0132109D01*
X0083103Y0132109D01*
X0082194Y0131732D01*
X0081498Y0131036D01*
X0081122Y0130127D01*
X0081122Y0129143D01*
X0081498Y0128234D01*
X0082194Y0127539D01*
X0083103Y0127162D01*
X0084087Y0127162D01*
X0084996Y0127539D01*
X0085692Y0128234D01*
X0086068Y0129143D01*
X0086068Y0130127D01*
X0085771Y0128425D02*
X0247745Y0128425D01*
X0247753Y0126827D02*
X0058281Y0126827D01*
X0058281Y0128425D02*
X0081419Y0128425D01*
X0081122Y0130024D02*
X0058281Y0130024D01*
X0058302Y0131622D02*
X0082084Y0131622D01*
X0085106Y0131622D02*
X0308622Y0131622D01*
X0309683Y0133221D02*
X0286957Y0133221D01*
X0286797Y0133061D02*
X0287169Y0133433D01*
X0287461Y0133871D01*
X0287663Y0134357D01*
X0287765Y0134872D01*
X0287765Y0135135D01*
X0285095Y0135135D01*
X0285095Y0135135D01*
X0285095Y0132465D01*
X0284832Y0132465D01*
X0284316Y0132568D01*
X0283830Y0132769D01*
X0283393Y0133061D01*
X0283206Y0133249D01*
X0282996Y0133039D01*
X0282087Y0132662D01*
X0281103Y0132662D01*
X0280194Y0133039D01*
X0279498Y0133734D01*
X0279122Y0134643D01*
X0279122Y0135627D01*
X0279498Y0136536D01*
X0280194Y0137232D01*
X0281103Y0137609D01*
X0282087Y0137609D01*
X0282996Y0137232D01*
X0283206Y0137022D01*
X0283393Y0137209D01*
X0283830Y0137502D01*
X0284316Y0137703D01*
X0284832Y0137805D01*
X0285095Y0137805D01*
X0285095Y0135136D01*
X0285095Y0135136D01*
X0285095Y0137805D01*
X0285358Y0137805D01*
X0285874Y0137703D01*
X0286360Y0137502D01*
X0286797Y0137209D01*
X0287169Y0136838D01*
X0287461Y0136400D01*
X0287663Y0135914D01*
X0287765Y0135398D01*
X0287765Y0135135D01*
X0285095Y0135135D01*
X0285095Y0132465D01*
X0285358Y0132465D01*
X0285874Y0132568D01*
X0286360Y0132769D01*
X0286797Y0133061D01*
X0285095Y0133221D02*
X0285095Y0133221D01*
X0285095Y0134819D02*
X0285095Y0134819D01*
X0285095Y0135135D02*
X0285095Y0135135D01*
X0285095Y0136418D02*
X0285095Y0136418D01*
X0287450Y0136418D02*
X0293622Y0136418D01*
X0293622Y0136627D02*
X0293622Y0135643D01*
X0293998Y0134734D01*
X0294694Y0134039D01*
X0295603Y0133662D01*
X0296587Y0133662D01*
X0297496Y0134039D01*
X0298192Y0134734D01*
X0298568Y0135643D01*
X0298568Y0136627D01*
X0298192Y0137536D01*
X0297496Y0138232D01*
X0296587Y0138609D01*
X0295603Y0138609D01*
X0294694Y0138232D01*
X0293998Y0137536D01*
X0293622Y0136627D01*
X0294478Y0138016D02*
X0244200Y0138016D01*
X0244192Y0138036D02*
X0243496Y0138732D01*
X0242587Y0139109D01*
X0241603Y0139109D01*
X0240694Y0138732D01*
X0239998Y0138036D01*
X0239622Y0137127D01*
X0239622Y0136143D01*
X0239998Y0135234D01*
X0240694Y0134539D01*
X0241603Y0134162D01*
X0242587Y0134162D01*
X0243496Y0134539D01*
X0244192Y0135234D01*
X0244568Y0136143D01*
X0244568Y0137127D01*
X0244192Y0138036D01*
X0244568Y0136418D02*
X0279449Y0136418D01*
X0279122Y0134819D02*
X0243777Y0134819D01*
X0240414Y0134819D02*
X0056393Y0134819D01*
X0057534Y0133221D02*
X0280012Y0133221D01*
X0283178Y0133221D02*
X0283234Y0133221D01*
X0287755Y0134819D02*
X0293963Y0134819D01*
X0298227Y0134819D02*
X0309256Y0134819D01*
X0309242Y0136418D02*
X0298568Y0136418D01*
X0297712Y0138016D02*
X0310880Y0138016D01*
X0305466Y0142812D02*
X0283769Y0142812D01*
X0283496Y0142539D02*
X0284192Y0143234D01*
X0284568Y0144143D01*
X0284568Y0145127D01*
X0284192Y0146036D01*
X0283496Y0146732D01*
X0282587Y0147109D01*
X0281603Y0147109D01*
X0280694Y0146732D01*
X0279998Y0146036D01*
X0279622Y0145127D01*
X0279622Y0144143D01*
X0279998Y0143234D01*
X0280694Y0142539D01*
X0281603Y0142162D01*
X0282587Y0142162D01*
X0283496Y0142539D01*
X0284568Y0144410D02*
X0305122Y0144410D01*
X0305971Y0146009D02*
X0284203Y0146009D01*
X0279987Y0146009D02*
X0272410Y0146009D01*
X0272568Y0145627D02*
X0272192Y0146536D01*
X0271496Y0147232D01*
X0270587Y0147609D01*
X0269603Y0147609D01*
X0268694Y0147232D01*
X0267998Y0146536D01*
X0267622Y0145627D01*
X0267622Y0144643D01*
X0267998Y0143734D01*
X0268694Y0143039D01*
X0269603Y0142662D01*
X0270587Y0142662D01*
X0271496Y0143039D01*
X0272192Y0143734D01*
X0272568Y0144643D01*
X0272568Y0145627D01*
X0272472Y0144410D02*
X0279622Y0144410D01*
X0280421Y0142812D02*
X0270948Y0142812D01*
X0269242Y0142812D02*
X0249804Y0142812D01*
X0247387Y0142812D02*
X0137992Y0142812D01*
X0138068Y0142627D02*
X0137692Y0143536D01*
X0136996Y0144232D01*
X0136087Y0144609D01*
X0135103Y0144609D01*
X0134194Y0144232D01*
X0133498Y0143536D01*
X0133122Y0142627D01*
X0133122Y0141643D01*
X0133498Y0140734D01*
X0134194Y0140039D01*
X0135103Y0139662D01*
X0136087Y0139662D01*
X0136996Y0140039D01*
X0137692Y0140734D01*
X0138068Y0141643D01*
X0138068Y0142627D01*
X0137890Y0141213D02*
X0246158Y0141213D01*
X0246341Y0139615D02*
X0212366Y0139615D01*
X0212192Y0140036D02*
X0211496Y0140732D01*
X0210587Y0141109D01*
X0209603Y0141109D01*
X0208694Y0140732D01*
X0207998Y0140036D01*
X0207622Y0139127D01*
X0207622Y0138143D01*
X0207998Y0137234D01*
X0208694Y0136539D01*
X0209603Y0136162D01*
X0210587Y0136162D01*
X0211496Y0136539D01*
X0212192Y0137234D01*
X0212568Y0138143D01*
X0212568Y0139127D01*
X0212192Y0140036D01*
X0212516Y0138016D02*
X0239990Y0138016D01*
X0239622Y0136418D02*
X0211204Y0136418D01*
X0208986Y0136418D02*
X0201875Y0136418D01*
X0202192Y0136734D02*
X0201496Y0136039D01*
X0200587Y0135662D01*
X0199603Y0135662D01*
X0198694Y0136039D01*
X0197998Y0136734D01*
X0197622Y0137643D01*
X0197622Y0138627D01*
X0197998Y0139536D01*
X0198694Y0140232D01*
X0199603Y0140609D01*
X0200587Y0140609D01*
X0201496Y0140232D01*
X0202192Y0139536D01*
X0202568Y0138627D01*
X0202568Y0137643D01*
X0202192Y0136734D01*
X0202568Y0138016D02*
X0207675Y0138016D01*
X0207824Y0139615D02*
X0202113Y0139615D01*
X0198077Y0139615D02*
X0053103Y0139615D01*
X0052743Y0141213D02*
X0133300Y0141213D01*
X0133198Y0142812D02*
X0111769Y0142812D01*
X0111496Y0142539D02*
X0112192Y0143234D01*
X0112568Y0144143D01*
X0112568Y0145127D01*
X0112192Y0146036D01*
X0111496Y0146732D01*
X0110587Y0147109D01*
X0109603Y0147109D01*
X0108694Y0146732D01*
X0107998Y0146036D01*
X0107622Y0145127D01*
X0107622Y0144143D01*
X0107998Y0143234D01*
X0108694Y0142539D01*
X0109603Y0142162D01*
X0110587Y0142162D01*
X0111496Y0142539D01*
X0112568Y0144410D02*
X0134625Y0144410D01*
X0136566Y0144410D02*
X0209823Y0144410D01*
X0209498Y0144734D02*
X0210194Y0144039D01*
X0211103Y0143662D01*
X0212087Y0143662D01*
X0212996Y0144039D01*
X0213692Y0144734D01*
X0214068Y0145643D01*
X0214068Y0146627D01*
X0213692Y0147536D01*
X0212996Y0148232D01*
X0212087Y0148609D01*
X0211103Y0148609D01*
X0210194Y0148232D01*
X0209498Y0147536D01*
X0209122Y0146627D01*
X0209122Y0145643D01*
X0209498Y0144734D01*
X0209122Y0146009D02*
X0112203Y0146009D01*
X0107987Y0146009D02*
X0051664Y0146009D01*
X0051414Y0147607D02*
X0209569Y0147607D01*
X0213621Y0147607D02*
X0223367Y0147607D01*
X0223229Y0147400D02*
X0223028Y0146914D01*
X0222925Y0146398D01*
X0222925Y0146135D01*
X0222925Y0145872D01*
X0223028Y0145357D01*
X0223229Y0144871D01*
X0223521Y0144433D01*
X0223893Y0144061D01*
X0224330Y0143769D01*
X0224816Y0143568D01*
X0225332Y0143465D01*
X0225595Y0143465D01*
X0225595Y0146135D01*
X0225595Y0146135D01*
X0225595Y0143465D01*
X0225858Y0143465D01*
X0226374Y0143568D01*
X0226860Y0143769D01*
X0227297Y0144061D01*
X0227669Y0144433D01*
X0227961Y0144871D01*
X0228163Y0145357D01*
X0228265Y0145872D01*
X0228265Y0146135D01*
X0225595Y0146135D01*
X0222925Y0146135D01*
X0225595Y0146135D01*
X0225595Y0146135D01*
X0225595Y0146135D01*
X0228265Y0146135D01*
X0228265Y0146398D01*
X0228163Y0146914D01*
X0227961Y0147400D01*
X0227669Y0147838D01*
X0227297Y0148209D01*
X0226860Y0148502D01*
X0226374Y0148703D01*
X0225858Y0148805D01*
X0225595Y0148805D01*
X0225332Y0148805D01*
X0224816Y0148703D01*
X0224330Y0148502D01*
X0223893Y0148209D01*
X0223521Y0147838D01*
X0223229Y0147400D01*
X0222925Y0146009D02*
X0214068Y0146009D01*
X0213368Y0144410D02*
X0223544Y0144410D01*
X0225595Y0144410D02*
X0225595Y0144410D01*
X0225595Y0146009D02*
X0225595Y0146009D01*
X0225595Y0146136D02*
X0225595Y0148805D01*
X0225595Y0146136D01*
X0225595Y0146136D01*
X0225595Y0147607D02*
X0225595Y0147607D01*
X0227823Y0147607D02*
X0256721Y0147607D01*
X0256816Y0147568D02*
X0257332Y0147465D01*
X0257595Y0147465D01*
X0257595Y0150135D01*
X0257595Y0150135D01*
X0257595Y0147465D01*
X0257858Y0147465D01*
X0258374Y0147568D01*
X0258860Y0147769D01*
X0259297Y0148061D01*
X0259669Y0148433D01*
X0259961Y0148871D01*
X0260163Y0149357D01*
X0260265Y0149872D01*
X0260265Y0150135D01*
X0257595Y0150135D01*
X0254925Y0150135D01*
X0254925Y0149872D01*
X0255028Y0149357D01*
X0255229Y0148871D01*
X0255521Y0148433D01*
X0255893Y0148061D01*
X0256330Y0147769D01*
X0256816Y0147568D01*
X0257595Y0147607D02*
X0257595Y0147607D01*
X0258469Y0147607D02*
X0269600Y0147607D01*
X0270590Y0147607D02*
X0410732Y0147607D01*
X0410732Y0146009D02*
X0309219Y0146009D01*
X0305087Y0155662D02*
X0305996Y0156039D01*
X0306692Y0156734D01*
X0307068Y0157643D01*
X0307068Y0158627D01*
X0306692Y0159536D01*
X0305996Y0160232D01*
X0305087Y0160609D01*
X0304103Y0160609D01*
X0303194Y0160232D01*
X0302498Y0159536D01*
X0302122Y0158627D01*
X0302122Y0157643D01*
X0302498Y0156734D01*
X0303194Y0156039D01*
X0304103Y0155662D01*
X0305087Y0155662D01*
X0306884Y0157198D02*
X0363161Y0157198D01*
X0363194Y0157232D02*
X0362498Y0156536D01*
X0362122Y0155627D01*
X0362122Y0154643D01*
X0362498Y0153734D01*
X0363194Y0153039D01*
X0364103Y0152662D01*
X0365087Y0152662D01*
X0365996Y0153039D01*
X0366692Y0153734D01*
X0367068Y0154643D01*
X0367068Y0155627D01*
X0366692Y0156536D01*
X0365996Y0157232D01*
X0365087Y0157609D01*
X0364103Y0157609D01*
X0363194Y0157232D01*
X0362122Y0155600D02*
X0338128Y0155600D01*
X0337996Y0155732D02*
X0337087Y0156109D01*
X0336103Y0156109D01*
X0335194Y0155732D01*
X0334498Y0155036D01*
X0334122Y0154127D01*
X0334122Y0153143D01*
X0334498Y0152234D01*
X0335194Y0151539D01*
X0336103Y0151162D01*
X0337087Y0151162D01*
X0337996Y0151539D01*
X0338692Y0152234D01*
X0339068Y0153143D01*
X0339068Y0154127D01*
X0338692Y0155036D01*
X0337996Y0155732D01*
X0339068Y0154001D02*
X0362388Y0154001D01*
X0366802Y0154001D02*
X0389070Y0154001D01*
X0388407Y0154664D02*
X0391124Y0151948D01*
X0394674Y0150477D01*
X0398516Y0150477D01*
X0402066Y0151948D01*
X0404783Y0154664D01*
X0406253Y0158214D01*
X0406253Y0162057D01*
X0404783Y0165606D01*
X0402066Y0168323D01*
X0398516Y0169794D01*
X0394674Y0169794D01*
X0391124Y0168323D01*
X0388407Y0165606D01*
X0386937Y0162057D01*
X0386937Y0158214D01*
X0388407Y0154664D01*
X0388020Y0155600D02*
X0367068Y0155600D01*
X0366030Y0157198D02*
X0387358Y0157198D01*
X0386937Y0158797D02*
X0370912Y0158797D01*
X0370587Y0158662D02*
X0371496Y0159039D01*
X0372192Y0159734D01*
X0372568Y0160643D01*
X0372568Y0161627D01*
X0372192Y0162536D01*
X0371593Y0163135D01*
X0372192Y0163734D01*
X0372568Y0164643D01*
X0372568Y0165627D01*
X0372192Y0166536D01*
X0371496Y0167232D01*
X0370587Y0167609D01*
X0369603Y0167609D01*
X0368694Y0167232D01*
X0367998Y0166536D01*
X0367622Y0165627D01*
X0367622Y0164643D01*
X0367998Y0163734D01*
X0368597Y0163135D01*
X0367998Y0162536D01*
X0367622Y0161627D01*
X0367622Y0160643D01*
X0367998Y0159734D01*
X0368694Y0159039D01*
X0369603Y0158662D01*
X0370587Y0158662D01*
X0369278Y0158797D02*
X0361412Y0158797D01*
X0361087Y0158662D02*
X0361996Y0159039D01*
X0362692Y0159734D01*
X0363068Y0160643D01*
X0363068Y0161627D01*
X0362692Y0162536D01*
X0361996Y0163232D01*
X0361087Y0163609D01*
X0360568Y0163609D01*
X0360568Y0163627D01*
X0360192Y0164536D01*
X0359496Y0165232D01*
X0358587Y0165609D01*
X0357603Y0165609D01*
X0356694Y0165232D01*
X0355998Y0164536D01*
X0355622Y0163627D01*
X0355622Y0162643D01*
X0355998Y0161734D01*
X0356694Y0161039D01*
X0357603Y0160662D01*
X0358122Y0160662D01*
X0358122Y0160643D01*
X0358498Y0159734D01*
X0359194Y0159039D01*
X0360103Y0158662D01*
X0361087Y0158662D01*
X0359778Y0158797D02*
X0306998Y0158797D01*
X0305602Y0160395D02*
X0358225Y0160395D01*
X0355891Y0161994D02*
X0254709Y0161994D01*
X0254692Y0162036D02*
X0253996Y0162732D01*
X0253087Y0163109D01*
X0252103Y0163109D01*
X0251194Y0162732D01*
X0250498Y0162036D01*
X0250122Y0161127D01*
X0250122Y0160143D01*
X0250498Y0159234D01*
X0251194Y0158539D01*
X0252103Y0158162D01*
X0253087Y0158162D01*
X0253996Y0158539D01*
X0254692Y0159234D01*
X0255068Y0160143D01*
X0255068Y0161127D01*
X0254692Y0162036D01*
X0255068Y0160395D02*
X0303589Y0160395D01*
X0302192Y0158797D02*
X0254254Y0158797D01*
X0250936Y0158797D02*
X0242431Y0158797D01*
X0242692Y0158536D02*
X0241996Y0159232D01*
X0241087Y0159609D01*
X0240103Y0159609D01*
X0239194Y0159232D01*
X0238498Y0158536D01*
X0238122Y0157627D01*
X0238122Y0156643D01*
X0238498Y0155734D01*
X0239194Y0155039D01*
X0240103Y0154662D01*
X0241087Y0154662D01*
X0241996Y0155039D01*
X0242692Y0155734D01*
X0243068Y0156643D01*
X0243068Y0157627D01*
X0242692Y0158536D01*
X0243068Y0157198D02*
X0302306Y0157198D01*
X0292068Y0153627D02*
X0291692Y0154536D01*
X0290996Y0155232D01*
X0290087Y0155609D01*
X0289103Y0155609D01*
X0288194Y0155232D01*
X0287498Y0154536D01*
X0287122Y0153627D01*
X0287122Y0152643D01*
X0287498Y0151734D01*
X0288194Y0151039D01*
X0289103Y0150662D01*
X0290087Y0150662D01*
X0290996Y0151039D01*
X0291692Y0151734D01*
X0292068Y0152643D01*
X0292068Y0153627D01*
X0291913Y0154001D02*
X0334122Y0154001D01*
X0334429Y0152403D02*
X0291969Y0152403D01*
X0290430Y0150804D02*
X0393884Y0150804D01*
X0390669Y0152403D02*
X0338762Y0152403D01*
X0335062Y0155600D02*
X0290108Y0155600D01*
X0289082Y0155600D02*
X0247628Y0155600D01*
X0247496Y0155732D02*
X0246587Y0156109D01*
X0245603Y0156109D01*
X0244694Y0155732D01*
X0243998Y0155036D01*
X0243622Y0154127D01*
X0243622Y0153143D01*
X0243998Y0152234D01*
X0244694Y0151539D01*
X0245603Y0151162D01*
X0246587Y0151162D01*
X0247496Y0151539D01*
X0248192Y0152234D01*
X0248568Y0153143D01*
X0248568Y0154127D01*
X0248192Y0155036D01*
X0247496Y0155732D01*
X0248568Y0154001D02*
X0287277Y0154001D01*
X0287222Y0152403D02*
X0259008Y0152403D01*
X0258860Y0152502D02*
X0258374Y0152703D01*
X0257858Y0152805D01*
X0257595Y0152805D01*
X0257332Y0152805D01*
X0256816Y0152703D01*
X0256330Y0152502D01*
X0255893Y0152209D01*
X0255521Y0151838D01*
X0255229Y0151400D01*
X0255028Y0150914D01*
X0254925Y0150398D01*
X0254925Y0150135D01*
X0257595Y0150135D01*
X0257595Y0150135D01*
X0257595Y0150135D01*
X0260265Y0150135D01*
X0260265Y0150398D01*
X0260163Y0150914D01*
X0259961Y0151400D01*
X0259669Y0151838D01*
X0259297Y0152209D01*
X0258860Y0152502D01*
X0257595Y0152403D02*
X0257595Y0152403D01*
X0257595Y0152805D02*
X0257595Y0150136D01*
X0257595Y0150136D01*
X0257595Y0152805D01*
X0256183Y0152403D02*
X0248262Y0152403D01*
X0243929Y0152403D02*
X0166860Y0152403D01*
X0167192Y0152734D02*
X0166496Y0152039D01*
X0165587Y0151662D01*
X0164603Y0151662D01*
X0163694Y0152039D01*
X0163095Y0152638D01*
X0162496Y0152039D01*
X0161587Y0151662D01*
X0160603Y0151662D01*
X0159694Y0152039D01*
X0159095Y0152638D01*
X0158496Y0152039D01*
X0157587Y0151662D01*
X0156603Y0151662D01*
X0155694Y0152039D01*
X0155095Y0152638D01*
X0154496Y0152039D01*
X0153587Y0151662D01*
X0152603Y0151662D01*
X0151694Y0152039D01*
X0151345Y0152388D01*
X0150996Y0152039D01*
X0150087Y0151662D01*
X0149103Y0151662D01*
X0148194Y0152039D01*
X0147595Y0152638D01*
X0146996Y0152039D01*
X0146087Y0151662D01*
X0145103Y0151662D01*
X0144194Y0152039D01*
X0143595Y0152638D01*
X0142996Y0152039D01*
X0142087Y0151662D01*
X0141103Y0151662D01*
X0140194Y0152039D01*
X0139595Y0152638D01*
X0138996Y0152039D01*
X0138087Y0151662D01*
X0137103Y0151662D01*
X0136194Y0152039D01*
X0135595Y0152638D01*
X0134996Y0152039D01*
X0134087Y0151662D01*
X0133103Y0151662D01*
X0132194Y0152039D01*
X0131498Y0152734D01*
X0131122Y0153643D01*
X0131122Y0154627D01*
X0131498Y0155536D01*
X0132194Y0156232D01*
X0133103Y0156609D01*
X0134087Y0156609D01*
X0134996Y0156232D01*
X0135595Y0155633D01*
X0136194Y0156232D01*
X0137103Y0156609D01*
X0138087Y0156609D01*
X0138996Y0156232D01*
X0139595Y0155633D01*
X0140194Y0156232D01*
X0141103Y0156609D01*
X0142087Y0156609D01*
X0142996Y0156232D01*
X0143595Y0155633D01*
X0144194Y0156232D01*
X0145103Y0156609D01*
X0146087Y0156609D01*
X0146996Y0156232D01*
X0147595Y0155633D01*
X0148194Y0156232D01*
X0149103Y0156609D01*
X0150087Y0156609D01*
X0150996Y0156232D01*
X0151345Y0155883D01*
X0151694Y0156232D01*
X0152603Y0156609D01*
X0153587Y0156609D01*
X0154496Y0156232D01*
X0155095Y0155633D01*
X0155694Y0156232D01*
X0156603Y0156609D01*
X0157587Y0156609D01*
X0158496Y0156232D01*
X0159095Y0155633D01*
X0159694Y0156232D01*
X0160603Y0156609D01*
X0161587Y0156609D01*
X0162496Y0156232D01*
X0163095Y0155633D01*
X0163694Y0156232D01*
X0164603Y0156609D01*
X0165587Y0156609D01*
X0166496Y0156232D01*
X0167192Y0155536D01*
X0167568Y0154627D01*
X0167568Y0153643D01*
X0167192Y0152734D01*
X0167568Y0154001D02*
X0243622Y0154001D01*
X0244562Y0155600D02*
X0242557Y0155600D01*
X0238633Y0155600D02*
X0167128Y0155600D01*
X0163330Y0152403D02*
X0162860Y0152403D01*
X0159330Y0152403D02*
X0158860Y0152403D01*
X0155330Y0152403D02*
X0154860Y0152403D01*
X0147830Y0152403D02*
X0147360Y0152403D01*
X0143830Y0152403D02*
X0143360Y0152403D01*
X0139830Y0152403D02*
X0139360Y0152403D01*
X0135830Y0152403D02*
X0135360Y0152403D01*
X0131830Y0152403D02*
X0122469Y0152403D01*
X0122568Y0152643D02*
X0122192Y0151734D01*
X0121496Y0151039D01*
X0120587Y0150662D01*
X0119603Y0150662D01*
X0118694Y0151039D01*
X0117998Y0151734D01*
X0117622Y0152643D01*
X0117622Y0153627D01*
X0117998Y0154536D01*
X0118694Y0155232D01*
X0119603Y0155609D01*
X0120587Y0155609D01*
X0121496Y0155232D01*
X0122192Y0154536D01*
X0122568Y0153627D01*
X0122568Y0152643D01*
X0122413Y0154001D02*
X0131122Y0154001D01*
X0131562Y0155600D02*
X0120608Y0155600D01*
X0119582Y0155600D02*
X0076171Y0155600D01*
X0075783Y0154664D02*
X0077253Y0158214D01*
X0077253Y0162057D01*
X0075783Y0165606D01*
X0073066Y0168323D01*
X0069516Y0169794D01*
X0065674Y0169794D01*
X0062124Y0168323D01*
X0059407Y0165606D01*
X0057937Y0162057D01*
X0057937Y0158214D01*
X0059407Y0154664D01*
X0062124Y0151948D01*
X0065674Y0150477D01*
X0069516Y0150477D01*
X0073066Y0151948D01*
X0075783Y0154664D01*
X0075120Y0154001D02*
X0117777Y0154001D01*
X0117722Y0152403D02*
X0073521Y0152403D01*
X0070306Y0150804D02*
X0119260Y0150804D01*
X0120930Y0150804D02*
X0255006Y0150804D01*
X0255090Y0149206D02*
X0051414Y0149206D01*
X0051414Y0150804D02*
X0064884Y0150804D01*
X0061669Y0152403D02*
X0051414Y0152403D01*
X0051414Y0154001D02*
X0060070Y0154001D01*
X0059020Y0155600D02*
X0051414Y0155600D01*
X0051414Y0157198D02*
X0058358Y0157198D01*
X0057937Y0158797D02*
X0051414Y0158797D01*
X0051414Y0160395D02*
X0057937Y0160395D01*
X0057937Y0161994D02*
X0051414Y0161994D01*
X0051414Y0163593D02*
X0058573Y0163593D01*
X0059235Y0165191D02*
X0051414Y0165191D01*
X0051414Y0166790D02*
X0060590Y0166790D01*
X0062280Y0168388D02*
X0051414Y0168388D01*
X0051414Y0169987D02*
X0103885Y0169987D01*
X0104030Y0170339D02*
X0103362Y0168725D01*
X0103362Y0166979D01*
X0104030Y0165365D01*
X0105266Y0164130D01*
X0106879Y0163461D01*
X0108626Y0163461D01*
X0110240Y0164130D01*
X0111475Y0165365D01*
X0112143Y0166979D01*
X0112143Y0168725D01*
X0111475Y0170339D01*
X0110240Y0171574D01*
X0108626Y0172243D01*
X0106879Y0172243D01*
X0105266Y0171574D01*
X0104030Y0170339D01*
X0105292Y0171585D02*
X0051414Y0171585D01*
X0051414Y0173184D02*
X0410732Y0173184D01*
X0410732Y0174782D02*
X0051414Y0174782D01*
X0072910Y0168388D02*
X0103362Y0168388D01*
X0103440Y0166790D02*
X0074600Y0166790D01*
X0075955Y0165191D02*
X0104204Y0165191D01*
X0106563Y0163593D02*
X0076617Y0163593D01*
X0077253Y0161994D02*
X0180391Y0161994D01*
X0180498Y0161734D02*
X0181194Y0161039D01*
X0182103Y0160662D01*
X0183087Y0160662D01*
X0183996Y0161039D01*
X0184095Y0161138D01*
X0184194Y0161039D01*
X0185103Y0160662D01*
X0186087Y0160662D01*
X0186996Y0161039D01*
X0187095Y0161138D01*
X0187194Y0161039D01*
X0188103Y0160662D01*
X0189087Y0160662D01*
X0189996Y0161039D01*
X0190095Y0161138D01*
X0190194Y0161039D01*
X0191103Y0160662D01*
X0192087Y0160662D01*
X0192996Y0161039D01*
X0193692Y0161734D01*
X0194068Y0162643D01*
X0194068Y0163627D01*
X0193692Y0164536D01*
X0192996Y0165232D01*
X0192087Y0165609D01*
X0191103Y0165609D01*
X0190194Y0165232D01*
X0190095Y0165133D01*
X0189996Y0165232D01*
X0189087Y0165609D01*
X0188103Y0165609D01*
X0187194Y0165232D01*
X0187095Y0165133D01*
X0186996Y0165232D01*
X0186087Y0165609D01*
X0185103Y0165609D01*
X0184194Y0165232D01*
X0184095Y0165133D01*
X0183996Y0165232D01*
X0183087Y0165609D01*
X0182103Y0165609D01*
X0181194Y0165232D01*
X0180498Y0164536D01*
X0180122Y0163627D01*
X0180122Y0162643D01*
X0180498Y0161734D01*
X0180122Y0163593D02*
X0128627Y0163593D01*
X0128311Y0163461D02*
X0129925Y0164130D01*
X0131160Y0165365D01*
X0131828Y0166979D01*
X0131828Y0168725D01*
X0131160Y0170339D01*
X0129925Y0171574D01*
X0128311Y0172243D01*
X0126564Y0172243D01*
X0124951Y0171574D01*
X0123716Y0170339D01*
X0123047Y0168725D01*
X0123047Y0166979D01*
X0123716Y0165365D01*
X0124951Y0164130D01*
X0126564Y0163461D01*
X0128311Y0163461D01*
X0126248Y0163593D02*
X0118785Y0163593D01*
X0118468Y0163461D02*
X0120082Y0164130D01*
X0121317Y0165365D01*
X0121986Y0166979D01*
X0121986Y0168725D01*
X0121317Y0170339D01*
X0120082Y0171574D01*
X0118468Y0172243D01*
X0116722Y0172243D01*
X0115108Y0171574D01*
X0113873Y0170339D01*
X0113205Y0168725D01*
X0113205Y0166979D01*
X0113873Y0165365D01*
X0115108Y0164130D01*
X0116722Y0163461D01*
X0118468Y0163461D01*
X0116405Y0163593D02*
X0108942Y0163593D01*
X0111301Y0165191D02*
X0114047Y0165191D01*
X0113283Y0166790D02*
X0112065Y0166790D01*
X0112143Y0168388D02*
X0113205Y0168388D01*
X0113727Y0169987D02*
X0111621Y0169987D01*
X0110213Y0171585D02*
X0115135Y0171585D01*
X0120056Y0171585D02*
X0124977Y0171585D01*
X0123570Y0169987D02*
X0121463Y0169987D01*
X0121986Y0168388D02*
X0123047Y0168388D01*
X0123125Y0166790D02*
X0121907Y0166790D01*
X0121143Y0165191D02*
X0123889Y0165191D01*
X0130986Y0165191D02*
X0181153Y0165191D01*
X0184037Y0165191D02*
X0184153Y0165191D01*
X0187037Y0165191D02*
X0187153Y0165191D01*
X0190037Y0165191D02*
X0190153Y0165191D01*
X0193037Y0165191D02*
X0245622Y0165191D01*
X0245622Y0165627D02*
X0245622Y0164643D01*
X0245998Y0163734D01*
X0246694Y0163039D01*
X0247603Y0162662D01*
X0248587Y0162662D01*
X0249496Y0163039D01*
X0250192Y0163734D01*
X0250568Y0164643D01*
X0250568Y0165627D01*
X0250192Y0166536D01*
X0249496Y0167232D01*
X0248587Y0167609D01*
X0247603Y0167609D01*
X0246694Y0167232D01*
X0245998Y0166536D01*
X0245622Y0165627D01*
X0246252Y0166790D02*
X0131750Y0166790D01*
X0131828Y0168388D02*
X0350437Y0168388D01*
X0350498Y0168536D02*
X0350122Y0167627D01*
X0350122Y0166643D01*
X0350498Y0165734D01*
X0351194Y0165039D01*
X0352103Y0164662D01*
X0353087Y0164662D01*
X0353996Y0165039D01*
X0354692Y0165734D01*
X0355068Y0166643D01*
X0355068Y0167627D01*
X0354692Y0168536D01*
X0353996Y0169232D01*
X0353087Y0169609D01*
X0352103Y0169609D01*
X0351194Y0169232D01*
X0350498Y0168536D01*
X0350122Y0166790D02*
X0249939Y0166790D01*
X0250568Y0165191D02*
X0351042Y0165191D01*
X0354148Y0165191D02*
X0356653Y0165191D01*
X0355622Y0163593D02*
X0250050Y0163593D01*
X0250481Y0161994D02*
X0231209Y0161994D01*
X0231192Y0162036D02*
X0230496Y0162732D01*
X0229587Y0163109D01*
X0228603Y0163109D01*
X0227694Y0162732D01*
X0226998Y0162036D01*
X0226622Y0161127D01*
X0226622Y0160143D01*
X0226998Y0159234D01*
X0227694Y0158539D01*
X0228603Y0158162D01*
X0229587Y0158162D01*
X0230496Y0158539D01*
X0231192Y0159234D01*
X0231568Y0160143D01*
X0231568Y0161127D01*
X0231192Y0162036D01*
X0231568Y0160395D02*
X0250122Y0160395D01*
X0246140Y0163593D02*
X0194068Y0163593D01*
X0193799Y0161994D02*
X0226981Y0161994D01*
X0226622Y0160395D02*
X0077253Y0160395D01*
X0077253Y0158797D02*
X0227436Y0158797D01*
X0230754Y0158797D02*
X0238759Y0158797D01*
X0238122Y0157198D02*
X0076833Y0157198D01*
X0052024Y0144410D02*
X0107622Y0144410D01*
X0108421Y0142812D02*
X0052383Y0142812D01*
X0054109Y0138016D02*
X0197622Y0138016D01*
X0198315Y0136418D02*
X0055251Y0136418D01*
X0086068Y0117236D02*
X0192837Y0117236D01*
X0194775Y0115637D02*
X0085095Y0115637D01*
X0081644Y0067682D02*
X0058281Y0067682D01*
X0058281Y0066083D02*
X0081854Y0066083D01*
X0149095Y0038909D02*
X0149095Y0038909D01*
X0149095Y0037310D02*
X0149095Y0037310D01*
X0151911Y0029318D02*
X0162280Y0029318D01*
X0161622Y0027719D02*
X0152568Y0027719D01*
X0166123Y0042106D02*
X0177622Y0042106D01*
X0178666Y0043704D02*
X0165188Y0043704D01*
X0187918Y0037310D02*
X0216744Y0037310D01*
X0216205Y0035712D02*
X0188568Y0035712D01*
X0188323Y0034113D02*
X0188070Y0034113D01*
X0192867Y0034113D02*
X0214575Y0034113D01*
X0213622Y0032515D02*
X0193015Y0032515D01*
X0191700Y0030916D02*
X0213923Y0030916D01*
X0218267Y0030916D02*
X0219308Y0030916D01*
X0221882Y0030916D02*
X0222122Y0030916D01*
X0234183Y0032515D02*
X0244007Y0032515D01*
X0243266Y0034113D02*
X0234924Y0034113D01*
X0234986Y0035712D02*
X0243205Y0035712D01*
X0243744Y0037310D02*
X0234447Y0037310D01*
X0232959Y0038909D02*
X0245231Y0038909D01*
X0244416Y0042106D02*
X0233775Y0042106D01*
X0234755Y0043704D02*
X0243436Y0043704D01*
X0243205Y0045303D02*
X0241038Y0045303D01*
X0241765Y0046901D02*
X0243574Y0046901D01*
X0239095Y0046901D02*
X0239095Y0046901D01*
X0239095Y0045303D02*
X0239095Y0045303D01*
X0237152Y0045303D02*
X0234986Y0045303D01*
X0234616Y0046901D02*
X0236425Y0046901D01*
X0250775Y0042106D02*
X0254416Y0042106D01*
X0253436Y0043704D02*
X0251755Y0043704D01*
X0251986Y0045303D02*
X0253205Y0045303D01*
X0253574Y0046901D02*
X0251616Y0046901D01*
X0249959Y0038909D02*
X0255231Y0038909D01*
X0253744Y0037310D02*
X0251447Y0037310D01*
X0251986Y0035712D02*
X0253205Y0035712D01*
X0253266Y0034113D02*
X0251924Y0034113D01*
X0251183Y0032515D02*
X0254007Y0032515D01*
X0276595Y0048500D02*
X0276595Y0048500D01*
X0299929Y0042304D02*
X0299929Y0040395D01*
X0301355Y0038969D01*
X0304484Y0038969D01*
X0304603Y0039058D01*
X0305225Y0038969D01*
X0305855Y0038969D01*
X0305959Y0038864D01*
X0306106Y0038843D01*
X0306484Y0038340D01*
X0306929Y0037895D01*
X0306929Y0037747D01*
X0309218Y0034694D01*
X0309395Y0034635D01*
X0309527Y0034372D01*
X0309762Y0036250D01*
X0309762Y0036895D01*
X0309854Y0036987D01*
X0309870Y0037116D01*
X0310379Y0037513D01*
X0310836Y0037969D01*
X0310966Y0037969D01*
X0311069Y0038049D01*
X0311709Y0037969D01*
X0312869Y0037969D01*
X0312935Y0037985D01*
X0307489Y0042936D01*
X0307461Y0042871D01*
X0307169Y0042433D01*
X0306797Y0042061D01*
X0306360Y0041769D01*
X0305874Y0041568D01*
X0305358Y0041465D01*
X0305095Y0041465D01*
X0305095Y0044135D01*
X0305095Y0044135D01*
X0305095Y0041465D01*
X0304832Y0041465D01*
X0304316Y0041568D01*
X0303830Y0041769D01*
X0303393Y0042061D01*
X0303206Y0042249D01*
X0302996Y0042039D01*
X0302087Y0041662D01*
X0301103Y0041662D01*
X0300194Y0042039D01*
X0299929Y0042304D01*
X0299929Y0042106D02*
X0300127Y0042106D01*
X0299929Y0040507D02*
X0310161Y0040507D01*
X0311919Y0038909D02*
X0305915Y0038909D01*
X0307256Y0037310D02*
X0310119Y0037310D01*
X0309694Y0035712D02*
X0308455Y0035712D01*
X0308402Y0042106D02*
X0306841Y0042106D01*
X0305095Y0042106D02*
X0305095Y0042106D01*
X0305095Y0043704D02*
X0305095Y0043704D01*
X0303349Y0042106D02*
X0303063Y0042106D01*
X0308578Y0046901D02*
X0313445Y0046901D01*
X0311847Y0048500D02*
X0306824Y0048500D01*
X0310337Y0045303D02*
X0315044Y0045303D01*
X0316122Y0043704D02*
X0312095Y0043704D01*
X0320789Y0045303D02*
X0320902Y0045303D01*
X0319915Y0038909D02*
X0354946Y0038909D01*
X0354622Y0037310D02*
X0324818Y0037310D01*
X0337194Y0048039D02*
X0338103Y0047662D01*
X0339087Y0047662D01*
X0339996Y0048039D01*
X0340692Y0048734D01*
X0341068Y0049643D01*
X0341068Y0050162D01*
X0341587Y0050162D01*
X0342496Y0050539D01*
X0343192Y0051234D01*
X0343568Y0052143D01*
X0343568Y0053127D01*
X0343192Y0054036D01*
X0342496Y0054732D01*
X0341587Y0055109D01*
X0340603Y0055109D01*
X0339694Y0054732D01*
X0338998Y0054036D01*
X0338622Y0053127D01*
X0338622Y0052609D01*
X0338103Y0052609D01*
X0337194Y0052232D01*
X0336498Y0051536D01*
X0336122Y0050627D01*
X0336122Y0049643D01*
X0336498Y0048734D01*
X0337194Y0048039D01*
X0336733Y0048500D02*
X0330802Y0048500D01*
X0331068Y0050098D02*
X0336122Y0050098D01*
X0336659Y0051697D02*
X0331096Y0051697D01*
X0331186Y0053295D02*
X0338691Y0053295D01*
X0340084Y0054894D02*
X0330021Y0054894D01*
X0330299Y0056492D02*
X0358954Y0056492D01*
X0359097Y0056635D02*
X0358498Y0056036D01*
X0358122Y0055127D01*
X0358122Y0054143D01*
X0358498Y0053234D01*
X0359194Y0052539D01*
X0360103Y0052162D01*
X0361087Y0052162D01*
X0361996Y0052539D01*
X0362692Y0053234D01*
X0363068Y0054143D01*
X0363068Y0055127D01*
X0362692Y0056036D01*
X0362093Y0056635D01*
X0362692Y0057234D01*
X0363068Y0058143D01*
X0363068Y0059127D01*
X0362692Y0060036D01*
X0361996Y0060732D01*
X0361087Y0061109D01*
X0360103Y0061109D01*
X0359194Y0060732D01*
X0358498Y0060036D01*
X0358122Y0059127D01*
X0358122Y0058143D01*
X0358498Y0057234D01*
X0359097Y0056635D01*
X0358144Y0058091D02*
X0330568Y0058091D01*
X0329539Y0059689D02*
X0358355Y0059689D01*
X0362836Y0059689D02*
X0375159Y0059689D01*
X0374849Y0059437D02*
X0374849Y0059437D01*
X0374849Y0059437D01*
X0373876Y0058091D02*
X0363047Y0058091D01*
X0362236Y0056492D02*
X0372721Y0056492D01*
X0371829Y0055258D02*
X0371829Y0055258D01*
X0371690Y0054894D02*
X0363068Y0054894D01*
X0362717Y0053295D02*
X0371080Y0053295D01*
X0366932Y0051697D02*
X0343383Y0051697D01*
X0343499Y0053295D02*
X0358473Y0053295D01*
X0358122Y0054894D02*
X0342106Y0054894D01*
X0341068Y0050098D02*
X0365819Y0050098D01*
X0365547Y0048500D02*
X0340457Y0048500D01*
X0370616Y0032515D02*
X0394250Y0032515D01*
X0394163Y0032428D02*
X0393547Y0030941D01*
X0393547Y0029330D01*
X0394163Y0027842D01*
X0395302Y0026704D01*
X0396790Y0026087D01*
X0398400Y0026087D01*
X0399888Y0026704D01*
X0401027Y0027842D01*
X0401643Y0029330D01*
X0401643Y0030941D01*
X0401027Y0032428D01*
X0399888Y0033567D01*
X0398400Y0034183D01*
X0396790Y0034183D01*
X0395302Y0033567D01*
X0394163Y0032428D01*
X0393547Y0030916D02*
X0368968Y0030916D01*
X0367319Y0029318D02*
X0393552Y0029318D01*
X0394287Y0027719D02*
X0365671Y0027719D01*
X0364023Y0026121D02*
X0396710Y0026121D01*
X0398480Y0026121D02*
X0410732Y0026121D01*
X0410732Y0027719D02*
X0400904Y0027719D01*
X0401638Y0029318D02*
X0410732Y0029318D01*
X0410732Y0030916D02*
X0401643Y0030916D01*
X0400941Y0032515D02*
X0410732Y0032515D01*
X0410732Y0034113D02*
X0398570Y0034113D01*
X0396620Y0034113D02*
X0372265Y0034113D01*
X0373913Y0035712D02*
X0410732Y0035712D01*
X0410732Y0037310D02*
X0375562Y0037310D01*
X0377069Y0038909D02*
X0410732Y0038909D01*
X0410732Y0040507D02*
X0385465Y0040507D01*
X0385692Y0040734D02*
X0386068Y0041643D01*
X0386068Y0042627D01*
X0385692Y0043536D01*
X0384996Y0044232D01*
X0384087Y0044609D01*
X0383103Y0044609D01*
X0382194Y0044232D01*
X0381498Y0043536D01*
X0381122Y0042627D01*
X0381122Y0041643D01*
X0381498Y0040734D01*
X0382194Y0040039D01*
X0383103Y0039662D01*
X0384087Y0039662D01*
X0384996Y0040039D01*
X0385692Y0040734D01*
X0386068Y0042106D02*
X0406127Y0042106D01*
X0406194Y0042039D02*
X0407103Y0041662D01*
X0408087Y0041662D01*
X0408996Y0042039D01*
X0409692Y0042734D01*
X0410068Y0043643D01*
X0410068Y0044627D01*
X0409692Y0045536D01*
X0408996Y0046232D01*
X0408087Y0046609D01*
X0407103Y0046609D01*
X0406194Y0046232D01*
X0405498Y0045536D01*
X0405122Y0044627D01*
X0405122Y0043643D01*
X0405498Y0042734D01*
X0406194Y0042039D01*
X0405122Y0043704D02*
X0385524Y0043704D01*
X0383881Y0046901D02*
X0377503Y0046901D01*
X0377503Y0045303D02*
X0405402Y0045303D01*
X0403881Y0046901D02*
X0387309Y0046901D01*
X0390032Y0048500D02*
X0401158Y0048500D01*
X0399909Y0050098D02*
X0391281Y0050098D01*
X0391943Y0051697D02*
X0399247Y0051697D01*
X0399180Y0053295D02*
X0392011Y0053295D01*
X0391811Y0054894D02*
X0399379Y0054894D01*
X0398869Y0056492D02*
X0400041Y0056492D01*
X0401002Y0058091D02*
X0401478Y0058091D01*
X0402167Y0059689D02*
X0410732Y0059689D01*
X0410732Y0058091D02*
X0409713Y0058091D01*
X0410732Y0061288D02*
X0402829Y0061288D01*
X0402985Y0062886D02*
X0410732Y0062886D01*
X0410732Y0064485D02*
X0402985Y0064485D01*
X0402373Y0066083D02*
X0410732Y0066083D01*
X0410732Y0067682D02*
X0409194Y0067682D01*
X0401997Y0067682D02*
X0401500Y0067682D01*
X0400377Y0069280D02*
X0399902Y0069280D01*
X0399586Y0070879D02*
X0396826Y0070879D01*
X0397640Y0072477D02*
X0399180Y0072477D01*
X0410531Y0077273D02*
X0410732Y0077273D01*
X0410732Y0078871D02*
X0408512Y0078871D01*
X0389023Y0059689D02*
X0387546Y0059689D01*
X0389713Y0058091D02*
X0390188Y0058091D01*
X0391149Y0056492D02*
X0392321Y0056492D01*
X0379180Y0053295D02*
X0378955Y0053295D01*
X0379247Y0051697D02*
X0377864Y0051697D01*
X0377503Y0050098D02*
X0379909Y0050098D01*
X0381158Y0048500D02*
X0377503Y0048500D01*
X0377503Y0043704D02*
X0381666Y0043704D01*
X0381122Y0042106D02*
X0377503Y0042106D01*
X0377503Y0040507D02*
X0381726Y0040507D01*
X0407309Y0046901D02*
X0410732Y0046901D01*
X0410732Y0045303D02*
X0409789Y0045303D01*
X0410068Y0043704D02*
X0410732Y0043704D01*
X0410732Y0042106D02*
X0409063Y0042106D01*
X0410032Y0048500D02*
X0410732Y0048500D01*
X0410732Y0024522D02*
X0362374Y0024522D01*
X0360726Y0022924D02*
X0410732Y0022924D01*
X0405288Y0016529D02*
X0389902Y0016529D01*
X0389980Y0014931D02*
X0405210Y0014931D01*
X0297354Y0027719D02*
X0289068Y0027719D01*
X0288782Y0029318D02*
X0295641Y0029318D01*
X0211553Y0072477D02*
X0204923Y0072477D01*
X0204959Y0070879D02*
X0209954Y0070879D01*
X0213151Y0074076D02*
X0203166Y0074076D01*
X0202024Y0074076D02*
X0193652Y0074076D01*
X0194068Y0075674D02*
X0214750Y0075674D01*
X0214854Y0077273D02*
X0216348Y0077273D01*
X0213336Y0077273D02*
X0193801Y0077273D01*
X0194068Y0072477D02*
X0200267Y0072477D01*
X0200232Y0070879D02*
X0193336Y0070879D01*
X0223953Y0086864D02*
X0256909Y0086864D01*
X0258038Y0088462D02*
X0223930Y0088462D01*
X0222202Y0090061D02*
X0259637Y0090061D01*
X0261235Y0091660D02*
X0207568Y0091660D01*
X0207568Y0092127D02*
X0207192Y0093036D01*
X0206496Y0093732D01*
X0205587Y0094109D01*
X0204603Y0094109D01*
X0203694Y0093732D01*
X0202998Y0093036D01*
X0202622Y0092127D01*
X0202622Y0091143D01*
X0202998Y0090234D01*
X0203694Y0089539D01*
X0204603Y0089162D01*
X0205587Y0089162D01*
X0206496Y0089539D01*
X0207192Y0090234D01*
X0207568Y0091143D01*
X0207568Y0092127D01*
X0206970Y0093258D02*
X0262176Y0093258D01*
X0265696Y0094857D02*
X0286448Y0094857D01*
X0286122Y0096455D02*
X0267912Y0096455D01*
X0268568Y0098054D02*
X0287016Y0098054D01*
X0290175Y0098054D02*
X0291016Y0098054D01*
X0295203Y0104448D02*
X0256781Y0104448D01*
X0257003Y0106046D02*
X0295295Y0106046D01*
X0291319Y0117236D02*
X0263899Y0117236D01*
X0263983Y0118834D02*
X0290925Y0118834D01*
X0260251Y0112440D02*
X0253232Y0112440D01*
X0253192Y0112536D02*
X0252496Y0113232D01*
X0251587Y0113609D01*
X0250603Y0113609D01*
X0249694Y0113232D01*
X0248998Y0112536D01*
X0248622Y0111627D01*
X0248622Y0110643D01*
X0248998Y0109734D01*
X0249694Y0109039D01*
X0250603Y0108662D01*
X0251587Y0108662D01*
X0252496Y0109039D01*
X0253192Y0109734D01*
X0253568Y0110643D01*
X0253568Y0111627D01*
X0253192Y0112536D01*
X0253568Y0110842D02*
X0260247Y0110842D01*
X0253205Y0109243D02*
X0252701Y0109243D01*
X0252622Y0107645D02*
X0200523Y0107645D01*
X0200986Y0109243D02*
X0249490Y0109243D01*
X0248622Y0110842D02*
X0200848Y0110842D01*
X0200000Y0112440D02*
X0248959Y0112440D01*
X0253187Y0106046D02*
X0199215Y0106046D01*
X0198609Y0099652D02*
X0205614Y0099652D01*
X0205122Y0098054D02*
X0197675Y0098054D01*
X0198568Y0096455D02*
X0205778Y0096455D01*
X0209412Y0096455D02*
X0246896Y0096455D01*
X0249294Y0096455D02*
X0252896Y0096455D01*
X0251659Y0098054D02*
X0250531Y0098054D01*
X0250351Y0099652D02*
X0251839Y0099652D01*
X0268076Y0099652D02*
X0410732Y0099652D01*
X0410732Y0107645D02*
X0397124Y0107645D01*
X0398043Y0109243D02*
X0410732Y0109243D01*
X0410732Y0110842D02*
X0398157Y0110842D01*
X0397589Y0112440D02*
X0410732Y0112440D01*
X0386332Y0115637D02*
X0346986Y0115637D01*
X0346477Y0117236D02*
X0386167Y0117236D01*
X0410732Y0149206D02*
X0260100Y0149206D01*
X0260184Y0150804D02*
X0288760Y0150804D01*
X0267780Y0146009D02*
X0228265Y0146009D01*
X0227646Y0144410D02*
X0267718Y0144410D01*
X0257595Y0149206D02*
X0257595Y0149206D01*
X0257595Y0150804D02*
X0257595Y0150804D01*
X0354753Y0168388D02*
X0361437Y0168388D01*
X0361498Y0168536D02*
X0361122Y0167627D01*
X0361122Y0166643D01*
X0361498Y0165734D01*
X0362194Y0165039D01*
X0363103Y0164662D01*
X0364087Y0164662D01*
X0364996Y0165039D01*
X0365692Y0165734D01*
X0366068Y0166643D01*
X0366068Y0167627D01*
X0365692Y0168536D01*
X0364996Y0169232D01*
X0364087Y0169609D01*
X0363103Y0169609D01*
X0362194Y0169232D01*
X0361498Y0168536D01*
X0361122Y0166790D02*
X0355068Y0166790D01*
X0359537Y0165191D02*
X0362042Y0165191D01*
X0361126Y0163593D02*
X0368140Y0163593D01*
X0367774Y0161994D02*
X0362916Y0161994D01*
X0362966Y0160395D02*
X0367725Y0160395D01*
X0372466Y0160395D02*
X0386937Y0160395D01*
X0386937Y0161994D02*
X0372416Y0161994D01*
X0372050Y0163593D02*
X0387573Y0163593D01*
X0388235Y0165191D02*
X0372568Y0165191D01*
X0371939Y0166790D02*
X0389590Y0166790D01*
X0391280Y0168388D02*
X0365753Y0168388D01*
X0366068Y0166790D02*
X0368252Y0166790D01*
X0367622Y0165191D02*
X0365148Y0165191D01*
X0401910Y0168388D02*
X0410732Y0168388D01*
X0410732Y0166790D02*
X0403600Y0166790D01*
X0404955Y0165191D02*
X0410732Y0165191D01*
X0410732Y0163593D02*
X0405617Y0163593D01*
X0406253Y0161994D02*
X0410732Y0161994D01*
X0410732Y0160395D02*
X0406253Y0160395D01*
X0406253Y0158797D02*
X0410732Y0158797D01*
X0410732Y0157198D02*
X0405833Y0157198D01*
X0405171Y0155600D02*
X0410732Y0155600D01*
X0410732Y0154001D02*
X0404120Y0154001D01*
X0402521Y0152403D02*
X0410732Y0152403D01*
X0410732Y0150804D02*
X0399306Y0150804D01*
X0410732Y0169987D02*
X0131306Y0169987D01*
X0129898Y0171585D02*
X0410732Y0171585D01*
X0220988Y0090061D02*
X0207018Y0090061D01*
X0203172Y0090061D02*
X0201518Y0090061D01*
X0202068Y0091660D02*
X0202622Y0091660D01*
X0203220Y0093258D02*
X0201470Y0093258D01*
X0156707Y0013332D02*
X0152483Y0013332D01*
X0147707Y0013332D02*
X0099483Y0013332D01*
X0094707Y0013332D02*
X0051414Y0013332D01*
D21*
X0284095Y0042635D02*
X0284595Y0042135D01*
X0299595Y0028135D01*
X0304595Y0023135D01*
X0323095Y0023135D01*
X0327095Y0021635D01*
X0322595Y0027135D02*
X0324095Y0028635D01*
X0322595Y0027135D02*
X0321095Y0027135D01*
X0318595Y0030135D01*
X0314095Y0030135D01*
X0311095Y0027135D01*
X0306095Y0027135D01*
X0305095Y0028135D01*
X0305095Y0033635D01*
X0303595Y0035135D01*
X0299595Y0035135D01*
X0294595Y0040135D01*
X0294595Y0044135D01*
X0291095Y0044135D02*
X0291095Y0040635D01*
X0298595Y0032635D01*
X0299095Y0032635D01*
X0301595Y0030135D01*
X0301595Y0028635D01*
X0305095Y0025135D01*
X0305595Y0025635D01*
X0315595Y0025635D01*
X0317595Y0027635D01*
X0319595Y0031635D02*
X0326595Y0031635D01*
X0330595Y0033635D02*
X0319095Y0037135D01*
X0316595Y0037135D01*
X0305595Y0047135D01*
X0290595Y0047135D01*
X0287595Y0044135D01*
X0284095Y0044135D02*
X0284095Y0042635D01*
X0298095Y0044135D02*
X0298095Y0039635D01*
X0300595Y0037135D01*
X0305095Y0037135D01*
X0308095Y0033135D01*
X0308595Y0032135D01*
X0311095Y0032135D01*
X0311595Y0036135D01*
X0313095Y0036135D01*
X0314095Y0032135D01*
X0315595Y0032135D01*
X0316595Y0035135D01*
X0317595Y0035135D01*
X0318595Y0032635D01*
X0319595Y0031635D01*
X0349095Y0027635D02*
X0357095Y0027635D01*
X0369095Y0039635D01*
X0369095Y0048135D01*
X0369595Y0048635D01*
X0374095Y0051635D02*
X0374095Y0040635D01*
X0357595Y0024635D01*
X0353095Y0024635D01*
X0374095Y0051635D02*
X0374237Y0051993D01*
X0374387Y0052348D01*
X0374545Y0052699D01*
X0374711Y0053046D01*
X0374886Y0053389D01*
X0375069Y0053727D01*
X0375260Y0054062D01*
X0375459Y0054391D01*
X0375665Y0054716D01*
X0375880Y0055036D01*
X0376101Y0055351D01*
X0376331Y0055660D01*
X0376567Y0055964D01*
X0376811Y0056262D01*
X0377061Y0056554D01*
X0377319Y0056840D01*
X0377583Y0057120D01*
X0377854Y0057393D01*
X0378131Y0057660D01*
X0378415Y0057920D01*
X0378705Y0058174D01*
X0379000Y0058420D01*
X0379302Y0058660D01*
X0379609Y0058892D01*
X0379921Y0059117D01*
X0380239Y0059334D01*
X0380562Y0059543D01*
X0380890Y0059745D01*
X0381222Y0059939D01*
X0381559Y0060126D01*
X0381900Y0060304D01*
X0382246Y0060473D01*
X0382595Y0060635D01*
X0395595Y0077135D02*
X0395595Y0083635D01*
X0395596Y0077136D02*
X0395405Y0076489D01*
X0395199Y0075848D01*
X0394977Y0075212D01*
X0394739Y0074582D01*
X0394486Y0073958D01*
X0394218Y0073340D01*
X0393934Y0072729D01*
X0393636Y0072125D01*
X0393323Y0071528D01*
X0392996Y0070940D01*
X0392654Y0070359D01*
X0392298Y0069787D01*
X0391928Y0069224D01*
X0391544Y0068671D01*
X0391147Y0068127D01*
X0390737Y0067592D01*
X0390313Y0067068D01*
X0389877Y0066555D01*
X0389429Y0066053D01*
X0388968Y0065561D01*
X0388495Y0065081D01*
X0388011Y0064613D01*
X0387515Y0064157D01*
X0387009Y0063713D01*
X0386491Y0063282D01*
X0385963Y0062863D01*
X0385425Y0062458D01*
X0384878Y0062066D01*
X0384320Y0061687D01*
X0383754Y0061322D01*
X0383179Y0060972D01*
X0382595Y0060635D01*
M02*
