G75*
%MOIN*%
%OFA0B0*%
%FSLAX25Y25*%
%IPPOS*%
%LPD*%
%AMOC8*
5,1,8,0,0,1.08239X$1,22.5*
%
%ADD10C,0.00000*%
%ADD11C,0.00300*%
%ADD12C,0.16535*%
%ADD13C,0.06000*%
%ADD14C,0.05020*%
%ADD15C,0.08850*%
%ADD16C,0.10050*%
%ADD17C,0.01969*%
%ADD18C,0.02756*%
%ADD19C,0.01600*%
%ADD20C,0.02378*%
D10*
X0022595Y0009348D02*
X0412516Y0009348D01*
X0412516Y0203167D01*
X0022595Y0203167D01*
X0022595Y0009348D01*
D11*
X0404543Y0189498D02*
X0407445Y0189498D01*
X0407445Y0191433D01*
X0406961Y0192445D02*
X0407445Y0192928D01*
X0407445Y0193896D01*
X0406961Y0194380D01*
X0406478Y0194380D01*
X0405994Y0193896D01*
X0405994Y0193412D01*
X0405994Y0193896D02*
X0405510Y0194380D01*
X0405026Y0194380D01*
X0404543Y0193896D01*
X0404543Y0192928D01*
X0405026Y0192445D01*
D12*
X0396595Y0159348D03*
X0067595Y0159348D03*
X0067595Y0024348D03*
D13*
X0209095Y0059848D03*
X0219095Y0059848D03*
X0229095Y0059848D03*
X0229095Y0069848D03*
X0219095Y0069848D03*
X0209095Y0069848D03*
X0247595Y0064848D03*
X0257595Y0064848D03*
X0257595Y0054848D03*
X0247595Y0054848D03*
X0247595Y0044848D03*
X0257595Y0044848D03*
X0257595Y0034848D03*
X0247595Y0034848D03*
X0229095Y0034848D03*
X0219095Y0034848D03*
X0219095Y0044848D03*
X0229095Y0044848D03*
X0229095Y0024848D03*
X0219095Y0024848D03*
X0247595Y0024848D03*
X0257595Y0024848D03*
X0196595Y0108848D03*
X0196595Y0118848D03*
X0127438Y0167065D03*
X0117595Y0167065D03*
X0107753Y0167065D03*
X0332595Y0134348D03*
X0342595Y0134348D03*
X0342595Y0124348D03*
X0332595Y0124348D03*
X0332595Y0114348D03*
X0342595Y0114348D03*
D14*
X0393579Y0109506D03*
X0393579Y0129191D03*
D15*
X0395595Y0062348D03*
D16*
X0385595Y0052348D03*
X0405595Y0052348D03*
X0405595Y0072348D03*
X0385595Y0072348D03*
D17*
X0309611Y0073848D02*
X0309613Y0073910D01*
X0309619Y0073973D01*
X0309629Y0074034D01*
X0309643Y0074095D01*
X0309660Y0074155D01*
X0309681Y0074214D01*
X0309707Y0074271D01*
X0309735Y0074326D01*
X0309767Y0074380D01*
X0309803Y0074431D01*
X0309841Y0074481D01*
X0309883Y0074527D01*
X0309927Y0074571D01*
X0309975Y0074612D01*
X0310024Y0074650D01*
X0310076Y0074684D01*
X0310130Y0074715D01*
X0310186Y0074743D01*
X0310244Y0074767D01*
X0310303Y0074788D01*
X0310363Y0074804D01*
X0310424Y0074817D01*
X0310486Y0074826D01*
X0310548Y0074831D01*
X0310611Y0074832D01*
X0310673Y0074829D01*
X0310735Y0074822D01*
X0310797Y0074811D01*
X0310857Y0074796D01*
X0310917Y0074778D01*
X0310975Y0074756D01*
X0311032Y0074730D01*
X0311087Y0074700D01*
X0311140Y0074667D01*
X0311191Y0074631D01*
X0311239Y0074592D01*
X0311285Y0074549D01*
X0311328Y0074504D01*
X0311368Y0074456D01*
X0311405Y0074406D01*
X0311439Y0074353D01*
X0311470Y0074299D01*
X0311496Y0074243D01*
X0311520Y0074185D01*
X0311539Y0074125D01*
X0311555Y0074065D01*
X0311567Y0074003D01*
X0311575Y0073942D01*
X0311579Y0073879D01*
X0311579Y0073817D01*
X0311575Y0073754D01*
X0311567Y0073693D01*
X0311555Y0073631D01*
X0311539Y0073571D01*
X0311520Y0073511D01*
X0311496Y0073453D01*
X0311470Y0073397D01*
X0311439Y0073343D01*
X0311405Y0073290D01*
X0311368Y0073240D01*
X0311328Y0073192D01*
X0311285Y0073147D01*
X0311239Y0073104D01*
X0311191Y0073065D01*
X0311140Y0073029D01*
X0311087Y0072996D01*
X0311032Y0072966D01*
X0310975Y0072940D01*
X0310917Y0072918D01*
X0310857Y0072900D01*
X0310797Y0072885D01*
X0310735Y0072874D01*
X0310673Y0072867D01*
X0310611Y0072864D01*
X0310548Y0072865D01*
X0310486Y0072870D01*
X0310424Y0072879D01*
X0310363Y0072892D01*
X0310303Y0072908D01*
X0310244Y0072929D01*
X0310186Y0072953D01*
X0310130Y0072981D01*
X0310076Y0073012D01*
X0310024Y0073046D01*
X0309975Y0073084D01*
X0309927Y0073125D01*
X0309883Y0073169D01*
X0309841Y0073215D01*
X0309803Y0073265D01*
X0309767Y0073316D01*
X0309735Y0073370D01*
X0309707Y0073425D01*
X0309681Y0073482D01*
X0309660Y0073541D01*
X0309643Y0073601D01*
X0309629Y0073662D01*
X0309619Y0073723D01*
X0309613Y0073786D01*
X0309611Y0073848D01*
X0086611Y0019348D02*
X0086613Y0019410D01*
X0086619Y0019473D01*
X0086629Y0019534D01*
X0086643Y0019595D01*
X0086660Y0019655D01*
X0086681Y0019714D01*
X0086707Y0019771D01*
X0086735Y0019826D01*
X0086767Y0019880D01*
X0086803Y0019931D01*
X0086841Y0019981D01*
X0086883Y0020027D01*
X0086927Y0020071D01*
X0086975Y0020112D01*
X0087024Y0020150D01*
X0087076Y0020184D01*
X0087130Y0020215D01*
X0087186Y0020243D01*
X0087244Y0020267D01*
X0087303Y0020288D01*
X0087363Y0020304D01*
X0087424Y0020317D01*
X0087486Y0020326D01*
X0087548Y0020331D01*
X0087611Y0020332D01*
X0087673Y0020329D01*
X0087735Y0020322D01*
X0087797Y0020311D01*
X0087857Y0020296D01*
X0087917Y0020278D01*
X0087975Y0020256D01*
X0088032Y0020230D01*
X0088087Y0020200D01*
X0088140Y0020167D01*
X0088191Y0020131D01*
X0088239Y0020092D01*
X0088285Y0020049D01*
X0088328Y0020004D01*
X0088368Y0019956D01*
X0088405Y0019906D01*
X0088439Y0019853D01*
X0088470Y0019799D01*
X0088496Y0019743D01*
X0088520Y0019685D01*
X0088539Y0019625D01*
X0088555Y0019565D01*
X0088567Y0019503D01*
X0088575Y0019442D01*
X0088579Y0019379D01*
X0088579Y0019317D01*
X0088575Y0019254D01*
X0088567Y0019193D01*
X0088555Y0019131D01*
X0088539Y0019071D01*
X0088520Y0019011D01*
X0088496Y0018953D01*
X0088470Y0018897D01*
X0088439Y0018843D01*
X0088405Y0018790D01*
X0088368Y0018740D01*
X0088328Y0018692D01*
X0088285Y0018647D01*
X0088239Y0018604D01*
X0088191Y0018565D01*
X0088140Y0018529D01*
X0088087Y0018496D01*
X0088032Y0018466D01*
X0087975Y0018440D01*
X0087917Y0018418D01*
X0087857Y0018400D01*
X0087797Y0018385D01*
X0087735Y0018374D01*
X0087673Y0018367D01*
X0087611Y0018364D01*
X0087548Y0018365D01*
X0087486Y0018370D01*
X0087424Y0018379D01*
X0087363Y0018392D01*
X0087303Y0018408D01*
X0087244Y0018429D01*
X0087186Y0018453D01*
X0087130Y0018481D01*
X0087076Y0018512D01*
X0087024Y0018546D01*
X0086975Y0018584D01*
X0086927Y0018625D01*
X0086883Y0018669D01*
X0086841Y0018715D01*
X0086803Y0018765D01*
X0086767Y0018816D01*
X0086735Y0018870D01*
X0086707Y0018925D01*
X0086681Y0018982D01*
X0086660Y0019041D01*
X0086643Y0019101D01*
X0086629Y0019162D01*
X0086619Y0019223D01*
X0086613Y0019286D01*
X0086611Y0019348D01*
X0065611Y0181348D02*
X0065613Y0181410D01*
X0065619Y0181473D01*
X0065629Y0181534D01*
X0065643Y0181595D01*
X0065660Y0181655D01*
X0065681Y0181714D01*
X0065707Y0181771D01*
X0065735Y0181826D01*
X0065767Y0181880D01*
X0065803Y0181931D01*
X0065841Y0181981D01*
X0065883Y0182027D01*
X0065927Y0182071D01*
X0065975Y0182112D01*
X0066024Y0182150D01*
X0066076Y0182184D01*
X0066130Y0182215D01*
X0066186Y0182243D01*
X0066244Y0182267D01*
X0066303Y0182288D01*
X0066363Y0182304D01*
X0066424Y0182317D01*
X0066486Y0182326D01*
X0066548Y0182331D01*
X0066611Y0182332D01*
X0066673Y0182329D01*
X0066735Y0182322D01*
X0066797Y0182311D01*
X0066857Y0182296D01*
X0066917Y0182278D01*
X0066975Y0182256D01*
X0067032Y0182230D01*
X0067087Y0182200D01*
X0067140Y0182167D01*
X0067191Y0182131D01*
X0067239Y0182092D01*
X0067285Y0182049D01*
X0067328Y0182004D01*
X0067368Y0181956D01*
X0067405Y0181906D01*
X0067439Y0181853D01*
X0067470Y0181799D01*
X0067496Y0181743D01*
X0067520Y0181685D01*
X0067539Y0181625D01*
X0067555Y0181565D01*
X0067567Y0181503D01*
X0067575Y0181442D01*
X0067579Y0181379D01*
X0067579Y0181317D01*
X0067575Y0181254D01*
X0067567Y0181193D01*
X0067555Y0181131D01*
X0067539Y0181071D01*
X0067520Y0181011D01*
X0067496Y0180953D01*
X0067470Y0180897D01*
X0067439Y0180843D01*
X0067405Y0180790D01*
X0067368Y0180740D01*
X0067328Y0180692D01*
X0067285Y0180647D01*
X0067239Y0180604D01*
X0067191Y0180565D01*
X0067140Y0180529D01*
X0067087Y0180496D01*
X0067032Y0180466D01*
X0066975Y0180440D01*
X0066917Y0180418D01*
X0066857Y0180400D01*
X0066797Y0180385D01*
X0066735Y0180374D01*
X0066673Y0180367D01*
X0066611Y0180364D01*
X0066548Y0180365D01*
X0066486Y0180370D01*
X0066424Y0180379D01*
X0066363Y0180392D01*
X0066303Y0180408D01*
X0066244Y0180429D01*
X0066186Y0180453D01*
X0066130Y0180481D01*
X0066076Y0180512D01*
X0066024Y0180546D01*
X0065975Y0180584D01*
X0065927Y0180625D01*
X0065883Y0180669D01*
X0065841Y0180715D01*
X0065803Y0180765D01*
X0065767Y0180816D01*
X0065735Y0180870D01*
X0065707Y0180925D01*
X0065681Y0180982D01*
X0065660Y0181041D01*
X0065643Y0181101D01*
X0065629Y0181162D01*
X0065619Y0181223D01*
X0065613Y0181286D01*
X0065611Y0181348D01*
X0349111Y0195348D02*
X0349113Y0195410D01*
X0349119Y0195473D01*
X0349129Y0195534D01*
X0349143Y0195595D01*
X0349160Y0195655D01*
X0349181Y0195714D01*
X0349207Y0195771D01*
X0349235Y0195826D01*
X0349267Y0195880D01*
X0349303Y0195931D01*
X0349341Y0195981D01*
X0349383Y0196027D01*
X0349427Y0196071D01*
X0349475Y0196112D01*
X0349524Y0196150D01*
X0349576Y0196184D01*
X0349630Y0196215D01*
X0349686Y0196243D01*
X0349744Y0196267D01*
X0349803Y0196288D01*
X0349863Y0196304D01*
X0349924Y0196317D01*
X0349986Y0196326D01*
X0350048Y0196331D01*
X0350111Y0196332D01*
X0350173Y0196329D01*
X0350235Y0196322D01*
X0350297Y0196311D01*
X0350357Y0196296D01*
X0350417Y0196278D01*
X0350475Y0196256D01*
X0350532Y0196230D01*
X0350587Y0196200D01*
X0350640Y0196167D01*
X0350691Y0196131D01*
X0350739Y0196092D01*
X0350785Y0196049D01*
X0350828Y0196004D01*
X0350868Y0195956D01*
X0350905Y0195906D01*
X0350939Y0195853D01*
X0350970Y0195799D01*
X0350996Y0195743D01*
X0351020Y0195685D01*
X0351039Y0195625D01*
X0351055Y0195565D01*
X0351067Y0195503D01*
X0351075Y0195442D01*
X0351079Y0195379D01*
X0351079Y0195317D01*
X0351075Y0195254D01*
X0351067Y0195193D01*
X0351055Y0195131D01*
X0351039Y0195071D01*
X0351020Y0195011D01*
X0350996Y0194953D01*
X0350970Y0194897D01*
X0350939Y0194843D01*
X0350905Y0194790D01*
X0350868Y0194740D01*
X0350828Y0194692D01*
X0350785Y0194647D01*
X0350739Y0194604D01*
X0350691Y0194565D01*
X0350640Y0194529D01*
X0350587Y0194496D01*
X0350532Y0194466D01*
X0350475Y0194440D01*
X0350417Y0194418D01*
X0350357Y0194400D01*
X0350297Y0194385D01*
X0350235Y0194374D01*
X0350173Y0194367D01*
X0350111Y0194364D01*
X0350048Y0194365D01*
X0349986Y0194370D01*
X0349924Y0194379D01*
X0349863Y0194392D01*
X0349803Y0194408D01*
X0349744Y0194429D01*
X0349686Y0194453D01*
X0349630Y0194481D01*
X0349576Y0194512D01*
X0349524Y0194546D01*
X0349475Y0194584D01*
X0349427Y0194625D01*
X0349383Y0194669D01*
X0349341Y0194715D01*
X0349303Y0194765D01*
X0349267Y0194816D01*
X0349235Y0194870D01*
X0349207Y0194925D01*
X0349181Y0194982D01*
X0349160Y0195041D01*
X0349143Y0195101D01*
X0349129Y0195162D01*
X0349119Y0195223D01*
X0349113Y0195286D01*
X0349111Y0195348D01*
D18*
X0361095Y0165848D03*
X0360095Y0161848D03*
X0371095Y0165348D03*
X0377095Y0165348D03*
X0367095Y0154348D03*
X0380595Y0150848D03*
X0398095Y0141348D03*
X0388095Y0126348D03*
X0388595Y0122348D03*
X0385595Y0118848D03*
X0388595Y0115848D03*
X0388095Y0105848D03*
X0389595Y0095848D03*
X0392355Y0088348D03*
X0395595Y0082848D03*
X0406095Y0087348D03*
X0364595Y0085848D03*
X0352595Y0082848D03*
X0352595Y0092848D03*
X0328095Y0080348D03*
X0327595Y0076348D03*
X0327595Y0068848D03*
X0327595Y0056848D03*
X0328095Y0052348D03*
X0328095Y0048348D03*
X0323095Y0043348D03*
X0317595Y0044348D03*
X0305595Y0044348D03*
X0301595Y0045348D03*
X0298095Y0043348D03*
X0294595Y0045348D03*
X0291095Y0043348D03*
X0287595Y0045348D03*
X0283595Y0044848D03*
X0278095Y0047348D03*
X0272095Y0041348D03*
X0275095Y0037848D03*
X0269595Y0029848D03*
X0264595Y0034848D03*
X0264095Y0045848D03*
X0276595Y0052348D03*
X0288095Y0049348D03*
X0265895Y0063648D03*
X0264095Y0067348D03*
X0266595Y0070848D03*
X0281595Y0071348D03*
X0288095Y0066348D03*
X0295095Y0076848D03*
X0300095Y0089348D03*
X0292095Y0094848D03*
X0288095Y0094848D03*
X0297595Y0104348D03*
X0307595Y0104348D03*
X0319595Y0104348D03*
X0320095Y0109348D03*
X0315595Y0121348D03*
X0310595Y0130348D03*
X0311095Y0134848D03*
X0327095Y0137848D03*
X0307595Y0143348D03*
X0296095Y0135348D03*
X0285095Y0134348D03*
X0281095Y0134348D03*
X0292095Y0125848D03*
X0297595Y0121348D03*
X0294595Y0117348D03*
X0285595Y0111671D03*
X0277595Y0122348D03*
X0269095Y0122348D03*
X0261095Y0117848D03*
X0269095Y0113348D03*
X0262595Y0109848D03*
X0254095Y0107348D03*
X0251095Y0110348D03*
X0256595Y0101348D03*
X0254095Y0097848D03*
X0248095Y0097848D03*
X0263595Y0091348D03*
X0266595Y0088348D03*
X0266595Y0084348D03*
X0266595Y0080348D03*
X0239095Y0080348D03*
X0222595Y0086848D03*
X0214095Y0082710D03*
X0205095Y0083348D03*
X0203095Y0075848D03*
X0191595Y0074848D03*
X0179095Y0071348D03*
X0179095Y0081348D03*
X0179095Y0087348D03*
X0191595Y0083848D03*
X0200095Y0090848D03*
X0206095Y0090848D03*
X0195595Y0095348D03*
X0193595Y0098848D03*
X0197095Y0100848D03*
X0206595Y0098348D03*
X0210095Y0100848D03*
X0228595Y0101348D03*
X0228095Y0115848D03*
X0223595Y0119348D03*
X0218095Y0118848D03*
X0212095Y0116848D03*
X0241095Y0134348D03*
X0248595Y0139848D03*
X0257595Y0149348D03*
X0246095Y0152848D03*
X0240095Y0156848D03*
X0229095Y0160848D03*
X0225595Y0145348D03*
X0211595Y0145348D03*
X0210095Y0137348D03*
X0200595Y0137348D03*
X0165095Y0152348D03*
X0161095Y0155348D03*
X0157095Y0152348D03*
X0153595Y0155348D03*
X0149595Y0152348D03*
X0145595Y0155348D03*
X0141595Y0152348D03*
X0138095Y0155348D03*
X0133095Y0152348D03*
X0120095Y0152348D03*
X0110095Y0143848D03*
X0135095Y0139848D03*
X0182595Y0162848D03*
X0188595Y0162848D03*
X0185595Y0165848D03*
X0191595Y0165848D03*
X0252595Y0159848D03*
X0279095Y0146348D03*
X0270095Y0144348D03*
X0289595Y0150848D03*
X0304595Y0156848D03*
X0336595Y0152848D03*
X0354595Y0130348D03*
X0317095Y0095348D03*
X0313095Y0094848D03*
X0321595Y0094348D03*
X0325595Y0084348D03*
X0364595Y0068848D03*
X0360595Y0057848D03*
X0360595Y0053848D03*
X0369595Y0047848D03*
X0383595Y0040848D03*
X0377095Y0035348D03*
X0397595Y0029348D03*
X0387595Y0014848D03*
X0407595Y0014848D03*
X0365095Y0015348D03*
X0353595Y0023348D03*
X0350095Y0027348D03*
X0336595Y0021348D03*
X0326532Y0019742D03*
X0322595Y0019348D03*
X0315595Y0019348D03*
X0310595Y0019348D03*
X0317595Y0026848D03*
X0323595Y0027348D03*
X0326595Y0030348D03*
X0330095Y0033348D03*
X0322095Y0033348D03*
X0310095Y0029848D03*
X0286595Y0027348D03*
X0239095Y0046348D03*
X0214095Y0031348D03*
X0200595Y0024348D03*
X0186595Y0029848D03*
X0187095Y0033848D03*
X0193595Y0033848D03*
X0180595Y0029848D03*
X0174095Y0033348D03*
X0173595Y0027348D03*
X0164095Y0027348D03*
X0160595Y0022848D03*
X0163595Y0019848D03*
X0167095Y0014848D03*
X0162595Y0011848D03*
X0157595Y0011848D03*
X0150095Y0011848D03*
X0150095Y0027348D03*
X0150095Y0031848D03*
X0143595Y0039848D03*
X0160595Y0036348D03*
X0174595Y0041348D03*
X0164595Y0046848D03*
X0149595Y0056348D03*
X0163095Y0058348D03*
X0205595Y0051348D03*
X0266095Y0097348D03*
X0250095Y0126848D03*
X0342095Y0051348D03*
X0338595Y0049348D03*
X0357095Y0036848D03*
X0407595Y0043348D03*
X0118095Y0031848D03*
X0103595Y0052848D03*
X0084095Y0066348D03*
X0082595Y0076848D03*
X0056595Y0071348D03*
X0055095Y0076848D03*
X0055095Y0063848D03*
X0074095Y0107348D03*
X0083595Y0116848D03*
X0083595Y0128848D03*
X0056595Y0122348D03*
X0055095Y0116848D03*
X0055595Y0128848D03*
X0035595Y0195848D03*
X0030095Y0013848D03*
X0096595Y0012348D03*
D19*
X0094551Y0013008D02*
X0094551Y0025688D01*
X0093936Y0026304D01*
X0081255Y0026304D01*
X0080640Y0025688D01*
X0080640Y0013008D01*
X0081255Y0012393D01*
X0082125Y0012393D01*
X0093936Y0012393D01*
X0094551Y0013008D01*
X0094088Y0012545D02*
X0146748Y0012545D01*
X0146736Y0012516D02*
X0146736Y0011180D01*
X0146756Y0011132D01*
X0051414Y0011132D01*
X0051414Y0053085D01*
X0055186Y0067194D01*
X0055275Y0067194D01*
X0055731Y0067005D01*
X0057459Y0067005D01*
X0059055Y0067666D01*
X0060277Y0068888D01*
X0060938Y0070484D01*
X0060938Y0072212D01*
X0060277Y0073808D01*
X0059055Y0075030D01*
X0057459Y0075691D01*
X0055731Y0075691D01*
X0055275Y0075502D01*
X0053890Y0075502D01*
X0053017Y0075627D01*
X0053016Y0075627D01*
X0051414Y0075217D01*
X0051414Y0118756D01*
X0053443Y0118093D01*
X0053443Y0118093D01*
X0054755Y0118194D01*
X0055275Y0118194D01*
X0055731Y0118005D01*
X0057459Y0118005D01*
X0059055Y0118666D01*
X0060277Y0119888D01*
X0060938Y0121484D01*
X0060938Y0123212D01*
X0060277Y0124808D01*
X0059055Y0126030D01*
X0057459Y0126691D01*
X0055731Y0126691D01*
X0055275Y0126502D01*
X0055257Y0126502D01*
X0055150Y0126537D01*
X0055039Y0126756D01*
X0051414Y0143244D01*
X0051414Y0174348D01*
X0410732Y0174348D01*
X0410732Y0076515D01*
X0410577Y0076717D01*
X0409964Y0077330D01*
X0409277Y0077858D01*
X0408526Y0078291D01*
X0407725Y0078623D01*
X0406888Y0078847D01*
X0406395Y0078912D01*
X0406395Y0073148D01*
X0404795Y0073148D01*
X0404795Y0071548D01*
X0399031Y0071548D01*
X0399096Y0071055D01*
X0399320Y0070218D01*
X0399652Y0069417D01*
X0400085Y0068666D01*
X0400613Y0067979D01*
X0401226Y0067366D01*
X0401914Y0066838D01*
X0402664Y0066405D01*
X0403465Y0066073D01*
X0404302Y0065849D01*
X0404795Y0065784D01*
X0404795Y0071548D01*
X0406395Y0071548D01*
X0406395Y0065784D01*
X0406888Y0065849D01*
X0407725Y0066073D01*
X0408526Y0066405D01*
X0409277Y0066838D01*
X0409964Y0067366D01*
X0410577Y0067979D01*
X0410732Y0068181D01*
X0410732Y0056515D01*
X0410577Y0056717D01*
X0409964Y0057330D01*
X0409277Y0057858D01*
X0408526Y0058291D01*
X0407725Y0058623D01*
X0406888Y0058847D01*
X0406395Y0058912D01*
X0406395Y0053148D01*
X0404795Y0053148D01*
X0404795Y0051548D01*
X0399031Y0051548D01*
X0399096Y0051055D01*
X0399320Y0050218D01*
X0399652Y0049417D01*
X0400085Y0048666D01*
X0400613Y0047979D01*
X0401226Y0047366D01*
X0401914Y0046838D01*
X0402664Y0046405D01*
X0403465Y0046073D01*
X0404302Y0045849D01*
X0404795Y0045784D01*
X0404795Y0051548D01*
X0406395Y0051548D01*
X0406395Y0045784D01*
X0406888Y0045849D01*
X0407725Y0046073D01*
X0408526Y0046405D01*
X0409277Y0046838D01*
X0409964Y0047366D01*
X0410577Y0047979D01*
X0410732Y0048181D01*
X0410732Y0011132D01*
X0165934Y0011132D01*
X0165954Y0011180D01*
X0165954Y0011685D01*
X0166427Y0011489D01*
X0167763Y0011489D01*
X0168998Y0012000D01*
X0169943Y0012945D01*
X0170454Y0014180D01*
X0170454Y0015516D01*
X0169943Y0016751D01*
X0168998Y0017696D01*
X0167763Y0018207D01*
X0166551Y0018207D01*
X0166954Y0019180D01*
X0166954Y0020516D01*
X0166443Y0021751D01*
X0165498Y0022696D01*
X0164263Y0023207D01*
X0163954Y0023207D01*
X0163954Y0023516D01*
X0163758Y0023989D01*
X0164763Y0023989D01*
X0165998Y0024500D01*
X0166943Y0025445D01*
X0167454Y0026680D01*
X0167454Y0028016D01*
X0166943Y0029251D01*
X0165998Y0030196D01*
X0164763Y0030707D01*
X0163427Y0030707D01*
X0162192Y0030196D01*
X0161247Y0029251D01*
X0160736Y0028016D01*
X0160736Y0026680D01*
X0160932Y0026207D01*
X0159927Y0026207D01*
X0158692Y0025696D01*
X0157747Y0024751D01*
X0157236Y0023516D01*
X0157236Y0022180D01*
X0157747Y0020945D01*
X0158692Y0020000D01*
X0159927Y0019489D01*
X0160236Y0019489D01*
X0160236Y0019180D01*
X0160747Y0017945D01*
X0161692Y0017000D01*
X0162927Y0016489D01*
X0164139Y0016489D01*
X0163736Y0015516D01*
X0163736Y0015011D01*
X0163263Y0015207D01*
X0161927Y0015207D01*
X0160692Y0014696D01*
X0159747Y0013751D01*
X0159236Y0012516D01*
X0159236Y0011180D01*
X0159256Y0011132D01*
X0153434Y0011132D01*
X0153454Y0011180D01*
X0153454Y0012516D01*
X0152943Y0013751D01*
X0151998Y0014696D01*
X0150763Y0015207D01*
X0149427Y0015207D01*
X0148192Y0014696D01*
X0147247Y0013751D01*
X0146736Y0012516D01*
X0147640Y0014144D02*
X0094551Y0014144D01*
X0094551Y0015742D02*
X0163830Y0015742D01*
X0161352Y0017341D02*
X0094551Y0017341D01*
X0094551Y0018939D02*
X0160336Y0018939D01*
X0158155Y0020538D02*
X0094551Y0020538D01*
X0094551Y0022136D02*
X0157254Y0022136D01*
X0157327Y0023735D02*
X0094551Y0023735D01*
X0094551Y0025333D02*
X0147360Y0025333D01*
X0147247Y0025445D02*
X0148192Y0024500D01*
X0149427Y0023989D01*
X0150763Y0023989D01*
X0151998Y0024500D01*
X0152943Y0025445D01*
X0153454Y0026680D01*
X0153454Y0028016D01*
X0152943Y0029251D01*
X0152596Y0029598D01*
X0152943Y0029945D01*
X0153454Y0031180D01*
X0153454Y0032516D01*
X0152943Y0033751D01*
X0151998Y0034696D01*
X0150763Y0035207D01*
X0149427Y0035207D01*
X0148192Y0034696D01*
X0147247Y0033751D01*
X0146736Y0032516D01*
X0146736Y0031180D01*
X0147247Y0029945D01*
X0147595Y0029598D01*
X0147247Y0029251D01*
X0146736Y0028016D01*
X0146736Y0026680D01*
X0147247Y0025445D01*
X0146736Y0026932D02*
X0077114Y0026932D01*
X0077080Y0027081D02*
X0076714Y0028125D01*
X0076234Y0029123D01*
X0075645Y0030060D01*
X0074955Y0030925D01*
X0074172Y0031708D01*
X0073307Y0032398D01*
X0072370Y0032987D01*
X0071372Y0033467D01*
X0070328Y0033833D01*
X0069249Y0034079D01*
X0068395Y0034175D01*
X0068395Y0025148D01*
X0066795Y0025148D01*
X0066795Y0023548D01*
X0057768Y0023548D01*
X0057864Y0022695D01*
X0058110Y0021615D01*
X0058476Y0020571D01*
X0058956Y0019573D01*
X0059545Y0018636D01*
X0060235Y0017771D01*
X0061018Y0016988D01*
X0061883Y0016298D01*
X0062821Y0015709D01*
X0063818Y0015229D01*
X0064863Y0014863D01*
X0065942Y0014617D01*
X0066795Y0014521D01*
X0066795Y0023548D01*
X0068395Y0023548D01*
X0068395Y0014521D01*
X0069249Y0014617D01*
X0070328Y0014863D01*
X0071372Y0015229D01*
X0072370Y0015709D01*
X0073307Y0016298D01*
X0074172Y0016988D01*
X0074955Y0017771D01*
X0075645Y0018636D01*
X0076234Y0019573D01*
X0076714Y0020571D01*
X0077080Y0021615D01*
X0077326Y0022695D01*
X0077422Y0023548D01*
X0068395Y0023548D01*
X0068395Y0025148D01*
X0077422Y0025148D01*
X0077326Y0026001D01*
X0077080Y0027081D01*
X0076519Y0028530D02*
X0117328Y0028530D01*
X0117427Y0028489D02*
X0118763Y0028489D01*
X0119998Y0029000D01*
X0120943Y0029945D01*
X0121454Y0031180D01*
X0121454Y0032516D01*
X0120943Y0033751D01*
X0119998Y0034696D01*
X0118763Y0035207D01*
X0117427Y0035207D01*
X0116192Y0034696D01*
X0115247Y0033751D01*
X0114736Y0032516D01*
X0114736Y0031180D01*
X0115247Y0029945D01*
X0116192Y0029000D01*
X0117427Y0028489D01*
X0118863Y0028530D02*
X0146949Y0028530D01*
X0147171Y0030129D02*
X0121019Y0030129D01*
X0121454Y0031727D02*
X0146736Y0031727D01*
X0147071Y0033326D02*
X0121119Y0033326D01*
X0119446Y0034924D02*
X0148744Y0034924D01*
X0151446Y0034924D02*
X0157549Y0034924D01*
X0157747Y0034445D02*
X0158692Y0033500D01*
X0159927Y0032989D01*
X0161263Y0032989D01*
X0162498Y0033500D01*
X0163443Y0034445D01*
X0163954Y0035680D01*
X0163954Y0037016D01*
X0163443Y0038251D01*
X0162498Y0039196D01*
X0161263Y0039707D01*
X0159927Y0039707D01*
X0158692Y0039196D01*
X0157747Y0038251D01*
X0157236Y0037016D01*
X0157236Y0035680D01*
X0157747Y0034445D01*
X0159114Y0033326D02*
X0153119Y0033326D01*
X0153454Y0031727D02*
X0171131Y0031727D01*
X0171247Y0031445D02*
X0172192Y0030500D01*
X0172310Y0030452D01*
X0171692Y0030196D01*
X0170747Y0029251D01*
X0170236Y0028016D01*
X0170236Y0026680D01*
X0170747Y0025445D01*
X0171692Y0024500D01*
X0172927Y0023989D01*
X0174263Y0023989D01*
X0175498Y0024500D01*
X0176443Y0025445D01*
X0176954Y0026680D01*
X0176954Y0028016D01*
X0176443Y0029251D01*
X0175498Y0030196D01*
X0175380Y0030244D01*
X0175998Y0030500D01*
X0176943Y0031445D01*
X0177454Y0032680D01*
X0177454Y0034016D01*
X0176943Y0035251D01*
X0175998Y0036196D01*
X0174763Y0036707D01*
X0173427Y0036707D01*
X0172192Y0036196D01*
X0171247Y0035251D01*
X0170736Y0034016D01*
X0170736Y0032680D01*
X0171247Y0031445D01*
X0171625Y0030129D02*
X0166065Y0030129D01*
X0167241Y0028530D02*
X0170449Y0028530D01*
X0170236Y0026932D02*
X0167454Y0026932D01*
X0166831Y0025333D02*
X0170860Y0025333D01*
X0176331Y0025333D02*
X0214114Y0025333D01*
X0214114Y0025839D02*
X0214114Y0023857D01*
X0214872Y0022026D01*
X0216274Y0020625D01*
X0218104Y0019867D01*
X0220086Y0019867D01*
X0221917Y0020625D01*
X0223318Y0022026D01*
X0224076Y0023857D01*
X0224076Y0025839D01*
X0223318Y0027670D01*
X0221917Y0029071D01*
X0220086Y0029829D01*
X0218104Y0029829D01*
X0216777Y0029279D01*
X0216943Y0029445D01*
X0217262Y0030216D01*
X0218104Y0029867D01*
X0220086Y0029867D01*
X0221917Y0030625D01*
X0223318Y0032026D01*
X0224076Y0033857D01*
X0224076Y0035839D01*
X0223318Y0037670D01*
X0221917Y0039071D01*
X0220086Y0039829D01*
X0218104Y0039829D01*
X0216274Y0039071D01*
X0214872Y0037670D01*
X0214114Y0035839D01*
X0214114Y0034707D01*
X0213427Y0034707D01*
X0212192Y0034196D01*
X0211247Y0033251D01*
X0210736Y0032016D01*
X0210736Y0030680D01*
X0211247Y0029445D01*
X0212192Y0028500D01*
X0213427Y0027989D01*
X0214763Y0027989D01*
X0215495Y0028292D01*
X0214872Y0027670D01*
X0214114Y0025839D01*
X0214567Y0026932D02*
X0188332Y0026932D01*
X0188498Y0027000D02*
X0189443Y0027945D01*
X0189954Y0029180D01*
X0189954Y0030516D01*
X0189532Y0031535D01*
X0189943Y0031945D01*
X0190345Y0032917D01*
X0190747Y0031945D01*
X0191692Y0031000D01*
X0192927Y0030489D01*
X0194263Y0030489D01*
X0195498Y0031000D01*
X0196443Y0031945D01*
X0196954Y0033180D01*
X0196954Y0034516D01*
X0196443Y0035751D01*
X0195498Y0036696D01*
X0194263Y0037207D01*
X0192927Y0037207D01*
X0191692Y0036696D01*
X0190747Y0035751D01*
X0190345Y0034779D01*
X0189943Y0035751D01*
X0188998Y0036696D01*
X0187763Y0037207D01*
X0186427Y0037207D01*
X0185192Y0036696D01*
X0184247Y0035751D01*
X0183736Y0034516D01*
X0183736Y0033180D01*
X0184158Y0032161D01*
X0183747Y0031751D01*
X0183595Y0031383D01*
X0183443Y0031751D01*
X0182498Y0032696D01*
X0181263Y0033207D01*
X0179927Y0033207D01*
X0178692Y0032696D01*
X0177747Y0031751D01*
X0177236Y0030516D01*
X0177236Y0029180D01*
X0177747Y0027945D01*
X0178692Y0027000D01*
X0179927Y0026489D01*
X0181263Y0026489D01*
X0182498Y0027000D01*
X0183443Y0027945D01*
X0183595Y0028313D01*
X0183747Y0027945D01*
X0184692Y0027000D01*
X0185927Y0026489D01*
X0187263Y0026489D01*
X0188498Y0027000D01*
X0189685Y0028530D02*
X0212163Y0028530D01*
X0210964Y0030129D02*
X0189954Y0030129D01*
X0189725Y0031727D02*
X0190966Y0031727D01*
X0196225Y0031727D02*
X0210736Y0031727D01*
X0211322Y0033326D02*
X0196954Y0033326D01*
X0196785Y0034924D02*
X0214114Y0034924D01*
X0214397Y0036523D02*
X0195671Y0036523D01*
X0191519Y0036523D02*
X0189171Y0036523D01*
X0190285Y0034924D02*
X0190405Y0034924D01*
X0185019Y0036523D02*
X0175208Y0036523D01*
X0175263Y0037989D02*
X0176498Y0038500D01*
X0177443Y0039445D01*
X0177954Y0040680D01*
X0177954Y0042016D01*
X0177443Y0043251D01*
X0176498Y0044196D01*
X0175263Y0044707D01*
X0173927Y0044707D01*
X0172692Y0044196D01*
X0171747Y0043251D01*
X0171236Y0042016D01*
X0171236Y0040680D01*
X0171747Y0039445D01*
X0172692Y0038500D01*
X0173927Y0037989D01*
X0175263Y0037989D01*
X0175583Y0038121D02*
X0215324Y0038121D01*
X0217840Y0039720D02*
X0177556Y0039720D01*
X0177954Y0041318D02*
X0216149Y0041318D01*
X0216107Y0041349D02*
X0216691Y0040925D01*
X0217334Y0040597D01*
X0218021Y0040374D01*
X0218734Y0040261D01*
X0218895Y0040261D01*
X0218895Y0044648D01*
X0214508Y0044648D01*
X0214508Y0044487D01*
X0214621Y0043774D01*
X0214844Y0043087D01*
X0215172Y0042444D01*
X0215596Y0041860D01*
X0216107Y0041349D01*
X0214931Y0042917D02*
X0177581Y0042917D01*
X0175726Y0044515D02*
X0214508Y0044515D01*
X0214508Y0045048D02*
X0218895Y0045048D01*
X0218895Y0044648D01*
X0219295Y0044648D01*
X0219295Y0040261D01*
X0219456Y0040261D01*
X0220169Y0040374D01*
X0220856Y0040597D01*
X0221499Y0040925D01*
X0222084Y0041349D01*
X0222594Y0041860D01*
X0223019Y0042444D01*
X0223346Y0043087D01*
X0223570Y0043774D01*
X0223683Y0044487D01*
X0223683Y0044648D01*
X0219295Y0044648D01*
X0219295Y0045048D01*
X0218895Y0045048D01*
X0218895Y0049435D01*
X0218734Y0049435D01*
X0218021Y0049322D01*
X0217334Y0049099D01*
X0216691Y0048772D01*
X0216107Y0048347D01*
X0215596Y0047837D01*
X0215172Y0047252D01*
X0214844Y0046609D01*
X0214621Y0045922D01*
X0214508Y0045209D01*
X0214508Y0045048D01*
X0214683Y0046114D02*
X0051414Y0046114D01*
X0051414Y0047712D02*
X0215506Y0047712D01*
X0217985Y0049311D02*
X0208308Y0049311D01*
X0208443Y0049445D02*
X0208954Y0050680D01*
X0208954Y0052016D01*
X0208443Y0053251D01*
X0207498Y0054196D01*
X0206263Y0054707D01*
X0204927Y0054707D01*
X0203692Y0054196D01*
X0202747Y0053251D01*
X0202236Y0052016D01*
X0202236Y0050680D01*
X0202747Y0049445D01*
X0203692Y0048500D01*
X0204927Y0047989D01*
X0206263Y0047989D01*
X0207498Y0048500D01*
X0208443Y0049445D01*
X0208954Y0050909D02*
X0244490Y0050909D01*
X0244774Y0050625D02*
X0246604Y0049867D01*
X0248586Y0049867D01*
X0250417Y0050625D01*
X0251818Y0052026D01*
X0252576Y0053857D01*
X0252576Y0055839D01*
X0251818Y0057670D01*
X0250417Y0059071D01*
X0248586Y0059829D01*
X0246604Y0059829D01*
X0244774Y0059071D01*
X0243372Y0057670D01*
X0242614Y0055839D01*
X0242614Y0053857D01*
X0243372Y0052026D01*
X0244774Y0050625D01*
X0245353Y0049311D02*
X0240720Y0049311D01*
X0240998Y0049196D02*
X0239763Y0049707D01*
X0238427Y0049707D01*
X0237192Y0049196D01*
X0236247Y0048251D01*
X0235736Y0047016D01*
X0235736Y0045680D01*
X0236247Y0044445D01*
X0237192Y0043500D01*
X0238427Y0042989D01*
X0239763Y0042989D01*
X0240998Y0043500D01*
X0241943Y0044445D01*
X0242454Y0045680D01*
X0242454Y0047016D01*
X0241943Y0048251D01*
X0240998Y0049196D01*
X0242166Y0047712D02*
X0243415Y0047712D01*
X0243372Y0047670D02*
X0242614Y0045839D01*
X0242614Y0043857D01*
X0243372Y0042026D01*
X0244774Y0040625D01*
X0246604Y0039867D01*
X0248586Y0039867D01*
X0250417Y0040625D01*
X0251818Y0042026D01*
X0252576Y0043857D01*
X0252576Y0045839D01*
X0251818Y0047670D01*
X0250417Y0049071D01*
X0248586Y0049829D01*
X0246604Y0049829D01*
X0244774Y0049071D01*
X0243372Y0047670D01*
X0242728Y0046114D02*
X0242454Y0046114D01*
X0242614Y0044515D02*
X0241972Y0044515D01*
X0243004Y0042917D02*
X0233687Y0042917D01*
X0233318Y0042026D02*
X0234076Y0043857D01*
X0234076Y0045839D01*
X0233318Y0047670D01*
X0231917Y0049071D01*
X0230086Y0049829D01*
X0228104Y0049829D01*
X0226274Y0049071D01*
X0224872Y0047670D01*
X0224114Y0045839D01*
X0224114Y0043857D01*
X0224872Y0042026D01*
X0226274Y0040625D01*
X0228104Y0039867D01*
X0230086Y0039867D01*
X0231917Y0040625D01*
X0233318Y0042026D01*
X0232610Y0041318D02*
X0244081Y0041318D01*
X0244774Y0039071D02*
X0243372Y0037670D01*
X0242614Y0035839D01*
X0242614Y0033857D01*
X0243372Y0032026D01*
X0244774Y0030625D01*
X0246604Y0029867D01*
X0248586Y0029867D01*
X0250417Y0030625D01*
X0251818Y0032026D01*
X0252576Y0033857D01*
X0252576Y0035839D01*
X0251818Y0037670D01*
X0250417Y0039071D01*
X0248586Y0039829D01*
X0246604Y0039829D01*
X0244774Y0039071D01*
X0243824Y0038121D02*
X0232866Y0038121D01*
X0233318Y0037670D02*
X0231917Y0039071D01*
X0230086Y0039829D01*
X0228104Y0039829D01*
X0226274Y0039071D01*
X0224872Y0037670D01*
X0224114Y0035839D01*
X0224114Y0033857D01*
X0224872Y0032026D01*
X0226274Y0030625D01*
X0228104Y0029867D01*
X0230086Y0029867D01*
X0231917Y0030625D01*
X0233318Y0032026D01*
X0234076Y0033857D01*
X0234076Y0035839D01*
X0233318Y0037670D01*
X0233793Y0036523D02*
X0242897Y0036523D01*
X0242614Y0034924D02*
X0234076Y0034924D01*
X0233856Y0033326D02*
X0242834Y0033326D01*
X0243672Y0031727D02*
X0233019Y0031727D01*
X0230718Y0030129D02*
X0245972Y0030129D01*
X0246521Y0029322D02*
X0245834Y0029099D01*
X0245191Y0028772D01*
X0244607Y0028347D01*
X0244096Y0027837D01*
X0243672Y0027252D01*
X0243344Y0026609D01*
X0243121Y0025922D01*
X0243008Y0025209D01*
X0243008Y0025048D01*
X0247395Y0025048D01*
X0247395Y0024648D01*
X0243008Y0024648D01*
X0243008Y0024487D01*
X0243121Y0023774D01*
X0243344Y0023087D01*
X0243672Y0022444D01*
X0244096Y0021860D01*
X0244607Y0021349D01*
X0245191Y0020925D01*
X0245834Y0020597D01*
X0246521Y0020374D01*
X0247234Y0020261D01*
X0247395Y0020261D01*
X0247395Y0024648D01*
X0247795Y0024648D01*
X0247795Y0020261D01*
X0247956Y0020261D01*
X0248669Y0020374D01*
X0249356Y0020597D01*
X0249999Y0020925D01*
X0250584Y0021349D01*
X0251094Y0021860D01*
X0251519Y0022444D01*
X0251846Y0023087D01*
X0252070Y0023774D01*
X0252183Y0024487D01*
X0252183Y0024648D01*
X0247795Y0024648D01*
X0247795Y0025048D01*
X0247395Y0025048D01*
X0247395Y0029435D01*
X0247234Y0029435D01*
X0246521Y0029322D01*
X0247395Y0028530D02*
X0247795Y0028530D01*
X0247795Y0029435D02*
X0247795Y0025048D01*
X0252183Y0025048D01*
X0252183Y0025209D01*
X0252070Y0025922D01*
X0251846Y0026609D01*
X0251519Y0027252D01*
X0251094Y0027837D01*
X0250584Y0028347D01*
X0249999Y0028772D01*
X0249356Y0029099D01*
X0248669Y0029322D01*
X0247956Y0029435D01*
X0247795Y0029435D01*
X0249218Y0030129D02*
X0255972Y0030129D01*
X0256604Y0029867D02*
X0258586Y0029867D01*
X0260417Y0030625D01*
X0261818Y0032026D01*
X0262066Y0032626D01*
X0262692Y0032000D01*
X0263927Y0031489D01*
X0265263Y0031489D01*
X0266498Y0032000D01*
X0267443Y0032945D01*
X0267954Y0034180D01*
X0267954Y0035516D01*
X0267443Y0036751D01*
X0266498Y0037696D01*
X0265263Y0038207D01*
X0263927Y0038207D01*
X0262692Y0037696D01*
X0262066Y0037070D01*
X0261818Y0037670D01*
X0260417Y0039071D01*
X0258586Y0039829D01*
X0256604Y0039829D01*
X0254774Y0039071D01*
X0253372Y0037670D01*
X0252614Y0035839D01*
X0252614Y0033857D01*
X0253372Y0032026D01*
X0254774Y0030625D01*
X0256604Y0029867D01*
X0256604Y0029829D02*
X0254774Y0029071D01*
X0253372Y0027670D01*
X0252614Y0025839D01*
X0252614Y0023857D01*
X0253372Y0022026D01*
X0254774Y0020625D01*
X0256604Y0019867D01*
X0258586Y0019867D01*
X0260417Y0020625D01*
X0261818Y0022026D01*
X0262576Y0023857D01*
X0262576Y0025839D01*
X0261818Y0027670D01*
X0260417Y0029071D01*
X0258586Y0029829D01*
X0256604Y0029829D01*
X0259218Y0030129D02*
X0266236Y0030129D01*
X0266236Y0030516D02*
X0266236Y0029180D01*
X0266747Y0027945D01*
X0267692Y0027000D01*
X0268927Y0026489D01*
X0270263Y0026489D01*
X0271498Y0027000D01*
X0272443Y0027945D01*
X0272954Y0029180D01*
X0272954Y0030516D01*
X0272443Y0031751D01*
X0271498Y0032696D01*
X0270263Y0033207D01*
X0268927Y0033207D01*
X0267692Y0032696D01*
X0266747Y0031751D01*
X0266236Y0030516D01*
X0265838Y0031727D02*
X0266738Y0031727D01*
X0267600Y0033326D02*
X0318736Y0033326D01*
X0318736Y0032680D02*
X0319247Y0031445D01*
X0320192Y0030500D01*
X0321427Y0029989D01*
X0321486Y0029989D01*
X0320747Y0029251D01*
X0320492Y0028633D01*
X0320443Y0028751D01*
X0319498Y0029696D01*
X0318263Y0030207D01*
X0316927Y0030207D01*
X0315692Y0029696D01*
X0314747Y0028751D01*
X0314236Y0027516D01*
X0314236Y0026180D01*
X0314747Y0024945D01*
X0315692Y0024000D01*
X0316927Y0023489D01*
X0318263Y0023489D01*
X0319498Y0024000D01*
X0320443Y0024945D01*
X0320699Y0025563D01*
X0320747Y0025445D01*
X0321692Y0024500D01*
X0322927Y0023989D01*
X0324263Y0023989D01*
X0325498Y0024500D01*
X0326443Y0025445D01*
X0326954Y0026680D01*
X0326954Y0026989D01*
X0327263Y0026989D01*
X0328498Y0027500D01*
X0329443Y0028445D01*
X0329954Y0029680D01*
X0329954Y0029989D01*
X0330763Y0029989D01*
X0331998Y0030500D01*
X0332943Y0031445D01*
X0333454Y0032680D01*
X0333454Y0034016D01*
X0332943Y0035251D01*
X0331998Y0036196D01*
X0330763Y0036707D01*
X0329427Y0036707D01*
X0328192Y0036196D01*
X0327247Y0035251D01*
X0326736Y0034016D01*
X0326736Y0033707D01*
X0325927Y0033707D01*
X0325454Y0033511D01*
X0325454Y0034016D01*
X0324943Y0035251D01*
X0323998Y0036196D01*
X0322763Y0036707D01*
X0321427Y0036707D01*
X0320192Y0036196D01*
X0319247Y0035251D01*
X0318736Y0034016D01*
X0318736Y0032680D01*
X0319131Y0031727D02*
X0312953Y0031727D01*
X0312943Y0031751D02*
X0311998Y0032696D01*
X0310763Y0033207D01*
X0309427Y0033207D01*
X0308192Y0032696D01*
X0307247Y0031751D01*
X0306736Y0030516D01*
X0306736Y0029180D01*
X0307247Y0027945D01*
X0308192Y0027000D01*
X0309427Y0026489D01*
X0310763Y0026489D01*
X0311998Y0027000D01*
X0312943Y0027945D01*
X0313454Y0029180D01*
X0313454Y0030516D01*
X0312943Y0031751D01*
X0313454Y0030129D02*
X0316738Y0030129D01*
X0318453Y0030129D02*
X0321090Y0030129D01*
X0314656Y0028530D02*
X0313185Y0028530D01*
X0314236Y0026932D02*
X0311832Y0026932D01*
X0314587Y0025333D02*
X0289331Y0025333D01*
X0289443Y0025445D02*
X0289954Y0026680D01*
X0289954Y0028016D01*
X0289443Y0029251D01*
X0288498Y0030196D01*
X0287263Y0030707D01*
X0285927Y0030707D01*
X0284692Y0030196D01*
X0283747Y0029251D01*
X0283236Y0028016D01*
X0283236Y0026680D01*
X0283747Y0025445D01*
X0284692Y0024500D01*
X0285927Y0023989D01*
X0287263Y0023989D01*
X0288498Y0024500D01*
X0289443Y0025445D01*
X0289954Y0026932D02*
X0308358Y0026932D01*
X0307005Y0028530D02*
X0289741Y0028530D01*
X0288565Y0030129D02*
X0306736Y0030129D01*
X0307238Y0031727D02*
X0272453Y0031727D01*
X0272954Y0030129D02*
X0284625Y0030129D01*
X0283449Y0028530D02*
X0272685Y0028530D01*
X0271332Y0026932D02*
X0283236Y0026932D01*
X0283860Y0025333D02*
X0262576Y0025333D01*
X0262525Y0023735D02*
X0316334Y0023735D01*
X0318856Y0023735D02*
X0347566Y0023735D01*
X0347635Y0023666D02*
X0349231Y0023005D01*
X0349252Y0023005D01*
X0349252Y0022484D01*
X0349913Y0020888D01*
X0351135Y0019666D01*
X0352731Y0019005D01*
X0354459Y0019005D01*
X0356055Y0019666D01*
X0357277Y0020888D01*
X0357938Y0022484D01*
X0357938Y0024212D01*
X0357277Y0025808D01*
X0356055Y0027030D01*
X0354459Y0027691D01*
X0354438Y0027691D01*
X0354438Y0028212D01*
X0353777Y0029808D01*
X0352555Y0031030D01*
X0350959Y0031691D01*
X0349231Y0031691D01*
X0347635Y0031030D01*
X0346413Y0029808D01*
X0345752Y0028212D01*
X0345752Y0026484D01*
X0346413Y0024888D01*
X0347635Y0023666D01*
X0346229Y0025333D02*
X0326331Y0025333D01*
X0326954Y0026932D02*
X0345752Y0026932D01*
X0345884Y0028530D02*
X0329478Y0028530D01*
X0331101Y0030129D02*
X0346733Y0030129D01*
X0353457Y0030129D02*
X0393252Y0030129D01*
X0393252Y0030212D02*
X0393252Y0028484D01*
X0393913Y0026888D01*
X0395135Y0025666D01*
X0396731Y0025005D01*
X0398459Y0025005D01*
X0400055Y0025666D01*
X0401277Y0026888D01*
X0401938Y0028484D01*
X0401938Y0030212D01*
X0401277Y0031808D01*
X0400055Y0033030D01*
X0398459Y0033691D01*
X0396731Y0033691D01*
X0395135Y0033030D01*
X0393913Y0031808D01*
X0393252Y0030212D01*
X0393879Y0031727D02*
X0333060Y0031727D01*
X0333454Y0033326D02*
X0395849Y0033326D01*
X0399342Y0033326D02*
X0410732Y0033326D01*
X0410732Y0034924D02*
X0333078Y0034924D01*
X0331208Y0036523D02*
X0410732Y0036523D01*
X0410732Y0038121D02*
X0278454Y0038121D01*
X0278454Y0038516D02*
X0277943Y0039751D01*
X0276998Y0040696D01*
X0275763Y0041207D01*
X0275454Y0041207D01*
X0275454Y0042016D01*
X0274943Y0043251D01*
X0273998Y0044196D01*
X0272763Y0044707D01*
X0271427Y0044707D01*
X0270192Y0044196D01*
X0269247Y0043251D01*
X0268736Y0042016D01*
X0268736Y0040680D01*
X0269247Y0039445D01*
X0270192Y0038500D01*
X0271427Y0037989D01*
X0271736Y0037989D01*
X0271736Y0037180D01*
X0272247Y0035945D01*
X0273192Y0035000D01*
X0274427Y0034489D01*
X0275763Y0034489D01*
X0276998Y0035000D01*
X0277943Y0035945D01*
X0278454Y0037180D01*
X0278454Y0038516D01*
X0277956Y0039720D02*
X0410732Y0039720D01*
X0410732Y0041318D02*
X0325816Y0041318D01*
X0325943Y0041445D02*
X0326454Y0042680D01*
X0326454Y0044016D01*
X0325943Y0045251D01*
X0324998Y0046196D01*
X0323763Y0046707D01*
X0322427Y0046707D01*
X0321192Y0046196D01*
X0320678Y0045682D01*
X0320443Y0046251D01*
X0319498Y0047196D01*
X0318263Y0047707D01*
X0316927Y0047707D01*
X0315692Y0047196D01*
X0314747Y0046251D01*
X0314236Y0045016D01*
X0314236Y0043680D01*
X0314747Y0042445D01*
X0315692Y0041500D01*
X0316927Y0040989D01*
X0318263Y0040989D01*
X0319498Y0041500D01*
X0320012Y0042014D01*
X0320247Y0041445D01*
X0321192Y0040500D01*
X0322427Y0039989D01*
X0323763Y0039989D01*
X0324998Y0040500D01*
X0325943Y0041445D01*
X0326454Y0042917D02*
X0410732Y0042917D01*
X0410732Y0044515D02*
X0372405Y0044515D01*
X0372055Y0044166D02*
X0373277Y0045388D01*
X0373938Y0046984D01*
X0373938Y0048712D01*
X0373277Y0050308D01*
X0372055Y0051530D01*
X0370459Y0052191D01*
X0368731Y0052191D01*
X0367135Y0051530D01*
X0365913Y0050308D01*
X0365252Y0048712D01*
X0365252Y0046984D01*
X0365913Y0045388D01*
X0367135Y0044166D01*
X0368731Y0043505D01*
X0370459Y0043505D01*
X0372055Y0044166D01*
X0373578Y0046114D02*
X0383367Y0046114D01*
X0383465Y0046073D02*
X0384302Y0045849D01*
X0384795Y0045784D01*
X0384795Y0051548D01*
X0379031Y0051548D01*
X0379096Y0051055D01*
X0379320Y0050218D01*
X0379652Y0049417D01*
X0380085Y0048666D01*
X0380613Y0047979D01*
X0381226Y0047366D01*
X0381914Y0046838D01*
X0382664Y0046405D01*
X0383465Y0046073D01*
X0384795Y0046114D02*
X0386395Y0046114D01*
X0386395Y0045784D02*
X0386888Y0045849D01*
X0387725Y0046073D01*
X0388526Y0046405D01*
X0389277Y0046838D01*
X0389964Y0047366D01*
X0390577Y0047979D01*
X0391105Y0048666D01*
X0391538Y0049417D01*
X0391870Y0050218D01*
X0392094Y0051055D01*
X0392159Y0051548D01*
X0386395Y0051548D01*
X0386395Y0045784D01*
X0387823Y0046114D02*
X0403367Y0046114D01*
X0404795Y0046114D02*
X0406395Y0046114D01*
X0407823Y0046114D02*
X0410732Y0046114D01*
X0410732Y0047712D02*
X0410311Y0047712D01*
X0406395Y0047712D02*
X0404795Y0047712D01*
X0404795Y0049311D02*
X0406395Y0049311D01*
X0406395Y0050909D02*
X0404795Y0050909D01*
X0404795Y0052508D02*
X0386395Y0052508D01*
X0386395Y0053148D02*
X0392159Y0053148D01*
X0392094Y0053641D01*
X0391870Y0054478D01*
X0391538Y0055279D01*
X0391105Y0056030D01*
X0390577Y0056717D01*
X0389964Y0057330D01*
X0389277Y0057858D01*
X0388526Y0058291D01*
X0387725Y0058623D01*
X0386888Y0058847D01*
X0386395Y0058912D01*
X0386395Y0053148D01*
X0384795Y0053148D01*
X0384795Y0051548D01*
X0386395Y0051548D01*
X0386395Y0053148D01*
X0386395Y0054106D02*
X0384795Y0054106D01*
X0384795Y0053148D02*
X0384795Y0058912D01*
X0384302Y0058847D01*
X0383465Y0058623D01*
X0382664Y0058291D01*
X0381914Y0057858D01*
X0381226Y0057330D01*
X0380613Y0056717D01*
X0380085Y0056030D01*
X0379652Y0055279D01*
X0379320Y0054478D01*
X0379096Y0053641D01*
X0379031Y0053148D01*
X0384795Y0053148D01*
X0384795Y0052508D02*
X0363676Y0052508D01*
X0363443Y0051945D02*
X0363954Y0053180D01*
X0363954Y0054516D01*
X0363443Y0055751D01*
X0363346Y0055848D01*
X0363443Y0055945D01*
X0363954Y0057180D01*
X0363954Y0058516D01*
X0363443Y0059751D01*
X0362498Y0060696D01*
X0361263Y0061207D01*
X0359927Y0061207D01*
X0358692Y0060696D01*
X0357747Y0059751D01*
X0357236Y0058516D01*
X0357236Y0057180D01*
X0357747Y0055945D01*
X0357845Y0055848D01*
X0357747Y0055751D01*
X0357236Y0054516D01*
X0357236Y0053180D01*
X0357747Y0051945D01*
X0358692Y0051000D01*
X0359927Y0050489D01*
X0361263Y0050489D01*
X0362498Y0051000D01*
X0363443Y0051945D01*
X0362278Y0050909D02*
X0366514Y0050909D01*
X0365500Y0049311D02*
X0344808Y0049311D01*
X0344943Y0049445D02*
X0345454Y0050680D01*
X0345454Y0052016D01*
X0344943Y0053251D01*
X0343998Y0054196D01*
X0342763Y0054707D01*
X0341427Y0054707D01*
X0340192Y0054196D01*
X0339247Y0053251D01*
X0339022Y0052707D01*
X0337927Y0052707D01*
X0336692Y0052196D01*
X0335747Y0051251D01*
X0335236Y0050016D01*
X0335236Y0048680D01*
X0335747Y0047445D01*
X0336692Y0046500D01*
X0337927Y0045989D01*
X0339263Y0045989D01*
X0340498Y0046500D01*
X0341443Y0047445D01*
X0341668Y0047989D01*
X0342763Y0047989D01*
X0343998Y0048500D01*
X0344943Y0049445D01*
X0345454Y0050909D02*
X0358912Y0050909D01*
X0357514Y0052508D02*
X0345251Y0052508D01*
X0344087Y0054106D02*
X0357236Y0054106D01*
X0357728Y0055705D02*
X0330757Y0055705D01*
X0330954Y0056180D02*
X0330954Y0057516D01*
X0330443Y0058751D01*
X0329498Y0059696D01*
X0328263Y0060207D01*
X0326927Y0060207D01*
X0325692Y0059696D01*
X0324747Y0058751D01*
X0324236Y0057516D01*
X0324236Y0056180D01*
X0324747Y0054945D01*
X0325345Y0054348D01*
X0325247Y0054251D01*
X0324736Y0053016D01*
X0324736Y0051680D01*
X0325247Y0050445D01*
X0326192Y0049500D01*
X0327427Y0048989D01*
X0328763Y0048989D01*
X0329998Y0049500D01*
X0330943Y0050445D01*
X0331454Y0051680D01*
X0331454Y0053016D01*
X0330943Y0054251D01*
X0330346Y0054848D01*
X0330443Y0054945D01*
X0330954Y0056180D01*
X0330954Y0057303D02*
X0357236Y0057303D01*
X0357396Y0058902D02*
X0330292Y0058902D01*
X0324899Y0058902D02*
X0260586Y0058902D01*
X0260417Y0059071D02*
X0258586Y0059829D01*
X0256604Y0059829D01*
X0254774Y0059071D01*
X0253372Y0057670D01*
X0252614Y0055839D01*
X0252614Y0053857D01*
X0253372Y0052026D01*
X0254774Y0050625D01*
X0256604Y0049867D01*
X0258586Y0049867D01*
X0260417Y0050625D01*
X0261818Y0052026D01*
X0262576Y0053857D01*
X0262576Y0055839D01*
X0261818Y0057670D01*
X0260417Y0059071D01*
X0260115Y0060500D02*
X0264717Y0060500D01*
X0265227Y0060289D02*
X0266563Y0060289D01*
X0267798Y0060800D01*
X0268743Y0061745D01*
X0269254Y0062980D01*
X0269254Y0064316D01*
X0268743Y0065551D01*
X0267798Y0066496D01*
X0267439Y0066644D01*
X0267454Y0066680D01*
X0267454Y0067568D01*
X0268498Y0068000D01*
X0269443Y0068945D01*
X0269954Y0070180D01*
X0269954Y0071516D01*
X0269443Y0072751D01*
X0268498Y0073696D01*
X0267263Y0074207D01*
X0265927Y0074207D01*
X0264692Y0073696D01*
X0263747Y0072751D01*
X0263236Y0071516D01*
X0263236Y0070628D01*
X0262192Y0070196D01*
X0261247Y0069251D01*
X0260951Y0068536D01*
X0260417Y0069071D01*
X0258586Y0069829D01*
X0256604Y0069829D01*
X0254774Y0069071D01*
X0253372Y0067670D01*
X0252614Y0065839D01*
X0252614Y0063857D01*
X0253372Y0062026D01*
X0254774Y0060625D01*
X0256604Y0059867D01*
X0258586Y0059867D01*
X0260417Y0060625D01*
X0261818Y0062026D01*
X0262536Y0063760D01*
X0262536Y0062980D01*
X0263047Y0061745D01*
X0263992Y0060800D01*
X0265227Y0060289D01*
X0267074Y0060500D02*
X0358497Y0060500D01*
X0362693Y0060500D02*
X0388361Y0060500D01*
X0388205Y0060878D02*
X0389330Y0058162D01*
X0391409Y0056083D01*
X0394125Y0054958D01*
X0397065Y0054958D01*
X0399781Y0056083D01*
X0401860Y0058162D01*
X0402985Y0060878D01*
X0402985Y0063818D01*
X0401860Y0066534D01*
X0399781Y0068613D01*
X0397065Y0069738D01*
X0394125Y0069738D01*
X0391409Y0068613D01*
X0389330Y0066534D01*
X0388205Y0063818D01*
X0388205Y0060878D01*
X0388205Y0062099D02*
X0268889Y0062099D01*
X0269254Y0063697D02*
X0285995Y0063697D01*
X0286192Y0063500D02*
X0285247Y0064445D01*
X0284736Y0065680D01*
X0284736Y0067016D01*
X0285247Y0068251D01*
X0286192Y0069196D01*
X0287427Y0069707D01*
X0288763Y0069707D01*
X0289998Y0069196D01*
X0290943Y0068251D01*
X0291454Y0067016D01*
X0291454Y0065680D01*
X0290943Y0064445D01*
X0289998Y0063500D01*
X0288763Y0062989D01*
X0287427Y0062989D01*
X0286192Y0063500D01*
X0284895Y0065296D02*
X0268848Y0065296D01*
X0267454Y0066894D02*
X0284736Y0066894D01*
X0285490Y0068493D02*
X0268990Y0068493D01*
X0269918Y0070091D02*
X0303640Y0070091D01*
X0303640Y0068493D02*
X0290701Y0068493D01*
X0291454Y0066894D02*
X0304253Y0066894D01*
X0304255Y0066893D02*
X0305125Y0066893D01*
X0316936Y0066893D01*
X0317551Y0067508D01*
X0317551Y0080188D01*
X0316936Y0080804D01*
X0304255Y0080804D01*
X0303640Y0080188D01*
X0303640Y0067508D01*
X0304255Y0066893D01*
X0303640Y0071690D02*
X0269882Y0071690D01*
X0268905Y0073288D02*
X0303640Y0073288D01*
X0303640Y0074887D02*
X0297885Y0074887D01*
X0297943Y0074945D02*
X0296998Y0074000D01*
X0295763Y0073489D01*
X0294427Y0073489D01*
X0293192Y0074000D01*
X0292247Y0074945D01*
X0291736Y0076180D01*
X0291736Y0077516D01*
X0292247Y0078751D01*
X0293192Y0079696D01*
X0294427Y0080207D01*
X0295763Y0080207D01*
X0296998Y0079696D01*
X0297943Y0078751D01*
X0298454Y0077516D01*
X0298454Y0076180D01*
X0297943Y0074945D01*
X0298454Y0076486D02*
X0303640Y0076486D01*
X0303640Y0078084D02*
X0298219Y0078084D01*
X0297011Y0079683D02*
X0303640Y0079683D01*
X0293179Y0079683D02*
X0269954Y0079683D01*
X0269954Y0079680D02*
X0269954Y0081016D01*
X0269443Y0082251D01*
X0269346Y0082348D01*
X0269443Y0082445D01*
X0269954Y0083680D01*
X0269954Y0085016D01*
X0269443Y0086251D01*
X0269346Y0086348D01*
X0269443Y0086445D01*
X0269954Y0087680D01*
X0269954Y0089016D01*
X0269443Y0090251D01*
X0268498Y0091196D01*
X0267263Y0091707D01*
X0266954Y0091707D01*
X0266954Y0092016D01*
X0266443Y0093251D01*
X0265705Y0093989D01*
X0266763Y0093989D01*
X0267998Y0094500D01*
X0268943Y0095445D01*
X0269454Y0096680D01*
X0269454Y0098016D01*
X0268943Y0099251D01*
X0267998Y0100196D01*
X0266763Y0100707D01*
X0265427Y0100707D01*
X0264192Y0100196D01*
X0263247Y0099251D01*
X0262736Y0098016D01*
X0262736Y0096680D01*
X0263247Y0095445D01*
X0263986Y0094707D01*
X0262927Y0094707D01*
X0261692Y0094196D01*
X0260747Y0093251D01*
X0260236Y0092016D01*
X0260236Y0090680D01*
X0260747Y0089445D01*
X0261692Y0088500D01*
X0262927Y0087989D01*
X0263236Y0087989D01*
X0263236Y0087680D01*
X0263747Y0086445D01*
X0263845Y0086348D01*
X0263747Y0086251D01*
X0263236Y0085016D01*
X0263236Y0083680D01*
X0263747Y0082445D01*
X0263845Y0082348D01*
X0263747Y0082251D01*
X0263236Y0081016D01*
X0263236Y0079680D01*
X0263747Y0078445D01*
X0264692Y0077500D01*
X0265927Y0076989D01*
X0267263Y0076989D01*
X0268498Y0077500D01*
X0269443Y0078445D01*
X0269954Y0079680D01*
X0269844Y0081281D02*
X0324222Y0081281D01*
X0323692Y0081500D02*
X0324927Y0080989D01*
X0326263Y0080989D01*
X0327498Y0081500D01*
X0328443Y0082445D01*
X0328954Y0083680D01*
X0328954Y0085016D01*
X0328443Y0086251D01*
X0327498Y0087196D01*
X0326263Y0087707D01*
X0324927Y0087707D01*
X0323692Y0087196D01*
X0322747Y0086251D01*
X0322236Y0085016D01*
X0322236Y0083680D01*
X0322747Y0082445D01*
X0323692Y0081500D01*
X0322568Y0082880D02*
X0269623Y0082880D01*
X0269954Y0084478D02*
X0322236Y0084478D01*
X0322675Y0086077D02*
X0269515Y0086077D01*
X0269952Y0087675D02*
X0324850Y0087675D01*
X0326341Y0087675D02*
X0361716Y0087675D01*
X0361747Y0087751D02*
X0361236Y0086516D01*
X0361236Y0085180D01*
X0361747Y0083945D01*
X0362692Y0083000D01*
X0363927Y0082489D01*
X0365263Y0082489D01*
X0366498Y0083000D01*
X0367443Y0083945D01*
X0367954Y0085180D01*
X0367954Y0086516D01*
X0367443Y0087751D01*
X0366498Y0088696D01*
X0365263Y0089207D01*
X0363927Y0089207D01*
X0362692Y0088696D01*
X0361747Y0087751D01*
X0361236Y0086077D02*
X0353578Y0086077D01*
X0353263Y0086207D02*
X0351927Y0086207D01*
X0350692Y0085696D01*
X0349747Y0084751D01*
X0349236Y0083516D01*
X0349236Y0082180D01*
X0349747Y0080945D01*
X0350692Y0080000D01*
X0351927Y0079489D01*
X0353263Y0079489D01*
X0354498Y0080000D01*
X0355443Y0080945D01*
X0355954Y0082180D01*
X0355954Y0083516D01*
X0355443Y0084751D01*
X0354498Y0085696D01*
X0353263Y0086207D01*
X0351612Y0086077D02*
X0328515Y0086077D01*
X0328954Y0084478D02*
X0349635Y0084478D01*
X0349236Y0082880D02*
X0328623Y0082880D01*
X0326968Y0081281D02*
X0349608Y0081281D01*
X0351460Y0079683D02*
X0328323Y0079683D01*
X0328263Y0079707D02*
X0326927Y0079707D01*
X0325692Y0079196D01*
X0324747Y0078251D01*
X0324236Y0077016D01*
X0324236Y0075680D01*
X0324747Y0074445D01*
X0325692Y0073500D01*
X0326927Y0072989D01*
X0328263Y0072989D01*
X0329498Y0073500D01*
X0330443Y0074445D01*
X0330954Y0075680D01*
X0330954Y0077016D01*
X0330443Y0078251D01*
X0329498Y0079196D01*
X0328263Y0079707D01*
X0326868Y0079683D02*
X0317551Y0079683D01*
X0317551Y0078084D02*
X0324678Y0078084D01*
X0324236Y0076486D02*
X0317551Y0076486D01*
X0317551Y0074887D02*
X0324564Y0074887D01*
X0326204Y0073288D02*
X0317551Y0073288D01*
X0317551Y0071690D02*
X0325687Y0071690D01*
X0325692Y0071696D02*
X0324747Y0070751D01*
X0324236Y0069516D01*
X0324236Y0068180D01*
X0324747Y0066945D01*
X0325692Y0066000D01*
X0326927Y0065489D01*
X0328263Y0065489D01*
X0329498Y0066000D01*
X0330443Y0066945D01*
X0330954Y0068180D01*
X0330954Y0069516D01*
X0330443Y0070751D01*
X0329498Y0071696D01*
X0328263Y0072207D01*
X0326927Y0072207D01*
X0325692Y0071696D01*
X0324474Y0070091D02*
X0317551Y0070091D01*
X0317551Y0068493D02*
X0324236Y0068493D01*
X0324798Y0066894D02*
X0316937Y0066894D01*
X0329504Y0071690D02*
X0384795Y0071690D01*
X0384795Y0071548D02*
X0379031Y0071548D01*
X0379096Y0071055D01*
X0379320Y0070218D01*
X0379652Y0069417D01*
X0380085Y0068666D01*
X0380613Y0067979D01*
X0381226Y0067366D01*
X0381914Y0066838D01*
X0382664Y0066405D01*
X0383465Y0066073D01*
X0384302Y0065849D01*
X0384795Y0065784D01*
X0384795Y0071548D01*
X0384795Y0073148D01*
X0379031Y0073148D01*
X0379096Y0073641D01*
X0379320Y0074478D01*
X0379652Y0075279D01*
X0380085Y0076030D01*
X0380613Y0076717D01*
X0381226Y0077330D01*
X0381914Y0077858D01*
X0382664Y0078291D01*
X0383465Y0078623D01*
X0384302Y0078847D01*
X0384795Y0078912D01*
X0384795Y0073148D01*
X0386395Y0073148D01*
X0386395Y0078912D01*
X0386888Y0078847D01*
X0387725Y0078623D01*
X0388526Y0078291D01*
X0389277Y0077858D01*
X0389964Y0077330D01*
X0390577Y0076717D01*
X0391105Y0076030D01*
X0391538Y0075279D01*
X0391870Y0074478D01*
X0392094Y0073641D01*
X0392159Y0073148D01*
X0386395Y0073148D01*
X0386395Y0071548D01*
X0386395Y0065784D01*
X0386888Y0065849D01*
X0387725Y0066073D01*
X0388526Y0066405D01*
X0389277Y0066838D01*
X0389964Y0067366D01*
X0390577Y0067979D01*
X0391105Y0068666D01*
X0391538Y0069417D01*
X0391870Y0070218D01*
X0392094Y0071055D01*
X0392159Y0071548D01*
X0386395Y0071548D01*
X0384795Y0071548D01*
X0384795Y0070091D02*
X0386395Y0070091D01*
X0386395Y0068493D02*
X0384795Y0068493D01*
X0384795Y0066894D02*
X0386395Y0066894D01*
X0388817Y0065296D02*
X0291295Y0065296D01*
X0290195Y0063697D02*
X0388205Y0063697D01*
X0389350Y0066894D02*
X0389690Y0066894D01*
X0390972Y0068493D02*
X0391289Y0068493D01*
X0391818Y0070091D02*
X0399373Y0070091D01*
X0399902Y0068493D02*
X0400218Y0068493D01*
X0401500Y0066894D02*
X0401840Y0066894D01*
X0402373Y0065296D02*
X0410732Y0065296D01*
X0410732Y0066894D02*
X0409350Y0066894D01*
X0406395Y0066894D02*
X0404795Y0066894D01*
X0404795Y0068493D02*
X0406395Y0068493D01*
X0406395Y0070091D02*
X0404795Y0070091D01*
X0404795Y0071690D02*
X0386395Y0071690D01*
X0386395Y0073288D02*
X0384795Y0073288D01*
X0384795Y0074887D02*
X0386395Y0074887D01*
X0386395Y0076486D02*
X0384795Y0076486D01*
X0384795Y0078084D02*
X0386395Y0078084D01*
X0388885Y0078084D02*
X0402305Y0078084D01*
X0402664Y0078291D02*
X0401914Y0077858D01*
X0401226Y0077330D01*
X0400613Y0076717D01*
X0400085Y0076030D01*
X0399652Y0075279D01*
X0399320Y0074478D01*
X0399096Y0073641D01*
X0399031Y0073148D01*
X0404795Y0073148D01*
X0404795Y0078912D01*
X0404302Y0078847D01*
X0403465Y0078623D01*
X0402664Y0078291D01*
X0404795Y0078084D02*
X0406395Y0078084D01*
X0406395Y0076486D02*
X0404795Y0076486D01*
X0404795Y0074887D02*
X0406395Y0074887D01*
X0406395Y0073288D02*
X0404795Y0073288D01*
X0400435Y0076486D02*
X0390755Y0076486D01*
X0391701Y0074887D02*
X0399490Y0074887D01*
X0399049Y0073288D02*
X0392141Y0073288D01*
X0394731Y0078505D02*
X0393135Y0079166D01*
X0391913Y0080388D01*
X0391252Y0081984D01*
X0391252Y0083712D01*
X0391781Y0084989D01*
X0391687Y0084989D01*
X0390452Y0085500D01*
X0389507Y0086445D01*
X0388996Y0087680D01*
X0388996Y0089016D01*
X0389507Y0090251D01*
X0390452Y0091196D01*
X0391687Y0091707D01*
X0393023Y0091707D01*
X0394258Y0091196D01*
X0395203Y0090251D01*
X0395714Y0089016D01*
X0395714Y0087680D01*
X0395512Y0087191D01*
X0396459Y0087191D01*
X0398055Y0086530D01*
X0399277Y0085308D01*
X0399938Y0083712D01*
X0399938Y0081984D01*
X0399277Y0080388D01*
X0398055Y0079166D01*
X0396459Y0078505D01*
X0394731Y0078505D01*
X0392618Y0079683D02*
X0353731Y0079683D01*
X0355582Y0081281D02*
X0391543Y0081281D01*
X0391252Y0082880D02*
X0366206Y0082880D01*
X0367663Y0084478D02*
X0391569Y0084478D01*
X0389876Y0086077D02*
X0367954Y0086077D01*
X0367474Y0087675D02*
X0388998Y0087675D01*
X0389103Y0089274D02*
X0269848Y0089274D01*
X0268821Y0090872D02*
X0349821Y0090872D01*
X0349747Y0090945D02*
X0350692Y0090000D01*
X0351927Y0089489D01*
X0353263Y0089489D01*
X0354498Y0090000D01*
X0355443Y0090945D01*
X0355954Y0092180D01*
X0355954Y0093516D01*
X0355443Y0094751D01*
X0354498Y0095696D01*
X0353263Y0096207D01*
X0351927Y0096207D01*
X0350692Y0095696D01*
X0349747Y0094751D01*
X0349236Y0093516D01*
X0349236Y0092180D01*
X0349747Y0090945D01*
X0349236Y0092471D02*
X0324453Y0092471D01*
X0324443Y0092445D02*
X0324954Y0093680D01*
X0324954Y0095016D01*
X0324443Y0096251D01*
X0323498Y0097196D01*
X0322263Y0097707D01*
X0320927Y0097707D01*
X0319692Y0097196D01*
X0318747Y0096251D01*
X0318236Y0095016D01*
X0318236Y0093680D01*
X0318747Y0092445D01*
X0319692Y0091500D01*
X0320927Y0090989D01*
X0322263Y0090989D01*
X0323498Y0091500D01*
X0324443Y0092445D01*
X0324954Y0094069D02*
X0349465Y0094069D01*
X0350664Y0095668D02*
X0324684Y0095668D01*
X0323328Y0097266D02*
X0410732Y0097266D01*
X0410732Y0095668D02*
X0354526Y0095668D01*
X0355725Y0094069D02*
X0410732Y0094069D01*
X0410732Y0092471D02*
X0355954Y0092471D01*
X0355370Y0090872D02*
X0390129Y0090872D01*
X0394581Y0090872D02*
X0410732Y0090872D01*
X0410732Y0089274D02*
X0395607Y0089274D01*
X0395712Y0087675D02*
X0410732Y0087675D01*
X0410732Y0086077D02*
X0398509Y0086077D01*
X0399621Y0084478D02*
X0410732Y0084478D01*
X0410732Y0082880D02*
X0399938Y0082880D01*
X0399647Y0081281D02*
X0410732Y0081281D01*
X0410732Y0079683D02*
X0398572Y0079683D01*
X0408885Y0078084D02*
X0410732Y0078084D01*
X0410732Y0063697D02*
X0402985Y0063697D01*
X0402985Y0062099D02*
X0410732Y0062099D01*
X0410732Y0060500D02*
X0402829Y0060500D01*
X0402167Y0058902D02*
X0404717Y0058902D01*
X0404795Y0058902D02*
X0406395Y0058902D01*
X0406473Y0058902D02*
X0410732Y0058902D01*
X0410732Y0057303D02*
X0409991Y0057303D01*
X0406395Y0057303D02*
X0404795Y0057303D01*
X0404795Y0055705D02*
X0406395Y0055705D01*
X0406395Y0054106D02*
X0404795Y0054106D01*
X0404795Y0053148D02*
X0404795Y0058912D01*
X0404302Y0058847D01*
X0403465Y0058623D01*
X0402664Y0058291D01*
X0401914Y0057858D01*
X0401226Y0057330D01*
X0400613Y0056717D01*
X0400085Y0056030D01*
X0399652Y0055279D01*
X0399320Y0054478D01*
X0399096Y0053641D01*
X0399031Y0053148D01*
X0404795Y0053148D01*
X0399898Y0055705D02*
X0398869Y0055705D01*
X0399221Y0054106D02*
X0391970Y0054106D01*
X0392321Y0055705D02*
X0391292Y0055705D01*
X0390188Y0057303D02*
X0389991Y0057303D01*
X0389023Y0058902D02*
X0386473Y0058902D01*
X0386395Y0058902D02*
X0384795Y0058902D01*
X0384717Y0058902D02*
X0363794Y0058902D01*
X0363954Y0057303D02*
X0381199Y0057303D01*
X0379898Y0055705D02*
X0363462Y0055705D01*
X0363954Y0054106D02*
X0379221Y0054106D01*
X0379135Y0050909D02*
X0372676Y0050909D01*
X0373690Y0049311D02*
X0379713Y0049311D01*
X0380880Y0047712D02*
X0373938Y0047712D01*
X0366786Y0044515D02*
X0326247Y0044515D01*
X0325080Y0046114D02*
X0337626Y0046114D01*
X0339565Y0046114D02*
X0365612Y0046114D01*
X0365252Y0047712D02*
X0341553Y0047712D01*
X0335637Y0047712D02*
X0296981Y0047712D01*
X0297443Y0047251D02*
X0296498Y0048196D01*
X0295263Y0048707D01*
X0293927Y0048707D01*
X0292692Y0048196D01*
X0291747Y0047251D01*
X0291522Y0046707D01*
X0290668Y0046707D01*
X0290532Y0047035D01*
X0290943Y0047445D01*
X0291454Y0048680D01*
X0291454Y0050016D01*
X0290943Y0051251D01*
X0289998Y0052196D01*
X0288763Y0052707D01*
X0287427Y0052707D01*
X0286192Y0052196D01*
X0285247Y0051251D01*
X0284736Y0050016D01*
X0284736Y0048680D01*
X0285070Y0047873D01*
X0284263Y0048207D01*
X0282927Y0048207D01*
X0281692Y0047696D01*
X0281454Y0047457D01*
X0281454Y0048016D01*
X0280943Y0049251D01*
X0279998Y0050196D01*
X0278763Y0050707D01*
X0277427Y0050707D01*
X0276192Y0050196D01*
X0275247Y0049251D01*
X0274736Y0048016D01*
X0274736Y0046680D01*
X0275247Y0045445D01*
X0276192Y0044500D01*
X0277427Y0043989D01*
X0278763Y0043989D01*
X0279998Y0044500D01*
X0280236Y0044739D01*
X0280236Y0044180D01*
X0280747Y0042945D01*
X0281692Y0042000D01*
X0282927Y0041489D01*
X0284263Y0041489D01*
X0285498Y0042000D01*
X0285908Y0042411D01*
X0286927Y0041989D01*
X0288022Y0041989D01*
X0288247Y0041445D01*
X0289192Y0040500D01*
X0290427Y0039989D01*
X0291763Y0039989D01*
X0292998Y0040500D01*
X0293943Y0041445D01*
X0294168Y0041989D01*
X0295022Y0041989D01*
X0295247Y0041445D01*
X0296192Y0040500D01*
X0297427Y0039989D01*
X0298763Y0039989D01*
X0299998Y0040500D01*
X0300943Y0041445D01*
X0301454Y0042680D01*
X0301454Y0044016D01*
X0300943Y0045251D01*
X0299998Y0046196D01*
X0298763Y0046707D01*
X0297668Y0046707D01*
X0297443Y0047251D01*
X0300080Y0046114D02*
X0302691Y0046114D01*
X0302747Y0046251D02*
X0302236Y0045016D01*
X0302236Y0043680D01*
X0302747Y0042445D01*
X0303692Y0041500D01*
X0304927Y0040989D01*
X0306263Y0040989D01*
X0307498Y0041500D01*
X0308443Y0042445D01*
X0308954Y0043680D01*
X0308954Y0045016D01*
X0308443Y0046251D01*
X0307498Y0047196D01*
X0306263Y0047707D01*
X0304927Y0047707D01*
X0303692Y0047196D01*
X0302747Y0046251D01*
X0302236Y0044515D02*
X0301247Y0044515D01*
X0301454Y0042917D02*
X0302552Y0042917D01*
X0304132Y0041318D02*
X0300816Y0041318D01*
X0295374Y0041318D02*
X0293816Y0041318D01*
X0288374Y0041318D02*
X0275454Y0041318D01*
X0275081Y0042917D02*
X0280776Y0042917D01*
X0280236Y0044515D02*
X0280013Y0044515D01*
X0276177Y0044515D02*
X0273226Y0044515D01*
X0270964Y0044515D02*
X0267179Y0044515D01*
X0266943Y0043945D02*
X0267454Y0045180D01*
X0267454Y0046516D01*
X0266943Y0047751D01*
X0265998Y0048696D01*
X0264763Y0049207D01*
X0263427Y0049207D01*
X0262192Y0048696D01*
X0261492Y0047995D01*
X0260417Y0049071D01*
X0258586Y0049829D01*
X0256604Y0049829D01*
X0254774Y0049071D01*
X0253372Y0047670D01*
X0252614Y0045839D01*
X0252614Y0043857D01*
X0253372Y0042026D01*
X0254774Y0040625D01*
X0256604Y0039867D01*
X0258586Y0039867D01*
X0260417Y0040625D01*
X0261818Y0042026D01*
X0262217Y0042990D01*
X0263427Y0042489D01*
X0264763Y0042489D01*
X0265998Y0043000D01*
X0266943Y0043945D01*
X0265796Y0042917D02*
X0269109Y0042917D01*
X0268736Y0041318D02*
X0261110Y0041318D01*
X0262187Y0042917D02*
X0262394Y0042917D01*
X0258850Y0039720D02*
X0269134Y0039720D01*
X0271108Y0038121D02*
X0265471Y0038121D01*
X0263720Y0038121D02*
X0261366Y0038121D01*
X0267537Y0036523D02*
X0272008Y0036523D01*
X0273376Y0034924D02*
X0267954Y0034924D01*
X0263352Y0031727D02*
X0261519Y0031727D01*
X0260957Y0028530D02*
X0266505Y0028530D01*
X0267858Y0026932D02*
X0262124Y0026932D01*
X0261863Y0022136D02*
X0308633Y0022136D01*
X0308692Y0022196D02*
X0307747Y0021251D01*
X0307236Y0020016D01*
X0307236Y0018680D01*
X0307747Y0017445D01*
X0308692Y0016500D01*
X0309927Y0015989D01*
X0311263Y0015989D01*
X0312498Y0016500D01*
X0313443Y0017445D01*
X0313954Y0018680D01*
X0313954Y0020016D01*
X0313443Y0021251D01*
X0312498Y0022196D01*
X0311263Y0022707D01*
X0309927Y0022707D01*
X0308692Y0022196D01*
X0307452Y0020538D02*
X0260205Y0020538D01*
X0254985Y0020538D02*
X0249174Y0020538D01*
X0247795Y0020538D02*
X0247395Y0020538D01*
X0246016Y0020538D02*
X0230674Y0020538D01*
X0230856Y0020597D02*
X0231499Y0020925D01*
X0232084Y0021349D01*
X0232594Y0021860D01*
X0233019Y0022444D01*
X0233346Y0023087D01*
X0233570Y0023774D01*
X0233683Y0024487D01*
X0233683Y0024648D01*
X0229295Y0024648D01*
X0229295Y0020261D01*
X0229456Y0020261D01*
X0230169Y0020374D01*
X0230856Y0020597D01*
X0229295Y0020538D02*
X0228895Y0020538D01*
X0228895Y0020261D02*
X0228895Y0024648D01*
X0224508Y0024648D01*
X0224508Y0024487D01*
X0224621Y0023774D01*
X0224844Y0023087D01*
X0225172Y0022444D01*
X0225596Y0021860D01*
X0226107Y0021349D01*
X0226691Y0020925D01*
X0227334Y0020597D01*
X0228021Y0020374D01*
X0228734Y0020261D01*
X0228895Y0020261D01*
X0227516Y0020538D02*
X0221705Y0020538D01*
X0223363Y0022136D02*
X0225395Y0022136D01*
X0224633Y0023735D02*
X0224025Y0023735D01*
X0224508Y0025048D02*
X0228895Y0025048D01*
X0228895Y0024648D01*
X0229295Y0024648D01*
X0229295Y0025048D01*
X0228895Y0025048D01*
X0228895Y0029435D01*
X0228734Y0029435D01*
X0228021Y0029322D01*
X0227334Y0029099D01*
X0226691Y0028772D01*
X0226107Y0028347D01*
X0225596Y0027837D01*
X0225172Y0027252D01*
X0224844Y0026609D01*
X0224621Y0025922D01*
X0224508Y0025209D01*
X0224508Y0025048D01*
X0224527Y0025333D02*
X0224076Y0025333D01*
X0223624Y0026932D02*
X0225008Y0026932D01*
X0226359Y0028530D02*
X0222457Y0028530D01*
X0220718Y0030129D02*
X0227472Y0030129D01*
X0229295Y0029435D02*
X0229295Y0025048D01*
X0233683Y0025048D01*
X0233683Y0025209D01*
X0233570Y0025922D01*
X0233346Y0026609D01*
X0233019Y0027252D01*
X0232594Y0027837D01*
X0232084Y0028347D01*
X0231499Y0028772D01*
X0230856Y0029099D01*
X0230169Y0029322D01*
X0229456Y0029435D01*
X0229295Y0029435D01*
X0229295Y0028530D02*
X0228895Y0028530D01*
X0228895Y0026932D02*
X0229295Y0026932D01*
X0229295Y0025333D02*
X0228895Y0025333D01*
X0228895Y0023735D02*
X0229295Y0023735D01*
X0229295Y0022136D02*
X0228895Y0022136D01*
X0232795Y0022136D02*
X0243895Y0022136D01*
X0243133Y0023735D02*
X0233557Y0023735D01*
X0233663Y0025333D02*
X0243027Y0025333D01*
X0243508Y0026932D02*
X0233182Y0026932D01*
X0231832Y0028530D02*
X0244859Y0028530D01*
X0247395Y0026932D02*
X0247795Y0026932D01*
X0247795Y0025333D02*
X0247395Y0025333D01*
X0247395Y0023735D02*
X0247795Y0023735D01*
X0247795Y0022136D02*
X0247395Y0022136D01*
X0251295Y0022136D02*
X0253327Y0022136D01*
X0252665Y0023735D02*
X0252057Y0023735D01*
X0252163Y0025333D02*
X0252614Y0025333D01*
X0253067Y0026932D02*
X0251682Y0026932D01*
X0250332Y0028530D02*
X0254233Y0028530D01*
X0253672Y0031727D02*
X0251519Y0031727D01*
X0252356Y0033326D02*
X0252834Y0033326D01*
X0252614Y0034924D02*
X0252576Y0034924D01*
X0252293Y0036523D02*
X0252897Y0036523D01*
X0253824Y0038121D02*
X0251366Y0038121D01*
X0248850Y0039720D02*
X0256340Y0039720D01*
X0254081Y0041318D02*
X0251110Y0041318D01*
X0252187Y0042917D02*
X0253004Y0042917D01*
X0252614Y0044515D02*
X0252576Y0044515D01*
X0252462Y0046114D02*
X0252728Y0046114D01*
X0253415Y0047712D02*
X0251775Y0047712D01*
X0249837Y0049311D02*
X0255353Y0049311D01*
X0254490Y0050909D02*
X0250701Y0050909D01*
X0252017Y0052508D02*
X0253173Y0052508D01*
X0252614Y0054106D02*
X0252576Y0054106D01*
X0252576Y0055705D02*
X0252614Y0055705D01*
X0253221Y0057303D02*
X0251970Y0057303D01*
X0250586Y0058902D02*
X0254605Y0058902D01*
X0255075Y0060500D02*
X0249060Y0060500D01*
X0249356Y0060597D02*
X0249999Y0060925D01*
X0250584Y0061349D01*
X0251094Y0061860D01*
X0251519Y0062444D01*
X0251846Y0063087D01*
X0252070Y0063774D01*
X0252183Y0064487D01*
X0252183Y0064648D01*
X0247795Y0064648D01*
X0247795Y0060261D01*
X0247956Y0060261D01*
X0248669Y0060374D01*
X0249356Y0060597D01*
X0247795Y0060500D02*
X0247395Y0060500D01*
X0247395Y0060261D02*
X0247395Y0064648D01*
X0243008Y0064648D01*
X0243008Y0064487D01*
X0243121Y0063774D01*
X0243344Y0063087D01*
X0243672Y0062444D01*
X0244096Y0061860D01*
X0244607Y0061349D01*
X0245191Y0060925D01*
X0245834Y0060597D01*
X0246521Y0060374D01*
X0247234Y0060261D01*
X0247395Y0060261D01*
X0246131Y0060500D02*
X0234076Y0060500D01*
X0234076Y0060839D02*
X0233318Y0062670D01*
X0231917Y0064071D01*
X0230086Y0064829D01*
X0228104Y0064829D01*
X0226274Y0064071D01*
X0224872Y0062670D01*
X0224114Y0060839D01*
X0224114Y0058857D01*
X0224872Y0057026D01*
X0226274Y0055625D01*
X0228104Y0054867D01*
X0230086Y0054867D01*
X0231917Y0055625D01*
X0233318Y0057026D01*
X0234076Y0058857D01*
X0234076Y0060839D01*
X0233554Y0062099D02*
X0243922Y0062099D01*
X0243146Y0063697D02*
X0232290Y0063697D01*
X0231499Y0065925D02*
X0230856Y0065597D01*
X0230169Y0065374D01*
X0229456Y0065261D01*
X0229295Y0065261D01*
X0229295Y0069648D01*
X0228895Y0069648D01*
X0224508Y0069648D01*
X0224508Y0069487D01*
X0224621Y0068774D01*
X0224844Y0068087D01*
X0225172Y0067444D01*
X0225596Y0066860D01*
X0226107Y0066349D01*
X0226691Y0065925D01*
X0227334Y0065597D01*
X0228021Y0065374D01*
X0228734Y0065261D01*
X0228895Y0065261D01*
X0228895Y0069648D01*
X0228895Y0070048D01*
X0224508Y0070048D01*
X0224508Y0070209D01*
X0224621Y0070922D01*
X0224844Y0071609D01*
X0225172Y0072252D01*
X0225596Y0072837D01*
X0226107Y0073347D01*
X0226691Y0073772D01*
X0227334Y0074099D01*
X0228021Y0074322D01*
X0228734Y0074435D01*
X0228895Y0074435D01*
X0228895Y0070048D01*
X0229295Y0070048D01*
X0229295Y0074435D01*
X0229456Y0074435D01*
X0230169Y0074322D01*
X0230856Y0074099D01*
X0231499Y0073772D01*
X0232084Y0073347D01*
X0232594Y0072837D01*
X0233019Y0072252D01*
X0233346Y0071609D01*
X0233570Y0070922D01*
X0233683Y0070209D01*
X0233683Y0070048D01*
X0229295Y0070048D01*
X0229295Y0069648D01*
X0233683Y0069648D01*
X0233683Y0069487D01*
X0233570Y0068774D01*
X0233346Y0068087D01*
X0233019Y0067444D01*
X0232594Y0066860D01*
X0232084Y0066349D01*
X0231499Y0065925D01*
X0232620Y0066894D02*
X0243489Y0066894D01*
X0243344Y0066609D02*
X0243672Y0067252D01*
X0244096Y0067837D01*
X0244607Y0068347D01*
X0245191Y0068772D01*
X0245834Y0069099D01*
X0246521Y0069322D01*
X0247234Y0069435D01*
X0247395Y0069435D01*
X0247395Y0065048D01*
X0247395Y0064648D01*
X0247795Y0064648D01*
X0247795Y0065048D01*
X0247395Y0065048D01*
X0243008Y0065048D01*
X0243008Y0065209D01*
X0243121Y0065922D01*
X0243344Y0066609D01*
X0243022Y0065296D02*
X0229679Y0065296D01*
X0229295Y0065296D02*
X0228895Y0065296D01*
X0228511Y0065296D02*
X0221122Y0065296D01*
X0221917Y0065625D02*
X0220086Y0064867D01*
X0218104Y0064867D01*
X0216274Y0065625D01*
X0214872Y0067026D01*
X0214114Y0068857D01*
X0214114Y0070839D01*
X0214872Y0072670D01*
X0216274Y0074071D01*
X0218104Y0074829D01*
X0220086Y0074829D01*
X0221917Y0074071D01*
X0223318Y0072670D01*
X0224076Y0070839D01*
X0224076Y0068857D01*
X0223318Y0067026D01*
X0221917Y0065625D01*
X0221917Y0064071D02*
X0220086Y0064829D01*
X0218104Y0064829D01*
X0216274Y0064071D01*
X0214872Y0062670D01*
X0214114Y0060839D01*
X0214114Y0058857D01*
X0214872Y0057026D01*
X0216274Y0055625D01*
X0218104Y0054867D01*
X0220086Y0054867D01*
X0221917Y0055625D01*
X0223318Y0057026D01*
X0224076Y0058857D01*
X0224076Y0060839D01*
X0223318Y0062670D01*
X0221917Y0064071D01*
X0222290Y0063697D02*
X0225900Y0063697D01*
X0224636Y0062099D02*
X0223554Y0062099D01*
X0224076Y0060500D02*
X0224114Y0060500D01*
X0224076Y0058902D02*
X0224114Y0058902D01*
X0224758Y0057303D02*
X0223433Y0057303D01*
X0221996Y0055705D02*
X0226194Y0055705D01*
X0231996Y0055705D02*
X0242614Y0055705D01*
X0242614Y0054106D02*
X0207587Y0054106D01*
X0208104Y0054867D02*
X0206274Y0055625D01*
X0204872Y0057026D01*
X0204114Y0058857D01*
X0204114Y0060839D01*
X0204872Y0062670D01*
X0206274Y0064071D01*
X0208104Y0064829D01*
X0210086Y0064829D01*
X0211917Y0064071D01*
X0213318Y0062670D01*
X0214076Y0060839D01*
X0214076Y0058857D01*
X0213318Y0057026D01*
X0211917Y0055625D01*
X0210086Y0054867D01*
X0208104Y0054867D01*
X0206194Y0055705D02*
X0165202Y0055705D01*
X0164998Y0055500D02*
X0165943Y0056445D01*
X0166454Y0057680D01*
X0166454Y0059016D01*
X0165943Y0060251D01*
X0164998Y0061196D01*
X0163763Y0061707D01*
X0162427Y0061707D01*
X0161192Y0061196D01*
X0160247Y0060251D01*
X0159736Y0059016D01*
X0159736Y0057680D01*
X0160247Y0056445D01*
X0161192Y0055500D01*
X0162427Y0054989D01*
X0163763Y0054989D01*
X0164998Y0055500D01*
X0166298Y0057303D02*
X0204758Y0057303D01*
X0204114Y0058902D02*
X0166454Y0058902D01*
X0165693Y0060500D02*
X0204114Y0060500D01*
X0204636Y0062099D02*
X0053824Y0062099D01*
X0054251Y0063697D02*
X0205900Y0063697D01*
X0206274Y0065625D02*
X0208104Y0064867D01*
X0210086Y0064867D01*
X0211917Y0065625D01*
X0213318Y0067026D01*
X0214076Y0068857D01*
X0214076Y0070839D01*
X0213318Y0072670D01*
X0211917Y0074071D01*
X0210086Y0074829D01*
X0208104Y0074829D01*
X0206274Y0074071D01*
X0204872Y0072670D01*
X0204114Y0070839D01*
X0204114Y0068857D01*
X0204872Y0067026D01*
X0206274Y0065625D01*
X0207069Y0065296D02*
X0054678Y0065296D01*
X0055106Y0066894D02*
X0205004Y0066894D01*
X0204265Y0068493D02*
X0180980Y0068493D01*
X0180998Y0068500D02*
X0181943Y0069445D01*
X0182454Y0070680D01*
X0182454Y0072016D01*
X0181943Y0073251D01*
X0180998Y0074196D01*
X0179763Y0074707D01*
X0178427Y0074707D01*
X0177192Y0074196D01*
X0176247Y0073251D01*
X0175736Y0072016D01*
X0175736Y0070680D01*
X0176247Y0069445D01*
X0177192Y0068500D01*
X0178427Y0067989D01*
X0179763Y0067989D01*
X0180998Y0068500D01*
X0182210Y0070091D02*
X0204114Y0070091D01*
X0204467Y0071690D02*
X0192749Y0071690D01*
X0192263Y0071489D02*
X0193498Y0072000D01*
X0194443Y0072945D01*
X0194954Y0074180D01*
X0194954Y0075516D01*
X0194443Y0076751D01*
X0193498Y0077696D01*
X0192263Y0078207D01*
X0190927Y0078207D01*
X0189692Y0077696D01*
X0188747Y0076751D01*
X0188236Y0075516D01*
X0188236Y0074180D01*
X0188747Y0072945D01*
X0189692Y0072000D01*
X0190927Y0071489D01*
X0192263Y0071489D01*
X0190442Y0071690D02*
X0182454Y0071690D01*
X0181905Y0073288D02*
X0188605Y0073288D01*
X0188236Y0074887D02*
X0059199Y0074887D01*
X0060493Y0073288D02*
X0176285Y0073288D01*
X0175736Y0071690D02*
X0060938Y0071690D01*
X0060776Y0070091D02*
X0175980Y0070091D01*
X0177210Y0068493D02*
X0059882Y0068493D01*
X0051414Y0076486D02*
X0188638Y0076486D01*
X0190630Y0078084D02*
X0179993Y0078084D01*
X0179763Y0077989D02*
X0180998Y0078500D01*
X0181943Y0079445D01*
X0182454Y0080680D01*
X0182454Y0082016D01*
X0181943Y0083251D01*
X0180998Y0084196D01*
X0180630Y0084348D01*
X0180998Y0084500D01*
X0181943Y0085445D01*
X0182454Y0086680D01*
X0182454Y0088016D01*
X0181943Y0089251D01*
X0180998Y0090196D01*
X0179763Y0090707D01*
X0178427Y0090707D01*
X0177192Y0090196D01*
X0176247Y0089251D01*
X0175736Y0088016D01*
X0175736Y0086680D01*
X0176247Y0085445D01*
X0177192Y0084500D01*
X0177560Y0084348D01*
X0177192Y0084196D01*
X0176247Y0083251D01*
X0175736Y0082016D01*
X0175736Y0080680D01*
X0176247Y0079445D01*
X0177192Y0078500D01*
X0178427Y0077989D01*
X0179763Y0077989D01*
X0178198Y0078084D02*
X0051414Y0078084D01*
X0051414Y0079683D02*
X0176149Y0079683D01*
X0175736Y0081281D02*
X0051414Y0081281D01*
X0051414Y0082880D02*
X0176094Y0082880D01*
X0177246Y0084478D02*
X0051414Y0084478D01*
X0051414Y0086077D02*
X0175986Y0086077D01*
X0175736Y0087675D02*
X0051414Y0087675D01*
X0051414Y0089274D02*
X0176270Y0089274D01*
X0181920Y0089274D02*
X0197111Y0089274D01*
X0197247Y0088945D02*
X0198192Y0088000D01*
X0199427Y0087489D01*
X0200763Y0087489D01*
X0201998Y0088000D01*
X0202943Y0088945D01*
X0203095Y0089313D01*
X0203247Y0088945D01*
X0204192Y0088000D01*
X0205427Y0087489D01*
X0206763Y0087489D01*
X0207998Y0088000D01*
X0208943Y0088945D01*
X0209454Y0090180D01*
X0209454Y0091516D01*
X0208943Y0092751D01*
X0207998Y0093696D01*
X0206763Y0094207D01*
X0205427Y0094207D01*
X0204192Y0093696D01*
X0203247Y0092751D01*
X0203095Y0092383D01*
X0202943Y0092751D01*
X0201998Y0093696D01*
X0200763Y0094207D01*
X0199427Y0094207D01*
X0198620Y0093873D01*
X0198954Y0094680D01*
X0198954Y0096016D01*
X0198443Y0097251D01*
X0198075Y0097618D01*
X0198998Y0098000D01*
X0199943Y0098945D01*
X0200454Y0100180D01*
X0200454Y0101516D01*
X0199943Y0102751D01*
X0198998Y0103696D01*
X0198085Y0104074D01*
X0199417Y0104625D01*
X0200818Y0106026D01*
X0201576Y0107857D01*
X0201576Y0109839D01*
X0200818Y0111670D01*
X0199417Y0113071D01*
X0197586Y0113829D01*
X0195604Y0113829D01*
X0193774Y0113071D01*
X0192372Y0111670D01*
X0191614Y0109839D01*
X0191614Y0107857D01*
X0192372Y0106026D01*
X0193774Y0104625D01*
X0195604Y0103867D01*
X0195606Y0103867D01*
X0195192Y0103696D01*
X0194247Y0102751D01*
X0194022Y0102207D01*
X0192927Y0102207D01*
X0191692Y0101696D01*
X0190747Y0100751D01*
X0190236Y0099516D01*
X0190236Y0098180D01*
X0190747Y0096945D01*
X0191692Y0096000D01*
X0192236Y0095775D01*
X0192236Y0094680D01*
X0192747Y0093445D01*
X0193692Y0092500D01*
X0194927Y0091989D01*
X0196263Y0091989D01*
X0197070Y0092323D01*
X0196736Y0091516D01*
X0196736Y0090180D01*
X0197247Y0088945D01*
X0196736Y0090872D02*
X0051414Y0090872D01*
X0051414Y0092471D02*
X0193764Y0092471D01*
X0192489Y0094069D02*
X0051414Y0094069D01*
X0051414Y0095668D02*
X0192236Y0095668D01*
X0190615Y0097266D02*
X0051414Y0097266D01*
X0051414Y0098865D02*
X0190236Y0098865D01*
X0190628Y0100463D02*
X0051414Y0100463D01*
X0051414Y0102062D02*
X0192576Y0102062D01*
X0195157Y0103660D02*
X0051414Y0103660D01*
X0051414Y0105259D02*
X0071434Y0105259D01*
X0071247Y0105445D02*
X0072192Y0104500D01*
X0073427Y0103989D01*
X0074763Y0103989D01*
X0075998Y0104500D01*
X0076943Y0105445D01*
X0077454Y0106680D01*
X0077454Y0108016D01*
X0076943Y0109251D01*
X0075998Y0110196D01*
X0074763Y0110707D01*
X0073427Y0110707D01*
X0072192Y0110196D01*
X0071247Y0109251D01*
X0070736Y0108016D01*
X0070736Y0106680D01*
X0071247Y0105445D01*
X0070736Y0106857D02*
X0051414Y0106857D01*
X0051414Y0108456D02*
X0070918Y0108456D01*
X0072051Y0110054D02*
X0051414Y0110054D01*
X0051414Y0111653D02*
X0192365Y0111653D01*
X0191703Y0110054D02*
X0076139Y0110054D01*
X0077272Y0108456D02*
X0191614Y0108456D01*
X0192028Y0106857D02*
X0077454Y0106857D01*
X0076756Y0105259D02*
X0193140Y0105259D01*
X0199033Y0103660D02*
X0208157Y0103660D01*
X0208192Y0103696D02*
X0207247Y0102751D01*
X0206736Y0101516D01*
X0206736Y0100180D01*
X0207247Y0098945D01*
X0208192Y0098000D01*
X0209427Y0097489D01*
X0210763Y0097489D01*
X0211998Y0098000D01*
X0212943Y0098945D01*
X0213454Y0100180D01*
X0213454Y0101516D01*
X0212943Y0102751D01*
X0211998Y0103696D01*
X0210763Y0104207D01*
X0209427Y0104207D01*
X0208192Y0103696D01*
X0206962Y0102062D02*
X0200228Y0102062D01*
X0200454Y0100463D02*
X0206736Y0100463D01*
X0207328Y0098865D02*
X0199862Y0098865D01*
X0198427Y0097266D02*
X0244736Y0097266D01*
X0244736Y0097180D02*
X0245247Y0095945D01*
X0246192Y0095000D01*
X0247427Y0094489D01*
X0248763Y0094489D01*
X0249998Y0095000D01*
X0250943Y0095945D01*
X0251095Y0096313D01*
X0251247Y0095945D01*
X0252192Y0095000D01*
X0253427Y0094489D01*
X0254763Y0094489D01*
X0255998Y0095000D01*
X0256943Y0095945D01*
X0257454Y0097180D01*
X0257454Y0098068D01*
X0258498Y0098500D01*
X0259443Y0099445D01*
X0259954Y0100680D01*
X0259954Y0102016D01*
X0259443Y0103251D01*
X0258498Y0104196D01*
X0257263Y0104707D01*
X0256205Y0104707D01*
X0256943Y0105445D01*
X0257454Y0106680D01*
X0257454Y0108016D01*
X0256943Y0109251D01*
X0255998Y0110196D01*
X0254763Y0110707D01*
X0254454Y0110707D01*
X0254454Y0111016D01*
X0253943Y0112251D01*
X0252998Y0113196D01*
X0251763Y0113707D01*
X0250427Y0113707D01*
X0249192Y0113196D01*
X0248247Y0112251D01*
X0247736Y0111016D01*
X0247736Y0109680D01*
X0248247Y0108445D01*
X0249192Y0107500D01*
X0250427Y0106989D01*
X0250736Y0106989D01*
X0250736Y0106680D01*
X0251247Y0105445D01*
X0252192Y0104500D01*
X0253427Y0103989D01*
X0254486Y0103989D01*
X0253747Y0103251D01*
X0253236Y0102016D01*
X0253236Y0101128D01*
X0252192Y0100696D01*
X0251247Y0099751D01*
X0251095Y0099383D01*
X0250943Y0099751D01*
X0249998Y0100696D01*
X0248763Y0101207D01*
X0247427Y0101207D01*
X0246192Y0100696D01*
X0245247Y0099751D01*
X0244736Y0098516D01*
X0244736Y0097180D01*
X0244880Y0098865D02*
X0230862Y0098865D01*
X0230498Y0098500D02*
X0231443Y0099445D01*
X0231954Y0100680D01*
X0231954Y0102016D01*
X0231443Y0103251D01*
X0230498Y0104196D01*
X0229263Y0104707D01*
X0227927Y0104707D01*
X0226692Y0104196D01*
X0225747Y0103251D01*
X0225236Y0102016D01*
X0225236Y0100680D01*
X0225747Y0099445D01*
X0226692Y0098500D01*
X0227927Y0097989D01*
X0229263Y0097989D01*
X0230498Y0098500D01*
X0231864Y0100463D02*
X0245960Y0100463D01*
X0250230Y0100463D02*
X0251960Y0100463D01*
X0253255Y0102062D02*
X0231935Y0102062D01*
X0231033Y0103660D02*
X0254157Y0103660D01*
X0256756Y0105259D02*
X0294337Y0105259D01*
X0294236Y0105016D02*
X0294236Y0103680D01*
X0294747Y0102445D01*
X0295692Y0101500D01*
X0296927Y0100989D01*
X0298263Y0100989D01*
X0299498Y0101500D01*
X0300443Y0102445D01*
X0300954Y0103680D01*
X0300954Y0105016D01*
X0300443Y0106251D01*
X0299498Y0107196D01*
X0298263Y0107707D01*
X0296927Y0107707D01*
X0295692Y0107196D01*
X0294747Y0106251D01*
X0294236Y0105016D01*
X0294244Y0103660D02*
X0259033Y0103660D01*
X0259935Y0102062D02*
X0295131Y0102062D01*
X0300059Y0102062D02*
X0305131Y0102062D01*
X0304747Y0102445D02*
X0305692Y0101500D01*
X0306927Y0100989D01*
X0308263Y0100989D01*
X0309498Y0101500D01*
X0310443Y0102445D01*
X0310954Y0103680D01*
X0310954Y0105016D01*
X0310443Y0106251D01*
X0309498Y0107196D01*
X0308263Y0107707D01*
X0306927Y0107707D01*
X0305692Y0107196D01*
X0304747Y0106251D01*
X0304236Y0105016D01*
X0304236Y0103680D01*
X0304747Y0102445D01*
X0304244Y0103660D02*
X0300946Y0103660D01*
X0300854Y0105259D02*
X0304337Y0105259D01*
X0305354Y0106857D02*
X0299836Y0106857D01*
X0295354Y0106857D02*
X0257454Y0106857D01*
X0257272Y0108456D02*
X0284580Y0108456D01*
X0284927Y0108312D02*
X0286263Y0108312D01*
X0287498Y0108823D01*
X0288443Y0109768D01*
X0288954Y0111003D01*
X0288954Y0112339D01*
X0288443Y0113574D01*
X0287498Y0114519D01*
X0286263Y0115030D01*
X0284927Y0115030D01*
X0283692Y0114519D01*
X0282747Y0113574D01*
X0282236Y0112339D01*
X0282236Y0111003D01*
X0282747Y0109768D01*
X0283692Y0108823D01*
X0284927Y0108312D01*
X0286611Y0108456D02*
X0316829Y0108456D01*
X0316736Y0108680D02*
X0317247Y0107445D01*
X0317595Y0107098D01*
X0316747Y0106251D01*
X0316236Y0105016D01*
X0316236Y0103680D01*
X0316747Y0102445D01*
X0317692Y0101500D01*
X0318927Y0100989D01*
X0320263Y0100989D01*
X0321498Y0101500D01*
X0322443Y0102445D01*
X0322954Y0103680D01*
X0322954Y0105016D01*
X0322443Y0106251D01*
X0322096Y0106598D01*
X0322943Y0107445D01*
X0323454Y0108680D01*
X0323454Y0110016D01*
X0322943Y0111251D01*
X0321998Y0112196D01*
X0320763Y0112707D01*
X0319427Y0112707D01*
X0318192Y0112196D01*
X0317247Y0111251D01*
X0316736Y0110016D01*
X0316736Y0108680D01*
X0316752Y0110054D02*
X0288561Y0110054D01*
X0288954Y0111653D02*
X0317649Y0111653D01*
X0322541Y0111653D02*
X0328320Y0111653D01*
X0328372Y0111526D02*
X0329774Y0110125D01*
X0331604Y0109367D01*
X0333586Y0109367D01*
X0335417Y0110125D01*
X0336818Y0111526D01*
X0337576Y0113357D01*
X0337576Y0115339D01*
X0336818Y0117170D01*
X0335417Y0118571D01*
X0333586Y0119329D01*
X0331604Y0119329D01*
X0329774Y0118571D01*
X0328372Y0117170D01*
X0327614Y0115339D01*
X0327614Y0113357D01*
X0328372Y0111526D01*
X0327658Y0113251D02*
X0288576Y0113251D01*
X0286698Y0114850D02*
X0292343Y0114850D01*
X0292692Y0114500D02*
X0293927Y0113989D01*
X0295263Y0113989D01*
X0296498Y0114500D01*
X0297443Y0115445D01*
X0297954Y0116680D01*
X0297954Y0118016D01*
X0297443Y0119251D01*
X0296498Y0120196D01*
X0295263Y0120707D01*
X0293927Y0120707D01*
X0292692Y0120196D01*
X0291747Y0119251D01*
X0291236Y0118016D01*
X0291236Y0116680D01*
X0291747Y0115445D01*
X0292692Y0114500D01*
X0291332Y0116448D02*
X0270388Y0116448D01*
X0270998Y0116196D02*
X0269763Y0116707D01*
X0268427Y0116707D01*
X0267192Y0116196D01*
X0266247Y0115251D01*
X0265736Y0114016D01*
X0265736Y0112680D01*
X0266247Y0111445D01*
X0267192Y0110500D01*
X0268427Y0109989D01*
X0269763Y0109989D01*
X0270998Y0110500D01*
X0271943Y0111445D01*
X0272454Y0112680D01*
X0272454Y0114016D01*
X0271943Y0115251D01*
X0270998Y0116196D01*
X0272109Y0114850D02*
X0284492Y0114850D01*
X0282614Y0113251D02*
X0272454Y0113251D01*
X0272029Y0111653D02*
X0282236Y0111653D01*
X0282629Y0110054D02*
X0269921Y0110054D01*
X0268269Y0110054D02*
X0256139Y0110054D01*
X0254191Y0111653D02*
X0266162Y0111653D01*
X0265736Y0113251D02*
X0252864Y0113251D01*
X0249327Y0113251D02*
X0198981Y0113251D01*
X0199417Y0114625D02*
X0197586Y0113867D01*
X0195604Y0113867D01*
X0193774Y0114625D01*
X0192372Y0116026D01*
X0191614Y0117857D01*
X0191614Y0119839D01*
X0192372Y0121670D01*
X0193774Y0123071D01*
X0195604Y0123829D01*
X0197586Y0123829D01*
X0199417Y0123071D01*
X0200818Y0121670D01*
X0201576Y0119839D01*
X0201576Y0117857D01*
X0200818Y0116026D01*
X0199417Y0114625D01*
X0199641Y0114850D02*
X0209343Y0114850D01*
X0209247Y0114945D02*
X0210192Y0114000D01*
X0211427Y0113489D01*
X0212763Y0113489D01*
X0213998Y0114000D01*
X0214943Y0114945D01*
X0215454Y0116180D01*
X0215454Y0116739D01*
X0216192Y0116000D01*
X0217427Y0115489D01*
X0218763Y0115489D01*
X0219998Y0116000D01*
X0220943Y0116945D01*
X0221032Y0117161D01*
X0221692Y0116500D01*
X0222927Y0115989D01*
X0224263Y0115989D01*
X0225498Y0116500D01*
X0226443Y0117445D01*
X0226954Y0118680D01*
X0226954Y0120016D01*
X0226443Y0121251D01*
X0225498Y0122196D01*
X0224263Y0122707D01*
X0222927Y0122707D01*
X0221692Y0122196D01*
X0220747Y0121251D01*
X0220658Y0121035D01*
X0219998Y0121696D01*
X0218763Y0122207D01*
X0217427Y0122207D01*
X0216192Y0121696D01*
X0215247Y0120751D01*
X0214736Y0119516D01*
X0214736Y0118957D01*
X0213998Y0119696D01*
X0212763Y0120207D01*
X0211427Y0120207D01*
X0210192Y0119696D01*
X0209247Y0118751D01*
X0208736Y0117516D01*
X0208736Y0116180D01*
X0209247Y0114945D01*
X0208736Y0116448D02*
X0200993Y0116448D01*
X0201576Y0118047D02*
X0208956Y0118047D01*
X0210142Y0119645D02*
X0201576Y0119645D01*
X0200994Y0121244D02*
X0215741Y0121244D01*
X0214790Y0119645D02*
X0214048Y0119645D01*
X0215454Y0116448D02*
X0215744Y0116448D01*
X0214847Y0114850D02*
X0259556Y0114850D01*
X0259192Y0115000D02*
X0260427Y0114489D01*
X0261763Y0114489D01*
X0262998Y0115000D01*
X0263943Y0115945D01*
X0264454Y0117180D01*
X0264454Y0118516D01*
X0263943Y0119751D01*
X0262998Y0120696D01*
X0261763Y0121207D01*
X0260427Y0121207D01*
X0259192Y0120696D01*
X0258247Y0119751D01*
X0257736Y0118516D01*
X0257736Y0117180D01*
X0258247Y0115945D01*
X0259192Y0115000D01*
X0258039Y0116448D02*
X0225372Y0116448D01*
X0226692Y0118047D02*
X0257736Y0118047D01*
X0258204Y0119645D02*
X0226954Y0119645D01*
X0226446Y0121244D02*
X0274417Y0121244D01*
X0274236Y0121680D02*
X0274747Y0120445D01*
X0275692Y0119500D01*
X0276927Y0118989D01*
X0278263Y0118989D01*
X0279498Y0119500D01*
X0280443Y0120445D01*
X0280954Y0121680D01*
X0280954Y0123016D01*
X0280443Y0124251D01*
X0279498Y0125196D01*
X0278263Y0125707D01*
X0276927Y0125707D01*
X0275692Y0125196D01*
X0274747Y0124251D01*
X0274236Y0123016D01*
X0274236Y0121680D01*
X0274236Y0122842D02*
X0199645Y0122842D01*
X0193545Y0122842D02*
X0060938Y0122842D01*
X0060839Y0121244D02*
X0192196Y0121244D01*
X0191614Y0119645D02*
X0060035Y0119645D01*
X0057561Y0118047D02*
X0191614Y0118047D01*
X0192198Y0116448D02*
X0051414Y0116448D01*
X0051414Y0114850D02*
X0193549Y0114850D01*
X0194209Y0113251D02*
X0051414Y0113251D01*
X0051414Y0118047D02*
X0055630Y0118047D01*
X0060429Y0124441D02*
X0274938Y0124441D01*
X0280253Y0124441D02*
X0289042Y0124441D01*
X0289247Y0123945D02*
X0290192Y0123000D01*
X0291427Y0122489D01*
X0292763Y0122489D01*
X0293998Y0123000D01*
X0294943Y0123945D01*
X0295454Y0125180D01*
X0295454Y0126516D01*
X0294943Y0127751D01*
X0293998Y0128696D01*
X0292763Y0129207D01*
X0291427Y0129207D01*
X0290192Y0128696D01*
X0289247Y0127751D01*
X0288736Y0126516D01*
X0288736Y0125180D01*
X0289247Y0123945D01*
X0290574Y0122842D02*
X0280954Y0122842D01*
X0280774Y0121244D02*
X0312236Y0121244D01*
X0312236Y0120680D02*
X0312747Y0119445D01*
X0313692Y0118500D01*
X0314927Y0117989D01*
X0316263Y0117989D01*
X0317498Y0118500D01*
X0318443Y0119445D01*
X0318954Y0120680D01*
X0318954Y0122016D01*
X0318443Y0123251D01*
X0317498Y0124196D01*
X0316263Y0124707D01*
X0314927Y0124707D01*
X0313692Y0124196D01*
X0312747Y0123251D01*
X0312236Y0122016D01*
X0312236Y0120680D01*
X0312665Y0119645D02*
X0297048Y0119645D01*
X0297942Y0118047D02*
X0314787Y0118047D01*
X0316403Y0118047D02*
X0329250Y0118047D01*
X0328074Y0116448D02*
X0297858Y0116448D01*
X0296847Y0114850D02*
X0327614Y0114850D01*
X0329945Y0110054D02*
X0323438Y0110054D01*
X0323361Y0108456D02*
X0385952Y0108456D01*
X0386192Y0108696D02*
X0385247Y0107751D01*
X0384736Y0106516D01*
X0384736Y0105180D01*
X0385247Y0103945D01*
X0386192Y0103000D01*
X0387427Y0102489D01*
X0388763Y0102489D01*
X0389998Y0103000D01*
X0390943Y0103945D01*
X0391454Y0105180D01*
X0391454Y0105525D01*
X0392686Y0105015D01*
X0394473Y0105015D01*
X0396123Y0105698D01*
X0397387Y0106962D01*
X0398070Y0108612D01*
X0398070Y0110399D01*
X0397387Y0112049D01*
X0396123Y0113313D01*
X0394473Y0113996D01*
X0392686Y0113996D01*
X0391035Y0113313D01*
X0389772Y0112049D01*
X0389088Y0110399D01*
X0389088Y0109072D01*
X0388763Y0109207D01*
X0387427Y0109207D01*
X0386192Y0108696D01*
X0384877Y0106857D02*
X0322355Y0106857D01*
X0322854Y0105259D02*
X0384736Y0105259D01*
X0385533Y0103660D02*
X0322946Y0103660D01*
X0322059Y0102062D02*
X0410732Y0102062D01*
X0410732Y0103660D02*
X0390658Y0103660D01*
X0391454Y0105259D02*
X0392097Y0105259D01*
X0395062Y0105259D02*
X0410732Y0105259D01*
X0410732Y0106857D02*
X0397282Y0106857D01*
X0398006Y0108456D02*
X0410732Y0108456D01*
X0410732Y0110054D02*
X0398070Y0110054D01*
X0397551Y0111653D02*
X0410732Y0111653D01*
X0410732Y0113251D02*
X0396185Y0113251D01*
X0391954Y0115180D02*
X0391954Y0116516D01*
X0391443Y0117751D01*
X0390498Y0118696D01*
X0389527Y0119098D01*
X0390498Y0119500D01*
X0391443Y0120445D01*
X0391954Y0121680D01*
X0391954Y0123016D01*
X0391443Y0124251D01*
X0390498Y0125196D01*
X0389263Y0125707D01*
X0387927Y0125707D01*
X0386692Y0125196D01*
X0385747Y0124251D01*
X0385236Y0123016D01*
X0385236Y0122207D01*
X0384927Y0122207D01*
X0383692Y0121696D01*
X0382747Y0120751D01*
X0382236Y0119516D01*
X0382236Y0118180D01*
X0382747Y0116945D01*
X0383692Y0116000D01*
X0384927Y0115489D01*
X0385236Y0115489D01*
X0385236Y0115180D01*
X0385747Y0113945D01*
X0386692Y0113000D01*
X0387927Y0112489D01*
X0389263Y0112489D01*
X0390498Y0113000D01*
X0391443Y0113945D01*
X0391954Y0115180D01*
X0391817Y0114850D02*
X0410732Y0114850D01*
X0410732Y0116448D02*
X0391954Y0116448D01*
X0391147Y0118047D02*
X0410732Y0118047D01*
X0410732Y0119645D02*
X0390643Y0119645D01*
X0391774Y0121244D02*
X0410732Y0121244D01*
X0410732Y0122842D02*
X0391954Y0122842D01*
X0391253Y0124441D02*
X0410732Y0124441D01*
X0410732Y0126039D02*
X0396779Y0126039D01*
X0397387Y0126647D02*
X0398070Y0128297D01*
X0398070Y0130084D01*
X0397387Y0131734D01*
X0396123Y0132998D01*
X0394473Y0133681D01*
X0392686Y0133681D01*
X0391035Y0132998D01*
X0389772Y0131734D01*
X0389088Y0130084D01*
X0389088Y0128297D01*
X0389772Y0126647D01*
X0391035Y0125383D01*
X0392686Y0124700D01*
X0394473Y0124700D01*
X0396123Y0125383D01*
X0397387Y0126647D01*
X0397797Y0127638D02*
X0410732Y0127638D01*
X0410732Y0129236D02*
X0398070Y0129236D01*
X0397759Y0130835D02*
X0410732Y0130835D01*
X0410732Y0132433D02*
X0396688Y0132433D01*
X0390471Y0132433D02*
X0357260Y0132433D01*
X0357443Y0132251D02*
X0356498Y0133196D01*
X0355263Y0133707D01*
X0353927Y0133707D01*
X0352692Y0133196D01*
X0351747Y0132251D01*
X0351236Y0131016D01*
X0351236Y0129680D01*
X0351747Y0128445D01*
X0352692Y0127500D01*
X0353927Y0126989D01*
X0355263Y0126989D01*
X0356498Y0127500D01*
X0357443Y0128445D01*
X0357954Y0129680D01*
X0357954Y0131016D01*
X0357443Y0132251D01*
X0357954Y0130835D02*
X0389400Y0130835D01*
X0389088Y0129236D02*
X0357770Y0129236D01*
X0356635Y0127638D02*
X0389362Y0127638D01*
X0390379Y0126039D02*
X0347286Y0126039D01*
X0347576Y0125339D02*
X0346818Y0127170D01*
X0345417Y0128571D01*
X0343586Y0129329D01*
X0341604Y0129329D01*
X0339774Y0128571D01*
X0338372Y0127170D01*
X0337614Y0125339D01*
X0337614Y0123357D01*
X0338372Y0121526D01*
X0339774Y0120125D01*
X0341604Y0119367D01*
X0343586Y0119367D01*
X0345417Y0120125D01*
X0346818Y0121526D01*
X0347576Y0123357D01*
X0347576Y0125339D01*
X0347576Y0124441D02*
X0385938Y0124441D01*
X0385236Y0122842D02*
X0347363Y0122842D01*
X0346535Y0121244D02*
X0383241Y0121244D01*
X0382290Y0119645D02*
X0344258Y0119645D01*
X0343669Y0118822D02*
X0342956Y0118935D01*
X0342795Y0118935D01*
X0342795Y0114548D01*
X0342395Y0114548D01*
X0342395Y0114148D01*
X0338008Y0114148D01*
X0338008Y0113987D01*
X0338121Y0113274D01*
X0338344Y0112587D01*
X0338672Y0111944D01*
X0339096Y0111360D01*
X0339607Y0110849D01*
X0340191Y0110425D01*
X0340834Y0110097D01*
X0341521Y0109874D01*
X0342234Y0109761D01*
X0342395Y0109761D01*
X0342395Y0114148D01*
X0342795Y0114148D01*
X0342795Y0109761D01*
X0342956Y0109761D01*
X0343669Y0109874D01*
X0344356Y0110097D01*
X0344999Y0110425D01*
X0345584Y0110849D01*
X0346094Y0111360D01*
X0346519Y0111944D01*
X0346846Y0112587D01*
X0347070Y0113274D01*
X0347183Y0113987D01*
X0347183Y0114148D01*
X0342795Y0114148D01*
X0342795Y0114548D01*
X0347183Y0114548D01*
X0347183Y0114709D01*
X0347070Y0115422D01*
X0346846Y0116109D01*
X0346519Y0116752D01*
X0346094Y0117337D01*
X0345584Y0117847D01*
X0344999Y0118272D01*
X0344356Y0118599D01*
X0343669Y0118822D01*
X0342795Y0118047D02*
X0342395Y0118047D01*
X0342395Y0118935D02*
X0342234Y0118935D01*
X0341521Y0118822D01*
X0340834Y0118599D01*
X0340191Y0118272D01*
X0339607Y0117847D01*
X0339096Y0117337D01*
X0338672Y0116752D01*
X0338344Y0116109D01*
X0338121Y0115422D01*
X0338008Y0114709D01*
X0338008Y0114548D01*
X0342395Y0114548D01*
X0342395Y0118935D01*
X0340932Y0119645D02*
X0334258Y0119645D01*
X0333586Y0119367D02*
X0335417Y0120125D01*
X0336818Y0121526D01*
X0337576Y0123357D01*
X0337576Y0125339D01*
X0336818Y0127170D01*
X0335417Y0128571D01*
X0333586Y0129329D01*
X0331604Y0129329D01*
X0329774Y0128571D01*
X0328372Y0127170D01*
X0327614Y0125339D01*
X0327614Y0123357D01*
X0328372Y0121526D01*
X0329774Y0120125D01*
X0331604Y0119367D01*
X0333586Y0119367D01*
X0330932Y0119645D02*
X0318526Y0119645D01*
X0318954Y0121244D02*
X0328655Y0121244D01*
X0327827Y0122842D02*
X0318612Y0122842D01*
X0316906Y0124441D02*
X0327614Y0124441D01*
X0327904Y0126039D02*
X0295454Y0126039D01*
X0295148Y0124441D02*
X0314284Y0124441D01*
X0312578Y0122842D02*
X0293616Y0122842D01*
X0288736Y0126039D02*
X0059033Y0126039D01*
X0054845Y0127638D02*
X0289201Y0127638D01*
X0286998Y0131500D02*
X0287943Y0132445D01*
X0288454Y0133680D01*
X0288454Y0135016D01*
X0287943Y0136251D01*
X0286998Y0137196D01*
X0285763Y0137707D01*
X0284427Y0137707D01*
X0283192Y0137196D01*
X0282247Y0136251D01*
X0281736Y0135016D01*
X0281736Y0133680D01*
X0282247Y0132445D01*
X0283192Y0131500D01*
X0284427Y0130989D01*
X0285763Y0130989D01*
X0286998Y0131500D01*
X0287931Y0132433D02*
X0307930Y0132433D01*
X0307747Y0132251D02*
X0307236Y0131016D01*
X0307236Y0129680D01*
X0307747Y0128445D01*
X0308692Y0127500D01*
X0309927Y0126989D01*
X0311263Y0126989D01*
X0312498Y0127500D01*
X0313443Y0128445D01*
X0313954Y0129680D01*
X0313954Y0131016D01*
X0313443Y0132251D01*
X0313346Y0132348D01*
X0313943Y0132945D01*
X0314454Y0134180D01*
X0314454Y0135516D01*
X0313943Y0136751D01*
X0312998Y0137696D01*
X0311763Y0138207D01*
X0310427Y0138207D01*
X0309192Y0137696D01*
X0308247Y0136751D01*
X0307736Y0135516D01*
X0307736Y0134180D01*
X0308247Y0132945D01*
X0308345Y0132848D01*
X0307747Y0132251D01*
X0307236Y0130835D02*
X0054142Y0130835D01*
X0053791Y0132433D02*
X0282259Y0132433D01*
X0281736Y0134032D02*
X0201367Y0134032D01*
X0201263Y0133989D02*
X0202498Y0134500D01*
X0203443Y0135445D01*
X0203954Y0136680D01*
X0203954Y0138016D01*
X0203443Y0139251D01*
X0202498Y0140196D01*
X0201263Y0140707D01*
X0199927Y0140707D01*
X0198692Y0140196D01*
X0197747Y0139251D01*
X0197236Y0138016D01*
X0197236Y0136680D01*
X0197747Y0135445D01*
X0198692Y0134500D01*
X0199927Y0133989D01*
X0201263Y0133989D01*
X0199823Y0134032D02*
X0053439Y0134032D01*
X0053088Y0135630D02*
X0197671Y0135630D01*
X0197236Y0137229D02*
X0137226Y0137229D01*
X0136998Y0137000D02*
X0137943Y0137945D01*
X0138454Y0139180D01*
X0138454Y0140516D01*
X0137943Y0141751D01*
X0136998Y0142696D01*
X0135763Y0143207D01*
X0134427Y0143207D01*
X0133192Y0142696D01*
X0132247Y0141751D01*
X0131736Y0140516D01*
X0131736Y0139180D01*
X0132247Y0137945D01*
X0133192Y0137000D01*
X0134427Y0136489D01*
X0135763Y0136489D01*
X0136998Y0137000D01*
X0138308Y0138827D02*
X0197572Y0138827D01*
X0199248Y0140426D02*
X0138454Y0140426D01*
X0137669Y0142024D02*
X0224841Y0142024D01*
X0224927Y0141989D02*
X0226263Y0141989D01*
X0227498Y0142500D01*
X0228443Y0143445D01*
X0228954Y0144680D01*
X0228954Y0146016D01*
X0228443Y0147251D01*
X0227498Y0148196D01*
X0226263Y0148707D01*
X0224927Y0148707D01*
X0223692Y0148196D01*
X0222747Y0147251D01*
X0222236Y0146016D01*
X0222236Y0144680D01*
X0222747Y0143445D01*
X0223692Y0142500D01*
X0224927Y0141989D01*
X0226349Y0142024D02*
X0246021Y0142024D01*
X0245747Y0141751D02*
X0245236Y0140516D01*
X0245236Y0139180D01*
X0245747Y0137945D01*
X0246692Y0137000D01*
X0247927Y0136489D01*
X0249263Y0136489D01*
X0250498Y0137000D01*
X0251443Y0137945D01*
X0251954Y0139180D01*
X0251954Y0140516D01*
X0251443Y0141751D01*
X0250498Y0142696D01*
X0249263Y0143207D01*
X0247927Y0143207D01*
X0246692Y0142696D01*
X0245747Y0141751D01*
X0245236Y0140426D02*
X0201942Y0140426D01*
X0203618Y0138827D02*
X0245382Y0138827D01*
X0246464Y0137229D02*
X0203954Y0137229D01*
X0203519Y0135630D02*
X0281991Y0135630D01*
X0283273Y0137229D02*
X0250726Y0137229D01*
X0251808Y0138827D02*
X0330393Y0138827D01*
X0329774Y0138571D02*
X0328372Y0137170D01*
X0327614Y0135339D01*
X0327614Y0133357D01*
X0328372Y0131526D01*
X0329774Y0130125D01*
X0331604Y0129367D01*
X0333586Y0129367D01*
X0335417Y0130125D01*
X0336818Y0131526D01*
X0337576Y0133357D01*
X0337576Y0135339D01*
X0336818Y0137170D01*
X0335417Y0138571D01*
X0333586Y0139329D01*
X0331604Y0139329D01*
X0329774Y0138571D01*
X0328432Y0137229D02*
X0313465Y0137229D01*
X0314407Y0135630D02*
X0327735Y0135630D01*
X0327614Y0134032D02*
X0314393Y0134032D01*
X0313431Y0132433D02*
X0327997Y0132433D01*
X0329064Y0130835D02*
X0313954Y0130835D01*
X0313770Y0129236D02*
X0331380Y0129236D01*
X0333810Y0129236D02*
X0341380Y0129236D01*
X0341604Y0129367D02*
X0339774Y0130125D01*
X0338372Y0131526D01*
X0337614Y0133357D01*
X0337614Y0135339D01*
X0338372Y0137170D01*
X0339774Y0138571D01*
X0341604Y0139329D01*
X0343586Y0139329D01*
X0345417Y0138571D01*
X0346818Y0137170D01*
X0347576Y0135339D01*
X0347576Y0133357D01*
X0346818Y0131526D01*
X0345417Y0130125D01*
X0343586Y0129367D01*
X0341604Y0129367D01*
X0343810Y0129236D02*
X0351420Y0129236D01*
X0351236Y0130835D02*
X0346126Y0130835D01*
X0347194Y0132433D02*
X0351930Y0132433D01*
X0347576Y0134032D02*
X0410732Y0134032D01*
X0410732Y0135630D02*
X0347455Y0135630D01*
X0346759Y0137229D02*
X0410732Y0137229D01*
X0410732Y0138827D02*
X0400325Y0138827D01*
X0399998Y0138500D02*
X0400943Y0139445D01*
X0401454Y0140680D01*
X0401454Y0142016D01*
X0400943Y0143251D01*
X0399998Y0144196D01*
X0398763Y0144707D01*
X0397427Y0144707D01*
X0396192Y0144196D01*
X0395247Y0143251D01*
X0394736Y0142016D01*
X0394736Y0140680D01*
X0395247Y0139445D01*
X0396192Y0138500D01*
X0397427Y0137989D01*
X0398763Y0137989D01*
X0399998Y0138500D01*
X0401349Y0140426D02*
X0410732Y0140426D01*
X0410732Y0142024D02*
X0401451Y0142024D01*
X0400571Y0143623D02*
X0410732Y0143623D01*
X0410732Y0145221D02*
X0310455Y0145221D01*
X0310443Y0145251D02*
X0310954Y0144016D01*
X0310954Y0142680D01*
X0310443Y0141445D01*
X0309498Y0140500D01*
X0308263Y0139989D01*
X0306927Y0139989D01*
X0305692Y0140500D01*
X0304747Y0141445D01*
X0304236Y0142680D01*
X0304236Y0144016D01*
X0304747Y0145251D01*
X0305692Y0146196D01*
X0306927Y0146707D01*
X0308263Y0146707D01*
X0309498Y0146196D01*
X0310443Y0145251D01*
X0310954Y0143623D02*
X0395620Y0143623D01*
X0394740Y0142024D02*
X0310683Y0142024D01*
X0309318Y0140426D02*
X0394841Y0140426D01*
X0395865Y0138827D02*
X0344797Y0138827D01*
X0340393Y0138827D02*
X0334797Y0138827D01*
X0336759Y0137229D02*
X0338432Y0137229D01*
X0337735Y0135630D02*
X0337455Y0135630D01*
X0337576Y0134032D02*
X0337614Y0134032D01*
X0337997Y0132433D02*
X0337194Y0132433D01*
X0336126Y0130835D02*
X0339064Y0130835D01*
X0338841Y0127638D02*
X0336350Y0127638D01*
X0337286Y0126039D02*
X0337904Y0126039D01*
X0337614Y0124441D02*
X0337576Y0124441D01*
X0337363Y0122842D02*
X0337827Y0122842D01*
X0338655Y0121244D02*
X0336535Y0121244D01*
X0335941Y0118047D02*
X0339882Y0118047D01*
X0338517Y0116448D02*
X0337117Y0116448D01*
X0337576Y0114850D02*
X0338030Y0114850D01*
X0338128Y0113251D02*
X0337532Y0113251D01*
X0336870Y0111653D02*
X0338883Y0111653D01*
X0340965Y0110054D02*
X0335245Y0110054D01*
X0342395Y0110054D02*
X0342795Y0110054D01*
X0344225Y0110054D02*
X0389088Y0110054D01*
X0389608Y0111653D02*
X0346307Y0111653D01*
X0347062Y0113251D02*
X0386441Y0113251D01*
X0385373Y0114850D02*
X0347160Y0114850D01*
X0346674Y0116448D02*
X0383244Y0116448D01*
X0382291Y0118047D02*
X0345309Y0118047D01*
X0342795Y0116448D02*
X0342395Y0116448D01*
X0342395Y0114850D02*
X0342795Y0114850D01*
X0342795Y0113251D02*
X0342395Y0113251D01*
X0342395Y0111653D02*
X0342795Y0111653D01*
X0317354Y0106857D02*
X0309836Y0106857D01*
X0310854Y0105259D02*
X0316337Y0105259D01*
X0316244Y0103660D02*
X0310946Y0103660D01*
X0310059Y0102062D02*
X0317131Y0102062D01*
X0314998Y0097696D02*
X0313763Y0098207D01*
X0312427Y0098207D01*
X0311192Y0097696D01*
X0310247Y0096751D01*
X0309736Y0095516D01*
X0309736Y0094180D01*
X0310247Y0092945D01*
X0311192Y0092000D01*
X0312427Y0091489D01*
X0313763Y0091489D01*
X0314998Y0092000D01*
X0315943Y0092945D01*
X0316454Y0094180D01*
X0316454Y0095516D01*
X0315943Y0096751D01*
X0314998Y0097696D01*
X0315427Y0097266D02*
X0319863Y0097266D01*
X0318506Y0095668D02*
X0316391Y0095668D01*
X0316408Y0094069D02*
X0318236Y0094069D01*
X0318737Y0092471D02*
X0315468Y0092471D01*
X0310722Y0092471D02*
X0290468Y0092471D01*
X0289998Y0092000D02*
X0290943Y0092945D01*
X0291454Y0094180D01*
X0291454Y0095516D01*
X0290943Y0096751D01*
X0289998Y0097696D01*
X0288763Y0098207D01*
X0287427Y0098207D01*
X0286192Y0097696D01*
X0285247Y0096751D01*
X0284736Y0095516D01*
X0284736Y0094180D01*
X0285247Y0092945D01*
X0286192Y0092000D01*
X0287427Y0091489D01*
X0288763Y0091489D01*
X0289998Y0092000D01*
X0291408Y0094069D02*
X0309782Y0094069D01*
X0309799Y0095668D02*
X0291391Y0095668D01*
X0290427Y0097266D02*
X0310763Y0097266D01*
X0285763Y0097266D02*
X0269454Y0097266D01*
X0269103Y0098865D02*
X0410732Y0098865D01*
X0410732Y0100463D02*
X0267352Y0100463D01*
X0264838Y0100463D02*
X0259864Y0100463D01*
X0258862Y0098865D02*
X0263088Y0098865D01*
X0262736Y0097266D02*
X0257454Y0097266D01*
X0256665Y0095668D02*
X0263155Y0095668D01*
X0261566Y0094069D02*
X0207096Y0094069D01*
X0205094Y0094069D02*
X0201096Y0094069D01*
X0199094Y0094069D02*
X0198701Y0094069D01*
X0198954Y0095668D02*
X0245525Y0095668D01*
X0250665Y0095668D02*
X0251525Y0095668D01*
X0260424Y0092471D02*
X0209059Y0092471D01*
X0209454Y0090872D02*
X0260236Y0090872D01*
X0260919Y0089274D02*
X0209079Y0089274D01*
X0207213Y0087675D02*
X0263238Y0087675D01*
X0263675Y0086077D02*
X0194117Y0086077D01*
X0194443Y0085751D02*
X0193498Y0086696D01*
X0192263Y0087207D01*
X0190927Y0087207D01*
X0189692Y0086696D01*
X0188747Y0085751D01*
X0188236Y0084516D01*
X0188236Y0083180D01*
X0188747Y0081945D01*
X0189692Y0081000D01*
X0190927Y0080489D01*
X0192263Y0080489D01*
X0193498Y0081000D01*
X0194443Y0081945D01*
X0194954Y0083180D01*
X0194954Y0084516D01*
X0194443Y0085751D01*
X0194954Y0084478D02*
X0263236Y0084478D01*
X0263568Y0082880D02*
X0241314Y0082880D01*
X0240998Y0083196D02*
X0239763Y0083707D01*
X0238427Y0083707D01*
X0237192Y0083196D01*
X0236247Y0082251D01*
X0235736Y0081016D01*
X0235736Y0079680D01*
X0236247Y0078445D01*
X0237192Y0077500D01*
X0238427Y0076989D01*
X0239763Y0076989D01*
X0240998Y0077500D01*
X0241943Y0078445D01*
X0242454Y0079680D01*
X0242454Y0081016D01*
X0241943Y0082251D01*
X0240998Y0083196D01*
X0242344Y0081281D02*
X0263346Y0081281D01*
X0263236Y0079683D02*
X0242454Y0079683D01*
X0241582Y0078084D02*
X0264109Y0078084D01*
X0269082Y0078084D02*
X0291971Y0078084D01*
X0291736Y0076486D02*
X0206454Y0076486D01*
X0206454Y0076516D02*
X0205943Y0077751D01*
X0204998Y0078696D01*
X0203763Y0079207D01*
X0202427Y0079207D01*
X0201192Y0078696D01*
X0200247Y0077751D01*
X0199736Y0076516D01*
X0199736Y0075180D01*
X0200247Y0073945D01*
X0201192Y0073000D01*
X0202427Y0072489D01*
X0203763Y0072489D01*
X0204998Y0073000D01*
X0205943Y0073945D01*
X0206454Y0075180D01*
X0206454Y0076516D01*
X0206333Y0074887D02*
X0292306Y0074887D01*
X0264285Y0073288D02*
X0232142Y0073288D01*
X0233305Y0071690D02*
X0263308Y0071690D01*
X0262088Y0070091D02*
X0233683Y0070091D01*
X0233478Y0068493D02*
X0244807Y0068493D01*
X0247395Y0068493D02*
X0247795Y0068493D01*
X0247795Y0069435D02*
X0247795Y0065048D01*
X0252183Y0065048D01*
X0252183Y0065209D01*
X0252070Y0065922D01*
X0251846Y0066609D01*
X0251519Y0067252D01*
X0251094Y0067837D01*
X0250584Y0068347D01*
X0249999Y0068772D01*
X0249356Y0069099D01*
X0248669Y0069322D01*
X0247956Y0069435D01*
X0247795Y0069435D01*
X0247795Y0066894D02*
X0247395Y0066894D01*
X0247395Y0065296D02*
X0247795Y0065296D01*
X0247795Y0063697D02*
X0247395Y0063697D01*
X0247395Y0062099D02*
X0247795Y0062099D01*
X0251268Y0062099D02*
X0253342Y0062099D01*
X0252680Y0063697D02*
X0252045Y0063697D01*
X0252169Y0065296D02*
X0252614Y0065296D01*
X0253051Y0066894D02*
X0251701Y0066894D01*
X0250383Y0068493D02*
X0254196Y0068493D01*
X0262510Y0063697D02*
X0262536Y0063697D01*
X0262901Y0062099D02*
X0261848Y0062099D01*
X0261970Y0057303D02*
X0324236Y0057303D01*
X0324433Y0055705D02*
X0262576Y0055705D01*
X0262576Y0054106D02*
X0325188Y0054106D01*
X0324736Y0052508D02*
X0289244Y0052508D01*
X0286946Y0052508D02*
X0262017Y0052508D01*
X0260701Y0050909D02*
X0285106Y0050909D01*
X0284736Y0049311D02*
X0280883Y0049311D01*
X0281454Y0047712D02*
X0281732Y0047712D01*
X0275308Y0049311D02*
X0259837Y0049311D01*
X0266959Y0047712D02*
X0274736Y0047712D01*
X0274971Y0046114D02*
X0267454Y0046114D01*
X0278182Y0036523D02*
X0320982Y0036523D01*
X0323208Y0036523D02*
X0328982Y0036523D01*
X0327112Y0034924D02*
X0325078Y0034924D01*
X0319112Y0034924D02*
X0276814Y0034924D01*
X0291053Y0047712D02*
X0292209Y0047712D01*
X0291454Y0049311D02*
X0326650Y0049311D01*
X0325055Y0050909D02*
X0291084Y0050909D01*
X0308500Y0046114D02*
X0314691Y0046114D01*
X0314236Y0044515D02*
X0308954Y0044515D01*
X0308638Y0042917D02*
X0314552Y0042917D01*
X0316132Y0041318D02*
X0307058Y0041318D01*
X0319058Y0041318D02*
X0320374Y0041318D01*
X0320500Y0046114D02*
X0321110Y0046114D01*
X0329540Y0049311D02*
X0335236Y0049311D01*
X0335606Y0050909D02*
X0331135Y0050909D01*
X0331454Y0052508D02*
X0337446Y0052508D01*
X0340103Y0054106D02*
X0331003Y0054106D01*
X0330392Y0066894D02*
X0381840Y0066894D01*
X0380218Y0068493D02*
X0330954Y0068493D01*
X0330716Y0070091D02*
X0379373Y0070091D01*
X0379049Y0073288D02*
X0328986Y0073288D01*
X0330626Y0074887D02*
X0379490Y0074887D01*
X0380435Y0076486D02*
X0330954Y0076486D01*
X0330512Y0078084D02*
X0382305Y0078084D01*
X0362984Y0082880D02*
X0355954Y0082880D01*
X0355556Y0084478D02*
X0361527Y0084478D01*
X0384795Y0057303D02*
X0386395Y0057303D01*
X0386395Y0055705D02*
X0384795Y0055705D01*
X0384795Y0050909D02*
X0386395Y0050909D01*
X0386395Y0049311D02*
X0384795Y0049311D01*
X0384795Y0047712D02*
X0386395Y0047712D01*
X0390311Y0047712D02*
X0400880Y0047712D01*
X0399713Y0049311D02*
X0391477Y0049311D01*
X0392055Y0050909D02*
X0399135Y0050909D01*
X0401002Y0057303D02*
X0401199Y0057303D01*
X0401311Y0031727D02*
X0410732Y0031727D01*
X0410732Y0030129D02*
X0401938Y0030129D01*
X0401938Y0028530D02*
X0410732Y0028530D01*
X0410732Y0026932D02*
X0401295Y0026932D01*
X0399252Y0025333D02*
X0410732Y0025333D01*
X0410732Y0023735D02*
X0357938Y0023735D01*
X0357794Y0022136D02*
X0410732Y0022136D01*
X0410732Y0020538D02*
X0356927Y0020538D01*
X0350263Y0020538D02*
X0329838Y0020538D01*
X0329891Y0020410D02*
X0329380Y0021644D01*
X0328435Y0022589D01*
X0327200Y0023101D01*
X0325864Y0023101D01*
X0324629Y0022589D01*
X0324312Y0022272D01*
X0323263Y0022707D01*
X0321927Y0022707D01*
X0320692Y0022196D01*
X0319747Y0021251D01*
X0319236Y0020016D01*
X0319236Y0018680D01*
X0319747Y0017445D01*
X0320692Y0016500D01*
X0321927Y0015989D01*
X0323263Y0015989D01*
X0324498Y0016500D01*
X0324815Y0016817D01*
X0325864Y0016383D01*
X0327200Y0016383D01*
X0328435Y0016894D01*
X0329380Y0017839D01*
X0329891Y0019074D01*
X0329891Y0020410D01*
X0329835Y0018939D02*
X0410732Y0018939D01*
X0410732Y0017341D02*
X0328881Y0017341D01*
X0328888Y0022136D02*
X0349396Y0022136D01*
X0356154Y0026932D02*
X0393895Y0026932D01*
X0393252Y0028530D02*
X0354307Y0028530D01*
X0357474Y0025333D02*
X0395938Y0025333D01*
X0410732Y0015742D02*
X0170361Y0015742D01*
X0170439Y0014144D02*
X0410732Y0014144D01*
X0410732Y0012545D02*
X0169543Y0012545D01*
X0169353Y0017341D02*
X0307852Y0017341D01*
X0307236Y0018939D02*
X0166854Y0018939D01*
X0166945Y0020538D02*
X0216485Y0020538D01*
X0214827Y0022136D02*
X0166057Y0022136D01*
X0163864Y0023735D02*
X0214165Y0023735D01*
X0217226Y0030129D02*
X0217472Y0030129D01*
X0223019Y0031727D02*
X0225172Y0031727D01*
X0224334Y0033326D02*
X0223856Y0033326D01*
X0224076Y0034924D02*
X0224114Y0034924D01*
X0224397Y0036523D02*
X0223793Y0036523D01*
X0222866Y0038121D02*
X0225324Y0038121D01*
X0227840Y0039720D02*
X0220350Y0039720D01*
X0219295Y0041318D02*
X0218895Y0041318D01*
X0218895Y0042917D02*
X0219295Y0042917D01*
X0219295Y0044515D02*
X0218895Y0044515D01*
X0219295Y0045048D02*
X0223683Y0045048D01*
X0223683Y0045209D01*
X0223570Y0045922D01*
X0223346Y0046609D01*
X0223019Y0047252D01*
X0222594Y0047837D01*
X0222084Y0048347D01*
X0221499Y0048772D01*
X0220856Y0049099D01*
X0220169Y0049322D01*
X0219456Y0049435D01*
X0219295Y0049435D01*
X0219295Y0045048D01*
X0219295Y0046114D02*
X0218895Y0046114D01*
X0218895Y0047712D02*
X0219295Y0047712D01*
X0219295Y0049311D02*
X0218895Y0049311D01*
X0220205Y0049311D02*
X0226853Y0049311D01*
X0224915Y0047712D02*
X0222684Y0047712D01*
X0223507Y0046114D02*
X0224228Y0046114D01*
X0224114Y0044515D02*
X0223683Y0044515D01*
X0223260Y0042917D02*
X0224504Y0042917D01*
X0225581Y0041318D02*
X0222041Y0041318D01*
X0230350Y0039720D02*
X0246340Y0039720D01*
X0236218Y0044515D02*
X0234076Y0044515D01*
X0233962Y0046114D02*
X0235736Y0046114D01*
X0236024Y0047712D02*
X0233275Y0047712D01*
X0231337Y0049311D02*
X0237470Y0049311D01*
X0243173Y0052508D02*
X0208751Y0052508D01*
X0211996Y0055705D02*
X0216194Y0055705D01*
X0214758Y0057303D02*
X0213433Y0057303D01*
X0214076Y0058902D02*
X0214114Y0058902D01*
X0214076Y0060500D02*
X0214114Y0060500D01*
X0214636Y0062099D02*
X0213554Y0062099D01*
X0212290Y0063697D02*
X0215900Y0063697D01*
X0217069Y0065296D02*
X0211122Y0065296D01*
X0213186Y0066894D02*
X0215004Y0066894D01*
X0214265Y0068493D02*
X0213925Y0068493D01*
X0214076Y0070091D02*
X0214114Y0070091D01*
X0214467Y0071690D02*
X0213724Y0071690D01*
X0212699Y0073288D02*
X0215491Y0073288D01*
X0222699Y0073288D02*
X0226048Y0073288D01*
X0224885Y0071690D02*
X0223724Y0071690D01*
X0224076Y0070091D02*
X0224508Y0070091D01*
X0224712Y0068493D02*
X0223925Y0068493D01*
X0223186Y0066894D02*
X0225571Y0066894D01*
X0228895Y0066894D02*
X0229295Y0066894D01*
X0229295Y0068493D02*
X0228895Y0068493D01*
X0228895Y0070091D02*
X0229295Y0070091D01*
X0229295Y0071690D02*
X0228895Y0071690D01*
X0228895Y0073288D02*
X0229295Y0073288D01*
X0236609Y0078084D02*
X0205610Y0078084D01*
X0200581Y0078084D02*
X0192560Y0078084D01*
X0194553Y0076486D02*
X0199736Y0076486D01*
X0199857Y0074887D02*
X0194954Y0074887D01*
X0194585Y0073288D02*
X0200904Y0073288D01*
X0205286Y0073288D02*
X0205491Y0073288D01*
X0193779Y0081281D02*
X0235846Y0081281D01*
X0235736Y0079683D02*
X0182041Y0079683D01*
X0182454Y0081281D02*
X0189412Y0081281D01*
X0188360Y0082880D02*
X0182097Y0082880D01*
X0180944Y0084478D02*
X0188236Y0084478D01*
X0189073Y0086077D02*
X0182204Y0086077D01*
X0182454Y0087675D02*
X0198978Y0087675D01*
X0201213Y0087675D02*
X0204978Y0087675D01*
X0203111Y0089274D02*
X0203079Y0089274D01*
X0203059Y0092471D02*
X0203131Y0092471D01*
X0212862Y0098865D02*
X0226328Y0098865D01*
X0225326Y0100463D02*
X0213454Y0100463D01*
X0213228Y0102062D02*
X0225255Y0102062D01*
X0226157Y0103660D02*
X0212033Y0103660D01*
X0201162Y0106857D02*
X0250736Y0106857D01*
X0251434Y0105259D02*
X0200050Y0105259D01*
X0201576Y0108456D02*
X0248243Y0108456D01*
X0247736Y0110054D02*
X0201487Y0110054D01*
X0200825Y0111653D02*
X0248000Y0111653D01*
X0262634Y0114850D02*
X0266081Y0114850D01*
X0267802Y0116448D02*
X0264151Y0116448D01*
X0264454Y0118047D02*
X0291249Y0118047D01*
X0292142Y0119645D02*
X0279643Y0119645D01*
X0275547Y0119645D02*
X0263986Y0119645D01*
X0288454Y0134032D02*
X0307797Y0134032D01*
X0307783Y0135630D02*
X0288200Y0135630D01*
X0286918Y0137229D02*
X0308726Y0137229D01*
X0305872Y0140426D02*
X0251954Y0140426D01*
X0251169Y0142024D02*
X0304508Y0142024D01*
X0304236Y0143623D02*
X0281121Y0143623D01*
X0280998Y0143500D02*
X0281943Y0144445D01*
X0282454Y0145680D01*
X0282454Y0147016D01*
X0281943Y0148251D01*
X0280998Y0149196D01*
X0279763Y0149707D01*
X0278427Y0149707D01*
X0277192Y0149196D01*
X0276247Y0148251D01*
X0275736Y0147016D01*
X0275736Y0145680D01*
X0276247Y0144445D01*
X0277192Y0143500D01*
X0278427Y0142989D01*
X0279763Y0142989D01*
X0280998Y0143500D01*
X0282264Y0145221D02*
X0304735Y0145221D01*
X0305263Y0153489D02*
X0306498Y0154000D01*
X0307443Y0154945D01*
X0307954Y0156180D01*
X0307954Y0157516D01*
X0307443Y0158751D01*
X0306498Y0159696D01*
X0305263Y0160207D01*
X0303927Y0160207D01*
X0302692Y0159696D01*
X0301747Y0158751D01*
X0301236Y0157516D01*
X0301236Y0156180D01*
X0301747Y0154945D01*
X0302692Y0154000D01*
X0303927Y0153489D01*
X0305263Y0153489D01*
X0307310Y0154813D02*
X0333809Y0154813D01*
X0333747Y0154751D02*
X0333236Y0153516D01*
X0333236Y0152180D01*
X0333747Y0150945D01*
X0334692Y0150000D01*
X0335927Y0149489D01*
X0337263Y0149489D01*
X0338498Y0150000D01*
X0339443Y0150945D01*
X0339954Y0152180D01*
X0339954Y0153516D01*
X0339443Y0154751D01*
X0338498Y0155696D01*
X0337263Y0156207D01*
X0335927Y0156207D01*
X0334692Y0155696D01*
X0333747Y0154751D01*
X0333236Y0153214D02*
X0249454Y0153214D01*
X0249454Y0153516D02*
X0248943Y0154751D01*
X0247998Y0155696D01*
X0246763Y0156207D01*
X0245427Y0156207D01*
X0244192Y0155696D01*
X0243247Y0154751D01*
X0242736Y0153516D01*
X0242736Y0152180D01*
X0243247Y0150945D01*
X0244192Y0150000D01*
X0245427Y0149489D01*
X0246763Y0149489D01*
X0247998Y0150000D01*
X0248943Y0150945D01*
X0249454Y0152180D01*
X0249454Y0153516D01*
X0248881Y0154813D02*
X0301880Y0154813D01*
X0301236Y0156411D02*
X0243454Y0156411D01*
X0243454Y0156180D02*
X0242943Y0154945D01*
X0241998Y0154000D01*
X0240763Y0153489D01*
X0239427Y0153489D01*
X0238192Y0154000D01*
X0237247Y0154945D01*
X0236736Y0156180D01*
X0236736Y0157516D01*
X0237247Y0158751D01*
X0238192Y0159696D01*
X0239427Y0160207D01*
X0240763Y0160207D01*
X0241998Y0159696D01*
X0242943Y0158751D01*
X0243454Y0157516D01*
X0243454Y0156180D01*
X0243309Y0154813D02*
X0242810Y0154813D01*
X0242736Y0153214D02*
X0168372Y0153214D01*
X0168454Y0153016D02*
X0167943Y0154251D01*
X0166998Y0155196D01*
X0165763Y0155707D01*
X0164454Y0155707D01*
X0164454Y0156016D01*
X0163943Y0157251D01*
X0162998Y0158196D01*
X0161763Y0158707D01*
X0160427Y0158707D01*
X0159192Y0158196D01*
X0158247Y0157251D01*
X0157736Y0156016D01*
X0157736Y0155707D01*
X0156954Y0155707D01*
X0156954Y0156016D01*
X0156443Y0157251D01*
X0155498Y0158196D01*
X0154263Y0158707D01*
X0152927Y0158707D01*
X0151692Y0158196D01*
X0150747Y0157251D01*
X0150236Y0156016D01*
X0150236Y0155707D01*
X0148954Y0155707D01*
X0148954Y0156016D01*
X0148443Y0157251D01*
X0147498Y0158196D01*
X0146263Y0158707D01*
X0144927Y0158707D01*
X0143692Y0158196D01*
X0142747Y0157251D01*
X0142236Y0156016D01*
X0142236Y0155707D01*
X0141454Y0155707D01*
X0141454Y0156016D01*
X0140943Y0157251D01*
X0139998Y0158196D01*
X0138763Y0158707D01*
X0137427Y0158707D01*
X0136192Y0158196D01*
X0135247Y0157251D01*
X0134736Y0156016D01*
X0134736Y0155304D01*
X0133763Y0155707D01*
X0132427Y0155707D01*
X0131192Y0155196D01*
X0130247Y0154251D01*
X0129736Y0153016D01*
X0129736Y0151680D01*
X0130247Y0150445D01*
X0131192Y0149500D01*
X0132427Y0148989D01*
X0133763Y0148989D01*
X0134998Y0149500D01*
X0135943Y0150445D01*
X0136454Y0151680D01*
X0136454Y0152392D01*
X0137427Y0151989D01*
X0138236Y0151989D01*
X0138236Y0151680D01*
X0138747Y0150445D01*
X0139692Y0149500D01*
X0140927Y0148989D01*
X0142263Y0148989D01*
X0143498Y0149500D01*
X0144443Y0150445D01*
X0144954Y0151680D01*
X0144954Y0151989D01*
X0146236Y0151989D01*
X0146236Y0151680D01*
X0146747Y0150445D01*
X0147692Y0149500D01*
X0148927Y0148989D01*
X0150263Y0148989D01*
X0151498Y0149500D01*
X0152443Y0150445D01*
X0152954Y0151680D01*
X0152954Y0151989D01*
X0153736Y0151989D01*
X0153736Y0151680D01*
X0154247Y0150445D01*
X0155192Y0149500D01*
X0156427Y0148989D01*
X0157763Y0148989D01*
X0158998Y0149500D01*
X0159943Y0150445D01*
X0160454Y0151680D01*
X0160454Y0151989D01*
X0161736Y0151989D01*
X0161736Y0151680D01*
X0162247Y0150445D01*
X0163192Y0149500D01*
X0164427Y0148989D01*
X0165763Y0148989D01*
X0166998Y0149500D01*
X0167943Y0150445D01*
X0168454Y0151680D01*
X0168454Y0153016D01*
X0168428Y0151616D02*
X0242970Y0151616D01*
X0244176Y0150017D02*
X0167515Y0150017D01*
X0162676Y0150017D02*
X0159515Y0150017D01*
X0160428Y0151616D02*
X0161763Y0151616D01*
X0164291Y0156411D02*
X0236736Y0156411D01*
X0236940Y0158010D02*
X0231007Y0158010D01*
X0230998Y0158000D02*
X0231943Y0158945D01*
X0232454Y0160180D01*
X0232454Y0161516D01*
X0231943Y0162751D01*
X0230998Y0163696D01*
X0229763Y0164207D01*
X0228427Y0164207D01*
X0227192Y0163696D01*
X0226247Y0162751D01*
X0225736Y0161516D01*
X0225736Y0160180D01*
X0226247Y0158945D01*
X0227192Y0158000D01*
X0228427Y0157489D01*
X0229763Y0157489D01*
X0230998Y0158000D01*
X0232217Y0159608D02*
X0238105Y0159608D01*
X0242085Y0159608D02*
X0249236Y0159608D01*
X0249236Y0159180D02*
X0249747Y0157945D01*
X0250692Y0157000D01*
X0251927Y0156489D01*
X0253263Y0156489D01*
X0254498Y0157000D01*
X0255443Y0157945D01*
X0255954Y0159180D01*
X0255954Y0160516D01*
X0255443Y0161751D01*
X0254498Y0162696D01*
X0253263Y0163207D01*
X0251927Y0163207D01*
X0250692Y0162696D01*
X0249747Y0161751D01*
X0249236Y0160516D01*
X0249236Y0159180D01*
X0249721Y0158010D02*
X0243250Y0158010D01*
X0237380Y0154813D02*
X0167381Y0154813D01*
X0163184Y0158010D02*
X0227183Y0158010D01*
X0225973Y0159608D02*
X0189551Y0159608D01*
X0189263Y0159489D02*
X0190498Y0160000D01*
X0191443Y0160945D01*
X0191954Y0162180D01*
X0191954Y0162489D01*
X0192263Y0162489D01*
X0193498Y0163000D01*
X0194443Y0163945D01*
X0194954Y0165180D01*
X0194954Y0166516D01*
X0194443Y0167751D01*
X0193498Y0168696D01*
X0192263Y0169207D01*
X0190927Y0169207D01*
X0189692Y0168696D01*
X0188747Y0167751D01*
X0188595Y0167383D01*
X0188443Y0167751D01*
X0187498Y0168696D01*
X0186263Y0169207D01*
X0184927Y0169207D01*
X0183692Y0168696D01*
X0182747Y0167751D01*
X0182236Y0166516D01*
X0182236Y0166207D01*
X0181927Y0166207D01*
X0180692Y0165696D01*
X0179747Y0164751D01*
X0179236Y0163516D01*
X0179236Y0162180D01*
X0179747Y0160945D01*
X0180692Y0160000D01*
X0181927Y0159489D01*
X0183263Y0159489D01*
X0184498Y0160000D01*
X0185443Y0160945D01*
X0185595Y0161313D01*
X0185747Y0160945D01*
X0186692Y0160000D01*
X0187927Y0159489D01*
X0189263Y0159489D01*
X0187639Y0159608D02*
X0183551Y0159608D01*
X0181639Y0159608D02*
X0068395Y0159608D01*
X0068395Y0160148D02*
X0077422Y0160148D01*
X0077326Y0161001D01*
X0077080Y0162081D01*
X0076714Y0163125D01*
X0076234Y0164123D01*
X0075645Y0165060D01*
X0074955Y0165925D01*
X0074172Y0166708D01*
X0073307Y0167398D01*
X0072370Y0167987D01*
X0071372Y0168467D01*
X0070328Y0168833D01*
X0069249Y0169079D01*
X0068395Y0169175D01*
X0068395Y0160148D01*
X0066795Y0160148D01*
X0066795Y0158548D01*
X0057768Y0158548D01*
X0057864Y0157695D01*
X0058110Y0156615D01*
X0058476Y0155571D01*
X0058956Y0154573D01*
X0059545Y0153636D01*
X0060235Y0152771D01*
X0061018Y0151988D01*
X0061883Y0151298D01*
X0062821Y0150709D01*
X0063818Y0150229D01*
X0064863Y0149863D01*
X0065942Y0149617D01*
X0066795Y0149521D01*
X0066795Y0158548D01*
X0068395Y0158548D01*
X0068395Y0149521D01*
X0069249Y0149617D01*
X0070328Y0149863D01*
X0071372Y0150229D01*
X0072370Y0150709D01*
X0073307Y0151298D01*
X0074172Y0151988D01*
X0074955Y0152771D01*
X0075645Y0153636D01*
X0076234Y0154573D01*
X0076714Y0155571D01*
X0077080Y0156615D01*
X0077326Y0157695D01*
X0077422Y0158548D01*
X0068395Y0158548D01*
X0068395Y0160148D01*
X0068395Y0161207D02*
X0066795Y0161207D01*
X0066795Y0160148D02*
X0066795Y0169175D01*
X0065942Y0169079D01*
X0064863Y0168833D01*
X0063818Y0168467D01*
X0062821Y0167987D01*
X0061883Y0167398D01*
X0061018Y0166708D01*
X0060235Y0165925D01*
X0059545Y0165060D01*
X0058956Y0164123D01*
X0058476Y0163125D01*
X0058110Y0162081D01*
X0057864Y0161001D01*
X0057768Y0160148D01*
X0066795Y0160148D01*
X0066795Y0159608D02*
X0051414Y0159608D01*
X0051414Y0158010D02*
X0057828Y0158010D01*
X0058182Y0156411D02*
X0051414Y0156411D01*
X0051414Y0154813D02*
X0058841Y0154813D01*
X0059882Y0153214D02*
X0051414Y0153214D01*
X0051414Y0151616D02*
X0061485Y0151616D01*
X0064423Y0150017D02*
X0051414Y0150017D01*
X0051414Y0148419D02*
X0224230Y0148419D01*
X0222569Y0146820D02*
X0051414Y0146820D01*
X0051414Y0145221D02*
X0222236Y0145221D01*
X0222674Y0143623D02*
X0051414Y0143623D01*
X0051682Y0142024D02*
X0132521Y0142024D01*
X0131736Y0140426D02*
X0052034Y0140426D01*
X0052385Y0138827D02*
X0131882Y0138827D01*
X0132964Y0137229D02*
X0052737Y0137229D01*
X0054494Y0129236D02*
X0307420Y0129236D01*
X0308555Y0127638D02*
X0294990Y0127638D01*
X0312635Y0127638D02*
X0328841Y0127638D01*
X0346350Y0127638D02*
X0352555Y0127638D01*
X0378692Y0148000D02*
X0379927Y0147489D01*
X0381263Y0147489D01*
X0382498Y0148000D01*
X0383443Y0148945D01*
X0383954Y0150180D01*
X0383954Y0151516D01*
X0383443Y0152751D01*
X0382498Y0153696D01*
X0381263Y0154207D01*
X0379927Y0154207D01*
X0378692Y0153696D01*
X0377747Y0152751D01*
X0377236Y0151516D01*
X0377236Y0150180D01*
X0377747Y0148945D01*
X0378692Y0148000D01*
X0378274Y0148419D02*
X0281775Y0148419D01*
X0282454Y0146820D02*
X0410732Y0146820D01*
X0410732Y0148419D02*
X0382916Y0148419D01*
X0383887Y0150017D02*
X0393423Y0150017D01*
X0393863Y0149863D02*
X0394942Y0149617D01*
X0395795Y0149521D01*
X0395795Y0158548D01*
X0386768Y0158548D01*
X0386864Y0157695D01*
X0387110Y0156615D01*
X0387476Y0155571D01*
X0387956Y0154573D01*
X0388545Y0153636D01*
X0389235Y0152771D01*
X0390018Y0151988D01*
X0390883Y0151298D01*
X0391821Y0150709D01*
X0392818Y0150229D01*
X0393863Y0149863D01*
X0395795Y0150017D02*
X0397395Y0150017D01*
X0397395Y0149521D02*
X0398249Y0149617D01*
X0399328Y0149863D01*
X0400372Y0150229D01*
X0401370Y0150709D01*
X0402307Y0151298D01*
X0403172Y0151988D01*
X0403955Y0152771D01*
X0404645Y0153636D01*
X0405234Y0154573D01*
X0405714Y0155571D01*
X0406080Y0156615D01*
X0406326Y0157695D01*
X0406422Y0158548D01*
X0397395Y0158548D01*
X0397395Y0149521D01*
X0397395Y0151616D02*
X0395795Y0151616D01*
X0395795Y0153214D02*
X0397395Y0153214D01*
X0397395Y0154813D02*
X0395795Y0154813D01*
X0395795Y0156411D02*
X0397395Y0156411D01*
X0397395Y0158010D02*
X0395795Y0158010D01*
X0395795Y0158548D02*
X0397395Y0158548D01*
X0397395Y0160148D01*
X0395795Y0160148D01*
X0395795Y0158548D01*
X0395795Y0159608D02*
X0362606Y0159608D01*
X0362943Y0159945D02*
X0361998Y0159000D01*
X0360763Y0158489D01*
X0359427Y0158489D01*
X0358192Y0159000D01*
X0357247Y0159945D01*
X0356736Y0161180D01*
X0356736Y0162516D01*
X0357247Y0163751D01*
X0358012Y0164515D01*
X0357736Y0165180D01*
X0357736Y0166516D01*
X0358247Y0167751D01*
X0359192Y0168696D01*
X0360427Y0169207D01*
X0361763Y0169207D01*
X0362998Y0168696D01*
X0363943Y0167751D01*
X0364454Y0166516D01*
X0364454Y0165180D01*
X0363943Y0163945D01*
X0363179Y0163181D01*
X0363454Y0162516D01*
X0363454Y0161180D01*
X0362943Y0159945D01*
X0363454Y0161207D02*
X0386911Y0161207D01*
X0386864Y0161001D02*
X0387110Y0162081D01*
X0387476Y0163125D01*
X0387956Y0164123D01*
X0388545Y0165060D01*
X0389235Y0165925D01*
X0390018Y0166708D01*
X0390883Y0167398D01*
X0391821Y0167987D01*
X0392818Y0168467D01*
X0393863Y0168833D01*
X0394942Y0169079D01*
X0395795Y0169175D01*
X0395795Y0160148D01*
X0386768Y0160148D01*
X0386864Y0161001D01*
X0387364Y0162805D02*
X0379303Y0162805D01*
X0378998Y0162500D02*
X0379943Y0163445D01*
X0380454Y0164680D01*
X0380454Y0166016D01*
X0379943Y0167251D01*
X0378998Y0168196D01*
X0377763Y0168707D01*
X0376427Y0168707D01*
X0375192Y0168196D01*
X0374247Y0167251D01*
X0374095Y0166883D01*
X0373943Y0167251D01*
X0372998Y0168196D01*
X0371763Y0168707D01*
X0370427Y0168707D01*
X0369192Y0168196D01*
X0368247Y0167251D01*
X0367736Y0166016D01*
X0367736Y0164680D01*
X0368247Y0163445D01*
X0369192Y0162500D01*
X0370427Y0161989D01*
X0371763Y0161989D01*
X0372998Y0162500D01*
X0373943Y0163445D01*
X0374095Y0163813D01*
X0374247Y0163445D01*
X0375192Y0162500D01*
X0376427Y0161989D01*
X0377763Y0161989D01*
X0378998Y0162500D01*
X0380340Y0164404D02*
X0388133Y0164404D01*
X0389312Y0166002D02*
X0380454Y0166002D01*
X0379593Y0167601D02*
X0391206Y0167601D01*
X0395795Y0167601D02*
X0397395Y0167601D01*
X0397395Y0169175D02*
X0398249Y0169079D01*
X0399328Y0168833D01*
X0400372Y0168467D01*
X0401370Y0167987D01*
X0402307Y0167398D01*
X0403172Y0166708D01*
X0403955Y0165925D01*
X0404645Y0165060D01*
X0405234Y0164123D01*
X0405714Y0163125D01*
X0406080Y0162081D01*
X0406326Y0161001D01*
X0406422Y0160148D01*
X0397395Y0160148D01*
X0397395Y0169175D01*
X0397395Y0166002D02*
X0395795Y0166002D01*
X0395795Y0164404D02*
X0397395Y0164404D01*
X0397395Y0162805D02*
X0395795Y0162805D01*
X0395795Y0161207D02*
X0397395Y0161207D01*
X0397395Y0159608D02*
X0410732Y0159608D01*
X0410732Y0158010D02*
X0406362Y0158010D01*
X0406008Y0156411D02*
X0410732Y0156411D01*
X0410732Y0154813D02*
X0405349Y0154813D01*
X0404309Y0153214D02*
X0410732Y0153214D01*
X0410732Y0151616D02*
X0402705Y0151616D01*
X0399767Y0150017D02*
X0410732Y0150017D01*
X0390485Y0151616D02*
X0383913Y0151616D01*
X0382980Y0153214D02*
X0388882Y0153214D01*
X0387841Y0154813D02*
X0370454Y0154813D01*
X0370454Y0155016D02*
X0369943Y0156251D01*
X0368998Y0157196D01*
X0367763Y0157707D01*
X0366427Y0157707D01*
X0365192Y0157196D01*
X0364247Y0156251D01*
X0363736Y0155016D01*
X0363736Y0153680D01*
X0364247Y0152445D01*
X0365192Y0151500D01*
X0366427Y0150989D01*
X0367763Y0150989D01*
X0368998Y0151500D01*
X0369943Y0152445D01*
X0370454Y0153680D01*
X0370454Y0155016D01*
X0369783Y0156411D02*
X0387182Y0156411D01*
X0386828Y0158010D02*
X0307750Y0158010D01*
X0307954Y0156411D02*
X0364408Y0156411D01*
X0363736Y0154813D02*
X0339381Y0154813D01*
X0339954Y0153214D02*
X0363929Y0153214D01*
X0365077Y0151616D02*
X0339720Y0151616D01*
X0338515Y0150017D02*
X0377304Y0150017D01*
X0377277Y0151616D02*
X0369113Y0151616D01*
X0370261Y0153214D02*
X0378211Y0153214D01*
X0374888Y0162805D02*
X0373303Y0162805D01*
X0368888Y0162805D02*
X0363335Y0162805D01*
X0364133Y0164404D02*
X0367850Y0164404D01*
X0367736Y0166002D02*
X0364454Y0166002D01*
X0364005Y0167601D02*
X0368597Y0167601D01*
X0373593Y0167601D02*
X0374597Y0167601D01*
X0361782Y0169199D02*
X0410732Y0169199D01*
X0410732Y0167601D02*
X0401985Y0167601D01*
X0403878Y0166002D02*
X0410732Y0166002D01*
X0410732Y0164404D02*
X0405058Y0164404D01*
X0405826Y0162805D02*
X0410732Y0162805D01*
X0410732Y0161207D02*
X0406279Y0161207D01*
X0410732Y0170798D02*
X0130749Y0170798D01*
X0130259Y0171287D02*
X0128428Y0172046D01*
X0126447Y0172046D01*
X0124616Y0171287D01*
X0123215Y0169886D01*
X0122516Y0168200D01*
X0121818Y0169886D01*
X0120417Y0171287D01*
X0118586Y0172046D01*
X0116604Y0172046D01*
X0114774Y0171287D01*
X0113372Y0169886D01*
X0112614Y0168055D01*
X0112614Y0166074D01*
X0113372Y0164243D01*
X0114774Y0162842D01*
X0116604Y0162083D01*
X0118586Y0162083D01*
X0120417Y0162842D01*
X0121818Y0164243D01*
X0122516Y0165929D01*
X0123215Y0164243D01*
X0124616Y0162842D01*
X0126447Y0162083D01*
X0128428Y0162083D01*
X0130259Y0162842D01*
X0131660Y0164243D01*
X0132419Y0166074D01*
X0132419Y0168055D01*
X0131660Y0169886D01*
X0130259Y0171287D01*
X0131945Y0169199D02*
X0184908Y0169199D01*
X0186282Y0169199D02*
X0190908Y0169199D01*
X0192282Y0169199D02*
X0360408Y0169199D01*
X0358185Y0167601D02*
X0194505Y0167601D01*
X0194954Y0166002D02*
X0357736Y0166002D01*
X0357900Y0164404D02*
X0194633Y0164404D01*
X0193027Y0162805D02*
X0226302Y0162805D01*
X0225736Y0161207D02*
X0191551Y0161207D01*
X0185639Y0161207D02*
X0185551Y0161207D01*
X0179639Y0161207D02*
X0077279Y0161207D01*
X0076826Y0162805D02*
X0106017Y0162805D01*
X0105992Y0162813D02*
X0106678Y0162590D01*
X0107392Y0162477D01*
X0107553Y0162477D01*
X0107553Y0166864D01*
X0107953Y0166864D01*
X0107953Y0162477D01*
X0108114Y0162477D01*
X0108827Y0162590D01*
X0109514Y0162813D01*
X0110157Y0163141D01*
X0110741Y0163565D01*
X0111252Y0164076D01*
X0111676Y0164660D01*
X0112004Y0165304D01*
X0112227Y0165990D01*
X0112340Y0166704D01*
X0112340Y0166865D01*
X0107953Y0166865D01*
X0107953Y0167265D01*
X0107553Y0167265D01*
X0107553Y0171652D01*
X0107392Y0171652D01*
X0106678Y0171539D01*
X0105992Y0171316D01*
X0105348Y0170988D01*
X0104764Y0170564D01*
X0104254Y0170053D01*
X0103829Y0169469D01*
X0103501Y0168826D01*
X0103278Y0168139D01*
X0103165Y0167426D01*
X0103165Y0167265D01*
X0107553Y0167265D01*
X0107553Y0166865D01*
X0103165Y0166865D01*
X0103165Y0166704D01*
X0103278Y0165990D01*
X0103501Y0165304D01*
X0103829Y0164660D01*
X0104254Y0164076D01*
X0104764Y0163565D01*
X0105348Y0163141D01*
X0105992Y0162813D01*
X0107553Y0162805D02*
X0107953Y0162805D01*
X0109489Y0162805D02*
X0114862Y0162805D01*
X0113306Y0164404D02*
X0111490Y0164404D01*
X0112229Y0166002D02*
X0112644Y0166002D01*
X0112340Y0167265D02*
X0112340Y0167426D01*
X0112227Y0168139D01*
X0112004Y0168826D01*
X0111676Y0169469D01*
X0111252Y0170053D01*
X0110741Y0170564D01*
X0110157Y0170988D01*
X0109514Y0171316D01*
X0108827Y0171539D01*
X0108114Y0171652D01*
X0107953Y0171652D01*
X0107953Y0167265D01*
X0112340Y0167265D01*
X0112312Y0167601D02*
X0112614Y0167601D01*
X0113088Y0169199D02*
X0111814Y0169199D01*
X0110419Y0170798D02*
X0114284Y0170798D01*
X0107953Y0170798D02*
X0107553Y0170798D01*
X0107553Y0169199D02*
X0107953Y0169199D01*
X0107953Y0167601D02*
X0107553Y0167601D01*
X0107553Y0166002D02*
X0107953Y0166002D01*
X0107953Y0164404D02*
X0107553Y0164404D01*
X0104016Y0164404D02*
X0076058Y0164404D01*
X0074878Y0166002D02*
X0103276Y0166002D01*
X0103193Y0167601D02*
X0072985Y0167601D01*
X0068395Y0167601D02*
X0066795Y0167601D01*
X0066795Y0166002D02*
X0068395Y0166002D01*
X0068395Y0164404D02*
X0066795Y0164404D01*
X0066795Y0162805D02*
X0068395Y0162805D01*
X0068395Y0158010D02*
X0066795Y0158010D01*
X0066795Y0156411D02*
X0068395Y0156411D01*
X0068395Y0154813D02*
X0066795Y0154813D01*
X0066795Y0153214D02*
X0068395Y0153214D01*
X0068395Y0151616D02*
X0066795Y0151616D01*
X0066795Y0150017D02*
X0068395Y0150017D01*
X0070767Y0150017D02*
X0117676Y0150017D01*
X0117247Y0150445D02*
X0118192Y0149500D01*
X0119427Y0148989D01*
X0120763Y0148989D01*
X0121998Y0149500D01*
X0122943Y0150445D01*
X0123454Y0151680D01*
X0123454Y0153016D01*
X0122943Y0154251D01*
X0121998Y0155196D01*
X0120763Y0155707D01*
X0119427Y0155707D01*
X0118192Y0155196D01*
X0117247Y0154251D01*
X0116736Y0153016D01*
X0116736Y0151680D01*
X0117247Y0150445D01*
X0116763Y0151616D02*
X0073705Y0151616D01*
X0075309Y0153214D02*
X0116818Y0153214D01*
X0117809Y0154813D02*
X0076349Y0154813D01*
X0077008Y0156411D02*
X0134900Y0156411D01*
X0136006Y0158010D02*
X0077362Y0158010D01*
X0062206Y0167601D02*
X0051414Y0167601D01*
X0051414Y0169199D02*
X0103692Y0169199D01*
X0105086Y0170798D02*
X0051414Y0170798D01*
X0051414Y0172396D02*
X0410732Y0172396D01*
X0410732Y0173995D02*
X0051414Y0173995D01*
X0051414Y0166002D02*
X0060312Y0166002D01*
X0059133Y0164404D02*
X0051414Y0164404D01*
X0051414Y0162805D02*
X0058364Y0162805D01*
X0057911Y0161207D02*
X0051414Y0161207D01*
X0120328Y0162805D02*
X0124705Y0162805D01*
X0123148Y0164404D02*
X0121884Y0164404D01*
X0122102Y0169199D02*
X0122930Y0169199D01*
X0124126Y0170798D02*
X0120906Y0170798D01*
X0132419Y0167601D02*
X0182685Y0167601D01*
X0181432Y0166002D02*
X0132389Y0166002D01*
X0131727Y0164404D02*
X0179604Y0164404D01*
X0179236Y0162805D02*
X0130171Y0162805D01*
X0140184Y0158010D02*
X0143506Y0158010D01*
X0142400Y0156411D02*
X0141291Y0156411D01*
X0138263Y0151616D02*
X0136428Y0151616D01*
X0135515Y0150017D02*
X0139176Y0150017D01*
X0144015Y0150017D02*
X0147176Y0150017D01*
X0146263Y0151616D02*
X0144928Y0151616D01*
X0148791Y0156411D02*
X0150400Y0156411D01*
X0151506Y0158010D02*
X0147684Y0158010D01*
X0155684Y0158010D02*
X0159006Y0158010D01*
X0157900Y0156411D02*
X0156791Y0156411D01*
X0153763Y0151616D02*
X0152928Y0151616D01*
X0152015Y0150017D02*
X0154676Y0150017D01*
X0130676Y0150017D02*
X0122515Y0150017D01*
X0123428Y0151616D02*
X0129763Y0151616D01*
X0129818Y0153214D02*
X0123372Y0153214D01*
X0122381Y0154813D02*
X0130809Y0154813D01*
X0188505Y0167601D02*
X0188685Y0167601D01*
X0226960Y0148419D02*
X0254344Y0148419D01*
X0254236Y0148680D02*
X0254747Y0147445D01*
X0255692Y0146500D01*
X0256927Y0145989D01*
X0258263Y0145989D01*
X0259498Y0146500D01*
X0260443Y0147445D01*
X0260954Y0148680D01*
X0260954Y0150016D01*
X0260443Y0151251D01*
X0259498Y0152196D01*
X0258263Y0152707D01*
X0256927Y0152707D01*
X0255692Y0152196D01*
X0254747Y0151251D01*
X0254236Y0150016D01*
X0254236Y0148680D01*
X0254236Y0150017D02*
X0248015Y0150017D01*
X0249220Y0151616D02*
X0255112Y0151616D01*
X0260078Y0151616D02*
X0333470Y0151616D01*
X0334676Y0150017D02*
X0260954Y0150017D01*
X0260846Y0148419D02*
X0276415Y0148419D01*
X0275736Y0146820D02*
X0259818Y0146820D01*
X0255373Y0146820D02*
X0228621Y0146820D01*
X0228954Y0145221D02*
X0275926Y0145221D01*
X0277070Y0143623D02*
X0228516Y0143623D01*
X0255469Y0158010D02*
X0301440Y0158010D01*
X0302605Y0159608D02*
X0255954Y0159608D01*
X0255668Y0161207D02*
X0356736Y0161207D01*
X0356856Y0162805D02*
X0254234Y0162805D01*
X0250957Y0162805D02*
X0231888Y0162805D01*
X0232454Y0161207D02*
X0249522Y0161207D01*
X0306585Y0159608D02*
X0357585Y0159608D01*
X0390749Y0113251D02*
X0390974Y0113251D01*
X0285722Y0092471D02*
X0266766Y0092471D01*
X0266957Y0094069D02*
X0284782Y0094069D01*
X0284799Y0095668D02*
X0269035Y0095668D01*
X0236876Y0082880D02*
X0194830Y0082880D01*
X0160497Y0060500D02*
X0053396Y0060500D01*
X0052969Y0058902D02*
X0159736Y0058902D01*
X0159892Y0057303D02*
X0052542Y0057303D01*
X0052114Y0055705D02*
X0160988Y0055705D01*
X0173464Y0044515D02*
X0051414Y0044515D01*
X0051414Y0042917D02*
X0142226Y0042917D01*
X0141692Y0042696D02*
X0140747Y0041751D01*
X0140236Y0040516D01*
X0140236Y0039180D01*
X0140747Y0037945D01*
X0141692Y0037000D01*
X0142927Y0036489D01*
X0144263Y0036489D01*
X0145498Y0037000D01*
X0146443Y0037945D01*
X0146954Y0039180D01*
X0146954Y0040516D01*
X0146443Y0041751D01*
X0145498Y0042696D01*
X0144263Y0043207D01*
X0142927Y0043207D01*
X0141692Y0042696D01*
X0140568Y0041318D02*
X0051414Y0041318D01*
X0051414Y0039720D02*
X0140236Y0039720D01*
X0140675Y0038121D02*
X0051414Y0038121D01*
X0051414Y0036523D02*
X0142845Y0036523D01*
X0144345Y0036523D02*
X0157236Y0036523D01*
X0157694Y0038121D02*
X0146516Y0038121D01*
X0146954Y0039720D02*
X0171634Y0039720D01*
X0171236Y0041318D02*
X0146622Y0041318D01*
X0144964Y0042917D02*
X0171609Y0042917D01*
X0173608Y0038121D02*
X0163496Y0038121D01*
X0163954Y0036523D02*
X0172982Y0036523D01*
X0171112Y0034924D02*
X0163641Y0034924D01*
X0162076Y0033326D02*
X0170736Y0033326D01*
X0175565Y0030129D02*
X0177236Y0030129D01*
X0177060Y0031727D02*
X0177738Y0031727D01*
X0177454Y0033326D02*
X0183736Y0033326D01*
X0183738Y0031727D02*
X0183453Y0031727D01*
X0177505Y0028530D02*
X0176741Y0028530D01*
X0176954Y0026932D02*
X0178858Y0026932D01*
X0182332Y0026932D02*
X0184858Y0026932D01*
X0183905Y0034924D02*
X0177078Y0034924D01*
X0162125Y0030129D02*
X0153019Y0030129D01*
X0153241Y0028530D02*
X0160949Y0028530D01*
X0160736Y0026932D02*
X0153454Y0026932D01*
X0152831Y0025333D02*
X0158330Y0025333D01*
X0160140Y0014144D02*
X0152550Y0014144D01*
X0153442Y0012545D02*
X0159248Y0012545D01*
X0115171Y0030129D02*
X0075590Y0030129D01*
X0074148Y0031727D02*
X0114736Y0031727D01*
X0115071Y0033326D02*
X0071667Y0033326D01*
X0068395Y0033326D02*
X0066795Y0033326D01*
X0066795Y0034175D02*
X0065942Y0034079D01*
X0064863Y0033833D01*
X0063818Y0033467D01*
X0062821Y0032987D01*
X0061883Y0032398D01*
X0061018Y0031708D01*
X0060235Y0030925D01*
X0059545Y0030060D01*
X0058956Y0029123D01*
X0058476Y0028125D01*
X0058110Y0027081D01*
X0057864Y0026001D01*
X0057768Y0025148D01*
X0066795Y0025148D01*
X0066795Y0034175D01*
X0063524Y0033326D02*
X0051414Y0033326D01*
X0051414Y0034924D02*
X0116744Y0034924D01*
X0080640Y0025333D02*
X0077402Y0025333D01*
X0080640Y0023735D02*
X0068395Y0023735D01*
X0068395Y0025333D02*
X0066795Y0025333D01*
X0066795Y0023735D02*
X0051414Y0023735D01*
X0051414Y0025333D02*
X0057789Y0025333D01*
X0058076Y0026932D02*
X0051414Y0026932D01*
X0051414Y0028530D02*
X0058671Y0028530D01*
X0059600Y0030129D02*
X0051414Y0030129D01*
X0051414Y0031727D02*
X0061042Y0031727D01*
X0066795Y0031727D02*
X0068395Y0031727D01*
X0068395Y0030129D02*
X0066795Y0030129D01*
X0066795Y0028530D02*
X0068395Y0028530D01*
X0068395Y0026932D02*
X0066795Y0026932D01*
X0066795Y0022136D02*
X0068395Y0022136D01*
X0068395Y0020538D02*
X0066795Y0020538D01*
X0066795Y0018939D02*
X0068395Y0018939D01*
X0068395Y0017341D02*
X0066795Y0017341D01*
X0066795Y0015742D02*
X0068395Y0015742D01*
X0072422Y0015742D02*
X0080640Y0015742D01*
X0080640Y0014144D02*
X0051414Y0014144D01*
X0051414Y0015742D02*
X0062768Y0015742D01*
X0060665Y0017341D02*
X0051414Y0017341D01*
X0051414Y0018939D02*
X0059355Y0018939D01*
X0058492Y0020538D02*
X0051414Y0020538D01*
X0051414Y0022136D02*
X0057991Y0022136D01*
X0074525Y0017341D02*
X0080640Y0017341D01*
X0080640Y0018939D02*
X0075836Y0018939D01*
X0076698Y0020538D02*
X0080640Y0020538D01*
X0080640Y0022136D02*
X0077199Y0022136D01*
X0081102Y0012545D02*
X0051414Y0012545D01*
X0051414Y0049311D02*
X0202882Y0049311D01*
X0202236Y0050909D02*
X0051414Y0050909D01*
X0051414Y0052508D02*
X0202440Y0052508D01*
X0203603Y0054106D02*
X0051687Y0054106D01*
X0220446Y0116448D02*
X0221818Y0116448D01*
X0220745Y0121244D02*
X0220450Y0121244D01*
X0234076Y0058902D02*
X0244605Y0058902D01*
X0243221Y0057303D02*
X0233433Y0057303D01*
X0312557Y0022136D02*
X0320633Y0022136D01*
X0319452Y0020538D02*
X0313738Y0020538D01*
X0313954Y0018939D02*
X0319236Y0018939D01*
X0319852Y0017341D02*
X0313338Y0017341D01*
X0320603Y0025333D02*
X0320860Y0025333D01*
D20*
X0056595Y0071348D02*
X0053595Y0071348D01*
X0053514Y0071358D01*
X0053432Y0071364D01*
X0053351Y0071366D01*
X0053269Y0071364D01*
X0053188Y0071359D01*
X0053107Y0071350D01*
X0053026Y0071337D01*
X0052946Y0071320D01*
X0052867Y0071300D01*
X0052789Y0071276D01*
X0052712Y0071249D01*
X0052636Y0071218D01*
X0052562Y0071183D01*
X0052490Y0071145D01*
X0052419Y0071104D01*
X0052351Y0071060D01*
X0052284Y0071012D01*
X0052220Y0070962D01*
X0052158Y0070908D01*
X0052099Y0070852D01*
X0052042Y0070793D01*
X0051989Y0070732D01*
X0051938Y0070668D01*
X0051890Y0070602D01*
X0051845Y0070534D01*
X0051803Y0070463D01*
X0051765Y0070391D01*
X0051730Y0070317D01*
X0051699Y0070242D01*
X0051671Y0070165D01*
X0051646Y0070087D01*
X0051625Y0070008D01*
X0051608Y0069929D01*
X0051595Y0069848D01*
X0038095Y0019348D01*
X0038063Y0019185D01*
X0038027Y0019023D01*
X0037987Y0018862D01*
X0037943Y0018702D01*
X0037895Y0018543D01*
X0037844Y0018386D01*
X0037788Y0018229D01*
X0037729Y0018074D01*
X0037666Y0017921D01*
X0037600Y0017769D01*
X0037530Y0017619D01*
X0037456Y0017470D01*
X0037379Y0017323D01*
X0037298Y0017178D01*
X0037213Y0017036D01*
X0037126Y0016895D01*
X0037034Y0016756D01*
X0036940Y0016620D01*
X0036842Y0016486D01*
X0036741Y0016354D01*
X0036637Y0016225D01*
X0036530Y0016098D01*
X0036420Y0015974D01*
X0036306Y0015853D01*
X0036190Y0015735D01*
X0036071Y0015619D01*
X0035950Y0015506D01*
X0035825Y0015396D01*
X0035698Y0015290D01*
X0035569Y0015186D01*
X0035437Y0015086D01*
X0035302Y0014988D01*
X0035166Y0014894D01*
X0035027Y0014804D01*
X0034886Y0014716D01*
X0034742Y0014633D01*
X0034597Y0014552D01*
X0034450Y0014475D01*
X0034301Y0014402D01*
X0034151Y0014333D01*
X0033999Y0014267D01*
X0033845Y0014204D01*
X0033690Y0014146D01*
X0033533Y0014091D01*
X0033375Y0014040D01*
X0033216Y0013993D01*
X0033056Y0013950D01*
X0032895Y0013910D01*
X0032733Y0013875D01*
X0032570Y0013843D01*
X0032406Y0013816D01*
X0032242Y0013792D01*
X0032077Y0013772D01*
X0031912Y0013756D01*
X0031747Y0013745D01*
X0031581Y0013737D01*
X0031415Y0013733D01*
X0031249Y0013734D01*
X0031083Y0013738D01*
X0030918Y0013746D01*
X0030752Y0013759D01*
X0030587Y0013775D01*
X0030423Y0013795D01*
X0030258Y0013820D01*
X0030095Y0013848D01*
X0054595Y0122348D02*
X0056595Y0122348D01*
X0054595Y0122348D02*
X0054484Y0122341D01*
X0054373Y0122338D01*
X0054261Y0122339D01*
X0054150Y0122344D01*
X0054039Y0122352D01*
X0053928Y0122365D01*
X0053818Y0122381D01*
X0053709Y0122401D01*
X0053600Y0122424D01*
X0053492Y0122452D01*
X0053385Y0122483D01*
X0053279Y0122517D01*
X0053175Y0122555D01*
X0053072Y0122597D01*
X0052970Y0122642D01*
X0052870Y0122691D01*
X0052771Y0122743D01*
X0052675Y0122798D01*
X0052580Y0122857D01*
X0052488Y0122919D01*
X0052397Y0122984D01*
X0052309Y0123052D01*
X0052223Y0123123D01*
X0052140Y0123197D01*
X0052059Y0123273D01*
X0051981Y0123353D01*
X0051906Y0123435D01*
X0051834Y0123519D01*
X0051764Y0123606D01*
X0051698Y0123696D01*
X0051634Y0123787D01*
X0051574Y0123881D01*
X0051517Y0123976D01*
X0051463Y0124074D01*
X0051413Y0124173D01*
X0051366Y0124274D01*
X0051323Y0124376D01*
X0051283Y0124480D01*
X0051246Y0124586D01*
X0051213Y0124692D01*
X0051184Y0124799D01*
X0051159Y0124908D01*
X0051137Y0125017D01*
X0051119Y0125127D01*
X0051105Y0125237D01*
X0051095Y0125348D01*
X0035595Y0195848D01*
M02*
