G75*
%MOIN*%
%OFA0B0*%
%FSLAX25Y25*%
%IPPOS*%
%LPD*%
%AMOC8*
5,1,8,0,0,1.08239X$1,22.5*
%
%ADD10C,0.00000*%
%ADD11C,0.00260*%
%ADD12C,0.00276*%
%ADD13C,0.00236*%
%ADD14C,0.22050*%
%ADD15C,0.00268*%
%ADD16R,0.06394X0.06394*%
%ADD17OC8,0.06394*%
%ADD18C,0.02756*%
%ADD19C,0.06102*%
%ADD20C,0.04488*%
%ADD21C,0.00256*%
%ADD22C,0.09292*%
%ADD23C,0.10553*%
D10*
X0022595Y0009348D02*
X0412516Y0009348D01*
X0412516Y0203167D01*
X0022595Y0203167D01*
X0022595Y0009348D01*
D11*
X0104863Y0033967D02*
X0104863Y0038037D01*
X0109327Y0038037D01*
X0109327Y0033967D01*
X0104863Y0033967D01*
X0104863Y0034226D02*
X0109327Y0034226D01*
X0109327Y0034485D02*
X0104863Y0034485D01*
X0104863Y0034744D02*
X0109327Y0034744D01*
X0109327Y0035003D02*
X0104863Y0035003D01*
X0104863Y0035262D02*
X0109327Y0035262D01*
X0109327Y0035521D02*
X0104863Y0035521D01*
X0104863Y0035780D02*
X0109327Y0035780D01*
X0109327Y0036039D02*
X0104863Y0036039D01*
X0104863Y0036298D02*
X0109327Y0036298D01*
X0109327Y0036557D02*
X0104863Y0036557D01*
X0104863Y0036816D02*
X0109327Y0036816D01*
X0109327Y0037075D02*
X0104863Y0037075D01*
X0104863Y0037334D02*
X0109327Y0037334D01*
X0109327Y0037593D02*
X0104863Y0037593D01*
X0104863Y0037852D02*
X0109327Y0037852D01*
X0104863Y0040659D02*
X0104863Y0044729D01*
X0109327Y0044729D01*
X0109327Y0040659D01*
X0104863Y0040659D01*
X0104863Y0040918D02*
X0109327Y0040918D01*
X0109327Y0041177D02*
X0104863Y0041177D01*
X0104863Y0041436D02*
X0109327Y0041436D01*
X0109327Y0041695D02*
X0104863Y0041695D01*
X0104863Y0041954D02*
X0109327Y0041954D01*
X0109327Y0042213D02*
X0104863Y0042213D01*
X0104863Y0042472D02*
X0109327Y0042472D01*
X0109327Y0042731D02*
X0104863Y0042731D01*
X0104863Y0042990D02*
X0109327Y0042990D01*
X0109327Y0043249D02*
X0104863Y0043249D01*
X0104863Y0043508D02*
X0109327Y0043508D01*
X0109327Y0043767D02*
X0104863Y0043767D01*
X0104863Y0044026D02*
X0109327Y0044026D01*
X0109327Y0044285D02*
X0104863Y0044285D01*
X0104863Y0044544D02*
X0109327Y0044544D01*
X0115863Y0044729D02*
X0115863Y0040659D01*
X0115863Y0044729D02*
X0120327Y0044729D01*
X0120327Y0040659D01*
X0115863Y0040659D01*
X0115863Y0040918D02*
X0120327Y0040918D01*
X0120327Y0041177D02*
X0115863Y0041177D01*
X0115863Y0041436D02*
X0120327Y0041436D01*
X0120327Y0041695D02*
X0115863Y0041695D01*
X0115863Y0041954D02*
X0120327Y0041954D01*
X0120327Y0042213D02*
X0115863Y0042213D01*
X0115863Y0042472D02*
X0120327Y0042472D01*
X0120327Y0042731D02*
X0115863Y0042731D01*
X0115863Y0042990D02*
X0120327Y0042990D01*
X0120327Y0043249D02*
X0115863Y0043249D01*
X0115863Y0043508D02*
X0120327Y0043508D01*
X0120327Y0043767D02*
X0115863Y0043767D01*
X0115863Y0044026D02*
X0120327Y0044026D01*
X0120327Y0044285D02*
X0115863Y0044285D01*
X0115863Y0044544D02*
X0120327Y0044544D01*
X0127863Y0044729D02*
X0127863Y0040659D01*
X0127863Y0044729D02*
X0132327Y0044729D01*
X0132327Y0040659D01*
X0127863Y0040659D01*
X0127863Y0040918D02*
X0132327Y0040918D01*
X0132327Y0041177D02*
X0127863Y0041177D01*
X0127863Y0041436D02*
X0132327Y0041436D01*
X0132327Y0041695D02*
X0127863Y0041695D01*
X0127863Y0041954D02*
X0132327Y0041954D01*
X0132327Y0042213D02*
X0127863Y0042213D01*
X0127863Y0042472D02*
X0132327Y0042472D01*
X0132327Y0042731D02*
X0127863Y0042731D01*
X0127863Y0042990D02*
X0132327Y0042990D01*
X0132327Y0043249D02*
X0127863Y0043249D01*
X0127863Y0043508D02*
X0132327Y0043508D01*
X0132327Y0043767D02*
X0127863Y0043767D01*
X0127863Y0044026D02*
X0132327Y0044026D01*
X0132327Y0044285D02*
X0127863Y0044285D01*
X0127863Y0044544D02*
X0132327Y0044544D01*
X0127863Y0038037D02*
X0127863Y0033967D01*
X0127863Y0038037D02*
X0132327Y0038037D01*
X0132327Y0033967D01*
X0127863Y0033967D01*
X0127863Y0034226D02*
X0132327Y0034226D01*
X0132327Y0034485D02*
X0127863Y0034485D01*
X0127863Y0034744D02*
X0132327Y0034744D01*
X0132327Y0035003D02*
X0127863Y0035003D01*
X0127863Y0035262D02*
X0132327Y0035262D01*
X0132327Y0035521D02*
X0127863Y0035521D01*
X0127863Y0035780D02*
X0132327Y0035780D01*
X0132327Y0036039D02*
X0127863Y0036039D01*
X0127863Y0036298D02*
X0132327Y0036298D01*
X0132327Y0036557D02*
X0127863Y0036557D01*
X0127863Y0036816D02*
X0132327Y0036816D01*
X0132327Y0037075D02*
X0127863Y0037075D01*
X0127863Y0037334D02*
X0132327Y0037334D01*
X0132327Y0037593D02*
X0127863Y0037593D01*
X0127863Y0037852D02*
X0132327Y0037852D01*
X0143714Y0031616D02*
X0147784Y0031616D01*
X0143714Y0031616D02*
X0143714Y0036080D01*
X0147784Y0036080D01*
X0147784Y0031616D01*
X0147784Y0031875D02*
X0143714Y0031875D01*
X0143714Y0032134D02*
X0147784Y0032134D01*
X0147784Y0032393D02*
X0143714Y0032393D01*
X0143714Y0032652D02*
X0147784Y0032652D01*
X0147784Y0032911D02*
X0143714Y0032911D01*
X0143714Y0033170D02*
X0147784Y0033170D01*
X0147784Y0033429D02*
X0143714Y0033429D01*
X0143714Y0033688D02*
X0147784Y0033688D01*
X0147784Y0033947D02*
X0143714Y0033947D01*
X0143714Y0034206D02*
X0147784Y0034206D01*
X0147784Y0034465D02*
X0143714Y0034465D01*
X0143714Y0034724D02*
X0147784Y0034724D01*
X0147784Y0034983D02*
X0143714Y0034983D01*
X0143714Y0035242D02*
X0147784Y0035242D01*
X0147784Y0035501D02*
X0143714Y0035501D01*
X0143714Y0035760D02*
X0147784Y0035760D01*
X0147784Y0036019D02*
X0143714Y0036019D01*
X0150407Y0031616D02*
X0154477Y0031616D01*
X0150407Y0031616D02*
X0150407Y0036080D01*
X0154477Y0036080D01*
X0154477Y0031616D01*
X0154477Y0031875D02*
X0150407Y0031875D01*
X0150407Y0032134D02*
X0154477Y0032134D01*
X0154477Y0032393D02*
X0150407Y0032393D01*
X0150407Y0032652D02*
X0154477Y0032652D01*
X0154477Y0032911D02*
X0150407Y0032911D01*
X0150407Y0033170D02*
X0154477Y0033170D01*
X0154477Y0033429D02*
X0150407Y0033429D01*
X0150407Y0033688D02*
X0154477Y0033688D01*
X0154477Y0033947D02*
X0150407Y0033947D01*
X0150407Y0034206D02*
X0154477Y0034206D01*
X0154477Y0034465D02*
X0150407Y0034465D01*
X0150407Y0034724D02*
X0154477Y0034724D01*
X0154477Y0034983D02*
X0150407Y0034983D01*
X0150407Y0035242D02*
X0154477Y0035242D01*
X0154477Y0035501D02*
X0150407Y0035501D01*
X0150407Y0035760D02*
X0154477Y0035760D01*
X0154477Y0036019D02*
X0150407Y0036019D01*
X0149784Y0039616D02*
X0145714Y0039616D01*
X0145714Y0044080D01*
X0149784Y0044080D01*
X0149784Y0039616D01*
X0149784Y0039875D02*
X0145714Y0039875D01*
X0145714Y0040134D02*
X0149784Y0040134D01*
X0149784Y0040393D02*
X0145714Y0040393D01*
X0145714Y0040652D02*
X0149784Y0040652D01*
X0149784Y0040911D02*
X0145714Y0040911D01*
X0145714Y0041170D02*
X0149784Y0041170D01*
X0149784Y0041429D02*
X0145714Y0041429D01*
X0145714Y0041688D02*
X0149784Y0041688D01*
X0149784Y0041947D02*
X0145714Y0041947D01*
X0145714Y0042206D02*
X0149784Y0042206D01*
X0149784Y0042465D02*
X0145714Y0042465D01*
X0145714Y0042724D02*
X0149784Y0042724D01*
X0149784Y0042983D02*
X0145714Y0042983D01*
X0145714Y0043242D02*
X0149784Y0043242D01*
X0149784Y0043501D02*
X0145714Y0043501D01*
X0145714Y0043760D02*
X0149784Y0043760D01*
X0149784Y0044019D02*
X0145714Y0044019D01*
X0152407Y0039616D02*
X0156477Y0039616D01*
X0152407Y0039616D02*
X0152407Y0044080D01*
X0156477Y0044080D01*
X0156477Y0039616D01*
X0156477Y0039875D02*
X0152407Y0039875D01*
X0152407Y0040134D02*
X0156477Y0040134D01*
X0156477Y0040393D02*
X0152407Y0040393D01*
X0152407Y0040652D02*
X0156477Y0040652D01*
X0156477Y0040911D02*
X0152407Y0040911D01*
X0152407Y0041170D02*
X0156477Y0041170D01*
X0156477Y0041429D02*
X0152407Y0041429D01*
X0152407Y0041688D02*
X0156477Y0041688D01*
X0156477Y0041947D02*
X0152407Y0041947D01*
X0152407Y0042206D02*
X0156477Y0042206D01*
X0156477Y0042465D02*
X0152407Y0042465D01*
X0152407Y0042724D02*
X0156477Y0042724D01*
X0156477Y0042983D02*
X0152407Y0042983D01*
X0152407Y0043242D02*
X0156477Y0043242D01*
X0156477Y0043501D02*
X0152407Y0043501D01*
X0152407Y0043760D02*
X0156477Y0043760D01*
X0156477Y0044019D02*
X0152407Y0044019D01*
X0163827Y0044229D02*
X0163827Y0040159D01*
X0159363Y0040159D01*
X0159363Y0044229D01*
X0163827Y0044229D01*
X0163827Y0040418D02*
X0159363Y0040418D01*
X0159363Y0040677D02*
X0163827Y0040677D01*
X0163827Y0040936D02*
X0159363Y0040936D01*
X0159363Y0041195D02*
X0163827Y0041195D01*
X0163827Y0041454D02*
X0159363Y0041454D01*
X0159363Y0041713D02*
X0163827Y0041713D01*
X0163827Y0041972D02*
X0159363Y0041972D01*
X0159363Y0042231D02*
X0163827Y0042231D01*
X0163827Y0042490D02*
X0159363Y0042490D01*
X0159363Y0042749D02*
X0163827Y0042749D01*
X0163827Y0043008D02*
X0159363Y0043008D01*
X0159363Y0043267D02*
X0163827Y0043267D01*
X0163827Y0043526D02*
X0159363Y0043526D01*
X0159363Y0043785D02*
X0163827Y0043785D01*
X0163827Y0044044D02*
X0159363Y0044044D01*
X0163827Y0037537D02*
X0163827Y0033467D01*
X0159363Y0033467D01*
X0159363Y0037537D01*
X0163827Y0037537D01*
X0163827Y0033726D02*
X0159363Y0033726D01*
X0159363Y0033985D02*
X0163827Y0033985D01*
X0163827Y0034244D02*
X0159363Y0034244D01*
X0159363Y0034503D02*
X0163827Y0034503D01*
X0163827Y0034762D02*
X0159363Y0034762D01*
X0159363Y0035021D02*
X0163827Y0035021D01*
X0163827Y0035280D02*
X0159363Y0035280D01*
X0159363Y0035539D02*
X0163827Y0035539D01*
X0163827Y0035798D02*
X0159363Y0035798D01*
X0159363Y0036057D02*
X0163827Y0036057D01*
X0163827Y0036316D02*
X0159363Y0036316D01*
X0159363Y0036575D02*
X0163827Y0036575D01*
X0163827Y0036834D02*
X0159363Y0036834D01*
X0159363Y0037093D02*
X0163827Y0037093D01*
X0163827Y0037352D02*
X0159363Y0037352D01*
X0182630Y0023426D02*
X0182630Y0018962D01*
X0178560Y0018962D01*
X0178560Y0023426D01*
X0182630Y0023426D01*
X0182630Y0019221D02*
X0178560Y0019221D01*
X0178560Y0019480D02*
X0182630Y0019480D01*
X0182630Y0019739D02*
X0178560Y0019739D01*
X0178560Y0019998D02*
X0182630Y0019998D01*
X0182630Y0020257D02*
X0178560Y0020257D01*
X0178560Y0020516D02*
X0182630Y0020516D01*
X0182630Y0020775D02*
X0178560Y0020775D01*
X0178560Y0021034D02*
X0182630Y0021034D01*
X0182630Y0021293D02*
X0178560Y0021293D01*
X0178560Y0021552D02*
X0182630Y0021552D01*
X0182630Y0021811D02*
X0178560Y0021811D01*
X0178560Y0022070D02*
X0182630Y0022070D01*
X0182630Y0022329D02*
X0178560Y0022329D01*
X0178560Y0022588D02*
X0182630Y0022588D01*
X0182630Y0022847D02*
X0178560Y0022847D01*
X0178560Y0023106D02*
X0182630Y0023106D01*
X0182630Y0023365D02*
X0178560Y0023365D01*
X0182630Y0016734D02*
X0182630Y0012270D01*
X0178560Y0012270D01*
X0178560Y0016734D01*
X0182630Y0016734D01*
X0182630Y0012529D02*
X0178560Y0012529D01*
X0178560Y0012788D02*
X0182630Y0012788D01*
X0182630Y0013047D02*
X0178560Y0013047D01*
X0178560Y0013306D02*
X0182630Y0013306D01*
X0182630Y0013565D02*
X0178560Y0013565D01*
X0178560Y0013824D02*
X0182630Y0013824D01*
X0182630Y0014083D02*
X0178560Y0014083D01*
X0178560Y0014342D02*
X0182630Y0014342D01*
X0182630Y0014601D02*
X0178560Y0014601D01*
X0178560Y0014860D02*
X0182630Y0014860D01*
X0182630Y0015119D02*
X0178560Y0015119D01*
X0178560Y0015378D02*
X0182630Y0015378D01*
X0182630Y0015637D02*
X0178560Y0015637D01*
X0178560Y0015896D02*
X0182630Y0015896D01*
X0182630Y0016155D02*
X0178560Y0016155D01*
X0178560Y0016414D02*
X0182630Y0016414D01*
X0182630Y0016673D02*
X0178560Y0016673D01*
X0185214Y0016738D02*
X0189284Y0016738D01*
X0189284Y0012274D01*
X0185214Y0012274D01*
X0185214Y0016738D01*
X0185214Y0012533D02*
X0189284Y0012533D01*
X0189284Y0012792D02*
X0185214Y0012792D01*
X0185214Y0013051D02*
X0189284Y0013051D01*
X0189284Y0013310D02*
X0185214Y0013310D01*
X0185214Y0013569D02*
X0189284Y0013569D01*
X0189284Y0013828D02*
X0185214Y0013828D01*
X0185214Y0014087D02*
X0189284Y0014087D01*
X0189284Y0014346D02*
X0185214Y0014346D01*
X0185214Y0014605D02*
X0189284Y0014605D01*
X0189284Y0014864D02*
X0185214Y0014864D01*
X0185214Y0015123D02*
X0189284Y0015123D01*
X0189284Y0015382D02*
X0185214Y0015382D01*
X0185214Y0015641D02*
X0189284Y0015641D01*
X0189284Y0015900D02*
X0185214Y0015900D01*
X0185214Y0016159D02*
X0189284Y0016159D01*
X0189284Y0016418D02*
X0185214Y0016418D01*
X0185214Y0016677D02*
X0189284Y0016677D01*
X0191907Y0016738D02*
X0195977Y0016738D01*
X0195977Y0012274D01*
X0191907Y0012274D01*
X0191907Y0016738D01*
X0191907Y0012533D02*
X0195977Y0012533D01*
X0195977Y0012792D02*
X0191907Y0012792D01*
X0191907Y0013051D02*
X0195977Y0013051D01*
X0195977Y0013310D02*
X0191907Y0013310D01*
X0191907Y0013569D02*
X0195977Y0013569D01*
X0195977Y0013828D02*
X0191907Y0013828D01*
X0191907Y0014087D02*
X0195977Y0014087D01*
X0195977Y0014346D02*
X0191907Y0014346D01*
X0191907Y0014605D02*
X0195977Y0014605D01*
X0195977Y0014864D02*
X0191907Y0014864D01*
X0191907Y0015123D02*
X0195977Y0015123D01*
X0195977Y0015382D02*
X0191907Y0015382D01*
X0191907Y0015641D02*
X0195977Y0015641D01*
X0195977Y0015900D02*
X0191907Y0015900D01*
X0191907Y0016159D02*
X0195977Y0016159D01*
X0195977Y0016418D02*
X0191907Y0016418D01*
X0191907Y0016677D02*
X0195977Y0016677D01*
X0202630Y0016734D02*
X0202630Y0012270D01*
X0198560Y0012270D01*
X0198560Y0016734D01*
X0202630Y0016734D01*
X0202630Y0012529D02*
X0198560Y0012529D01*
X0198560Y0012788D02*
X0202630Y0012788D01*
X0202630Y0013047D02*
X0198560Y0013047D01*
X0198560Y0013306D02*
X0202630Y0013306D01*
X0202630Y0013565D02*
X0198560Y0013565D01*
X0198560Y0013824D02*
X0202630Y0013824D01*
X0202630Y0014083D02*
X0198560Y0014083D01*
X0198560Y0014342D02*
X0202630Y0014342D01*
X0202630Y0014601D02*
X0198560Y0014601D01*
X0198560Y0014860D02*
X0202630Y0014860D01*
X0202630Y0015119D02*
X0198560Y0015119D01*
X0198560Y0015378D02*
X0202630Y0015378D01*
X0202630Y0015637D02*
X0198560Y0015637D01*
X0198560Y0015896D02*
X0202630Y0015896D01*
X0202630Y0016155D02*
X0198560Y0016155D01*
X0198560Y0016414D02*
X0202630Y0016414D01*
X0202630Y0016673D02*
X0198560Y0016673D01*
X0202630Y0018962D02*
X0202630Y0023426D01*
X0202630Y0018962D02*
X0198560Y0018962D01*
X0198560Y0023426D01*
X0202630Y0023426D01*
X0202630Y0019221D02*
X0198560Y0019221D01*
X0198560Y0019480D02*
X0202630Y0019480D01*
X0202630Y0019739D02*
X0198560Y0019739D01*
X0198560Y0019998D02*
X0202630Y0019998D01*
X0202630Y0020257D02*
X0198560Y0020257D01*
X0198560Y0020516D02*
X0202630Y0020516D01*
X0202630Y0020775D02*
X0198560Y0020775D01*
X0198560Y0021034D02*
X0202630Y0021034D01*
X0202630Y0021293D02*
X0198560Y0021293D01*
X0198560Y0021552D02*
X0202630Y0021552D01*
X0202630Y0021811D02*
X0198560Y0021811D01*
X0198560Y0022070D02*
X0202630Y0022070D01*
X0202630Y0022329D02*
X0198560Y0022329D01*
X0198560Y0022588D02*
X0202630Y0022588D01*
X0202630Y0022847D02*
X0198560Y0022847D01*
X0198560Y0023106D02*
X0202630Y0023106D01*
X0202630Y0023365D02*
X0198560Y0023365D01*
X0115863Y0033967D02*
X0115863Y0038037D01*
X0120327Y0038037D01*
X0120327Y0033967D01*
X0115863Y0033967D01*
X0115863Y0034226D02*
X0120327Y0034226D01*
X0120327Y0034485D02*
X0115863Y0034485D01*
X0115863Y0034744D02*
X0120327Y0034744D01*
X0120327Y0035003D02*
X0115863Y0035003D01*
X0115863Y0035262D02*
X0120327Y0035262D01*
X0120327Y0035521D02*
X0115863Y0035521D01*
X0115863Y0035780D02*
X0120327Y0035780D01*
X0120327Y0036039D02*
X0115863Y0036039D01*
X0115863Y0036298D02*
X0120327Y0036298D01*
X0120327Y0036557D02*
X0115863Y0036557D01*
X0115863Y0036816D02*
X0120327Y0036816D01*
X0120327Y0037075D02*
X0115863Y0037075D01*
X0115863Y0037334D02*
X0120327Y0037334D01*
X0120327Y0037593D02*
X0115863Y0037593D01*
X0115863Y0037852D02*
X0120327Y0037852D01*
X0110363Y0030729D02*
X0110363Y0026659D01*
X0110363Y0030729D02*
X0114827Y0030729D01*
X0114827Y0026659D01*
X0110363Y0026659D01*
X0110363Y0026918D02*
X0114827Y0026918D01*
X0114827Y0027177D02*
X0110363Y0027177D01*
X0110363Y0027436D02*
X0114827Y0027436D01*
X0114827Y0027695D02*
X0110363Y0027695D01*
X0110363Y0027954D02*
X0114827Y0027954D01*
X0114827Y0028213D02*
X0110363Y0028213D01*
X0110363Y0028472D02*
X0114827Y0028472D01*
X0114827Y0028731D02*
X0110363Y0028731D01*
X0110363Y0028990D02*
X0114827Y0028990D01*
X0114827Y0029249D02*
X0110363Y0029249D01*
X0110363Y0029508D02*
X0114827Y0029508D01*
X0114827Y0029767D02*
X0110363Y0029767D01*
X0110363Y0030026D02*
X0114827Y0030026D01*
X0114827Y0030285D02*
X0110363Y0030285D01*
X0110363Y0030544D02*
X0114827Y0030544D01*
X0110363Y0024037D02*
X0110363Y0019967D01*
X0110363Y0024037D02*
X0114827Y0024037D01*
X0114827Y0019967D01*
X0110363Y0019967D01*
X0110363Y0020226D02*
X0114827Y0020226D01*
X0114827Y0020485D02*
X0110363Y0020485D01*
X0110363Y0020744D02*
X0114827Y0020744D01*
X0114827Y0021003D02*
X0110363Y0021003D01*
X0110363Y0021262D02*
X0114827Y0021262D01*
X0114827Y0021521D02*
X0110363Y0021521D01*
X0110363Y0021780D02*
X0114827Y0021780D01*
X0114827Y0022039D02*
X0110363Y0022039D01*
X0110363Y0022298D02*
X0114827Y0022298D01*
X0114827Y0022557D02*
X0110363Y0022557D01*
X0110363Y0022816D02*
X0114827Y0022816D01*
X0114827Y0023075D02*
X0110363Y0023075D01*
X0110363Y0023334D02*
X0114827Y0023334D01*
X0114827Y0023593D02*
X0110363Y0023593D01*
X0110363Y0023852D02*
X0114827Y0023852D01*
X0078060Y0062770D02*
X0078060Y0067234D01*
X0082130Y0067234D01*
X0082130Y0062770D01*
X0078060Y0062770D01*
X0078060Y0063029D02*
X0082130Y0063029D01*
X0082130Y0063288D02*
X0078060Y0063288D01*
X0078060Y0063547D02*
X0082130Y0063547D01*
X0082130Y0063806D02*
X0078060Y0063806D01*
X0078060Y0064065D02*
X0082130Y0064065D01*
X0082130Y0064324D02*
X0078060Y0064324D01*
X0078060Y0064583D02*
X0082130Y0064583D01*
X0082130Y0064842D02*
X0078060Y0064842D01*
X0078060Y0065101D02*
X0082130Y0065101D01*
X0082130Y0065360D02*
X0078060Y0065360D01*
X0078060Y0065619D02*
X0082130Y0065619D01*
X0082130Y0065878D02*
X0078060Y0065878D01*
X0078060Y0066137D02*
X0082130Y0066137D01*
X0082130Y0066396D02*
X0078060Y0066396D01*
X0078060Y0066655D02*
X0082130Y0066655D01*
X0082130Y0066914D02*
X0078060Y0066914D01*
X0078060Y0067173D02*
X0082130Y0067173D01*
X0078060Y0069462D02*
X0078060Y0073926D01*
X0082130Y0073926D01*
X0082130Y0069462D01*
X0078060Y0069462D01*
X0078060Y0069721D02*
X0082130Y0069721D01*
X0082130Y0069980D02*
X0078060Y0069980D01*
X0078060Y0070239D02*
X0082130Y0070239D01*
X0082130Y0070498D02*
X0078060Y0070498D01*
X0078060Y0070757D02*
X0082130Y0070757D01*
X0082130Y0071016D02*
X0078060Y0071016D01*
X0078060Y0071275D02*
X0082130Y0071275D01*
X0082130Y0071534D02*
X0078060Y0071534D01*
X0078060Y0071793D02*
X0082130Y0071793D01*
X0082130Y0072052D02*
X0078060Y0072052D01*
X0078060Y0072311D02*
X0082130Y0072311D01*
X0082130Y0072570D02*
X0078060Y0072570D01*
X0078060Y0072829D02*
X0082130Y0072829D01*
X0082130Y0073088D02*
X0078060Y0073088D01*
X0078060Y0073347D02*
X0082130Y0073347D01*
X0082130Y0073606D02*
X0078060Y0073606D01*
X0078060Y0073865D02*
X0082130Y0073865D01*
X0075477Y0074080D02*
X0071407Y0074080D01*
X0075477Y0074080D02*
X0075477Y0069616D01*
X0071407Y0069616D01*
X0071407Y0074080D01*
X0071407Y0069875D02*
X0075477Y0069875D01*
X0075477Y0070134D02*
X0071407Y0070134D01*
X0071407Y0070393D02*
X0075477Y0070393D01*
X0075477Y0070652D02*
X0071407Y0070652D01*
X0071407Y0070911D02*
X0075477Y0070911D01*
X0075477Y0071170D02*
X0071407Y0071170D01*
X0071407Y0071429D02*
X0075477Y0071429D01*
X0075477Y0071688D02*
X0071407Y0071688D01*
X0071407Y0071947D02*
X0075477Y0071947D01*
X0075477Y0072206D02*
X0071407Y0072206D01*
X0071407Y0072465D02*
X0075477Y0072465D01*
X0075477Y0072724D02*
X0071407Y0072724D01*
X0071407Y0072983D02*
X0075477Y0072983D01*
X0075477Y0073242D02*
X0071407Y0073242D01*
X0071407Y0073501D02*
X0075477Y0073501D01*
X0075477Y0073760D02*
X0071407Y0073760D01*
X0071407Y0074019D02*
X0075477Y0074019D01*
X0068784Y0074080D02*
X0064714Y0074080D01*
X0068784Y0074080D02*
X0068784Y0069616D01*
X0064714Y0069616D01*
X0064714Y0074080D01*
X0064714Y0069875D02*
X0068784Y0069875D01*
X0068784Y0070134D02*
X0064714Y0070134D01*
X0064714Y0070393D02*
X0068784Y0070393D01*
X0068784Y0070652D02*
X0064714Y0070652D01*
X0064714Y0070911D02*
X0068784Y0070911D01*
X0068784Y0071170D02*
X0064714Y0071170D01*
X0064714Y0071429D02*
X0068784Y0071429D01*
X0068784Y0071688D02*
X0064714Y0071688D01*
X0064714Y0071947D02*
X0068784Y0071947D01*
X0068784Y0072206D02*
X0064714Y0072206D01*
X0064714Y0072465D02*
X0068784Y0072465D01*
X0068784Y0072724D02*
X0064714Y0072724D01*
X0064714Y0072983D02*
X0068784Y0072983D01*
X0068784Y0073242D02*
X0064714Y0073242D01*
X0064714Y0073501D02*
X0068784Y0073501D01*
X0068784Y0073760D02*
X0064714Y0073760D01*
X0064714Y0074019D02*
X0068784Y0074019D01*
X0058060Y0073926D02*
X0058060Y0069462D01*
X0058060Y0073926D02*
X0062130Y0073926D01*
X0062130Y0069462D01*
X0058060Y0069462D01*
X0058060Y0069721D02*
X0062130Y0069721D01*
X0062130Y0069980D02*
X0058060Y0069980D01*
X0058060Y0070239D02*
X0062130Y0070239D01*
X0062130Y0070498D02*
X0058060Y0070498D01*
X0058060Y0070757D02*
X0062130Y0070757D01*
X0062130Y0071016D02*
X0058060Y0071016D01*
X0058060Y0071275D02*
X0062130Y0071275D01*
X0062130Y0071534D02*
X0058060Y0071534D01*
X0058060Y0071793D02*
X0062130Y0071793D01*
X0062130Y0072052D02*
X0058060Y0072052D01*
X0058060Y0072311D02*
X0062130Y0072311D01*
X0062130Y0072570D02*
X0058060Y0072570D01*
X0058060Y0072829D02*
X0062130Y0072829D01*
X0062130Y0073088D02*
X0058060Y0073088D01*
X0058060Y0073347D02*
X0062130Y0073347D01*
X0062130Y0073606D02*
X0058060Y0073606D01*
X0058060Y0073865D02*
X0062130Y0073865D01*
X0058060Y0067234D02*
X0058060Y0062770D01*
X0058060Y0067234D02*
X0062130Y0067234D01*
X0062130Y0062770D01*
X0058060Y0062770D01*
X0058060Y0063029D02*
X0062130Y0063029D01*
X0062130Y0063288D02*
X0058060Y0063288D01*
X0058060Y0063547D02*
X0062130Y0063547D01*
X0062130Y0063806D02*
X0058060Y0063806D01*
X0058060Y0064065D02*
X0062130Y0064065D01*
X0062130Y0064324D02*
X0058060Y0064324D01*
X0058060Y0064583D02*
X0062130Y0064583D01*
X0062130Y0064842D02*
X0058060Y0064842D01*
X0058060Y0065101D02*
X0062130Y0065101D01*
X0062130Y0065360D02*
X0058060Y0065360D01*
X0058060Y0065619D02*
X0062130Y0065619D01*
X0062130Y0065878D02*
X0058060Y0065878D01*
X0058060Y0066137D02*
X0062130Y0066137D01*
X0062130Y0066396D02*
X0058060Y0066396D01*
X0058060Y0066655D02*
X0062130Y0066655D01*
X0062130Y0066914D02*
X0058060Y0066914D01*
X0058060Y0067173D02*
X0062130Y0067173D01*
X0072214Y0113080D02*
X0076284Y0113080D01*
X0076284Y0108616D01*
X0072214Y0108616D01*
X0072214Y0113080D01*
X0072214Y0108875D02*
X0076284Y0108875D01*
X0076284Y0109134D02*
X0072214Y0109134D01*
X0072214Y0109393D02*
X0076284Y0109393D01*
X0076284Y0109652D02*
X0072214Y0109652D01*
X0072214Y0109911D02*
X0076284Y0109911D01*
X0076284Y0110170D02*
X0072214Y0110170D01*
X0072214Y0110429D02*
X0076284Y0110429D01*
X0076284Y0110688D02*
X0072214Y0110688D01*
X0072214Y0110947D02*
X0076284Y0110947D01*
X0076284Y0111206D02*
X0072214Y0111206D01*
X0072214Y0111465D02*
X0076284Y0111465D01*
X0076284Y0111724D02*
X0072214Y0111724D01*
X0072214Y0111983D02*
X0076284Y0111983D01*
X0076284Y0112242D02*
X0072214Y0112242D01*
X0072214Y0112501D02*
X0076284Y0112501D01*
X0076284Y0112760D02*
X0072214Y0112760D01*
X0072214Y0113019D02*
X0076284Y0113019D01*
X0078907Y0113080D02*
X0082977Y0113080D01*
X0082977Y0108616D01*
X0078907Y0108616D01*
X0078907Y0113080D01*
X0078907Y0108875D02*
X0082977Y0108875D01*
X0082977Y0109134D02*
X0078907Y0109134D01*
X0078907Y0109393D02*
X0082977Y0109393D01*
X0082977Y0109652D02*
X0078907Y0109652D01*
X0078907Y0109911D02*
X0082977Y0109911D01*
X0082977Y0110170D02*
X0078907Y0110170D01*
X0078907Y0110429D02*
X0082977Y0110429D01*
X0082977Y0110688D02*
X0078907Y0110688D01*
X0078907Y0110947D02*
X0082977Y0110947D01*
X0082977Y0111206D02*
X0078907Y0111206D01*
X0078907Y0111465D02*
X0082977Y0111465D01*
X0082977Y0111724D02*
X0078907Y0111724D01*
X0078907Y0111983D02*
X0082977Y0111983D01*
X0082977Y0112242D02*
X0078907Y0112242D01*
X0078907Y0112501D02*
X0082977Y0112501D01*
X0082977Y0112760D02*
X0078907Y0112760D01*
X0078907Y0113019D02*
X0082977Y0113019D01*
X0082130Y0120770D02*
X0082130Y0125234D01*
X0082130Y0120770D02*
X0078060Y0120770D01*
X0078060Y0125234D01*
X0082130Y0125234D01*
X0082130Y0121029D02*
X0078060Y0121029D01*
X0078060Y0121288D02*
X0082130Y0121288D01*
X0082130Y0121547D02*
X0078060Y0121547D01*
X0078060Y0121806D02*
X0082130Y0121806D01*
X0082130Y0122065D02*
X0078060Y0122065D01*
X0078060Y0122324D02*
X0082130Y0122324D01*
X0082130Y0122583D02*
X0078060Y0122583D01*
X0078060Y0122842D02*
X0082130Y0122842D01*
X0082130Y0123101D02*
X0078060Y0123101D01*
X0078060Y0123360D02*
X0082130Y0123360D01*
X0082130Y0123619D02*
X0078060Y0123619D01*
X0078060Y0123878D02*
X0082130Y0123878D01*
X0082130Y0124137D02*
X0078060Y0124137D01*
X0078060Y0124396D02*
X0082130Y0124396D01*
X0082130Y0124655D02*
X0078060Y0124655D01*
X0078060Y0124914D02*
X0082130Y0124914D01*
X0082130Y0125173D02*
X0078060Y0125173D01*
X0075477Y0125080D02*
X0071407Y0125080D01*
X0075477Y0125080D02*
X0075477Y0120616D01*
X0071407Y0120616D01*
X0071407Y0125080D01*
X0071407Y0120875D02*
X0075477Y0120875D01*
X0075477Y0121134D02*
X0071407Y0121134D01*
X0071407Y0121393D02*
X0075477Y0121393D01*
X0075477Y0121652D02*
X0071407Y0121652D01*
X0071407Y0121911D02*
X0075477Y0121911D01*
X0075477Y0122170D02*
X0071407Y0122170D01*
X0071407Y0122429D02*
X0075477Y0122429D01*
X0075477Y0122688D02*
X0071407Y0122688D01*
X0071407Y0122947D02*
X0075477Y0122947D01*
X0075477Y0123206D02*
X0071407Y0123206D01*
X0071407Y0123465D02*
X0075477Y0123465D01*
X0075477Y0123724D02*
X0071407Y0123724D01*
X0071407Y0123983D02*
X0075477Y0123983D01*
X0075477Y0124242D02*
X0071407Y0124242D01*
X0071407Y0124501D02*
X0075477Y0124501D01*
X0075477Y0124760D02*
X0071407Y0124760D01*
X0071407Y0125019D02*
X0075477Y0125019D01*
X0082130Y0127462D02*
X0082130Y0131926D01*
X0082130Y0127462D02*
X0078060Y0127462D01*
X0078060Y0131926D01*
X0082130Y0131926D01*
X0082130Y0127721D02*
X0078060Y0127721D01*
X0078060Y0127980D02*
X0082130Y0127980D01*
X0082130Y0128239D02*
X0078060Y0128239D01*
X0078060Y0128498D02*
X0082130Y0128498D01*
X0082130Y0128757D02*
X0078060Y0128757D01*
X0078060Y0129016D02*
X0082130Y0129016D01*
X0082130Y0129275D02*
X0078060Y0129275D01*
X0078060Y0129534D02*
X0082130Y0129534D01*
X0082130Y0129793D02*
X0078060Y0129793D01*
X0078060Y0130052D02*
X0082130Y0130052D01*
X0082130Y0130311D02*
X0078060Y0130311D01*
X0078060Y0130570D02*
X0082130Y0130570D01*
X0082130Y0130829D02*
X0078060Y0130829D01*
X0078060Y0131088D02*
X0082130Y0131088D01*
X0082130Y0131347D02*
X0078060Y0131347D01*
X0078060Y0131606D02*
X0082130Y0131606D01*
X0082130Y0131865D02*
X0078060Y0131865D01*
X0068784Y0125080D02*
X0064714Y0125080D01*
X0068784Y0125080D02*
X0068784Y0120616D01*
X0064714Y0120616D01*
X0064714Y0125080D01*
X0064714Y0120875D02*
X0068784Y0120875D01*
X0068784Y0121134D02*
X0064714Y0121134D01*
X0064714Y0121393D02*
X0068784Y0121393D01*
X0068784Y0121652D02*
X0064714Y0121652D01*
X0064714Y0121911D02*
X0068784Y0121911D01*
X0068784Y0122170D02*
X0064714Y0122170D01*
X0064714Y0122429D02*
X0068784Y0122429D01*
X0068784Y0122688D02*
X0064714Y0122688D01*
X0064714Y0122947D02*
X0068784Y0122947D01*
X0068784Y0123206D02*
X0064714Y0123206D01*
X0064714Y0123465D02*
X0068784Y0123465D01*
X0068784Y0123724D02*
X0064714Y0123724D01*
X0064714Y0123983D02*
X0068784Y0123983D01*
X0068784Y0124242D02*
X0064714Y0124242D01*
X0064714Y0124501D02*
X0068784Y0124501D01*
X0068784Y0124760D02*
X0064714Y0124760D01*
X0064714Y0125019D02*
X0068784Y0125019D01*
X0062130Y0125234D02*
X0062130Y0120770D01*
X0058060Y0120770D01*
X0058060Y0125234D01*
X0062130Y0125234D01*
X0062130Y0121029D02*
X0058060Y0121029D01*
X0058060Y0121288D02*
X0062130Y0121288D01*
X0062130Y0121547D02*
X0058060Y0121547D01*
X0058060Y0121806D02*
X0062130Y0121806D01*
X0062130Y0122065D02*
X0058060Y0122065D01*
X0058060Y0122324D02*
X0062130Y0122324D01*
X0062130Y0122583D02*
X0058060Y0122583D01*
X0058060Y0122842D02*
X0062130Y0122842D01*
X0062130Y0123101D02*
X0058060Y0123101D01*
X0058060Y0123360D02*
X0062130Y0123360D01*
X0062130Y0123619D02*
X0058060Y0123619D01*
X0058060Y0123878D02*
X0062130Y0123878D01*
X0062130Y0124137D02*
X0058060Y0124137D01*
X0058060Y0124396D02*
X0062130Y0124396D01*
X0062130Y0124655D02*
X0058060Y0124655D01*
X0058060Y0124914D02*
X0062130Y0124914D01*
X0062130Y0125173D02*
X0058060Y0125173D01*
X0062130Y0127462D02*
X0062130Y0131926D01*
X0062130Y0127462D02*
X0058060Y0127462D01*
X0058060Y0131926D01*
X0062130Y0131926D01*
X0062130Y0127721D02*
X0058060Y0127721D01*
X0058060Y0127980D02*
X0062130Y0127980D01*
X0062130Y0128239D02*
X0058060Y0128239D01*
X0058060Y0128498D02*
X0062130Y0128498D01*
X0062130Y0128757D02*
X0058060Y0128757D01*
X0058060Y0129016D02*
X0062130Y0129016D01*
X0062130Y0129275D02*
X0058060Y0129275D01*
X0058060Y0129534D02*
X0062130Y0129534D01*
X0062130Y0129793D02*
X0058060Y0129793D01*
X0058060Y0130052D02*
X0062130Y0130052D01*
X0062130Y0130311D02*
X0058060Y0130311D01*
X0058060Y0130570D02*
X0062130Y0130570D01*
X0062130Y0130829D02*
X0058060Y0130829D01*
X0058060Y0131088D02*
X0062130Y0131088D01*
X0062130Y0131347D02*
X0058060Y0131347D01*
X0058060Y0131606D02*
X0062130Y0131606D01*
X0062130Y0131865D02*
X0058060Y0131865D01*
X0168017Y0152313D02*
X0172481Y0152313D01*
X0168017Y0152313D02*
X0168017Y0156383D01*
X0172481Y0156383D01*
X0172481Y0152313D01*
X0172481Y0152572D02*
X0168017Y0152572D01*
X0168017Y0152831D02*
X0172481Y0152831D01*
X0172481Y0153090D02*
X0168017Y0153090D01*
X0168017Y0153349D02*
X0172481Y0153349D01*
X0172481Y0153608D02*
X0168017Y0153608D01*
X0168017Y0153867D02*
X0172481Y0153867D01*
X0172481Y0154126D02*
X0168017Y0154126D01*
X0168017Y0154385D02*
X0172481Y0154385D01*
X0172481Y0154644D02*
X0168017Y0154644D01*
X0168017Y0154903D02*
X0172481Y0154903D01*
X0172481Y0155162D02*
X0168017Y0155162D01*
X0168017Y0155421D02*
X0172481Y0155421D01*
X0172481Y0155680D02*
X0168017Y0155680D01*
X0168017Y0155939D02*
X0172481Y0155939D01*
X0172481Y0156198D02*
X0168017Y0156198D01*
X0174710Y0152313D02*
X0179174Y0152313D01*
X0174710Y0152313D02*
X0174710Y0156383D01*
X0179174Y0156383D01*
X0179174Y0152313D01*
X0179174Y0152572D02*
X0174710Y0152572D01*
X0174710Y0152831D02*
X0179174Y0152831D01*
X0179174Y0153090D02*
X0174710Y0153090D01*
X0174710Y0153349D02*
X0179174Y0153349D01*
X0179174Y0153608D02*
X0174710Y0153608D01*
X0174710Y0153867D02*
X0179174Y0153867D01*
X0179174Y0154126D02*
X0174710Y0154126D01*
X0174710Y0154385D02*
X0179174Y0154385D01*
X0179174Y0154644D02*
X0174710Y0154644D01*
X0174710Y0154903D02*
X0179174Y0154903D01*
X0179174Y0155162D02*
X0174710Y0155162D01*
X0174710Y0155421D02*
X0179174Y0155421D01*
X0179174Y0155680D02*
X0174710Y0155680D01*
X0174710Y0155939D02*
X0179174Y0155939D01*
X0179174Y0156198D02*
X0174710Y0156198D01*
X0261017Y0137313D02*
X0265481Y0137313D01*
X0261017Y0137313D02*
X0261017Y0141383D01*
X0265481Y0141383D01*
X0265481Y0137313D01*
X0265481Y0137572D02*
X0261017Y0137572D01*
X0261017Y0137831D02*
X0265481Y0137831D01*
X0265481Y0138090D02*
X0261017Y0138090D01*
X0261017Y0138349D02*
X0265481Y0138349D01*
X0265481Y0138608D02*
X0261017Y0138608D01*
X0261017Y0138867D02*
X0265481Y0138867D01*
X0265481Y0139126D02*
X0261017Y0139126D01*
X0261017Y0139385D02*
X0265481Y0139385D01*
X0265481Y0139644D02*
X0261017Y0139644D01*
X0261017Y0139903D02*
X0265481Y0139903D01*
X0265481Y0140162D02*
X0261017Y0140162D01*
X0261017Y0140421D02*
X0265481Y0140421D01*
X0265481Y0140680D02*
X0261017Y0140680D01*
X0261017Y0140939D02*
X0265481Y0140939D01*
X0265481Y0141198D02*
X0261017Y0141198D01*
X0267710Y0137313D02*
X0272174Y0137313D01*
X0267710Y0137313D02*
X0267710Y0141383D01*
X0272174Y0141383D01*
X0272174Y0137313D01*
X0272174Y0137572D02*
X0267710Y0137572D01*
X0267710Y0137831D02*
X0272174Y0137831D01*
X0272174Y0138090D02*
X0267710Y0138090D01*
X0267710Y0138349D02*
X0272174Y0138349D01*
X0272174Y0138608D02*
X0267710Y0138608D01*
X0267710Y0138867D02*
X0272174Y0138867D01*
X0272174Y0139126D02*
X0267710Y0139126D01*
X0267710Y0139385D02*
X0272174Y0139385D01*
X0272174Y0139644D02*
X0267710Y0139644D01*
X0267710Y0139903D02*
X0272174Y0139903D01*
X0272174Y0140162D02*
X0267710Y0140162D01*
X0267710Y0140421D02*
X0272174Y0140421D01*
X0272174Y0140680D02*
X0267710Y0140680D01*
X0267710Y0140939D02*
X0272174Y0140939D01*
X0272174Y0141198D02*
X0267710Y0141198D01*
X0281327Y0141537D02*
X0281327Y0137467D01*
X0276863Y0137467D01*
X0276863Y0141537D01*
X0281327Y0141537D01*
X0281327Y0137726D02*
X0276863Y0137726D01*
X0276863Y0137985D02*
X0281327Y0137985D01*
X0281327Y0138244D02*
X0276863Y0138244D01*
X0276863Y0138503D02*
X0281327Y0138503D01*
X0281327Y0138762D02*
X0276863Y0138762D01*
X0276863Y0139021D02*
X0281327Y0139021D01*
X0281327Y0139280D02*
X0276863Y0139280D01*
X0276863Y0139539D02*
X0281327Y0139539D01*
X0281327Y0139798D02*
X0276863Y0139798D01*
X0276863Y0140057D02*
X0281327Y0140057D01*
X0281327Y0140316D02*
X0276863Y0140316D01*
X0276863Y0140575D02*
X0281327Y0140575D01*
X0281327Y0140834D02*
X0276863Y0140834D01*
X0276863Y0141093D02*
X0281327Y0141093D01*
X0281327Y0141352D02*
X0276863Y0141352D01*
X0281327Y0144159D02*
X0281327Y0148229D01*
X0281327Y0144159D02*
X0276863Y0144159D01*
X0276863Y0148229D01*
X0281327Y0148229D01*
X0281327Y0144418D02*
X0276863Y0144418D01*
X0276863Y0144677D02*
X0281327Y0144677D01*
X0281327Y0144936D02*
X0276863Y0144936D01*
X0276863Y0145195D02*
X0281327Y0145195D01*
X0281327Y0145454D02*
X0276863Y0145454D01*
X0276863Y0145713D02*
X0281327Y0145713D01*
X0281327Y0145972D02*
X0276863Y0145972D01*
X0276863Y0146231D02*
X0281327Y0146231D01*
X0281327Y0146490D02*
X0276863Y0146490D01*
X0276863Y0146749D02*
X0281327Y0146749D01*
X0281327Y0147008D02*
X0276863Y0147008D01*
X0276863Y0147267D02*
X0281327Y0147267D01*
X0281327Y0147526D02*
X0276863Y0147526D01*
X0276863Y0147785D02*
X0281327Y0147785D01*
X0281327Y0148044D02*
X0276863Y0148044D01*
X0283714Y0141580D02*
X0287784Y0141580D01*
X0287784Y0137116D01*
X0283714Y0137116D01*
X0283714Y0141580D01*
X0283714Y0137375D02*
X0287784Y0137375D01*
X0287784Y0137634D02*
X0283714Y0137634D01*
X0283714Y0137893D02*
X0287784Y0137893D01*
X0287784Y0138152D02*
X0283714Y0138152D01*
X0283714Y0138411D02*
X0287784Y0138411D01*
X0287784Y0138670D02*
X0283714Y0138670D01*
X0283714Y0138929D02*
X0287784Y0138929D01*
X0287784Y0139188D02*
X0283714Y0139188D01*
X0283714Y0139447D02*
X0287784Y0139447D01*
X0287784Y0139706D02*
X0283714Y0139706D01*
X0283714Y0139965D02*
X0287784Y0139965D01*
X0287784Y0140224D02*
X0283714Y0140224D01*
X0283714Y0140483D02*
X0287784Y0140483D01*
X0287784Y0140742D02*
X0283714Y0140742D01*
X0283714Y0141001D02*
X0287784Y0141001D01*
X0287784Y0141260D02*
X0283714Y0141260D01*
X0283714Y0141519D02*
X0287784Y0141519D01*
X0290407Y0141580D02*
X0294477Y0141580D01*
X0294477Y0137116D01*
X0290407Y0137116D01*
X0290407Y0141580D01*
X0290407Y0137375D02*
X0294477Y0137375D01*
X0294477Y0137634D02*
X0290407Y0137634D01*
X0290407Y0137893D02*
X0294477Y0137893D01*
X0294477Y0138152D02*
X0290407Y0138152D01*
X0290407Y0138411D02*
X0294477Y0138411D01*
X0294477Y0138670D02*
X0290407Y0138670D01*
X0290407Y0138929D02*
X0294477Y0138929D01*
X0294477Y0139188D02*
X0290407Y0139188D01*
X0290407Y0139447D02*
X0294477Y0139447D01*
X0294477Y0139706D02*
X0290407Y0139706D01*
X0290407Y0139965D02*
X0294477Y0139965D01*
X0294477Y0140224D02*
X0290407Y0140224D01*
X0290407Y0140483D02*
X0294477Y0140483D01*
X0294477Y0140742D02*
X0290407Y0140742D01*
X0290407Y0141001D02*
X0294477Y0141001D01*
X0294477Y0141260D02*
X0290407Y0141260D01*
X0290407Y0141519D02*
X0294477Y0141519D01*
X0297017Y0141383D02*
X0301481Y0141383D01*
X0301481Y0137313D01*
X0297017Y0137313D01*
X0297017Y0141383D01*
X0297017Y0137572D02*
X0301481Y0137572D01*
X0301481Y0137831D02*
X0297017Y0137831D01*
X0297017Y0138090D02*
X0301481Y0138090D01*
X0301481Y0138349D02*
X0297017Y0138349D01*
X0297017Y0138608D02*
X0301481Y0138608D01*
X0301481Y0138867D02*
X0297017Y0138867D01*
X0297017Y0139126D02*
X0301481Y0139126D01*
X0301481Y0139385D02*
X0297017Y0139385D01*
X0297017Y0139644D02*
X0301481Y0139644D01*
X0301481Y0139903D02*
X0297017Y0139903D01*
X0297017Y0140162D02*
X0301481Y0140162D01*
X0301481Y0140421D02*
X0297017Y0140421D01*
X0297017Y0140680D02*
X0301481Y0140680D01*
X0301481Y0140939D02*
X0297017Y0140939D01*
X0297017Y0141198D02*
X0301481Y0141198D01*
X0303710Y0141383D02*
X0308174Y0141383D01*
X0308174Y0137313D01*
X0303710Y0137313D01*
X0303710Y0141383D01*
X0303710Y0137572D02*
X0308174Y0137572D01*
X0308174Y0137831D02*
X0303710Y0137831D01*
X0303710Y0138090D02*
X0308174Y0138090D01*
X0308174Y0138349D02*
X0303710Y0138349D01*
X0303710Y0138608D02*
X0308174Y0138608D01*
X0308174Y0138867D02*
X0303710Y0138867D01*
X0303710Y0139126D02*
X0308174Y0139126D01*
X0308174Y0139385D02*
X0303710Y0139385D01*
X0303710Y0139644D02*
X0308174Y0139644D01*
X0308174Y0139903D02*
X0303710Y0139903D01*
X0303710Y0140162D02*
X0308174Y0140162D01*
X0308174Y0140421D02*
X0303710Y0140421D01*
X0303710Y0140680D02*
X0308174Y0140680D01*
X0308174Y0140939D02*
X0303710Y0140939D01*
X0303710Y0141198D02*
X0308174Y0141198D01*
X0312214Y0132580D02*
X0316284Y0132580D01*
X0316284Y0128116D01*
X0312214Y0128116D01*
X0312214Y0132580D01*
X0312214Y0128375D02*
X0316284Y0128375D01*
X0316284Y0128634D02*
X0312214Y0128634D01*
X0312214Y0128893D02*
X0316284Y0128893D01*
X0316284Y0129152D02*
X0312214Y0129152D01*
X0312214Y0129411D02*
X0316284Y0129411D01*
X0316284Y0129670D02*
X0312214Y0129670D01*
X0312214Y0129929D02*
X0316284Y0129929D01*
X0316284Y0130188D02*
X0312214Y0130188D01*
X0312214Y0130447D02*
X0316284Y0130447D01*
X0316284Y0130706D02*
X0312214Y0130706D01*
X0312214Y0130965D02*
X0316284Y0130965D01*
X0316284Y0131224D02*
X0312214Y0131224D01*
X0312214Y0131483D02*
X0316284Y0131483D01*
X0316284Y0131742D02*
X0312214Y0131742D01*
X0312214Y0132001D02*
X0316284Y0132001D01*
X0316284Y0132260D02*
X0312214Y0132260D01*
X0312214Y0132519D02*
X0316284Y0132519D01*
X0318907Y0132580D02*
X0322977Y0132580D01*
X0322977Y0128116D01*
X0318907Y0128116D01*
X0318907Y0132580D01*
X0318907Y0128375D02*
X0322977Y0128375D01*
X0322977Y0128634D02*
X0318907Y0128634D01*
X0318907Y0128893D02*
X0322977Y0128893D01*
X0322977Y0129152D02*
X0318907Y0129152D01*
X0318907Y0129411D02*
X0322977Y0129411D01*
X0322977Y0129670D02*
X0318907Y0129670D01*
X0318907Y0129929D02*
X0322977Y0129929D01*
X0322977Y0130188D02*
X0318907Y0130188D01*
X0318907Y0130447D02*
X0322977Y0130447D01*
X0322977Y0130706D02*
X0318907Y0130706D01*
X0318907Y0130965D02*
X0322977Y0130965D01*
X0322977Y0131224D02*
X0318907Y0131224D01*
X0318907Y0131483D02*
X0322977Y0131483D01*
X0322977Y0131742D02*
X0318907Y0131742D01*
X0318907Y0132001D02*
X0322977Y0132001D01*
X0322977Y0132260D02*
X0318907Y0132260D01*
X0318907Y0132519D02*
X0322977Y0132519D01*
X0299630Y0124926D02*
X0299630Y0120462D01*
X0295560Y0120462D01*
X0295560Y0124926D01*
X0299630Y0124926D01*
X0299630Y0120721D02*
X0295560Y0120721D01*
X0295560Y0120980D02*
X0299630Y0120980D01*
X0299630Y0121239D02*
X0295560Y0121239D01*
X0295560Y0121498D02*
X0299630Y0121498D01*
X0299630Y0121757D02*
X0295560Y0121757D01*
X0295560Y0122016D02*
X0299630Y0122016D01*
X0299630Y0122275D02*
X0295560Y0122275D01*
X0295560Y0122534D02*
X0299630Y0122534D01*
X0299630Y0122793D02*
X0295560Y0122793D01*
X0295560Y0123052D02*
X0299630Y0123052D01*
X0299630Y0123311D02*
X0295560Y0123311D01*
X0295560Y0123570D02*
X0299630Y0123570D01*
X0299630Y0123829D02*
X0295560Y0123829D01*
X0295560Y0124088D02*
X0299630Y0124088D01*
X0299630Y0124347D02*
X0295560Y0124347D01*
X0295560Y0124606D02*
X0299630Y0124606D01*
X0299630Y0124865D02*
X0295560Y0124865D01*
X0292977Y0127116D02*
X0288907Y0127116D01*
X0288907Y0131580D01*
X0292977Y0131580D01*
X0292977Y0127116D01*
X0292977Y0127375D02*
X0288907Y0127375D01*
X0288907Y0127634D02*
X0292977Y0127634D01*
X0292977Y0127893D02*
X0288907Y0127893D01*
X0288907Y0128152D02*
X0292977Y0128152D01*
X0292977Y0128411D02*
X0288907Y0128411D01*
X0288907Y0128670D02*
X0292977Y0128670D01*
X0292977Y0128929D02*
X0288907Y0128929D01*
X0288907Y0129188D02*
X0292977Y0129188D01*
X0292977Y0129447D02*
X0288907Y0129447D01*
X0288907Y0129706D02*
X0292977Y0129706D01*
X0292977Y0129965D02*
X0288907Y0129965D01*
X0288907Y0130224D02*
X0292977Y0130224D01*
X0292977Y0130483D02*
X0288907Y0130483D01*
X0288907Y0130742D02*
X0292977Y0130742D01*
X0292977Y0131001D02*
X0288907Y0131001D01*
X0288907Y0131260D02*
X0292977Y0131260D01*
X0292977Y0131519D02*
X0288907Y0131519D01*
X0286284Y0127116D02*
X0282214Y0127116D01*
X0282214Y0131580D01*
X0286284Y0131580D01*
X0286284Y0127116D01*
X0286284Y0127375D02*
X0282214Y0127375D01*
X0282214Y0127634D02*
X0286284Y0127634D01*
X0286284Y0127893D02*
X0282214Y0127893D01*
X0282214Y0128152D02*
X0286284Y0128152D01*
X0286284Y0128411D02*
X0282214Y0128411D01*
X0282214Y0128670D02*
X0286284Y0128670D01*
X0286284Y0128929D02*
X0282214Y0128929D01*
X0282214Y0129188D02*
X0286284Y0129188D01*
X0286284Y0129447D02*
X0282214Y0129447D01*
X0282214Y0129706D02*
X0286284Y0129706D01*
X0286284Y0129965D02*
X0282214Y0129965D01*
X0282214Y0130224D02*
X0286284Y0130224D01*
X0286284Y0130483D02*
X0282214Y0130483D01*
X0282214Y0130742D02*
X0286284Y0130742D01*
X0286284Y0131001D02*
X0282214Y0131001D01*
X0282214Y0131260D02*
X0286284Y0131260D01*
X0286284Y0131519D02*
X0282214Y0131519D01*
X0280363Y0124729D02*
X0280363Y0120659D01*
X0280363Y0124729D02*
X0284827Y0124729D01*
X0284827Y0120659D01*
X0280363Y0120659D01*
X0280363Y0120918D02*
X0284827Y0120918D01*
X0284827Y0121177D02*
X0280363Y0121177D01*
X0280363Y0121436D02*
X0284827Y0121436D01*
X0284827Y0121695D02*
X0280363Y0121695D01*
X0280363Y0121954D02*
X0284827Y0121954D01*
X0284827Y0122213D02*
X0280363Y0122213D01*
X0280363Y0122472D02*
X0284827Y0122472D01*
X0284827Y0122731D02*
X0280363Y0122731D01*
X0280363Y0122990D02*
X0284827Y0122990D01*
X0284827Y0123249D02*
X0280363Y0123249D01*
X0280363Y0123508D02*
X0284827Y0123508D01*
X0284827Y0123767D02*
X0280363Y0123767D01*
X0280363Y0124026D02*
X0284827Y0124026D01*
X0284827Y0124285D02*
X0280363Y0124285D01*
X0280363Y0124544D02*
X0284827Y0124544D01*
X0287560Y0124426D02*
X0287560Y0119962D01*
X0287560Y0124426D02*
X0291630Y0124426D01*
X0291630Y0119962D01*
X0287560Y0119962D01*
X0287560Y0120221D02*
X0291630Y0120221D01*
X0291630Y0120480D02*
X0287560Y0120480D01*
X0287560Y0120739D02*
X0291630Y0120739D01*
X0291630Y0120998D02*
X0287560Y0120998D01*
X0287560Y0121257D02*
X0291630Y0121257D01*
X0291630Y0121516D02*
X0287560Y0121516D01*
X0287560Y0121775D02*
X0291630Y0121775D01*
X0291630Y0122034D02*
X0287560Y0122034D01*
X0287560Y0122293D02*
X0291630Y0122293D01*
X0291630Y0122552D02*
X0287560Y0122552D01*
X0287560Y0122811D02*
X0291630Y0122811D01*
X0291630Y0123070D02*
X0287560Y0123070D01*
X0287560Y0123329D02*
X0291630Y0123329D01*
X0291630Y0123588D02*
X0287560Y0123588D01*
X0287560Y0123847D02*
X0291630Y0123847D01*
X0291630Y0124106D02*
X0287560Y0124106D01*
X0287560Y0124365D02*
X0291630Y0124365D01*
X0299630Y0118234D02*
X0299630Y0113770D01*
X0295560Y0113770D01*
X0295560Y0118234D01*
X0299630Y0118234D01*
X0299630Y0114029D02*
X0295560Y0114029D01*
X0295560Y0114288D02*
X0299630Y0114288D01*
X0299630Y0114547D02*
X0295560Y0114547D01*
X0295560Y0114806D02*
X0299630Y0114806D01*
X0299630Y0115065D02*
X0295560Y0115065D01*
X0295560Y0115324D02*
X0299630Y0115324D01*
X0299630Y0115583D02*
X0295560Y0115583D01*
X0295560Y0115842D02*
X0299630Y0115842D01*
X0299630Y0116101D02*
X0295560Y0116101D01*
X0295560Y0116360D02*
X0299630Y0116360D01*
X0299630Y0116619D02*
X0295560Y0116619D01*
X0295560Y0116878D02*
X0299630Y0116878D01*
X0299630Y0117137D02*
X0295560Y0117137D01*
X0295560Y0117396D02*
X0299630Y0117396D01*
X0299630Y0117655D02*
X0295560Y0117655D01*
X0295560Y0117914D02*
X0299630Y0117914D01*
X0299630Y0118173D02*
X0295560Y0118173D01*
X0287560Y0117734D02*
X0287560Y0113270D01*
X0287560Y0117734D02*
X0291630Y0117734D01*
X0291630Y0113270D01*
X0287560Y0113270D01*
X0287560Y0113529D02*
X0291630Y0113529D01*
X0291630Y0113788D02*
X0287560Y0113788D01*
X0287560Y0114047D02*
X0291630Y0114047D01*
X0291630Y0114306D02*
X0287560Y0114306D01*
X0287560Y0114565D02*
X0291630Y0114565D01*
X0291630Y0114824D02*
X0287560Y0114824D01*
X0287560Y0115083D02*
X0291630Y0115083D01*
X0291630Y0115342D02*
X0287560Y0115342D01*
X0287560Y0115601D02*
X0291630Y0115601D01*
X0291630Y0115860D02*
X0287560Y0115860D01*
X0287560Y0116119D02*
X0291630Y0116119D01*
X0291630Y0116378D02*
X0287560Y0116378D01*
X0287560Y0116637D02*
X0291630Y0116637D01*
X0291630Y0116896D02*
X0287560Y0116896D01*
X0287560Y0117155D02*
X0291630Y0117155D01*
X0291630Y0117414D02*
X0287560Y0117414D01*
X0287560Y0117673D02*
X0291630Y0117673D01*
X0280363Y0118037D02*
X0280363Y0113967D01*
X0280363Y0118037D02*
X0284827Y0118037D01*
X0284827Y0113967D01*
X0280363Y0113967D01*
X0280363Y0114226D02*
X0284827Y0114226D01*
X0284827Y0114485D02*
X0280363Y0114485D01*
X0280363Y0114744D02*
X0284827Y0114744D01*
X0284827Y0115003D02*
X0280363Y0115003D01*
X0280363Y0115262D02*
X0284827Y0115262D01*
X0284827Y0115521D02*
X0280363Y0115521D01*
X0280363Y0115780D02*
X0284827Y0115780D01*
X0284827Y0116039D02*
X0280363Y0116039D01*
X0280363Y0116298D02*
X0284827Y0116298D01*
X0284827Y0116557D02*
X0280363Y0116557D01*
X0280363Y0116816D02*
X0284827Y0116816D01*
X0284827Y0117075D02*
X0280363Y0117075D01*
X0280363Y0117334D02*
X0284827Y0117334D01*
X0284827Y0117593D02*
X0280363Y0117593D01*
X0280363Y0117852D02*
X0284827Y0117852D01*
X0269363Y0118037D02*
X0269363Y0113967D01*
X0269363Y0118037D02*
X0273827Y0118037D01*
X0273827Y0113967D01*
X0269363Y0113967D01*
X0269363Y0114226D02*
X0273827Y0114226D01*
X0273827Y0114485D02*
X0269363Y0114485D01*
X0269363Y0114744D02*
X0273827Y0114744D01*
X0273827Y0115003D02*
X0269363Y0115003D01*
X0269363Y0115262D02*
X0273827Y0115262D01*
X0273827Y0115521D02*
X0269363Y0115521D01*
X0269363Y0115780D02*
X0273827Y0115780D01*
X0273827Y0116039D02*
X0269363Y0116039D01*
X0269363Y0116298D02*
X0273827Y0116298D01*
X0273827Y0116557D02*
X0269363Y0116557D01*
X0269363Y0116816D02*
X0273827Y0116816D01*
X0273827Y0117075D02*
X0269363Y0117075D01*
X0269363Y0117334D02*
X0273827Y0117334D01*
X0273827Y0117593D02*
X0269363Y0117593D01*
X0269363Y0117852D02*
X0273827Y0117852D01*
X0269363Y0120659D02*
X0269363Y0124729D01*
X0273827Y0124729D01*
X0273827Y0120659D01*
X0269363Y0120659D01*
X0269363Y0120918D02*
X0273827Y0120918D01*
X0273827Y0121177D02*
X0269363Y0121177D01*
X0269363Y0121436D02*
X0273827Y0121436D01*
X0273827Y0121695D02*
X0269363Y0121695D01*
X0269363Y0121954D02*
X0273827Y0121954D01*
X0273827Y0122213D02*
X0269363Y0122213D01*
X0269363Y0122472D02*
X0273827Y0122472D01*
X0273827Y0122731D02*
X0269363Y0122731D01*
X0269363Y0122990D02*
X0273827Y0122990D01*
X0273827Y0123249D02*
X0269363Y0123249D01*
X0269363Y0123508D02*
X0273827Y0123508D01*
X0273827Y0123767D02*
X0269363Y0123767D01*
X0269363Y0124026D02*
X0273827Y0124026D01*
X0273827Y0124285D02*
X0269363Y0124285D01*
X0269363Y0124544D02*
X0273827Y0124544D01*
X0264827Y0109729D02*
X0264827Y0105659D01*
X0260363Y0105659D01*
X0260363Y0109729D01*
X0264827Y0109729D01*
X0264827Y0105918D02*
X0260363Y0105918D01*
X0260363Y0106177D02*
X0264827Y0106177D01*
X0264827Y0106436D02*
X0260363Y0106436D01*
X0260363Y0106695D02*
X0264827Y0106695D01*
X0264827Y0106954D02*
X0260363Y0106954D01*
X0260363Y0107213D02*
X0264827Y0107213D01*
X0264827Y0107472D02*
X0260363Y0107472D01*
X0260363Y0107731D02*
X0264827Y0107731D01*
X0264827Y0107990D02*
X0260363Y0107990D01*
X0260363Y0108249D02*
X0264827Y0108249D01*
X0264827Y0108508D02*
X0260363Y0108508D01*
X0260363Y0108767D02*
X0264827Y0108767D01*
X0264827Y0109026D02*
X0260363Y0109026D01*
X0260363Y0109285D02*
X0264827Y0109285D01*
X0264827Y0109544D02*
X0260363Y0109544D01*
X0264827Y0103037D02*
X0264827Y0098967D01*
X0260363Y0098967D01*
X0260363Y0103037D01*
X0264827Y0103037D01*
X0264827Y0099226D02*
X0260363Y0099226D01*
X0260363Y0099485D02*
X0264827Y0099485D01*
X0264827Y0099744D02*
X0260363Y0099744D01*
X0260363Y0100003D02*
X0264827Y0100003D01*
X0264827Y0100262D02*
X0260363Y0100262D01*
X0260363Y0100521D02*
X0264827Y0100521D01*
X0264827Y0100780D02*
X0260363Y0100780D01*
X0260363Y0101039D02*
X0264827Y0101039D01*
X0264827Y0101298D02*
X0260363Y0101298D01*
X0260363Y0101557D02*
X0264827Y0101557D01*
X0264827Y0101816D02*
X0260363Y0101816D01*
X0260363Y0102075D02*
X0264827Y0102075D01*
X0264827Y0102334D02*
X0260363Y0102334D01*
X0260363Y0102593D02*
X0264827Y0102593D01*
X0264827Y0102852D02*
X0260363Y0102852D01*
X0286017Y0087313D02*
X0290481Y0087313D01*
X0286017Y0087313D02*
X0286017Y0091383D01*
X0290481Y0091383D01*
X0290481Y0087313D01*
X0290481Y0087572D02*
X0286017Y0087572D01*
X0286017Y0087831D02*
X0290481Y0087831D01*
X0290481Y0088090D02*
X0286017Y0088090D01*
X0286017Y0088349D02*
X0290481Y0088349D01*
X0290481Y0088608D02*
X0286017Y0088608D01*
X0286017Y0088867D02*
X0290481Y0088867D01*
X0290481Y0089126D02*
X0286017Y0089126D01*
X0286017Y0089385D02*
X0290481Y0089385D01*
X0290481Y0089644D02*
X0286017Y0089644D01*
X0286017Y0089903D02*
X0290481Y0089903D01*
X0290481Y0090162D02*
X0286017Y0090162D01*
X0286017Y0090421D02*
X0290481Y0090421D01*
X0290481Y0090680D02*
X0286017Y0090680D01*
X0286017Y0090939D02*
X0290481Y0090939D01*
X0290481Y0091198D02*
X0286017Y0091198D01*
X0292710Y0087313D02*
X0297174Y0087313D01*
X0292710Y0087313D02*
X0292710Y0091383D01*
X0297174Y0091383D01*
X0297174Y0087313D01*
X0297174Y0087572D02*
X0292710Y0087572D01*
X0292710Y0087831D02*
X0297174Y0087831D01*
X0297174Y0088090D02*
X0292710Y0088090D01*
X0292710Y0088349D02*
X0297174Y0088349D01*
X0297174Y0088608D02*
X0292710Y0088608D01*
X0292710Y0088867D02*
X0297174Y0088867D01*
X0297174Y0089126D02*
X0292710Y0089126D01*
X0292710Y0089385D02*
X0297174Y0089385D01*
X0297174Y0089644D02*
X0292710Y0089644D01*
X0292710Y0089903D02*
X0297174Y0089903D01*
X0297174Y0090162D02*
X0292710Y0090162D01*
X0292710Y0090421D02*
X0297174Y0090421D01*
X0297174Y0090680D02*
X0292710Y0090680D01*
X0292710Y0090939D02*
X0297174Y0090939D01*
X0297174Y0091198D02*
X0292710Y0091198D01*
X0302017Y0091383D02*
X0306481Y0091383D01*
X0306481Y0087313D01*
X0302017Y0087313D01*
X0302017Y0091383D01*
X0302017Y0087572D02*
X0306481Y0087572D01*
X0306481Y0087831D02*
X0302017Y0087831D01*
X0302017Y0088090D02*
X0306481Y0088090D01*
X0306481Y0088349D02*
X0302017Y0088349D01*
X0302017Y0088608D02*
X0306481Y0088608D01*
X0306481Y0088867D02*
X0302017Y0088867D01*
X0302017Y0089126D02*
X0306481Y0089126D01*
X0306481Y0089385D02*
X0302017Y0089385D01*
X0302017Y0089644D02*
X0306481Y0089644D01*
X0306481Y0089903D02*
X0302017Y0089903D01*
X0302017Y0090162D02*
X0306481Y0090162D01*
X0306481Y0090421D02*
X0302017Y0090421D01*
X0302017Y0090680D02*
X0306481Y0090680D01*
X0306481Y0090939D02*
X0302017Y0090939D01*
X0302017Y0091198D02*
X0306481Y0091198D01*
X0308710Y0091383D02*
X0313174Y0091383D01*
X0313174Y0087313D01*
X0308710Y0087313D01*
X0308710Y0091383D01*
X0308710Y0087572D02*
X0313174Y0087572D01*
X0313174Y0087831D02*
X0308710Y0087831D01*
X0308710Y0088090D02*
X0313174Y0088090D01*
X0313174Y0088349D02*
X0308710Y0088349D01*
X0308710Y0088608D02*
X0313174Y0088608D01*
X0313174Y0088867D02*
X0308710Y0088867D01*
X0308710Y0089126D02*
X0313174Y0089126D01*
X0313174Y0089385D02*
X0308710Y0089385D01*
X0308710Y0089644D02*
X0313174Y0089644D01*
X0313174Y0089903D02*
X0308710Y0089903D01*
X0308710Y0090162D02*
X0313174Y0090162D01*
X0313174Y0090421D02*
X0308710Y0090421D01*
X0308710Y0090680D02*
X0313174Y0090680D01*
X0313174Y0090939D02*
X0308710Y0090939D01*
X0308710Y0091198D02*
X0313174Y0091198D01*
X0316017Y0091383D02*
X0320481Y0091383D01*
X0320481Y0087313D01*
X0316017Y0087313D01*
X0316017Y0091383D01*
X0316017Y0087572D02*
X0320481Y0087572D01*
X0320481Y0087831D02*
X0316017Y0087831D01*
X0316017Y0088090D02*
X0320481Y0088090D01*
X0320481Y0088349D02*
X0316017Y0088349D01*
X0316017Y0088608D02*
X0320481Y0088608D01*
X0320481Y0088867D02*
X0316017Y0088867D01*
X0316017Y0089126D02*
X0320481Y0089126D01*
X0320481Y0089385D02*
X0316017Y0089385D01*
X0316017Y0089644D02*
X0320481Y0089644D01*
X0320481Y0089903D02*
X0316017Y0089903D01*
X0316017Y0090162D02*
X0320481Y0090162D01*
X0320481Y0090421D02*
X0316017Y0090421D01*
X0316017Y0090680D02*
X0320481Y0090680D01*
X0320481Y0090939D02*
X0316017Y0090939D01*
X0316017Y0091198D02*
X0320481Y0091198D01*
X0322710Y0091383D02*
X0327174Y0091383D01*
X0327174Y0087313D01*
X0322710Y0087313D01*
X0322710Y0091383D01*
X0322710Y0087572D02*
X0327174Y0087572D01*
X0327174Y0087831D02*
X0322710Y0087831D01*
X0322710Y0088090D02*
X0327174Y0088090D01*
X0327174Y0088349D02*
X0322710Y0088349D01*
X0322710Y0088608D02*
X0327174Y0088608D01*
X0327174Y0088867D02*
X0322710Y0088867D01*
X0322710Y0089126D02*
X0327174Y0089126D01*
X0327174Y0089385D02*
X0322710Y0089385D01*
X0322710Y0089644D02*
X0327174Y0089644D01*
X0327174Y0089903D02*
X0322710Y0089903D01*
X0322710Y0090162D02*
X0327174Y0090162D01*
X0327174Y0090421D02*
X0322710Y0090421D01*
X0322710Y0090680D02*
X0327174Y0090680D01*
X0327174Y0090939D02*
X0322710Y0090939D01*
X0322710Y0091198D02*
X0327174Y0091198D01*
X0342214Y0087116D02*
X0346284Y0087116D01*
X0342214Y0087116D02*
X0342214Y0091580D01*
X0346284Y0091580D01*
X0346284Y0087116D01*
X0346284Y0087375D02*
X0342214Y0087375D01*
X0342214Y0087634D02*
X0346284Y0087634D01*
X0346284Y0087893D02*
X0342214Y0087893D01*
X0342214Y0088152D02*
X0346284Y0088152D01*
X0346284Y0088411D02*
X0342214Y0088411D01*
X0342214Y0088670D02*
X0346284Y0088670D01*
X0346284Y0088929D02*
X0342214Y0088929D01*
X0342214Y0089188D02*
X0346284Y0089188D01*
X0346284Y0089447D02*
X0342214Y0089447D01*
X0342214Y0089706D02*
X0346284Y0089706D01*
X0346284Y0089965D02*
X0342214Y0089965D01*
X0342214Y0090224D02*
X0346284Y0090224D01*
X0346284Y0090483D02*
X0342214Y0090483D01*
X0342214Y0090742D02*
X0346284Y0090742D01*
X0346284Y0091001D02*
X0342214Y0091001D01*
X0342214Y0091260D02*
X0346284Y0091260D01*
X0346284Y0091519D02*
X0342214Y0091519D01*
X0348907Y0087116D02*
X0352977Y0087116D01*
X0348907Y0087116D02*
X0348907Y0091580D01*
X0352977Y0091580D01*
X0352977Y0087116D01*
X0352977Y0087375D02*
X0348907Y0087375D01*
X0348907Y0087634D02*
X0352977Y0087634D01*
X0352977Y0087893D02*
X0348907Y0087893D01*
X0348907Y0088152D02*
X0352977Y0088152D01*
X0352977Y0088411D02*
X0348907Y0088411D01*
X0348907Y0088670D02*
X0352977Y0088670D01*
X0352977Y0088929D02*
X0348907Y0088929D01*
X0348907Y0089188D02*
X0352977Y0089188D01*
X0352977Y0089447D02*
X0348907Y0089447D01*
X0348907Y0089706D02*
X0352977Y0089706D01*
X0352977Y0089965D02*
X0348907Y0089965D01*
X0348907Y0090224D02*
X0352977Y0090224D01*
X0352977Y0090483D02*
X0348907Y0090483D01*
X0348907Y0090742D02*
X0352977Y0090742D01*
X0352977Y0091001D02*
X0348907Y0091001D01*
X0348907Y0091260D02*
X0352977Y0091260D01*
X0352977Y0091519D02*
X0348907Y0091519D01*
X0348907Y0077116D02*
X0352977Y0077116D01*
X0348907Y0077116D02*
X0348907Y0081580D01*
X0352977Y0081580D01*
X0352977Y0077116D01*
X0352977Y0077375D02*
X0348907Y0077375D01*
X0348907Y0077634D02*
X0352977Y0077634D01*
X0352977Y0077893D02*
X0348907Y0077893D01*
X0348907Y0078152D02*
X0352977Y0078152D01*
X0352977Y0078411D02*
X0348907Y0078411D01*
X0348907Y0078670D02*
X0352977Y0078670D01*
X0352977Y0078929D02*
X0348907Y0078929D01*
X0348907Y0079188D02*
X0352977Y0079188D01*
X0352977Y0079447D02*
X0348907Y0079447D01*
X0348907Y0079706D02*
X0352977Y0079706D01*
X0352977Y0079965D02*
X0348907Y0079965D01*
X0348907Y0080224D02*
X0352977Y0080224D01*
X0352977Y0080483D02*
X0348907Y0080483D01*
X0348907Y0080742D02*
X0352977Y0080742D01*
X0352977Y0081001D02*
X0348907Y0081001D01*
X0348907Y0081260D02*
X0352977Y0081260D01*
X0352977Y0081519D02*
X0348907Y0081519D01*
X0346284Y0077116D02*
X0342214Y0077116D01*
X0342214Y0081580D01*
X0346284Y0081580D01*
X0346284Y0077116D01*
X0346284Y0077375D02*
X0342214Y0077375D01*
X0342214Y0077634D02*
X0346284Y0077634D01*
X0346284Y0077893D02*
X0342214Y0077893D01*
X0342214Y0078152D02*
X0346284Y0078152D01*
X0346284Y0078411D02*
X0342214Y0078411D01*
X0342214Y0078670D02*
X0346284Y0078670D01*
X0346284Y0078929D02*
X0342214Y0078929D01*
X0342214Y0079188D02*
X0346284Y0079188D01*
X0346284Y0079447D02*
X0342214Y0079447D01*
X0342214Y0079706D02*
X0346284Y0079706D01*
X0346284Y0079965D02*
X0342214Y0079965D01*
X0342214Y0080224D02*
X0346284Y0080224D01*
X0346284Y0080483D02*
X0342214Y0080483D01*
X0342214Y0080742D02*
X0346284Y0080742D01*
X0346284Y0081001D02*
X0342214Y0081001D01*
X0342214Y0081260D02*
X0346284Y0081260D01*
X0346284Y0081519D02*
X0342214Y0081519D01*
X0319560Y0079462D02*
X0319560Y0083926D01*
X0323630Y0083926D01*
X0323630Y0079462D01*
X0319560Y0079462D01*
X0319560Y0079721D02*
X0323630Y0079721D01*
X0323630Y0079980D02*
X0319560Y0079980D01*
X0319560Y0080239D02*
X0323630Y0080239D01*
X0323630Y0080498D02*
X0319560Y0080498D01*
X0319560Y0080757D02*
X0323630Y0080757D01*
X0323630Y0081016D02*
X0319560Y0081016D01*
X0319560Y0081275D02*
X0323630Y0081275D01*
X0323630Y0081534D02*
X0319560Y0081534D01*
X0319560Y0081793D02*
X0323630Y0081793D01*
X0323630Y0082052D02*
X0319560Y0082052D01*
X0319560Y0082311D02*
X0323630Y0082311D01*
X0323630Y0082570D02*
X0319560Y0082570D01*
X0319560Y0082829D02*
X0323630Y0082829D01*
X0323630Y0083088D02*
X0319560Y0083088D01*
X0319560Y0083347D02*
X0323630Y0083347D01*
X0323630Y0083606D02*
X0319560Y0083606D01*
X0319560Y0083865D02*
X0323630Y0083865D01*
X0319560Y0077234D02*
X0319560Y0072770D01*
X0319560Y0077234D02*
X0323630Y0077234D01*
X0323630Y0072770D01*
X0319560Y0072770D01*
X0319560Y0073029D02*
X0323630Y0073029D01*
X0323630Y0073288D02*
X0319560Y0073288D01*
X0319560Y0073547D02*
X0323630Y0073547D01*
X0323630Y0073806D02*
X0319560Y0073806D01*
X0319560Y0074065D02*
X0323630Y0074065D01*
X0323630Y0074324D02*
X0319560Y0074324D01*
X0319560Y0074583D02*
X0323630Y0074583D01*
X0323630Y0074842D02*
X0319560Y0074842D01*
X0319560Y0075101D02*
X0323630Y0075101D01*
X0323630Y0075360D02*
X0319560Y0075360D01*
X0319560Y0075619D02*
X0323630Y0075619D01*
X0323630Y0075878D02*
X0319560Y0075878D01*
X0319560Y0076137D02*
X0323630Y0076137D01*
X0323630Y0076396D02*
X0319560Y0076396D01*
X0319560Y0076655D02*
X0323630Y0076655D01*
X0323630Y0076914D02*
X0319560Y0076914D01*
X0319560Y0077173D02*
X0323630Y0077173D01*
X0296977Y0079116D02*
X0292907Y0079116D01*
X0292907Y0083580D01*
X0296977Y0083580D01*
X0296977Y0079116D01*
X0296977Y0079375D02*
X0292907Y0079375D01*
X0292907Y0079634D02*
X0296977Y0079634D01*
X0296977Y0079893D02*
X0292907Y0079893D01*
X0292907Y0080152D02*
X0296977Y0080152D01*
X0296977Y0080411D02*
X0292907Y0080411D01*
X0292907Y0080670D02*
X0296977Y0080670D01*
X0296977Y0080929D02*
X0292907Y0080929D01*
X0292907Y0081188D02*
X0296977Y0081188D01*
X0296977Y0081447D02*
X0292907Y0081447D01*
X0292907Y0081706D02*
X0296977Y0081706D01*
X0296977Y0081965D02*
X0292907Y0081965D01*
X0292907Y0082224D02*
X0296977Y0082224D01*
X0296977Y0082483D02*
X0292907Y0082483D01*
X0292907Y0082742D02*
X0296977Y0082742D01*
X0296977Y0083001D02*
X0292907Y0083001D01*
X0292907Y0083260D02*
X0296977Y0083260D01*
X0296977Y0083519D02*
X0292907Y0083519D01*
X0290284Y0079116D02*
X0286214Y0079116D01*
X0286214Y0083580D01*
X0290284Y0083580D01*
X0290284Y0079116D01*
X0290284Y0079375D02*
X0286214Y0079375D01*
X0286214Y0079634D02*
X0290284Y0079634D01*
X0290284Y0079893D02*
X0286214Y0079893D01*
X0286214Y0080152D02*
X0290284Y0080152D01*
X0290284Y0080411D02*
X0286214Y0080411D01*
X0286214Y0080670D02*
X0290284Y0080670D01*
X0290284Y0080929D02*
X0286214Y0080929D01*
X0286214Y0081188D02*
X0290284Y0081188D01*
X0290284Y0081447D02*
X0286214Y0081447D01*
X0286214Y0081706D02*
X0290284Y0081706D01*
X0290284Y0081965D02*
X0286214Y0081965D01*
X0286214Y0082224D02*
X0290284Y0082224D01*
X0290284Y0082483D02*
X0286214Y0082483D01*
X0286214Y0082742D02*
X0290284Y0082742D01*
X0290284Y0083001D02*
X0286214Y0083001D01*
X0286214Y0083260D02*
X0290284Y0083260D01*
X0290284Y0083519D02*
X0286214Y0083519D01*
X0278060Y0083926D02*
X0278060Y0079462D01*
X0278060Y0083926D02*
X0282130Y0083926D01*
X0282130Y0079462D01*
X0278060Y0079462D01*
X0278060Y0079721D02*
X0282130Y0079721D01*
X0282130Y0079980D02*
X0278060Y0079980D01*
X0278060Y0080239D02*
X0282130Y0080239D01*
X0282130Y0080498D02*
X0278060Y0080498D01*
X0278060Y0080757D02*
X0282130Y0080757D01*
X0282130Y0081016D02*
X0278060Y0081016D01*
X0278060Y0081275D02*
X0282130Y0081275D01*
X0282130Y0081534D02*
X0278060Y0081534D01*
X0278060Y0081793D02*
X0282130Y0081793D01*
X0282130Y0082052D02*
X0278060Y0082052D01*
X0278060Y0082311D02*
X0282130Y0082311D01*
X0282130Y0082570D02*
X0278060Y0082570D01*
X0278060Y0082829D02*
X0282130Y0082829D01*
X0282130Y0083088D02*
X0278060Y0083088D01*
X0278060Y0083347D02*
X0282130Y0083347D01*
X0282130Y0083606D02*
X0278060Y0083606D01*
X0278060Y0083865D02*
X0282130Y0083865D01*
X0278060Y0077234D02*
X0278060Y0072770D01*
X0278060Y0077234D02*
X0282130Y0077234D01*
X0282130Y0072770D01*
X0278060Y0072770D01*
X0278060Y0073029D02*
X0282130Y0073029D01*
X0282130Y0073288D02*
X0278060Y0073288D01*
X0278060Y0073547D02*
X0282130Y0073547D01*
X0282130Y0073806D02*
X0278060Y0073806D01*
X0278060Y0074065D02*
X0282130Y0074065D01*
X0282130Y0074324D02*
X0278060Y0074324D01*
X0278060Y0074583D02*
X0282130Y0074583D01*
X0282130Y0074842D02*
X0278060Y0074842D01*
X0278060Y0075101D02*
X0282130Y0075101D01*
X0282130Y0075360D02*
X0278060Y0075360D01*
X0278060Y0075619D02*
X0282130Y0075619D01*
X0282130Y0075878D02*
X0278060Y0075878D01*
X0278060Y0076137D02*
X0282130Y0076137D01*
X0282130Y0076396D02*
X0278060Y0076396D01*
X0278060Y0076655D02*
X0282130Y0076655D01*
X0282130Y0076914D02*
X0278060Y0076914D01*
X0278060Y0077173D02*
X0282130Y0077173D01*
X0307214Y0061580D02*
X0311284Y0061580D01*
X0311284Y0057116D01*
X0307214Y0057116D01*
X0307214Y0061580D01*
X0307214Y0057375D02*
X0311284Y0057375D01*
X0311284Y0057634D02*
X0307214Y0057634D01*
X0307214Y0057893D02*
X0311284Y0057893D01*
X0311284Y0058152D02*
X0307214Y0058152D01*
X0307214Y0058411D02*
X0311284Y0058411D01*
X0311284Y0058670D02*
X0307214Y0058670D01*
X0307214Y0058929D02*
X0311284Y0058929D01*
X0311284Y0059188D02*
X0307214Y0059188D01*
X0307214Y0059447D02*
X0311284Y0059447D01*
X0311284Y0059706D02*
X0307214Y0059706D01*
X0307214Y0059965D02*
X0311284Y0059965D01*
X0311284Y0060224D02*
X0307214Y0060224D01*
X0307214Y0060483D02*
X0311284Y0060483D01*
X0311284Y0060742D02*
X0307214Y0060742D01*
X0307214Y0061001D02*
X0311284Y0061001D01*
X0311284Y0061260D02*
X0307214Y0061260D01*
X0307214Y0061519D02*
X0311284Y0061519D01*
X0313907Y0061580D02*
X0317977Y0061580D01*
X0317977Y0057116D01*
X0313907Y0057116D01*
X0313907Y0061580D01*
X0313907Y0057375D02*
X0317977Y0057375D01*
X0317977Y0057634D02*
X0313907Y0057634D01*
X0313907Y0057893D02*
X0317977Y0057893D01*
X0317977Y0058152D02*
X0313907Y0058152D01*
X0313907Y0058411D02*
X0317977Y0058411D01*
X0317977Y0058670D02*
X0313907Y0058670D01*
X0313907Y0058929D02*
X0317977Y0058929D01*
X0317977Y0059188D02*
X0313907Y0059188D01*
X0313907Y0059447D02*
X0317977Y0059447D01*
X0317977Y0059706D02*
X0313907Y0059706D01*
X0313907Y0059965D02*
X0317977Y0059965D01*
X0317977Y0060224D02*
X0313907Y0060224D01*
X0313907Y0060483D02*
X0317977Y0060483D01*
X0317977Y0060742D02*
X0313907Y0060742D01*
X0313907Y0061001D02*
X0317977Y0061001D01*
X0317977Y0061260D02*
X0313907Y0061260D01*
X0313907Y0061519D02*
X0317977Y0061519D01*
X0320560Y0059926D02*
X0320560Y0055462D01*
X0320560Y0059926D02*
X0324630Y0059926D01*
X0324630Y0055462D01*
X0320560Y0055462D01*
X0320560Y0055721D02*
X0324630Y0055721D01*
X0324630Y0055980D02*
X0320560Y0055980D01*
X0320560Y0056239D02*
X0324630Y0056239D01*
X0324630Y0056498D02*
X0320560Y0056498D01*
X0320560Y0056757D02*
X0324630Y0056757D01*
X0324630Y0057016D02*
X0320560Y0057016D01*
X0320560Y0057275D02*
X0324630Y0057275D01*
X0324630Y0057534D02*
X0320560Y0057534D01*
X0320560Y0057793D02*
X0324630Y0057793D01*
X0324630Y0058052D02*
X0320560Y0058052D01*
X0320560Y0058311D02*
X0324630Y0058311D01*
X0324630Y0058570D02*
X0320560Y0058570D01*
X0320560Y0058829D02*
X0324630Y0058829D01*
X0324630Y0059088D02*
X0320560Y0059088D01*
X0320560Y0059347D02*
X0324630Y0059347D01*
X0324630Y0059606D02*
X0320560Y0059606D01*
X0320560Y0059865D02*
X0324630Y0059865D01*
X0320560Y0053234D02*
X0320560Y0048770D01*
X0320560Y0053234D02*
X0324630Y0053234D01*
X0324630Y0048770D01*
X0320560Y0048770D01*
X0320560Y0049029D02*
X0324630Y0049029D01*
X0324630Y0049288D02*
X0320560Y0049288D01*
X0320560Y0049547D02*
X0324630Y0049547D01*
X0324630Y0049806D02*
X0320560Y0049806D01*
X0320560Y0050065D02*
X0324630Y0050065D01*
X0324630Y0050324D02*
X0320560Y0050324D01*
X0320560Y0050583D02*
X0324630Y0050583D01*
X0324630Y0050842D02*
X0320560Y0050842D01*
X0320560Y0051101D02*
X0324630Y0051101D01*
X0324630Y0051360D02*
X0320560Y0051360D01*
X0320560Y0051619D02*
X0324630Y0051619D01*
X0324630Y0051878D02*
X0320560Y0051878D01*
X0320560Y0052137D02*
X0324630Y0052137D01*
X0324630Y0052396D02*
X0320560Y0052396D01*
X0320560Y0052655D02*
X0324630Y0052655D01*
X0324630Y0052914D02*
X0320560Y0052914D01*
X0320560Y0053173D02*
X0324630Y0053173D01*
X0307174Y0053383D02*
X0302710Y0053383D01*
X0307174Y0053383D02*
X0307174Y0049313D01*
X0302710Y0049313D01*
X0302710Y0053383D01*
X0302710Y0049572D02*
X0307174Y0049572D01*
X0307174Y0049831D02*
X0302710Y0049831D01*
X0302710Y0050090D02*
X0307174Y0050090D01*
X0307174Y0050349D02*
X0302710Y0050349D01*
X0302710Y0050608D02*
X0307174Y0050608D01*
X0307174Y0050867D02*
X0302710Y0050867D01*
X0302710Y0051126D02*
X0307174Y0051126D01*
X0307174Y0051385D02*
X0302710Y0051385D01*
X0302710Y0051644D02*
X0307174Y0051644D01*
X0307174Y0051903D02*
X0302710Y0051903D01*
X0302710Y0052162D02*
X0307174Y0052162D01*
X0307174Y0052421D02*
X0302710Y0052421D01*
X0302710Y0052680D02*
X0307174Y0052680D01*
X0307174Y0052939D02*
X0302710Y0052939D01*
X0302710Y0053198D02*
X0307174Y0053198D01*
X0300481Y0053383D02*
X0296017Y0053383D01*
X0300481Y0053383D02*
X0300481Y0049313D01*
X0296017Y0049313D01*
X0296017Y0053383D01*
X0296017Y0049572D02*
X0300481Y0049572D01*
X0300481Y0049831D02*
X0296017Y0049831D01*
X0296017Y0050090D02*
X0300481Y0050090D01*
X0300481Y0050349D02*
X0296017Y0050349D01*
X0296017Y0050608D02*
X0300481Y0050608D01*
X0300481Y0050867D02*
X0296017Y0050867D01*
X0296017Y0051126D02*
X0300481Y0051126D01*
X0300481Y0051385D02*
X0296017Y0051385D01*
X0296017Y0051644D02*
X0300481Y0051644D01*
X0300481Y0051903D02*
X0296017Y0051903D01*
X0296017Y0052162D02*
X0300481Y0052162D01*
X0300481Y0052421D02*
X0296017Y0052421D01*
X0296017Y0052680D02*
X0300481Y0052680D01*
X0300481Y0052939D02*
X0296017Y0052939D01*
X0296017Y0053198D02*
X0300481Y0053198D01*
X0284130Y0053734D02*
X0284130Y0049270D01*
X0280060Y0049270D01*
X0280060Y0053734D01*
X0284130Y0053734D01*
X0284130Y0049529D02*
X0280060Y0049529D01*
X0280060Y0049788D02*
X0284130Y0049788D01*
X0284130Y0050047D02*
X0280060Y0050047D01*
X0280060Y0050306D02*
X0284130Y0050306D01*
X0284130Y0050565D02*
X0280060Y0050565D01*
X0280060Y0050824D02*
X0284130Y0050824D01*
X0284130Y0051083D02*
X0280060Y0051083D01*
X0280060Y0051342D02*
X0284130Y0051342D01*
X0284130Y0051601D02*
X0280060Y0051601D01*
X0280060Y0051860D02*
X0284130Y0051860D01*
X0284130Y0052119D02*
X0280060Y0052119D01*
X0280060Y0052378D02*
X0284130Y0052378D01*
X0284130Y0052637D02*
X0280060Y0052637D01*
X0280060Y0052896D02*
X0284130Y0052896D01*
X0284130Y0053155D02*
X0280060Y0053155D01*
X0280060Y0053414D02*
X0284130Y0053414D01*
X0284130Y0053673D02*
X0280060Y0053673D01*
X0284130Y0055962D02*
X0284130Y0060426D01*
X0284130Y0055962D02*
X0280060Y0055962D01*
X0280060Y0060426D01*
X0284130Y0060426D01*
X0284130Y0056221D02*
X0280060Y0056221D01*
X0280060Y0056480D02*
X0284130Y0056480D01*
X0284130Y0056739D02*
X0280060Y0056739D01*
X0280060Y0056998D02*
X0284130Y0056998D01*
X0284130Y0057257D02*
X0280060Y0057257D01*
X0280060Y0057516D02*
X0284130Y0057516D01*
X0284130Y0057775D02*
X0280060Y0057775D01*
X0280060Y0058034D02*
X0284130Y0058034D01*
X0284130Y0058293D02*
X0280060Y0058293D01*
X0280060Y0058552D02*
X0284130Y0058552D01*
X0284130Y0058811D02*
X0280060Y0058811D01*
X0280060Y0059070D02*
X0284130Y0059070D01*
X0284130Y0059329D02*
X0280060Y0059329D01*
X0280060Y0059588D02*
X0284130Y0059588D01*
X0284130Y0059847D02*
X0280060Y0059847D01*
X0280060Y0060106D02*
X0284130Y0060106D01*
X0284130Y0060365D02*
X0280060Y0060365D01*
X0375327Y0050729D02*
X0375327Y0046659D01*
X0370863Y0046659D01*
X0370863Y0050729D01*
X0375327Y0050729D01*
X0375327Y0046918D02*
X0370863Y0046918D01*
X0370863Y0047177D02*
X0375327Y0047177D01*
X0375327Y0047436D02*
X0370863Y0047436D01*
X0370863Y0047695D02*
X0375327Y0047695D01*
X0375327Y0047954D02*
X0370863Y0047954D01*
X0370863Y0048213D02*
X0375327Y0048213D01*
X0375327Y0048472D02*
X0370863Y0048472D01*
X0370863Y0048731D02*
X0375327Y0048731D01*
X0375327Y0048990D02*
X0370863Y0048990D01*
X0370863Y0049249D02*
X0375327Y0049249D01*
X0375327Y0049508D02*
X0370863Y0049508D01*
X0370863Y0049767D02*
X0375327Y0049767D01*
X0375327Y0050026D02*
X0370863Y0050026D01*
X0370863Y0050285D02*
X0375327Y0050285D01*
X0375327Y0050544D02*
X0370863Y0050544D01*
X0375327Y0044037D02*
X0375327Y0039967D01*
X0370863Y0039967D01*
X0370863Y0044037D01*
X0375327Y0044037D01*
X0375327Y0040226D02*
X0370863Y0040226D01*
X0370863Y0040485D02*
X0375327Y0040485D01*
X0375327Y0040744D02*
X0370863Y0040744D01*
X0370863Y0041003D02*
X0375327Y0041003D01*
X0375327Y0041262D02*
X0370863Y0041262D01*
X0370863Y0041521D02*
X0375327Y0041521D01*
X0375327Y0041780D02*
X0370863Y0041780D01*
X0370863Y0042039D02*
X0375327Y0042039D01*
X0375327Y0042298D02*
X0370863Y0042298D01*
X0370863Y0042557D02*
X0375327Y0042557D01*
X0375327Y0042816D02*
X0370863Y0042816D01*
X0370863Y0043075D02*
X0375327Y0043075D01*
X0375327Y0043334D02*
X0370863Y0043334D01*
X0370863Y0043593D02*
X0375327Y0043593D01*
X0375327Y0043852D02*
X0370863Y0043852D01*
X0397630Y0045770D02*
X0397630Y0050234D01*
X0397630Y0045770D02*
X0393560Y0045770D01*
X0393560Y0050234D01*
X0397630Y0050234D01*
X0397630Y0046029D02*
X0393560Y0046029D01*
X0393560Y0046288D02*
X0397630Y0046288D01*
X0397630Y0046547D02*
X0393560Y0046547D01*
X0393560Y0046806D02*
X0397630Y0046806D01*
X0397630Y0047065D02*
X0393560Y0047065D01*
X0393560Y0047324D02*
X0397630Y0047324D01*
X0397630Y0047583D02*
X0393560Y0047583D01*
X0393560Y0047842D02*
X0397630Y0047842D01*
X0397630Y0048101D02*
X0393560Y0048101D01*
X0393560Y0048360D02*
X0397630Y0048360D01*
X0397630Y0048619D02*
X0393560Y0048619D01*
X0393560Y0048878D02*
X0397630Y0048878D01*
X0397630Y0049137D02*
X0393560Y0049137D01*
X0393560Y0049396D02*
X0397630Y0049396D01*
X0397630Y0049655D02*
X0393560Y0049655D01*
X0393560Y0049914D02*
X0397630Y0049914D01*
X0397630Y0050173D02*
X0393560Y0050173D01*
X0397630Y0052462D02*
X0397630Y0056926D01*
X0397630Y0052462D02*
X0393560Y0052462D01*
X0393560Y0056926D01*
X0397630Y0056926D01*
X0397630Y0052721D02*
X0393560Y0052721D01*
X0393560Y0052980D02*
X0397630Y0052980D01*
X0397630Y0053239D02*
X0393560Y0053239D01*
X0393560Y0053498D02*
X0397630Y0053498D01*
X0397630Y0053757D02*
X0393560Y0053757D01*
X0393560Y0054016D02*
X0397630Y0054016D01*
X0397630Y0054275D02*
X0393560Y0054275D01*
X0393560Y0054534D02*
X0397630Y0054534D01*
X0397630Y0054793D02*
X0393560Y0054793D01*
X0393560Y0055052D02*
X0397630Y0055052D01*
X0397630Y0055311D02*
X0393560Y0055311D01*
X0393560Y0055570D02*
X0397630Y0055570D01*
X0397630Y0055829D02*
X0393560Y0055829D01*
X0393560Y0056088D02*
X0397630Y0056088D01*
X0397630Y0056347D02*
X0393560Y0056347D01*
X0393560Y0056606D02*
X0397630Y0056606D01*
X0397630Y0056865D02*
X0393560Y0056865D01*
X0393363Y0067967D02*
X0393363Y0072037D01*
X0397827Y0072037D01*
X0397827Y0067967D01*
X0393363Y0067967D01*
X0393363Y0068226D02*
X0397827Y0068226D01*
X0397827Y0068485D02*
X0393363Y0068485D01*
X0393363Y0068744D02*
X0397827Y0068744D01*
X0397827Y0069003D02*
X0393363Y0069003D01*
X0393363Y0069262D02*
X0397827Y0069262D01*
X0397827Y0069521D02*
X0393363Y0069521D01*
X0393363Y0069780D02*
X0397827Y0069780D01*
X0397827Y0070039D02*
X0393363Y0070039D01*
X0393363Y0070298D02*
X0397827Y0070298D01*
X0397827Y0070557D02*
X0393363Y0070557D01*
X0393363Y0070816D02*
X0397827Y0070816D01*
X0397827Y0071075D02*
X0393363Y0071075D01*
X0393363Y0071334D02*
X0397827Y0071334D01*
X0397827Y0071593D02*
X0393363Y0071593D01*
X0393363Y0071852D02*
X0397827Y0071852D01*
X0393363Y0074659D02*
X0393363Y0078729D01*
X0397827Y0078729D01*
X0397827Y0074659D01*
X0393363Y0074659D01*
X0393363Y0074918D02*
X0397827Y0074918D01*
X0397827Y0075177D02*
X0393363Y0075177D01*
X0393363Y0075436D02*
X0397827Y0075436D01*
X0397827Y0075695D02*
X0393363Y0075695D01*
X0393363Y0075954D02*
X0397827Y0075954D01*
X0397827Y0076213D02*
X0393363Y0076213D01*
X0393363Y0076472D02*
X0397827Y0076472D01*
X0397827Y0076731D02*
X0393363Y0076731D01*
X0393363Y0076990D02*
X0397827Y0076990D01*
X0397827Y0077249D02*
X0393363Y0077249D01*
X0393363Y0077508D02*
X0397827Y0077508D01*
X0397827Y0077767D02*
X0393363Y0077767D01*
X0393363Y0078026D02*
X0397827Y0078026D01*
X0397827Y0078285D02*
X0393363Y0078285D01*
X0393363Y0078544D02*
X0397827Y0078544D01*
X0400214Y0079616D02*
X0404284Y0079616D01*
X0400214Y0079616D02*
X0400214Y0084080D01*
X0404284Y0084080D01*
X0404284Y0079616D01*
X0404284Y0079875D02*
X0400214Y0079875D01*
X0400214Y0080134D02*
X0404284Y0080134D01*
X0404284Y0080393D02*
X0400214Y0080393D01*
X0400214Y0080652D02*
X0404284Y0080652D01*
X0404284Y0080911D02*
X0400214Y0080911D01*
X0400214Y0081170D02*
X0404284Y0081170D01*
X0404284Y0081429D02*
X0400214Y0081429D01*
X0400214Y0081688D02*
X0404284Y0081688D01*
X0404284Y0081947D02*
X0400214Y0081947D01*
X0400214Y0082206D02*
X0404284Y0082206D01*
X0404284Y0082465D02*
X0400214Y0082465D01*
X0400214Y0082724D02*
X0404284Y0082724D01*
X0404284Y0082983D02*
X0400214Y0082983D01*
X0400214Y0083242D02*
X0404284Y0083242D01*
X0404284Y0083501D02*
X0400214Y0083501D01*
X0400214Y0083760D02*
X0404284Y0083760D01*
X0404284Y0084019D02*
X0400214Y0084019D01*
X0406907Y0079616D02*
X0410977Y0079616D01*
X0406907Y0079616D02*
X0406907Y0084080D01*
X0410977Y0084080D01*
X0410977Y0079616D01*
X0410977Y0079875D02*
X0406907Y0079875D01*
X0406907Y0080134D02*
X0410977Y0080134D01*
X0410977Y0080393D02*
X0406907Y0080393D01*
X0406907Y0080652D02*
X0410977Y0080652D01*
X0410977Y0080911D02*
X0406907Y0080911D01*
X0406907Y0081170D02*
X0410977Y0081170D01*
X0410977Y0081429D02*
X0406907Y0081429D01*
X0406907Y0081688D02*
X0410977Y0081688D01*
X0410977Y0081947D02*
X0406907Y0081947D01*
X0406907Y0082206D02*
X0410977Y0082206D01*
X0410977Y0082465D02*
X0406907Y0082465D01*
X0406907Y0082724D02*
X0410977Y0082724D01*
X0410977Y0082983D02*
X0406907Y0082983D01*
X0406907Y0083242D02*
X0410977Y0083242D01*
X0410977Y0083501D02*
X0406907Y0083501D01*
X0406907Y0083760D02*
X0410977Y0083760D01*
X0410977Y0084019D02*
X0406907Y0084019D01*
X0390674Y0085383D02*
X0386210Y0085383D01*
X0390674Y0085383D02*
X0390674Y0081313D01*
X0386210Y0081313D01*
X0386210Y0085383D01*
X0386210Y0081572D02*
X0390674Y0081572D01*
X0390674Y0081831D02*
X0386210Y0081831D01*
X0386210Y0082090D02*
X0390674Y0082090D01*
X0390674Y0082349D02*
X0386210Y0082349D01*
X0386210Y0082608D02*
X0390674Y0082608D01*
X0390674Y0082867D02*
X0386210Y0082867D01*
X0386210Y0083126D02*
X0390674Y0083126D01*
X0390674Y0083385D02*
X0386210Y0083385D01*
X0386210Y0083644D02*
X0390674Y0083644D01*
X0390674Y0083903D02*
X0386210Y0083903D01*
X0386210Y0084162D02*
X0390674Y0084162D01*
X0390674Y0084421D02*
X0386210Y0084421D01*
X0386210Y0084680D02*
X0390674Y0084680D01*
X0390674Y0084939D02*
X0386210Y0084939D01*
X0386210Y0085198D02*
X0390674Y0085198D01*
X0383981Y0085383D02*
X0379517Y0085383D01*
X0383981Y0085383D02*
X0383981Y0081313D01*
X0379517Y0081313D01*
X0379517Y0085383D01*
X0379517Y0081572D02*
X0383981Y0081572D01*
X0383981Y0081831D02*
X0379517Y0081831D01*
X0379517Y0082090D02*
X0383981Y0082090D01*
X0383981Y0082349D02*
X0379517Y0082349D01*
X0379517Y0082608D02*
X0383981Y0082608D01*
X0383981Y0082867D02*
X0379517Y0082867D01*
X0379517Y0083126D02*
X0383981Y0083126D01*
X0383981Y0083385D02*
X0379517Y0083385D01*
X0379517Y0083644D02*
X0383981Y0083644D01*
X0383981Y0083903D02*
X0379517Y0083903D01*
X0379517Y0084162D02*
X0383981Y0084162D01*
X0383981Y0084421D02*
X0379517Y0084421D01*
X0379517Y0084680D02*
X0383981Y0084680D01*
X0383981Y0084939D02*
X0379517Y0084939D01*
X0379517Y0085198D02*
X0383981Y0085198D01*
X0383477Y0101580D02*
X0379407Y0101580D01*
X0383477Y0101580D02*
X0383477Y0097116D01*
X0379407Y0097116D01*
X0379407Y0101580D01*
X0379407Y0097375D02*
X0383477Y0097375D01*
X0383477Y0097634D02*
X0379407Y0097634D01*
X0379407Y0097893D02*
X0383477Y0097893D01*
X0383477Y0098152D02*
X0379407Y0098152D01*
X0379407Y0098411D02*
X0383477Y0098411D01*
X0383477Y0098670D02*
X0379407Y0098670D01*
X0379407Y0098929D02*
X0383477Y0098929D01*
X0383477Y0099188D02*
X0379407Y0099188D01*
X0379407Y0099447D02*
X0383477Y0099447D01*
X0383477Y0099706D02*
X0379407Y0099706D01*
X0379407Y0099965D02*
X0383477Y0099965D01*
X0383477Y0100224D02*
X0379407Y0100224D01*
X0379407Y0100483D02*
X0383477Y0100483D01*
X0383477Y0100742D02*
X0379407Y0100742D01*
X0379407Y0101001D02*
X0383477Y0101001D01*
X0383477Y0101260D02*
X0379407Y0101260D01*
X0379407Y0101519D02*
X0383477Y0101519D01*
X0376784Y0101580D02*
X0372714Y0101580D01*
X0376784Y0101580D02*
X0376784Y0097116D01*
X0372714Y0097116D01*
X0372714Y0101580D01*
X0372714Y0097375D02*
X0376784Y0097375D01*
X0376784Y0097634D02*
X0372714Y0097634D01*
X0372714Y0097893D02*
X0376784Y0097893D01*
X0376784Y0098152D02*
X0372714Y0098152D01*
X0372714Y0098411D02*
X0376784Y0098411D01*
X0376784Y0098670D02*
X0372714Y0098670D01*
X0372714Y0098929D02*
X0376784Y0098929D01*
X0376784Y0099188D02*
X0372714Y0099188D01*
X0372714Y0099447D02*
X0376784Y0099447D01*
X0376784Y0099706D02*
X0372714Y0099706D01*
X0372714Y0099965D02*
X0376784Y0099965D01*
X0376784Y0100224D02*
X0372714Y0100224D01*
X0372714Y0100483D02*
X0376784Y0100483D01*
X0376784Y0100742D02*
X0372714Y0100742D01*
X0372714Y0101001D02*
X0376784Y0101001D01*
X0376784Y0101260D02*
X0372714Y0101260D01*
X0372714Y0101519D02*
X0376784Y0101519D01*
X0377977Y0109580D02*
X0373907Y0109580D01*
X0377977Y0109580D02*
X0377977Y0105116D01*
X0373907Y0105116D01*
X0373907Y0109580D01*
X0373907Y0105375D02*
X0377977Y0105375D01*
X0377977Y0105634D02*
X0373907Y0105634D01*
X0373907Y0105893D02*
X0377977Y0105893D01*
X0377977Y0106152D02*
X0373907Y0106152D01*
X0373907Y0106411D02*
X0377977Y0106411D01*
X0377977Y0106670D02*
X0373907Y0106670D01*
X0373907Y0106929D02*
X0377977Y0106929D01*
X0377977Y0107188D02*
X0373907Y0107188D01*
X0373907Y0107447D02*
X0377977Y0107447D01*
X0377977Y0107706D02*
X0373907Y0107706D01*
X0373907Y0107965D02*
X0377977Y0107965D01*
X0377977Y0108224D02*
X0373907Y0108224D01*
X0373907Y0108483D02*
X0377977Y0108483D01*
X0377977Y0108742D02*
X0373907Y0108742D01*
X0373907Y0109001D02*
X0377977Y0109001D01*
X0377977Y0109260D02*
X0373907Y0109260D01*
X0373907Y0109519D02*
X0377977Y0109519D01*
X0377977Y0117580D02*
X0373907Y0117580D01*
X0377977Y0117580D02*
X0377977Y0113116D01*
X0373907Y0113116D01*
X0373907Y0117580D01*
X0373907Y0113375D02*
X0377977Y0113375D01*
X0377977Y0113634D02*
X0373907Y0113634D01*
X0373907Y0113893D02*
X0377977Y0113893D01*
X0377977Y0114152D02*
X0373907Y0114152D01*
X0373907Y0114411D02*
X0377977Y0114411D01*
X0377977Y0114670D02*
X0373907Y0114670D01*
X0373907Y0114929D02*
X0377977Y0114929D01*
X0377977Y0115188D02*
X0373907Y0115188D01*
X0373907Y0115447D02*
X0377977Y0115447D01*
X0377977Y0115706D02*
X0373907Y0115706D01*
X0373907Y0115965D02*
X0377977Y0115965D01*
X0377977Y0116224D02*
X0373907Y0116224D01*
X0373907Y0116483D02*
X0377977Y0116483D01*
X0377977Y0116742D02*
X0373907Y0116742D01*
X0373907Y0117001D02*
X0377977Y0117001D01*
X0377977Y0117260D02*
X0373907Y0117260D01*
X0373907Y0117519D02*
X0377977Y0117519D01*
X0371284Y0117580D02*
X0367214Y0117580D01*
X0371284Y0117580D02*
X0371284Y0113116D01*
X0367214Y0113116D01*
X0367214Y0117580D01*
X0367214Y0113375D02*
X0371284Y0113375D01*
X0371284Y0113634D02*
X0367214Y0113634D01*
X0367214Y0113893D02*
X0371284Y0113893D01*
X0371284Y0114152D02*
X0367214Y0114152D01*
X0367214Y0114411D02*
X0371284Y0114411D01*
X0371284Y0114670D02*
X0367214Y0114670D01*
X0367214Y0114929D02*
X0371284Y0114929D01*
X0371284Y0115188D02*
X0367214Y0115188D01*
X0367214Y0115447D02*
X0371284Y0115447D01*
X0371284Y0115706D02*
X0367214Y0115706D01*
X0367214Y0115965D02*
X0371284Y0115965D01*
X0371284Y0116224D02*
X0367214Y0116224D01*
X0367214Y0116483D02*
X0371284Y0116483D01*
X0371284Y0116742D02*
X0367214Y0116742D01*
X0367214Y0117001D02*
X0371284Y0117001D01*
X0371284Y0117260D02*
X0367214Y0117260D01*
X0367214Y0117519D02*
X0371284Y0117519D01*
X0371284Y0109580D02*
X0367214Y0109580D01*
X0371284Y0109580D02*
X0371284Y0105116D01*
X0367214Y0105116D01*
X0367214Y0109580D01*
X0367214Y0105375D02*
X0371284Y0105375D01*
X0371284Y0105634D02*
X0367214Y0105634D01*
X0367214Y0105893D02*
X0371284Y0105893D01*
X0371284Y0106152D02*
X0367214Y0106152D01*
X0367214Y0106411D02*
X0371284Y0106411D01*
X0371284Y0106670D02*
X0367214Y0106670D01*
X0367214Y0106929D02*
X0371284Y0106929D01*
X0371284Y0107188D02*
X0367214Y0107188D01*
X0367214Y0107447D02*
X0371284Y0107447D01*
X0371284Y0107706D02*
X0367214Y0107706D01*
X0367214Y0107965D02*
X0371284Y0107965D01*
X0371284Y0108224D02*
X0367214Y0108224D01*
X0367214Y0108483D02*
X0371284Y0108483D01*
X0371284Y0108742D02*
X0367214Y0108742D01*
X0367214Y0109001D02*
X0371284Y0109001D01*
X0371284Y0109260D02*
X0367214Y0109260D01*
X0367214Y0109519D02*
X0371284Y0109519D01*
X0374714Y0129080D02*
X0378784Y0129080D01*
X0378784Y0124616D01*
X0374714Y0124616D01*
X0374714Y0129080D01*
X0374714Y0124875D02*
X0378784Y0124875D01*
X0378784Y0125134D02*
X0374714Y0125134D01*
X0374714Y0125393D02*
X0378784Y0125393D01*
X0378784Y0125652D02*
X0374714Y0125652D01*
X0374714Y0125911D02*
X0378784Y0125911D01*
X0378784Y0126170D02*
X0374714Y0126170D01*
X0374714Y0126429D02*
X0378784Y0126429D01*
X0378784Y0126688D02*
X0374714Y0126688D01*
X0374714Y0126947D02*
X0378784Y0126947D01*
X0378784Y0127206D02*
X0374714Y0127206D01*
X0374714Y0127465D02*
X0378784Y0127465D01*
X0378784Y0127724D02*
X0374714Y0127724D01*
X0374714Y0127983D02*
X0378784Y0127983D01*
X0378784Y0128242D02*
X0374714Y0128242D01*
X0374714Y0128501D02*
X0378784Y0128501D01*
X0378784Y0128760D02*
X0374714Y0128760D01*
X0374714Y0129019D02*
X0378784Y0129019D01*
X0381407Y0129080D02*
X0385477Y0129080D01*
X0385477Y0124616D01*
X0381407Y0124616D01*
X0381407Y0129080D01*
X0381407Y0124875D02*
X0385477Y0124875D01*
X0385477Y0125134D02*
X0381407Y0125134D01*
X0381407Y0125393D02*
X0385477Y0125393D01*
X0385477Y0125652D02*
X0381407Y0125652D01*
X0381407Y0125911D02*
X0385477Y0125911D01*
X0385477Y0126170D02*
X0381407Y0126170D01*
X0381407Y0126429D02*
X0385477Y0126429D01*
X0385477Y0126688D02*
X0381407Y0126688D01*
X0381407Y0126947D02*
X0385477Y0126947D01*
X0385477Y0127206D02*
X0381407Y0127206D01*
X0381407Y0127465D02*
X0385477Y0127465D01*
X0385477Y0127724D02*
X0381407Y0127724D01*
X0381407Y0127983D02*
X0385477Y0127983D01*
X0385477Y0128242D02*
X0381407Y0128242D01*
X0381407Y0128501D02*
X0385477Y0128501D01*
X0385477Y0128760D02*
X0381407Y0128760D01*
X0381407Y0129019D02*
X0385477Y0129019D01*
X0380060Y0133270D02*
X0380060Y0137734D01*
X0384130Y0137734D01*
X0384130Y0133270D01*
X0380060Y0133270D01*
X0380060Y0133529D02*
X0384130Y0133529D01*
X0384130Y0133788D02*
X0380060Y0133788D01*
X0380060Y0134047D02*
X0384130Y0134047D01*
X0384130Y0134306D02*
X0380060Y0134306D01*
X0380060Y0134565D02*
X0384130Y0134565D01*
X0384130Y0134824D02*
X0380060Y0134824D01*
X0380060Y0135083D02*
X0384130Y0135083D01*
X0384130Y0135342D02*
X0380060Y0135342D01*
X0380060Y0135601D02*
X0384130Y0135601D01*
X0384130Y0135860D02*
X0380060Y0135860D01*
X0380060Y0136119D02*
X0384130Y0136119D01*
X0384130Y0136378D02*
X0380060Y0136378D01*
X0380060Y0136637D02*
X0384130Y0136637D01*
X0384130Y0136896D02*
X0380060Y0136896D01*
X0380060Y0137155D02*
X0384130Y0137155D01*
X0384130Y0137414D02*
X0380060Y0137414D01*
X0380060Y0137673D02*
X0384130Y0137673D01*
X0380060Y0139962D02*
X0380060Y0144426D01*
X0384130Y0144426D01*
X0384130Y0139962D01*
X0380060Y0139962D01*
X0380060Y0140221D02*
X0384130Y0140221D01*
X0384130Y0140480D02*
X0380060Y0140480D01*
X0380060Y0140739D02*
X0384130Y0140739D01*
X0384130Y0140998D02*
X0380060Y0140998D01*
X0380060Y0141257D02*
X0384130Y0141257D01*
X0384130Y0141516D02*
X0380060Y0141516D01*
X0380060Y0141775D02*
X0384130Y0141775D01*
X0384130Y0142034D02*
X0380060Y0142034D01*
X0380060Y0142293D02*
X0384130Y0142293D01*
X0384130Y0142552D02*
X0380060Y0142552D01*
X0380060Y0142811D02*
X0384130Y0142811D01*
X0384130Y0143070D02*
X0380060Y0143070D01*
X0380060Y0143329D02*
X0384130Y0143329D01*
X0384130Y0143588D02*
X0380060Y0143588D01*
X0380060Y0143847D02*
X0384130Y0143847D01*
X0384130Y0144106D02*
X0380060Y0144106D01*
X0380060Y0144365D02*
X0384130Y0144365D01*
X0388214Y0138580D02*
X0392284Y0138580D01*
X0392284Y0134116D01*
X0388214Y0134116D01*
X0388214Y0138580D01*
X0388214Y0134375D02*
X0392284Y0134375D01*
X0392284Y0134634D02*
X0388214Y0134634D01*
X0388214Y0134893D02*
X0392284Y0134893D01*
X0392284Y0135152D02*
X0388214Y0135152D01*
X0388214Y0135411D02*
X0392284Y0135411D01*
X0392284Y0135670D02*
X0388214Y0135670D01*
X0388214Y0135929D02*
X0392284Y0135929D01*
X0392284Y0136188D02*
X0388214Y0136188D01*
X0388214Y0136447D02*
X0392284Y0136447D01*
X0392284Y0136706D02*
X0388214Y0136706D01*
X0388214Y0136965D02*
X0392284Y0136965D01*
X0392284Y0137224D02*
X0388214Y0137224D01*
X0388214Y0137483D02*
X0392284Y0137483D01*
X0392284Y0137742D02*
X0388214Y0137742D01*
X0388214Y0138001D02*
X0392284Y0138001D01*
X0392284Y0138260D02*
X0388214Y0138260D01*
X0388214Y0138519D02*
X0392284Y0138519D01*
X0394907Y0138580D02*
X0398977Y0138580D01*
X0398977Y0134116D01*
X0394907Y0134116D01*
X0394907Y0138580D01*
X0394907Y0134375D02*
X0398977Y0134375D01*
X0398977Y0134634D02*
X0394907Y0134634D01*
X0394907Y0134893D02*
X0398977Y0134893D01*
X0398977Y0135152D02*
X0394907Y0135152D01*
X0394907Y0135411D02*
X0398977Y0135411D01*
X0398977Y0135670D02*
X0394907Y0135670D01*
X0394907Y0135929D02*
X0398977Y0135929D01*
X0398977Y0136188D02*
X0394907Y0136188D01*
X0394907Y0136447D02*
X0398977Y0136447D01*
X0398977Y0136706D02*
X0394907Y0136706D01*
X0394907Y0136965D02*
X0398977Y0136965D01*
X0398977Y0137224D02*
X0394907Y0137224D01*
X0394907Y0137483D02*
X0398977Y0137483D01*
X0398977Y0137742D02*
X0394907Y0137742D01*
X0394907Y0138001D02*
X0398977Y0138001D01*
X0398977Y0138260D02*
X0394907Y0138260D01*
X0394907Y0138519D02*
X0398977Y0138519D01*
X0317977Y0107116D02*
X0313907Y0107116D01*
X0313907Y0111580D01*
X0317977Y0111580D01*
X0317977Y0107116D01*
X0317977Y0107375D02*
X0313907Y0107375D01*
X0313907Y0107634D02*
X0317977Y0107634D01*
X0317977Y0107893D02*
X0313907Y0107893D01*
X0313907Y0108152D02*
X0317977Y0108152D01*
X0317977Y0108411D02*
X0313907Y0108411D01*
X0313907Y0108670D02*
X0317977Y0108670D01*
X0317977Y0108929D02*
X0313907Y0108929D01*
X0313907Y0109188D02*
X0317977Y0109188D01*
X0317977Y0109447D02*
X0313907Y0109447D01*
X0313907Y0109706D02*
X0317977Y0109706D01*
X0317977Y0109965D02*
X0313907Y0109965D01*
X0313907Y0110224D02*
X0317977Y0110224D01*
X0317977Y0110483D02*
X0313907Y0110483D01*
X0313907Y0110742D02*
X0317977Y0110742D01*
X0317977Y0111001D02*
X0313907Y0111001D01*
X0313907Y0111260D02*
X0317977Y0111260D01*
X0317977Y0111519D02*
X0313907Y0111519D01*
X0311284Y0107116D02*
X0307214Y0107116D01*
X0307214Y0111580D01*
X0311284Y0111580D01*
X0311284Y0107116D01*
X0311284Y0107375D02*
X0307214Y0107375D01*
X0307214Y0107634D02*
X0311284Y0107634D01*
X0311284Y0107893D02*
X0307214Y0107893D01*
X0307214Y0108152D02*
X0311284Y0108152D01*
X0311284Y0108411D02*
X0307214Y0108411D01*
X0307214Y0108670D02*
X0311284Y0108670D01*
X0311284Y0108929D02*
X0307214Y0108929D01*
X0307214Y0109188D02*
X0311284Y0109188D01*
X0311284Y0109447D02*
X0307214Y0109447D01*
X0307214Y0109706D02*
X0311284Y0109706D01*
X0311284Y0109965D02*
X0307214Y0109965D01*
X0307214Y0110224D02*
X0311284Y0110224D01*
X0311284Y0110483D02*
X0307214Y0110483D01*
X0307214Y0110742D02*
X0311284Y0110742D01*
X0311284Y0111001D02*
X0307214Y0111001D01*
X0307214Y0111260D02*
X0311284Y0111260D01*
X0311284Y0111519D02*
X0307214Y0111519D01*
D12*
X0272953Y0146337D02*
X0267717Y0146337D01*
X0267717Y0152359D01*
X0272953Y0152359D01*
X0272953Y0146337D01*
X0272953Y0146612D02*
X0267717Y0146612D01*
X0267717Y0146887D02*
X0272953Y0146887D01*
X0272953Y0147162D02*
X0267717Y0147162D01*
X0267717Y0147437D02*
X0272953Y0147437D01*
X0272953Y0147712D02*
X0267717Y0147712D01*
X0267717Y0147987D02*
X0272953Y0147987D01*
X0272953Y0148262D02*
X0267717Y0148262D01*
X0267717Y0148537D02*
X0272953Y0148537D01*
X0272953Y0148812D02*
X0267717Y0148812D01*
X0267717Y0149087D02*
X0272953Y0149087D01*
X0272953Y0149362D02*
X0267717Y0149362D01*
X0267717Y0149637D02*
X0272953Y0149637D01*
X0272953Y0149912D02*
X0267717Y0149912D01*
X0267717Y0150187D02*
X0272953Y0150187D01*
X0272953Y0150462D02*
X0267717Y0150462D01*
X0267717Y0150737D02*
X0272953Y0150737D01*
X0272953Y0151012D02*
X0267717Y0151012D01*
X0267717Y0151287D02*
X0272953Y0151287D01*
X0272953Y0151562D02*
X0267717Y0151562D01*
X0267717Y0151837D02*
X0272953Y0151837D01*
X0272953Y0152112D02*
X0267717Y0152112D01*
X0265473Y0146337D02*
X0260237Y0146337D01*
X0260237Y0152359D01*
X0265473Y0152359D01*
X0265473Y0146337D01*
X0265473Y0146612D02*
X0260237Y0146612D01*
X0260237Y0146887D02*
X0265473Y0146887D01*
X0265473Y0147162D02*
X0260237Y0147162D01*
X0260237Y0147437D02*
X0265473Y0147437D01*
X0265473Y0147712D02*
X0260237Y0147712D01*
X0260237Y0147987D02*
X0265473Y0147987D01*
X0265473Y0148262D02*
X0260237Y0148262D01*
X0260237Y0148537D02*
X0265473Y0148537D01*
X0265473Y0148812D02*
X0260237Y0148812D01*
X0260237Y0149087D02*
X0265473Y0149087D01*
X0265473Y0149362D02*
X0260237Y0149362D01*
X0260237Y0149637D02*
X0265473Y0149637D01*
X0265473Y0149912D02*
X0260237Y0149912D01*
X0260237Y0150187D02*
X0265473Y0150187D01*
X0265473Y0150462D02*
X0260237Y0150462D01*
X0260237Y0150737D02*
X0265473Y0150737D01*
X0265473Y0151012D02*
X0260237Y0151012D01*
X0260237Y0151287D02*
X0265473Y0151287D01*
X0265473Y0151562D02*
X0260237Y0151562D01*
X0260237Y0151837D02*
X0265473Y0151837D01*
X0265473Y0152112D02*
X0260237Y0152112D01*
X0108953Y0160859D02*
X0103717Y0160859D01*
X0108953Y0160859D02*
X0108953Y0154837D01*
X0103717Y0154837D01*
X0103717Y0160859D01*
X0103717Y0155112D02*
X0108953Y0155112D01*
X0108953Y0155387D02*
X0103717Y0155387D01*
X0103717Y0155662D02*
X0108953Y0155662D01*
X0108953Y0155937D02*
X0103717Y0155937D01*
X0103717Y0156212D02*
X0108953Y0156212D01*
X0108953Y0156487D02*
X0103717Y0156487D01*
X0103717Y0156762D02*
X0108953Y0156762D01*
X0108953Y0157037D02*
X0103717Y0157037D01*
X0103717Y0157312D02*
X0108953Y0157312D01*
X0108953Y0157587D02*
X0103717Y0157587D01*
X0103717Y0157862D02*
X0108953Y0157862D01*
X0108953Y0158137D02*
X0103717Y0158137D01*
X0103717Y0158412D02*
X0108953Y0158412D01*
X0108953Y0158687D02*
X0103717Y0158687D01*
X0103717Y0158962D02*
X0108953Y0158962D01*
X0108953Y0159237D02*
X0103717Y0159237D01*
X0103717Y0159512D02*
X0108953Y0159512D01*
X0108953Y0159787D02*
X0103717Y0159787D01*
X0103717Y0160062D02*
X0108953Y0160062D01*
X0108953Y0160337D02*
X0103717Y0160337D01*
X0103717Y0160612D02*
X0108953Y0160612D01*
X0101473Y0160859D02*
X0096237Y0160859D01*
X0101473Y0160859D02*
X0101473Y0154837D01*
X0096237Y0154837D01*
X0096237Y0160859D01*
X0096237Y0155112D02*
X0101473Y0155112D01*
X0101473Y0155387D02*
X0096237Y0155387D01*
X0096237Y0155662D02*
X0101473Y0155662D01*
X0101473Y0155937D02*
X0096237Y0155937D01*
X0096237Y0156212D02*
X0101473Y0156212D01*
X0101473Y0156487D02*
X0096237Y0156487D01*
X0096237Y0156762D02*
X0101473Y0156762D01*
X0101473Y0157037D02*
X0096237Y0157037D01*
X0096237Y0157312D02*
X0101473Y0157312D01*
X0101473Y0157587D02*
X0096237Y0157587D01*
X0096237Y0157862D02*
X0101473Y0157862D01*
X0101473Y0158137D02*
X0096237Y0158137D01*
X0096237Y0158412D02*
X0101473Y0158412D01*
X0101473Y0158687D02*
X0096237Y0158687D01*
X0096237Y0158962D02*
X0101473Y0158962D01*
X0101473Y0159237D02*
X0096237Y0159237D01*
X0096237Y0159512D02*
X0101473Y0159512D01*
X0101473Y0159787D02*
X0096237Y0159787D01*
X0096237Y0160062D02*
X0101473Y0160062D01*
X0101473Y0160337D02*
X0096237Y0160337D01*
X0096237Y0160612D02*
X0101473Y0160612D01*
X0242106Y0044206D02*
X0242106Y0038970D01*
X0236084Y0038970D01*
X0236084Y0044206D01*
X0242106Y0044206D01*
X0242106Y0039245D02*
X0236084Y0039245D01*
X0236084Y0039520D02*
X0242106Y0039520D01*
X0242106Y0039795D02*
X0236084Y0039795D01*
X0236084Y0040070D02*
X0242106Y0040070D01*
X0242106Y0040345D02*
X0236084Y0040345D01*
X0236084Y0040620D02*
X0242106Y0040620D01*
X0242106Y0040895D02*
X0236084Y0040895D01*
X0236084Y0041170D02*
X0242106Y0041170D01*
X0242106Y0041445D02*
X0236084Y0041445D01*
X0236084Y0041720D02*
X0242106Y0041720D01*
X0242106Y0041995D02*
X0236084Y0041995D01*
X0236084Y0042270D02*
X0242106Y0042270D01*
X0242106Y0042545D02*
X0236084Y0042545D01*
X0236084Y0042820D02*
X0242106Y0042820D01*
X0242106Y0043095D02*
X0236084Y0043095D01*
X0236084Y0043370D02*
X0242106Y0043370D01*
X0242106Y0043645D02*
X0236084Y0043645D01*
X0236084Y0043920D02*
X0242106Y0043920D01*
X0242106Y0044195D02*
X0236084Y0044195D01*
X0242106Y0036726D02*
X0242106Y0031490D01*
X0236084Y0031490D01*
X0236084Y0036726D01*
X0242106Y0036726D01*
X0242106Y0031765D02*
X0236084Y0031765D01*
X0236084Y0032040D02*
X0242106Y0032040D01*
X0242106Y0032315D02*
X0236084Y0032315D01*
X0236084Y0032590D02*
X0242106Y0032590D01*
X0242106Y0032865D02*
X0236084Y0032865D01*
X0236084Y0033140D02*
X0242106Y0033140D01*
X0242106Y0033415D02*
X0236084Y0033415D01*
X0236084Y0033690D02*
X0242106Y0033690D01*
X0242106Y0033965D02*
X0236084Y0033965D01*
X0236084Y0034240D02*
X0242106Y0034240D01*
X0242106Y0034515D02*
X0236084Y0034515D01*
X0236084Y0034790D02*
X0242106Y0034790D01*
X0242106Y0035065D02*
X0236084Y0035065D01*
X0236084Y0035340D02*
X0242106Y0035340D01*
X0242106Y0035615D02*
X0236084Y0035615D01*
X0236084Y0035890D02*
X0242106Y0035890D01*
X0242106Y0036165D02*
X0236084Y0036165D01*
X0236084Y0036440D02*
X0242106Y0036440D01*
X0242106Y0036715D02*
X0236084Y0036715D01*
D13*
X0243973Y0119820D02*
X0243973Y0125490D01*
X0251217Y0125490D01*
X0251217Y0119820D01*
X0243973Y0119820D01*
X0243973Y0120055D02*
X0251217Y0120055D01*
X0251217Y0120290D02*
X0243973Y0120290D01*
X0243973Y0120525D02*
X0251217Y0120525D01*
X0251217Y0120760D02*
X0243973Y0120760D01*
X0243973Y0120995D02*
X0251217Y0120995D01*
X0251217Y0121230D02*
X0243973Y0121230D01*
X0243973Y0121465D02*
X0251217Y0121465D01*
X0251217Y0121700D02*
X0243973Y0121700D01*
X0243973Y0121935D02*
X0251217Y0121935D01*
X0251217Y0122170D02*
X0243973Y0122170D01*
X0243973Y0122405D02*
X0251217Y0122405D01*
X0251217Y0122640D02*
X0243973Y0122640D01*
X0243973Y0122875D02*
X0251217Y0122875D01*
X0251217Y0123110D02*
X0243973Y0123110D01*
X0243973Y0123345D02*
X0251217Y0123345D01*
X0251217Y0123580D02*
X0243973Y0123580D01*
X0243973Y0123815D02*
X0251217Y0123815D01*
X0251217Y0124050D02*
X0243973Y0124050D01*
X0243973Y0124285D02*
X0251217Y0124285D01*
X0251217Y0124520D02*
X0243973Y0124520D01*
X0243973Y0124755D02*
X0251217Y0124755D01*
X0251217Y0124990D02*
X0243973Y0124990D01*
X0243973Y0125225D02*
X0251217Y0125225D01*
X0251217Y0125460D02*
X0243973Y0125460D01*
X0243973Y0133206D02*
X0243973Y0138876D01*
X0251217Y0138876D01*
X0251217Y0133206D01*
X0243973Y0133206D01*
X0243973Y0133441D02*
X0251217Y0133441D01*
X0251217Y0133676D02*
X0243973Y0133676D01*
X0243973Y0133911D02*
X0251217Y0133911D01*
X0251217Y0134146D02*
X0243973Y0134146D01*
X0243973Y0134381D02*
X0251217Y0134381D01*
X0251217Y0134616D02*
X0243973Y0134616D01*
X0243973Y0134851D02*
X0251217Y0134851D01*
X0251217Y0135086D02*
X0243973Y0135086D01*
X0243973Y0135321D02*
X0251217Y0135321D01*
X0251217Y0135556D02*
X0243973Y0135556D01*
X0243973Y0135791D02*
X0251217Y0135791D01*
X0251217Y0136026D02*
X0243973Y0136026D01*
X0243973Y0136261D02*
X0251217Y0136261D01*
X0251217Y0136496D02*
X0243973Y0136496D01*
X0243973Y0136731D02*
X0251217Y0136731D01*
X0251217Y0136966D02*
X0243973Y0136966D01*
X0243973Y0137201D02*
X0251217Y0137201D01*
X0251217Y0137436D02*
X0243973Y0137436D01*
X0243973Y0137671D02*
X0251217Y0137671D01*
X0251217Y0137906D02*
X0243973Y0137906D01*
X0243973Y0138141D02*
X0251217Y0138141D01*
X0251217Y0138376D02*
X0243973Y0138376D01*
X0243973Y0138611D02*
X0251217Y0138611D01*
X0251217Y0138846D02*
X0243973Y0138846D01*
X0346217Y0139820D02*
X0346217Y0145490D01*
X0346217Y0139820D02*
X0338973Y0139820D01*
X0338973Y0145490D01*
X0346217Y0145490D01*
X0346217Y0140055D02*
X0338973Y0140055D01*
X0338973Y0140290D02*
X0346217Y0140290D01*
X0346217Y0140525D02*
X0338973Y0140525D01*
X0338973Y0140760D02*
X0346217Y0140760D01*
X0346217Y0140995D02*
X0338973Y0140995D01*
X0338973Y0141230D02*
X0346217Y0141230D01*
X0346217Y0141465D02*
X0338973Y0141465D01*
X0338973Y0141700D02*
X0346217Y0141700D01*
X0346217Y0141935D02*
X0338973Y0141935D01*
X0338973Y0142170D02*
X0346217Y0142170D01*
X0346217Y0142405D02*
X0338973Y0142405D01*
X0338973Y0142640D02*
X0346217Y0142640D01*
X0346217Y0142875D02*
X0338973Y0142875D01*
X0338973Y0143110D02*
X0346217Y0143110D01*
X0346217Y0143345D02*
X0338973Y0143345D01*
X0338973Y0143580D02*
X0346217Y0143580D01*
X0346217Y0143815D02*
X0338973Y0143815D01*
X0338973Y0144050D02*
X0346217Y0144050D01*
X0346217Y0144285D02*
X0338973Y0144285D01*
X0338973Y0144520D02*
X0346217Y0144520D01*
X0346217Y0144755D02*
X0338973Y0144755D01*
X0338973Y0144990D02*
X0346217Y0144990D01*
X0346217Y0145225D02*
X0338973Y0145225D01*
X0338973Y0145460D02*
X0346217Y0145460D01*
X0356217Y0145490D02*
X0356217Y0139820D01*
X0348973Y0139820D01*
X0348973Y0145490D01*
X0356217Y0145490D01*
X0356217Y0140055D02*
X0348973Y0140055D01*
X0348973Y0140290D02*
X0356217Y0140290D01*
X0356217Y0140525D02*
X0348973Y0140525D01*
X0348973Y0140760D02*
X0356217Y0140760D01*
X0356217Y0140995D02*
X0348973Y0140995D01*
X0348973Y0141230D02*
X0356217Y0141230D01*
X0356217Y0141465D02*
X0348973Y0141465D01*
X0348973Y0141700D02*
X0356217Y0141700D01*
X0356217Y0141935D02*
X0348973Y0141935D01*
X0348973Y0142170D02*
X0356217Y0142170D01*
X0356217Y0142405D02*
X0348973Y0142405D01*
X0348973Y0142640D02*
X0356217Y0142640D01*
X0356217Y0142875D02*
X0348973Y0142875D01*
X0348973Y0143110D02*
X0356217Y0143110D01*
X0356217Y0143345D02*
X0348973Y0143345D01*
X0348973Y0143580D02*
X0356217Y0143580D01*
X0356217Y0143815D02*
X0348973Y0143815D01*
X0348973Y0144050D02*
X0356217Y0144050D01*
X0356217Y0144285D02*
X0348973Y0144285D01*
X0348973Y0144520D02*
X0356217Y0144520D01*
X0356217Y0144755D02*
X0348973Y0144755D01*
X0348973Y0144990D02*
X0356217Y0144990D01*
X0356217Y0145225D02*
X0348973Y0145225D01*
X0348973Y0145460D02*
X0356217Y0145460D01*
X0356217Y0153206D02*
X0356217Y0158876D01*
X0356217Y0153206D02*
X0348973Y0153206D01*
X0348973Y0158876D01*
X0356217Y0158876D01*
X0356217Y0153441D02*
X0348973Y0153441D01*
X0348973Y0153676D02*
X0356217Y0153676D01*
X0356217Y0153911D02*
X0348973Y0153911D01*
X0348973Y0154146D02*
X0356217Y0154146D01*
X0356217Y0154381D02*
X0348973Y0154381D01*
X0348973Y0154616D02*
X0356217Y0154616D01*
X0356217Y0154851D02*
X0348973Y0154851D01*
X0348973Y0155086D02*
X0356217Y0155086D01*
X0356217Y0155321D02*
X0348973Y0155321D01*
X0348973Y0155556D02*
X0356217Y0155556D01*
X0356217Y0155791D02*
X0348973Y0155791D01*
X0348973Y0156026D02*
X0356217Y0156026D01*
X0356217Y0156261D02*
X0348973Y0156261D01*
X0348973Y0156496D02*
X0356217Y0156496D01*
X0356217Y0156731D02*
X0348973Y0156731D01*
X0348973Y0156966D02*
X0356217Y0156966D01*
X0356217Y0157201D02*
X0348973Y0157201D01*
X0348973Y0157436D02*
X0356217Y0157436D01*
X0356217Y0157671D02*
X0348973Y0157671D01*
X0348973Y0157906D02*
X0356217Y0157906D01*
X0356217Y0158141D02*
X0348973Y0158141D01*
X0348973Y0158376D02*
X0356217Y0158376D01*
X0356217Y0158611D02*
X0348973Y0158611D01*
X0348973Y0158846D02*
X0356217Y0158846D01*
X0346217Y0158876D02*
X0346217Y0153206D01*
X0338973Y0153206D01*
X0338973Y0158876D01*
X0346217Y0158876D01*
X0346217Y0153441D02*
X0338973Y0153441D01*
X0338973Y0153676D02*
X0346217Y0153676D01*
X0346217Y0153911D02*
X0338973Y0153911D01*
X0338973Y0154146D02*
X0346217Y0154146D01*
X0346217Y0154381D02*
X0338973Y0154381D01*
X0338973Y0154616D02*
X0346217Y0154616D01*
X0346217Y0154851D02*
X0338973Y0154851D01*
X0338973Y0155086D02*
X0346217Y0155086D01*
X0346217Y0155321D02*
X0338973Y0155321D01*
X0338973Y0155556D02*
X0346217Y0155556D01*
X0346217Y0155791D02*
X0338973Y0155791D01*
X0338973Y0156026D02*
X0346217Y0156026D01*
X0346217Y0156261D02*
X0338973Y0156261D01*
X0338973Y0156496D02*
X0346217Y0156496D01*
X0346217Y0156731D02*
X0338973Y0156731D01*
X0338973Y0156966D02*
X0346217Y0156966D01*
X0346217Y0157201D02*
X0338973Y0157201D01*
X0338973Y0157436D02*
X0346217Y0157436D01*
X0346217Y0157671D02*
X0338973Y0157671D01*
X0338973Y0157906D02*
X0346217Y0157906D01*
X0346217Y0158141D02*
X0338973Y0158141D01*
X0338973Y0158376D02*
X0346217Y0158376D01*
X0346217Y0158611D02*
X0338973Y0158611D01*
X0338973Y0158846D02*
X0346217Y0158846D01*
D14*
X0396595Y0159348D03*
X0067595Y0159348D03*
X0067595Y0024348D03*
D15*
X0207473Y0031624D02*
X0207473Y0038048D01*
X0207473Y0031624D02*
X0196717Y0031624D01*
X0196717Y0038048D01*
X0207473Y0038048D01*
X0207473Y0031891D02*
X0196717Y0031891D01*
X0196717Y0032158D02*
X0207473Y0032158D01*
X0207473Y0032425D02*
X0196717Y0032425D01*
X0196717Y0032692D02*
X0207473Y0032692D01*
X0207473Y0032959D02*
X0196717Y0032959D01*
X0196717Y0033226D02*
X0207473Y0033226D01*
X0207473Y0033493D02*
X0196717Y0033493D01*
X0196717Y0033760D02*
X0207473Y0033760D01*
X0207473Y0034027D02*
X0196717Y0034027D01*
X0196717Y0034294D02*
X0207473Y0034294D01*
X0207473Y0034561D02*
X0196717Y0034561D01*
X0196717Y0034828D02*
X0207473Y0034828D01*
X0207473Y0035095D02*
X0196717Y0035095D01*
X0196717Y0035362D02*
X0207473Y0035362D01*
X0207473Y0035629D02*
X0196717Y0035629D01*
X0196717Y0035896D02*
X0207473Y0035896D01*
X0207473Y0036163D02*
X0196717Y0036163D01*
X0196717Y0036430D02*
X0207473Y0036430D01*
X0207473Y0036697D02*
X0196717Y0036697D01*
X0196717Y0036964D02*
X0207473Y0036964D01*
X0207473Y0037231D02*
X0196717Y0037231D01*
X0196717Y0037498D02*
X0207473Y0037498D01*
X0207473Y0037765D02*
X0196717Y0037765D01*
X0196717Y0038032D02*
X0207473Y0038032D01*
X0207473Y0042648D02*
X0207473Y0049072D01*
X0207473Y0042648D02*
X0196717Y0042648D01*
X0196717Y0049072D01*
X0207473Y0049072D01*
X0207473Y0042915D02*
X0196717Y0042915D01*
X0196717Y0043182D02*
X0207473Y0043182D01*
X0207473Y0043449D02*
X0196717Y0043449D01*
X0196717Y0043716D02*
X0207473Y0043716D01*
X0207473Y0043983D02*
X0196717Y0043983D01*
X0196717Y0044250D02*
X0207473Y0044250D01*
X0207473Y0044517D02*
X0196717Y0044517D01*
X0196717Y0044784D02*
X0207473Y0044784D01*
X0207473Y0045051D02*
X0196717Y0045051D01*
X0196717Y0045318D02*
X0207473Y0045318D01*
X0207473Y0045585D02*
X0196717Y0045585D01*
X0196717Y0045852D02*
X0207473Y0045852D01*
X0207473Y0046119D02*
X0196717Y0046119D01*
X0196717Y0046386D02*
X0207473Y0046386D01*
X0207473Y0046653D02*
X0196717Y0046653D01*
X0196717Y0046920D02*
X0207473Y0046920D01*
X0207473Y0047187D02*
X0196717Y0047187D01*
X0196717Y0047454D02*
X0207473Y0047454D01*
X0207473Y0047721D02*
X0196717Y0047721D01*
X0196717Y0047988D02*
X0207473Y0047988D01*
X0207473Y0048255D02*
X0196717Y0048255D01*
X0196717Y0048522D02*
X0207473Y0048522D01*
X0207473Y0048789D02*
X0196717Y0048789D01*
X0196717Y0049056D02*
X0207473Y0049056D01*
X0392371Y0097848D02*
X0398795Y0097848D01*
X0398795Y0089848D01*
X0392371Y0089848D01*
X0392371Y0097848D01*
X0392371Y0090115D02*
X0398795Y0090115D01*
X0398795Y0090382D02*
X0392371Y0090382D01*
X0392371Y0090649D02*
X0398795Y0090649D01*
X0398795Y0090916D02*
X0392371Y0090916D01*
X0392371Y0091183D02*
X0398795Y0091183D01*
X0398795Y0091450D02*
X0392371Y0091450D01*
X0392371Y0091717D02*
X0398795Y0091717D01*
X0398795Y0091984D02*
X0392371Y0091984D01*
X0392371Y0092251D02*
X0398795Y0092251D01*
X0398795Y0092518D02*
X0392371Y0092518D01*
X0392371Y0092785D02*
X0398795Y0092785D01*
X0398795Y0093052D02*
X0392371Y0093052D01*
X0392371Y0093319D02*
X0398795Y0093319D01*
X0398795Y0093586D02*
X0392371Y0093586D01*
X0392371Y0093853D02*
X0398795Y0093853D01*
X0398795Y0094120D02*
X0392371Y0094120D01*
X0392371Y0094387D02*
X0398795Y0094387D01*
X0398795Y0094654D02*
X0392371Y0094654D01*
X0392371Y0094921D02*
X0398795Y0094921D01*
X0398795Y0095188D02*
X0392371Y0095188D01*
X0392371Y0095455D02*
X0398795Y0095455D01*
X0398795Y0095722D02*
X0392371Y0095722D01*
X0392371Y0095989D02*
X0398795Y0095989D01*
X0398795Y0096256D02*
X0392371Y0096256D01*
X0392371Y0096523D02*
X0398795Y0096523D01*
X0398795Y0096790D02*
X0392371Y0096790D01*
X0392371Y0097057D02*
X0398795Y0097057D01*
X0398795Y0097324D02*
X0392371Y0097324D01*
X0392371Y0097591D02*
X0398795Y0097591D01*
X0403395Y0097848D02*
X0409819Y0097848D01*
X0409819Y0089848D01*
X0403395Y0089848D01*
X0403395Y0097848D01*
X0403395Y0090115D02*
X0409819Y0090115D01*
X0409819Y0090382D02*
X0403395Y0090382D01*
X0403395Y0090649D02*
X0409819Y0090649D01*
X0409819Y0090916D02*
X0403395Y0090916D01*
X0403395Y0091183D02*
X0409819Y0091183D01*
X0409819Y0091450D02*
X0403395Y0091450D01*
X0403395Y0091717D02*
X0409819Y0091717D01*
X0409819Y0091984D02*
X0403395Y0091984D01*
X0403395Y0092251D02*
X0409819Y0092251D01*
X0409819Y0092518D02*
X0403395Y0092518D01*
X0403395Y0092785D02*
X0409819Y0092785D01*
X0409819Y0093052D02*
X0403395Y0093052D01*
X0403395Y0093319D02*
X0409819Y0093319D01*
X0409819Y0093586D02*
X0403395Y0093586D01*
X0403395Y0093853D02*
X0409819Y0093853D01*
X0409819Y0094120D02*
X0403395Y0094120D01*
X0403395Y0094387D02*
X0409819Y0094387D01*
X0409819Y0094654D02*
X0403395Y0094654D01*
X0403395Y0094921D02*
X0409819Y0094921D01*
X0409819Y0095188D02*
X0403395Y0095188D01*
X0403395Y0095455D02*
X0409819Y0095455D01*
X0409819Y0095722D02*
X0403395Y0095722D01*
X0403395Y0095989D02*
X0409819Y0095989D01*
X0409819Y0096256D02*
X0403395Y0096256D01*
X0403395Y0096523D02*
X0409819Y0096523D01*
X0409819Y0096790D02*
X0403395Y0096790D01*
X0403395Y0097057D02*
X0409819Y0097057D01*
X0409819Y0097324D02*
X0403395Y0097324D01*
X0403395Y0097591D02*
X0409819Y0097591D01*
X0128819Y0162348D02*
X0122395Y0162348D01*
X0128819Y0162348D02*
X0128819Y0154348D01*
X0122395Y0154348D01*
X0122395Y0162348D01*
X0122395Y0154615D02*
X0128819Y0154615D01*
X0128819Y0154882D02*
X0122395Y0154882D01*
X0122395Y0155149D02*
X0128819Y0155149D01*
X0128819Y0155416D02*
X0122395Y0155416D01*
X0122395Y0155683D02*
X0128819Y0155683D01*
X0128819Y0155950D02*
X0122395Y0155950D01*
X0122395Y0156217D02*
X0128819Y0156217D01*
X0128819Y0156484D02*
X0122395Y0156484D01*
X0122395Y0156751D02*
X0128819Y0156751D01*
X0128819Y0157018D02*
X0122395Y0157018D01*
X0122395Y0157285D02*
X0128819Y0157285D01*
X0128819Y0157552D02*
X0122395Y0157552D01*
X0122395Y0157819D02*
X0128819Y0157819D01*
X0128819Y0158086D02*
X0122395Y0158086D01*
X0122395Y0158353D02*
X0128819Y0158353D01*
X0128819Y0158620D02*
X0122395Y0158620D01*
X0122395Y0158887D02*
X0128819Y0158887D01*
X0128819Y0159154D02*
X0122395Y0159154D01*
X0122395Y0159421D02*
X0128819Y0159421D01*
X0128819Y0159688D02*
X0122395Y0159688D01*
X0122395Y0159955D02*
X0128819Y0159955D01*
X0128819Y0160222D02*
X0122395Y0160222D01*
X0122395Y0160489D02*
X0128819Y0160489D01*
X0128819Y0160756D02*
X0122395Y0160756D01*
X0122395Y0161023D02*
X0128819Y0161023D01*
X0128819Y0161290D02*
X0122395Y0161290D01*
X0122395Y0161557D02*
X0128819Y0161557D01*
X0128819Y0161824D02*
X0122395Y0161824D01*
X0122395Y0162091D02*
X0128819Y0162091D01*
X0117795Y0162348D02*
X0111371Y0162348D01*
X0117795Y0162348D02*
X0117795Y0154348D01*
X0111371Y0154348D01*
X0111371Y0162348D01*
X0111371Y0154615D02*
X0117795Y0154615D01*
X0117795Y0154882D02*
X0111371Y0154882D01*
X0111371Y0155149D02*
X0117795Y0155149D01*
X0117795Y0155416D02*
X0111371Y0155416D01*
X0111371Y0155683D02*
X0117795Y0155683D01*
X0117795Y0155950D02*
X0111371Y0155950D01*
X0111371Y0156217D02*
X0117795Y0156217D01*
X0117795Y0156484D02*
X0111371Y0156484D01*
X0111371Y0156751D02*
X0117795Y0156751D01*
X0117795Y0157018D02*
X0111371Y0157018D01*
X0111371Y0157285D02*
X0117795Y0157285D01*
X0117795Y0157552D02*
X0111371Y0157552D01*
X0111371Y0157819D02*
X0117795Y0157819D01*
X0117795Y0158086D02*
X0111371Y0158086D01*
X0111371Y0158353D02*
X0117795Y0158353D01*
X0117795Y0158620D02*
X0111371Y0158620D01*
X0111371Y0158887D02*
X0117795Y0158887D01*
X0117795Y0159154D02*
X0111371Y0159154D01*
X0111371Y0159421D02*
X0117795Y0159421D01*
X0117795Y0159688D02*
X0111371Y0159688D01*
X0111371Y0159955D02*
X0117795Y0159955D01*
X0117795Y0160222D02*
X0111371Y0160222D01*
X0111371Y0160489D02*
X0117795Y0160489D01*
X0117795Y0160756D02*
X0111371Y0160756D01*
X0111371Y0161023D02*
X0117795Y0161023D01*
X0117795Y0161290D02*
X0111371Y0161290D01*
X0111371Y0161557D02*
X0117795Y0161557D01*
X0117795Y0161824D02*
X0111371Y0161824D01*
X0111371Y0162091D02*
X0117795Y0162091D01*
D16*
X0196595Y0118848D03*
X0229095Y0070848D03*
X0226595Y0044848D03*
X0257595Y0024848D03*
X0332595Y0134348D03*
D17*
X0342595Y0134348D03*
X0342595Y0124348D03*
X0332595Y0124348D03*
X0332595Y0114348D03*
X0342595Y0114348D03*
X0257595Y0064848D03*
X0247595Y0064848D03*
X0247595Y0054848D03*
X0257595Y0054848D03*
X0257595Y0044848D03*
X0247595Y0044848D03*
X0247595Y0034848D03*
X0257595Y0034848D03*
X0247595Y0024848D03*
X0226595Y0024848D03*
X0216595Y0024848D03*
X0216595Y0034848D03*
X0226595Y0034848D03*
X0216595Y0044848D03*
X0219095Y0060848D03*
X0209095Y0060848D03*
X0229095Y0060848D03*
X0219095Y0070848D03*
X0209095Y0070848D03*
X0196595Y0108848D03*
X0127438Y0167065D03*
X0117595Y0167065D03*
X0107753Y0167065D03*
D18*
X0106099Y0149348D02*
X0106099Y0143836D01*
X0110036Y0143836D02*
X0110036Y0149348D01*
X0113973Y0149348D02*
X0113973Y0143836D01*
X0117910Y0143836D02*
X0117910Y0149348D01*
X0121847Y0149348D02*
X0121847Y0143836D01*
X0125784Y0143836D02*
X0125784Y0149348D01*
X0129721Y0149348D02*
X0129721Y0143836D01*
X0133658Y0143836D02*
X0133658Y0149348D01*
X0137595Y0149348D02*
X0137595Y0143836D01*
X0141532Y0143836D02*
X0141532Y0149348D01*
X0145469Y0149348D02*
X0145469Y0143836D01*
X0149406Y0143836D02*
X0149406Y0149348D01*
X0153343Y0149348D02*
X0153343Y0143836D01*
X0157280Y0143836D02*
X0157280Y0149348D01*
X0161217Y0149348D02*
X0161217Y0143836D01*
X0165154Y0143836D02*
X0165154Y0149348D01*
X0169091Y0149348D02*
X0169091Y0143836D01*
X0182083Y0130844D02*
X0187595Y0130844D01*
X0187595Y0126907D02*
X0182083Y0126907D01*
X0182083Y0122970D02*
X0187595Y0122970D01*
X0187595Y0119033D02*
X0182083Y0119033D01*
X0182083Y0115096D02*
X0187595Y0115096D01*
X0187595Y0111159D02*
X0182083Y0111159D01*
X0182083Y0107222D02*
X0187595Y0107222D01*
X0187595Y0103285D02*
X0182083Y0103285D01*
X0182083Y0099348D02*
X0187595Y0099348D01*
X0187595Y0095411D02*
X0182083Y0095411D01*
X0182083Y0091474D02*
X0187595Y0091474D01*
X0187595Y0087537D02*
X0182083Y0087537D01*
X0182083Y0083600D02*
X0187595Y0083600D01*
X0187595Y0079663D02*
X0182083Y0079663D01*
X0182083Y0075726D02*
X0187595Y0075726D01*
X0187595Y0071789D02*
X0182083Y0071789D01*
X0182083Y0067852D02*
X0187595Y0067852D01*
X0169091Y0054860D02*
X0169091Y0049348D01*
X0165154Y0049348D02*
X0165154Y0054860D01*
X0161217Y0054860D02*
X0161217Y0049348D01*
X0157280Y0049348D02*
X0157280Y0054860D01*
X0153343Y0054860D02*
X0153343Y0049348D01*
X0149406Y0049348D02*
X0149406Y0054860D01*
X0145469Y0054860D02*
X0145469Y0049348D01*
X0141532Y0049348D02*
X0141532Y0054860D01*
X0137595Y0054860D02*
X0137595Y0049348D01*
X0133658Y0049348D02*
X0133658Y0054860D01*
X0129721Y0054860D02*
X0129721Y0049348D01*
X0125784Y0049348D02*
X0125784Y0054860D01*
X0121847Y0054860D02*
X0121847Y0049348D01*
X0117910Y0049348D02*
X0117910Y0054860D01*
X0113973Y0054860D02*
X0113973Y0049348D01*
X0110036Y0049348D02*
X0110036Y0054860D01*
X0106099Y0054860D02*
X0106099Y0049348D01*
X0093107Y0067852D02*
X0087595Y0067852D01*
X0087595Y0071789D02*
X0093107Y0071789D01*
X0093107Y0075726D02*
X0087595Y0075726D01*
X0087595Y0079663D02*
X0093107Y0079663D01*
X0093107Y0083600D02*
X0087595Y0083600D01*
X0087595Y0087537D02*
X0093107Y0087537D01*
X0093107Y0091474D02*
X0087595Y0091474D01*
X0087595Y0095411D02*
X0093107Y0095411D01*
X0093107Y0099348D02*
X0087595Y0099348D01*
X0087595Y0103285D02*
X0093107Y0103285D01*
X0093107Y0107222D02*
X0087595Y0107222D01*
X0087595Y0111159D02*
X0093107Y0111159D01*
X0093107Y0115096D02*
X0087595Y0115096D01*
X0087595Y0119033D02*
X0093107Y0119033D01*
X0093107Y0122970D02*
X0087595Y0122970D01*
X0087595Y0126907D02*
X0093107Y0126907D01*
X0093107Y0130844D02*
X0087595Y0130844D01*
D19*
X0393579Y0129191D03*
X0393579Y0109506D03*
D20*
X0402516Y0108246D02*
X0402516Y0105254D01*
X0402516Y0108246D02*
X0405902Y0108246D01*
X0405902Y0105254D01*
X0402516Y0105254D01*
X0402516Y0130450D02*
X0402516Y0133442D01*
X0405902Y0133442D01*
X0405902Y0130450D01*
X0402516Y0130450D01*
D21*
X0204877Y0028685D02*
X0204877Y0023823D01*
X0204877Y0028685D02*
X0211313Y0028685D01*
X0211313Y0023823D01*
X0204877Y0023823D01*
X0204877Y0024078D02*
X0211313Y0024078D01*
X0211313Y0024333D02*
X0204877Y0024333D01*
X0204877Y0024588D02*
X0211313Y0024588D01*
X0211313Y0024843D02*
X0204877Y0024843D01*
X0204877Y0025098D02*
X0211313Y0025098D01*
X0211313Y0025353D02*
X0204877Y0025353D01*
X0204877Y0025608D02*
X0211313Y0025608D01*
X0211313Y0025863D02*
X0204877Y0025863D01*
X0204877Y0026118D02*
X0211313Y0026118D01*
X0211313Y0026373D02*
X0204877Y0026373D01*
X0204877Y0026628D02*
X0211313Y0026628D01*
X0211313Y0026883D02*
X0204877Y0026883D01*
X0204877Y0027138D02*
X0211313Y0027138D01*
X0211313Y0027393D02*
X0204877Y0027393D01*
X0204877Y0027648D02*
X0211313Y0027648D01*
X0211313Y0027903D02*
X0204877Y0027903D01*
X0204877Y0028158D02*
X0211313Y0028158D01*
X0211313Y0028413D02*
X0204877Y0028413D01*
X0204877Y0028668D02*
X0211313Y0028668D01*
X0204877Y0016874D02*
X0204877Y0012012D01*
X0204877Y0016874D02*
X0211313Y0016874D01*
X0211313Y0012012D01*
X0204877Y0012012D01*
X0204877Y0012267D02*
X0211313Y0012267D01*
X0211313Y0012522D02*
X0204877Y0012522D01*
X0204877Y0012777D02*
X0211313Y0012777D01*
X0211313Y0013032D02*
X0204877Y0013032D01*
X0204877Y0013287D02*
X0211313Y0013287D01*
X0211313Y0013542D02*
X0204877Y0013542D01*
X0204877Y0013797D02*
X0211313Y0013797D01*
X0211313Y0014052D02*
X0204877Y0014052D01*
X0204877Y0014307D02*
X0211313Y0014307D01*
X0211313Y0014562D02*
X0204877Y0014562D01*
X0204877Y0014817D02*
X0211313Y0014817D01*
X0211313Y0015072D02*
X0204877Y0015072D01*
X0204877Y0015327D02*
X0211313Y0015327D01*
X0211313Y0015582D02*
X0204877Y0015582D01*
X0204877Y0015837D02*
X0211313Y0015837D01*
X0211313Y0016092D02*
X0204877Y0016092D01*
X0204877Y0016347D02*
X0211313Y0016347D01*
X0211313Y0016602D02*
X0204877Y0016602D01*
X0204877Y0016857D02*
X0211313Y0016857D01*
D22*
X0395595Y0062348D03*
D23*
X0385595Y0052348D03*
X0405595Y0052348D03*
X0405595Y0072348D03*
X0385595Y0072348D03*
M02*
