G75*
%MOIN*%
%OFA0B0*%
%FSLAX25Y25*%
%IPPOS*%
%LPD*%
%AMOC8*
5,1,8,0,0,1.08239X$1,22.5*
%
%ADD10C,0.00000*%
%ADD11C,0.00300*%
%ADD12C,0.21000*%
%ADD13C,0.06000*%
%ADD14C,0.05709*%
%ADD15C,0.08850*%
%ADD16C,0.10050*%
%ADD17C,0.01969*%
%ADD18C,0.02800*%
%ADD19C,0.01600*%
%ADD20C,0.02378*%
D10*
X0022595Y0009348D02*
X0412516Y0009348D01*
X0412516Y0203167D01*
X0022595Y0203167D01*
X0022595Y0009348D01*
D11*
X0404543Y0189498D02*
X0407445Y0189498D01*
X0407445Y0191433D01*
X0406961Y0192445D02*
X0407445Y0192928D01*
X0407445Y0193896D01*
X0406961Y0194380D01*
X0406478Y0194380D01*
X0405994Y0193896D01*
X0405994Y0193412D01*
X0405994Y0193896D02*
X0405510Y0194380D01*
X0405026Y0194380D01*
X0404543Y0193896D01*
X0404543Y0192928D01*
X0405026Y0192445D01*
D12*
X0396595Y0159348D03*
X0067595Y0159348D03*
X0067595Y0024348D03*
D13*
X0209095Y0060848D03*
X0219095Y0060848D03*
X0229095Y0060848D03*
X0247595Y0064848D03*
X0257595Y0064848D03*
X0257595Y0054848D03*
X0247595Y0054848D03*
X0247595Y0044848D03*
X0257595Y0044848D03*
X0257595Y0034848D03*
X0247595Y0034848D03*
X0226595Y0034848D03*
X0216595Y0034848D03*
X0216595Y0044848D03*
X0226595Y0044848D03*
X0226595Y0024848D03*
X0216595Y0024848D03*
X0247595Y0024848D03*
X0257595Y0024848D03*
X0229095Y0070848D03*
X0219095Y0070848D03*
X0209095Y0070848D03*
X0196595Y0108848D03*
X0196595Y0118848D03*
X0127438Y0167065D03*
X0117595Y0167065D03*
X0107753Y0167065D03*
X0332595Y0134348D03*
X0342595Y0134348D03*
X0342595Y0124348D03*
X0332595Y0124348D03*
X0332595Y0114348D03*
X0342595Y0114348D03*
D14*
X0393579Y0109506D03*
X0393579Y0129191D03*
D15*
X0395595Y0062348D03*
D16*
X0385595Y0052348D03*
X0405595Y0052348D03*
X0405595Y0072348D03*
X0385595Y0072348D03*
D17*
X0309611Y0073848D02*
X0309613Y0073910D01*
X0309619Y0073973D01*
X0309629Y0074034D01*
X0309643Y0074095D01*
X0309660Y0074155D01*
X0309681Y0074214D01*
X0309707Y0074271D01*
X0309735Y0074326D01*
X0309767Y0074380D01*
X0309803Y0074431D01*
X0309841Y0074481D01*
X0309883Y0074527D01*
X0309927Y0074571D01*
X0309975Y0074612D01*
X0310024Y0074650D01*
X0310076Y0074684D01*
X0310130Y0074715D01*
X0310186Y0074743D01*
X0310244Y0074767D01*
X0310303Y0074788D01*
X0310363Y0074804D01*
X0310424Y0074817D01*
X0310486Y0074826D01*
X0310548Y0074831D01*
X0310611Y0074832D01*
X0310673Y0074829D01*
X0310735Y0074822D01*
X0310797Y0074811D01*
X0310857Y0074796D01*
X0310917Y0074778D01*
X0310975Y0074756D01*
X0311032Y0074730D01*
X0311087Y0074700D01*
X0311140Y0074667D01*
X0311191Y0074631D01*
X0311239Y0074592D01*
X0311285Y0074549D01*
X0311328Y0074504D01*
X0311368Y0074456D01*
X0311405Y0074406D01*
X0311439Y0074353D01*
X0311470Y0074299D01*
X0311496Y0074243D01*
X0311520Y0074185D01*
X0311539Y0074125D01*
X0311555Y0074065D01*
X0311567Y0074003D01*
X0311575Y0073942D01*
X0311579Y0073879D01*
X0311579Y0073817D01*
X0311575Y0073754D01*
X0311567Y0073693D01*
X0311555Y0073631D01*
X0311539Y0073571D01*
X0311520Y0073511D01*
X0311496Y0073453D01*
X0311470Y0073397D01*
X0311439Y0073343D01*
X0311405Y0073290D01*
X0311368Y0073240D01*
X0311328Y0073192D01*
X0311285Y0073147D01*
X0311239Y0073104D01*
X0311191Y0073065D01*
X0311140Y0073029D01*
X0311087Y0072996D01*
X0311032Y0072966D01*
X0310975Y0072940D01*
X0310917Y0072918D01*
X0310857Y0072900D01*
X0310797Y0072885D01*
X0310735Y0072874D01*
X0310673Y0072867D01*
X0310611Y0072864D01*
X0310548Y0072865D01*
X0310486Y0072870D01*
X0310424Y0072879D01*
X0310363Y0072892D01*
X0310303Y0072908D01*
X0310244Y0072929D01*
X0310186Y0072953D01*
X0310130Y0072981D01*
X0310076Y0073012D01*
X0310024Y0073046D01*
X0309975Y0073084D01*
X0309927Y0073125D01*
X0309883Y0073169D01*
X0309841Y0073215D01*
X0309803Y0073265D01*
X0309767Y0073316D01*
X0309735Y0073370D01*
X0309707Y0073425D01*
X0309681Y0073482D01*
X0309660Y0073541D01*
X0309643Y0073601D01*
X0309629Y0073662D01*
X0309619Y0073723D01*
X0309613Y0073786D01*
X0309611Y0073848D01*
X0086611Y0019348D02*
X0086613Y0019410D01*
X0086619Y0019473D01*
X0086629Y0019534D01*
X0086643Y0019595D01*
X0086660Y0019655D01*
X0086681Y0019714D01*
X0086707Y0019771D01*
X0086735Y0019826D01*
X0086767Y0019880D01*
X0086803Y0019931D01*
X0086841Y0019981D01*
X0086883Y0020027D01*
X0086927Y0020071D01*
X0086975Y0020112D01*
X0087024Y0020150D01*
X0087076Y0020184D01*
X0087130Y0020215D01*
X0087186Y0020243D01*
X0087244Y0020267D01*
X0087303Y0020288D01*
X0087363Y0020304D01*
X0087424Y0020317D01*
X0087486Y0020326D01*
X0087548Y0020331D01*
X0087611Y0020332D01*
X0087673Y0020329D01*
X0087735Y0020322D01*
X0087797Y0020311D01*
X0087857Y0020296D01*
X0087917Y0020278D01*
X0087975Y0020256D01*
X0088032Y0020230D01*
X0088087Y0020200D01*
X0088140Y0020167D01*
X0088191Y0020131D01*
X0088239Y0020092D01*
X0088285Y0020049D01*
X0088328Y0020004D01*
X0088368Y0019956D01*
X0088405Y0019906D01*
X0088439Y0019853D01*
X0088470Y0019799D01*
X0088496Y0019743D01*
X0088520Y0019685D01*
X0088539Y0019625D01*
X0088555Y0019565D01*
X0088567Y0019503D01*
X0088575Y0019442D01*
X0088579Y0019379D01*
X0088579Y0019317D01*
X0088575Y0019254D01*
X0088567Y0019193D01*
X0088555Y0019131D01*
X0088539Y0019071D01*
X0088520Y0019011D01*
X0088496Y0018953D01*
X0088470Y0018897D01*
X0088439Y0018843D01*
X0088405Y0018790D01*
X0088368Y0018740D01*
X0088328Y0018692D01*
X0088285Y0018647D01*
X0088239Y0018604D01*
X0088191Y0018565D01*
X0088140Y0018529D01*
X0088087Y0018496D01*
X0088032Y0018466D01*
X0087975Y0018440D01*
X0087917Y0018418D01*
X0087857Y0018400D01*
X0087797Y0018385D01*
X0087735Y0018374D01*
X0087673Y0018367D01*
X0087611Y0018364D01*
X0087548Y0018365D01*
X0087486Y0018370D01*
X0087424Y0018379D01*
X0087363Y0018392D01*
X0087303Y0018408D01*
X0087244Y0018429D01*
X0087186Y0018453D01*
X0087130Y0018481D01*
X0087076Y0018512D01*
X0087024Y0018546D01*
X0086975Y0018584D01*
X0086927Y0018625D01*
X0086883Y0018669D01*
X0086841Y0018715D01*
X0086803Y0018765D01*
X0086767Y0018816D01*
X0086735Y0018870D01*
X0086707Y0018925D01*
X0086681Y0018982D01*
X0086660Y0019041D01*
X0086643Y0019101D01*
X0086629Y0019162D01*
X0086619Y0019223D01*
X0086613Y0019286D01*
X0086611Y0019348D01*
X0065611Y0181348D02*
X0065613Y0181410D01*
X0065619Y0181473D01*
X0065629Y0181534D01*
X0065643Y0181595D01*
X0065660Y0181655D01*
X0065681Y0181714D01*
X0065707Y0181771D01*
X0065735Y0181826D01*
X0065767Y0181880D01*
X0065803Y0181931D01*
X0065841Y0181981D01*
X0065883Y0182027D01*
X0065927Y0182071D01*
X0065975Y0182112D01*
X0066024Y0182150D01*
X0066076Y0182184D01*
X0066130Y0182215D01*
X0066186Y0182243D01*
X0066244Y0182267D01*
X0066303Y0182288D01*
X0066363Y0182304D01*
X0066424Y0182317D01*
X0066486Y0182326D01*
X0066548Y0182331D01*
X0066611Y0182332D01*
X0066673Y0182329D01*
X0066735Y0182322D01*
X0066797Y0182311D01*
X0066857Y0182296D01*
X0066917Y0182278D01*
X0066975Y0182256D01*
X0067032Y0182230D01*
X0067087Y0182200D01*
X0067140Y0182167D01*
X0067191Y0182131D01*
X0067239Y0182092D01*
X0067285Y0182049D01*
X0067328Y0182004D01*
X0067368Y0181956D01*
X0067405Y0181906D01*
X0067439Y0181853D01*
X0067470Y0181799D01*
X0067496Y0181743D01*
X0067520Y0181685D01*
X0067539Y0181625D01*
X0067555Y0181565D01*
X0067567Y0181503D01*
X0067575Y0181442D01*
X0067579Y0181379D01*
X0067579Y0181317D01*
X0067575Y0181254D01*
X0067567Y0181193D01*
X0067555Y0181131D01*
X0067539Y0181071D01*
X0067520Y0181011D01*
X0067496Y0180953D01*
X0067470Y0180897D01*
X0067439Y0180843D01*
X0067405Y0180790D01*
X0067368Y0180740D01*
X0067328Y0180692D01*
X0067285Y0180647D01*
X0067239Y0180604D01*
X0067191Y0180565D01*
X0067140Y0180529D01*
X0067087Y0180496D01*
X0067032Y0180466D01*
X0066975Y0180440D01*
X0066917Y0180418D01*
X0066857Y0180400D01*
X0066797Y0180385D01*
X0066735Y0180374D01*
X0066673Y0180367D01*
X0066611Y0180364D01*
X0066548Y0180365D01*
X0066486Y0180370D01*
X0066424Y0180379D01*
X0066363Y0180392D01*
X0066303Y0180408D01*
X0066244Y0180429D01*
X0066186Y0180453D01*
X0066130Y0180481D01*
X0066076Y0180512D01*
X0066024Y0180546D01*
X0065975Y0180584D01*
X0065927Y0180625D01*
X0065883Y0180669D01*
X0065841Y0180715D01*
X0065803Y0180765D01*
X0065767Y0180816D01*
X0065735Y0180870D01*
X0065707Y0180925D01*
X0065681Y0180982D01*
X0065660Y0181041D01*
X0065643Y0181101D01*
X0065629Y0181162D01*
X0065619Y0181223D01*
X0065613Y0181286D01*
X0065611Y0181348D01*
X0349111Y0195348D02*
X0349113Y0195410D01*
X0349119Y0195473D01*
X0349129Y0195534D01*
X0349143Y0195595D01*
X0349160Y0195655D01*
X0349181Y0195714D01*
X0349207Y0195771D01*
X0349235Y0195826D01*
X0349267Y0195880D01*
X0349303Y0195931D01*
X0349341Y0195981D01*
X0349383Y0196027D01*
X0349427Y0196071D01*
X0349475Y0196112D01*
X0349524Y0196150D01*
X0349576Y0196184D01*
X0349630Y0196215D01*
X0349686Y0196243D01*
X0349744Y0196267D01*
X0349803Y0196288D01*
X0349863Y0196304D01*
X0349924Y0196317D01*
X0349986Y0196326D01*
X0350048Y0196331D01*
X0350111Y0196332D01*
X0350173Y0196329D01*
X0350235Y0196322D01*
X0350297Y0196311D01*
X0350357Y0196296D01*
X0350417Y0196278D01*
X0350475Y0196256D01*
X0350532Y0196230D01*
X0350587Y0196200D01*
X0350640Y0196167D01*
X0350691Y0196131D01*
X0350739Y0196092D01*
X0350785Y0196049D01*
X0350828Y0196004D01*
X0350868Y0195956D01*
X0350905Y0195906D01*
X0350939Y0195853D01*
X0350970Y0195799D01*
X0350996Y0195743D01*
X0351020Y0195685D01*
X0351039Y0195625D01*
X0351055Y0195565D01*
X0351067Y0195503D01*
X0351075Y0195442D01*
X0351079Y0195379D01*
X0351079Y0195317D01*
X0351075Y0195254D01*
X0351067Y0195193D01*
X0351055Y0195131D01*
X0351039Y0195071D01*
X0351020Y0195011D01*
X0350996Y0194953D01*
X0350970Y0194897D01*
X0350939Y0194843D01*
X0350905Y0194790D01*
X0350868Y0194740D01*
X0350828Y0194692D01*
X0350785Y0194647D01*
X0350739Y0194604D01*
X0350691Y0194565D01*
X0350640Y0194529D01*
X0350587Y0194496D01*
X0350532Y0194466D01*
X0350475Y0194440D01*
X0350417Y0194418D01*
X0350357Y0194400D01*
X0350297Y0194385D01*
X0350235Y0194374D01*
X0350173Y0194367D01*
X0350111Y0194364D01*
X0350048Y0194365D01*
X0349986Y0194370D01*
X0349924Y0194379D01*
X0349863Y0194392D01*
X0349803Y0194408D01*
X0349744Y0194429D01*
X0349686Y0194453D01*
X0349630Y0194481D01*
X0349576Y0194512D01*
X0349524Y0194546D01*
X0349475Y0194584D01*
X0349427Y0194625D01*
X0349383Y0194669D01*
X0349341Y0194715D01*
X0349303Y0194765D01*
X0349267Y0194816D01*
X0349235Y0194870D01*
X0349207Y0194925D01*
X0349181Y0194982D01*
X0349160Y0195041D01*
X0349143Y0195101D01*
X0349129Y0195162D01*
X0349119Y0195223D01*
X0349113Y0195286D01*
X0349111Y0195348D01*
D18*
X0361095Y0165848D03*
X0360095Y0161848D03*
X0371095Y0165348D03*
X0377095Y0165348D03*
X0367095Y0154348D03*
X0380595Y0150848D03*
X0398095Y0141348D03*
X0388095Y0126848D03*
X0388595Y0122348D03*
X0385595Y0118848D03*
X0388595Y0115848D03*
X0388095Y0105848D03*
X0389595Y0095848D03*
X0392355Y0088348D03*
X0395595Y0082848D03*
X0406095Y0087348D03*
X0364595Y0085848D03*
X0352595Y0082848D03*
X0352595Y0092848D03*
X0328095Y0080348D03*
X0327595Y0076348D03*
X0327595Y0068848D03*
X0327595Y0056848D03*
X0328095Y0052348D03*
X0328095Y0048348D03*
X0323095Y0043348D03*
X0317595Y0044348D03*
X0305595Y0044348D03*
X0301595Y0045348D03*
X0298095Y0043348D03*
X0294595Y0045348D03*
X0291095Y0043348D03*
X0287595Y0045348D03*
X0283595Y0044848D03*
X0278095Y0047348D03*
X0272095Y0041348D03*
X0275095Y0037848D03*
X0269595Y0029848D03*
X0264595Y0034848D03*
X0264095Y0045848D03*
X0276595Y0052348D03*
X0288095Y0049348D03*
X0265895Y0063648D03*
X0264095Y0067348D03*
X0266595Y0070848D03*
X0281595Y0071348D03*
X0288095Y0066348D03*
X0295095Y0076848D03*
X0300095Y0089348D03*
X0292095Y0094848D03*
X0288095Y0094848D03*
X0297595Y0104348D03*
X0307595Y0104348D03*
X0319595Y0104348D03*
X0320095Y0109348D03*
X0315595Y0121348D03*
X0310595Y0130348D03*
X0311095Y0134848D03*
X0327095Y0137848D03*
X0307595Y0143348D03*
X0296095Y0135348D03*
X0285095Y0134348D03*
X0281095Y0134348D03*
X0292095Y0125848D03*
X0297595Y0121348D03*
X0294595Y0117348D03*
X0285595Y0111671D03*
X0277595Y0122348D03*
X0269095Y0122348D03*
X0261095Y0117848D03*
X0269095Y0113348D03*
X0262595Y0109848D03*
X0254095Y0107348D03*
X0251095Y0110348D03*
X0256595Y0101348D03*
X0254095Y0097848D03*
X0248095Y0097848D03*
X0263595Y0091348D03*
X0266595Y0088348D03*
X0266595Y0084348D03*
X0266595Y0080348D03*
X0239095Y0080348D03*
X0222595Y0086848D03*
X0214095Y0082710D03*
X0205095Y0083348D03*
X0203095Y0075848D03*
X0191595Y0074848D03*
X0179095Y0071348D03*
X0179095Y0081348D03*
X0179095Y0087348D03*
X0191595Y0083348D03*
X0200095Y0090848D03*
X0206095Y0090848D03*
X0195595Y0095348D03*
X0193595Y0098848D03*
X0197095Y0100848D03*
X0206595Y0098348D03*
X0210095Y0100848D03*
X0228595Y0101348D03*
X0228095Y0115848D03*
X0223595Y0119348D03*
X0218095Y0118848D03*
X0212095Y0116848D03*
X0241095Y0134348D03*
X0248595Y0139848D03*
X0257595Y0149348D03*
X0246095Y0152848D03*
X0240095Y0156848D03*
X0229095Y0160848D03*
X0225595Y0145348D03*
X0211595Y0145348D03*
X0210095Y0137348D03*
X0200595Y0137348D03*
X0165095Y0152348D03*
X0161095Y0155348D03*
X0157095Y0152348D03*
X0153595Y0155348D03*
X0149595Y0152348D03*
X0145595Y0155348D03*
X0141595Y0152348D03*
X0138095Y0155348D03*
X0133095Y0152348D03*
X0120095Y0152348D03*
X0110095Y0143848D03*
X0135095Y0139848D03*
X0182595Y0162848D03*
X0188595Y0162848D03*
X0185595Y0165848D03*
X0191595Y0165848D03*
X0252595Y0159848D03*
X0279095Y0146348D03*
X0270095Y0144348D03*
X0289595Y0150848D03*
X0304595Y0156848D03*
X0336595Y0152848D03*
X0354595Y0130348D03*
X0317095Y0095348D03*
X0313095Y0094848D03*
X0321595Y0094348D03*
X0325595Y0084348D03*
X0364595Y0068848D03*
X0360595Y0057848D03*
X0360595Y0053848D03*
X0369595Y0047848D03*
X0383595Y0040848D03*
X0377095Y0035348D03*
X0397595Y0029348D03*
X0387595Y0014848D03*
X0407595Y0014848D03*
X0365095Y0015348D03*
X0353595Y0023348D03*
X0350095Y0027348D03*
X0336595Y0021348D03*
X0326729Y0019584D03*
X0322595Y0019348D03*
X0315595Y0019348D03*
X0310595Y0019348D03*
X0317595Y0026848D03*
X0323595Y0027348D03*
X0326595Y0030348D03*
X0330095Y0033348D03*
X0322095Y0033348D03*
X0310095Y0029848D03*
X0286595Y0027348D03*
X0239095Y0046348D03*
X0211595Y0031348D03*
X0200595Y0024348D03*
X0186595Y0029848D03*
X0187095Y0033848D03*
X0193595Y0033848D03*
X0180595Y0029848D03*
X0174095Y0033348D03*
X0173638Y0027348D03*
X0164095Y0027348D03*
X0160595Y0022848D03*
X0163595Y0019848D03*
X0167595Y0015348D03*
X0162595Y0012848D03*
X0157595Y0012848D03*
X0150095Y0012848D03*
X0150095Y0027348D03*
X0150095Y0031848D03*
X0143595Y0039848D03*
X0160595Y0036348D03*
X0174595Y0041348D03*
X0164544Y0046848D03*
X0149595Y0056348D03*
X0163095Y0058348D03*
X0205595Y0051348D03*
X0266095Y0097348D03*
X0250095Y0126848D03*
X0342095Y0051348D03*
X0338595Y0049348D03*
X0357095Y0036848D03*
X0407595Y0043348D03*
X0118095Y0031848D03*
X0097095Y0014348D03*
X0030095Y0013848D03*
X0103595Y0052848D03*
X0084095Y0066348D03*
X0082595Y0076848D03*
X0056595Y0071348D03*
X0055095Y0076848D03*
X0055095Y0063848D03*
X0074095Y0107348D03*
X0083595Y0116848D03*
X0083595Y0128848D03*
X0056595Y0122348D03*
X0055095Y0116848D03*
X0055595Y0128848D03*
X0035595Y0195848D03*
D19*
X0051414Y0174348D02*
X0409716Y0174348D01*
X0409716Y0077520D01*
X0409277Y0077858D01*
X0408526Y0078291D01*
X0407725Y0078623D01*
X0406888Y0078847D01*
X0406395Y0078912D01*
X0406395Y0073148D01*
X0404795Y0073148D01*
X0404795Y0071548D01*
X0399031Y0071548D01*
X0399096Y0071055D01*
X0399320Y0070218D01*
X0399652Y0069417D01*
X0400085Y0068666D01*
X0400613Y0067979D01*
X0401226Y0067366D01*
X0401914Y0066838D01*
X0402664Y0066405D01*
X0403465Y0066073D01*
X0404302Y0065849D01*
X0404795Y0065784D01*
X0404795Y0071548D01*
X0406395Y0071548D01*
X0406395Y0065784D01*
X0406888Y0065849D01*
X0407725Y0066073D01*
X0408526Y0066405D01*
X0409277Y0066838D01*
X0409716Y0067176D01*
X0409716Y0057520D01*
X0409277Y0057858D01*
X0408526Y0058291D01*
X0407725Y0058623D01*
X0406888Y0058847D01*
X0406395Y0058912D01*
X0406395Y0053148D01*
X0404795Y0053148D01*
X0404795Y0051548D01*
X0399031Y0051548D01*
X0399096Y0051055D01*
X0399320Y0050218D01*
X0399652Y0049417D01*
X0400085Y0048666D01*
X0400613Y0047979D01*
X0401226Y0047366D01*
X0401914Y0046838D01*
X0402664Y0046405D01*
X0403465Y0046073D01*
X0404302Y0045849D01*
X0404795Y0045784D01*
X0404795Y0051548D01*
X0406395Y0051548D01*
X0406395Y0045784D01*
X0406888Y0045849D01*
X0407725Y0046073D01*
X0408526Y0046405D01*
X0409277Y0046838D01*
X0409716Y0047176D01*
X0409716Y0012148D01*
X0168705Y0012148D01*
X0169510Y0012482D01*
X0170461Y0013433D01*
X0170976Y0014675D01*
X0170976Y0016021D01*
X0170461Y0017263D01*
X0169510Y0018214D01*
X0168268Y0018729D01*
X0166923Y0018729D01*
X0166764Y0018663D01*
X0166976Y0019175D01*
X0166976Y0020521D01*
X0166461Y0021763D01*
X0165510Y0022714D01*
X0164268Y0023229D01*
X0163976Y0023229D01*
X0163976Y0023521D01*
X0163791Y0023967D01*
X0164768Y0023967D01*
X0166010Y0024482D01*
X0166961Y0025433D01*
X0167476Y0026675D01*
X0167476Y0028021D01*
X0166961Y0029263D01*
X0166010Y0030214D01*
X0164768Y0030729D01*
X0163423Y0030729D01*
X0162180Y0030214D01*
X0161229Y0029263D01*
X0160714Y0028021D01*
X0160714Y0026675D01*
X0160899Y0026229D01*
X0159923Y0026229D01*
X0158680Y0025714D01*
X0157729Y0024763D01*
X0157214Y0023521D01*
X0157214Y0022175D01*
X0157729Y0020933D01*
X0158680Y0019982D01*
X0159923Y0019467D01*
X0160214Y0019467D01*
X0160214Y0019175D01*
X0160729Y0017933D01*
X0161680Y0016982D01*
X0162923Y0016467D01*
X0164268Y0016467D01*
X0164426Y0016533D01*
X0164214Y0016021D01*
X0164214Y0015837D01*
X0163268Y0016229D01*
X0161923Y0016229D01*
X0160680Y0015714D01*
X0159729Y0014763D01*
X0159214Y0013521D01*
X0159214Y0012175D01*
X0159225Y0012148D01*
X0153465Y0012148D01*
X0153476Y0012175D01*
X0153476Y0013521D01*
X0152961Y0014763D01*
X0152010Y0015714D01*
X0150768Y0016229D01*
X0149423Y0016229D01*
X0148180Y0015714D01*
X0147229Y0014763D01*
X0146714Y0013521D01*
X0146714Y0012175D01*
X0146725Y0012148D01*
X0051414Y0012148D01*
X0051414Y0053085D01*
X0055186Y0067194D01*
X0055217Y0067194D01*
X0055727Y0066983D01*
X0057463Y0066983D01*
X0059068Y0067647D01*
X0060296Y0068875D01*
X0060960Y0070480D01*
X0060960Y0072216D01*
X0060296Y0073821D01*
X0059068Y0075049D01*
X0057463Y0075713D01*
X0055727Y0075713D01*
X0055217Y0075502D01*
X0053890Y0075502D01*
X0053017Y0075627D01*
X0053016Y0075627D01*
X0051414Y0075217D01*
X0051414Y0118756D01*
X0053443Y0118093D01*
X0053443Y0118093D01*
X0054755Y0118194D01*
X0055217Y0118194D01*
X0055727Y0117983D01*
X0057463Y0117983D01*
X0059068Y0118647D01*
X0060296Y0119875D01*
X0060960Y0121480D01*
X0060960Y0123216D01*
X0060296Y0124821D01*
X0059068Y0126049D01*
X0057463Y0126713D01*
X0055727Y0126713D01*
X0055235Y0126510D01*
X0055150Y0126537D01*
X0055039Y0126756D01*
X0051414Y0143244D01*
X0051414Y0174348D01*
X0051414Y0173995D02*
X0409716Y0173995D01*
X0409716Y0172396D02*
X0051414Y0172396D01*
X0051414Y0170798D02*
X0063719Y0170798D01*
X0064244Y0170981D02*
X0062962Y0170533D01*
X0061739Y0169944D01*
X0060589Y0169222D01*
X0059528Y0168375D01*
X0058568Y0167415D01*
X0057722Y0166354D01*
X0056999Y0165204D01*
X0056410Y0163981D01*
X0055962Y0162700D01*
X0055660Y0161376D01*
X0055521Y0160148D01*
X0066795Y0160148D01*
X0066795Y0158548D01*
X0055521Y0158548D01*
X0055660Y0157320D01*
X0055962Y0155997D01*
X0056410Y0154715D01*
X0056999Y0153492D01*
X0057722Y0152342D01*
X0058568Y0151281D01*
X0059528Y0150321D01*
X0060589Y0149474D01*
X0061739Y0148752D01*
X0062962Y0148163D01*
X0064244Y0147715D01*
X0065567Y0147413D01*
X0066795Y0147274D01*
X0066795Y0158548D01*
X0068395Y0158548D01*
X0068395Y0147274D01*
X0069623Y0147413D01*
X0070947Y0147715D01*
X0072228Y0148163D01*
X0073451Y0148752D01*
X0074601Y0149474D01*
X0075662Y0150321D01*
X0076622Y0151281D01*
X0077469Y0152342D01*
X0078191Y0153492D01*
X0078780Y0154715D01*
X0079228Y0155997D01*
X0079531Y0157320D01*
X0079669Y0158548D01*
X0068395Y0158548D01*
X0068395Y0160148D01*
X0066795Y0160148D01*
X0066795Y0171422D01*
X0065567Y0171283D01*
X0064244Y0170981D01*
X0066795Y0170798D02*
X0068395Y0170798D01*
X0068395Y0171422D02*
X0069623Y0171283D01*
X0070947Y0170981D01*
X0072228Y0170533D01*
X0073451Y0169944D01*
X0074601Y0169222D01*
X0075662Y0168375D01*
X0076622Y0167415D01*
X0077469Y0166354D01*
X0078191Y0165204D01*
X0078780Y0163981D01*
X0079228Y0162700D01*
X0079531Y0161376D01*
X0079669Y0160148D01*
X0068395Y0160148D01*
X0068395Y0171422D01*
X0068395Y0169199D02*
X0066795Y0169199D01*
X0066795Y0167601D02*
X0068395Y0167601D01*
X0068395Y0166002D02*
X0066795Y0166002D01*
X0066795Y0164404D02*
X0068395Y0164404D01*
X0068395Y0162805D02*
X0066795Y0162805D01*
X0066795Y0161207D02*
X0068395Y0161207D01*
X0068395Y0159608D02*
X0181582Y0159608D01*
X0181923Y0159467D02*
X0183268Y0159467D01*
X0184510Y0159982D01*
X0185461Y0160933D01*
X0185595Y0161255D01*
X0185729Y0160933D01*
X0186680Y0159982D01*
X0187923Y0159467D01*
X0189268Y0159467D01*
X0190510Y0159982D01*
X0191461Y0160933D01*
X0191976Y0162175D01*
X0191976Y0162467D01*
X0192268Y0162467D01*
X0193510Y0162982D01*
X0194461Y0163933D01*
X0194976Y0165175D01*
X0194976Y0166521D01*
X0194461Y0167763D01*
X0193510Y0168714D01*
X0192268Y0169229D01*
X0190923Y0169229D01*
X0189680Y0168714D01*
X0188729Y0167763D01*
X0188595Y0167441D01*
X0188461Y0167763D01*
X0187510Y0168714D01*
X0186268Y0169229D01*
X0184923Y0169229D01*
X0183680Y0168714D01*
X0182729Y0167763D01*
X0182214Y0166521D01*
X0182214Y0166229D01*
X0181923Y0166229D01*
X0180680Y0165714D01*
X0179729Y0164763D01*
X0179214Y0163521D01*
X0179214Y0162175D01*
X0179729Y0160933D01*
X0180680Y0159982D01*
X0181923Y0159467D01*
X0183608Y0159608D02*
X0187582Y0159608D01*
X0189608Y0159608D02*
X0225949Y0159608D01*
X0225714Y0160175D02*
X0226229Y0158933D01*
X0227180Y0157982D01*
X0228423Y0157467D01*
X0229768Y0157467D01*
X0231010Y0157982D01*
X0231961Y0158933D01*
X0232476Y0160175D01*
X0232476Y0161521D01*
X0231961Y0162763D01*
X0231010Y0163714D01*
X0229768Y0164229D01*
X0228423Y0164229D01*
X0227180Y0163714D01*
X0226229Y0162763D01*
X0225714Y0161521D01*
X0225714Y0160175D01*
X0225714Y0161207D02*
X0191575Y0161207D01*
X0193084Y0162805D02*
X0226271Y0162805D01*
X0231920Y0162805D02*
X0250899Y0162805D01*
X0250680Y0162714D02*
X0249729Y0161763D01*
X0249214Y0160521D01*
X0249214Y0159175D01*
X0249729Y0157933D01*
X0250680Y0156982D01*
X0251923Y0156467D01*
X0253268Y0156467D01*
X0254510Y0156982D01*
X0255461Y0157933D01*
X0255976Y0159175D01*
X0255976Y0160521D01*
X0255461Y0161763D01*
X0254510Y0162714D01*
X0253268Y0163229D01*
X0251923Y0163229D01*
X0250680Y0162714D01*
X0249498Y0161207D02*
X0232476Y0161207D01*
X0232241Y0159608D02*
X0238074Y0159608D01*
X0238180Y0159714D02*
X0237229Y0158763D01*
X0236714Y0157521D01*
X0236714Y0156175D01*
X0237229Y0154933D01*
X0238180Y0153982D01*
X0239423Y0153467D01*
X0240768Y0153467D01*
X0242010Y0153982D01*
X0242961Y0154933D01*
X0243476Y0156175D01*
X0243476Y0157521D01*
X0242961Y0158763D01*
X0242010Y0159714D01*
X0240768Y0160229D01*
X0239423Y0160229D01*
X0238180Y0159714D01*
X0236917Y0158010D02*
X0231038Y0158010D01*
X0227152Y0158010D02*
X0163215Y0158010D01*
X0163010Y0158214D02*
X0161768Y0158729D01*
X0160423Y0158729D01*
X0159180Y0158214D01*
X0158229Y0157263D01*
X0157714Y0156021D01*
X0157714Y0155729D01*
X0156976Y0155729D01*
X0156976Y0156021D01*
X0156461Y0157263D01*
X0155510Y0158214D01*
X0154268Y0158729D01*
X0152923Y0158729D01*
X0151680Y0158214D01*
X0150729Y0157263D01*
X0150214Y0156021D01*
X0150214Y0155729D01*
X0148976Y0155729D01*
X0148976Y0156021D01*
X0148461Y0157263D01*
X0147510Y0158214D01*
X0146268Y0158729D01*
X0144923Y0158729D01*
X0143680Y0158214D01*
X0142729Y0157263D01*
X0142214Y0156021D01*
X0142214Y0155729D01*
X0141476Y0155729D01*
X0141476Y0156021D01*
X0140961Y0157263D01*
X0140010Y0158214D01*
X0138768Y0158729D01*
X0137423Y0158729D01*
X0136180Y0158214D01*
X0135229Y0157263D01*
X0134714Y0156021D01*
X0134714Y0155337D01*
X0133768Y0155729D01*
X0132423Y0155729D01*
X0131180Y0155214D01*
X0130229Y0154263D01*
X0129714Y0153021D01*
X0129714Y0151675D01*
X0130229Y0150433D01*
X0131180Y0149482D01*
X0132423Y0148967D01*
X0133768Y0148967D01*
X0135010Y0149482D01*
X0135961Y0150433D01*
X0136476Y0151675D01*
X0136476Y0152359D01*
X0137423Y0151967D01*
X0138214Y0151967D01*
X0138214Y0151675D01*
X0138729Y0150433D01*
X0139680Y0149482D01*
X0140923Y0148967D01*
X0142268Y0148967D01*
X0143510Y0149482D01*
X0144461Y0150433D01*
X0144976Y0151675D01*
X0144976Y0151967D01*
X0146214Y0151967D01*
X0146214Y0151675D01*
X0146729Y0150433D01*
X0147680Y0149482D01*
X0148923Y0148967D01*
X0150268Y0148967D01*
X0151510Y0149482D01*
X0152461Y0150433D01*
X0152976Y0151675D01*
X0152976Y0151967D01*
X0153714Y0151967D01*
X0153714Y0151675D01*
X0154229Y0150433D01*
X0155180Y0149482D01*
X0156423Y0148967D01*
X0157768Y0148967D01*
X0159010Y0149482D01*
X0159961Y0150433D01*
X0160476Y0151675D01*
X0160476Y0151967D01*
X0161714Y0151967D01*
X0161714Y0151675D01*
X0162229Y0150433D01*
X0163180Y0149482D01*
X0164423Y0148967D01*
X0165768Y0148967D01*
X0167010Y0149482D01*
X0167961Y0150433D01*
X0168476Y0151675D01*
X0168476Y0153021D01*
X0167961Y0154263D01*
X0167010Y0155214D01*
X0165768Y0155729D01*
X0164476Y0155729D01*
X0164476Y0156021D01*
X0163961Y0157263D01*
X0163010Y0158214D01*
X0164314Y0156411D02*
X0236714Y0156411D01*
X0237349Y0154813D02*
X0167412Y0154813D01*
X0168396Y0153214D02*
X0242714Y0153214D01*
X0242714Y0153521D02*
X0242714Y0152175D01*
X0243229Y0150933D01*
X0244180Y0149982D01*
X0245423Y0149467D01*
X0246768Y0149467D01*
X0248010Y0149982D01*
X0248961Y0150933D01*
X0249476Y0152175D01*
X0249476Y0153521D01*
X0248961Y0154763D01*
X0248010Y0155714D01*
X0246768Y0156229D01*
X0245423Y0156229D01*
X0244180Y0155714D01*
X0243229Y0154763D01*
X0242714Y0153521D01*
X0242841Y0154813D02*
X0243278Y0154813D01*
X0243476Y0156411D02*
X0301214Y0156411D01*
X0301214Y0156175D02*
X0301729Y0154933D01*
X0302680Y0153982D01*
X0303923Y0153467D01*
X0305268Y0153467D01*
X0306510Y0153982D01*
X0307461Y0154933D01*
X0307976Y0156175D01*
X0307976Y0157521D01*
X0307461Y0158763D01*
X0306510Y0159714D01*
X0305268Y0160229D01*
X0303923Y0160229D01*
X0302680Y0159714D01*
X0301729Y0158763D01*
X0301214Y0157521D01*
X0301214Y0156175D01*
X0301849Y0154813D02*
X0248912Y0154813D01*
X0249476Y0153214D02*
X0333214Y0153214D01*
X0333214Y0153521D02*
X0333214Y0152175D01*
X0333729Y0150933D01*
X0334680Y0149982D01*
X0335923Y0149467D01*
X0337268Y0149467D01*
X0338510Y0149982D01*
X0339461Y0150933D01*
X0339976Y0152175D01*
X0339976Y0153521D01*
X0339461Y0154763D01*
X0338510Y0155714D01*
X0337268Y0156229D01*
X0335923Y0156229D01*
X0334680Y0155714D01*
X0333729Y0154763D01*
X0333214Y0153521D01*
X0333778Y0154813D02*
X0307341Y0154813D01*
X0307976Y0156411D02*
X0364377Y0156411D01*
X0364229Y0156263D02*
X0363714Y0155021D01*
X0363714Y0153675D01*
X0364229Y0152433D01*
X0365180Y0151482D01*
X0366423Y0150967D01*
X0367768Y0150967D01*
X0369010Y0151482D01*
X0369961Y0152433D01*
X0370476Y0153675D01*
X0370476Y0155021D01*
X0369961Y0156263D01*
X0369010Y0157214D01*
X0367768Y0157729D01*
X0366423Y0157729D01*
X0365180Y0157214D01*
X0364229Y0156263D01*
X0363714Y0154813D02*
X0339412Y0154813D01*
X0339976Y0153214D02*
X0363905Y0153214D01*
X0365046Y0151616D02*
X0339744Y0151616D01*
X0338546Y0150017D02*
X0377280Y0150017D01*
X0377214Y0150175D02*
X0377729Y0148933D01*
X0378680Y0147982D01*
X0379923Y0147467D01*
X0381268Y0147467D01*
X0382510Y0147982D01*
X0383461Y0148933D01*
X0383976Y0150175D01*
X0383976Y0151521D01*
X0383461Y0152763D01*
X0382510Y0153714D01*
X0381268Y0154229D01*
X0379923Y0154229D01*
X0378680Y0153714D01*
X0377729Y0152763D01*
X0377214Y0151521D01*
X0377214Y0150175D01*
X0377253Y0151616D02*
X0369144Y0151616D01*
X0370285Y0153214D02*
X0378180Y0153214D01*
X0383011Y0153214D02*
X0386174Y0153214D01*
X0385999Y0153492D02*
X0386722Y0152342D01*
X0387568Y0151281D01*
X0388528Y0150321D01*
X0389589Y0149474D01*
X0390739Y0148752D01*
X0391962Y0148163D01*
X0393244Y0147715D01*
X0394567Y0147413D01*
X0395795Y0147274D01*
X0395795Y0158548D01*
X0384521Y0158548D01*
X0384660Y0157320D01*
X0384962Y0155997D01*
X0385410Y0154715D01*
X0385999Y0153492D01*
X0385376Y0154813D02*
X0370476Y0154813D01*
X0369814Y0156411D02*
X0384867Y0156411D01*
X0384582Y0158010D02*
X0307774Y0158010D01*
X0306617Y0159608D02*
X0357553Y0159608D01*
X0357229Y0159933D02*
X0358180Y0158982D01*
X0359423Y0158467D01*
X0360768Y0158467D01*
X0362010Y0158982D01*
X0362961Y0159933D01*
X0363476Y0161175D01*
X0363476Y0162521D01*
X0363205Y0163176D01*
X0363961Y0163933D01*
X0364476Y0165175D01*
X0364476Y0166521D01*
X0363961Y0167763D01*
X0363010Y0168714D01*
X0361768Y0169229D01*
X0360423Y0169229D01*
X0359180Y0168714D01*
X0358229Y0167763D01*
X0357714Y0166521D01*
X0357714Y0165175D01*
X0357986Y0164520D01*
X0357229Y0163763D01*
X0356714Y0162521D01*
X0356714Y0161175D01*
X0357229Y0159933D01*
X0356714Y0161207D02*
X0255692Y0161207D01*
X0255976Y0159608D02*
X0302574Y0159608D01*
X0301417Y0158010D02*
X0255493Y0158010D01*
X0249697Y0158010D02*
X0243274Y0158010D01*
X0242117Y0159608D02*
X0249214Y0159608D01*
X0254291Y0162805D02*
X0356832Y0162805D01*
X0357869Y0164404D02*
X0194657Y0164404D01*
X0194976Y0166002D02*
X0357714Y0166002D01*
X0358161Y0167601D02*
X0194529Y0167601D01*
X0192340Y0169199D02*
X0360350Y0169199D01*
X0361840Y0169199D02*
X0389561Y0169199D01*
X0389589Y0169222D02*
X0388528Y0168375D01*
X0387568Y0167415D01*
X0386722Y0166354D01*
X0385999Y0165204D01*
X0385410Y0163981D01*
X0384962Y0162700D01*
X0384660Y0161376D01*
X0384521Y0160148D01*
X0395795Y0160148D01*
X0395795Y0158548D01*
X0397395Y0158548D01*
X0397395Y0147274D01*
X0398623Y0147413D01*
X0399947Y0147715D01*
X0401228Y0148163D01*
X0402451Y0148752D01*
X0403601Y0149474D01*
X0404662Y0150321D01*
X0405622Y0151281D01*
X0406469Y0152342D01*
X0407191Y0153492D01*
X0407780Y0154715D01*
X0408228Y0155997D01*
X0408531Y0157320D01*
X0408669Y0158548D01*
X0397395Y0158548D01*
X0397395Y0160148D01*
X0395795Y0160148D01*
X0395795Y0171422D01*
X0394567Y0171283D01*
X0393244Y0170981D01*
X0391962Y0170533D01*
X0390739Y0169944D01*
X0389589Y0169222D01*
X0387754Y0167601D02*
X0379624Y0167601D01*
X0379961Y0167263D02*
X0379010Y0168214D01*
X0377768Y0168729D01*
X0376423Y0168729D01*
X0375180Y0168214D01*
X0374229Y0167263D01*
X0374095Y0166941D01*
X0373961Y0167263D01*
X0373010Y0168214D01*
X0371768Y0168729D01*
X0370423Y0168729D01*
X0369180Y0168214D01*
X0368229Y0167263D01*
X0367714Y0166021D01*
X0367714Y0164675D01*
X0368229Y0163433D01*
X0369180Y0162482D01*
X0370423Y0161967D01*
X0371768Y0161967D01*
X0373010Y0162482D01*
X0373961Y0163433D01*
X0374095Y0163755D01*
X0374229Y0163433D01*
X0375180Y0162482D01*
X0376423Y0161967D01*
X0377768Y0161967D01*
X0379010Y0162482D01*
X0379961Y0163433D01*
X0380476Y0164675D01*
X0380476Y0166021D01*
X0379961Y0167263D01*
X0380476Y0166002D02*
X0386501Y0166002D01*
X0385614Y0164404D02*
X0380364Y0164404D01*
X0379334Y0162805D02*
X0384999Y0162805D01*
X0384641Y0161207D02*
X0363476Y0161207D01*
X0363358Y0162805D02*
X0368856Y0162805D01*
X0367827Y0164404D02*
X0364157Y0164404D01*
X0364476Y0166002D02*
X0367714Y0166002D01*
X0368566Y0167601D02*
X0364029Y0167601D01*
X0373624Y0167601D02*
X0374566Y0167601D01*
X0374856Y0162805D02*
X0373334Y0162805D01*
X0362637Y0159608D02*
X0395795Y0159608D01*
X0395795Y0158010D02*
X0397395Y0158010D01*
X0397395Y0159608D02*
X0409716Y0159608D01*
X0408669Y0160148D02*
X0408531Y0161376D01*
X0408228Y0162700D01*
X0407780Y0163981D01*
X0407191Y0165204D01*
X0406469Y0166354D01*
X0405622Y0167415D01*
X0404662Y0168375D01*
X0403601Y0169222D01*
X0402451Y0169944D01*
X0401228Y0170533D01*
X0399947Y0170981D01*
X0398623Y0171283D01*
X0397395Y0171422D01*
X0397395Y0160148D01*
X0408669Y0160148D01*
X0408550Y0161207D02*
X0409716Y0161207D01*
X0409716Y0162805D02*
X0408191Y0162805D01*
X0407577Y0164404D02*
X0409716Y0164404D01*
X0409716Y0166002D02*
X0406690Y0166002D01*
X0405437Y0167601D02*
X0409716Y0167601D01*
X0409716Y0169199D02*
X0403629Y0169199D01*
X0400471Y0170798D02*
X0409716Y0170798D01*
X0397395Y0170798D02*
X0395795Y0170798D01*
X0395795Y0169199D02*
X0397395Y0169199D01*
X0397395Y0167601D02*
X0395795Y0167601D01*
X0395795Y0166002D02*
X0397395Y0166002D01*
X0397395Y0164404D02*
X0395795Y0164404D01*
X0395795Y0162805D02*
X0397395Y0162805D01*
X0397395Y0161207D02*
X0395795Y0161207D01*
X0395795Y0156411D02*
X0397395Y0156411D01*
X0397395Y0154813D02*
X0395795Y0154813D01*
X0395795Y0153214D02*
X0397395Y0153214D01*
X0397395Y0151616D02*
X0395795Y0151616D01*
X0395795Y0150017D02*
X0397395Y0150017D01*
X0397395Y0148419D02*
X0395795Y0148419D01*
X0391432Y0148419D02*
X0382947Y0148419D01*
X0383911Y0150017D02*
X0388909Y0150017D01*
X0387301Y0151616D02*
X0383937Y0151616D01*
X0378243Y0148419D02*
X0281806Y0148419D01*
X0281961Y0148263D02*
X0281010Y0149214D01*
X0279768Y0149729D01*
X0278423Y0149729D01*
X0277180Y0149214D01*
X0276229Y0148263D01*
X0275714Y0147021D01*
X0275714Y0145675D01*
X0276229Y0144433D01*
X0277180Y0143482D01*
X0278423Y0142967D01*
X0279768Y0142967D01*
X0281010Y0143482D01*
X0281961Y0144433D01*
X0282476Y0145675D01*
X0282476Y0147021D01*
X0281961Y0148263D01*
X0282476Y0146820D02*
X0409716Y0146820D01*
X0409716Y0145221D02*
X0310479Y0145221D01*
X0310461Y0145263D02*
X0310976Y0144021D01*
X0310976Y0142675D01*
X0310461Y0141433D01*
X0309510Y0140482D01*
X0308268Y0139967D01*
X0306923Y0139967D01*
X0305680Y0140482D01*
X0304729Y0141433D01*
X0304214Y0142675D01*
X0304214Y0144021D01*
X0304729Y0145263D01*
X0305680Y0146214D01*
X0306923Y0146729D01*
X0308268Y0146729D01*
X0309510Y0146214D01*
X0310461Y0145263D01*
X0310976Y0143623D02*
X0395588Y0143623D01*
X0395229Y0143263D02*
X0394714Y0142021D01*
X0394714Y0140675D01*
X0395229Y0139433D01*
X0396180Y0138482D01*
X0397423Y0137967D01*
X0398768Y0137967D01*
X0400010Y0138482D01*
X0400961Y0139433D01*
X0401476Y0140675D01*
X0401476Y0142021D01*
X0400961Y0143263D01*
X0400010Y0144214D01*
X0398768Y0144729D01*
X0397423Y0144729D01*
X0396180Y0144214D01*
X0395229Y0143263D01*
X0394716Y0142024D02*
X0310707Y0142024D01*
X0309376Y0140426D02*
X0394817Y0140426D01*
X0395834Y0138827D02*
X0344797Y0138827D01*
X0345417Y0138571D02*
X0343586Y0139329D01*
X0341604Y0139329D01*
X0339774Y0138571D01*
X0338372Y0137170D01*
X0337614Y0135339D01*
X0337614Y0133357D01*
X0338372Y0131526D01*
X0339774Y0130125D01*
X0341604Y0129367D01*
X0343586Y0129367D01*
X0345417Y0130125D01*
X0346818Y0131526D01*
X0347576Y0133357D01*
X0347576Y0135339D01*
X0346818Y0137170D01*
X0345417Y0138571D01*
X0346759Y0137229D02*
X0409716Y0137229D01*
X0409716Y0138827D02*
X0400356Y0138827D01*
X0401373Y0140426D02*
X0409716Y0140426D01*
X0409716Y0142024D02*
X0401475Y0142024D01*
X0400602Y0143623D02*
X0409716Y0143623D01*
X0409716Y0148419D02*
X0401758Y0148419D01*
X0404281Y0150017D02*
X0409716Y0150017D01*
X0409716Y0151616D02*
X0405889Y0151616D01*
X0407016Y0153214D02*
X0409716Y0153214D01*
X0409716Y0154813D02*
X0407814Y0154813D01*
X0408323Y0156411D02*
X0409716Y0156411D01*
X0409716Y0158010D02*
X0408608Y0158010D01*
X0392719Y0170798D02*
X0130749Y0170798D01*
X0130259Y0171287D02*
X0128428Y0172046D01*
X0126447Y0172046D01*
X0124616Y0171287D01*
X0123215Y0169886D01*
X0122516Y0168200D01*
X0121818Y0169886D01*
X0120417Y0171287D01*
X0118586Y0172046D01*
X0116604Y0172046D01*
X0114774Y0171287D01*
X0113372Y0169886D01*
X0112614Y0168055D01*
X0112614Y0166074D01*
X0113372Y0164243D01*
X0114774Y0162842D01*
X0116604Y0162083D01*
X0118586Y0162083D01*
X0120417Y0162842D01*
X0121818Y0164243D01*
X0122516Y0165929D01*
X0123215Y0164243D01*
X0124616Y0162842D01*
X0126447Y0162083D01*
X0128428Y0162083D01*
X0130259Y0162842D01*
X0131660Y0164243D01*
X0132419Y0166074D01*
X0132419Y0168055D01*
X0131660Y0169886D01*
X0130259Y0171287D01*
X0131945Y0169199D02*
X0184850Y0169199D01*
X0186340Y0169199D02*
X0190850Y0169199D01*
X0188661Y0167601D02*
X0188529Y0167601D01*
X0182661Y0167601D02*
X0132419Y0167601D01*
X0132389Y0166002D02*
X0181375Y0166002D01*
X0179580Y0164404D02*
X0131727Y0164404D01*
X0130171Y0162805D02*
X0179214Y0162805D01*
X0179615Y0161207D02*
X0079550Y0161207D01*
X0079191Y0162805D02*
X0106017Y0162805D01*
X0105992Y0162813D02*
X0106678Y0162590D01*
X0107392Y0162477D01*
X0107553Y0162477D01*
X0107553Y0166864D01*
X0107953Y0166864D01*
X0107953Y0162477D01*
X0108114Y0162477D01*
X0108827Y0162590D01*
X0109514Y0162813D01*
X0110157Y0163141D01*
X0110741Y0163565D01*
X0111252Y0164076D01*
X0111676Y0164660D01*
X0112004Y0165304D01*
X0112227Y0165990D01*
X0112340Y0166704D01*
X0112340Y0166865D01*
X0107953Y0166865D01*
X0107953Y0167265D01*
X0107553Y0167265D01*
X0107553Y0171652D01*
X0107392Y0171652D01*
X0106678Y0171539D01*
X0105992Y0171316D01*
X0105348Y0170988D01*
X0104764Y0170564D01*
X0104254Y0170053D01*
X0103829Y0169469D01*
X0103501Y0168826D01*
X0103278Y0168139D01*
X0103165Y0167426D01*
X0103165Y0167265D01*
X0107553Y0167265D01*
X0107553Y0166865D01*
X0103165Y0166865D01*
X0103165Y0166704D01*
X0103278Y0165990D01*
X0103501Y0165304D01*
X0103829Y0164660D01*
X0104254Y0164076D01*
X0104764Y0163565D01*
X0105348Y0163141D01*
X0105992Y0162813D01*
X0107553Y0162805D02*
X0107953Y0162805D01*
X0109489Y0162805D02*
X0114862Y0162805D01*
X0113306Y0164404D02*
X0111490Y0164404D01*
X0112229Y0166002D02*
X0112644Y0166002D01*
X0112340Y0167265D02*
X0112340Y0167426D01*
X0112227Y0168139D01*
X0112004Y0168826D01*
X0111676Y0169469D01*
X0111252Y0170053D01*
X0110741Y0170564D01*
X0110157Y0170988D01*
X0109514Y0171316D01*
X0108827Y0171539D01*
X0108114Y0171652D01*
X0107953Y0171652D01*
X0107953Y0167265D01*
X0112340Y0167265D01*
X0112312Y0167601D02*
X0112614Y0167601D01*
X0113088Y0169199D02*
X0111814Y0169199D01*
X0110419Y0170798D02*
X0114284Y0170798D01*
X0107953Y0170798D02*
X0107553Y0170798D01*
X0107553Y0169199D02*
X0107953Y0169199D01*
X0107953Y0167601D02*
X0107553Y0167601D01*
X0107553Y0166002D02*
X0107953Y0166002D01*
X0107953Y0164404D02*
X0107553Y0164404D01*
X0104016Y0164404D02*
X0078577Y0164404D01*
X0077690Y0166002D02*
X0103276Y0166002D01*
X0103193Y0167601D02*
X0076437Y0167601D01*
X0074629Y0169199D02*
X0103692Y0169199D01*
X0105086Y0170798D02*
X0071471Y0170798D01*
X0060561Y0169199D02*
X0051414Y0169199D01*
X0051414Y0167601D02*
X0058754Y0167601D01*
X0057501Y0166002D02*
X0051414Y0166002D01*
X0051414Y0164404D02*
X0056614Y0164404D01*
X0055999Y0162805D02*
X0051414Y0162805D01*
X0051414Y0161207D02*
X0055641Y0161207D01*
X0051414Y0159608D02*
X0066795Y0159608D01*
X0066795Y0158010D02*
X0068395Y0158010D01*
X0068395Y0156411D02*
X0066795Y0156411D01*
X0066795Y0154813D02*
X0068395Y0154813D01*
X0068395Y0153214D02*
X0066795Y0153214D01*
X0066795Y0151616D02*
X0068395Y0151616D01*
X0068395Y0150017D02*
X0066795Y0150017D01*
X0066795Y0148419D02*
X0068395Y0148419D01*
X0072758Y0148419D02*
X0224173Y0148419D01*
X0223680Y0148214D02*
X0222729Y0147263D01*
X0222214Y0146021D01*
X0222214Y0144675D01*
X0222729Y0143433D01*
X0223680Y0142482D01*
X0224923Y0141967D01*
X0226268Y0141967D01*
X0227510Y0142482D01*
X0228461Y0143433D01*
X0228976Y0144675D01*
X0228976Y0146021D01*
X0228461Y0147263D01*
X0227510Y0148214D01*
X0226268Y0148729D01*
X0224923Y0148729D01*
X0223680Y0148214D01*
X0222545Y0146820D02*
X0051414Y0146820D01*
X0051414Y0145221D02*
X0222214Y0145221D01*
X0222650Y0143623D02*
X0051414Y0143623D01*
X0051682Y0142024D02*
X0132490Y0142024D01*
X0132229Y0141763D02*
X0131714Y0140521D01*
X0131714Y0139175D01*
X0132229Y0137933D01*
X0133180Y0136982D01*
X0134423Y0136467D01*
X0135768Y0136467D01*
X0137010Y0136982D01*
X0137961Y0137933D01*
X0138476Y0139175D01*
X0138476Y0140521D01*
X0137961Y0141763D01*
X0137010Y0142714D01*
X0135768Y0143229D01*
X0134423Y0143229D01*
X0133180Y0142714D01*
X0132229Y0141763D01*
X0131714Y0140426D02*
X0052034Y0140426D01*
X0052385Y0138827D02*
X0131858Y0138827D01*
X0132933Y0137229D02*
X0052737Y0137229D01*
X0053088Y0135630D02*
X0197647Y0135630D01*
X0197729Y0135433D02*
X0198680Y0134482D01*
X0199923Y0133967D01*
X0201268Y0133967D01*
X0202510Y0134482D01*
X0203461Y0135433D01*
X0203976Y0136675D01*
X0203976Y0138021D01*
X0203461Y0139263D01*
X0202510Y0140214D01*
X0201268Y0140729D01*
X0199923Y0140729D01*
X0198680Y0140214D01*
X0197729Y0139263D01*
X0197214Y0138021D01*
X0197214Y0136675D01*
X0197729Y0135433D01*
X0197214Y0137229D02*
X0137258Y0137229D01*
X0138332Y0138827D02*
X0197548Y0138827D01*
X0199191Y0140426D02*
X0138476Y0140426D01*
X0137700Y0142024D02*
X0224784Y0142024D01*
X0226407Y0142024D02*
X0245990Y0142024D01*
X0245729Y0141763D02*
X0245214Y0140521D01*
X0245214Y0139175D01*
X0245729Y0137933D01*
X0246680Y0136982D01*
X0247923Y0136467D01*
X0249268Y0136467D01*
X0250510Y0136982D01*
X0251461Y0137933D01*
X0251976Y0139175D01*
X0251976Y0140521D01*
X0251461Y0141763D01*
X0250510Y0142714D01*
X0249268Y0143229D01*
X0247923Y0143229D01*
X0246680Y0142714D01*
X0245729Y0141763D01*
X0245214Y0140426D02*
X0202000Y0140426D01*
X0203642Y0138827D02*
X0245358Y0138827D01*
X0246433Y0137229D02*
X0203976Y0137229D01*
X0203543Y0135630D02*
X0281967Y0135630D01*
X0281714Y0135021D02*
X0281714Y0133675D01*
X0282229Y0132433D01*
X0283180Y0131482D01*
X0284423Y0130967D01*
X0285768Y0130967D01*
X0287010Y0131482D01*
X0287961Y0132433D01*
X0288476Y0133675D01*
X0288476Y0135021D01*
X0287961Y0136263D01*
X0287010Y0137214D01*
X0285768Y0137729D01*
X0284423Y0137729D01*
X0283180Y0137214D01*
X0282229Y0136263D01*
X0281714Y0135021D01*
X0281714Y0134032D02*
X0201425Y0134032D01*
X0199766Y0134032D02*
X0053439Y0134032D01*
X0053791Y0132433D02*
X0282229Y0132433D01*
X0283215Y0137229D02*
X0250758Y0137229D01*
X0251832Y0138827D02*
X0330393Y0138827D01*
X0329774Y0138571D02*
X0328372Y0137170D01*
X0327614Y0135339D01*
X0327614Y0133357D01*
X0328372Y0131526D01*
X0329774Y0130125D01*
X0331604Y0129367D01*
X0333586Y0129367D01*
X0335417Y0130125D01*
X0336818Y0131526D01*
X0337576Y0133357D01*
X0337576Y0135339D01*
X0336818Y0137170D01*
X0335417Y0138571D01*
X0333586Y0139329D01*
X0331604Y0139329D01*
X0329774Y0138571D01*
X0328432Y0137229D02*
X0313496Y0137229D01*
X0313961Y0136763D02*
X0313010Y0137714D01*
X0311768Y0138229D01*
X0310423Y0138229D01*
X0309180Y0137714D01*
X0308229Y0136763D01*
X0307714Y0135521D01*
X0307714Y0134175D01*
X0308229Y0132933D01*
X0308314Y0132848D01*
X0307729Y0132263D01*
X0307214Y0131021D01*
X0307214Y0129675D01*
X0307729Y0128433D01*
X0308680Y0127482D01*
X0309923Y0126967D01*
X0311268Y0126967D01*
X0312510Y0127482D01*
X0313461Y0128433D01*
X0313976Y0129675D01*
X0313976Y0131021D01*
X0313461Y0132263D01*
X0313377Y0132348D01*
X0313961Y0132933D01*
X0314476Y0134175D01*
X0314476Y0135521D01*
X0313961Y0136763D01*
X0314431Y0135630D02*
X0327735Y0135630D01*
X0327614Y0134032D02*
X0314417Y0134032D01*
X0313462Y0132433D02*
X0327997Y0132433D01*
X0329064Y0130835D02*
X0313976Y0130835D01*
X0313794Y0129236D02*
X0331380Y0129236D01*
X0331604Y0129329D02*
X0329774Y0128571D01*
X0328372Y0127170D01*
X0327614Y0125339D01*
X0327614Y0123357D01*
X0328372Y0121526D01*
X0329774Y0120125D01*
X0331604Y0119367D01*
X0333586Y0119367D01*
X0335417Y0120125D01*
X0336818Y0121526D01*
X0337576Y0123357D01*
X0337576Y0125339D01*
X0336818Y0127170D01*
X0335417Y0128571D01*
X0333586Y0129329D01*
X0331604Y0129329D01*
X0333810Y0129236D02*
X0341380Y0129236D01*
X0341604Y0129329D02*
X0339774Y0128571D01*
X0338372Y0127170D01*
X0337614Y0125339D01*
X0337614Y0123357D01*
X0338372Y0121526D01*
X0339774Y0120125D01*
X0341604Y0119367D01*
X0343586Y0119367D01*
X0345417Y0120125D01*
X0346818Y0121526D01*
X0347576Y0123357D01*
X0347576Y0125339D01*
X0346818Y0127170D01*
X0345417Y0128571D01*
X0343586Y0129329D01*
X0341604Y0129329D01*
X0343810Y0129236D02*
X0351396Y0129236D01*
X0351214Y0129675D02*
X0351729Y0128433D01*
X0352680Y0127482D01*
X0353923Y0126967D01*
X0355268Y0126967D01*
X0356510Y0127482D01*
X0357461Y0128433D01*
X0357976Y0129675D01*
X0357976Y0131021D01*
X0357461Y0132263D01*
X0356510Y0133214D01*
X0355268Y0133729D01*
X0353923Y0133729D01*
X0352680Y0133214D01*
X0351729Y0132263D01*
X0351214Y0131021D01*
X0351214Y0129675D01*
X0351214Y0130835D02*
X0346126Y0130835D01*
X0347194Y0132433D02*
X0351899Y0132433D01*
X0347576Y0134032D02*
X0409716Y0134032D01*
X0409716Y0135630D02*
X0347455Y0135630D01*
X0340393Y0138827D02*
X0334797Y0138827D01*
X0336759Y0137229D02*
X0338432Y0137229D01*
X0337735Y0135630D02*
X0337455Y0135630D01*
X0337576Y0134032D02*
X0337614Y0134032D01*
X0337997Y0132433D02*
X0337194Y0132433D01*
X0336126Y0130835D02*
X0339064Y0130835D01*
X0338841Y0127638D02*
X0336350Y0127638D01*
X0337286Y0126039D02*
X0337904Y0126039D01*
X0337614Y0124441D02*
X0337576Y0124441D01*
X0337363Y0122842D02*
X0337827Y0122842D01*
X0338655Y0121244D02*
X0336535Y0121244D01*
X0334258Y0119645D02*
X0340932Y0119645D01*
X0341521Y0118822D02*
X0340834Y0118599D01*
X0340191Y0118272D01*
X0339607Y0117847D01*
X0339096Y0117337D01*
X0338672Y0116752D01*
X0338344Y0116109D01*
X0338121Y0115422D01*
X0338008Y0114709D01*
X0338008Y0114548D01*
X0342395Y0114548D01*
X0342395Y0114148D01*
X0338008Y0114148D01*
X0338008Y0113987D01*
X0338121Y0113274D01*
X0338344Y0112587D01*
X0338672Y0111944D01*
X0339096Y0111360D01*
X0339607Y0110849D01*
X0340191Y0110425D01*
X0340834Y0110097D01*
X0341521Y0109874D01*
X0342234Y0109761D01*
X0342395Y0109761D01*
X0342395Y0114148D01*
X0342795Y0114148D01*
X0342795Y0109761D01*
X0342956Y0109761D01*
X0343669Y0109874D01*
X0344356Y0110097D01*
X0344999Y0110425D01*
X0345584Y0110849D01*
X0346094Y0111360D01*
X0346519Y0111944D01*
X0346846Y0112587D01*
X0347070Y0113274D01*
X0347183Y0113987D01*
X0347183Y0114148D01*
X0342795Y0114148D01*
X0342795Y0114548D01*
X0342395Y0114548D01*
X0342395Y0118935D01*
X0342234Y0118935D01*
X0341521Y0118822D01*
X0342395Y0118047D02*
X0342795Y0118047D01*
X0342795Y0118935D02*
X0342795Y0114548D01*
X0347183Y0114548D01*
X0347183Y0114709D01*
X0347070Y0115422D01*
X0346846Y0116109D01*
X0346519Y0116752D01*
X0346094Y0117337D01*
X0345584Y0117847D01*
X0344999Y0118272D01*
X0344356Y0118599D01*
X0343669Y0118822D01*
X0342956Y0118935D01*
X0342795Y0118935D01*
X0344258Y0119645D02*
X0382266Y0119645D01*
X0382214Y0119521D02*
X0382214Y0118175D01*
X0382729Y0116933D01*
X0383680Y0115982D01*
X0384923Y0115467D01*
X0385214Y0115467D01*
X0385214Y0115175D01*
X0385729Y0113933D01*
X0386680Y0112982D01*
X0387923Y0112467D01*
X0389268Y0112467D01*
X0390010Y0112774D01*
X0389480Y0112245D01*
X0388744Y0110467D01*
X0388744Y0109229D01*
X0387423Y0109229D01*
X0386180Y0108714D01*
X0385229Y0107763D01*
X0384714Y0106521D01*
X0384714Y0105175D01*
X0385229Y0103933D01*
X0386180Y0102982D01*
X0387423Y0102467D01*
X0388768Y0102467D01*
X0390010Y0102982D01*
X0390961Y0103933D01*
X0391465Y0105148D01*
X0392618Y0104670D01*
X0394541Y0104670D01*
X0396318Y0105406D01*
X0397679Y0106766D01*
X0398415Y0108544D01*
X0398415Y0110467D01*
X0397679Y0112245D01*
X0396318Y0113605D01*
X0394541Y0114341D01*
X0392618Y0114341D01*
X0391341Y0113812D01*
X0391461Y0113933D01*
X0391976Y0115175D01*
X0391976Y0116521D01*
X0391461Y0117763D01*
X0390510Y0118714D01*
X0389584Y0119098D01*
X0390510Y0119482D01*
X0391461Y0120433D01*
X0391976Y0121675D01*
X0391976Y0123021D01*
X0391461Y0124263D01*
X0390510Y0125214D01*
X0389268Y0125729D01*
X0387923Y0125729D01*
X0386680Y0125214D01*
X0385729Y0124263D01*
X0385214Y0123021D01*
X0385214Y0122229D01*
X0384923Y0122229D01*
X0383680Y0121714D01*
X0382729Y0120763D01*
X0382214Y0119521D01*
X0382267Y0118047D02*
X0345309Y0118047D01*
X0346674Y0116448D02*
X0383213Y0116448D01*
X0385349Y0114850D02*
X0347160Y0114850D01*
X0347062Y0113251D02*
X0386410Y0113251D01*
X0389235Y0111653D02*
X0346307Y0111653D01*
X0344225Y0110054D02*
X0388744Y0110054D01*
X0385921Y0108456D02*
X0323385Y0108456D01*
X0323476Y0108675D02*
X0323476Y0110021D01*
X0322961Y0111263D01*
X0322010Y0112214D01*
X0320768Y0112729D01*
X0319423Y0112729D01*
X0318180Y0112214D01*
X0317229Y0111263D01*
X0316714Y0110021D01*
X0316714Y0108675D01*
X0317229Y0107433D01*
X0317564Y0107098D01*
X0316729Y0106263D01*
X0316214Y0105021D01*
X0316214Y0103675D01*
X0316729Y0102433D01*
X0317680Y0101482D01*
X0318923Y0100967D01*
X0320268Y0100967D01*
X0321510Y0101482D01*
X0322461Y0102433D01*
X0322976Y0103675D01*
X0322976Y0105021D01*
X0322461Y0106263D01*
X0322127Y0106598D01*
X0322961Y0107433D01*
X0323476Y0108675D01*
X0323462Y0110054D02*
X0329945Y0110054D01*
X0329774Y0110125D02*
X0331604Y0109367D01*
X0333586Y0109367D01*
X0335417Y0110125D01*
X0336818Y0111526D01*
X0337576Y0113357D01*
X0337576Y0115339D01*
X0336818Y0117170D01*
X0335417Y0118571D01*
X0333586Y0119329D01*
X0331604Y0119329D01*
X0329774Y0118571D01*
X0328372Y0117170D01*
X0327614Y0115339D01*
X0327614Y0113357D01*
X0328372Y0111526D01*
X0329774Y0110125D01*
X0328320Y0111653D02*
X0322572Y0111653D01*
X0317618Y0111653D02*
X0288976Y0111653D01*
X0288976Y0110998D02*
X0288976Y0112343D01*
X0288461Y0113586D01*
X0287510Y0114537D01*
X0286268Y0115052D01*
X0284923Y0115052D01*
X0283680Y0114537D01*
X0282729Y0113586D01*
X0282214Y0112343D01*
X0282214Y0110998D01*
X0282729Y0109756D01*
X0283680Y0108805D01*
X0284923Y0108290D01*
X0286268Y0108290D01*
X0287510Y0108805D01*
X0288461Y0109756D01*
X0288976Y0110998D01*
X0288585Y0110054D02*
X0316728Y0110054D01*
X0316805Y0108456D02*
X0286668Y0108456D01*
X0284522Y0108456D02*
X0257296Y0108456D01*
X0257476Y0108021D02*
X0256961Y0109263D01*
X0256010Y0110214D01*
X0254768Y0110729D01*
X0254476Y0110729D01*
X0254476Y0111021D01*
X0253961Y0112263D01*
X0253010Y0113214D01*
X0251768Y0113729D01*
X0250423Y0113729D01*
X0249180Y0113214D01*
X0248229Y0112263D01*
X0247714Y0111021D01*
X0247714Y0109675D01*
X0248229Y0108433D01*
X0249180Y0107482D01*
X0250423Y0106967D01*
X0250714Y0106967D01*
X0250714Y0106675D01*
X0251229Y0105433D01*
X0252180Y0104482D01*
X0253423Y0103967D01*
X0254432Y0103967D01*
X0253729Y0103263D01*
X0253214Y0102021D01*
X0253214Y0101143D01*
X0252180Y0100714D01*
X0251229Y0099763D01*
X0251095Y0099441D01*
X0250961Y0099763D01*
X0250010Y0100714D01*
X0248768Y0101229D01*
X0247423Y0101229D01*
X0246180Y0100714D01*
X0245229Y0099763D01*
X0244714Y0098521D01*
X0244714Y0097175D01*
X0245229Y0095933D01*
X0246180Y0094982D01*
X0247423Y0094467D01*
X0248768Y0094467D01*
X0250010Y0094982D01*
X0250961Y0095933D01*
X0251095Y0096255D01*
X0251229Y0095933D01*
X0252180Y0094982D01*
X0253423Y0094467D01*
X0254768Y0094467D01*
X0256010Y0094982D01*
X0256961Y0095933D01*
X0257476Y0097175D01*
X0257476Y0098053D01*
X0258510Y0098482D01*
X0259461Y0099433D01*
X0259976Y0100675D01*
X0259976Y0102021D01*
X0259461Y0103263D01*
X0258510Y0104214D01*
X0257268Y0104729D01*
X0256258Y0104729D01*
X0256961Y0105433D01*
X0257476Y0106675D01*
X0257476Y0108021D01*
X0257476Y0106857D02*
X0295323Y0106857D01*
X0295680Y0107214D02*
X0294729Y0106263D01*
X0294214Y0105021D01*
X0294214Y0103675D01*
X0294729Y0102433D01*
X0295680Y0101482D01*
X0296923Y0100967D01*
X0298268Y0100967D01*
X0299510Y0101482D01*
X0300461Y0102433D01*
X0300976Y0103675D01*
X0300976Y0105021D01*
X0300461Y0106263D01*
X0299510Y0107214D01*
X0298268Y0107729D01*
X0296923Y0107729D01*
X0295680Y0107214D01*
X0294313Y0105259D02*
X0256787Y0105259D01*
X0259065Y0103660D02*
X0294220Y0103660D01*
X0295100Y0102062D02*
X0259959Y0102062D01*
X0259888Y0100463D02*
X0264781Y0100463D01*
X0264180Y0100214D02*
X0263229Y0099263D01*
X0262714Y0098021D01*
X0262714Y0096675D01*
X0263229Y0095433D01*
X0263932Y0094729D01*
X0262923Y0094729D01*
X0261680Y0094214D01*
X0260729Y0093263D01*
X0260214Y0092021D01*
X0260214Y0090675D01*
X0260729Y0089433D01*
X0261680Y0088482D01*
X0262923Y0087967D01*
X0263214Y0087967D01*
X0263214Y0087675D01*
X0207270Y0087675D01*
X0206768Y0087467D02*
X0208010Y0087982D01*
X0208961Y0088933D01*
X0209476Y0090175D01*
X0209476Y0091521D01*
X0208961Y0092763D01*
X0208010Y0093714D01*
X0206768Y0094229D01*
X0205423Y0094229D01*
X0204180Y0093714D01*
X0203229Y0092763D01*
X0203095Y0092441D01*
X0202961Y0092763D01*
X0202010Y0093714D01*
X0200768Y0094229D01*
X0199423Y0094229D01*
X0198661Y0093913D01*
X0198976Y0094675D01*
X0198976Y0096021D01*
X0198461Y0097263D01*
X0198114Y0097610D01*
X0199010Y0097982D01*
X0199961Y0098933D01*
X0200476Y0100175D01*
X0200476Y0101521D01*
X0199961Y0102763D01*
X0199010Y0103714D01*
X0198114Y0104086D01*
X0199417Y0104625D01*
X0200818Y0106026D01*
X0201576Y0107857D01*
X0201576Y0109839D01*
X0200818Y0111670D01*
X0199417Y0113071D01*
X0197586Y0113829D01*
X0195604Y0113829D01*
X0193774Y0113071D01*
X0192372Y0111670D01*
X0191614Y0109839D01*
X0191614Y0107857D01*
X0192372Y0106026D01*
X0193774Y0104625D01*
X0195576Y0103879D01*
X0195180Y0103714D01*
X0194229Y0102763D01*
X0194008Y0102229D01*
X0192923Y0102229D01*
X0191680Y0101714D01*
X0190729Y0100763D01*
X0190214Y0099521D01*
X0190214Y0098175D01*
X0190729Y0096933D01*
X0191680Y0095982D01*
X0192214Y0095760D01*
X0192214Y0094675D01*
X0192729Y0093433D01*
X0193680Y0092482D01*
X0194923Y0091967D01*
X0196268Y0091967D01*
X0197030Y0092283D01*
X0196714Y0091521D01*
X0196714Y0090175D01*
X0197229Y0088933D01*
X0198180Y0087982D01*
X0199423Y0087467D01*
X0200768Y0087467D01*
X0202010Y0087982D01*
X0202961Y0088933D01*
X0203095Y0089255D01*
X0203229Y0088933D01*
X0204180Y0087982D01*
X0205423Y0087467D01*
X0206768Y0087467D01*
X0204920Y0087675D02*
X0201270Y0087675D01*
X0198920Y0087675D02*
X0182476Y0087675D01*
X0182476Y0088021D02*
X0181961Y0089263D01*
X0181010Y0090214D01*
X0179768Y0090729D01*
X0178423Y0090729D01*
X0177180Y0090214D01*
X0176229Y0089263D01*
X0175714Y0088021D01*
X0175714Y0086675D01*
X0176229Y0085433D01*
X0177180Y0084482D01*
X0177503Y0084348D01*
X0177180Y0084214D01*
X0176229Y0083263D01*
X0175714Y0082021D01*
X0175714Y0080675D01*
X0176229Y0079433D01*
X0177180Y0078482D01*
X0178423Y0077967D01*
X0179768Y0077967D01*
X0181010Y0078482D01*
X0181961Y0079433D01*
X0182476Y0080675D01*
X0182476Y0082021D01*
X0181961Y0083263D01*
X0181010Y0084214D01*
X0180688Y0084348D01*
X0181010Y0084482D01*
X0181961Y0085433D01*
X0182476Y0086675D01*
X0182476Y0088021D01*
X0181951Y0089274D02*
X0197088Y0089274D01*
X0196714Y0090872D02*
X0051414Y0090872D01*
X0051414Y0089274D02*
X0176239Y0089274D01*
X0175714Y0087675D02*
X0051414Y0087675D01*
X0051414Y0086077D02*
X0175962Y0086077D01*
X0177189Y0084478D02*
X0051414Y0084478D01*
X0051414Y0082880D02*
X0176070Y0082880D01*
X0175714Y0081281D02*
X0051414Y0081281D01*
X0051414Y0079683D02*
X0176125Y0079683D01*
X0178140Y0078084D02*
X0051414Y0078084D01*
X0051414Y0076486D02*
X0188614Y0076486D01*
X0188729Y0076763D02*
X0188214Y0075521D01*
X0188214Y0074175D01*
X0188729Y0072933D01*
X0189680Y0071982D01*
X0190923Y0071467D01*
X0192268Y0071467D01*
X0193510Y0071982D01*
X0194461Y0072933D01*
X0194976Y0074175D01*
X0194976Y0075521D01*
X0194461Y0076763D01*
X0193510Y0077714D01*
X0192268Y0078229D01*
X0190923Y0078229D01*
X0189680Y0077714D01*
X0188729Y0076763D01*
X0188214Y0074887D02*
X0059230Y0074887D01*
X0060516Y0073288D02*
X0176254Y0073288D01*
X0176229Y0073263D02*
X0175714Y0072021D01*
X0175714Y0070675D01*
X0176229Y0069433D01*
X0177180Y0068482D01*
X0178423Y0067967D01*
X0179768Y0067967D01*
X0181010Y0068482D01*
X0181961Y0069433D01*
X0182476Y0070675D01*
X0182476Y0072021D01*
X0181961Y0073263D01*
X0181010Y0074214D01*
X0179768Y0074729D01*
X0178423Y0074729D01*
X0177180Y0074214D01*
X0176229Y0073263D01*
X0175714Y0071690D02*
X0060960Y0071690D01*
X0060800Y0070091D02*
X0175956Y0070091D01*
X0177169Y0068493D02*
X0059914Y0068493D01*
X0055106Y0066894D02*
X0206004Y0066894D01*
X0206274Y0066625D02*
X0208104Y0065867D01*
X0210086Y0065867D01*
X0211917Y0066625D01*
X0213318Y0068026D01*
X0214076Y0069857D01*
X0214076Y0071839D01*
X0213318Y0073670D01*
X0211917Y0075071D01*
X0210086Y0075829D01*
X0208104Y0075829D01*
X0206466Y0075150D01*
X0206476Y0075175D01*
X0206476Y0076521D01*
X0205961Y0077763D01*
X0205010Y0078714D01*
X0203768Y0079229D01*
X0202423Y0079229D01*
X0201180Y0078714D01*
X0200229Y0077763D01*
X0199714Y0076521D01*
X0199714Y0075175D01*
X0200229Y0073933D01*
X0201180Y0072982D01*
X0202423Y0072467D01*
X0203768Y0072467D01*
X0204500Y0072770D01*
X0204114Y0071839D01*
X0204114Y0069857D01*
X0204872Y0068026D01*
X0206274Y0066625D01*
X0206817Y0065296D02*
X0054678Y0065296D01*
X0054251Y0063697D02*
X0204900Y0063697D01*
X0204872Y0063670D02*
X0204114Y0061839D01*
X0204114Y0059857D01*
X0204872Y0058026D01*
X0206274Y0056625D01*
X0208104Y0055867D01*
X0210086Y0055867D01*
X0211917Y0056625D01*
X0213318Y0058026D01*
X0214076Y0059857D01*
X0214076Y0061839D01*
X0213318Y0063670D01*
X0211917Y0065071D01*
X0210086Y0065829D01*
X0208104Y0065829D01*
X0206274Y0065071D01*
X0204872Y0063670D01*
X0204222Y0062099D02*
X0053824Y0062099D01*
X0053396Y0060500D02*
X0160466Y0060500D01*
X0160229Y0060263D02*
X0159714Y0059021D01*
X0159714Y0057675D01*
X0160229Y0056433D01*
X0161180Y0055482D01*
X0162423Y0054967D01*
X0163768Y0054967D01*
X0165010Y0055482D01*
X0165961Y0056433D01*
X0166476Y0057675D01*
X0166476Y0059021D01*
X0165961Y0060263D01*
X0165010Y0061214D01*
X0163768Y0061729D01*
X0162423Y0061729D01*
X0161180Y0061214D01*
X0160229Y0060263D01*
X0159714Y0058902D02*
X0052969Y0058902D01*
X0052542Y0057303D02*
X0159868Y0057303D01*
X0160957Y0055705D02*
X0052114Y0055705D01*
X0051687Y0054106D02*
X0203572Y0054106D01*
X0203680Y0054214D02*
X0202729Y0053263D01*
X0202214Y0052021D01*
X0202214Y0050675D01*
X0202729Y0049433D01*
X0203680Y0048482D01*
X0204923Y0047967D01*
X0206268Y0047967D01*
X0207510Y0048482D01*
X0208461Y0049433D01*
X0208976Y0050675D01*
X0208976Y0052021D01*
X0208461Y0053263D01*
X0207510Y0054214D01*
X0206268Y0054729D01*
X0204923Y0054729D01*
X0203680Y0054214D01*
X0202416Y0052508D02*
X0051414Y0052508D01*
X0051414Y0050909D02*
X0202214Y0050909D01*
X0202851Y0049311D02*
X0051414Y0049311D01*
X0051414Y0047712D02*
X0213006Y0047712D01*
X0213096Y0047837D02*
X0212672Y0047252D01*
X0212344Y0046609D01*
X0212121Y0045922D01*
X0212008Y0045209D01*
X0212008Y0045048D01*
X0216395Y0045048D01*
X0216395Y0044648D01*
X0212008Y0044648D01*
X0212008Y0044487D01*
X0212121Y0043774D01*
X0212344Y0043087D01*
X0212672Y0042444D01*
X0213096Y0041860D01*
X0213607Y0041349D01*
X0214191Y0040925D01*
X0214834Y0040597D01*
X0215521Y0040374D01*
X0216234Y0040261D01*
X0216395Y0040261D01*
X0216395Y0044648D01*
X0216795Y0044648D01*
X0216795Y0040261D01*
X0216956Y0040261D01*
X0217669Y0040374D01*
X0218356Y0040597D01*
X0218999Y0040925D01*
X0219584Y0041349D01*
X0220094Y0041860D01*
X0220519Y0042444D01*
X0220846Y0043087D01*
X0221070Y0043774D01*
X0221183Y0044487D01*
X0221183Y0044648D01*
X0216795Y0044648D01*
X0216795Y0045048D01*
X0216395Y0045048D01*
X0216395Y0049435D01*
X0216234Y0049435D01*
X0215521Y0049322D01*
X0214834Y0049099D01*
X0214191Y0048772D01*
X0213607Y0048347D01*
X0213096Y0047837D01*
X0212183Y0046114D02*
X0051414Y0046114D01*
X0051414Y0044515D02*
X0173406Y0044515D01*
X0173923Y0044729D02*
X0172680Y0044214D01*
X0171729Y0043263D01*
X0171214Y0042021D01*
X0171214Y0040675D01*
X0171729Y0039433D01*
X0172680Y0038482D01*
X0173923Y0037967D01*
X0175268Y0037967D01*
X0176510Y0038482D01*
X0177461Y0039433D01*
X0177976Y0040675D01*
X0177976Y0042021D01*
X0177461Y0043263D01*
X0176510Y0044214D01*
X0175268Y0044729D01*
X0173923Y0044729D01*
X0175784Y0044515D02*
X0212008Y0044515D01*
X0212431Y0042917D02*
X0177605Y0042917D01*
X0177976Y0041318D02*
X0213649Y0041318D01*
X0213774Y0039071D02*
X0212372Y0037670D01*
X0211614Y0035839D01*
X0211614Y0034729D01*
X0210923Y0034729D01*
X0209680Y0034214D01*
X0208729Y0033263D01*
X0208214Y0032021D01*
X0208214Y0030675D01*
X0208729Y0029433D01*
X0209680Y0028482D01*
X0210923Y0027967D01*
X0212268Y0027967D01*
X0212954Y0028251D01*
X0212372Y0027670D01*
X0211614Y0025839D01*
X0211614Y0023857D01*
X0212372Y0022026D01*
X0213774Y0020625D01*
X0215604Y0019867D01*
X0217586Y0019867D01*
X0219417Y0020625D01*
X0220818Y0022026D01*
X0221576Y0023857D01*
X0221576Y0025839D01*
X0220818Y0027670D01*
X0219417Y0029071D01*
X0217586Y0029829D01*
X0215604Y0029829D01*
X0214330Y0029301D01*
X0214461Y0029433D01*
X0214782Y0030207D01*
X0215604Y0029867D01*
X0217586Y0029867D01*
X0219417Y0030625D01*
X0220818Y0032026D01*
X0221576Y0033857D01*
X0221576Y0035839D01*
X0220818Y0037670D01*
X0219417Y0039071D01*
X0217586Y0039829D01*
X0215604Y0039829D01*
X0213774Y0039071D01*
X0212824Y0038121D02*
X0175640Y0038121D01*
X0175266Y0036523D02*
X0184988Y0036523D01*
X0185180Y0036714D02*
X0184229Y0035763D01*
X0183714Y0034521D01*
X0183714Y0033175D01*
X0184132Y0032166D01*
X0183729Y0031763D01*
X0183595Y0031441D01*
X0183461Y0031763D01*
X0182510Y0032714D01*
X0181268Y0033229D01*
X0179923Y0033229D01*
X0178680Y0032714D01*
X0177729Y0031763D01*
X0177214Y0030521D01*
X0177214Y0029175D01*
X0177729Y0027933D01*
X0178680Y0026982D01*
X0179923Y0026467D01*
X0181268Y0026467D01*
X0182510Y0026982D01*
X0183461Y0027933D01*
X0183595Y0028255D01*
X0183729Y0027933D01*
X0184680Y0026982D01*
X0185923Y0026467D01*
X0187268Y0026467D01*
X0188510Y0026982D01*
X0189461Y0027933D01*
X0189976Y0029175D01*
X0189976Y0030521D01*
X0189558Y0031530D01*
X0189961Y0031933D01*
X0190345Y0032859D01*
X0190729Y0031933D01*
X0191680Y0030982D01*
X0192923Y0030467D01*
X0194268Y0030467D01*
X0195510Y0030982D01*
X0196461Y0031933D01*
X0196976Y0033175D01*
X0196976Y0034521D01*
X0196461Y0035763D01*
X0195510Y0036714D01*
X0194268Y0037229D01*
X0192923Y0037229D01*
X0191680Y0036714D01*
X0190729Y0035763D01*
X0190345Y0034837D01*
X0189961Y0035763D01*
X0189010Y0036714D01*
X0187768Y0037229D01*
X0186423Y0037229D01*
X0185180Y0036714D01*
X0183881Y0034924D02*
X0177102Y0034924D01*
X0176961Y0035263D02*
X0177476Y0034021D01*
X0177476Y0032675D01*
X0176961Y0031433D01*
X0176010Y0030482D01*
X0175459Y0030253D01*
X0175554Y0030214D01*
X0176505Y0029263D01*
X0177020Y0028021D01*
X0177020Y0026675D01*
X0176505Y0025433D01*
X0175554Y0024482D01*
X0174311Y0023967D01*
X0172966Y0023967D01*
X0171723Y0024482D01*
X0170772Y0025433D01*
X0170257Y0026675D01*
X0170257Y0028021D01*
X0170772Y0029263D01*
X0171723Y0030214D01*
X0172274Y0030443D01*
X0172180Y0030482D01*
X0171229Y0031433D01*
X0170714Y0032675D01*
X0170714Y0034021D01*
X0171229Y0035263D01*
X0172180Y0036214D01*
X0173423Y0036729D01*
X0174768Y0036729D01*
X0176010Y0036214D01*
X0176961Y0035263D01*
X0177476Y0033326D02*
X0183714Y0033326D01*
X0183714Y0031727D02*
X0183476Y0031727D01*
X0177714Y0031727D02*
X0177083Y0031727D01*
X0177214Y0030129D02*
X0175639Y0030129D01*
X0176808Y0028530D02*
X0177481Y0028530D01*
X0177020Y0026932D02*
X0178801Y0026932D01*
X0176405Y0025333D02*
X0211614Y0025333D01*
X0211665Y0023735D02*
X0163888Y0023735D01*
X0166089Y0022136D02*
X0212327Y0022136D01*
X0213985Y0020538D02*
X0166969Y0020538D01*
X0166878Y0018939D02*
X0307214Y0018939D01*
X0307214Y0018675D02*
X0307729Y0017433D01*
X0308680Y0016482D01*
X0309923Y0015967D01*
X0311268Y0015967D01*
X0312510Y0016482D01*
X0313461Y0017433D01*
X0313976Y0018675D01*
X0313976Y0020021D01*
X0313461Y0021263D01*
X0312510Y0022214D01*
X0311268Y0022729D01*
X0309923Y0022729D01*
X0308680Y0022214D01*
X0307729Y0021263D01*
X0307214Y0020021D01*
X0307214Y0018675D01*
X0307821Y0017341D02*
X0170384Y0017341D01*
X0170976Y0015742D02*
X0409716Y0015742D01*
X0409716Y0014144D02*
X0170756Y0014144D01*
X0169574Y0012545D02*
X0409716Y0012545D01*
X0409716Y0017341D02*
X0329267Y0017341D01*
X0329595Y0017669D02*
X0330110Y0018912D01*
X0330110Y0020257D01*
X0329595Y0021499D01*
X0328644Y0022451D01*
X0327402Y0022965D01*
X0326056Y0022965D01*
X0324814Y0022451D01*
X0324544Y0022181D01*
X0324510Y0022214D01*
X0323268Y0022729D01*
X0321923Y0022729D01*
X0320680Y0022214D01*
X0319729Y0021263D01*
X0319214Y0020021D01*
X0319214Y0018675D01*
X0319729Y0017433D01*
X0320680Y0016482D01*
X0321923Y0015967D01*
X0323268Y0015967D01*
X0324510Y0016482D01*
X0324780Y0016751D01*
X0324814Y0016718D01*
X0326056Y0016203D01*
X0327402Y0016203D01*
X0328644Y0016718D01*
X0329595Y0017669D01*
X0330110Y0018939D02*
X0409716Y0018939D01*
X0409716Y0020538D02*
X0356958Y0020538D01*
X0357296Y0020875D02*
X0357960Y0022480D01*
X0357960Y0024216D01*
X0357296Y0025821D01*
X0356068Y0027049D01*
X0354463Y0027713D01*
X0354460Y0027713D01*
X0354460Y0028216D01*
X0353796Y0029821D01*
X0352568Y0031049D01*
X0350963Y0031713D01*
X0349227Y0031713D01*
X0347622Y0031049D01*
X0346394Y0029821D01*
X0345730Y0028216D01*
X0345730Y0026480D01*
X0346394Y0024875D01*
X0347622Y0023647D01*
X0349227Y0022983D01*
X0349230Y0022983D01*
X0349230Y0022480D01*
X0349894Y0020875D01*
X0351122Y0019647D01*
X0352727Y0018983D01*
X0354463Y0018983D01*
X0356068Y0019647D01*
X0357296Y0020875D01*
X0357818Y0022136D02*
X0409716Y0022136D01*
X0409716Y0023735D02*
X0357960Y0023735D01*
X0357498Y0025333D02*
X0395881Y0025333D01*
X0395122Y0025647D02*
X0396727Y0024983D01*
X0398463Y0024983D01*
X0400068Y0025647D01*
X0401296Y0026875D01*
X0401960Y0028480D01*
X0401960Y0030216D01*
X0401296Y0031821D01*
X0400068Y0033049D01*
X0398463Y0033713D01*
X0396727Y0033713D01*
X0395122Y0033049D01*
X0393894Y0031821D01*
X0393230Y0030216D01*
X0393230Y0028480D01*
X0393894Y0026875D01*
X0395122Y0025647D01*
X0393871Y0026932D02*
X0356185Y0026932D01*
X0354330Y0028530D02*
X0393230Y0028530D01*
X0393230Y0030129D02*
X0353488Y0030129D01*
X0346702Y0030129D02*
X0331158Y0030129D01*
X0330768Y0029967D02*
X0332010Y0030482D01*
X0332961Y0031433D01*
X0333476Y0032675D01*
X0333476Y0034021D01*
X0332961Y0035263D01*
X0332010Y0036214D01*
X0330768Y0036729D01*
X0329423Y0036729D01*
X0328180Y0036214D01*
X0327229Y0035263D01*
X0326714Y0034021D01*
X0326714Y0033729D01*
X0325923Y0033729D01*
X0325476Y0033544D01*
X0325476Y0034021D01*
X0324961Y0035263D01*
X0324010Y0036214D01*
X0322768Y0036729D01*
X0321423Y0036729D01*
X0320180Y0036214D01*
X0319229Y0035263D01*
X0318714Y0034021D01*
X0318714Y0032675D01*
X0319229Y0031433D01*
X0320180Y0030482D01*
X0321423Y0029967D01*
X0321432Y0029967D01*
X0320729Y0029263D01*
X0320492Y0028691D01*
X0320461Y0028763D01*
X0319510Y0029714D01*
X0318268Y0030229D01*
X0316923Y0030229D01*
X0315680Y0029714D01*
X0314729Y0028763D01*
X0314214Y0027521D01*
X0314214Y0026175D01*
X0314729Y0024933D01*
X0315680Y0023982D01*
X0316923Y0023467D01*
X0318268Y0023467D01*
X0319510Y0023982D01*
X0320461Y0024933D01*
X0320699Y0025505D01*
X0320729Y0025433D01*
X0321680Y0024482D01*
X0322923Y0023967D01*
X0324268Y0023967D01*
X0325510Y0024482D01*
X0326461Y0025433D01*
X0326976Y0026675D01*
X0326976Y0026967D01*
X0327268Y0026967D01*
X0328510Y0027482D01*
X0329461Y0028433D01*
X0329976Y0029675D01*
X0329976Y0029967D01*
X0330768Y0029967D01*
X0329502Y0028530D02*
X0345860Y0028530D01*
X0345730Y0026932D02*
X0326976Y0026932D01*
X0326362Y0025333D02*
X0346205Y0025333D01*
X0347535Y0023735D02*
X0318914Y0023735D01*
X0320602Y0022136D02*
X0312589Y0022136D01*
X0313762Y0020538D02*
X0319428Y0020538D01*
X0319214Y0018939D02*
X0313976Y0018939D01*
X0313369Y0017341D02*
X0319821Y0017341D01*
X0328959Y0022136D02*
X0349372Y0022136D01*
X0350232Y0020538D02*
X0329994Y0020538D01*
X0320828Y0025333D02*
X0320627Y0025333D01*
X0316276Y0023735D02*
X0262525Y0023735D01*
X0262576Y0023857D02*
X0261818Y0022026D01*
X0260417Y0020625D01*
X0258586Y0019867D01*
X0256604Y0019867D01*
X0254774Y0020625D01*
X0253372Y0022026D01*
X0252614Y0023857D01*
X0252614Y0025839D01*
X0253372Y0027670D01*
X0254774Y0029071D01*
X0256604Y0029829D01*
X0258586Y0029829D01*
X0260417Y0029071D01*
X0261818Y0027670D01*
X0262576Y0025839D01*
X0262576Y0023857D01*
X0262576Y0025333D02*
X0283828Y0025333D01*
X0283729Y0025433D02*
X0284680Y0024482D01*
X0285923Y0023967D01*
X0287268Y0023967D01*
X0288510Y0024482D01*
X0289461Y0025433D01*
X0289976Y0026675D01*
X0289976Y0028021D01*
X0289461Y0029263D01*
X0288510Y0030214D01*
X0287268Y0030729D01*
X0285923Y0030729D01*
X0284680Y0030214D01*
X0283729Y0029263D01*
X0283214Y0028021D01*
X0283214Y0026675D01*
X0283729Y0025433D01*
X0283214Y0026932D02*
X0271390Y0026932D01*
X0271510Y0026982D02*
X0272461Y0027933D01*
X0272976Y0029175D01*
X0272976Y0030521D01*
X0272461Y0031763D01*
X0271510Y0032714D01*
X0270268Y0033229D01*
X0268923Y0033229D01*
X0267680Y0032714D01*
X0266729Y0031763D01*
X0266214Y0030521D01*
X0266214Y0029175D01*
X0266729Y0027933D01*
X0267680Y0026982D01*
X0268923Y0026467D01*
X0270268Y0026467D01*
X0271510Y0026982D01*
X0272709Y0028530D02*
X0283425Y0028530D01*
X0284594Y0030129D02*
X0272976Y0030129D01*
X0272476Y0031727D02*
X0307214Y0031727D01*
X0307229Y0031763D02*
X0306714Y0030521D01*
X0306714Y0029175D01*
X0307229Y0027933D01*
X0308180Y0026982D01*
X0309423Y0026467D01*
X0310768Y0026467D01*
X0312010Y0026982D01*
X0312961Y0027933D01*
X0313476Y0029175D01*
X0313476Y0030521D01*
X0312961Y0031763D01*
X0312010Y0032714D01*
X0310768Y0033229D01*
X0309423Y0033229D01*
X0308180Y0032714D01*
X0307229Y0031763D01*
X0306714Y0030129D02*
X0288596Y0030129D01*
X0289765Y0028530D02*
X0306981Y0028530D01*
X0308301Y0026932D02*
X0289976Y0026932D01*
X0289362Y0025333D02*
X0314563Y0025333D01*
X0314214Y0026932D02*
X0311890Y0026932D01*
X0313209Y0028530D02*
X0314632Y0028530D01*
X0313476Y0030129D02*
X0316680Y0030129D01*
X0318510Y0030129D02*
X0321032Y0030129D01*
X0319107Y0031727D02*
X0312976Y0031727D01*
X0318714Y0033326D02*
X0267624Y0033326D01*
X0267461Y0032933D02*
X0267976Y0034175D01*
X0267976Y0035521D01*
X0267461Y0036763D01*
X0266510Y0037714D01*
X0265268Y0038229D01*
X0263923Y0038229D01*
X0262680Y0037714D01*
X0262057Y0037092D01*
X0261818Y0037670D01*
X0260417Y0039071D01*
X0258586Y0039829D01*
X0256604Y0039829D01*
X0254774Y0039071D01*
X0253372Y0037670D01*
X0252614Y0035839D01*
X0252614Y0033857D01*
X0253372Y0032026D01*
X0254774Y0030625D01*
X0256604Y0029867D01*
X0258586Y0029867D01*
X0260417Y0030625D01*
X0261818Y0032026D01*
X0262057Y0032604D01*
X0262680Y0031982D01*
X0263923Y0031467D01*
X0265268Y0031467D01*
X0266510Y0031982D01*
X0267461Y0032933D01*
X0266714Y0031727D02*
X0265896Y0031727D01*
X0266214Y0030129D02*
X0259218Y0030129D01*
X0260957Y0028530D02*
X0266481Y0028530D01*
X0267801Y0026932D02*
X0262124Y0026932D01*
X0261863Y0022136D02*
X0308602Y0022136D01*
X0307428Y0020538D02*
X0260205Y0020538D01*
X0254985Y0020538D02*
X0249174Y0020538D01*
X0249356Y0020597D02*
X0249999Y0020925D01*
X0250584Y0021349D01*
X0251094Y0021860D01*
X0251519Y0022444D01*
X0251846Y0023087D01*
X0252070Y0023774D01*
X0252183Y0024487D01*
X0252183Y0024648D01*
X0247795Y0024648D01*
X0247795Y0020261D01*
X0247956Y0020261D01*
X0248669Y0020374D01*
X0249356Y0020597D01*
X0247795Y0020538D02*
X0247395Y0020538D01*
X0247395Y0020261D02*
X0247395Y0024648D01*
X0243008Y0024648D01*
X0243008Y0024487D01*
X0243121Y0023774D01*
X0243344Y0023087D01*
X0243672Y0022444D01*
X0244096Y0021860D01*
X0244607Y0021349D01*
X0245191Y0020925D01*
X0245834Y0020597D01*
X0246521Y0020374D01*
X0247234Y0020261D01*
X0247395Y0020261D01*
X0246016Y0020538D02*
X0228174Y0020538D01*
X0228356Y0020597D02*
X0228999Y0020925D01*
X0229584Y0021349D01*
X0230094Y0021860D01*
X0230519Y0022444D01*
X0230846Y0023087D01*
X0231070Y0023774D01*
X0231183Y0024487D01*
X0231183Y0024648D01*
X0226795Y0024648D01*
X0226795Y0020261D01*
X0226956Y0020261D01*
X0227669Y0020374D01*
X0228356Y0020597D01*
X0226795Y0020538D02*
X0226395Y0020538D01*
X0226395Y0020261D02*
X0226395Y0024648D01*
X0222008Y0024648D01*
X0222008Y0024487D01*
X0222121Y0023774D01*
X0222344Y0023087D01*
X0222672Y0022444D01*
X0223096Y0021860D01*
X0223607Y0021349D01*
X0224191Y0020925D01*
X0224834Y0020597D01*
X0225521Y0020374D01*
X0226234Y0020261D01*
X0226395Y0020261D01*
X0225016Y0020538D02*
X0219205Y0020538D01*
X0220863Y0022136D02*
X0222895Y0022136D01*
X0222133Y0023735D02*
X0221525Y0023735D01*
X0222008Y0025048D02*
X0226395Y0025048D01*
X0226395Y0024648D01*
X0226795Y0024648D01*
X0226795Y0025048D01*
X0226395Y0025048D01*
X0226395Y0029435D01*
X0226234Y0029435D01*
X0225521Y0029322D01*
X0224834Y0029099D01*
X0224191Y0028772D01*
X0223607Y0028347D01*
X0223096Y0027837D01*
X0222672Y0027252D01*
X0222344Y0026609D01*
X0222121Y0025922D01*
X0222008Y0025209D01*
X0222008Y0025048D01*
X0222027Y0025333D02*
X0221576Y0025333D01*
X0221124Y0026932D02*
X0222508Y0026932D01*
X0223859Y0028530D02*
X0219957Y0028530D01*
X0218218Y0030129D02*
X0224972Y0030129D01*
X0225604Y0029867D02*
X0227586Y0029867D01*
X0229417Y0030625D01*
X0230818Y0032026D01*
X0231576Y0033857D01*
X0231576Y0035839D01*
X0230818Y0037670D01*
X0229417Y0039071D01*
X0227586Y0039829D01*
X0225604Y0039829D01*
X0223774Y0039071D01*
X0222372Y0037670D01*
X0221614Y0035839D01*
X0221614Y0033857D01*
X0222372Y0032026D01*
X0223774Y0030625D01*
X0225604Y0029867D01*
X0226795Y0029435D02*
X0226795Y0025048D01*
X0231183Y0025048D01*
X0231183Y0025209D01*
X0231070Y0025922D01*
X0230846Y0026609D01*
X0230519Y0027252D01*
X0230094Y0027837D01*
X0229584Y0028347D01*
X0228999Y0028772D01*
X0228356Y0029099D01*
X0227669Y0029322D01*
X0226956Y0029435D01*
X0226795Y0029435D01*
X0226795Y0028530D02*
X0226395Y0028530D01*
X0226395Y0026932D02*
X0226795Y0026932D01*
X0226795Y0025333D02*
X0226395Y0025333D01*
X0226395Y0023735D02*
X0226795Y0023735D01*
X0226795Y0022136D02*
X0226395Y0022136D01*
X0230295Y0022136D02*
X0243895Y0022136D01*
X0243133Y0023735D02*
X0231057Y0023735D01*
X0231163Y0025333D02*
X0243027Y0025333D01*
X0243008Y0025209D02*
X0243008Y0025048D01*
X0247395Y0025048D01*
X0247395Y0024648D01*
X0247795Y0024648D01*
X0247795Y0025048D01*
X0247395Y0025048D01*
X0247395Y0029435D01*
X0247234Y0029435D01*
X0246521Y0029322D01*
X0245834Y0029099D01*
X0245191Y0028772D01*
X0244607Y0028347D01*
X0244096Y0027837D01*
X0243672Y0027252D01*
X0243344Y0026609D01*
X0243121Y0025922D01*
X0243008Y0025209D01*
X0243508Y0026932D02*
X0230682Y0026932D01*
X0229332Y0028530D02*
X0244859Y0028530D01*
X0245972Y0030129D02*
X0228218Y0030129D01*
X0230519Y0031727D02*
X0243672Y0031727D01*
X0243372Y0032026D02*
X0244774Y0030625D01*
X0246604Y0029867D01*
X0248586Y0029867D01*
X0250417Y0030625D01*
X0251818Y0032026D01*
X0252576Y0033857D01*
X0252576Y0035839D01*
X0251818Y0037670D01*
X0250417Y0039071D01*
X0248586Y0039829D01*
X0246604Y0039829D01*
X0244774Y0039071D01*
X0243372Y0037670D01*
X0242614Y0035839D01*
X0242614Y0033857D01*
X0243372Y0032026D01*
X0242834Y0033326D02*
X0231356Y0033326D01*
X0231576Y0034924D02*
X0242614Y0034924D01*
X0242897Y0036523D02*
X0231293Y0036523D01*
X0230366Y0038121D02*
X0243824Y0038121D01*
X0244774Y0040625D02*
X0246604Y0039867D01*
X0248586Y0039867D01*
X0250417Y0040625D01*
X0251818Y0042026D01*
X0252576Y0043857D01*
X0252576Y0045839D01*
X0251818Y0047670D01*
X0250417Y0049071D01*
X0248586Y0049829D01*
X0246604Y0049829D01*
X0244774Y0049071D01*
X0243372Y0047670D01*
X0242614Y0045839D01*
X0242614Y0043857D01*
X0243372Y0042026D01*
X0244774Y0040625D01*
X0244081Y0041318D02*
X0230110Y0041318D01*
X0229417Y0040625D02*
X0230818Y0042026D01*
X0231576Y0043857D01*
X0231576Y0045839D01*
X0230818Y0047670D01*
X0229417Y0049071D01*
X0227586Y0049829D01*
X0225604Y0049829D01*
X0223774Y0049071D01*
X0222372Y0047670D01*
X0221614Y0045839D01*
X0221614Y0043857D01*
X0222372Y0042026D01*
X0223774Y0040625D01*
X0225604Y0039867D01*
X0227586Y0039867D01*
X0229417Y0040625D01*
X0227850Y0039720D02*
X0246340Y0039720D01*
X0248850Y0039720D02*
X0256340Y0039720D01*
X0256604Y0039867D02*
X0258586Y0039867D01*
X0260417Y0040625D01*
X0261818Y0042026D01*
X0262209Y0042970D01*
X0263423Y0042467D01*
X0264768Y0042467D01*
X0266010Y0042982D01*
X0266961Y0043933D01*
X0267476Y0045175D01*
X0267476Y0046521D01*
X0266961Y0047763D01*
X0266010Y0048714D01*
X0264768Y0049229D01*
X0263423Y0049229D01*
X0262180Y0048714D01*
X0261477Y0048011D01*
X0260417Y0049071D01*
X0258586Y0049829D01*
X0256604Y0049829D01*
X0254774Y0049071D01*
X0253372Y0047670D01*
X0252614Y0045839D01*
X0252614Y0043857D01*
X0253372Y0042026D01*
X0254774Y0040625D01*
X0256604Y0039867D01*
X0258850Y0039720D02*
X0269110Y0039720D01*
X0269229Y0039433D02*
X0270180Y0038482D01*
X0271423Y0037967D01*
X0271714Y0037967D01*
X0271714Y0037175D01*
X0272229Y0035933D01*
X0273180Y0034982D01*
X0274423Y0034467D01*
X0275768Y0034467D01*
X0277010Y0034982D01*
X0277961Y0035933D01*
X0278476Y0037175D01*
X0278476Y0038521D01*
X0277961Y0039763D01*
X0277010Y0040714D01*
X0275768Y0041229D01*
X0275476Y0041229D01*
X0275476Y0042021D01*
X0274961Y0043263D01*
X0274010Y0044214D01*
X0272768Y0044729D01*
X0271423Y0044729D01*
X0270180Y0044214D01*
X0269229Y0043263D01*
X0268714Y0042021D01*
X0268714Y0040675D01*
X0269229Y0039433D01*
X0268714Y0041318D02*
X0261110Y0041318D01*
X0262187Y0042917D02*
X0262337Y0042917D01*
X0265854Y0042917D02*
X0269085Y0042917D01*
X0270906Y0044515D02*
X0267203Y0044515D01*
X0267476Y0046114D02*
X0274947Y0046114D01*
X0274714Y0046675D02*
X0275229Y0045433D01*
X0276180Y0044482D01*
X0277423Y0043967D01*
X0278768Y0043967D01*
X0280010Y0044482D01*
X0280214Y0044685D01*
X0280214Y0044175D01*
X0280729Y0042933D01*
X0281680Y0041982D01*
X0282923Y0041467D01*
X0284268Y0041467D01*
X0285510Y0041982D01*
X0285914Y0042385D01*
X0286923Y0041967D01*
X0288008Y0041967D01*
X0288229Y0041433D01*
X0289180Y0040482D01*
X0290423Y0039967D01*
X0291768Y0039967D01*
X0293010Y0040482D01*
X0293961Y0041433D01*
X0294183Y0041967D01*
X0295008Y0041967D01*
X0295229Y0041433D01*
X0296180Y0040482D01*
X0297423Y0039967D01*
X0298768Y0039967D01*
X0300010Y0040482D01*
X0300961Y0041433D01*
X0301476Y0042675D01*
X0301476Y0044021D01*
X0300961Y0045263D01*
X0300010Y0046214D01*
X0298768Y0046729D01*
X0297683Y0046729D01*
X0297461Y0047263D01*
X0296510Y0048214D01*
X0295268Y0048729D01*
X0293923Y0048729D01*
X0292680Y0048214D01*
X0291729Y0047263D01*
X0291508Y0046729D01*
X0290683Y0046729D01*
X0290558Y0047030D01*
X0290961Y0047433D01*
X0291476Y0048675D01*
X0291476Y0050021D01*
X0290961Y0051263D01*
X0290010Y0052214D01*
X0288768Y0052729D01*
X0287423Y0052729D01*
X0286180Y0052214D01*
X0285229Y0051263D01*
X0284714Y0050021D01*
X0284714Y0048675D01*
X0285030Y0047913D01*
X0284268Y0048229D01*
X0282923Y0048229D01*
X0281680Y0047714D01*
X0281476Y0047511D01*
X0281476Y0048021D01*
X0280961Y0049263D01*
X0280010Y0050214D01*
X0278768Y0050729D01*
X0277423Y0050729D01*
X0276180Y0050214D01*
X0275229Y0049263D01*
X0274714Y0048021D01*
X0274714Y0046675D01*
X0274714Y0047712D02*
X0266983Y0047712D01*
X0261818Y0052026D02*
X0262576Y0053857D01*
X0262576Y0055839D01*
X0261818Y0057670D01*
X0260417Y0059071D01*
X0258586Y0059829D01*
X0256604Y0059829D01*
X0254774Y0059071D01*
X0253372Y0057670D01*
X0252614Y0055839D01*
X0252614Y0053857D01*
X0253372Y0052026D01*
X0254774Y0050625D01*
X0256604Y0049867D01*
X0258586Y0049867D01*
X0260417Y0050625D01*
X0261818Y0052026D01*
X0262017Y0052508D02*
X0286888Y0052508D01*
X0285082Y0050909D02*
X0260701Y0050909D01*
X0259837Y0049311D02*
X0275276Y0049311D01*
X0280914Y0049311D02*
X0284714Y0049311D01*
X0281678Y0047712D02*
X0281476Y0047712D01*
X0280214Y0044515D02*
X0280044Y0044515D01*
X0280745Y0042917D02*
X0275105Y0042917D01*
X0275476Y0041318D02*
X0288343Y0041318D01*
X0293847Y0041318D02*
X0295343Y0041318D01*
X0300847Y0041318D02*
X0304074Y0041318D01*
X0303680Y0041482D02*
X0304923Y0040967D01*
X0306268Y0040967D01*
X0307510Y0041482D01*
X0308461Y0042433D01*
X0308976Y0043675D01*
X0308976Y0045021D01*
X0308461Y0046263D01*
X0307510Y0047214D01*
X0306268Y0047729D01*
X0304923Y0047729D01*
X0303680Y0047214D01*
X0302729Y0046263D01*
X0302214Y0045021D01*
X0302214Y0043675D01*
X0302729Y0042433D01*
X0303680Y0041482D01*
X0302528Y0042917D02*
X0301476Y0042917D01*
X0301271Y0044515D02*
X0302214Y0044515D01*
X0302667Y0046114D02*
X0300111Y0046114D01*
X0297012Y0047712D02*
X0304882Y0047712D01*
X0306308Y0047712D02*
X0316882Y0047712D01*
X0316923Y0047729D02*
X0315680Y0047214D01*
X0314729Y0046263D01*
X0314214Y0045021D01*
X0314214Y0043675D01*
X0314729Y0042433D01*
X0315680Y0041482D01*
X0316923Y0040967D01*
X0318268Y0040967D01*
X0319510Y0041482D01*
X0320004Y0041975D01*
X0320229Y0041433D01*
X0321180Y0040482D01*
X0322423Y0039967D01*
X0323768Y0039967D01*
X0325010Y0040482D01*
X0325961Y0041433D01*
X0326476Y0042675D01*
X0326476Y0044021D01*
X0325961Y0045263D01*
X0325010Y0046214D01*
X0323768Y0046729D01*
X0322423Y0046729D01*
X0321180Y0046214D01*
X0320686Y0045721D01*
X0320461Y0046263D01*
X0319510Y0047214D01*
X0318268Y0047729D01*
X0316923Y0047729D01*
X0318308Y0047712D02*
X0335613Y0047712D01*
X0335729Y0047433D02*
X0335214Y0048675D01*
X0335214Y0050021D01*
X0335729Y0051263D01*
X0336680Y0052214D01*
X0337923Y0052729D01*
X0339008Y0052729D01*
X0339229Y0053263D01*
X0340180Y0054214D01*
X0341423Y0054729D01*
X0342768Y0054729D01*
X0344010Y0054214D01*
X0344961Y0053263D01*
X0345476Y0052021D01*
X0345476Y0050675D01*
X0344961Y0049433D01*
X0344010Y0048482D01*
X0342768Y0047967D01*
X0341683Y0047967D01*
X0341461Y0047433D01*
X0340510Y0046482D01*
X0339268Y0045967D01*
X0337923Y0045967D01*
X0336680Y0046482D01*
X0335729Y0047433D01*
X0335214Y0049311D02*
X0329598Y0049311D01*
X0330010Y0049482D02*
X0330961Y0050433D01*
X0331476Y0051675D01*
X0331476Y0053021D01*
X0330961Y0054263D01*
X0330377Y0054848D01*
X0330461Y0054933D01*
X0330976Y0056175D01*
X0330976Y0057521D01*
X0330461Y0058763D01*
X0329510Y0059714D01*
X0328268Y0060229D01*
X0326923Y0060229D01*
X0325680Y0059714D01*
X0324729Y0058763D01*
X0324214Y0057521D01*
X0324214Y0056175D01*
X0324729Y0054933D01*
X0325314Y0054348D01*
X0325229Y0054263D01*
X0324714Y0053021D01*
X0324714Y0051675D01*
X0325229Y0050433D01*
X0326180Y0049482D01*
X0327423Y0048967D01*
X0328768Y0048967D01*
X0330010Y0049482D01*
X0331159Y0050909D02*
X0335582Y0050909D01*
X0337388Y0052508D02*
X0331476Y0052508D01*
X0331026Y0054106D02*
X0340072Y0054106D01*
X0344118Y0054106D02*
X0357214Y0054106D01*
X0357214Y0054521D02*
X0357214Y0053175D01*
X0357729Y0051933D01*
X0358680Y0050982D01*
X0359923Y0050467D01*
X0361268Y0050467D01*
X0362510Y0050982D01*
X0363461Y0051933D01*
X0363976Y0053175D01*
X0363976Y0054521D01*
X0363461Y0055763D01*
X0363377Y0055848D01*
X0363461Y0055933D01*
X0363976Y0057175D01*
X0363976Y0058521D01*
X0363461Y0059763D01*
X0362510Y0060714D01*
X0361268Y0061229D01*
X0359923Y0061229D01*
X0358680Y0060714D01*
X0357729Y0059763D01*
X0357214Y0058521D01*
X0357214Y0057175D01*
X0357729Y0055933D01*
X0357814Y0055848D01*
X0357729Y0055763D01*
X0357214Y0054521D01*
X0357705Y0055705D02*
X0330781Y0055705D01*
X0330976Y0057303D02*
X0357214Y0057303D01*
X0357372Y0058902D02*
X0330323Y0058902D01*
X0324867Y0058902D02*
X0260586Y0058902D01*
X0260115Y0060500D02*
X0264659Y0060500D01*
X0265223Y0060267D02*
X0266568Y0060267D01*
X0267810Y0060782D01*
X0268761Y0061733D01*
X0269276Y0062975D01*
X0269276Y0064321D01*
X0268761Y0065563D01*
X0267810Y0066514D01*
X0267468Y0066656D01*
X0267476Y0066675D01*
X0267476Y0067553D01*
X0268510Y0067982D01*
X0269461Y0068933D01*
X0269976Y0070175D01*
X0269976Y0071521D01*
X0269461Y0072763D01*
X0268510Y0073714D01*
X0267268Y0074229D01*
X0265923Y0074229D01*
X0264680Y0073714D01*
X0263729Y0072763D01*
X0263214Y0071521D01*
X0263214Y0070643D01*
X0262180Y0070214D01*
X0261229Y0069263D01*
X0260935Y0068553D01*
X0260417Y0069071D01*
X0258586Y0069829D01*
X0256604Y0069829D01*
X0254774Y0069071D01*
X0253372Y0067670D01*
X0252614Y0065839D01*
X0252614Y0063857D01*
X0253372Y0062026D01*
X0254774Y0060625D01*
X0256604Y0059867D01*
X0258586Y0059867D01*
X0260417Y0060625D01*
X0261818Y0062026D01*
X0262514Y0063707D01*
X0262514Y0062975D01*
X0263029Y0061733D01*
X0263980Y0060782D01*
X0265223Y0060267D01*
X0267131Y0060500D02*
X0358466Y0060500D01*
X0362724Y0060500D02*
X0388361Y0060500D01*
X0388205Y0060878D02*
X0389330Y0058162D01*
X0391409Y0056083D01*
X0394125Y0054958D01*
X0397065Y0054958D01*
X0399781Y0056083D01*
X0401860Y0058162D01*
X0402985Y0060878D01*
X0402985Y0063818D01*
X0401860Y0066534D01*
X0399781Y0068613D01*
X0397065Y0069738D01*
X0394125Y0069738D01*
X0391409Y0068613D01*
X0389330Y0066534D01*
X0388205Y0063818D01*
X0388205Y0060878D01*
X0388205Y0062099D02*
X0268913Y0062099D01*
X0269276Y0063697D02*
X0285964Y0063697D01*
X0286180Y0063482D02*
X0285229Y0064433D01*
X0284714Y0065675D01*
X0284714Y0067021D01*
X0285229Y0068263D01*
X0286180Y0069214D01*
X0287423Y0069729D01*
X0288768Y0069729D01*
X0290010Y0069214D01*
X0290961Y0068263D01*
X0291476Y0067021D01*
X0291476Y0065675D01*
X0290961Y0064433D01*
X0290010Y0063482D01*
X0288768Y0062967D01*
X0287423Y0062967D01*
X0286180Y0063482D01*
X0284871Y0065296D02*
X0268872Y0065296D01*
X0267476Y0066894D02*
X0284714Y0066894D01*
X0285458Y0068493D02*
X0269022Y0068493D01*
X0269941Y0070091D02*
X0303640Y0070091D01*
X0303640Y0068493D02*
X0290732Y0068493D01*
X0291476Y0066894D02*
X0304253Y0066894D01*
X0304255Y0066893D02*
X0305125Y0066893D01*
X0316936Y0066893D01*
X0317551Y0067508D01*
X0317551Y0080188D01*
X0316936Y0080804D01*
X0304255Y0080804D01*
X0303640Y0080188D01*
X0303640Y0067508D01*
X0304255Y0066893D01*
X0303640Y0071690D02*
X0269906Y0071690D01*
X0268936Y0073288D02*
X0303640Y0073288D01*
X0303640Y0074887D02*
X0297916Y0074887D01*
X0297961Y0074933D02*
X0297010Y0073982D01*
X0295768Y0073467D01*
X0294423Y0073467D01*
X0293180Y0073982D01*
X0292229Y0074933D01*
X0291714Y0076175D01*
X0291714Y0077521D01*
X0292229Y0078763D01*
X0293180Y0079714D01*
X0294423Y0080229D01*
X0295768Y0080229D01*
X0297010Y0079714D01*
X0297961Y0078763D01*
X0298476Y0077521D01*
X0298476Y0076175D01*
X0297961Y0074933D01*
X0298476Y0076486D02*
X0303640Y0076486D01*
X0303640Y0078084D02*
X0298243Y0078084D01*
X0297042Y0079683D02*
X0303640Y0079683D01*
X0293148Y0079683D02*
X0269976Y0079683D01*
X0269976Y0079675D02*
X0269976Y0081021D01*
X0269461Y0082263D01*
X0269377Y0082348D01*
X0269461Y0082433D01*
X0269976Y0083675D01*
X0269976Y0085021D01*
X0269461Y0086263D01*
X0269377Y0086348D01*
X0269461Y0086433D01*
X0269976Y0087675D01*
X0324792Y0087675D01*
X0324923Y0087729D02*
X0323680Y0087214D01*
X0322729Y0086263D01*
X0322214Y0085021D01*
X0322214Y0083675D01*
X0322729Y0082433D01*
X0323680Y0081482D01*
X0324923Y0080967D01*
X0326268Y0080967D01*
X0327510Y0081482D01*
X0328461Y0082433D01*
X0328976Y0083675D01*
X0328976Y0085021D01*
X0328461Y0086263D01*
X0327510Y0087214D01*
X0326268Y0087729D01*
X0324923Y0087729D01*
X0326398Y0087675D02*
X0361692Y0087675D01*
X0361729Y0087763D02*
X0361214Y0086521D01*
X0361214Y0085175D01*
X0361729Y0083933D01*
X0362680Y0082982D01*
X0363923Y0082467D01*
X0365268Y0082467D01*
X0366510Y0082982D01*
X0367461Y0083933D01*
X0367976Y0085175D01*
X0367976Y0086521D01*
X0367461Y0087763D01*
X0366510Y0088714D01*
X0365268Y0089229D01*
X0363923Y0089229D01*
X0362680Y0088714D01*
X0361729Y0087763D01*
X0361214Y0086077D02*
X0353636Y0086077D01*
X0353268Y0086229D02*
X0351923Y0086229D01*
X0350680Y0085714D01*
X0349729Y0084763D01*
X0349214Y0083521D01*
X0349214Y0082175D01*
X0349729Y0080933D01*
X0350680Y0079982D01*
X0351923Y0079467D01*
X0353268Y0079467D01*
X0354510Y0079982D01*
X0355461Y0080933D01*
X0355976Y0082175D01*
X0355976Y0083521D01*
X0355461Y0084763D01*
X0354510Y0085714D01*
X0353268Y0086229D01*
X0351554Y0086077D02*
X0328539Y0086077D01*
X0328976Y0084478D02*
X0349611Y0084478D01*
X0349214Y0082880D02*
X0328647Y0082880D01*
X0327026Y0081281D02*
X0349585Y0081281D01*
X0351402Y0079683D02*
X0328380Y0079683D01*
X0328268Y0079729D02*
X0326923Y0079729D01*
X0325680Y0079214D01*
X0324729Y0078263D01*
X0324214Y0077021D01*
X0324214Y0075675D01*
X0324729Y0074433D01*
X0325680Y0073482D01*
X0326923Y0072967D01*
X0328268Y0072967D01*
X0329510Y0073482D01*
X0330461Y0074433D01*
X0330976Y0075675D01*
X0330976Y0077021D01*
X0330461Y0078263D01*
X0329510Y0079214D01*
X0328268Y0079729D01*
X0326810Y0079683D02*
X0317551Y0079683D01*
X0317551Y0078084D02*
X0324655Y0078084D01*
X0324214Y0076486D02*
X0317551Y0076486D01*
X0317551Y0074887D02*
X0324541Y0074887D01*
X0326146Y0073288D02*
X0317551Y0073288D01*
X0317551Y0071690D02*
X0325655Y0071690D01*
X0325680Y0071714D02*
X0324729Y0070763D01*
X0324214Y0069521D01*
X0324214Y0068175D01*
X0324729Y0066933D01*
X0325680Y0065982D01*
X0326923Y0065467D01*
X0328268Y0065467D01*
X0329510Y0065982D01*
X0330461Y0066933D01*
X0330976Y0068175D01*
X0330976Y0069521D01*
X0330461Y0070763D01*
X0329510Y0071714D01*
X0328268Y0072229D01*
X0326923Y0072229D01*
X0325680Y0071714D01*
X0324451Y0070091D02*
X0317551Y0070091D01*
X0317551Y0068493D02*
X0324214Y0068493D01*
X0324767Y0066894D02*
X0316937Y0066894D01*
X0329535Y0071690D02*
X0384795Y0071690D01*
X0384795Y0071548D02*
X0379031Y0071548D01*
X0379096Y0071055D01*
X0379320Y0070218D01*
X0379652Y0069417D01*
X0380085Y0068666D01*
X0380613Y0067979D01*
X0381226Y0067366D01*
X0381914Y0066838D01*
X0382664Y0066405D01*
X0383465Y0066073D01*
X0384302Y0065849D01*
X0384795Y0065784D01*
X0384795Y0071548D01*
X0384795Y0073148D01*
X0379031Y0073148D01*
X0379096Y0073641D01*
X0379320Y0074478D01*
X0379652Y0075279D01*
X0380085Y0076030D01*
X0380613Y0076717D01*
X0381226Y0077330D01*
X0381914Y0077858D01*
X0382664Y0078291D01*
X0383465Y0078623D01*
X0384302Y0078847D01*
X0384795Y0078912D01*
X0384795Y0073148D01*
X0386395Y0073148D01*
X0386395Y0078912D01*
X0386888Y0078847D01*
X0387725Y0078623D01*
X0388526Y0078291D01*
X0389277Y0077858D01*
X0389964Y0077330D01*
X0390577Y0076717D01*
X0391105Y0076030D01*
X0391538Y0075279D01*
X0391870Y0074478D01*
X0392094Y0073641D01*
X0392159Y0073148D01*
X0386395Y0073148D01*
X0386395Y0071548D01*
X0386395Y0065784D01*
X0386888Y0065849D01*
X0387725Y0066073D01*
X0388526Y0066405D01*
X0389277Y0066838D01*
X0389964Y0067366D01*
X0390577Y0067979D01*
X0391105Y0068666D01*
X0391538Y0069417D01*
X0391870Y0070218D01*
X0392094Y0071055D01*
X0392159Y0071548D01*
X0386395Y0071548D01*
X0384795Y0071548D01*
X0384795Y0070091D02*
X0386395Y0070091D01*
X0386395Y0068493D02*
X0384795Y0068493D01*
X0384795Y0066894D02*
X0386395Y0066894D01*
X0388817Y0065296D02*
X0291319Y0065296D01*
X0290226Y0063697D02*
X0388205Y0063697D01*
X0389350Y0066894D02*
X0389690Y0066894D01*
X0390972Y0068493D02*
X0391289Y0068493D01*
X0391818Y0070091D02*
X0399373Y0070091D01*
X0399902Y0068493D02*
X0400218Y0068493D01*
X0401500Y0066894D02*
X0401840Y0066894D01*
X0402373Y0065296D02*
X0409716Y0065296D01*
X0409716Y0066894D02*
X0409350Y0066894D01*
X0406395Y0066894D02*
X0404795Y0066894D01*
X0404795Y0068493D02*
X0406395Y0068493D01*
X0406395Y0070091D02*
X0404795Y0070091D01*
X0404795Y0071690D02*
X0386395Y0071690D01*
X0386395Y0073288D02*
X0384795Y0073288D01*
X0384795Y0074887D02*
X0386395Y0074887D01*
X0386395Y0076486D02*
X0384795Y0076486D01*
X0384795Y0078084D02*
X0386395Y0078084D01*
X0388885Y0078084D02*
X0402305Y0078084D01*
X0402664Y0078291D02*
X0401914Y0077858D01*
X0401226Y0077330D01*
X0400613Y0076717D01*
X0400085Y0076030D01*
X0399652Y0075279D01*
X0399320Y0074478D01*
X0399096Y0073641D01*
X0399031Y0073148D01*
X0404795Y0073148D01*
X0404795Y0078912D01*
X0404302Y0078847D01*
X0403465Y0078623D01*
X0402664Y0078291D01*
X0404795Y0078084D02*
X0406395Y0078084D01*
X0406395Y0076486D02*
X0404795Y0076486D01*
X0404795Y0074887D02*
X0406395Y0074887D01*
X0406395Y0073288D02*
X0404795Y0073288D01*
X0400435Y0076486D02*
X0390755Y0076486D01*
X0391701Y0074887D02*
X0399490Y0074887D01*
X0399049Y0073288D02*
X0392141Y0073288D01*
X0394727Y0078483D02*
X0393122Y0079147D01*
X0391894Y0080375D01*
X0391230Y0081980D01*
X0391230Y0083716D01*
X0391748Y0084967D01*
X0391682Y0084967D01*
X0390440Y0085482D01*
X0389489Y0086433D01*
X0388974Y0087675D01*
X0367498Y0087675D01*
X0367976Y0086077D02*
X0389845Y0086077D01*
X0388974Y0087675D02*
X0388974Y0089021D01*
X0389489Y0090263D01*
X0390440Y0091214D01*
X0391682Y0091729D01*
X0393028Y0091729D01*
X0394270Y0091214D01*
X0395221Y0090263D01*
X0395736Y0089021D01*
X0395736Y0087675D01*
X0409716Y0087675D01*
X0409716Y0086077D02*
X0398540Y0086077D01*
X0398068Y0086549D02*
X0399296Y0085321D01*
X0399960Y0083716D01*
X0399960Y0081980D01*
X0399296Y0080375D01*
X0398068Y0079147D01*
X0396463Y0078483D01*
X0394727Y0078483D01*
X0392587Y0079683D02*
X0353788Y0079683D01*
X0355606Y0081281D02*
X0391519Y0081281D01*
X0391230Y0082880D02*
X0366264Y0082880D01*
X0367687Y0084478D02*
X0391545Y0084478D01*
X0395545Y0087213D02*
X0395736Y0087675D01*
X0395545Y0087213D02*
X0396463Y0087213D01*
X0398068Y0086549D01*
X0399645Y0084478D02*
X0409716Y0084478D01*
X0409716Y0082880D02*
X0399960Y0082880D01*
X0399671Y0081281D02*
X0409716Y0081281D01*
X0409716Y0079683D02*
X0398603Y0079683D01*
X0408885Y0078084D02*
X0409716Y0078084D01*
X0409716Y0089274D02*
X0395631Y0089274D01*
X0394612Y0090872D02*
X0409716Y0090872D01*
X0409716Y0092471D02*
X0355976Y0092471D01*
X0355976Y0092175D02*
X0355461Y0090933D01*
X0354510Y0089982D01*
X0353268Y0089467D01*
X0351923Y0089467D01*
X0350680Y0089982D01*
X0349729Y0090933D01*
X0349214Y0092175D01*
X0349214Y0093521D01*
X0349729Y0094763D01*
X0350680Y0095714D01*
X0351923Y0096229D01*
X0353268Y0096229D01*
X0354510Y0095714D01*
X0355461Y0094763D01*
X0355976Y0093521D01*
X0355976Y0092175D01*
X0355401Y0090872D02*
X0390097Y0090872D01*
X0389079Y0089274D02*
X0269871Y0089274D01*
X0269976Y0089021D02*
X0269461Y0090263D01*
X0268510Y0091214D01*
X0267268Y0091729D01*
X0266976Y0091729D01*
X0266976Y0092021D01*
X0266461Y0093263D01*
X0265758Y0093967D01*
X0266768Y0093967D01*
X0268010Y0094482D01*
X0268961Y0095433D01*
X0269476Y0096675D01*
X0269476Y0098021D01*
X0268961Y0099263D01*
X0268010Y0100214D01*
X0266768Y0100729D01*
X0265423Y0100729D01*
X0264180Y0100214D01*
X0263064Y0098865D02*
X0258893Y0098865D01*
X0257476Y0097266D02*
X0262714Y0097266D01*
X0263131Y0095668D02*
X0256696Y0095668D01*
X0251494Y0095668D02*
X0250696Y0095668D01*
X0245494Y0095668D02*
X0198976Y0095668D01*
X0199036Y0094069D02*
X0198725Y0094069D01*
X0201154Y0094069D02*
X0205036Y0094069D01*
X0207154Y0094069D02*
X0261535Y0094069D01*
X0260400Y0092471D02*
X0209083Y0092471D01*
X0209476Y0090872D02*
X0260214Y0090872D01*
X0260888Y0089274D02*
X0209103Y0089274D01*
X0203108Y0092471D02*
X0203083Y0092471D01*
X0198459Y0097266D02*
X0244714Y0097266D01*
X0244857Y0098865D02*
X0230893Y0098865D01*
X0230510Y0098482D02*
X0231461Y0099433D01*
X0231976Y0100675D01*
X0231976Y0102021D01*
X0231461Y0103263D01*
X0230510Y0104214D01*
X0229268Y0104729D01*
X0227923Y0104729D01*
X0226680Y0104214D01*
X0225729Y0103263D01*
X0225214Y0102021D01*
X0225214Y0100675D01*
X0225729Y0099433D01*
X0226680Y0098482D01*
X0227923Y0097967D01*
X0229268Y0097967D01*
X0230510Y0098482D01*
X0231888Y0100463D02*
X0245929Y0100463D01*
X0250262Y0100463D02*
X0251929Y0100463D01*
X0253231Y0102062D02*
X0231959Y0102062D01*
X0231065Y0103660D02*
X0254126Y0103660D01*
X0251403Y0105259D02*
X0200050Y0105259D01*
X0199065Y0103660D02*
X0208126Y0103660D01*
X0208180Y0103714D02*
X0207229Y0102763D01*
X0206714Y0101521D01*
X0206714Y0100175D01*
X0207229Y0098933D01*
X0208180Y0097982D01*
X0209423Y0097467D01*
X0210768Y0097467D01*
X0212010Y0097982D01*
X0212961Y0098933D01*
X0213476Y0100175D01*
X0213476Y0101521D01*
X0212961Y0102763D01*
X0212010Y0103714D01*
X0210768Y0104229D01*
X0209423Y0104229D01*
X0208180Y0103714D01*
X0206938Y0102062D02*
X0200252Y0102062D01*
X0200476Y0100463D02*
X0206714Y0100463D01*
X0207297Y0098865D02*
X0199893Y0098865D01*
X0195126Y0103660D02*
X0051414Y0103660D01*
X0051414Y0102062D02*
X0192518Y0102062D01*
X0190604Y0100463D02*
X0051414Y0100463D01*
X0051414Y0098865D02*
X0190214Y0098865D01*
X0190591Y0097266D02*
X0051414Y0097266D01*
X0051414Y0095668D02*
X0192214Y0095668D01*
X0192465Y0094069D02*
X0051414Y0094069D01*
X0051414Y0092471D02*
X0193707Y0092471D01*
X0192268Y0086729D02*
X0190923Y0086729D01*
X0189680Y0086214D01*
X0188729Y0085263D01*
X0188214Y0084021D01*
X0188214Y0082675D01*
X0188729Y0081433D01*
X0189680Y0080482D01*
X0190923Y0079967D01*
X0192268Y0079967D01*
X0193510Y0080482D01*
X0194461Y0081433D01*
X0194976Y0082675D01*
X0194976Y0084021D01*
X0194461Y0085263D01*
X0193510Y0086214D01*
X0192268Y0086729D01*
X0193648Y0086077D02*
X0263651Y0086077D01*
X0263729Y0086263D02*
X0263214Y0085021D01*
X0263214Y0083675D01*
X0263729Y0082433D01*
X0263814Y0082348D01*
X0263729Y0082263D01*
X0263214Y0081021D01*
X0263214Y0079675D01*
X0263729Y0078433D01*
X0264680Y0077482D01*
X0265923Y0076967D01*
X0267268Y0076967D01*
X0268510Y0077482D01*
X0269461Y0078433D01*
X0269976Y0079675D01*
X0269868Y0081281D02*
X0324164Y0081281D01*
X0322544Y0082880D02*
X0269647Y0082880D01*
X0269976Y0084478D02*
X0322214Y0084478D01*
X0322651Y0086077D02*
X0269539Y0086077D01*
X0269976Y0087675D02*
X0269976Y0089021D01*
X0268853Y0090872D02*
X0349789Y0090872D01*
X0349214Y0092471D02*
X0324477Y0092471D01*
X0324461Y0092433D02*
X0324976Y0093675D01*
X0324976Y0095021D01*
X0324461Y0096263D01*
X0323510Y0097214D01*
X0322268Y0097729D01*
X0320923Y0097729D01*
X0319680Y0097214D01*
X0318729Y0096263D01*
X0318214Y0095021D01*
X0318214Y0093675D01*
X0318729Y0092433D01*
X0319680Y0091482D01*
X0320923Y0090967D01*
X0322268Y0090967D01*
X0323510Y0091482D01*
X0324461Y0092433D01*
X0324976Y0094069D02*
X0349441Y0094069D01*
X0350633Y0095668D02*
X0324708Y0095668D01*
X0323385Y0097266D02*
X0409716Y0097266D01*
X0409716Y0095668D02*
X0354557Y0095668D01*
X0355749Y0094069D02*
X0409716Y0094069D01*
X0409716Y0098865D02*
X0269127Y0098865D01*
X0269476Y0097266D02*
X0285732Y0097266D01*
X0286180Y0097714D02*
X0285229Y0096763D01*
X0284714Y0095521D01*
X0284714Y0094175D01*
X0285229Y0092933D01*
X0286180Y0091982D01*
X0287423Y0091467D01*
X0288768Y0091467D01*
X0290010Y0091982D01*
X0290961Y0092933D01*
X0291476Y0094175D01*
X0291476Y0095521D01*
X0290961Y0096763D01*
X0290010Y0097714D01*
X0288768Y0098229D01*
X0287423Y0098229D01*
X0286180Y0097714D01*
X0284775Y0095668D02*
X0269059Y0095668D01*
X0267014Y0094069D02*
X0284758Y0094069D01*
X0285691Y0092471D02*
X0266790Y0092471D01*
X0263214Y0087675D02*
X0263729Y0086433D01*
X0263814Y0086348D01*
X0263729Y0086263D01*
X0263214Y0084478D02*
X0194787Y0084478D01*
X0194976Y0082880D02*
X0236845Y0082880D01*
X0237180Y0083214D02*
X0236229Y0082263D01*
X0235714Y0081021D01*
X0235714Y0079675D01*
X0236229Y0078433D01*
X0237180Y0077482D01*
X0238423Y0076967D01*
X0239768Y0076967D01*
X0241010Y0077482D01*
X0241961Y0078433D01*
X0242476Y0079675D01*
X0242476Y0081021D01*
X0241961Y0082263D01*
X0241010Y0083214D01*
X0239768Y0083729D01*
X0238423Y0083729D01*
X0237180Y0083214D01*
X0235822Y0081281D02*
X0194310Y0081281D01*
X0192618Y0078084D02*
X0200550Y0078084D01*
X0199714Y0076486D02*
X0194577Y0076486D01*
X0194976Y0074887D02*
X0199834Y0074887D01*
X0200873Y0073288D02*
X0194609Y0073288D01*
X0192806Y0071690D02*
X0204114Y0071690D01*
X0204114Y0070091D02*
X0182234Y0070091D01*
X0182476Y0071690D02*
X0190384Y0071690D01*
X0188581Y0073288D02*
X0181936Y0073288D01*
X0181022Y0068493D02*
X0204679Y0068493D01*
X0212186Y0066894D02*
X0216004Y0066894D01*
X0216274Y0066625D02*
X0218104Y0065867D01*
X0220086Y0065867D01*
X0221917Y0066625D01*
X0223318Y0068026D01*
X0224076Y0069857D01*
X0224076Y0071839D01*
X0223318Y0073670D01*
X0221917Y0075071D01*
X0220086Y0075829D01*
X0218104Y0075829D01*
X0216274Y0075071D01*
X0214872Y0073670D01*
X0214114Y0071839D01*
X0214114Y0069857D01*
X0214872Y0068026D01*
X0216274Y0066625D01*
X0216817Y0065296D02*
X0211373Y0065296D01*
X0213290Y0063697D02*
X0214900Y0063697D01*
X0214872Y0063670D02*
X0214114Y0061839D01*
X0214114Y0059857D01*
X0214872Y0058026D01*
X0216274Y0056625D01*
X0218104Y0055867D01*
X0220086Y0055867D01*
X0221917Y0056625D01*
X0223318Y0058026D01*
X0224076Y0059857D01*
X0224076Y0061839D01*
X0223318Y0063670D01*
X0221917Y0065071D01*
X0220086Y0065829D01*
X0218104Y0065829D01*
X0216274Y0065071D01*
X0214872Y0063670D01*
X0214222Y0062099D02*
X0213969Y0062099D01*
X0214076Y0060500D02*
X0214114Y0060500D01*
X0214510Y0058902D02*
X0213681Y0058902D01*
X0212595Y0057303D02*
X0215595Y0057303D01*
X0222595Y0057303D02*
X0225595Y0057303D01*
X0226274Y0056625D02*
X0224872Y0058026D01*
X0224114Y0059857D01*
X0224114Y0061839D01*
X0224872Y0063670D01*
X0226274Y0065071D01*
X0228104Y0065829D01*
X0230086Y0065829D01*
X0231917Y0065071D01*
X0233318Y0063670D01*
X0234076Y0061839D01*
X0234076Y0059857D01*
X0233318Y0058026D01*
X0231917Y0056625D01*
X0230086Y0055867D01*
X0228104Y0055867D01*
X0226274Y0056625D01*
X0224510Y0058902D02*
X0223681Y0058902D01*
X0224076Y0060500D02*
X0224114Y0060500D01*
X0224222Y0062099D02*
X0223969Y0062099D01*
X0223290Y0063697D02*
X0224900Y0063697D01*
X0226817Y0065296D02*
X0221373Y0065296D01*
X0222186Y0066894D02*
X0226750Y0066894D01*
X0226691Y0066925D02*
X0227334Y0066597D01*
X0228021Y0066374D01*
X0228734Y0066261D01*
X0228895Y0066261D01*
X0228895Y0070648D01*
X0224508Y0070648D01*
X0224508Y0070487D01*
X0224621Y0069774D01*
X0224844Y0069087D01*
X0225172Y0068444D01*
X0225596Y0067860D01*
X0226107Y0067349D01*
X0226691Y0066925D01*
X0225147Y0068493D02*
X0223511Y0068493D01*
X0224076Y0070091D02*
X0224570Y0070091D01*
X0224508Y0071048D02*
X0228895Y0071048D01*
X0228895Y0070648D01*
X0229295Y0070648D01*
X0229295Y0066261D01*
X0229456Y0066261D01*
X0230169Y0066374D01*
X0230856Y0066597D01*
X0231499Y0066925D01*
X0232084Y0067349D01*
X0232594Y0067860D01*
X0233019Y0068444D01*
X0233346Y0069087D01*
X0233570Y0069774D01*
X0233683Y0070487D01*
X0233683Y0070648D01*
X0229295Y0070648D01*
X0229295Y0071048D01*
X0228895Y0071048D01*
X0228895Y0075435D01*
X0228734Y0075435D01*
X0228021Y0075322D01*
X0227334Y0075099D01*
X0226691Y0074772D01*
X0226107Y0074347D01*
X0225596Y0073837D01*
X0225172Y0073252D01*
X0224844Y0072609D01*
X0224621Y0071922D01*
X0224508Y0071209D01*
X0224508Y0071048D01*
X0224584Y0071690D02*
X0224076Y0071690D01*
X0223476Y0073288D02*
X0225198Y0073288D01*
X0226917Y0074887D02*
X0222100Y0074887D01*
X0228895Y0074887D02*
X0229295Y0074887D01*
X0229295Y0075435D02*
X0229295Y0071048D01*
X0233683Y0071048D01*
X0233683Y0071209D01*
X0233570Y0071922D01*
X0233346Y0072609D01*
X0233019Y0073252D01*
X0232594Y0073837D01*
X0232084Y0074347D01*
X0231499Y0074772D01*
X0230856Y0075099D01*
X0230169Y0075322D01*
X0229456Y0075435D01*
X0229295Y0075435D01*
X0231273Y0074887D02*
X0292275Y0074887D01*
X0291714Y0076486D02*
X0206476Y0076486D01*
X0205641Y0078084D02*
X0236578Y0078084D01*
X0235714Y0079683D02*
X0182065Y0079683D01*
X0182476Y0081281D02*
X0188881Y0081281D01*
X0188214Y0082880D02*
X0182120Y0082880D01*
X0181002Y0084478D02*
X0188404Y0084478D01*
X0189542Y0086077D02*
X0182228Y0086077D01*
X0180050Y0078084D02*
X0190572Y0078084D01*
X0212100Y0074887D02*
X0216090Y0074887D01*
X0214715Y0073288D02*
X0213476Y0073288D01*
X0214076Y0071690D02*
X0214114Y0071690D01*
X0214076Y0070091D02*
X0214114Y0070091D01*
X0214679Y0068493D02*
X0213511Y0068493D01*
X0228895Y0068493D02*
X0229295Y0068493D01*
X0229295Y0070091D02*
X0228895Y0070091D01*
X0228895Y0071690D02*
X0229295Y0071690D01*
X0229295Y0073288D02*
X0228895Y0073288D01*
X0232992Y0073288D02*
X0264254Y0073288D01*
X0263284Y0071690D02*
X0233606Y0071690D01*
X0233620Y0070091D02*
X0262057Y0070091D01*
X0262510Y0063697D02*
X0262514Y0063697D01*
X0262877Y0062099D02*
X0261848Y0062099D01*
X0261970Y0057303D02*
X0324214Y0057303D01*
X0324409Y0055705D02*
X0262576Y0055705D01*
X0262576Y0054106D02*
X0325164Y0054106D01*
X0324714Y0052508D02*
X0289302Y0052508D01*
X0291108Y0050909D02*
X0325031Y0050909D01*
X0326592Y0049311D02*
X0291476Y0049311D01*
X0291077Y0047712D02*
X0292178Y0047712D01*
X0307116Y0041318D02*
X0316074Y0041318D01*
X0314528Y0042917D02*
X0308662Y0042917D01*
X0308976Y0044515D02*
X0314214Y0044515D01*
X0314667Y0046114D02*
X0308523Y0046114D01*
X0319116Y0041318D02*
X0320343Y0041318D01*
X0325847Y0041318D02*
X0409716Y0041318D01*
X0409716Y0039720D02*
X0277980Y0039720D01*
X0278476Y0038121D02*
X0409716Y0038121D01*
X0409716Y0036523D02*
X0331266Y0036523D01*
X0328924Y0036523D02*
X0323266Y0036523D01*
X0320924Y0036523D02*
X0278206Y0036523D01*
X0276872Y0034924D02*
X0319088Y0034924D01*
X0325102Y0034924D02*
X0327088Y0034924D01*
X0333102Y0034924D02*
X0409716Y0034924D01*
X0409716Y0033326D02*
X0399399Y0033326D01*
X0401335Y0031727D02*
X0409716Y0031727D01*
X0409716Y0030129D02*
X0401960Y0030129D01*
X0401960Y0028530D02*
X0409716Y0028530D01*
X0409716Y0026932D02*
X0401319Y0026932D01*
X0399310Y0025333D02*
X0409716Y0025333D01*
X0395791Y0033326D02*
X0333476Y0033326D01*
X0333083Y0031727D02*
X0393856Y0031727D01*
X0409716Y0042917D02*
X0326476Y0042917D01*
X0326271Y0044515D02*
X0366754Y0044515D01*
X0367122Y0044147D02*
X0368727Y0043483D01*
X0370463Y0043483D01*
X0372068Y0044147D01*
X0373296Y0045375D01*
X0373960Y0046980D01*
X0373960Y0048716D01*
X0373296Y0050321D01*
X0372068Y0051549D01*
X0370463Y0052213D01*
X0368727Y0052213D01*
X0367122Y0051549D01*
X0365894Y0050321D01*
X0365230Y0048716D01*
X0365230Y0046980D01*
X0365894Y0045375D01*
X0367122Y0044147D01*
X0365588Y0046114D02*
X0339622Y0046114D01*
X0337568Y0046114D02*
X0325111Y0046114D01*
X0321079Y0046114D02*
X0320523Y0046114D01*
X0341577Y0047712D02*
X0365230Y0047712D01*
X0365476Y0049311D02*
X0344840Y0049311D01*
X0345476Y0050909D02*
X0358855Y0050909D01*
X0357491Y0052508D02*
X0345274Y0052508D01*
X0362336Y0050909D02*
X0366483Y0050909D01*
X0363700Y0052508D02*
X0384795Y0052508D01*
X0384795Y0053148D02*
X0384795Y0051548D01*
X0379031Y0051548D01*
X0379096Y0051055D01*
X0379320Y0050218D01*
X0379652Y0049417D01*
X0380085Y0048666D01*
X0380613Y0047979D01*
X0381226Y0047366D01*
X0381914Y0046838D01*
X0382664Y0046405D01*
X0383465Y0046073D01*
X0384302Y0045849D01*
X0384795Y0045784D01*
X0384795Y0051548D01*
X0386395Y0051548D01*
X0386395Y0045784D01*
X0386888Y0045849D01*
X0387725Y0046073D01*
X0388526Y0046405D01*
X0389277Y0046838D01*
X0389964Y0047366D01*
X0390577Y0047979D01*
X0391105Y0048666D01*
X0391538Y0049417D01*
X0391870Y0050218D01*
X0392094Y0051055D01*
X0392159Y0051548D01*
X0386395Y0051548D01*
X0386395Y0053148D01*
X0384795Y0053148D01*
X0379031Y0053148D01*
X0379096Y0053641D01*
X0379320Y0054478D01*
X0379652Y0055279D01*
X0380085Y0056030D01*
X0380613Y0056717D01*
X0381226Y0057330D01*
X0381914Y0057858D01*
X0382664Y0058291D01*
X0383465Y0058623D01*
X0384302Y0058847D01*
X0384795Y0058912D01*
X0384795Y0053148D01*
X0384795Y0054106D02*
X0386395Y0054106D01*
X0386395Y0053148D02*
X0386395Y0058912D01*
X0386888Y0058847D01*
X0387725Y0058623D01*
X0388526Y0058291D01*
X0389277Y0057858D01*
X0389964Y0057330D01*
X0390577Y0056717D01*
X0391105Y0056030D01*
X0391538Y0055279D01*
X0391870Y0054478D01*
X0392094Y0053641D01*
X0392159Y0053148D01*
X0386395Y0053148D01*
X0386395Y0052508D02*
X0404795Y0052508D01*
X0404795Y0053148D02*
X0399031Y0053148D01*
X0399096Y0053641D01*
X0399320Y0054478D01*
X0399652Y0055279D01*
X0400085Y0056030D01*
X0400613Y0056717D01*
X0401226Y0057330D01*
X0401914Y0057858D01*
X0402664Y0058291D01*
X0403465Y0058623D01*
X0404302Y0058847D01*
X0404795Y0058912D01*
X0404795Y0053148D01*
X0404795Y0054106D02*
X0406395Y0054106D01*
X0406395Y0055705D02*
X0404795Y0055705D01*
X0404795Y0057303D02*
X0406395Y0057303D01*
X0406395Y0058902D02*
X0404795Y0058902D01*
X0404717Y0058902D02*
X0402167Y0058902D01*
X0402829Y0060500D02*
X0409716Y0060500D01*
X0409716Y0058902D02*
X0406473Y0058902D01*
X0401199Y0057303D02*
X0401002Y0057303D01*
X0399898Y0055705D02*
X0398869Y0055705D01*
X0399221Y0054106D02*
X0391970Y0054106D01*
X0392321Y0055705D02*
X0391292Y0055705D01*
X0390188Y0057303D02*
X0389991Y0057303D01*
X0389023Y0058902D02*
X0386473Y0058902D01*
X0386395Y0058902D02*
X0384795Y0058902D01*
X0384717Y0058902D02*
X0363818Y0058902D01*
X0363976Y0057303D02*
X0381199Y0057303D01*
X0379898Y0055705D02*
X0363486Y0055705D01*
X0363976Y0054106D02*
X0379221Y0054106D01*
X0379135Y0050909D02*
X0372707Y0050909D01*
X0373714Y0049311D02*
X0379713Y0049311D01*
X0380880Y0047712D02*
X0373960Y0047712D01*
X0373602Y0046114D02*
X0383367Y0046114D01*
X0384795Y0046114D02*
X0386395Y0046114D01*
X0387823Y0046114D02*
X0403367Y0046114D01*
X0404795Y0046114D02*
X0406395Y0046114D01*
X0407823Y0046114D02*
X0409716Y0046114D01*
X0409716Y0044515D02*
X0372436Y0044515D01*
X0384795Y0047712D02*
X0386395Y0047712D01*
X0386395Y0049311D02*
X0384795Y0049311D01*
X0384795Y0050909D02*
X0386395Y0050909D01*
X0390311Y0047712D02*
X0400880Y0047712D01*
X0399713Y0049311D02*
X0391477Y0049311D01*
X0392055Y0050909D02*
X0399135Y0050909D01*
X0404795Y0050909D02*
X0406395Y0050909D01*
X0406395Y0049311D02*
X0404795Y0049311D01*
X0404795Y0047712D02*
X0406395Y0047712D01*
X0386395Y0055705D02*
X0384795Y0055705D01*
X0384795Y0057303D02*
X0386395Y0057303D01*
X0381840Y0066894D02*
X0330423Y0066894D01*
X0330976Y0068493D02*
X0380218Y0068493D01*
X0379373Y0070091D02*
X0330740Y0070091D01*
X0329044Y0073288D02*
X0379049Y0073288D01*
X0379490Y0074887D02*
X0330650Y0074887D01*
X0330976Y0076486D02*
X0380435Y0076486D01*
X0382305Y0078084D02*
X0330536Y0078084D01*
X0318713Y0092471D02*
X0315499Y0092471D01*
X0315961Y0092933D02*
X0316476Y0094175D01*
X0316476Y0095521D01*
X0315961Y0096763D01*
X0315010Y0097714D01*
X0313768Y0098229D01*
X0312423Y0098229D01*
X0311180Y0097714D01*
X0310229Y0096763D01*
X0309714Y0095521D01*
X0309714Y0094175D01*
X0310229Y0092933D01*
X0311180Y0091982D01*
X0312423Y0091467D01*
X0313768Y0091467D01*
X0315010Y0091982D01*
X0315961Y0092933D01*
X0316432Y0094069D02*
X0318214Y0094069D01*
X0318482Y0095668D02*
X0316415Y0095668D01*
X0315459Y0097266D02*
X0319805Y0097266D01*
X0322090Y0102062D02*
X0409716Y0102062D01*
X0409716Y0103660D02*
X0390689Y0103660D01*
X0385501Y0103660D02*
X0322970Y0103660D01*
X0322878Y0105259D02*
X0384714Y0105259D01*
X0384853Y0106857D02*
X0322386Y0106857D01*
X0317323Y0106857D02*
X0309868Y0106857D01*
X0309510Y0107214D02*
X0310461Y0106263D01*
X0310976Y0105021D01*
X0310976Y0103675D01*
X0310461Y0102433D01*
X0309510Y0101482D01*
X0308268Y0100967D01*
X0306923Y0100967D01*
X0305680Y0101482D01*
X0304729Y0102433D01*
X0304214Y0103675D01*
X0304214Y0105021D01*
X0304729Y0106263D01*
X0305680Y0107214D01*
X0306923Y0107729D01*
X0308268Y0107729D01*
X0309510Y0107214D01*
X0310878Y0105259D02*
X0316313Y0105259D01*
X0316220Y0103660D02*
X0310970Y0103660D01*
X0310090Y0102062D02*
X0317100Y0102062D01*
X0310732Y0097266D02*
X0290459Y0097266D01*
X0291415Y0095668D02*
X0309775Y0095668D01*
X0309758Y0094069D02*
X0291432Y0094069D01*
X0290499Y0092471D02*
X0310691Y0092471D01*
X0305100Y0102062D02*
X0300090Y0102062D01*
X0300970Y0103660D02*
X0304220Y0103660D01*
X0304313Y0105259D02*
X0300878Y0105259D01*
X0299868Y0106857D02*
X0305323Y0106857D01*
X0296878Y0114850D02*
X0327614Y0114850D01*
X0327658Y0113251D02*
X0288600Y0113251D01*
X0286756Y0114850D02*
X0292312Y0114850D01*
X0292680Y0114482D02*
X0293923Y0113967D01*
X0295268Y0113967D01*
X0296510Y0114482D01*
X0297461Y0115433D01*
X0297976Y0116675D01*
X0297976Y0118021D01*
X0297461Y0119263D01*
X0296510Y0120214D01*
X0295268Y0120729D01*
X0293923Y0120729D01*
X0292680Y0120214D01*
X0291729Y0119263D01*
X0291214Y0118021D01*
X0291214Y0116675D01*
X0291729Y0115433D01*
X0292680Y0114482D01*
X0291308Y0116448D02*
X0270446Y0116448D01*
X0271010Y0116214D02*
X0269768Y0116729D01*
X0268423Y0116729D01*
X0267180Y0116214D01*
X0266229Y0115263D01*
X0265714Y0114021D01*
X0265714Y0112675D01*
X0266229Y0111433D01*
X0267180Y0110482D01*
X0268423Y0109967D01*
X0269768Y0109967D01*
X0271010Y0110482D01*
X0271961Y0111433D01*
X0272476Y0112675D01*
X0272476Y0114021D01*
X0271961Y0115263D01*
X0271010Y0116214D01*
X0272133Y0114850D02*
X0284434Y0114850D01*
X0282590Y0113251D02*
X0272476Y0113251D01*
X0272053Y0111653D02*
X0282214Y0111653D01*
X0282605Y0110054D02*
X0269978Y0110054D01*
X0268212Y0110054D02*
X0256171Y0110054D01*
X0254214Y0111653D02*
X0266138Y0111653D01*
X0265714Y0113251D02*
X0252921Y0113251D01*
X0249269Y0113251D02*
X0198981Y0113251D01*
X0199417Y0114625D02*
X0197586Y0113867D01*
X0195604Y0113867D01*
X0193774Y0114625D01*
X0192372Y0116026D01*
X0191614Y0117857D01*
X0191614Y0119839D01*
X0192372Y0121670D01*
X0193774Y0123071D01*
X0195604Y0123829D01*
X0197586Y0123829D01*
X0199417Y0123071D01*
X0200818Y0121670D01*
X0201576Y0119839D01*
X0201576Y0117857D01*
X0200818Y0116026D01*
X0199417Y0114625D01*
X0199641Y0114850D02*
X0209312Y0114850D01*
X0209229Y0114933D02*
X0210180Y0113982D01*
X0211423Y0113467D01*
X0212768Y0113467D01*
X0214010Y0113982D01*
X0214961Y0114933D01*
X0215476Y0116175D01*
X0215476Y0116685D01*
X0216180Y0115982D01*
X0217423Y0115467D01*
X0218768Y0115467D01*
X0220010Y0115982D01*
X0220961Y0116933D01*
X0221040Y0117122D01*
X0221680Y0116482D01*
X0222923Y0115967D01*
X0224268Y0115967D01*
X0225510Y0116482D01*
X0226461Y0117433D01*
X0226976Y0118675D01*
X0226976Y0120021D01*
X0226461Y0121263D01*
X0225510Y0122214D01*
X0224268Y0122729D01*
X0222923Y0122729D01*
X0221680Y0122214D01*
X0220729Y0121263D01*
X0220650Y0121074D01*
X0220010Y0121714D01*
X0218768Y0122229D01*
X0217423Y0122229D01*
X0216180Y0121714D01*
X0215229Y0120763D01*
X0214714Y0119521D01*
X0214714Y0119011D01*
X0214010Y0119714D01*
X0212768Y0120229D01*
X0211423Y0120229D01*
X0210180Y0119714D01*
X0209229Y0118763D01*
X0208714Y0117521D01*
X0208714Y0116175D01*
X0209229Y0114933D01*
X0208714Y0116448D02*
X0200993Y0116448D01*
X0201576Y0118047D02*
X0208932Y0118047D01*
X0210111Y0119645D02*
X0201576Y0119645D01*
X0200994Y0121244D02*
X0215709Y0121244D01*
X0214766Y0119645D02*
X0214079Y0119645D01*
X0215476Y0116448D02*
X0215713Y0116448D01*
X0214878Y0114850D02*
X0259498Y0114850D01*
X0259180Y0114982D02*
X0260423Y0114467D01*
X0261768Y0114467D01*
X0263010Y0114982D01*
X0263961Y0115933D01*
X0264476Y0117175D01*
X0264476Y0118521D01*
X0263961Y0119763D01*
X0263010Y0120714D01*
X0261768Y0121229D01*
X0260423Y0121229D01*
X0259180Y0120714D01*
X0258229Y0119763D01*
X0257714Y0118521D01*
X0257714Y0117175D01*
X0258229Y0115933D01*
X0259180Y0114982D01*
X0258015Y0116448D02*
X0225430Y0116448D01*
X0226716Y0118047D02*
X0257714Y0118047D01*
X0258180Y0119645D02*
X0226976Y0119645D01*
X0226470Y0121244D02*
X0274393Y0121244D01*
X0274214Y0121675D02*
X0274729Y0120433D01*
X0275680Y0119482D01*
X0276923Y0118967D01*
X0278268Y0118967D01*
X0279510Y0119482D01*
X0280461Y0120433D01*
X0280976Y0121675D01*
X0280976Y0123021D01*
X0280461Y0124263D01*
X0279510Y0125214D01*
X0278268Y0125729D01*
X0276923Y0125729D01*
X0275680Y0125214D01*
X0274729Y0124263D01*
X0274214Y0123021D01*
X0274214Y0121675D01*
X0274214Y0122842D02*
X0199645Y0122842D01*
X0193545Y0122842D02*
X0060960Y0122842D01*
X0060863Y0121244D02*
X0192196Y0121244D01*
X0191614Y0119645D02*
X0060066Y0119645D01*
X0057618Y0118047D02*
X0191614Y0118047D01*
X0192198Y0116448D02*
X0051414Y0116448D01*
X0051414Y0114850D02*
X0193549Y0114850D01*
X0194209Y0113251D02*
X0051414Y0113251D01*
X0051414Y0111653D02*
X0192365Y0111653D01*
X0191703Y0110054D02*
X0076171Y0110054D01*
X0076010Y0110214D02*
X0074768Y0110729D01*
X0073423Y0110729D01*
X0072180Y0110214D01*
X0071229Y0109263D01*
X0070714Y0108021D01*
X0070714Y0106675D01*
X0071229Y0105433D01*
X0072180Y0104482D01*
X0073423Y0103967D01*
X0074768Y0103967D01*
X0076010Y0104482D01*
X0076961Y0105433D01*
X0077476Y0106675D01*
X0077476Y0108021D01*
X0076961Y0109263D01*
X0076010Y0110214D01*
X0077296Y0108456D02*
X0191614Y0108456D01*
X0192028Y0106857D02*
X0077476Y0106857D01*
X0076787Y0105259D02*
X0193140Y0105259D01*
X0201162Y0106857D02*
X0250714Y0106857D01*
X0248219Y0108456D02*
X0201576Y0108456D01*
X0201487Y0110054D02*
X0247714Y0110054D01*
X0247976Y0111653D02*
X0200825Y0111653D01*
X0212065Y0103660D02*
X0226126Y0103660D01*
X0225231Y0102062D02*
X0213252Y0102062D01*
X0213476Y0100463D02*
X0225302Y0100463D01*
X0226297Y0098865D02*
X0212893Y0098865D01*
X0241345Y0082880D02*
X0263544Y0082880D01*
X0263322Y0081281D02*
X0242368Y0081281D01*
X0242476Y0079683D02*
X0263214Y0079683D01*
X0264078Y0078084D02*
X0241613Y0078084D01*
X0245834Y0069099D02*
X0245191Y0068772D01*
X0244607Y0068347D01*
X0244096Y0067837D01*
X0243672Y0067252D01*
X0243344Y0066609D01*
X0243121Y0065922D01*
X0243008Y0065209D01*
X0243008Y0065048D01*
X0247395Y0065048D01*
X0247395Y0064648D01*
X0243008Y0064648D01*
X0243008Y0064487D01*
X0243121Y0063774D01*
X0243344Y0063087D01*
X0243672Y0062444D01*
X0244096Y0061860D01*
X0244607Y0061349D01*
X0245191Y0060925D01*
X0245834Y0060597D01*
X0246521Y0060374D01*
X0247234Y0060261D01*
X0247395Y0060261D01*
X0247395Y0064648D01*
X0247795Y0064648D01*
X0247795Y0060261D01*
X0247956Y0060261D01*
X0248669Y0060374D01*
X0249356Y0060597D01*
X0249999Y0060925D01*
X0250584Y0061349D01*
X0251094Y0061860D01*
X0251519Y0062444D01*
X0251846Y0063087D01*
X0252070Y0063774D01*
X0252183Y0064487D01*
X0252183Y0064648D01*
X0247795Y0064648D01*
X0247795Y0065048D01*
X0247395Y0065048D01*
X0247395Y0069435D01*
X0247234Y0069435D01*
X0246521Y0069322D01*
X0245834Y0069099D01*
X0244807Y0068493D02*
X0233044Y0068493D01*
X0231440Y0066894D02*
X0243489Y0066894D01*
X0243022Y0065296D02*
X0231373Y0065296D01*
X0233290Y0063697D02*
X0243146Y0063697D01*
X0243922Y0062099D02*
X0233969Y0062099D01*
X0234076Y0060500D02*
X0246131Y0060500D01*
X0246604Y0059829D02*
X0244774Y0059071D01*
X0243372Y0057670D01*
X0242614Y0055839D01*
X0242614Y0053857D01*
X0243372Y0052026D01*
X0244774Y0050625D01*
X0246604Y0049867D01*
X0248586Y0049867D01*
X0250417Y0050625D01*
X0251818Y0052026D01*
X0252576Y0053857D01*
X0252576Y0055839D01*
X0251818Y0057670D01*
X0250417Y0059071D01*
X0248586Y0059829D01*
X0246604Y0059829D01*
X0247395Y0060500D02*
X0247795Y0060500D01*
X0249060Y0060500D02*
X0255075Y0060500D01*
X0254605Y0058902D02*
X0250586Y0058902D01*
X0251970Y0057303D02*
X0253221Y0057303D01*
X0252614Y0055705D02*
X0252576Y0055705D01*
X0252576Y0054106D02*
X0252614Y0054106D01*
X0253173Y0052508D02*
X0252017Y0052508D01*
X0250701Y0050909D02*
X0254490Y0050909D01*
X0255353Y0049311D02*
X0249837Y0049311D01*
X0251775Y0047712D02*
X0253415Y0047712D01*
X0252728Y0046114D02*
X0252462Y0046114D01*
X0252576Y0044515D02*
X0252614Y0044515D01*
X0253004Y0042917D02*
X0252187Y0042917D01*
X0251110Y0041318D02*
X0254081Y0041318D01*
X0253824Y0038121D02*
X0251366Y0038121D01*
X0252293Y0036523D02*
X0252897Y0036523D01*
X0252614Y0034924D02*
X0252576Y0034924D01*
X0252356Y0033326D02*
X0252834Y0033326D01*
X0253672Y0031727D02*
X0251519Y0031727D01*
X0249218Y0030129D02*
X0255972Y0030129D01*
X0254233Y0028530D02*
X0250332Y0028530D01*
X0250584Y0028347D02*
X0249999Y0028772D01*
X0249356Y0029099D01*
X0248669Y0029322D01*
X0247956Y0029435D01*
X0247795Y0029435D01*
X0247795Y0025048D01*
X0252183Y0025048D01*
X0252183Y0025209D01*
X0252070Y0025922D01*
X0251846Y0026609D01*
X0251519Y0027252D01*
X0251094Y0027837D01*
X0250584Y0028347D01*
X0251682Y0026932D02*
X0253067Y0026932D01*
X0252614Y0025333D02*
X0252163Y0025333D01*
X0252057Y0023735D02*
X0252665Y0023735D01*
X0253327Y0022136D02*
X0251295Y0022136D01*
X0247795Y0022136D02*
X0247395Y0022136D01*
X0247395Y0023735D02*
X0247795Y0023735D01*
X0247795Y0025333D02*
X0247395Y0025333D01*
X0247395Y0026932D02*
X0247795Y0026932D01*
X0247795Y0028530D02*
X0247395Y0028530D01*
X0261519Y0031727D02*
X0263294Y0031727D01*
X0267976Y0034924D02*
X0273319Y0034924D01*
X0271984Y0036523D02*
X0267561Y0036523D01*
X0265528Y0038121D02*
X0271050Y0038121D01*
X0263662Y0038121D02*
X0261366Y0038121D01*
X0273284Y0044515D02*
X0276146Y0044515D01*
X0245353Y0049311D02*
X0240778Y0049311D01*
X0241010Y0049214D02*
X0239768Y0049729D01*
X0238423Y0049729D01*
X0237180Y0049214D01*
X0236229Y0048263D01*
X0235714Y0047021D01*
X0235714Y0045675D01*
X0236229Y0044433D01*
X0237180Y0043482D01*
X0238423Y0042967D01*
X0239768Y0042967D01*
X0241010Y0043482D01*
X0241961Y0044433D01*
X0242476Y0045675D01*
X0242476Y0047021D01*
X0241961Y0048263D01*
X0241010Y0049214D01*
X0242190Y0047712D02*
X0243415Y0047712D01*
X0242728Y0046114D02*
X0242476Y0046114D01*
X0242614Y0044515D02*
X0241996Y0044515D01*
X0243004Y0042917D02*
X0231187Y0042917D01*
X0231576Y0044515D02*
X0236195Y0044515D01*
X0235714Y0046114D02*
X0231462Y0046114D01*
X0230775Y0047712D02*
X0236001Y0047712D01*
X0237413Y0049311D02*
X0228837Y0049311D01*
X0224353Y0049311D02*
X0217705Y0049311D01*
X0217669Y0049322D02*
X0216956Y0049435D01*
X0216795Y0049435D01*
X0216795Y0045048D01*
X0221183Y0045048D01*
X0221183Y0045209D01*
X0221070Y0045922D01*
X0220846Y0046609D01*
X0220519Y0047252D01*
X0220094Y0047837D01*
X0219584Y0048347D01*
X0218999Y0048772D01*
X0218356Y0049099D01*
X0217669Y0049322D01*
X0216795Y0049311D02*
X0216395Y0049311D01*
X0215485Y0049311D02*
X0208340Y0049311D01*
X0208976Y0050909D02*
X0244490Y0050909D01*
X0243173Y0052508D02*
X0208774Y0052508D01*
X0207618Y0054106D02*
X0242614Y0054106D01*
X0242614Y0055705D02*
X0165234Y0055705D01*
X0166322Y0057303D02*
X0205595Y0057303D01*
X0204510Y0058902D02*
X0166476Y0058902D01*
X0165724Y0060500D02*
X0204114Y0060500D01*
X0216395Y0047712D02*
X0216795Y0047712D01*
X0216795Y0046114D02*
X0216395Y0046114D01*
X0216395Y0044515D02*
X0216795Y0044515D01*
X0216795Y0042917D02*
X0216395Y0042917D01*
X0216395Y0041318D02*
X0216795Y0041318D01*
X0217850Y0039720D02*
X0225340Y0039720D01*
X0223081Y0041318D02*
X0219541Y0041318D01*
X0220760Y0042917D02*
X0222004Y0042917D01*
X0221614Y0044515D02*
X0221183Y0044515D01*
X0221007Y0046114D02*
X0221728Y0046114D01*
X0222415Y0047712D02*
X0220184Y0047712D01*
X0215340Y0039720D02*
X0177580Y0039720D01*
X0173550Y0038121D02*
X0163520Y0038121D01*
X0163461Y0038263D02*
X0162510Y0039214D01*
X0161268Y0039729D01*
X0159923Y0039729D01*
X0158680Y0039214D01*
X0157729Y0038263D01*
X0157214Y0037021D01*
X0157214Y0035675D01*
X0157729Y0034433D01*
X0158680Y0033482D01*
X0159923Y0032967D01*
X0161268Y0032967D01*
X0162510Y0033482D01*
X0163461Y0034433D01*
X0163976Y0035675D01*
X0163976Y0037021D01*
X0163461Y0038263D01*
X0163976Y0036523D02*
X0172924Y0036523D01*
X0171088Y0034924D02*
X0163665Y0034924D01*
X0162134Y0033326D02*
X0170714Y0033326D01*
X0171107Y0031727D02*
X0153476Y0031727D01*
X0153476Y0031175D02*
X0152961Y0029933D01*
X0152627Y0029598D01*
X0152961Y0029263D01*
X0153476Y0028021D01*
X0153476Y0026675D01*
X0152961Y0025433D01*
X0152010Y0024482D01*
X0150768Y0023967D01*
X0149423Y0023967D01*
X0148180Y0024482D01*
X0147229Y0025433D01*
X0146714Y0026675D01*
X0146714Y0028021D01*
X0147229Y0029263D01*
X0147564Y0029598D01*
X0147229Y0029933D01*
X0146714Y0031175D01*
X0146714Y0032521D01*
X0147229Y0033763D01*
X0148180Y0034714D01*
X0149423Y0035229D01*
X0150768Y0035229D01*
X0152010Y0034714D01*
X0152961Y0033763D01*
X0153476Y0032521D01*
X0153476Y0031175D01*
X0153043Y0030129D02*
X0162094Y0030129D01*
X0160925Y0028530D02*
X0153265Y0028530D01*
X0153476Y0026932D02*
X0160714Y0026932D01*
X0158299Y0025333D02*
X0152862Y0025333D01*
X0157303Y0023735D02*
X0094551Y0023735D01*
X0094551Y0025333D02*
X0147328Y0025333D01*
X0146714Y0026932D02*
X0079404Y0026932D01*
X0079531Y0026376D02*
X0079228Y0027700D01*
X0078780Y0028981D01*
X0078191Y0030204D01*
X0077469Y0031354D01*
X0076622Y0032415D01*
X0075662Y0033375D01*
X0074601Y0034222D01*
X0073451Y0034944D01*
X0072228Y0035533D01*
X0070947Y0035981D01*
X0069623Y0036283D01*
X0068395Y0036422D01*
X0068395Y0025148D01*
X0066795Y0025148D01*
X0066795Y0023548D01*
X0055521Y0023548D01*
X0055660Y0022320D01*
X0055962Y0020997D01*
X0056410Y0019715D01*
X0056999Y0018492D01*
X0057722Y0017342D01*
X0058568Y0016281D01*
X0059528Y0015321D01*
X0060589Y0014474D01*
X0061739Y0013752D01*
X0062962Y0013163D01*
X0064244Y0012715D01*
X0065567Y0012413D01*
X0066795Y0012274D01*
X0066795Y0023548D01*
X0068395Y0023548D01*
X0068395Y0012274D01*
X0069623Y0012413D01*
X0070947Y0012715D01*
X0072228Y0013163D01*
X0073451Y0013752D01*
X0074601Y0014474D01*
X0075662Y0015321D01*
X0076622Y0016281D01*
X0077469Y0017342D01*
X0078191Y0018492D01*
X0078780Y0019715D01*
X0079228Y0020997D01*
X0079531Y0022320D01*
X0079669Y0023548D01*
X0068395Y0023548D01*
X0068395Y0025148D01*
X0079669Y0025148D01*
X0079531Y0026376D01*
X0079648Y0025333D02*
X0080640Y0025333D01*
X0080640Y0025688D02*
X0080640Y0013008D01*
X0081255Y0012393D01*
X0082125Y0012393D01*
X0093936Y0012393D01*
X0094551Y0013008D01*
X0094551Y0025688D01*
X0093936Y0026304D01*
X0081255Y0026304D01*
X0080640Y0025688D01*
X0080640Y0023735D02*
X0068395Y0023735D01*
X0068395Y0025333D02*
X0066795Y0025333D01*
X0066795Y0025148D02*
X0066795Y0036422D01*
X0065567Y0036283D01*
X0064244Y0035981D01*
X0062962Y0035533D01*
X0061739Y0034944D01*
X0060589Y0034222D01*
X0059528Y0033375D01*
X0058568Y0032415D01*
X0057722Y0031354D01*
X0056999Y0030204D01*
X0056410Y0028981D01*
X0055962Y0027700D01*
X0055660Y0026376D01*
X0055521Y0025148D01*
X0066795Y0025148D01*
X0066795Y0023735D02*
X0051414Y0023735D01*
X0051414Y0025333D02*
X0055542Y0025333D01*
X0055787Y0026932D02*
X0051414Y0026932D01*
X0051414Y0028530D02*
X0056253Y0028530D01*
X0056963Y0030129D02*
X0051414Y0030129D01*
X0051414Y0031727D02*
X0058019Y0031727D01*
X0059479Y0033326D02*
X0051414Y0033326D01*
X0051414Y0034924D02*
X0061708Y0034924D01*
X0066795Y0034924D02*
X0068395Y0034924D01*
X0068395Y0033326D02*
X0066795Y0033326D01*
X0066795Y0031727D02*
X0068395Y0031727D01*
X0068395Y0030129D02*
X0066795Y0030129D01*
X0066795Y0028530D02*
X0068395Y0028530D01*
X0068395Y0026932D02*
X0066795Y0026932D01*
X0066795Y0022136D02*
X0068395Y0022136D01*
X0068395Y0020538D02*
X0066795Y0020538D01*
X0066795Y0018939D02*
X0068395Y0018939D01*
X0068395Y0017341D02*
X0066795Y0017341D01*
X0066795Y0015742D02*
X0068395Y0015742D01*
X0068395Y0014144D02*
X0066795Y0014144D01*
X0066795Y0012545D02*
X0068395Y0012545D01*
X0070203Y0012545D02*
X0081102Y0012545D01*
X0080640Y0014144D02*
X0074074Y0014144D01*
X0076083Y0015742D02*
X0080640Y0015742D01*
X0080640Y0017341D02*
X0077467Y0017341D01*
X0078406Y0018939D02*
X0080640Y0018939D01*
X0080640Y0020538D02*
X0079068Y0020538D01*
X0079489Y0022136D02*
X0080640Y0022136D01*
X0078938Y0028530D02*
X0117270Y0028530D01*
X0117423Y0028467D02*
X0118768Y0028467D01*
X0120010Y0028982D01*
X0120961Y0029933D01*
X0121476Y0031175D01*
X0121476Y0032521D01*
X0120961Y0033763D01*
X0120010Y0034714D01*
X0118768Y0035229D01*
X0117423Y0035229D01*
X0116180Y0034714D01*
X0115229Y0033763D01*
X0114714Y0032521D01*
X0114714Y0031175D01*
X0115229Y0029933D01*
X0116180Y0028982D01*
X0117423Y0028467D01*
X0118920Y0028530D02*
X0146925Y0028530D01*
X0147148Y0030129D02*
X0121043Y0030129D01*
X0121476Y0031727D02*
X0146714Y0031727D01*
X0147048Y0033326D02*
X0121143Y0033326D01*
X0119504Y0034924D02*
X0148686Y0034924D01*
X0151504Y0034924D02*
X0157525Y0034924D01*
X0157214Y0036523D02*
X0144402Y0036523D01*
X0144268Y0036467D02*
X0145510Y0036982D01*
X0146461Y0037933D01*
X0146976Y0039175D01*
X0146976Y0040521D01*
X0146461Y0041763D01*
X0145510Y0042714D01*
X0144268Y0043229D01*
X0142923Y0043229D01*
X0141680Y0042714D01*
X0140729Y0041763D01*
X0140214Y0040521D01*
X0140214Y0039175D01*
X0140729Y0037933D01*
X0141680Y0036982D01*
X0142923Y0036467D01*
X0144268Y0036467D01*
X0142788Y0036523D02*
X0051414Y0036523D01*
X0051414Y0038121D02*
X0140651Y0038121D01*
X0140214Y0039720D02*
X0051414Y0039720D01*
X0051414Y0041318D02*
X0140544Y0041318D01*
X0142169Y0042917D02*
X0051414Y0042917D01*
X0073483Y0034924D02*
X0116686Y0034924D01*
X0115048Y0033326D02*
X0075712Y0033326D01*
X0077171Y0031727D02*
X0114714Y0031727D01*
X0115148Y0030129D02*
X0078227Y0030129D01*
X0094551Y0022136D02*
X0157230Y0022136D01*
X0158124Y0020538D02*
X0094551Y0020538D01*
X0094551Y0018939D02*
X0160312Y0018939D01*
X0161321Y0017341D02*
X0094551Y0017341D01*
X0094551Y0015742D02*
X0148247Y0015742D01*
X0146972Y0014144D02*
X0094551Y0014144D01*
X0094088Y0012545D02*
X0146714Y0012545D01*
X0151944Y0015742D02*
X0160747Y0015742D01*
X0159472Y0014144D02*
X0153218Y0014144D01*
X0153476Y0012545D02*
X0159214Y0012545D01*
X0166862Y0025333D02*
X0170872Y0025333D01*
X0170257Y0026932D02*
X0167476Y0026932D01*
X0167265Y0028530D02*
X0170468Y0028530D01*
X0171638Y0030129D02*
X0166096Y0030129D01*
X0159056Y0033326D02*
X0153143Y0033326D01*
X0157670Y0038121D02*
X0146540Y0038121D01*
X0146976Y0039720D02*
X0159900Y0039720D01*
X0161290Y0039720D02*
X0171610Y0039720D01*
X0171214Y0041318D02*
X0146646Y0041318D01*
X0145022Y0042917D02*
X0171585Y0042917D01*
X0189202Y0036523D02*
X0191488Y0036523D01*
X0190381Y0034924D02*
X0190309Y0034924D01*
X0189756Y0031727D02*
X0190934Y0031727D01*
X0189976Y0030129D02*
X0208441Y0030129D01*
X0208214Y0031727D02*
X0196256Y0031727D01*
X0196976Y0033326D02*
X0208791Y0033326D01*
X0211614Y0034924D02*
X0196809Y0034924D01*
X0195702Y0036523D02*
X0211897Y0036523D01*
X0220366Y0038121D02*
X0222824Y0038121D01*
X0221897Y0036523D02*
X0221293Y0036523D01*
X0221576Y0034924D02*
X0221614Y0034924D01*
X0221834Y0033326D02*
X0221356Y0033326D01*
X0220519Y0031727D02*
X0222672Y0031727D01*
X0214972Y0030129D02*
X0214750Y0030129D01*
X0209631Y0028530D02*
X0189709Y0028530D01*
X0188390Y0026932D02*
X0212067Y0026932D01*
X0184801Y0026932D02*
X0182390Y0026932D01*
X0232595Y0057303D02*
X0243221Y0057303D01*
X0244605Y0058902D02*
X0233681Y0058902D01*
X0247395Y0062099D02*
X0247795Y0062099D01*
X0247795Y0063697D02*
X0247395Y0063697D01*
X0247795Y0065048D02*
X0252183Y0065048D01*
X0252183Y0065209D01*
X0252070Y0065922D01*
X0251846Y0066609D01*
X0251519Y0067252D01*
X0251094Y0067837D01*
X0250584Y0068347D01*
X0249999Y0068772D01*
X0249356Y0069099D01*
X0248669Y0069322D01*
X0247956Y0069435D01*
X0247795Y0069435D01*
X0247795Y0065048D01*
X0247795Y0065296D02*
X0247395Y0065296D01*
X0247395Y0066894D02*
X0247795Y0066894D01*
X0247795Y0068493D02*
X0247395Y0068493D01*
X0250383Y0068493D02*
X0254196Y0068493D01*
X0253051Y0066894D02*
X0251701Y0066894D01*
X0252169Y0065296D02*
X0252614Y0065296D01*
X0252680Y0063697D02*
X0252045Y0063697D01*
X0251268Y0062099D02*
X0253342Y0062099D01*
X0229295Y0066894D02*
X0228895Y0066894D01*
X0269113Y0078084D02*
X0291947Y0078084D01*
X0267410Y0100463D02*
X0409716Y0100463D01*
X0409716Y0105259D02*
X0395962Y0105259D01*
X0397716Y0106857D02*
X0409716Y0106857D01*
X0409716Y0108456D02*
X0398378Y0108456D01*
X0398415Y0110054D02*
X0409716Y0110054D01*
X0409716Y0111653D02*
X0397924Y0111653D01*
X0396672Y0113251D02*
X0409716Y0113251D01*
X0409716Y0114850D02*
X0391841Y0114850D01*
X0391976Y0116448D02*
X0409716Y0116448D01*
X0409716Y0118047D02*
X0391178Y0118047D01*
X0390674Y0119645D02*
X0409716Y0119645D01*
X0409716Y0121244D02*
X0391797Y0121244D01*
X0391976Y0122842D02*
X0409716Y0122842D01*
X0409716Y0124441D02*
X0394748Y0124441D01*
X0394541Y0124355D02*
X0396318Y0125091D01*
X0397679Y0126451D01*
X0398415Y0128229D01*
X0398415Y0130152D01*
X0397679Y0131930D01*
X0396318Y0133290D01*
X0394541Y0134026D01*
X0392618Y0134026D01*
X0390840Y0133290D01*
X0389480Y0131930D01*
X0388744Y0130152D01*
X0388744Y0128229D01*
X0389480Y0126451D01*
X0390840Y0125091D01*
X0392618Y0124355D01*
X0394541Y0124355D01*
X0392411Y0124441D02*
X0391284Y0124441D01*
X0389892Y0126039D02*
X0347286Y0126039D01*
X0347576Y0124441D02*
X0385906Y0124441D01*
X0385214Y0122842D02*
X0347363Y0122842D01*
X0346535Y0121244D02*
X0383209Y0121244D01*
X0388989Y0127638D02*
X0356667Y0127638D01*
X0357794Y0129236D02*
X0388744Y0129236D01*
X0389027Y0130835D02*
X0357976Y0130835D01*
X0357291Y0132433D02*
X0389984Y0132433D01*
X0397175Y0132433D02*
X0409716Y0132433D01*
X0409716Y0130835D02*
X0398132Y0130835D01*
X0398415Y0129236D02*
X0409716Y0129236D01*
X0409716Y0127638D02*
X0398170Y0127638D01*
X0397267Y0126039D02*
X0409716Y0126039D01*
X0352524Y0127638D02*
X0346350Y0127638D01*
X0339882Y0118047D02*
X0335941Y0118047D01*
X0337117Y0116448D02*
X0338517Y0116448D01*
X0338030Y0114850D02*
X0337576Y0114850D01*
X0337532Y0113251D02*
X0338128Y0113251D01*
X0338883Y0111653D02*
X0336870Y0111653D01*
X0335245Y0110054D02*
X0340965Y0110054D01*
X0342395Y0110054D02*
X0342795Y0110054D01*
X0342795Y0111653D02*
X0342395Y0111653D01*
X0342395Y0113251D02*
X0342795Y0113251D01*
X0342795Y0114850D02*
X0342395Y0114850D01*
X0342395Y0116448D02*
X0342795Y0116448D01*
X0330932Y0119645D02*
X0318550Y0119645D01*
X0318461Y0119433D02*
X0318976Y0120675D01*
X0318976Y0122021D01*
X0318461Y0123263D01*
X0317510Y0124214D01*
X0316268Y0124729D01*
X0314923Y0124729D01*
X0313680Y0124214D01*
X0312729Y0123263D01*
X0312214Y0122021D01*
X0312214Y0120675D01*
X0312729Y0119433D01*
X0313680Y0118482D01*
X0314923Y0117967D01*
X0316268Y0117967D01*
X0317510Y0118482D01*
X0318461Y0119433D01*
X0318976Y0121244D02*
X0328655Y0121244D01*
X0327827Y0122842D02*
X0318636Y0122842D01*
X0316964Y0124441D02*
X0327614Y0124441D01*
X0327904Y0126039D02*
X0295476Y0126039D01*
X0295476Y0126521D02*
X0294961Y0127763D01*
X0294010Y0128714D01*
X0292768Y0129229D01*
X0291423Y0129229D01*
X0290180Y0128714D01*
X0289229Y0127763D01*
X0288714Y0126521D01*
X0288714Y0125175D01*
X0289229Y0123933D01*
X0290180Y0122982D01*
X0291423Y0122467D01*
X0292768Y0122467D01*
X0294010Y0122982D01*
X0294961Y0123933D01*
X0295476Y0125175D01*
X0295476Y0126521D01*
X0295013Y0127638D02*
X0308524Y0127638D01*
X0307396Y0129236D02*
X0054494Y0129236D01*
X0054845Y0127638D02*
X0289177Y0127638D01*
X0288714Y0126039D02*
X0059077Y0126039D01*
X0060453Y0124441D02*
X0274906Y0124441D01*
X0280284Y0124441D02*
X0289018Y0124441D01*
X0290516Y0122842D02*
X0280976Y0122842D01*
X0280797Y0121244D02*
X0312214Y0121244D01*
X0312554Y0122842D02*
X0293674Y0122842D01*
X0295172Y0124441D02*
X0314227Y0124441D01*
X0312667Y0127638D02*
X0328841Y0127638D01*
X0329250Y0118047D02*
X0316461Y0118047D01*
X0314730Y0118047D02*
X0297965Y0118047D01*
X0297882Y0116448D02*
X0328074Y0116448D01*
X0312641Y0119645D02*
X0297079Y0119645D01*
X0292111Y0119645D02*
X0279674Y0119645D01*
X0275516Y0119645D02*
X0264010Y0119645D01*
X0264476Y0118047D02*
X0291225Y0118047D01*
X0307214Y0130835D02*
X0054142Y0130835D01*
X0055572Y0118047D02*
X0051414Y0118047D01*
X0051414Y0110054D02*
X0072020Y0110054D01*
X0070894Y0108456D02*
X0051414Y0108456D01*
X0051414Y0106857D02*
X0070714Y0106857D01*
X0071403Y0105259D02*
X0051414Y0105259D01*
X0051414Y0148419D02*
X0062432Y0148419D01*
X0059909Y0150017D02*
X0051414Y0150017D01*
X0051414Y0151616D02*
X0058301Y0151616D01*
X0057174Y0153214D02*
X0051414Y0153214D01*
X0051414Y0154813D02*
X0056376Y0154813D01*
X0055867Y0156411D02*
X0051414Y0156411D01*
X0051414Y0158010D02*
X0055582Y0158010D01*
X0075281Y0150017D02*
X0117645Y0150017D01*
X0117229Y0150433D02*
X0118180Y0149482D01*
X0119423Y0148967D01*
X0120768Y0148967D01*
X0122010Y0149482D01*
X0122961Y0150433D01*
X0123476Y0151675D01*
X0123476Y0153021D01*
X0122961Y0154263D01*
X0122010Y0155214D01*
X0120768Y0155729D01*
X0119423Y0155729D01*
X0118180Y0155214D01*
X0117229Y0154263D01*
X0116714Y0153021D01*
X0116714Y0151675D01*
X0117229Y0150433D01*
X0116739Y0151616D02*
X0076889Y0151616D01*
X0078016Y0153214D02*
X0116794Y0153214D01*
X0117778Y0154813D02*
X0078814Y0154813D01*
X0079323Y0156411D02*
X0134876Y0156411D01*
X0135975Y0158010D02*
X0079608Y0158010D01*
X0120328Y0162805D02*
X0124705Y0162805D01*
X0123148Y0164404D02*
X0121884Y0164404D01*
X0122102Y0169199D02*
X0122930Y0169199D01*
X0124126Y0170798D02*
X0120906Y0170798D01*
X0140215Y0158010D02*
X0143475Y0158010D01*
X0142376Y0156411D02*
X0141314Y0156411D01*
X0138239Y0151616D02*
X0136451Y0151616D01*
X0135546Y0150017D02*
X0139145Y0150017D01*
X0144046Y0150017D02*
X0147145Y0150017D01*
X0146239Y0151616D02*
X0144951Y0151616D01*
X0148814Y0156411D02*
X0150376Y0156411D01*
X0151475Y0158010D02*
X0147715Y0158010D01*
X0155715Y0158010D02*
X0158975Y0158010D01*
X0157876Y0156411D02*
X0156814Y0156411D01*
X0153739Y0151616D02*
X0152951Y0151616D01*
X0152046Y0150017D02*
X0154645Y0150017D01*
X0159546Y0150017D02*
X0162645Y0150017D01*
X0161739Y0151616D02*
X0160451Y0151616D01*
X0167546Y0150017D02*
X0244145Y0150017D01*
X0242946Y0151616D02*
X0168451Y0151616D01*
X0185575Y0161207D02*
X0185615Y0161207D01*
X0227018Y0148419D02*
X0254320Y0148419D01*
X0254214Y0148675D02*
X0254729Y0147433D01*
X0255680Y0146482D01*
X0256923Y0145967D01*
X0258268Y0145967D01*
X0259510Y0146482D01*
X0260461Y0147433D01*
X0260976Y0148675D01*
X0260976Y0150021D01*
X0260461Y0151263D01*
X0259510Y0152214D01*
X0258268Y0152729D01*
X0256923Y0152729D01*
X0255680Y0152214D01*
X0254729Y0151263D01*
X0254214Y0150021D01*
X0254214Y0148675D01*
X0254214Y0150017D02*
X0248046Y0150017D01*
X0249244Y0151616D02*
X0255081Y0151616D01*
X0260109Y0151616D02*
X0333446Y0151616D01*
X0334645Y0150017D02*
X0260976Y0150017D01*
X0260870Y0148419D02*
X0276384Y0148419D01*
X0275714Y0146820D02*
X0259849Y0146820D01*
X0255342Y0146820D02*
X0228645Y0146820D01*
X0228976Y0145221D02*
X0275902Y0145221D01*
X0277039Y0143623D02*
X0228540Y0143623D01*
X0251200Y0142024D02*
X0304484Y0142024D01*
X0304214Y0143623D02*
X0281152Y0143623D01*
X0282288Y0145221D02*
X0304711Y0145221D01*
X0305814Y0140426D02*
X0251976Y0140426D01*
X0286975Y0137229D02*
X0308694Y0137229D01*
X0307760Y0135630D02*
X0288224Y0135630D01*
X0288476Y0134032D02*
X0307773Y0134032D01*
X0307899Y0132433D02*
X0287962Y0132433D01*
X0267745Y0116448D02*
X0264175Y0116448D01*
X0262692Y0114850D02*
X0266058Y0114850D01*
X0221760Y0116448D02*
X0220477Y0116448D01*
X0220481Y0121244D02*
X0220721Y0121244D01*
X0130645Y0150017D02*
X0122546Y0150017D01*
X0123451Y0151616D02*
X0129739Y0151616D01*
X0129794Y0153214D02*
X0123396Y0153214D01*
X0122412Y0154813D02*
X0130778Y0154813D01*
X0355580Y0084478D02*
X0361503Y0084478D01*
X0362926Y0082880D02*
X0355976Y0082880D01*
X0402985Y0063697D02*
X0409716Y0063697D01*
X0409716Y0062099D02*
X0402985Y0062099D01*
X0064987Y0012545D02*
X0051414Y0012545D01*
X0051414Y0014144D02*
X0061116Y0014144D01*
X0059107Y0015742D02*
X0051414Y0015742D01*
X0051414Y0017341D02*
X0057723Y0017341D01*
X0056784Y0018939D02*
X0051414Y0018939D01*
X0051414Y0020538D02*
X0056122Y0020538D01*
X0055702Y0022136D02*
X0051414Y0022136D01*
D20*
X0038095Y0019348D02*
X0051595Y0069848D01*
X0051608Y0069929D01*
X0051625Y0070008D01*
X0051646Y0070087D01*
X0051671Y0070165D01*
X0051699Y0070242D01*
X0051730Y0070317D01*
X0051765Y0070391D01*
X0051803Y0070463D01*
X0051845Y0070534D01*
X0051890Y0070602D01*
X0051938Y0070668D01*
X0051989Y0070732D01*
X0052042Y0070793D01*
X0052099Y0070852D01*
X0052158Y0070908D01*
X0052220Y0070962D01*
X0052284Y0071012D01*
X0052351Y0071060D01*
X0052419Y0071104D01*
X0052490Y0071145D01*
X0052562Y0071183D01*
X0052636Y0071218D01*
X0052712Y0071249D01*
X0052789Y0071276D01*
X0052867Y0071300D01*
X0052946Y0071320D01*
X0053026Y0071337D01*
X0053107Y0071350D01*
X0053188Y0071359D01*
X0053269Y0071364D01*
X0053351Y0071366D01*
X0053432Y0071364D01*
X0053514Y0071358D01*
X0053595Y0071348D01*
X0056595Y0071348D01*
X0056595Y0122348D02*
X0054595Y0122348D01*
X0054484Y0122341D01*
X0054373Y0122338D01*
X0054261Y0122339D01*
X0054150Y0122344D01*
X0054039Y0122352D01*
X0053928Y0122365D01*
X0053818Y0122381D01*
X0053709Y0122401D01*
X0053600Y0122424D01*
X0053492Y0122452D01*
X0053385Y0122483D01*
X0053279Y0122517D01*
X0053175Y0122555D01*
X0053072Y0122597D01*
X0052970Y0122642D01*
X0052870Y0122691D01*
X0052771Y0122743D01*
X0052675Y0122798D01*
X0052580Y0122857D01*
X0052488Y0122919D01*
X0052397Y0122984D01*
X0052309Y0123052D01*
X0052223Y0123123D01*
X0052140Y0123197D01*
X0052059Y0123273D01*
X0051981Y0123353D01*
X0051906Y0123435D01*
X0051834Y0123519D01*
X0051764Y0123606D01*
X0051698Y0123696D01*
X0051634Y0123787D01*
X0051574Y0123881D01*
X0051517Y0123976D01*
X0051463Y0124074D01*
X0051413Y0124173D01*
X0051366Y0124274D01*
X0051323Y0124376D01*
X0051283Y0124480D01*
X0051246Y0124586D01*
X0051213Y0124692D01*
X0051184Y0124799D01*
X0051159Y0124908D01*
X0051137Y0125017D01*
X0051119Y0125127D01*
X0051105Y0125237D01*
X0051095Y0125348D01*
X0035595Y0195848D01*
X0038095Y0019348D02*
X0038063Y0019185D01*
X0038027Y0019023D01*
X0037987Y0018862D01*
X0037943Y0018702D01*
X0037895Y0018543D01*
X0037844Y0018386D01*
X0037788Y0018229D01*
X0037729Y0018074D01*
X0037666Y0017921D01*
X0037600Y0017769D01*
X0037530Y0017619D01*
X0037456Y0017470D01*
X0037379Y0017323D01*
X0037298Y0017178D01*
X0037213Y0017036D01*
X0037126Y0016895D01*
X0037034Y0016756D01*
X0036940Y0016620D01*
X0036842Y0016486D01*
X0036741Y0016354D01*
X0036637Y0016225D01*
X0036530Y0016098D01*
X0036420Y0015974D01*
X0036306Y0015853D01*
X0036190Y0015735D01*
X0036071Y0015619D01*
X0035950Y0015506D01*
X0035825Y0015396D01*
X0035698Y0015290D01*
X0035569Y0015186D01*
X0035437Y0015086D01*
X0035302Y0014988D01*
X0035166Y0014894D01*
X0035027Y0014804D01*
X0034886Y0014716D01*
X0034742Y0014633D01*
X0034597Y0014552D01*
X0034450Y0014475D01*
X0034301Y0014402D01*
X0034151Y0014333D01*
X0033999Y0014267D01*
X0033845Y0014204D01*
X0033690Y0014146D01*
X0033533Y0014091D01*
X0033375Y0014040D01*
X0033216Y0013993D01*
X0033056Y0013950D01*
X0032895Y0013910D01*
X0032733Y0013875D01*
X0032570Y0013843D01*
X0032406Y0013816D01*
X0032242Y0013792D01*
X0032077Y0013772D01*
X0031912Y0013756D01*
X0031747Y0013745D01*
X0031581Y0013737D01*
X0031415Y0013733D01*
X0031249Y0013734D01*
X0031083Y0013738D01*
X0030918Y0013746D01*
X0030752Y0013759D01*
X0030587Y0013775D01*
X0030423Y0013795D01*
X0030258Y0013820D01*
X0030095Y0013848D01*
M02*
