G75*
%MOIN*%
%OFA0B0*%
%FSLAX25Y25*%
%IPPOS*%
%LPD*%
%AMOC8*
5,1,8,0,0,1.08239X$1,22.5*
%
%ADD10C,0.00000*%
%ADD11C,0.00165*%
%ADD12C,0.00179*%
%ADD13C,0.00154*%
%ADD14C,0.00181*%
%ADD15C,0.01654*%
%ADD16C,0.03189*%
D10*
X0022595Y0009348D02*
X0412516Y0009348D01*
X0412516Y0203167D01*
X0022595Y0203167D01*
X0022595Y0009348D01*
D11*
X0105602Y0034706D02*
X0105602Y0037298D01*
X0108588Y0037298D01*
X0108588Y0034706D01*
X0105602Y0034706D01*
X0105602Y0034870D02*
X0108588Y0034870D01*
X0108588Y0035034D02*
X0105602Y0035034D01*
X0105602Y0035198D02*
X0108588Y0035198D01*
X0108588Y0035362D02*
X0105602Y0035362D01*
X0105602Y0035526D02*
X0108588Y0035526D01*
X0108588Y0035690D02*
X0105602Y0035690D01*
X0105602Y0035854D02*
X0108588Y0035854D01*
X0108588Y0036018D02*
X0105602Y0036018D01*
X0105602Y0036182D02*
X0108588Y0036182D01*
X0108588Y0036346D02*
X0105602Y0036346D01*
X0105602Y0036510D02*
X0108588Y0036510D01*
X0108588Y0036674D02*
X0105602Y0036674D01*
X0105602Y0036838D02*
X0108588Y0036838D01*
X0108588Y0037002D02*
X0105602Y0037002D01*
X0105602Y0037166D02*
X0108588Y0037166D01*
X0105602Y0041398D02*
X0105602Y0043990D01*
X0108588Y0043990D01*
X0108588Y0041398D01*
X0105602Y0041398D01*
X0105602Y0041562D02*
X0108588Y0041562D01*
X0108588Y0041726D02*
X0105602Y0041726D01*
X0105602Y0041890D02*
X0108588Y0041890D01*
X0108588Y0042054D02*
X0105602Y0042054D01*
X0105602Y0042218D02*
X0108588Y0042218D01*
X0108588Y0042382D02*
X0105602Y0042382D01*
X0105602Y0042546D02*
X0108588Y0042546D01*
X0108588Y0042710D02*
X0105602Y0042710D01*
X0105602Y0042874D02*
X0108588Y0042874D01*
X0108588Y0043038D02*
X0105602Y0043038D01*
X0105602Y0043202D02*
X0108588Y0043202D01*
X0108588Y0043366D02*
X0105602Y0043366D01*
X0105602Y0043530D02*
X0108588Y0043530D01*
X0108588Y0043694D02*
X0105602Y0043694D01*
X0105602Y0043858D02*
X0108588Y0043858D01*
X0116602Y0043990D02*
X0116602Y0041398D01*
X0116602Y0043990D02*
X0119588Y0043990D01*
X0119588Y0041398D01*
X0116602Y0041398D01*
X0116602Y0041562D02*
X0119588Y0041562D01*
X0119588Y0041726D02*
X0116602Y0041726D01*
X0116602Y0041890D02*
X0119588Y0041890D01*
X0119588Y0042054D02*
X0116602Y0042054D01*
X0116602Y0042218D02*
X0119588Y0042218D01*
X0119588Y0042382D02*
X0116602Y0042382D01*
X0116602Y0042546D02*
X0119588Y0042546D01*
X0119588Y0042710D02*
X0116602Y0042710D01*
X0116602Y0042874D02*
X0119588Y0042874D01*
X0119588Y0043038D02*
X0116602Y0043038D01*
X0116602Y0043202D02*
X0119588Y0043202D01*
X0119588Y0043366D02*
X0116602Y0043366D01*
X0116602Y0043530D02*
X0119588Y0043530D01*
X0119588Y0043694D02*
X0116602Y0043694D01*
X0116602Y0043858D02*
X0119588Y0043858D01*
X0128602Y0043990D02*
X0128602Y0041398D01*
X0128602Y0043990D02*
X0131588Y0043990D01*
X0131588Y0041398D01*
X0128602Y0041398D01*
X0128602Y0041562D02*
X0131588Y0041562D01*
X0131588Y0041726D02*
X0128602Y0041726D01*
X0128602Y0041890D02*
X0131588Y0041890D01*
X0131588Y0042054D02*
X0128602Y0042054D01*
X0128602Y0042218D02*
X0131588Y0042218D01*
X0131588Y0042382D02*
X0128602Y0042382D01*
X0128602Y0042546D02*
X0131588Y0042546D01*
X0131588Y0042710D02*
X0128602Y0042710D01*
X0128602Y0042874D02*
X0131588Y0042874D01*
X0131588Y0043038D02*
X0128602Y0043038D01*
X0128602Y0043202D02*
X0131588Y0043202D01*
X0131588Y0043366D02*
X0128602Y0043366D01*
X0128602Y0043530D02*
X0131588Y0043530D01*
X0131588Y0043694D02*
X0128602Y0043694D01*
X0128602Y0043858D02*
X0131588Y0043858D01*
X0128602Y0037298D02*
X0128602Y0034706D01*
X0128602Y0037298D02*
X0131588Y0037298D01*
X0131588Y0034706D01*
X0128602Y0034706D01*
X0128602Y0034870D02*
X0131588Y0034870D01*
X0131588Y0035034D02*
X0128602Y0035034D01*
X0128602Y0035198D02*
X0131588Y0035198D01*
X0131588Y0035362D02*
X0128602Y0035362D01*
X0128602Y0035526D02*
X0131588Y0035526D01*
X0131588Y0035690D02*
X0128602Y0035690D01*
X0128602Y0035854D02*
X0131588Y0035854D01*
X0131588Y0036018D02*
X0128602Y0036018D01*
X0128602Y0036182D02*
X0131588Y0036182D01*
X0131588Y0036346D02*
X0128602Y0036346D01*
X0128602Y0036510D02*
X0131588Y0036510D01*
X0131588Y0036674D02*
X0128602Y0036674D01*
X0128602Y0036838D02*
X0131588Y0036838D01*
X0131588Y0037002D02*
X0128602Y0037002D01*
X0128602Y0037166D02*
X0131588Y0037166D01*
X0116602Y0037298D02*
X0116602Y0034706D01*
X0116602Y0037298D02*
X0119588Y0037298D01*
X0119588Y0034706D01*
X0116602Y0034706D01*
X0116602Y0034870D02*
X0119588Y0034870D01*
X0119588Y0035034D02*
X0116602Y0035034D01*
X0116602Y0035198D02*
X0119588Y0035198D01*
X0119588Y0035362D02*
X0116602Y0035362D01*
X0116602Y0035526D02*
X0119588Y0035526D01*
X0119588Y0035690D02*
X0116602Y0035690D01*
X0116602Y0035854D02*
X0119588Y0035854D01*
X0119588Y0036018D02*
X0116602Y0036018D01*
X0116602Y0036182D02*
X0119588Y0036182D01*
X0119588Y0036346D02*
X0116602Y0036346D01*
X0116602Y0036510D02*
X0119588Y0036510D01*
X0119588Y0036674D02*
X0116602Y0036674D01*
X0116602Y0036838D02*
X0119588Y0036838D01*
X0119588Y0037002D02*
X0116602Y0037002D01*
X0116602Y0037166D02*
X0119588Y0037166D01*
X0111102Y0029990D02*
X0111102Y0027398D01*
X0111102Y0029990D02*
X0114088Y0029990D01*
X0114088Y0027398D01*
X0111102Y0027398D01*
X0111102Y0027562D02*
X0114088Y0027562D01*
X0114088Y0027726D02*
X0111102Y0027726D01*
X0111102Y0027890D02*
X0114088Y0027890D01*
X0114088Y0028054D02*
X0111102Y0028054D01*
X0111102Y0028218D02*
X0114088Y0028218D01*
X0114088Y0028382D02*
X0111102Y0028382D01*
X0111102Y0028546D02*
X0114088Y0028546D01*
X0114088Y0028710D02*
X0111102Y0028710D01*
X0111102Y0028874D02*
X0114088Y0028874D01*
X0114088Y0029038D02*
X0111102Y0029038D01*
X0111102Y0029202D02*
X0114088Y0029202D01*
X0114088Y0029366D02*
X0111102Y0029366D01*
X0111102Y0029530D02*
X0114088Y0029530D01*
X0114088Y0029694D02*
X0111102Y0029694D01*
X0111102Y0029858D02*
X0114088Y0029858D01*
X0111102Y0023298D02*
X0111102Y0020706D01*
X0111102Y0023298D02*
X0114088Y0023298D01*
X0114088Y0020706D01*
X0111102Y0020706D01*
X0111102Y0020870D02*
X0114088Y0020870D01*
X0114088Y0021034D02*
X0111102Y0021034D01*
X0111102Y0021198D02*
X0114088Y0021198D01*
X0114088Y0021362D02*
X0111102Y0021362D01*
X0111102Y0021526D02*
X0114088Y0021526D01*
X0114088Y0021690D02*
X0111102Y0021690D01*
X0111102Y0021854D02*
X0114088Y0021854D01*
X0114088Y0022018D02*
X0111102Y0022018D01*
X0111102Y0022182D02*
X0114088Y0022182D01*
X0114088Y0022346D02*
X0111102Y0022346D01*
X0111102Y0022510D02*
X0114088Y0022510D01*
X0114088Y0022674D02*
X0111102Y0022674D01*
X0111102Y0022838D02*
X0114088Y0022838D01*
X0114088Y0023002D02*
X0111102Y0023002D01*
X0111102Y0023166D02*
X0114088Y0023166D01*
X0144453Y0032355D02*
X0147045Y0032355D01*
X0144453Y0032355D02*
X0144453Y0035341D01*
X0147045Y0035341D01*
X0147045Y0032355D01*
X0147045Y0032519D02*
X0144453Y0032519D01*
X0144453Y0032683D02*
X0147045Y0032683D01*
X0147045Y0032847D02*
X0144453Y0032847D01*
X0144453Y0033011D02*
X0147045Y0033011D01*
X0147045Y0033175D02*
X0144453Y0033175D01*
X0144453Y0033339D02*
X0147045Y0033339D01*
X0147045Y0033503D02*
X0144453Y0033503D01*
X0144453Y0033667D02*
X0147045Y0033667D01*
X0147045Y0033831D02*
X0144453Y0033831D01*
X0144453Y0033995D02*
X0147045Y0033995D01*
X0147045Y0034159D02*
X0144453Y0034159D01*
X0144453Y0034323D02*
X0147045Y0034323D01*
X0147045Y0034487D02*
X0144453Y0034487D01*
X0144453Y0034651D02*
X0147045Y0034651D01*
X0147045Y0034815D02*
X0144453Y0034815D01*
X0144453Y0034979D02*
X0147045Y0034979D01*
X0147045Y0035143D02*
X0144453Y0035143D01*
X0144453Y0035307D02*
X0147045Y0035307D01*
X0151146Y0032355D02*
X0153738Y0032355D01*
X0151146Y0032355D02*
X0151146Y0035341D01*
X0153738Y0035341D01*
X0153738Y0032355D01*
X0153738Y0032519D02*
X0151146Y0032519D01*
X0151146Y0032683D02*
X0153738Y0032683D01*
X0153738Y0032847D02*
X0151146Y0032847D01*
X0151146Y0033011D02*
X0153738Y0033011D01*
X0153738Y0033175D02*
X0151146Y0033175D01*
X0151146Y0033339D02*
X0153738Y0033339D01*
X0153738Y0033503D02*
X0151146Y0033503D01*
X0151146Y0033667D02*
X0153738Y0033667D01*
X0153738Y0033831D02*
X0151146Y0033831D01*
X0151146Y0033995D02*
X0153738Y0033995D01*
X0153738Y0034159D02*
X0151146Y0034159D01*
X0151146Y0034323D02*
X0153738Y0034323D01*
X0153738Y0034487D02*
X0151146Y0034487D01*
X0151146Y0034651D02*
X0153738Y0034651D01*
X0153738Y0034815D02*
X0151146Y0034815D01*
X0151146Y0034979D02*
X0153738Y0034979D01*
X0153738Y0035143D02*
X0151146Y0035143D01*
X0151146Y0035307D02*
X0153738Y0035307D01*
X0163088Y0034206D02*
X0163088Y0036798D01*
X0163088Y0034206D02*
X0160102Y0034206D01*
X0160102Y0036798D01*
X0163088Y0036798D01*
X0163088Y0034370D02*
X0160102Y0034370D01*
X0160102Y0034534D02*
X0163088Y0034534D01*
X0163088Y0034698D02*
X0160102Y0034698D01*
X0160102Y0034862D02*
X0163088Y0034862D01*
X0163088Y0035026D02*
X0160102Y0035026D01*
X0160102Y0035190D02*
X0163088Y0035190D01*
X0163088Y0035354D02*
X0160102Y0035354D01*
X0160102Y0035518D02*
X0163088Y0035518D01*
X0163088Y0035682D02*
X0160102Y0035682D01*
X0160102Y0035846D02*
X0163088Y0035846D01*
X0163088Y0036010D02*
X0160102Y0036010D01*
X0160102Y0036174D02*
X0163088Y0036174D01*
X0163088Y0036338D02*
X0160102Y0036338D01*
X0160102Y0036502D02*
X0163088Y0036502D01*
X0163088Y0036666D02*
X0160102Y0036666D01*
X0163088Y0040898D02*
X0163088Y0043490D01*
X0163088Y0040898D02*
X0160102Y0040898D01*
X0160102Y0043490D01*
X0163088Y0043490D01*
X0163088Y0041062D02*
X0160102Y0041062D01*
X0160102Y0041226D02*
X0163088Y0041226D01*
X0163088Y0041390D02*
X0160102Y0041390D01*
X0160102Y0041554D02*
X0163088Y0041554D01*
X0163088Y0041718D02*
X0160102Y0041718D01*
X0160102Y0041882D02*
X0163088Y0041882D01*
X0163088Y0042046D02*
X0160102Y0042046D01*
X0160102Y0042210D02*
X0163088Y0042210D01*
X0163088Y0042374D02*
X0160102Y0042374D01*
X0160102Y0042538D02*
X0163088Y0042538D01*
X0163088Y0042702D02*
X0160102Y0042702D01*
X0160102Y0042866D02*
X0163088Y0042866D01*
X0163088Y0043030D02*
X0160102Y0043030D01*
X0160102Y0043194D02*
X0163088Y0043194D01*
X0163088Y0043358D02*
X0160102Y0043358D01*
X0155738Y0040355D02*
X0153146Y0040355D01*
X0153146Y0043341D01*
X0155738Y0043341D01*
X0155738Y0040355D01*
X0155738Y0040519D02*
X0153146Y0040519D01*
X0153146Y0040683D02*
X0155738Y0040683D01*
X0155738Y0040847D02*
X0153146Y0040847D01*
X0153146Y0041011D02*
X0155738Y0041011D01*
X0155738Y0041175D02*
X0153146Y0041175D01*
X0153146Y0041339D02*
X0155738Y0041339D01*
X0155738Y0041503D02*
X0153146Y0041503D01*
X0153146Y0041667D02*
X0155738Y0041667D01*
X0155738Y0041831D02*
X0153146Y0041831D01*
X0153146Y0041995D02*
X0155738Y0041995D01*
X0155738Y0042159D02*
X0153146Y0042159D01*
X0153146Y0042323D02*
X0155738Y0042323D01*
X0155738Y0042487D02*
X0153146Y0042487D01*
X0153146Y0042651D02*
X0155738Y0042651D01*
X0155738Y0042815D02*
X0153146Y0042815D01*
X0153146Y0042979D02*
X0155738Y0042979D01*
X0155738Y0043143D02*
X0153146Y0043143D01*
X0153146Y0043307D02*
X0155738Y0043307D01*
X0149045Y0040355D02*
X0146453Y0040355D01*
X0146453Y0043341D01*
X0149045Y0043341D01*
X0149045Y0040355D01*
X0149045Y0040519D02*
X0146453Y0040519D01*
X0146453Y0040683D02*
X0149045Y0040683D01*
X0149045Y0040847D02*
X0146453Y0040847D01*
X0146453Y0041011D02*
X0149045Y0041011D01*
X0149045Y0041175D02*
X0146453Y0041175D01*
X0146453Y0041339D02*
X0149045Y0041339D01*
X0149045Y0041503D02*
X0146453Y0041503D01*
X0146453Y0041667D02*
X0149045Y0041667D01*
X0149045Y0041831D02*
X0146453Y0041831D01*
X0146453Y0041995D02*
X0149045Y0041995D01*
X0149045Y0042159D02*
X0146453Y0042159D01*
X0146453Y0042323D02*
X0149045Y0042323D01*
X0149045Y0042487D02*
X0146453Y0042487D01*
X0146453Y0042651D02*
X0149045Y0042651D01*
X0149045Y0042815D02*
X0146453Y0042815D01*
X0146453Y0042979D02*
X0149045Y0042979D01*
X0149045Y0043143D02*
X0146453Y0043143D01*
X0146453Y0043307D02*
X0149045Y0043307D01*
X0181891Y0022687D02*
X0181891Y0019701D01*
X0179299Y0019701D01*
X0179299Y0022687D01*
X0181891Y0022687D01*
X0181891Y0019865D02*
X0179299Y0019865D01*
X0179299Y0020029D02*
X0181891Y0020029D01*
X0181891Y0020193D02*
X0179299Y0020193D01*
X0179299Y0020357D02*
X0181891Y0020357D01*
X0181891Y0020521D02*
X0179299Y0020521D01*
X0179299Y0020685D02*
X0181891Y0020685D01*
X0181891Y0020849D02*
X0179299Y0020849D01*
X0179299Y0021013D02*
X0181891Y0021013D01*
X0181891Y0021177D02*
X0179299Y0021177D01*
X0179299Y0021341D02*
X0181891Y0021341D01*
X0181891Y0021505D02*
X0179299Y0021505D01*
X0179299Y0021669D02*
X0181891Y0021669D01*
X0181891Y0021833D02*
X0179299Y0021833D01*
X0179299Y0021997D02*
X0181891Y0021997D01*
X0181891Y0022161D02*
X0179299Y0022161D01*
X0179299Y0022325D02*
X0181891Y0022325D01*
X0181891Y0022489D02*
X0179299Y0022489D01*
X0179299Y0022653D02*
X0181891Y0022653D01*
X0181891Y0015995D02*
X0181891Y0013009D01*
X0179299Y0013009D01*
X0179299Y0015995D01*
X0181891Y0015995D01*
X0181891Y0013173D02*
X0179299Y0013173D01*
X0179299Y0013337D02*
X0181891Y0013337D01*
X0181891Y0013501D02*
X0179299Y0013501D01*
X0179299Y0013665D02*
X0181891Y0013665D01*
X0181891Y0013829D02*
X0179299Y0013829D01*
X0179299Y0013993D02*
X0181891Y0013993D01*
X0181891Y0014157D02*
X0179299Y0014157D01*
X0179299Y0014321D02*
X0181891Y0014321D01*
X0181891Y0014485D02*
X0179299Y0014485D01*
X0179299Y0014649D02*
X0181891Y0014649D01*
X0181891Y0014813D02*
X0179299Y0014813D01*
X0179299Y0014977D02*
X0181891Y0014977D01*
X0181891Y0015141D02*
X0179299Y0015141D01*
X0179299Y0015305D02*
X0181891Y0015305D01*
X0181891Y0015469D02*
X0179299Y0015469D01*
X0179299Y0015633D02*
X0181891Y0015633D01*
X0181891Y0015797D02*
X0179299Y0015797D01*
X0179299Y0015961D02*
X0181891Y0015961D01*
X0185953Y0015999D02*
X0188545Y0015999D01*
X0188545Y0013013D01*
X0185953Y0013013D01*
X0185953Y0015999D01*
X0185953Y0013177D02*
X0188545Y0013177D01*
X0188545Y0013341D02*
X0185953Y0013341D01*
X0185953Y0013505D02*
X0188545Y0013505D01*
X0188545Y0013669D02*
X0185953Y0013669D01*
X0185953Y0013833D02*
X0188545Y0013833D01*
X0188545Y0013997D02*
X0185953Y0013997D01*
X0185953Y0014161D02*
X0188545Y0014161D01*
X0188545Y0014325D02*
X0185953Y0014325D01*
X0185953Y0014489D02*
X0188545Y0014489D01*
X0188545Y0014653D02*
X0185953Y0014653D01*
X0185953Y0014817D02*
X0188545Y0014817D01*
X0188545Y0014981D02*
X0185953Y0014981D01*
X0185953Y0015145D02*
X0188545Y0015145D01*
X0188545Y0015309D02*
X0185953Y0015309D01*
X0185953Y0015473D02*
X0188545Y0015473D01*
X0188545Y0015637D02*
X0185953Y0015637D01*
X0185953Y0015801D02*
X0188545Y0015801D01*
X0188545Y0015965D02*
X0185953Y0015965D01*
X0192646Y0015999D02*
X0195238Y0015999D01*
X0195238Y0013013D01*
X0192646Y0013013D01*
X0192646Y0015999D01*
X0192646Y0013177D02*
X0195238Y0013177D01*
X0195238Y0013341D02*
X0192646Y0013341D01*
X0192646Y0013505D02*
X0195238Y0013505D01*
X0195238Y0013669D02*
X0192646Y0013669D01*
X0192646Y0013833D02*
X0195238Y0013833D01*
X0195238Y0013997D02*
X0192646Y0013997D01*
X0192646Y0014161D02*
X0195238Y0014161D01*
X0195238Y0014325D02*
X0192646Y0014325D01*
X0192646Y0014489D02*
X0195238Y0014489D01*
X0195238Y0014653D02*
X0192646Y0014653D01*
X0192646Y0014817D02*
X0195238Y0014817D01*
X0195238Y0014981D02*
X0192646Y0014981D01*
X0192646Y0015145D02*
X0195238Y0015145D01*
X0195238Y0015309D02*
X0192646Y0015309D01*
X0192646Y0015473D02*
X0195238Y0015473D01*
X0195238Y0015637D02*
X0192646Y0015637D01*
X0192646Y0015801D02*
X0195238Y0015801D01*
X0195238Y0015965D02*
X0192646Y0015965D01*
X0201891Y0015995D02*
X0201891Y0013009D01*
X0199299Y0013009D01*
X0199299Y0015995D01*
X0201891Y0015995D01*
X0201891Y0013173D02*
X0199299Y0013173D01*
X0199299Y0013337D02*
X0201891Y0013337D01*
X0201891Y0013501D02*
X0199299Y0013501D01*
X0199299Y0013665D02*
X0201891Y0013665D01*
X0201891Y0013829D02*
X0199299Y0013829D01*
X0199299Y0013993D02*
X0201891Y0013993D01*
X0201891Y0014157D02*
X0199299Y0014157D01*
X0199299Y0014321D02*
X0201891Y0014321D01*
X0201891Y0014485D02*
X0199299Y0014485D01*
X0199299Y0014649D02*
X0201891Y0014649D01*
X0201891Y0014813D02*
X0199299Y0014813D01*
X0199299Y0014977D02*
X0201891Y0014977D01*
X0201891Y0015141D02*
X0199299Y0015141D01*
X0199299Y0015305D02*
X0201891Y0015305D01*
X0201891Y0015469D02*
X0199299Y0015469D01*
X0199299Y0015633D02*
X0201891Y0015633D01*
X0201891Y0015797D02*
X0199299Y0015797D01*
X0199299Y0015961D02*
X0201891Y0015961D01*
X0201891Y0019701D02*
X0201891Y0022687D01*
X0201891Y0019701D02*
X0199299Y0019701D01*
X0199299Y0022687D01*
X0201891Y0022687D01*
X0201891Y0019865D02*
X0199299Y0019865D01*
X0199299Y0020029D02*
X0201891Y0020029D01*
X0201891Y0020193D02*
X0199299Y0020193D01*
X0199299Y0020357D02*
X0201891Y0020357D01*
X0201891Y0020521D02*
X0199299Y0020521D01*
X0199299Y0020685D02*
X0201891Y0020685D01*
X0201891Y0020849D02*
X0199299Y0020849D01*
X0199299Y0021013D02*
X0201891Y0021013D01*
X0201891Y0021177D02*
X0199299Y0021177D01*
X0199299Y0021341D02*
X0201891Y0021341D01*
X0201891Y0021505D02*
X0199299Y0021505D01*
X0199299Y0021669D02*
X0201891Y0021669D01*
X0201891Y0021833D02*
X0199299Y0021833D01*
X0199299Y0021997D02*
X0201891Y0021997D01*
X0201891Y0022161D02*
X0199299Y0022161D01*
X0199299Y0022325D02*
X0201891Y0022325D01*
X0201891Y0022489D02*
X0199299Y0022489D01*
X0199299Y0022653D02*
X0201891Y0022653D01*
X0205736Y0024683D02*
X0205736Y0027825D01*
X0210454Y0027825D01*
X0210454Y0024683D01*
X0205736Y0024683D01*
X0205736Y0024847D02*
X0210454Y0024847D01*
X0210454Y0025011D02*
X0205736Y0025011D01*
X0205736Y0025175D02*
X0210454Y0025175D01*
X0210454Y0025339D02*
X0205736Y0025339D01*
X0205736Y0025503D02*
X0210454Y0025503D01*
X0210454Y0025667D02*
X0205736Y0025667D01*
X0205736Y0025831D02*
X0210454Y0025831D01*
X0210454Y0025995D02*
X0205736Y0025995D01*
X0205736Y0026159D02*
X0210454Y0026159D01*
X0210454Y0026323D02*
X0205736Y0026323D01*
X0205736Y0026487D02*
X0210454Y0026487D01*
X0210454Y0026651D02*
X0205736Y0026651D01*
X0205736Y0026815D02*
X0210454Y0026815D01*
X0210454Y0026979D02*
X0205736Y0026979D01*
X0205736Y0027143D02*
X0210454Y0027143D01*
X0210454Y0027307D02*
X0205736Y0027307D01*
X0205736Y0027471D02*
X0210454Y0027471D01*
X0210454Y0027635D02*
X0205736Y0027635D01*
X0205736Y0027799D02*
X0210454Y0027799D01*
X0205736Y0016014D02*
X0205736Y0012872D01*
X0205736Y0016014D02*
X0210454Y0016014D01*
X0210454Y0012872D01*
X0205736Y0012872D01*
X0205736Y0013036D02*
X0210454Y0013036D01*
X0210454Y0013200D02*
X0205736Y0013200D01*
X0205736Y0013364D02*
X0210454Y0013364D01*
X0210454Y0013528D02*
X0205736Y0013528D01*
X0205736Y0013692D02*
X0210454Y0013692D01*
X0210454Y0013856D02*
X0205736Y0013856D01*
X0205736Y0014020D02*
X0210454Y0014020D01*
X0210454Y0014184D02*
X0205736Y0014184D01*
X0205736Y0014348D02*
X0210454Y0014348D01*
X0210454Y0014512D02*
X0205736Y0014512D01*
X0205736Y0014676D02*
X0210454Y0014676D01*
X0210454Y0014840D02*
X0205736Y0014840D01*
X0205736Y0015004D02*
X0210454Y0015004D01*
X0210454Y0015168D02*
X0205736Y0015168D01*
X0205736Y0015332D02*
X0210454Y0015332D01*
X0210454Y0015496D02*
X0205736Y0015496D01*
X0205736Y0015660D02*
X0210454Y0015660D01*
X0210454Y0015824D02*
X0205736Y0015824D01*
X0205736Y0015988D02*
X0210454Y0015988D01*
X0283391Y0050009D02*
X0283391Y0052995D01*
X0283391Y0050009D02*
X0280799Y0050009D01*
X0280799Y0052995D01*
X0283391Y0052995D01*
X0283391Y0050173D02*
X0280799Y0050173D01*
X0280799Y0050337D02*
X0283391Y0050337D01*
X0283391Y0050501D02*
X0280799Y0050501D01*
X0280799Y0050665D02*
X0283391Y0050665D01*
X0283391Y0050829D02*
X0280799Y0050829D01*
X0280799Y0050993D02*
X0283391Y0050993D01*
X0283391Y0051157D02*
X0280799Y0051157D01*
X0280799Y0051321D02*
X0283391Y0051321D01*
X0283391Y0051485D02*
X0280799Y0051485D01*
X0280799Y0051649D02*
X0283391Y0051649D01*
X0283391Y0051813D02*
X0280799Y0051813D01*
X0280799Y0051977D02*
X0283391Y0051977D01*
X0283391Y0052141D02*
X0280799Y0052141D01*
X0280799Y0052305D02*
X0283391Y0052305D01*
X0283391Y0052469D02*
X0280799Y0052469D01*
X0280799Y0052633D02*
X0283391Y0052633D01*
X0283391Y0052797D02*
X0280799Y0052797D01*
X0280799Y0052961D02*
X0283391Y0052961D01*
X0283391Y0056701D02*
X0283391Y0059687D01*
X0283391Y0056701D02*
X0280799Y0056701D01*
X0280799Y0059687D01*
X0283391Y0059687D01*
X0283391Y0056865D02*
X0280799Y0056865D01*
X0280799Y0057029D02*
X0283391Y0057029D01*
X0283391Y0057193D02*
X0280799Y0057193D01*
X0280799Y0057357D02*
X0283391Y0057357D01*
X0283391Y0057521D02*
X0280799Y0057521D01*
X0280799Y0057685D02*
X0283391Y0057685D01*
X0283391Y0057849D02*
X0280799Y0057849D01*
X0280799Y0058013D02*
X0283391Y0058013D01*
X0283391Y0058177D02*
X0280799Y0058177D01*
X0280799Y0058341D02*
X0283391Y0058341D01*
X0283391Y0058505D02*
X0280799Y0058505D01*
X0280799Y0058669D02*
X0283391Y0058669D01*
X0283391Y0058833D02*
X0280799Y0058833D01*
X0280799Y0058997D02*
X0283391Y0058997D01*
X0283391Y0059161D02*
X0280799Y0059161D01*
X0280799Y0059325D02*
X0283391Y0059325D01*
X0283391Y0059489D02*
X0280799Y0059489D01*
X0280799Y0059653D02*
X0283391Y0059653D01*
X0296756Y0052644D02*
X0299742Y0052644D01*
X0299742Y0050052D01*
X0296756Y0050052D01*
X0296756Y0052644D01*
X0296756Y0050216D02*
X0299742Y0050216D01*
X0299742Y0050380D02*
X0296756Y0050380D01*
X0296756Y0050544D02*
X0299742Y0050544D01*
X0299742Y0050708D02*
X0296756Y0050708D01*
X0296756Y0050872D02*
X0299742Y0050872D01*
X0299742Y0051036D02*
X0296756Y0051036D01*
X0296756Y0051200D02*
X0299742Y0051200D01*
X0299742Y0051364D02*
X0296756Y0051364D01*
X0296756Y0051528D02*
X0299742Y0051528D01*
X0299742Y0051692D02*
X0296756Y0051692D01*
X0296756Y0051856D02*
X0299742Y0051856D01*
X0299742Y0052020D02*
X0296756Y0052020D01*
X0296756Y0052184D02*
X0299742Y0052184D01*
X0299742Y0052348D02*
X0296756Y0052348D01*
X0296756Y0052512D02*
X0299742Y0052512D01*
X0303449Y0052644D02*
X0306435Y0052644D01*
X0306435Y0050052D01*
X0303449Y0050052D01*
X0303449Y0052644D01*
X0303449Y0050216D02*
X0306435Y0050216D01*
X0306435Y0050380D02*
X0303449Y0050380D01*
X0303449Y0050544D02*
X0306435Y0050544D01*
X0306435Y0050708D02*
X0303449Y0050708D01*
X0303449Y0050872D02*
X0306435Y0050872D01*
X0306435Y0051036D02*
X0303449Y0051036D01*
X0303449Y0051200D02*
X0306435Y0051200D01*
X0306435Y0051364D02*
X0303449Y0051364D01*
X0303449Y0051528D02*
X0306435Y0051528D01*
X0306435Y0051692D02*
X0303449Y0051692D01*
X0303449Y0051856D02*
X0306435Y0051856D01*
X0306435Y0052020D02*
X0303449Y0052020D01*
X0303449Y0052184D02*
X0306435Y0052184D01*
X0306435Y0052348D02*
X0303449Y0052348D01*
X0303449Y0052512D02*
X0306435Y0052512D01*
X0307953Y0060841D02*
X0310545Y0060841D01*
X0310545Y0057855D01*
X0307953Y0057855D01*
X0307953Y0060841D01*
X0307953Y0058019D02*
X0310545Y0058019D01*
X0310545Y0058183D02*
X0307953Y0058183D01*
X0307953Y0058347D02*
X0310545Y0058347D01*
X0310545Y0058511D02*
X0307953Y0058511D01*
X0307953Y0058675D02*
X0310545Y0058675D01*
X0310545Y0058839D02*
X0307953Y0058839D01*
X0307953Y0059003D02*
X0310545Y0059003D01*
X0310545Y0059167D02*
X0307953Y0059167D01*
X0307953Y0059331D02*
X0310545Y0059331D01*
X0310545Y0059495D02*
X0307953Y0059495D01*
X0307953Y0059659D02*
X0310545Y0059659D01*
X0310545Y0059823D02*
X0307953Y0059823D01*
X0307953Y0059987D02*
X0310545Y0059987D01*
X0310545Y0060151D02*
X0307953Y0060151D01*
X0307953Y0060315D02*
X0310545Y0060315D01*
X0310545Y0060479D02*
X0307953Y0060479D01*
X0307953Y0060643D02*
X0310545Y0060643D01*
X0310545Y0060807D02*
X0307953Y0060807D01*
X0314646Y0060841D02*
X0317238Y0060841D01*
X0317238Y0057855D01*
X0314646Y0057855D01*
X0314646Y0060841D01*
X0314646Y0058019D02*
X0317238Y0058019D01*
X0317238Y0058183D02*
X0314646Y0058183D01*
X0314646Y0058347D02*
X0317238Y0058347D01*
X0317238Y0058511D02*
X0314646Y0058511D01*
X0314646Y0058675D02*
X0317238Y0058675D01*
X0317238Y0058839D02*
X0314646Y0058839D01*
X0314646Y0059003D02*
X0317238Y0059003D01*
X0317238Y0059167D02*
X0314646Y0059167D01*
X0314646Y0059331D02*
X0317238Y0059331D01*
X0317238Y0059495D02*
X0314646Y0059495D01*
X0314646Y0059659D02*
X0317238Y0059659D01*
X0317238Y0059823D02*
X0314646Y0059823D01*
X0314646Y0059987D02*
X0317238Y0059987D01*
X0317238Y0060151D02*
X0314646Y0060151D01*
X0314646Y0060315D02*
X0317238Y0060315D01*
X0317238Y0060479D02*
X0314646Y0060479D01*
X0314646Y0060643D02*
X0317238Y0060643D01*
X0317238Y0060807D02*
X0314646Y0060807D01*
X0321299Y0059187D02*
X0321299Y0056201D01*
X0321299Y0059187D02*
X0323891Y0059187D01*
X0323891Y0056201D01*
X0321299Y0056201D01*
X0321299Y0056365D02*
X0323891Y0056365D01*
X0323891Y0056529D02*
X0321299Y0056529D01*
X0321299Y0056693D02*
X0323891Y0056693D01*
X0323891Y0056857D02*
X0321299Y0056857D01*
X0321299Y0057021D02*
X0323891Y0057021D01*
X0323891Y0057185D02*
X0321299Y0057185D01*
X0321299Y0057349D02*
X0323891Y0057349D01*
X0323891Y0057513D02*
X0321299Y0057513D01*
X0321299Y0057677D02*
X0323891Y0057677D01*
X0323891Y0057841D02*
X0321299Y0057841D01*
X0321299Y0058005D02*
X0323891Y0058005D01*
X0323891Y0058169D02*
X0321299Y0058169D01*
X0321299Y0058333D02*
X0323891Y0058333D01*
X0323891Y0058497D02*
X0321299Y0058497D01*
X0321299Y0058661D02*
X0323891Y0058661D01*
X0323891Y0058825D02*
X0321299Y0058825D01*
X0321299Y0058989D02*
X0323891Y0058989D01*
X0323891Y0059153D02*
X0321299Y0059153D01*
X0321299Y0052495D02*
X0321299Y0049509D01*
X0321299Y0052495D02*
X0323891Y0052495D01*
X0323891Y0049509D01*
X0321299Y0049509D01*
X0321299Y0049673D02*
X0323891Y0049673D01*
X0323891Y0049837D02*
X0321299Y0049837D01*
X0321299Y0050001D02*
X0323891Y0050001D01*
X0323891Y0050165D02*
X0321299Y0050165D01*
X0321299Y0050329D02*
X0323891Y0050329D01*
X0323891Y0050493D02*
X0321299Y0050493D01*
X0321299Y0050657D02*
X0323891Y0050657D01*
X0323891Y0050821D02*
X0321299Y0050821D01*
X0321299Y0050985D02*
X0323891Y0050985D01*
X0323891Y0051149D02*
X0321299Y0051149D01*
X0321299Y0051313D02*
X0323891Y0051313D01*
X0323891Y0051477D02*
X0321299Y0051477D01*
X0321299Y0051641D02*
X0323891Y0051641D01*
X0323891Y0051805D02*
X0321299Y0051805D01*
X0321299Y0051969D02*
X0323891Y0051969D01*
X0323891Y0052133D02*
X0321299Y0052133D01*
X0321299Y0052297D02*
X0323891Y0052297D01*
X0323891Y0052461D02*
X0321299Y0052461D01*
X0320299Y0073509D02*
X0320299Y0076495D01*
X0322891Y0076495D01*
X0322891Y0073509D01*
X0320299Y0073509D01*
X0320299Y0073673D02*
X0322891Y0073673D01*
X0322891Y0073837D02*
X0320299Y0073837D01*
X0320299Y0074001D02*
X0322891Y0074001D01*
X0322891Y0074165D02*
X0320299Y0074165D01*
X0320299Y0074329D02*
X0322891Y0074329D01*
X0322891Y0074493D02*
X0320299Y0074493D01*
X0320299Y0074657D02*
X0322891Y0074657D01*
X0322891Y0074821D02*
X0320299Y0074821D01*
X0320299Y0074985D02*
X0322891Y0074985D01*
X0322891Y0075149D02*
X0320299Y0075149D01*
X0320299Y0075313D02*
X0322891Y0075313D01*
X0322891Y0075477D02*
X0320299Y0075477D01*
X0320299Y0075641D02*
X0322891Y0075641D01*
X0322891Y0075805D02*
X0320299Y0075805D01*
X0320299Y0075969D02*
X0322891Y0075969D01*
X0322891Y0076133D02*
X0320299Y0076133D01*
X0320299Y0076297D02*
X0322891Y0076297D01*
X0322891Y0076461D02*
X0320299Y0076461D01*
X0320299Y0080201D02*
X0320299Y0083187D01*
X0322891Y0083187D01*
X0322891Y0080201D01*
X0320299Y0080201D01*
X0320299Y0080365D02*
X0322891Y0080365D01*
X0322891Y0080529D02*
X0320299Y0080529D01*
X0320299Y0080693D02*
X0322891Y0080693D01*
X0322891Y0080857D02*
X0320299Y0080857D01*
X0320299Y0081021D02*
X0322891Y0081021D01*
X0322891Y0081185D02*
X0320299Y0081185D01*
X0320299Y0081349D02*
X0322891Y0081349D01*
X0322891Y0081513D02*
X0320299Y0081513D01*
X0320299Y0081677D02*
X0322891Y0081677D01*
X0322891Y0081841D02*
X0320299Y0081841D01*
X0320299Y0082005D02*
X0322891Y0082005D01*
X0322891Y0082169D02*
X0320299Y0082169D01*
X0320299Y0082333D02*
X0322891Y0082333D01*
X0322891Y0082497D02*
X0320299Y0082497D01*
X0320299Y0082661D02*
X0322891Y0082661D01*
X0322891Y0082825D02*
X0320299Y0082825D01*
X0320299Y0082989D02*
X0322891Y0082989D01*
X0322891Y0083153D02*
X0320299Y0083153D01*
X0319742Y0090644D02*
X0316756Y0090644D01*
X0319742Y0090644D02*
X0319742Y0088052D01*
X0316756Y0088052D01*
X0316756Y0090644D01*
X0316756Y0088216D02*
X0319742Y0088216D01*
X0319742Y0088380D02*
X0316756Y0088380D01*
X0316756Y0088544D02*
X0319742Y0088544D01*
X0319742Y0088708D02*
X0316756Y0088708D01*
X0316756Y0088872D02*
X0319742Y0088872D01*
X0319742Y0089036D02*
X0316756Y0089036D01*
X0316756Y0089200D02*
X0319742Y0089200D01*
X0319742Y0089364D02*
X0316756Y0089364D01*
X0316756Y0089528D02*
X0319742Y0089528D01*
X0319742Y0089692D02*
X0316756Y0089692D01*
X0316756Y0089856D02*
X0319742Y0089856D01*
X0319742Y0090020D02*
X0316756Y0090020D01*
X0316756Y0090184D02*
X0319742Y0090184D01*
X0319742Y0090348D02*
X0316756Y0090348D01*
X0316756Y0090512D02*
X0319742Y0090512D01*
X0323449Y0090644D02*
X0326435Y0090644D01*
X0326435Y0088052D01*
X0323449Y0088052D01*
X0323449Y0090644D01*
X0323449Y0088216D02*
X0326435Y0088216D01*
X0326435Y0088380D02*
X0323449Y0088380D01*
X0323449Y0088544D02*
X0326435Y0088544D01*
X0326435Y0088708D02*
X0323449Y0088708D01*
X0323449Y0088872D02*
X0326435Y0088872D01*
X0326435Y0089036D02*
X0323449Y0089036D01*
X0323449Y0089200D02*
X0326435Y0089200D01*
X0326435Y0089364D02*
X0323449Y0089364D01*
X0323449Y0089528D02*
X0326435Y0089528D01*
X0326435Y0089692D02*
X0323449Y0089692D01*
X0323449Y0089856D02*
X0326435Y0089856D01*
X0326435Y0090020D02*
X0323449Y0090020D01*
X0323449Y0090184D02*
X0326435Y0090184D01*
X0326435Y0090348D02*
X0323449Y0090348D01*
X0323449Y0090512D02*
X0326435Y0090512D01*
X0312435Y0090644D02*
X0309449Y0090644D01*
X0312435Y0090644D02*
X0312435Y0088052D01*
X0309449Y0088052D01*
X0309449Y0090644D01*
X0309449Y0088216D02*
X0312435Y0088216D01*
X0312435Y0088380D02*
X0309449Y0088380D01*
X0309449Y0088544D02*
X0312435Y0088544D01*
X0312435Y0088708D02*
X0309449Y0088708D01*
X0309449Y0088872D02*
X0312435Y0088872D01*
X0312435Y0089036D02*
X0309449Y0089036D01*
X0309449Y0089200D02*
X0312435Y0089200D01*
X0312435Y0089364D02*
X0309449Y0089364D01*
X0309449Y0089528D02*
X0312435Y0089528D01*
X0312435Y0089692D02*
X0309449Y0089692D01*
X0309449Y0089856D02*
X0312435Y0089856D01*
X0312435Y0090020D02*
X0309449Y0090020D01*
X0309449Y0090184D02*
X0312435Y0090184D01*
X0312435Y0090348D02*
X0309449Y0090348D01*
X0309449Y0090512D02*
X0312435Y0090512D01*
X0305742Y0090644D02*
X0302756Y0090644D01*
X0305742Y0090644D02*
X0305742Y0088052D01*
X0302756Y0088052D01*
X0302756Y0090644D01*
X0302756Y0088216D02*
X0305742Y0088216D01*
X0305742Y0088380D02*
X0302756Y0088380D01*
X0302756Y0088544D02*
X0305742Y0088544D01*
X0305742Y0088708D02*
X0302756Y0088708D01*
X0302756Y0088872D02*
X0305742Y0088872D01*
X0305742Y0089036D02*
X0302756Y0089036D01*
X0302756Y0089200D02*
X0305742Y0089200D01*
X0305742Y0089364D02*
X0302756Y0089364D01*
X0302756Y0089528D02*
X0305742Y0089528D01*
X0305742Y0089692D02*
X0302756Y0089692D01*
X0302756Y0089856D02*
X0305742Y0089856D01*
X0305742Y0090020D02*
X0302756Y0090020D01*
X0302756Y0090184D02*
X0305742Y0090184D01*
X0305742Y0090348D02*
X0302756Y0090348D01*
X0302756Y0090512D02*
X0305742Y0090512D01*
X0296435Y0088052D02*
X0293449Y0088052D01*
X0293449Y0090644D01*
X0296435Y0090644D01*
X0296435Y0088052D01*
X0296435Y0088216D02*
X0293449Y0088216D01*
X0293449Y0088380D02*
X0296435Y0088380D01*
X0296435Y0088544D02*
X0293449Y0088544D01*
X0293449Y0088708D02*
X0296435Y0088708D01*
X0296435Y0088872D02*
X0293449Y0088872D01*
X0293449Y0089036D02*
X0296435Y0089036D01*
X0296435Y0089200D02*
X0293449Y0089200D01*
X0293449Y0089364D02*
X0296435Y0089364D01*
X0296435Y0089528D02*
X0293449Y0089528D01*
X0293449Y0089692D02*
X0296435Y0089692D01*
X0296435Y0089856D02*
X0293449Y0089856D01*
X0293449Y0090020D02*
X0296435Y0090020D01*
X0296435Y0090184D02*
X0293449Y0090184D01*
X0293449Y0090348D02*
X0296435Y0090348D01*
X0296435Y0090512D02*
X0293449Y0090512D01*
X0289742Y0088052D02*
X0286756Y0088052D01*
X0286756Y0090644D01*
X0289742Y0090644D01*
X0289742Y0088052D01*
X0289742Y0088216D02*
X0286756Y0088216D01*
X0286756Y0088380D02*
X0289742Y0088380D01*
X0289742Y0088544D02*
X0286756Y0088544D01*
X0286756Y0088708D02*
X0289742Y0088708D01*
X0289742Y0088872D02*
X0286756Y0088872D01*
X0286756Y0089036D02*
X0289742Y0089036D01*
X0289742Y0089200D02*
X0286756Y0089200D01*
X0286756Y0089364D02*
X0289742Y0089364D01*
X0289742Y0089528D02*
X0286756Y0089528D01*
X0286756Y0089692D02*
X0289742Y0089692D01*
X0289742Y0089856D02*
X0286756Y0089856D01*
X0286756Y0090020D02*
X0289742Y0090020D01*
X0289742Y0090184D02*
X0286756Y0090184D01*
X0286756Y0090348D02*
X0289742Y0090348D01*
X0289742Y0090512D02*
X0286756Y0090512D01*
X0286953Y0079855D02*
X0289545Y0079855D01*
X0286953Y0079855D02*
X0286953Y0082841D01*
X0289545Y0082841D01*
X0289545Y0079855D01*
X0289545Y0080019D02*
X0286953Y0080019D01*
X0286953Y0080183D02*
X0289545Y0080183D01*
X0289545Y0080347D02*
X0286953Y0080347D01*
X0286953Y0080511D02*
X0289545Y0080511D01*
X0289545Y0080675D02*
X0286953Y0080675D01*
X0286953Y0080839D02*
X0289545Y0080839D01*
X0289545Y0081003D02*
X0286953Y0081003D01*
X0286953Y0081167D02*
X0289545Y0081167D01*
X0289545Y0081331D02*
X0286953Y0081331D01*
X0286953Y0081495D02*
X0289545Y0081495D01*
X0289545Y0081659D02*
X0286953Y0081659D01*
X0286953Y0081823D02*
X0289545Y0081823D01*
X0289545Y0081987D02*
X0286953Y0081987D01*
X0286953Y0082151D02*
X0289545Y0082151D01*
X0289545Y0082315D02*
X0286953Y0082315D01*
X0286953Y0082479D02*
X0289545Y0082479D01*
X0289545Y0082643D02*
X0286953Y0082643D01*
X0286953Y0082807D02*
X0289545Y0082807D01*
X0293646Y0079855D02*
X0296238Y0079855D01*
X0293646Y0079855D02*
X0293646Y0082841D01*
X0296238Y0082841D01*
X0296238Y0079855D01*
X0296238Y0080019D02*
X0293646Y0080019D01*
X0293646Y0080183D02*
X0296238Y0080183D01*
X0296238Y0080347D02*
X0293646Y0080347D01*
X0293646Y0080511D02*
X0296238Y0080511D01*
X0296238Y0080675D02*
X0293646Y0080675D01*
X0293646Y0080839D02*
X0296238Y0080839D01*
X0296238Y0081003D02*
X0293646Y0081003D01*
X0293646Y0081167D02*
X0296238Y0081167D01*
X0296238Y0081331D02*
X0293646Y0081331D01*
X0293646Y0081495D02*
X0296238Y0081495D01*
X0296238Y0081659D02*
X0293646Y0081659D01*
X0293646Y0081823D02*
X0296238Y0081823D01*
X0296238Y0081987D02*
X0293646Y0081987D01*
X0293646Y0082151D02*
X0296238Y0082151D01*
X0296238Y0082315D02*
X0293646Y0082315D01*
X0293646Y0082479D02*
X0296238Y0082479D01*
X0296238Y0082643D02*
X0293646Y0082643D01*
X0293646Y0082807D02*
X0296238Y0082807D01*
X0278799Y0083187D02*
X0278799Y0080201D01*
X0278799Y0083187D02*
X0281391Y0083187D01*
X0281391Y0080201D01*
X0278799Y0080201D01*
X0278799Y0080365D02*
X0281391Y0080365D01*
X0281391Y0080529D02*
X0278799Y0080529D01*
X0278799Y0080693D02*
X0281391Y0080693D01*
X0281391Y0080857D02*
X0278799Y0080857D01*
X0278799Y0081021D02*
X0281391Y0081021D01*
X0281391Y0081185D02*
X0278799Y0081185D01*
X0278799Y0081349D02*
X0281391Y0081349D01*
X0281391Y0081513D02*
X0278799Y0081513D01*
X0278799Y0081677D02*
X0281391Y0081677D01*
X0281391Y0081841D02*
X0278799Y0081841D01*
X0278799Y0082005D02*
X0281391Y0082005D01*
X0281391Y0082169D02*
X0278799Y0082169D01*
X0278799Y0082333D02*
X0281391Y0082333D01*
X0281391Y0082497D02*
X0278799Y0082497D01*
X0278799Y0082661D02*
X0281391Y0082661D01*
X0281391Y0082825D02*
X0278799Y0082825D01*
X0278799Y0082989D02*
X0281391Y0082989D01*
X0281391Y0083153D02*
X0278799Y0083153D01*
X0278799Y0076495D02*
X0278799Y0073509D01*
X0278799Y0076495D02*
X0281391Y0076495D01*
X0281391Y0073509D01*
X0278799Y0073509D01*
X0278799Y0073673D02*
X0281391Y0073673D01*
X0281391Y0073837D02*
X0278799Y0073837D01*
X0278799Y0074001D02*
X0281391Y0074001D01*
X0281391Y0074165D02*
X0278799Y0074165D01*
X0278799Y0074329D02*
X0281391Y0074329D01*
X0281391Y0074493D02*
X0278799Y0074493D01*
X0278799Y0074657D02*
X0281391Y0074657D01*
X0281391Y0074821D02*
X0278799Y0074821D01*
X0278799Y0074985D02*
X0281391Y0074985D01*
X0281391Y0075149D02*
X0278799Y0075149D01*
X0278799Y0075313D02*
X0281391Y0075313D01*
X0281391Y0075477D02*
X0278799Y0075477D01*
X0278799Y0075641D02*
X0281391Y0075641D01*
X0281391Y0075805D02*
X0278799Y0075805D01*
X0278799Y0075969D02*
X0281391Y0075969D01*
X0281391Y0076133D02*
X0278799Y0076133D01*
X0278799Y0076297D02*
X0281391Y0076297D01*
X0281391Y0076461D02*
X0278799Y0076461D01*
X0264088Y0099706D02*
X0264088Y0102298D01*
X0264088Y0099706D02*
X0261102Y0099706D01*
X0261102Y0102298D01*
X0264088Y0102298D01*
X0264088Y0099870D02*
X0261102Y0099870D01*
X0261102Y0100034D02*
X0264088Y0100034D01*
X0264088Y0100198D02*
X0261102Y0100198D01*
X0261102Y0100362D02*
X0264088Y0100362D01*
X0264088Y0100526D02*
X0261102Y0100526D01*
X0261102Y0100690D02*
X0264088Y0100690D01*
X0264088Y0100854D02*
X0261102Y0100854D01*
X0261102Y0101018D02*
X0264088Y0101018D01*
X0264088Y0101182D02*
X0261102Y0101182D01*
X0261102Y0101346D02*
X0264088Y0101346D01*
X0264088Y0101510D02*
X0261102Y0101510D01*
X0261102Y0101674D02*
X0264088Y0101674D01*
X0264088Y0101838D02*
X0261102Y0101838D01*
X0261102Y0102002D02*
X0264088Y0102002D01*
X0264088Y0102166D02*
X0261102Y0102166D01*
X0264088Y0106398D02*
X0264088Y0108990D01*
X0264088Y0106398D02*
X0261102Y0106398D01*
X0261102Y0108990D01*
X0264088Y0108990D01*
X0264088Y0106562D02*
X0261102Y0106562D01*
X0261102Y0106726D02*
X0264088Y0106726D01*
X0264088Y0106890D02*
X0261102Y0106890D01*
X0261102Y0107054D02*
X0264088Y0107054D01*
X0264088Y0107218D02*
X0261102Y0107218D01*
X0261102Y0107382D02*
X0264088Y0107382D01*
X0264088Y0107546D02*
X0261102Y0107546D01*
X0261102Y0107710D02*
X0264088Y0107710D01*
X0264088Y0107874D02*
X0261102Y0107874D01*
X0261102Y0108038D02*
X0264088Y0108038D01*
X0264088Y0108202D02*
X0261102Y0108202D01*
X0261102Y0108366D02*
X0264088Y0108366D01*
X0264088Y0108530D02*
X0261102Y0108530D01*
X0261102Y0108694D02*
X0264088Y0108694D01*
X0264088Y0108858D02*
X0261102Y0108858D01*
X0270102Y0114706D02*
X0270102Y0117298D01*
X0273088Y0117298D01*
X0273088Y0114706D01*
X0270102Y0114706D01*
X0270102Y0114870D02*
X0273088Y0114870D01*
X0273088Y0115034D02*
X0270102Y0115034D01*
X0270102Y0115198D02*
X0273088Y0115198D01*
X0273088Y0115362D02*
X0270102Y0115362D01*
X0270102Y0115526D02*
X0273088Y0115526D01*
X0273088Y0115690D02*
X0270102Y0115690D01*
X0270102Y0115854D02*
X0273088Y0115854D01*
X0273088Y0116018D02*
X0270102Y0116018D01*
X0270102Y0116182D02*
X0273088Y0116182D01*
X0273088Y0116346D02*
X0270102Y0116346D01*
X0270102Y0116510D02*
X0273088Y0116510D01*
X0273088Y0116674D02*
X0270102Y0116674D01*
X0270102Y0116838D02*
X0273088Y0116838D01*
X0273088Y0117002D02*
X0270102Y0117002D01*
X0270102Y0117166D02*
X0273088Y0117166D01*
X0281102Y0117298D02*
X0281102Y0114706D01*
X0281102Y0117298D02*
X0284088Y0117298D01*
X0284088Y0114706D01*
X0281102Y0114706D01*
X0281102Y0114870D02*
X0284088Y0114870D01*
X0284088Y0115034D02*
X0281102Y0115034D01*
X0281102Y0115198D02*
X0284088Y0115198D01*
X0284088Y0115362D02*
X0281102Y0115362D01*
X0281102Y0115526D02*
X0284088Y0115526D01*
X0284088Y0115690D02*
X0281102Y0115690D01*
X0281102Y0115854D02*
X0284088Y0115854D01*
X0284088Y0116018D02*
X0281102Y0116018D01*
X0281102Y0116182D02*
X0284088Y0116182D01*
X0284088Y0116346D02*
X0281102Y0116346D01*
X0281102Y0116510D02*
X0284088Y0116510D01*
X0284088Y0116674D02*
X0281102Y0116674D01*
X0281102Y0116838D02*
X0284088Y0116838D01*
X0284088Y0117002D02*
X0281102Y0117002D01*
X0281102Y0117166D02*
X0284088Y0117166D01*
X0288299Y0116995D02*
X0288299Y0114009D01*
X0288299Y0116995D02*
X0290891Y0116995D01*
X0290891Y0114009D01*
X0288299Y0114009D01*
X0288299Y0114173D02*
X0290891Y0114173D01*
X0290891Y0114337D02*
X0288299Y0114337D01*
X0288299Y0114501D02*
X0290891Y0114501D01*
X0290891Y0114665D02*
X0288299Y0114665D01*
X0288299Y0114829D02*
X0290891Y0114829D01*
X0290891Y0114993D02*
X0288299Y0114993D01*
X0288299Y0115157D02*
X0290891Y0115157D01*
X0290891Y0115321D02*
X0288299Y0115321D01*
X0288299Y0115485D02*
X0290891Y0115485D01*
X0290891Y0115649D02*
X0288299Y0115649D01*
X0288299Y0115813D02*
X0290891Y0115813D01*
X0290891Y0115977D02*
X0288299Y0115977D01*
X0288299Y0116141D02*
X0290891Y0116141D01*
X0290891Y0116305D02*
X0288299Y0116305D01*
X0288299Y0116469D02*
X0290891Y0116469D01*
X0290891Y0116633D02*
X0288299Y0116633D01*
X0288299Y0116797D02*
X0290891Y0116797D01*
X0290891Y0116961D02*
X0288299Y0116961D01*
X0288299Y0120701D02*
X0288299Y0123687D01*
X0290891Y0123687D01*
X0290891Y0120701D01*
X0288299Y0120701D01*
X0288299Y0120865D02*
X0290891Y0120865D01*
X0290891Y0121029D02*
X0288299Y0121029D01*
X0288299Y0121193D02*
X0290891Y0121193D01*
X0290891Y0121357D02*
X0288299Y0121357D01*
X0288299Y0121521D02*
X0290891Y0121521D01*
X0290891Y0121685D02*
X0288299Y0121685D01*
X0288299Y0121849D02*
X0290891Y0121849D01*
X0290891Y0122013D02*
X0288299Y0122013D01*
X0288299Y0122177D02*
X0290891Y0122177D01*
X0290891Y0122341D02*
X0288299Y0122341D01*
X0288299Y0122505D02*
X0290891Y0122505D01*
X0290891Y0122669D02*
X0288299Y0122669D01*
X0288299Y0122833D02*
X0290891Y0122833D01*
X0290891Y0122997D02*
X0288299Y0122997D01*
X0288299Y0123161D02*
X0290891Y0123161D01*
X0290891Y0123325D02*
X0288299Y0123325D01*
X0288299Y0123489D02*
X0290891Y0123489D01*
X0290891Y0123653D02*
X0288299Y0123653D01*
X0281102Y0123990D02*
X0281102Y0121398D01*
X0281102Y0123990D02*
X0284088Y0123990D01*
X0284088Y0121398D01*
X0281102Y0121398D01*
X0281102Y0121562D02*
X0284088Y0121562D01*
X0284088Y0121726D02*
X0281102Y0121726D01*
X0281102Y0121890D02*
X0284088Y0121890D01*
X0284088Y0122054D02*
X0281102Y0122054D01*
X0281102Y0122218D02*
X0284088Y0122218D01*
X0284088Y0122382D02*
X0281102Y0122382D01*
X0281102Y0122546D02*
X0284088Y0122546D01*
X0284088Y0122710D02*
X0281102Y0122710D01*
X0281102Y0122874D02*
X0284088Y0122874D01*
X0284088Y0123038D02*
X0281102Y0123038D01*
X0281102Y0123202D02*
X0284088Y0123202D01*
X0284088Y0123366D02*
X0281102Y0123366D01*
X0281102Y0123530D02*
X0284088Y0123530D01*
X0284088Y0123694D02*
X0281102Y0123694D01*
X0281102Y0123858D02*
X0284088Y0123858D01*
X0282953Y0127855D02*
X0285545Y0127855D01*
X0282953Y0127855D02*
X0282953Y0130841D01*
X0285545Y0130841D01*
X0285545Y0127855D01*
X0285545Y0128019D02*
X0282953Y0128019D01*
X0282953Y0128183D02*
X0285545Y0128183D01*
X0285545Y0128347D02*
X0282953Y0128347D01*
X0282953Y0128511D02*
X0285545Y0128511D01*
X0285545Y0128675D02*
X0282953Y0128675D01*
X0282953Y0128839D02*
X0285545Y0128839D01*
X0285545Y0129003D02*
X0282953Y0129003D01*
X0282953Y0129167D02*
X0285545Y0129167D01*
X0285545Y0129331D02*
X0282953Y0129331D01*
X0282953Y0129495D02*
X0285545Y0129495D01*
X0285545Y0129659D02*
X0282953Y0129659D01*
X0282953Y0129823D02*
X0285545Y0129823D01*
X0285545Y0129987D02*
X0282953Y0129987D01*
X0282953Y0130151D02*
X0285545Y0130151D01*
X0285545Y0130315D02*
X0282953Y0130315D01*
X0282953Y0130479D02*
X0285545Y0130479D01*
X0285545Y0130643D02*
X0282953Y0130643D01*
X0282953Y0130807D02*
X0285545Y0130807D01*
X0289646Y0127855D02*
X0292238Y0127855D01*
X0289646Y0127855D02*
X0289646Y0130841D01*
X0292238Y0130841D01*
X0292238Y0127855D01*
X0292238Y0128019D02*
X0289646Y0128019D01*
X0289646Y0128183D02*
X0292238Y0128183D01*
X0292238Y0128347D02*
X0289646Y0128347D01*
X0289646Y0128511D02*
X0292238Y0128511D01*
X0292238Y0128675D02*
X0289646Y0128675D01*
X0289646Y0128839D02*
X0292238Y0128839D01*
X0292238Y0129003D02*
X0289646Y0129003D01*
X0289646Y0129167D02*
X0292238Y0129167D01*
X0292238Y0129331D02*
X0289646Y0129331D01*
X0289646Y0129495D02*
X0292238Y0129495D01*
X0292238Y0129659D02*
X0289646Y0129659D01*
X0289646Y0129823D02*
X0292238Y0129823D01*
X0292238Y0129987D02*
X0289646Y0129987D01*
X0289646Y0130151D02*
X0292238Y0130151D01*
X0292238Y0130315D02*
X0289646Y0130315D01*
X0289646Y0130479D02*
X0292238Y0130479D01*
X0292238Y0130643D02*
X0289646Y0130643D01*
X0289646Y0130807D02*
X0292238Y0130807D01*
X0298891Y0124187D02*
X0298891Y0121201D01*
X0296299Y0121201D01*
X0296299Y0124187D01*
X0298891Y0124187D01*
X0298891Y0121365D02*
X0296299Y0121365D01*
X0296299Y0121529D02*
X0298891Y0121529D01*
X0298891Y0121693D02*
X0296299Y0121693D01*
X0296299Y0121857D02*
X0298891Y0121857D01*
X0298891Y0122021D02*
X0296299Y0122021D01*
X0296299Y0122185D02*
X0298891Y0122185D01*
X0298891Y0122349D02*
X0296299Y0122349D01*
X0296299Y0122513D02*
X0298891Y0122513D01*
X0298891Y0122677D02*
X0296299Y0122677D01*
X0296299Y0122841D02*
X0298891Y0122841D01*
X0298891Y0123005D02*
X0296299Y0123005D01*
X0296299Y0123169D02*
X0298891Y0123169D01*
X0298891Y0123333D02*
X0296299Y0123333D01*
X0296299Y0123497D02*
X0298891Y0123497D01*
X0298891Y0123661D02*
X0296299Y0123661D01*
X0296299Y0123825D02*
X0298891Y0123825D01*
X0298891Y0123989D02*
X0296299Y0123989D01*
X0296299Y0124153D02*
X0298891Y0124153D01*
X0298891Y0117495D02*
X0298891Y0114509D01*
X0296299Y0114509D01*
X0296299Y0117495D01*
X0298891Y0117495D01*
X0298891Y0114673D02*
X0296299Y0114673D01*
X0296299Y0114837D02*
X0298891Y0114837D01*
X0298891Y0115001D02*
X0296299Y0115001D01*
X0296299Y0115165D02*
X0298891Y0115165D01*
X0298891Y0115329D02*
X0296299Y0115329D01*
X0296299Y0115493D02*
X0298891Y0115493D01*
X0298891Y0115657D02*
X0296299Y0115657D01*
X0296299Y0115821D02*
X0298891Y0115821D01*
X0298891Y0115985D02*
X0296299Y0115985D01*
X0296299Y0116149D02*
X0298891Y0116149D01*
X0298891Y0116313D02*
X0296299Y0116313D01*
X0296299Y0116477D02*
X0298891Y0116477D01*
X0298891Y0116641D02*
X0296299Y0116641D01*
X0296299Y0116805D02*
X0298891Y0116805D01*
X0298891Y0116969D02*
X0296299Y0116969D01*
X0296299Y0117133D02*
X0298891Y0117133D01*
X0298891Y0117297D02*
X0296299Y0117297D01*
X0296299Y0117461D02*
X0298891Y0117461D01*
X0307953Y0107855D02*
X0310545Y0107855D01*
X0307953Y0107855D02*
X0307953Y0110841D01*
X0310545Y0110841D01*
X0310545Y0107855D01*
X0310545Y0108019D02*
X0307953Y0108019D01*
X0307953Y0108183D02*
X0310545Y0108183D01*
X0310545Y0108347D02*
X0307953Y0108347D01*
X0307953Y0108511D02*
X0310545Y0108511D01*
X0310545Y0108675D02*
X0307953Y0108675D01*
X0307953Y0108839D02*
X0310545Y0108839D01*
X0310545Y0109003D02*
X0307953Y0109003D01*
X0307953Y0109167D02*
X0310545Y0109167D01*
X0310545Y0109331D02*
X0307953Y0109331D01*
X0307953Y0109495D02*
X0310545Y0109495D01*
X0310545Y0109659D02*
X0307953Y0109659D01*
X0307953Y0109823D02*
X0310545Y0109823D01*
X0310545Y0109987D02*
X0307953Y0109987D01*
X0307953Y0110151D02*
X0310545Y0110151D01*
X0310545Y0110315D02*
X0307953Y0110315D01*
X0307953Y0110479D02*
X0310545Y0110479D01*
X0310545Y0110643D02*
X0307953Y0110643D01*
X0307953Y0110807D02*
X0310545Y0110807D01*
X0314646Y0107855D02*
X0317238Y0107855D01*
X0314646Y0107855D02*
X0314646Y0110841D01*
X0317238Y0110841D01*
X0317238Y0107855D01*
X0317238Y0108019D02*
X0314646Y0108019D01*
X0314646Y0108183D02*
X0317238Y0108183D01*
X0317238Y0108347D02*
X0314646Y0108347D01*
X0314646Y0108511D02*
X0317238Y0108511D01*
X0317238Y0108675D02*
X0314646Y0108675D01*
X0314646Y0108839D02*
X0317238Y0108839D01*
X0317238Y0109003D02*
X0314646Y0109003D01*
X0314646Y0109167D02*
X0317238Y0109167D01*
X0317238Y0109331D02*
X0314646Y0109331D01*
X0314646Y0109495D02*
X0317238Y0109495D01*
X0317238Y0109659D02*
X0314646Y0109659D01*
X0314646Y0109823D02*
X0317238Y0109823D01*
X0317238Y0109987D02*
X0314646Y0109987D01*
X0314646Y0110151D02*
X0317238Y0110151D01*
X0317238Y0110315D02*
X0314646Y0110315D01*
X0314646Y0110479D02*
X0317238Y0110479D01*
X0317238Y0110643D02*
X0314646Y0110643D01*
X0314646Y0110807D02*
X0317238Y0110807D01*
X0315545Y0131841D02*
X0312953Y0131841D01*
X0315545Y0131841D02*
X0315545Y0128855D01*
X0312953Y0128855D01*
X0312953Y0131841D01*
X0312953Y0129019D02*
X0315545Y0129019D01*
X0315545Y0129183D02*
X0312953Y0129183D01*
X0312953Y0129347D02*
X0315545Y0129347D01*
X0315545Y0129511D02*
X0312953Y0129511D01*
X0312953Y0129675D02*
X0315545Y0129675D01*
X0315545Y0129839D02*
X0312953Y0129839D01*
X0312953Y0130003D02*
X0315545Y0130003D01*
X0315545Y0130167D02*
X0312953Y0130167D01*
X0312953Y0130331D02*
X0315545Y0130331D01*
X0315545Y0130495D02*
X0312953Y0130495D01*
X0312953Y0130659D02*
X0315545Y0130659D01*
X0315545Y0130823D02*
X0312953Y0130823D01*
X0312953Y0130987D02*
X0315545Y0130987D01*
X0315545Y0131151D02*
X0312953Y0131151D01*
X0312953Y0131315D02*
X0315545Y0131315D01*
X0315545Y0131479D02*
X0312953Y0131479D01*
X0312953Y0131643D02*
X0315545Y0131643D01*
X0315545Y0131807D02*
X0312953Y0131807D01*
X0319646Y0131841D02*
X0322238Y0131841D01*
X0322238Y0128855D01*
X0319646Y0128855D01*
X0319646Y0131841D01*
X0319646Y0129019D02*
X0322238Y0129019D01*
X0322238Y0129183D02*
X0319646Y0129183D01*
X0319646Y0129347D02*
X0322238Y0129347D01*
X0322238Y0129511D02*
X0319646Y0129511D01*
X0319646Y0129675D02*
X0322238Y0129675D01*
X0322238Y0129839D02*
X0319646Y0129839D01*
X0319646Y0130003D02*
X0322238Y0130003D01*
X0322238Y0130167D02*
X0319646Y0130167D01*
X0319646Y0130331D02*
X0322238Y0130331D01*
X0322238Y0130495D02*
X0319646Y0130495D01*
X0319646Y0130659D02*
X0322238Y0130659D01*
X0322238Y0130823D02*
X0319646Y0130823D01*
X0319646Y0130987D02*
X0322238Y0130987D01*
X0322238Y0131151D02*
X0319646Y0131151D01*
X0319646Y0131315D02*
X0322238Y0131315D01*
X0322238Y0131479D02*
X0319646Y0131479D01*
X0319646Y0131643D02*
X0322238Y0131643D01*
X0322238Y0131807D02*
X0319646Y0131807D01*
X0307435Y0140644D02*
X0304449Y0140644D01*
X0307435Y0140644D02*
X0307435Y0138052D01*
X0304449Y0138052D01*
X0304449Y0140644D01*
X0304449Y0138216D02*
X0307435Y0138216D01*
X0307435Y0138380D02*
X0304449Y0138380D01*
X0304449Y0138544D02*
X0307435Y0138544D01*
X0307435Y0138708D02*
X0304449Y0138708D01*
X0304449Y0138872D02*
X0307435Y0138872D01*
X0307435Y0139036D02*
X0304449Y0139036D01*
X0304449Y0139200D02*
X0307435Y0139200D01*
X0307435Y0139364D02*
X0304449Y0139364D01*
X0304449Y0139528D02*
X0307435Y0139528D01*
X0307435Y0139692D02*
X0304449Y0139692D01*
X0304449Y0139856D02*
X0307435Y0139856D01*
X0307435Y0140020D02*
X0304449Y0140020D01*
X0304449Y0140184D02*
X0307435Y0140184D01*
X0307435Y0140348D02*
X0304449Y0140348D01*
X0304449Y0140512D02*
X0307435Y0140512D01*
X0300742Y0140644D02*
X0297756Y0140644D01*
X0300742Y0140644D02*
X0300742Y0138052D01*
X0297756Y0138052D01*
X0297756Y0140644D01*
X0297756Y0138216D02*
X0300742Y0138216D01*
X0300742Y0138380D02*
X0297756Y0138380D01*
X0297756Y0138544D02*
X0300742Y0138544D01*
X0300742Y0138708D02*
X0297756Y0138708D01*
X0297756Y0138872D02*
X0300742Y0138872D01*
X0300742Y0139036D02*
X0297756Y0139036D01*
X0297756Y0139200D02*
X0300742Y0139200D01*
X0300742Y0139364D02*
X0297756Y0139364D01*
X0297756Y0139528D02*
X0300742Y0139528D01*
X0300742Y0139692D02*
X0297756Y0139692D01*
X0297756Y0139856D02*
X0300742Y0139856D01*
X0300742Y0140020D02*
X0297756Y0140020D01*
X0297756Y0140184D02*
X0300742Y0140184D01*
X0300742Y0140348D02*
X0297756Y0140348D01*
X0297756Y0140512D02*
X0300742Y0140512D01*
X0293738Y0140841D02*
X0291146Y0140841D01*
X0293738Y0140841D02*
X0293738Y0137855D01*
X0291146Y0137855D01*
X0291146Y0140841D01*
X0291146Y0138019D02*
X0293738Y0138019D01*
X0293738Y0138183D02*
X0291146Y0138183D01*
X0291146Y0138347D02*
X0293738Y0138347D01*
X0293738Y0138511D02*
X0291146Y0138511D01*
X0291146Y0138675D02*
X0293738Y0138675D01*
X0293738Y0138839D02*
X0291146Y0138839D01*
X0291146Y0139003D02*
X0293738Y0139003D01*
X0293738Y0139167D02*
X0291146Y0139167D01*
X0291146Y0139331D02*
X0293738Y0139331D01*
X0293738Y0139495D02*
X0291146Y0139495D01*
X0291146Y0139659D02*
X0293738Y0139659D01*
X0293738Y0139823D02*
X0291146Y0139823D01*
X0291146Y0139987D02*
X0293738Y0139987D01*
X0293738Y0140151D02*
X0291146Y0140151D01*
X0291146Y0140315D02*
X0293738Y0140315D01*
X0293738Y0140479D02*
X0291146Y0140479D01*
X0291146Y0140643D02*
X0293738Y0140643D01*
X0293738Y0140807D02*
X0291146Y0140807D01*
X0287045Y0140841D02*
X0284453Y0140841D01*
X0287045Y0140841D02*
X0287045Y0137855D01*
X0284453Y0137855D01*
X0284453Y0140841D01*
X0284453Y0138019D02*
X0287045Y0138019D01*
X0287045Y0138183D02*
X0284453Y0138183D01*
X0284453Y0138347D02*
X0287045Y0138347D01*
X0287045Y0138511D02*
X0284453Y0138511D01*
X0284453Y0138675D02*
X0287045Y0138675D01*
X0287045Y0138839D02*
X0284453Y0138839D01*
X0284453Y0139003D02*
X0287045Y0139003D01*
X0287045Y0139167D02*
X0284453Y0139167D01*
X0284453Y0139331D02*
X0287045Y0139331D01*
X0287045Y0139495D02*
X0284453Y0139495D01*
X0284453Y0139659D02*
X0287045Y0139659D01*
X0287045Y0139823D02*
X0284453Y0139823D01*
X0284453Y0139987D02*
X0287045Y0139987D01*
X0287045Y0140151D02*
X0284453Y0140151D01*
X0284453Y0140315D02*
X0287045Y0140315D01*
X0287045Y0140479D02*
X0284453Y0140479D01*
X0284453Y0140643D02*
X0287045Y0140643D01*
X0287045Y0140807D02*
X0284453Y0140807D01*
X0280588Y0140798D02*
X0280588Y0138206D01*
X0277602Y0138206D01*
X0277602Y0140798D01*
X0280588Y0140798D01*
X0280588Y0138370D02*
X0277602Y0138370D01*
X0277602Y0138534D02*
X0280588Y0138534D01*
X0280588Y0138698D02*
X0277602Y0138698D01*
X0277602Y0138862D02*
X0280588Y0138862D01*
X0280588Y0139026D02*
X0277602Y0139026D01*
X0277602Y0139190D02*
X0280588Y0139190D01*
X0280588Y0139354D02*
X0277602Y0139354D01*
X0277602Y0139518D02*
X0280588Y0139518D01*
X0280588Y0139682D02*
X0277602Y0139682D01*
X0277602Y0139846D02*
X0280588Y0139846D01*
X0280588Y0140010D02*
X0277602Y0140010D01*
X0277602Y0140174D02*
X0280588Y0140174D01*
X0280588Y0140338D02*
X0277602Y0140338D01*
X0277602Y0140502D02*
X0280588Y0140502D01*
X0280588Y0140666D02*
X0277602Y0140666D01*
X0271435Y0138052D02*
X0268449Y0138052D01*
X0268449Y0140644D01*
X0271435Y0140644D01*
X0271435Y0138052D01*
X0271435Y0138216D02*
X0268449Y0138216D01*
X0268449Y0138380D02*
X0271435Y0138380D01*
X0271435Y0138544D02*
X0268449Y0138544D01*
X0268449Y0138708D02*
X0271435Y0138708D01*
X0271435Y0138872D02*
X0268449Y0138872D01*
X0268449Y0139036D02*
X0271435Y0139036D01*
X0271435Y0139200D02*
X0268449Y0139200D01*
X0268449Y0139364D02*
X0271435Y0139364D01*
X0271435Y0139528D02*
X0268449Y0139528D01*
X0268449Y0139692D02*
X0271435Y0139692D01*
X0271435Y0139856D02*
X0268449Y0139856D01*
X0268449Y0140020D02*
X0271435Y0140020D01*
X0271435Y0140184D02*
X0268449Y0140184D01*
X0268449Y0140348D02*
X0271435Y0140348D01*
X0271435Y0140512D02*
X0268449Y0140512D01*
X0264742Y0138052D02*
X0261756Y0138052D01*
X0261756Y0140644D01*
X0264742Y0140644D01*
X0264742Y0138052D01*
X0264742Y0138216D02*
X0261756Y0138216D01*
X0261756Y0138380D02*
X0264742Y0138380D01*
X0264742Y0138544D02*
X0261756Y0138544D01*
X0261756Y0138708D02*
X0264742Y0138708D01*
X0264742Y0138872D02*
X0261756Y0138872D01*
X0261756Y0139036D02*
X0264742Y0139036D01*
X0264742Y0139200D02*
X0261756Y0139200D01*
X0261756Y0139364D02*
X0264742Y0139364D01*
X0264742Y0139528D02*
X0261756Y0139528D01*
X0261756Y0139692D02*
X0264742Y0139692D01*
X0264742Y0139856D02*
X0261756Y0139856D01*
X0261756Y0140020D02*
X0264742Y0140020D01*
X0264742Y0140184D02*
X0261756Y0140184D01*
X0261756Y0140348D02*
X0264742Y0140348D01*
X0264742Y0140512D02*
X0261756Y0140512D01*
X0280588Y0144898D02*
X0280588Y0147490D01*
X0280588Y0144898D02*
X0277602Y0144898D01*
X0277602Y0147490D01*
X0280588Y0147490D01*
X0280588Y0145062D02*
X0277602Y0145062D01*
X0277602Y0145226D02*
X0280588Y0145226D01*
X0280588Y0145390D02*
X0277602Y0145390D01*
X0277602Y0145554D02*
X0280588Y0145554D01*
X0280588Y0145718D02*
X0277602Y0145718D01*
X0277602Y0145882D02*
X0280588Y0145882D01*
X0280588Y0146046D02*
X0277602Y0146046D01*
X0277602Y0146210D02*
X0280588Y0146210D01*
X0280588Y0146374D02*
X0277602Y0146374D01*
X0277602Y0146538D02*
X0280588Y0146538D01*
X0280588Y0146702D02*
X0277602Y0146702D01*
X0277602Y0146866D02*
X0280588Y0146866D01*
X0280588Y0147030D02*
X0277602Y0147030D01*
X0277602Y0147194D02*
X0280588Y0147194D01*
X0280588Y0147358D02*
X0277602Y0147358D01*
X0270102Y0123990D02*
X0270102Y0121398D01*
X0270102Y0123990D02*
X0273088Y0123990D01*
X0273088Y0121398D01*
X0270102Y0121398D01*
X0270102Y0121562D02*
X0273088Y0121562D01*
X0273088Y0121726D02*
X0270102Y0121726D01*
X0270102Y0121890D02*
X0273088Y0121890D01*
X0273088Y0122054D02*
X0270102Y0122054D01*
X0270102Y0122218D02*
X0273088Y0122218D01*
X0273088Y0122382D02*
X0270102Y0122382D01*
X0270102Y0122546D02*
X0273088Y0122546D01*
X0273088Y0122710D02*
X0270102Y0122710D01*
X0270102Y0122874D02*
X0273088Y0122874D01*
X0273088Y0123038D02*
X0270102Y0123038D01*
X0270102Y0123202D02*
X0273088Y0123202D01*
X0273088Y0123366D02*
X0270102Y0123366D01*
X0270102Y0123530D02*
X0273088Y0123530D01*
X0273088Y0123694D02*
X0270102Y0123694D01*
X0270102Y0123858D02*
X0273088Y0123858D01*
X0342953Y0087855D02*
X0345545Y0087855D01*
X0342953Y0087855D02*
X0342953Y0090841D01*
X0345545Y0090841D01*
X0345545Y0087855D01*
X0345545Y0088019D02*
X0342953Y0088019D01*
X0342953Y0088183D02*
X0345545Y0088183D01*
X0345545Y0088347D02*
X0342953Y0088347D01*
X0342953Y0088511D02*
X0345545Y0088511D01*
X0345545Y0088675D02*
X0342953Y0088675D01*
X0342953Y0088839D02*
X0345545Y0088839D01*
X0345545Y0089003D02*
X0342953Y0089003D01*
X0342953Y0089167D02*
X0345545Y0089167D01*
X0345545Y0089331D02*
X0342953Y0089331D01*
X0342953Y0089495D02*
X0345545Y0089495D01*
X0345545Y0089659D02*
X0342953Y0089659D01*
X0342953Y0089823D02*
X0345545Y0089823D01*
X0345545Y0089987D02*
X0342953Y0089987D01*
X0342953Y0090151D02*
X0345545Y0090151D01*
X0345545Y0090315D02*
X0342953Y0090315D01*
X0342953Y0090479D02*
X0345545Y0090479D01*
X0345545Y0090643D02*
X0342953Y0090643D01*
X0342953Y0090807D02*
X0345545Y0090807D01*
X0349646Y0087855D02*
X0352238Y0087855D01*
X0349646Y0087855D02*
X0349646Y0090841D01*
X0352238Y0090841D01*
X0352238Y0087855D01*
X0352238Y0088019D02*
X0349646Y0088019D01*
X0349646Y0088183D02*
X0352238Y0088183D01*
X0352238Y0088347D02*
X0349646Y0088347D01*
X0349646Y0088511D02*
X0352238Y0088511D01*
X0352238Y0088675D02*
X0349646Y0088675D01*
X0349646Y0088839D02*
X0352238Y0088839D01*
X0352238Y0089003D02*
X0349646Y0089003D01*
X0349646Y0089167D02*
X0352238Y0089167D01*
X0352238Y0089331D02*
X0349646Y0089331D01*
X0349646Y0089495D02*
X0352238Y0089495D01*
X0352238Y0089659D02*
X0349646Y0089659D01*
X0349646Y0089823D02*
X0352238Y0089823D01*
X0352238Y0089987D02*
X0349646Y0089987D01*
X0349646Y0090151D02*
X0352238Y0090151D01*
X0352238Y0090315D02*
X0349646Y0090315D01*
X0349646Y0090479D02*
X0352238Y0090479D01*
X0352238Y0090643D02*
X0349646Y0090643D01*
X0349646Y0090807D02*
X0352238Y0090807D01*
X0373453Y0100841D02*
X0376045Y0100841D01*
X0376045Y0097855D01*
X0373453Y0097855D01*
X0373453Y0100841D01*
X0373453Y0098019D02*
X0376045Y0098019D01*
X0376045Y0098183D02*
X0373453Y0098183D01*
X0373453Y0098347D02*
X0376045Y0098347D01*
X0376045Y0098511D02*
X0373453Y0098511D01*
X0373453Y0098675D02*
X0376045Y0098675D01*
X0376045Y0098839D02*
X0373453Y0098839D01*
X0373453Y0099003D02*
X0376045Y0099003D01*
X0376045Y0099167D02*
X0373453Y0099167D01*
X0373453Y0099331D02*
X0376045Y0099331D01*
X0376045Y0099495D02*
X0373453Y0099495D01*
X0373453Y0099659D02*
X0376045Y0099659D01*
X0376045Y0099823D02*
X0373453Y0099823D01*
X0373453Y0099987D02*
X0376045Y0099987D01*
X0376045Y0100151D02*
X0373453Y0100151D01*
X0373453Y0100315D02*
X0376045Y0100315D01*
X0376045Y0100479D02*
X0373453Y0100479D01*
X0373453Y0100643D02*
X0376045Y0100643D01*
X0376045Y0100807D02*
X0373453Y0100807D01*
X0380146Y0100841D02*
X0382738Y0100841D01*
X0382738Y0097855D01*
X0380146Y0097855D01*
X0380146Y0100841D01*
X0380146Y0098019D02*
X0382738Y0098019D01*
X0382738Y0098183D02*
X0380146Y0098183D01*
X0380146Y0098347D02*
X0382738Y0098347D01*
X0382738Y0098511D02*
X0380146Y0098511D01*
X0380146Y0098675D02*
X0382738Y0098675D01*
X0382738Y0098839D02*
X0380146Y0098839D01*
X0380146Y0099003D02*
X0382738Y0099003D01*
X0382738Y0099167D02*
X0380146Y0099167D01*
X0380146Y0099331D02*
X0382738Y0099331D01*
X0382738Y0099495D02*
X0380146Y0099495D01*
X0380146Y0099659D02*
X0382738Y0099659D01*
X0382738Y0099823D02*
X0380146Y0099823D01*
X0380146Y0099987D02*
X0382738Y0099987D01*
X0382738Y0100151D02*
X0380146Y0100151D01*
X0380146Y0100315D02*
X0382738Y0100315D01*
X0382738Y0100479D02*
X0380146Y0100479D01*
X0380146Y0100643D02*
X0382738Y0100643D01*
X0382738Y0100807D02*
X0380146Y0100807D01*
X0377238Y0108841D02*
X0374646Y0108841D01*
X0377238Y0108841D02*
X0377238Y0105855D01*
X0374646Y0105855D01*
X0374646Y0108841D01*
X0374646Y0106019D02*
X0377238Y0106019D01*
X0377238Y0106183D02*
X0374646Y0106183D01*
X0374646Y0106347D02*
X0377238Y0106347D01*
X0377238Y0106511D02*
X0374646Y0106511D01*
X0374646Y0106675D02*
X0377238Y0106675D01*
X0377238Y0106839D02*
X0374646Y0106839D01*
X0374646Y0107003D02*
X0377238Y0107003D01*
X0377238Y0107167D02*
X0374646Y0107167D01*
X0374646Y0107331D02*
X0377238Y0107331D01*
X0377238Y0107495D02*
X0374646Y0107495D01*
X0374646Y0107659D02*
X0377238Y0107659D01*
X0377238Y0107823D02*
X0374646Y0107823D01*
X0374646Y0107987D02*
X0377238Y0107987D01*
X0377238Y0108151D02*
X0374646Y0108151D01*
X0374646Y0108315D02*
X0377238Y0108315D01*
X0377238Y0108479D02*
X0374646Y0108479D01*
X0374646Y0108643D02*
X0377238Y0108643D01*
X0377238Y0108807D02*
X0374646Y0108807D01*
X0370545Y0108841D02*
X0367953Y0108841D01*
X0370545Y0108841D02*
X0370545Y0105855D01*
X0367953Y0105855D01*
X0367953Y0108841D01*
X0367953Y0106019D02*
X0370545Y0106019D01*
X0370545Y0106183D02*
X0367953Y0106183D01*
X0367953Y0106347D02*
X0370545Y0106347D01*
X0370545Y0106511D02*
X0367953Y0106511D01*
X0367953Y0106675D02*
X0370545Y0106675D01*
X0370545Y0106839D02*
X0367953Y0106839D01*
X0367953Y0107003D02*
X0370545Y0107003D01*
X0370545Y0107167D02*
X0367953Y0107167D01*
X0367953Y0107331D02*
X0370545Y0107331D01*
X0370545Y0107495D02*
X0367953Y0107495D01*
X0367953Y0107659D02*
X0370545Y0107659D01*
X0370545Y0107823D02*
X0367953Y0107823D01*
X0367953Y0107987D02*
X0370545Y0107987D01*
X0370545Y0108151D02*
X0367953Y0108151D01*
X0367953Y0108315D02*
X0370545Y0108315D01*
X0370545Y0108479D02*
X0367953Y0108479D01*
X0367953Y0108643D02*
X0370545Y0108643D01*
X0370545Y0108807D02*
X0367953Y0108807D01*
X0367953Y0116841D02*
X0370545Y0116841D01*
X0370545Y0113855D01*
X0367953Y0113855D01*
X0367953Y0116841D01*
X0367953Y0114019D02*
X0370545Y0114019D01*
X0370545Y0114183D02*
X0367953Y0114183D01*
X0367953Y0114347D02*
X0370545Y0114347D01*
X0370545Y0114511D02*
X0367953Y0114511D01*
X0367953Y0114675D02*
X0370545Y0114675D01*
X0370545Y0114839D02*
X0367953Y0114839D01*
X0367953Y0115003D02*
X0370545Y0115003D01*
X0370545Y0115167D02*
X0367953Y0115167D01*
X0367953Y0115331D02*
X0370545Y0115331D01*
X0370545Y0115495D02*
X0367953Y0115495D01*
X0367953Y0115659D02*
X0370545Y0115659D01*
X0370545Y0115823D02*
X0367953Y0115823D01*
X0367953Y0115987D02*
X0370545Y0115987D01*
X0370545Y0116151D02*
X0367953Y0116151D01*
X0367953Y0116315D02*
X0370545Y0116315D01*
X0370545Y0116479D02*
X0367953Y0116479D01*
X0367953Y0116643D02*
X0370545Y0116643D01*
X0370545Y0116807D02*
X0367953Y0116807D01*
X0374646Y0116841D02*
X0377238Y0116841D01*
X0377238Y0113855D01*
X0374646Y0113855D01*
X0374646Y0116841D01*
X0374646Y0114019D02*
X0377238Y0114019D01*
X0377238Y0114183D02*
X0374646Y0114183D01*
X0374646Y0114347D02*
X0377238Y0114347D01*
X0377238Y0114511D02*
X0374646Y0114511D01*
X0374646Y0114675D02*
X0377238Y0114675D01*
X0377238Y0114839D02*
X0374646Y0114839D01*
X0374646Y0115003D02*
X0377238Y0115003D01*
X0377238Y0115167D02*
X0374646Y0115167D01*
X0374646Y0115331D02*
X0377238Y0115331D01*
X0377238Y0115495D02*
X0374646Y0115495D01*
X0374646Y0115659D02*
X0377238Y0115659D01*
X0377238Y0115823D02*
X0374646Y0115823D01*
X0374646Y0115987D02*
X0377238Y0115987D01*
X0377238Y0116151D02*
X0374646Y0116151D01*
X0374646Y0116315D02*
X0377238Y0116315D01*
X0377238Y0116479D02*
X0374646Y0116479D01*
X0374646Y0116643D02*
X0377238Y0116643D01*
X0377238Y0116807D02*
X0374646Y0116807D01*
X0375453Y0128341D02*
X0378045Y0128341D01*
X0378045Y0125355D01*
X0375453Y0125355D01*
X0375453Y0128341D01*
X0375453Y0125519D02*
X0378045Y0125519D01*
X0378045Y0125683D02*
X0375453Y0125683D01*
X0375453Y0125847D02*
X0378045Y0125847D01*
X0378045Y0126011D02*
X0375453Y0126011D01*
X0375453Y0126175D02*
X0378045Y0126175D01*
X0378045Y0126339D02*
X0375453Y0126339D01*
X0375453Y0126503D02*
X0378045Y0126503D01*
X0378045Y0126667D02*
X0375453Y0126667D01*
X0375453Y0126831D02*
X0378045Y0126831D01*
X0378045Y0126995D02*
X0375453Y0126995D01*
X0375453Y0127159D02*
X0378045Y0127159D01*
X0378045Y0127323D02*
X0375453Y0127323D01*
X0375453Y0127487D02*
X0378045Y0127487D01*
X0378045Y0127651D02*
X0375453Y0127651D01*
X0375453Y0127815D02*
X0378045Y0127815D01*
X0378045Y0127979D02*
X0375453Y0127979D01*
X0375453Y0128143D02*
X0378045Y0128143D01*
X0378045Y0128307D02*
X0375453Y0128307D01*
X0382146Y0128341D02*
X0384738Y0128341D01*
X0384738Y0125355D01*
X0382146Y0125355D01*
X0382146Y0128341D01*
X0382146Y0125519D02*
X0384738Y0125519D01*
X0384738Y0125683D02*
X0382146Y0125683D01*
X0382146Y0125847D02*
X0384738Y0125847D01*
X0384738Y0126011D02*
X0382146Y0126011D01*
X0382146Y0126175D02*
X0384738Y0126175D01*
X0384738Y0126339D02*
X0382146Y0126339D01*
X0382146Y0126503D02*
X0384738Y0126503D01*
X0384738Y0126667D02*
X0382146Y0126667D01*
X0382146Y0126831D02*
X0384738Y0126831D01*
X0384738Y0126995D02*
X0382146Y0126995D01*
X0382146Y0127159D02*
X0384738Y0127159D01*
X0384738Y0127323D02*
X0382146Y0127323D01*
X0382146Y0127487D02*
X0384738Y0127487D01*
X0384738Y0127651D02*
X0382146Y0127651D01*
X0382146Y0127815D02*
X0384738Y0127815D01*
X0384738Y0127979D02*
X0382146Y0127979D01*
X0382146Y0128143D02*
X0384738Y0128143D01*
X0384738Y0128307D02*
X0382146Y0128307D01*
X0380799Y0134009D02*
X0380799Y0136995D01*
X0383391Y0136995D01*
X0383391Y0134009D01*
X0380799Y0134009D01*
X0380799Y0134173D02*
X0383391Y0134173D01*
X0383391Y0134337D02*
X0380799Y0134337D01*
X0380799Y0134501D02*
X0383391Y0134501D01*
X0383391Y0134665D02*
X0380799Y0134665D01*
X0380799Y0134829D02*
X0383391Y0134829D01*
X0383391Y0134993D02*
X0380799Y0134993D01*
X0380799Y0135157D02*
X0383391Y0135157D01*
X0383391Y0135321D02*
X0380799Y0135321D01*
X0380799Y0135485D02*
X0383391Y0135485D01*
X0383391Y0135649D02*
X0380799Y0135649D01*
X0380799Y0135813D02*
X0383391Y0135813D01*
X0383391Y0135977D02*
X0380799Y0135977D01*
X0380799Y0136141D02*
X0383391Y0136141D01*
X0383391Y0136305D02*
X0380799Y0136305D01*
X0380799Y0136469D02*
X0383391Y0136469D01*
X0383391Y0136633D02*
X0380799Y0136633D01*
X0380799Y0136797D02*
X0383391Y0136797D01*
X0383391Y0136961D02*
X0380799Y0136961D01*
X0380799Y0140701D02*
X0380799Y0143687D01*
X0383391Y0143687D01*
X0383391Y0140701D01*
X0380799Y0140701D01*
X0380799Y0140865D02*
X0383391Y0140865D01*
X0383391Y0141029D02*
X0380799Y0141029D01*
X0380799Y0141193D02*
X0383391Y0141193D01*
X0383391Y0141357D02*
X0380799Y0141357D01*
X0380799Y0141521D02*
X0383391Y0141521D01*
X0383391Y0141685D02*
X0380799Y0141685D01*
X0380799Y0141849D02*
X0383391Y0141849D01*
X0383391Y0142013D02*
X0380799Y0142013D01*
X0380799Y0142177D02*
X0383391Y0142177D01*
X0383391Y0142341D02*
X0380799Y0142341D01*
X0380799Y0142505D02*
X0383391Y0142505D01*
X0383391Y0142669D02*
X0380799Y0142669D01*
X0380799Y0142833D02*
X0383391Y0142833D01*
X0383391Y0142997D02*
X0380799Y0142997D01*
X0380799Y0143161D02*
X0383391Y0143161D01*
X0383391Y0143325D02*
X0380799Y0143325D01*
X0380799Y0143489D02*
X0383391Y0143489D01*
X0383391Y0143653D02*
X0380799Y0143653D01*
X0388953Y0137841D02*
X0391545Y0137841D01*
X0391545Y0134855D01*
X0388953Y0134855D01*
X0388953Y0137841D01*
X0388953Y0135019D02*
X0391545Y0135019D01*
X0391545Y0135183D02*
X0388953Y0135183D01*
X0388953Y0135347D02*
X0391545Y0135347D01*
X0391545Y0135511D02*
X0388953Y0135511D01*
X0388953Y0135675D02*
X0391545Y0135675D01*
X0391545Y0135839D02*
X0388953Y0135839D01*
X0388953Y0136003D02*
X0391545Y0136003D01*
X0391545Y0136167D02*
X0388953Y0136167D01*
X0388953Y0136331D02*
X0391545Y0136331D01*
X0391545Y0136495D02*
X0388953Y0136495D01*
X0388953Y0136659D02*
X0391545Y0136659D01*
X0391545Y0136823D02*
X0388953Y0136823D01*
X0388953Y0136987D02*
X0391545Y0136987D01*
X0391545Y0137151D02*
X0388953Y0137151D01*
X0388953Y0137315D02*
X0391545Y0137315D01*
X0391545Y0137479D02*
X0388953Y0137479D01*
X0388953Y0137643D02*
X0391545Y0137643D01*
X0391545Y0137807D02*
X0388953Y0137807D01*
X0395646Y0137841D02*
X0398238Y0137841D01*
X0398238Y0134855D01*
X0395646Y0134855D01*
X0395646Y0137841D01*
X0395646Y0135019D02*
X0398238Y0135019D01*
X0398238Y0135183D02*
X0395646Y0135183D01*
X0395646Y0135347D02*
X0398238Y0135347D01*
X0398238Y0135511D02*
X0395646Y0135511D01*
X0395646Y0135675D02*
X0398238Y0135675D01*
X0398238Y0135839D02*
X0395646Y0135839D01*
X0395646Y0136003D02*
X0398238Y0136003D01*
X0398238Y0136167D02*
X0395646Y0136167D01*
X0395646Y0136331D02*
X0398238Y0136331D01*
X0398238Y0136495D02*
X0395646Y0136495D01*
X0395646Y0136659D02*
X0398238Y0136659D01*
X0398238Y0136823D02*
X0395646Y0136823D01*
X0395646Y0136987D02*
X0398238Y0136987D01*
X0398238Y0137151D02*
X0395646Y0137151D01*
X0395646Y0137315D02*
X0398238Y0137315D01*
X0398238Y0137479D02*
X0395646Y0137479D01*
X0395646Y0137643D02*
X0398238Y0137643D01*
X0398238Y0137807D02*
X0395646Y0137807D01*
X0389935Y0084644D02*
X0386949Y0084644D01*
X0389935Y0084644D02*
X0389935Y0082052D01*
X0386949Y0082052D01*
X0386949Y0084644D01*
X0386949Y0082216D02*
X0389935Y0082216D01*
X0389935Y0082380D02*
X0386949Y0082380D01*
X0386949Y0082544D02*
X0389935Y0082544D01*
X0389935Y0082708D02*
X0386949Y0082708D01*
X0386949Y0082872D02*
X0389935Y0082872D01*
X0389935Y0083036D02*
X0386949Y0083036D01*
X0386949Y0083200D02*
X0389935Y0083200D01*
X0389935Y0083364D02*
X0386949Y0083364D01*
X0386949Y0083528D02*
X0389935Y0083528D01*
X0389935Y0083692D02*
X0386949Y0083692D01*
X0386949Y0083856D02*
X0389935Y0083856D01*
X0389935Y0084020D02*
X0386949Y0084020D01*
X0386949Y0084184D02*
X0389935Y0084184D01*
X0389935Y0084348D02*
X0386949Y0084348D01*
X0386949Y0084512D02*
X0389935Y0084512D01*
X0383242Y0084644D02*
X0380256Y0084644D01*
X0383242Y0084644D02*
X0383242Y0082052D01*
X0380256Y0082052D01*
X0380256Y0084644D01*
X0380256Y0082216D02*
X0383242Y0082216D01*
X0383242Y0082380D02*
X0380256Y0082380D01*
X0380256Y0082544D02*
X0383242Y0082544D01*
X0383242Y0082708D02*
X0380256Y0082708D01*
X0380256Y0082872D02*
X0383242Y0082872D01*
X0383242Y0083036D02*
X0380256Y0083036D01*
X0380256Y0083200D02*
X0383242Y0083200D01*
X0383242Y0083364D02*
X0380256Y0083364D01*
X0380256Y0083528D02*
X0383242Y0083528D01*
X0383242Y0083692D02*
X0380256Y0083692D01*
X0380256Y0083856D02*
X0383242Y0083856D01*
X0383242Y0084020D02*
X0380256Y0084020D01*
X0380256Y0084184D02*
X0383242Y0084184D01*
X0383242Y0084348D02*
X0380256Y0084348D01*
X0380256Y0084512D02*
X0383242Y0084512D01*
X0394102Y0077990D02*
X0394102Y0075398D01*
X0394102Y0077990D02*
X0397088Y0077990D01*
X0397088Y0075398D01*
X0394102Y0075398D01*
X0394102Y0075562D02*
X0397088Y0075562D01*
X0397088Y0075726D02*
X0394102Y0075726D01*
X0394102Y0075890D02*
X0397088Y0075890D01*
X0397088Y0076054D02*
X0394102Y0076054D01*
X0394102Y0076218D02*
X0397088Y0076218D01*
X0397088Y0076382D02*
X0394102Y0076382D01*
X0394102Y0076546D02*
X0397088Y0076546D01*
X0397088Y0076710D02*
X0394102Y0076710D01*
X0394102Y0076874D02*
X0397088Y0076874D01*
X0397088Y0077038D02*
X0394102Y0077038D01*
X0394102Y0077202D02*
X0397088Y0077202D01*
X0397088Y0077366D02*
X0394102Y0077366D01*
X0394102Y0077530D02*
X0397088Y0077530D01*
X0397088Y0077694D02*
X0394102Y0077694D01*
X0394102Y0077858D02*
X0397088Y0077858D01*
X0400953Y0080355D02*
X0403545Y0080355D01*
X0400953Y0080355D02*
X0400953Y0083341D01*
X0403545Y0083341D01*
X0403545Y0080355D01*
X0403545Y0080519D02*
X0400953Y0080519D01*
X0400953Y0080683D02*
X0403545Y0080683D01*
X0403545Y0080847D02*
X0400953Y0080847D01*
X0400953Y0081011D02*
X0403545Y0081011D01*
X0403545Y0081175D02*
X0400953Y0081175D01*
X0400953Y0081339D02*
X0403545Y0081339D01*
X0403545Y0081503D02*
X0400953Y0081503D01*
X0400953Y0081667D02*
X0403545Y0081667D01*
X0403545Y0081831D02*
X0400953Y0081831D01*
X0400953Y0081995D02*
X0403545Y0081995D01*
X0403545Y0082159D02*
X0400953Y0082159D01*
X0400953Y0082323D02*
X0403545Y0082323D01*
X0403545Y0082487D02*
X0400953Y0082487D01*
X0400953Y0082651D02*
X0403545Y0082651D01*
X0403545Y0082815D02*
X0400953Y0082815D01*
X0400953Y0082979D02*
X0403545Y0082979D01*
X0403545Y0083143D02*
X0400953Y0083143D01*
X0400953Y0083307D02*
X0403545Y0083307D01*
X0407646Y0080355D02*
X0410238Y0080355D01*
X0407646Y0080355D02*
X0407646Y0083341D01*
X0410238Y0083341D01*
X0410238Y0080355D01*
X0410238Y0080519D02*
X0407646Y0080519D01*
X0407646Y0080683D02*
X0410238Y0080683D01*
X0410238Y0080847D02*
X0407646Y0080847D01*
X0407646Y0081011D02*
X0410238Y0081011D01*
X0410238Y0081175D02*
X0407646Y0081175D01*
X0407646Y0081339D02*
X0410238Y0081339D01*
X0410238Y0081503D02*
X0407646Y0081503D01*
X0407646Y0081667D02*
X0410238Y0081667D01*
X0410238Y0081831D02*
X0407646Y0081831D01*
X0407646Y0081995D02*
X0410238Y0081995D01*
X0410238Y0082159D02*
X0407646Y0082159D01*
X0407646Y0082323D02*
X0410238Y0082323D01*
X0410238Y0082487D02*
X0407646Y0082487D01*
X0407646Y0082651D02*
X0410238Y0082651D01*
X0410238Y0082815D02*
X0407646Y0082815D01*
X0407646Y0082979D02*
X0410238Y0082979D01*
X0410238Y0083143D02*
X0407646Y0083143D01*
X0407646Y0083307D02*
X0410238Y0083307D01*
X0394102Y0071298D02*
X0394102Y0068706D01*
X0394102Y0071298D02*
X0397088Y0071298D01*
X0397088Y0068706D01*
X0394102Y0068706D01*
X0394102Y0068870D02*
X0397088Y0068870D01*
X0397088Y0069034D02*
X0394102Y0069034D01*
X0394102Y0069198D02*
X0397088Y0069198D01*
X0397088Y0069362D02*
X0394102Y0069362D01*
X0394102Y0069526D02*
X0397088Y0069526D01*
X0397088Y0069690D02*
X0394102Y0069690D01*
X0394102Y0069854D02*
X0397088Y0069854D01*
X0397088Y0070018D02*
X0394102Y0070018D01*
X0394102Y0070182D02*
X0397088Y0070182D01*
X0397088Y0070346D02*
X0394102Y0070346D01*
X0394102Y0070510D02*
X0397088Y0070510D01*
X0397088Y0070674D02*
X0394102Y0070674D01*
X0394102Y0070838D02*
X0397088Y0070838D01*
X0397088Y0071002D02*
X0394102Y0071002D01*
X0394102Y0071166D02*
X0397088Y0071166D01*
X0396891Y0056187D02*
X0396891Y0053201D01*
X0394299Y0053201D01*
X0394299Y0056187D01*
X0396891Y0056187D01*
X0396891Y0053365D02*
X0394299Y0053365D01*
X0394299Y0053529D02*
X0396891Y0053529D01*
X0396891Y0053693D02*
X0394299Y0053693D01*
X0394299Y0053857D02*
X0396891Y0053857D01*
X0396891Y0054021D02*
X0394299Y0054021D01*
X0394299Y0054185D02*
X0396891Y0054185D01*
X0396891Y0054349D02*
X0394299Y0054349D01*
X0394299Y0054513D02*
X0396891Y0054513D01*
X0396891Y0054677D02*
X0394299Y0054677D01*
X0394299Y0054841D02*
X0396891Y0054841D01*
X0396891Y0055005D02*
X0394299Y0055005D01*
X0394299Y0055169D02*
X0396891Y0055169D01*
X0396891Y0055333D02*
X0394299Y0055333D01*
X0394299Y0055497D02*
X0396891Y0055497D01*
X0396891Y0055661D02*
X0394299Y0055661D01*
X0394299Y0055825D02*
X0396891Y0055825D01*
X0396891Y0055989D02*
X0394299Y0055989D01*
X0394299Y0056153D02*
X0396891Y0056153D01*
X0396891Y0049495D02*
X0396891Y0046509D01*
X0394299Y0046509D01*
X0394299Y0049495D01*
X0396891Y0049495D01*
X0396891Y0046673D02*
X0394299Y0046673D01*
X0394299Y0046837D02*
X0396891Y0046837D01*
X0396891Y0047001D02*
X0394299Y0047001D01*
X0394299Y0047165D02*
X0396891Y0047165D01*
X0396891Y0047329D02*
X0394299Y0047329D01*
X0394299Y0047493D02*
X0396891Y0047493D01*
X0396891Y0047657D02*
X0394299Y0047657D01*
X0394299Y0047821D02*
X0396891Y0047821D01*
X0396891Y0047985D02*
X0394299Y0047985D01*
X0394299Y0048149D02*
X0396891Y0048149D01*
X0396891Y0048313D02*
X0394299Y0048313D01*
X0394299Y0048477D02*
X0396891Y0048477D01*
X0396891Y0048641D02*
X0394299Y0048641D01*
X0394299Y0048805D02*
X0396891Y0048805D01*
X0396891Y0048969D02*
X0394299Y0048969D01*
X0394299Y0049133D02*
X0396891Y0049133D01*
X0396891Y0049297D02*
X0394299Y0049297D01*
X0394299Y0049461D02*
X0396891Y0049461D01*
X0374588Y0049990D02*
X0374588Y0047398D01*
X0371602Y0047398D01*
X0371602Y0049990D01*
X0374588Y0049990D01*
X0374588Y0047562D02*
X0371602Y0047562D01*
X0371602Y0047726D02*
X0374588Y0047726D01*
X0374588Y0047890D02*
X0371602Y0047890D01*
X0371602Y0048054D02*
X0374588Y0048054D01*
X0374588Y0048218D02*
X0371602Y0048218D01*
X0371602Y0048382D02*
X0374588Y0048382D01*
X0374588Y0048546D02*
X0371602Y0048546D01*
X0371602Y0048710D02*
X0374588Y0048710D01*
X0374588Y0048874D02*
X0371602Y0048874D01*
X0371602Y0049038D02*
X0374588Y0049038D01*
X0374588Y0049202D02*
X0371602Y0049202D01*
X0371602Y0049366D02*
X0374588Y0049366D01*
X0374588Y0049530D02*
X0371602Y0049530D01*
X0371602Y0049694D02*
X0374588Y0049694D01*
X0374588Y0049858D02*
X0371602Y0049858D01*
X0374588Y0043298D02*
X0374588Y0040706D01*
X0371602Y0040706D01*
X0371602Y0043298D01*
X0374588Y0043298D01*
X0374588Y0040870D02*
X0371602Y0040870D01*
X0371602Y0041034D02*
X0374588Y0041034D01*
X0374588Y0041198D02*
X0371602Y0041198D01*
X0371602Y0041362D02*
X0374588Y0041362D01*
X0374588Y0041526D02*
X0371602Y0041526D01*
X0371602Y0041690D02*
X0374588Y0041690D01*
X0374588Y0041854D02*
X0371602Y0041854D01*
X0371602Y0042018D02*
X0374588Y0042018D01*
X0374588Y0042182D02*
X0371602Y0042182D01*
X0371602Y0042346D02*
X0374588Y0042346D01*
X0374588Y0042510D02*
X0371602Y0042510D01*
X0371602Y0042674D02*
X0374588Y0042674D01*
X0374588Y0042838D02*
X0371602Y0042838D01*
X0371602Y0043002D02*
X0374588Y0043002D01*
X0374588Y0043166D02*
X0371602Y0043166D01*
X0352238Y0077855D02*
X0349646Y0077855D01*
X0349646Y0080841D01*
X0352238Y0080841D01*
X0352238Y0077855D01*
X0352238Y0078019D02*
X0349646Y0078019D01*
X0349646Y0078183D02*
X0352238Y0078183D01*
X0352238Y0078347D02*
X0349646Y0078347D01*
X0349646Y0078511D02*
X0352238Y0078511D01*
X0352238Y0078675D02*
X0349646Y0078675D01*
X0349646Y0078839D02*
X0352238Y0078839D01*
X0352238Y0079003D02*
X0349646Y0079003D01*
X0349646Y0079167D02*
X0352238Y0079167D01*
X0352238Y0079331D02*
X0349646Y0079331D01*
X0349646Y0079495D02*
X0352238Y0079495D01*
X0352238Y0079659D02*
X0349646Y0079659D01*
X0349646Y0079823D02*
X0352238Y0079823D01*
X0352238Y0079987D02*
X0349646Y0079987D01*
X0349646Y0080151D02*
X0352238Y0080151D01*
X0352238Y0080315D02*
X0349646Y0080315D01*
X0349646Y0080479D02*
X0352238Y0080479D01*
X0352238Y0080643D02*
X0349646Y0080643D01*
X0349646Y0080807D02*
X0352238Y0080807D01*
X0345545Y0077855D02*
X0342953Y0077855D01*
X0342953Y0080841D01*
X0345545Y0080841D01*
X0345545Y0077855D01*
X0345545Y0078019D02*
X0342953Y0078019D01*
X0342953Y0078183D02*
X0345545Y0078183D01*
X0345545Y0078347D02*
X0342953Y0078347D01*
X0342953Y0078511D02*
X0345545Y0078511D01*
X0345545Y0078675D02*
X0342953Y0078675D01*
X0342953Y0078839D02*
X0345545Y0078839D01*
X0345545Y0079003D02*
X0342953Y0079003D01*
X0342953Y0079167D02*
X0345545Y0079167D01*
X0345545Y0079331D02*
X0342953Y0079331D01*
X0342953Y0079495D02*
X0345545Y0079495D01*
X0345545Y0079659D02*
X0342953Y0079659D01*
X0342953Y0079823D02*
X0345545Y0079823D01*
X0345545Y0079987D02*
X0342953Y0079987D01*
X0342953Y0080151D02*
X0345545Y0080151D01*
X0345545Y0080315D02*
X0342953Y0080315D01*
X0342953Y0080479D02*
X0345545Y0080479D01*
X0345545Y0080643D02*
X0342953Y0080643D01*
X0342953Y0080807D02*
X0345545Y0080807D01*
X0178435Y0153052D02*
X0175449Y0153052D01*
X0175449Y0155644D01*
X0178435Y0155644D01*
X0178435Y0153052D01*
X0178435Y0153216D02*
X0175449Y0153216D01*
X0175449Y0153380D02*
X0178435Y0153380D01*
X0178435Y0153544D02*
X0175449Y0153544D01*
X0175449Y0153708D02*
X0178435Y0153708D01*
X0178435Y0153872D02*
X0175449Y0153872D01*
X0175449Y0154036D02*
X0178435Y0154036D01*
X0178435Y0154200D02*
X0175449Y0154200D01*
X0175449Y0154364D02*
X0178435Y0154364D01*
X0178435Y0154528D02*
X0175449Y0154528D01*
X0175449Y0154692D02*
X0178435Y0154692D01*
X0178435Y0154856D02*
X0175449Y0154856D01*
X0175449Y0155020D02*
X0178435Y0155020D01*
X0178435Y0155184D02*
X0175449Y0155184D01*
X0175449Y0155348D02*
X0178435Y0155348D01*
X0178435Y0155512D02*
X0175449Y0155512D01*
X0171742Y0153052D02*
X0168756Y0153052D01*
X0168756Y0155644D01*
X0171742Y0155644D01*
X0171742Y0153052D01*
X0171742Y0153216D02*
X0168756Y0153216D01*
X0168756Y0153380D02*
X0171742Y0153380D01*
X0171742Y0153544D02*
X0168756Y0153544D01*
X0168756Y0153708D02*
X0171742Y0153708D01*
X0171742Y0153872D02*
X0168756Y0153872D01*
X0168756Y0154036D02*
X0171742Y0154036D01*
X0171742Y0154200D02*
X0168756Y0154200D01*
X0168756Y0154364D02*
X0171742Y0154364D01*
X0171742Y0154528D02*
X0168756Y0154528D01*
X0168756Y0154692D02*
X0171742Y0154692D01*
X0171742Y0154856D02*
X0168756Y0154856D01*
X0168756Y0155020D02*
X0171742Y0155020D01*
X0171742Y0155184D02*
X0168756Y0155184D01*
X0168756Y0155348D02*
X0171742Y0155348D01*
X0171742Y0155512D02*
X0168756Y0155512D01*
X0081391Y0131187D02*
X0081391Y0128201D01*
X0078799Y0128201D01*
X0078799Y0131187D01*
X0081391Y0131187D01*
X0081391Y0128365D02*
X0078799Y0128365D01*
X0078799Y0128529D02*
X0081391Y0128529D01*
X0081391Y0128693D02*
X0078799Y0128693D01*
X0078799Y0128857D02*
X0081391Y0128857D01*
X0081391Y0129021D02*
X0078799Y0129021D01*
X0078799Y0129185D02*
X0081391Y0129185D01*
X0081391Y0129349D02*
X0078799Y0129349D01*
X0078799Y0129513D02*
X0081391Y0129513D01*
X0081391Y0129677D02*
X0078799Y0129677D01*
X0078799Y0129841D02*
X0081391Y0129841D01*
X0081391Y0130005D02*
X0078799Y0130005D01*
X0078799Y0130169D02*
X0081391Y0130169D01*
X0081391Y0130333D02*
X0078799Y0130333D01*
X0078799Y0130497D02*
X0081391Y0130497D01*
X0081391Y0130661D02*
X0078799Y0130661D01*
X0078799Y0130825D02*
X0081391Y0130825D01*
X0081391Y0130989D02*
X0078799Y0130989D01*
X0078799Y0131153D02*
X0081391Y0131153D01*
X0081391Y0124495D02*
X0081391Y0121509D01*
X0078799Y0121509D01*
X0078799Y0124495D01*
X0081391Y0124495D01*
X0081391Y0121673D02*
X0078799Y0121673D01*
X0078799Y0121837D02*
X0081391Y0121837D01*
X0081391Y0122001D02*
X0078799Y0122001D01*
X0078799Y0122165D02*
X0081391Y0122165D01*
X0081391Y0122329D02*
X0078799Y0122329D01*
X0078799Y0122493D02*
X0081391Y0122493D01*
X0081391Y0122657D02*
X0078799Y0122657D01*
X0078799Y0122821D02*
X0081391Y0122821D01*
X0081391Y0122985D02*
X0078799Y0122985D01*
X0078799Y0123149D02*
X0081391Y0123149D01*
X0081391Y0123313D02*
X0078799Y0123313D01*
X0078799Y0123477D02*
X0081391Y0123477D01*
X0081391Y0123641D02*
X0078799Y0123641D01*
X0078799Y0123805D02*
X0081391Y0123805D01*
X0081391Y0123969D02*
X0078799Y0123969D01*
X0078799Y0124133D02*
X0081391Y0124133D01*
X0081391Y0124297D02*
X0078799Y0124297D01*
X0078799Y0124461D02*
X0081391Y0124461D01*
X0074738Y0124341D02*
X0072146Y0124341D01*
X0074738Y0124341D02*
X0074738Y0121355D01*
X0072146Y0121355D01*
X0072146Y0124341D01*
X0072146Y0121519D02*
X0074738Y0121519D01*
X0074738Y0121683D02*
X0072146Y0121683D01*
X0072146Y0121847D02*
X0074738Y0121847D01*
X0074738Y0122011D02*
X0072146Y0122011D01*
X0072146Y0122175D02*
X0074738Y0122175D01*
X0074738Y0122339D02*
X0072146Y0122339D01*
X0072146Y0122503D02*
X0074738Y0122503D01*
X0074738Y0122667D02*
X0072146Y0122667D01*
X0072146Y0122831D02*
X0074738Y0122831D01*
X0074738Y0122995D02*
X0072146Y0122995D01*
X0072146Y0123159D02*
X0074738Y0123159D01*
X0074738Y0123323D02*
X0072146Y0123323D01*
X0072146Y0123487D02*
X0074738Y0123487D01*
X0074738Y0123651D02*
X0072146Y0123651D01*
X0072146Y0123815D02*
X0074738Y0123815D01*
X0074738Y0123979D02*
X0072146Y0123979D01*
X0072146Y0124143D02*
X0074738Y0124143D01*
X0074738Y0124307D02*
X0072146Y0124307D01*
X0068045Y0124341D02*
X0065453Y0124341D01*
X0068045Y0124341D02*
X0068045Y0121355D01*
X0065453Y0121355D01*
X0065453Y0124341D01*
X0065453Y0121519D02*
X0068045Y0121519D01*
X0068045Y0121683D02*
X0065453Y0121683D01*
X0065453Y0121847D02*
X0068045Y0121847D01*
X0068045Y0122011D02*
X0065453Y0122011D01*
X0065453Y0122175D02*
X0068045Y0122175D01*
X0068045Y0122339D02*
X0065453Y0122339D01*
X0065453Y0122503D02*
X0068045Y0122503D01*
X0068045Y0122667D02*
X0065453Y0122667D01*
X0065453Y0122831D02*
X0068045Y0122831D01*
X0068045Y0122995D02*
X0065453Y0122995D01*
X0065453Y0123159D02*
X0068045Y0123159D01*
X0068045Y0123323D02*
X0065453Y0123323D01*
X0065453Y0123487D02*
X0068045Y0123487D01*
X0068045Y0123651D02*
X0065453Y0123651D01*
X0065453Y0123815D02*
X0068045Y0123815D01*
X0068045Y0123979D02*
X0065453Y0123979D01*
X0065453Y0124143D02*
X0068045Y0124143D01*
X0068045Y0124307D02*
X0065453Y0124307D01*
X0061391Y0124495D02*
X0061391Y0121509D01*
X0058799Y0121509D01*
X0058799Y0124495D01*
X0061391Y0124495D01*
X0061391Y0121673D02*
X0058799Y0121673D01*
X0058799Y0121837D02*
X0061391Y0121837D01*
X0061391Y0122001D02*
X0058799Y0122001D01*
X0058799Y0122165D02*
X0061391Y0122165D01*
X0061391Y0122329D02*
X0058799Y0122329D01*
X0058799Y0122493D02*
X0061391Y0122493D01*
X0061391Y0122657D02*
X0058799Y0122657D01*
X0058799Y0122821D02*
X0061391Y0122821D01*
X0061391Y0122985D02*
X0058799Y0122985D01*
X0058799Y0123149D02*
X0061391Y0123149D01*
X0061391Y0123313D02*
X0058799Y0123313D01*
X0058799Y0123477D02*
X0061391Y0123477D01*
X0061391Y0123641D02*
X0058799Y0123641D01*
X0058799Y0123805D02*
X0061391Y0123805D01*
X0061391Y0123969D02*
X0058799Y0123969D01*
X0058799Y0124133D02*
X0061391Y0124133D01*
X0061391Y0124297D02*
X0058799Y0124297D01*
X0058799Y0124461D02*
X0061391Y0124461D01*
X0061391Y0128201D02*
X0061391Y0131187D01*
X0061391Y0128201D02*
X0058799Y0128201D01*
X0058799Y0131187D01*
X0061391Y0131187D01*
X0061391Y0128365D02*
X0058799Y0128365D01*
X0058799Y0128529D02*
X0061391Y0128529D01*
X0061391Y0128693D02*
X0058799Y0128693D01*
X0058799Y0128857D02*
X0061391Y0128857D01*
X0061391Y0129021D02*
X0058799Y0129021D01*
X0058799Y0129185D02*
X0061391Y0129185D01*
X0061391Y0129349D02*
X0058799Y0129349D01*
X0058799Y0129513D02*
X0061391Y0129513D01*
X0061391Y0129677D02*
X0058799Y0129677D01*
X0058799Y0129841D02*
X0061391Y0129841D01*
X0061391Y0130005D02*
X0058799Y0130005D01*
X0058799Y0130169D02*
X0061391Y0130169D01*
X0061391Y0130333D02*
X0058799Y0130333D01*
X0058799Y0130497D02*
X0061391Y0130497D01*
X0061391Y0130661D02*
X0058799Y0130661D01*
X0058799Y0130825D02*
X0061391Y0130825D01*
X0061391Y0130989D02*
X0058799Y0130989D01*
X0058799Y0131153D02*
X0061391Y0131153D01*
X0072953Y0112341D02*
X0075545Y0112341D01*
X0075545Y0109355D01*
X0072953Y0109355D01*
X0072953Y0112341D01*
X0072953Y0109519D02*
X0075545Y0109519D01*
X0075545Y0109683D02*
X0072953Y0109683D01*
X0072953Y0109847D02*
X0075545Y0109847D01*
X0075545Y0110011D02*
X0072953Y0110011D01*
X0072953Y0110175D02*
X0075545Y0110175D01*
X0075545Y0110339D02*
X0072953Y0110339D01*
X0072953Y0110503D02*
X0075545Y0110503D01*
X0075545Y0110667D02*
X0072953Y0110667D01*
X0072953Y0110831D02*
X0075545Y0110831D01*
X0075545Y0110995D02*
X0072953Y0110995D01*
X0072953Y0111159D02*
X0075545Y0111159D01*
X0075545Y0111323D02*
X0072953Y0111323D01*
X0072953Y0111487D02*
X0075545Y0111487D01*
X0075545Y0111651D02*
X0072953Y0111651D01*
X0072953Y0111815D02*
X0075545Y0111815D01*
X0075545Y0111979D02*
X0072953Y0111979D01*
X0072953Y0112143D02*
X0075545Y0112143D01*
X0075545Y0112307D02*
X0072953Y0112307D01*
X0079646Y0112341D02*
X0082238Y0112341D01*
X0082238Y0109355D01*
X0079646Y0109355D01*
X0079646Y0112341D01*
X0079646Y0109519D02*
X0082238Y0109519D01*
X0082238Y0109683D02*
X0079646Y0109683D01*
X0079646Y0109847D02*
X0082238Y0109847D01*
X0082238Y0110011D02*
X0079646Y0110011D01*
X0079646Y0110175D02*
X0082238Y0110175D01*
X0082238Y0110339D02*
X0079646Y0110339D01*
X0079646Y0110503D02*
X0082238Y0110503D01*
X0082238Y0110667D02*
X0079646Y0110667D01*
X0079646Y0110831D02*
X0082238Y0110831D01*
X0082238Y0110995D02*
X0079646Y0110995D01*
X0079646Y0111159D02*
X0082238Y0111159D01*
X0082238Y0111323D02*
X0079646Y0111323D01*
X0079646Y0111487D02*
X0082238Y0111487D01*
X0082238Y0111651D02*
X0079646Y0111651D01*
X0079646Y0111815D02*
X0082238Y0111815D01*
X0082238Y0111979D02*
X0079646Y0111979D01*
X0079646Y0112143D02*
X0082238Y0112143D01*
X0082238Y0112307D02*
X0079646Y0112307D01*
X0078799Y0073187D02*
X0078799Y0070201D01*
X0078799Y0073187D02*
X0081391Y0073187D01*
X0081391Y0070201D01*
X0078799Y0070201D01*
X0078799Y0070365D02*
X0081391Y0070365D01*
X0081391Y0070529D02*
X0078799Y0070529D01*
X0078799Y0070693D02*
X0081391Y0070693D01*
X0081391Y0070857D02*
X0078799Y0070857D01*
X0078799Y0071021D02*
X0081391Y0071021D01*
X0081391Y0071185D02*
X0078799Y0071185D01*
X0078799Y0071349D02*
X0081391Y0071349D01*
X0081391Y0071513D02*
X0078799Y0071513D01*
X0078799Y0071677D02*
X0081391Y0071677D01*
X0081391Y0071841D02*
X0078799Y0071841D01*
X0078799Y0072005D02*
X0081391Y0072005D01*
X0081391Y0072169D02*
X0078799Y0072169D01*
X0078799Y0072333D02*
X0081391Y0072333D01*
X0081391Y0072497D02*
X0078799Y0072497D01*
X0078799Y0072661D02*
X0081391Y0072661D01*
X0081391Y0072825D02*
X0078799Y0072825D01*
X0078799Y0072989D02*
X0081391Y0072989D01*
X0081391Y0073153D02*
X0078799Y0073153D01*
X0074738Y0073341D02*
X0072146Y0073341D01*
X0074738Y0073341D02*
X0074738Y0070355D01*
X0072146Y0070355D01*
X0072146Y0073341D01*
X0072146Y0070519D02*
X0074738Y0070519D01*
X0074738Y0070683D02*
X0072146Y0070683D01*
X0072146Y0070847D02*
X0074738Y0070847D01*
X0074738Y0071011D02*
X0072146Y0071011D01*
X0072146Y0071175D02*
X0074738Y0071175D01*
X0074738Y0071339D02*
X0072146Y0071339D01*
X0072146Y0071503D02*
X0074738Y0071503D01*
X0074738Y0071667D02*
X0072146Y0071667D01*
X0072146Y0071831D02*
X0074738Y0071831D01*
X0074738Y0071995D02*
X0072146Y0071995D01*
X0072146Y0072159D02*
X0074738Y0072159D01*
X0074738Y0072323D02*
X0072146Y0072323D01*
X0072146Y0072487D02*
X0074738Y0072487D01*
X0074738Y0072651D02*
X0072146Y0072651D01*
X0072146Y0072815D02*
X0074738Y0072815D01*
X0074738Y0072979D02*
X0072146Y0072979D01*
X0072146Y0073143D02*
X0074738Y0073143D01*
X0074738Y0073307D02*
X0072146Y0073307D01*
X0068045Y0073341D02*
X0065453Y0073341D01*
X0068045Y0073341D02*
X0068045Y0070355D01*
X0065453Y0070355D01*
X0065453Y0073341D01*
X0065453Y0070519D02*
X0068045Y0070519D01*
X0068045Y0070683D02*
X0065453Y0070683D01*
X0065453Y0070847D02*
X0068045Y0070847D01*
X0068045Y0071011D02*
X0065453Y0071011D01*
X0065453Y0071175D02*
X0068045Y0071175D01*
X0068045Y0071339D02*
X0065453Y0071339D01*
X0065453Y0071503D02*
X0068045Y0071503D01*
X0068045Y0071667D02*
X0065453Y0071667D01*
X0065453Y0071831D02*
X0068045Y0071831D01*
X0068045Y0071995D02*
X0065453Y0071995D01*
X0065453Y0072159D02*
X0068045Y0072159D01*
X0068045Y0072323D02*
X0065453Y0072323D01*
X0065453Y0072487D02*
X0068045Y0072487D01*
X0068045Y0072651D02*
X0065453Y0072651D01*
X0065453Y0072815D02*
X0068045Y0072815D01*
X0068045Y0072979D02*
X0065453Y0072979D01*
X0065453Y0073143D02*
X0068045Y0073143D01*
X0068045Y0073307D02*
X0065453Y0073307D01*
X0058799Y0073187D02*
X0058799Y0070201D01*
X0058799Y0073187D02*
X0061391Y0073187D01*
X0061391Y0070201D01*
X0058799Y0070201D01*
X0058799Y0070365D02*
X0061391Y0070365D01*
X0061391Y0070529D02*
X0058799Y0070529D01*
X0058799Y0070693D02*
X0061391Y0070693D01*
X0061391Y0070857D02*
X0058799Y0070857D01*
X0058799Y0071021D02*
X0061391Y0071021D01*
X0061391Y0071185D02*
X0058799Y0071185D01*
X0058799Y0071349D02*
X0061391Y0071349D01*
X0061391Y0071513D02*
X0058799Y0071513D01*
X0058799Y0071677D02*
X0061391Y0071677D01*
X0061391Y0071841D02*
X0058799Y0071841D01*
X0058799Y0072005D02*
X0061391Y0072005D01*
X0061391Y0072169D02*
X0058799Y0072169D01*
X0058799Y0072333D02*
X0061391Y0072333D01*
X0061391Y0072497D02*
X0058799Y0072497D01*
X0058799Y0072661D02*
X0061391Y0072661D01*
X0061391Y0072825D02*
X0058799Y0072825D01*
X0058799Y0072989D02*
X0061391Y0072989D01*
X0061391Y0073153D02*
X0058799Y0073153D01*
X0058799Y0066495D02*
X0058799Y0063509D01*
X0058799Y0066495D02*
X0061391Y0066495D01*
X0061391Y0063509D01*
X0058799Y0063509D01*
X0058799Y0063673D02*
X0061391Y0063673D01*
X0061391Y0063837D02*
X0058799Y0063837D01*
X0058799Y0064001D02*
X0061391Y0064001D01*
X0061391Y0064165D02*
X0058799Y0064165D01*
X0058799Y0064329D02*
X0061391Y0064329D01*
X0061391Y0064493D02*
X0058799Y0064493D01*
X0058799Y0064657D02*
X0061391Y0064657D01*
X0061391Y0064821D02*
X0058799Y0064821D01*
X0058799Y0064985D02*
X0061391Y0064985D01*
X0061391Y0065149D02*
X0058799Y0065149D01*
X0058799Y0065313D02*
X0061391Y0065313D01*
X0061391Y0065477D02*
X0058799Y0065477D01*
X0058799Y0065641D02*
X0061391Y0065641D01*
X0061391Y0065805D02*
X0058799Y0065805D01*
X0058799Y0065969D02*
X0061391Y0065969D01*
X0061391Y0066133D02*
X0058799Y0066133D01*
X0058799Y0066297D02*
X0061391Y0066297D01*
X0061391Y0066461D02*
X0058799Y0066461D01*
X0078799Y0066495D02*
X0078799Y0063509D01*
X0078799Y0066495D02*
X0081391Y0066495D01*
X0081391Y0063509D01*
X0078799Y0063509D01*
X0078799Y0063673D02*
X0081391Y0063673D01*
X0081391Y0063837D02*
X0078799Y0063837D01*
X0078799Y0064001D02*
X0081391Y0064001D01*
X0081391Y0064165D02*
X0078799Y0064165D01*
X0078799Y0064329D02*
X0081391Y0064329D01*
X0081391Y0064493D02*
X0078799Y0064493D01*
X0078799Y0064657D02*
X0081391Y0064657D01*
X0081391Y0064821D02*
X0078799Y0064821D01*
X0078799Y0064985D02*
X0081391Y0064985D01*
X0081391Y0065149D02*
X0078799Y0065149D01*
X0078799Y0065313D02*
X0081391Y0065313D01*
X0081391Y0065477D02*
X0078799Y0065477D01*
X0078799Y0065641D02*
X0081391Y0065641D01*
X0081391Y0065805D02*
X0078799Y0065805D01*
X0078799Y0065969D02*
X0081391Y0065969D01*
X0081391Y0066133D02*
X0078799Y0066133D01*
X0078799Y0066297D02*
X0081391Y0066297D01*
X0081391Y0066461D02*
X0078799Y0066461D01*
D12*
X0241191Y0043290D02*
X0241191Y0039886D01*
X0236999Y0039886D01*
X0236999Y0043290D01*
X0241191Y0043290D01*
X0241191Y0040064D02*
X0236999Y0040064D01*
X0236999Y0040242D02*
X0241191Y0040242D01*
X0241191Y0040420D02*
X0236999Y0040420D01*
X0236999Y0040598D02*
X0241191Y0040598D01*
X0241191Y0040776D02*
X0236999Y0040776D01*
X0236999Y0040954D02*
X0241191Y0040954D01*
X0241191Y0041132D02*
X0236999Y0041132D01*
X0236999Y0041310D02*
X0241191Y0041310D01*
X0241191Y0041488D02*
X0236999Y0041488D01*
X0236999Y0041666D02*
X0241191Y0041666D01*
X0241191Y0041844D02*
X0236999Y0041844D01*
X0236999Y0042022D02*
X0241191Y0042022D01*
X0241191Y0042200D02*
X0236999Y0042200D01*
X0236999Y0042378D02*
X0241191Y0042378D01*
X0241191Y0042556D02*
X0236999Y0042556D01*
X0236999Y0042734D02*
X0241191Y0042734D01*
X0241191Y0042912D02*
X0236999Y0042912D01*
X0236999Y0043090D02*
X0241191Y0043090D01*
X0241191Y0043268D02*
X0236999Y0043268D01*
X0241191Y0035810D02*
X0241191Y0032406D01*
X0236999Y0032406D01*
X0236999Y0035810D01*
X0241191Y0035810D01*
X0241191Y0032584D02*
X0236999Y0032584D01*
X0236999Y0032762D02*
X0241191Y0032762D01*
X0241191Y0032940D02*
X0236999Y0032940D01*
X0236999Y0033118D02*
X0241191Y0033118D01*
X0241191Y0033296D02*
X0236999Y0033296D01*
X0236999Y0033474D02*
X0241191Y0033474D01*
X0241191Y0033652D02*
X0236999Y0033652D01*
X0236999Y0033830D02*
X0241191Y0033830D01*
X0241191Y0034008D02*
X0236999Y0034008D01*
X0236999Y0034186D02*
X0241191Y0034186D01*
X0241191Y0034364D02*
X0236999Y0034364D01*
X0236999Y0034542D02*
X0241191Y0034542D01*
X0241191Y0034720D02*
X0236999Y0034720D01*
X0236999Y0034898D02*
X0241191Y0034898D01*
X0241191Y0035076D02*
X0236999Y0035076D01*
X0236999Y0035254D02*
X0241191Y0035254D01*
X0241191Y0035432D02*
X0236999Y0035432D01*
X0236999Y0035610D02*
X0241191Y0035610D01*
X0241191Y0035788D02*
X0236999Y0035788D01*
X0261153Y0147252D02*
X0264557Y0147252D01*
X0261153Y0147252D02*
X0261153Y0151444D01*
X0264557Y0151444D01*
X0264557Y0147252D01*
X0264557Y0147430D02*
X0261153Y0147430D01*
X0261153Y0147608D02*
X0264557Y0147608D01*
X0264557Y0147786D02*
X0261153Y0147786D01*
X0261153Y0147964D02*
X0264557Y0147964D01*
X0264557Y0148142D02*
X0261153Y0148142D01*
X0261153Y0148320D02*
X0264557Y0148320D01*
X0264557Y0148498D02*
X0261153Y0148498D01*
X0261153Y0148676D02*
X0264557Y0148676D01*
X0264557Y0148854D02*
X0261153Y0148854D01*
X0261153Y0149032D02*
X0264557Y0149032D01*
X0264557Y0149210D02*
X0261153Y0149210D01*
X0261153Y0149388D02*
X0264557Y0149388D01*
X0264557Y0149566D02*
X0261153Y0149566D01*
X0261153Y0149744D02*
X0264557Y0149744D01*
X0264557Y0149922D02*
X0261153Y0149922D01*
X0261153Y0150100D02*
X0264557Y0150100D01*
X0264557Y0150278D02*
X0261153Y0150278D01*
X0261153Y0150456D02*
X0264557Y0150456D01*
X0264557Y0150634D02*
X0261153Y0150634D01*
X0261153Y0150812D02*
X0264557Y0150812D01*
X0264557Y0150990D02*
X0261153Y0150990D01*
X0261153Y0151168D02*
X0264557Y0151168D01*
X0264557Y0151346D02*
X0261153Y0151346D01*
X0268633Y0147252D02*
X0272037Y0147252D01*
X0268633Y0147252D02*
X0268633Y0151444D01*
X0272037Y0151444D01*
X0272037Y0147252D01*
X0272037Y0147430D02*
X0268633Y0147430D01*
X0268633Y0147608D02*
X0272037Y0147608D01*
X0272037Y0147786D02*
X0268633Y0147786D01*
X0268633Y0147964D02*
X0272037Y0147964D01*
X0272037Y0148142D02*
X0268633Y0148142D01*
X0268633Y0148320D02*
X0272037Y0148320D01*
X0272037Y0148498D02*
X0268633Y0148498D01*
X0268633Y0148676D02*
X0272037Y0148676D01*
X0272037Y0148854D02*
X0268633Y0148854D01*
X0268633Y0149032D02*
X0272037Y0149032D01*
X0272037Y0149210D02*
X0268633Y0149210D01*
X0268633Y0149388D02*
X0272037Y0149388D01*
X0272037Y0149566D02*
X0268633Y0149566D01*
X0268633Y0149744D02*
X0272037Y0149744D01*
X0272037Y0149922D02*
X0268633Y0149922D01*
X0268633Y0150100D02*
X0272037Y0150100D01*
X0272037Y0150278D02*
X0268633Y0150278D01*
X0268633Y0150456D02*
X0272037Y0150456D01*
X0272037Y0150634D02*
X0268633Y0150634D01*
X0268633Y0150812D02*
X0272037Y0150812D01*
X0272037Y0150990D02*
X0268633Y0150990D01*
X0268633Y0151168D02*
X0272037Y0151168D01*
X0272037Y0151346D02*
X0268633Y0151346D01*
X0108037Y0159944D02*
X0104633Y0159944D01*
X0108037Y0159944D02*
X0108037Y0155752D01*
X0104633Y0155752D01*
X0104633Y0159944D01*
X0104633Y0155930D02*
X0108037Y0155930D01*
X0108037Y0156108D02*
X0104633Y0156108D01*
X0104633Y0156286D02*
X0108037Y0156286D01*
X0108037Y0156464D02*
X0104633Y0156464D01*
X0104633Y0156642D02*
X0108037Y0156642D01*
X0108037Y0156820D02*
X0104633Y0156820D01*
X0104633Y0156998D02*
X0108037Y0156998D01*
X0108037Y0157176D02*
X0104633Y0157176D01*
X0104633Y0157354D02*
X0108037Y0157354D01*
X0108037Y0157532D02*
X0104633Y0157532D01*
X0104633Y0157710D02*
X0108037Y0157710D01*
X0108037Y0157888D02*
X0104633Y0157888D01*
X0104633Y0158066D02*
X0108037Y0158066D01*
X0108037Y0158244D02*
X0104633Y0158244D01*
X0104633Y0158422D02*
X0108037Y0158422D01*
X0108037Y0158600D02*
X0104633Y0158600D01*
X0104633Y0158778D02*
X0108037Y0158778D01*
X0108037Y0158956D02*
X0104633Y0158956D01*
X0104633Y0159134D02*
X0108037Y0159134D01*
X0108037Y0159312D02*
X0104633Y0159312D01*
X0104633Y0159490D02*
X0108037Y0159490D01*
X0108037Y0159668D02*
X0104633Y0159668D01*
X0104633Y0159846D02*
X0108037Y0159846D01*
X0100557Y0159944D02*
X0097153Y0159944D01*
X0100557Y0159944D02*
X0100557Y0155752D01*
X0097153Y0155752D01*
X0097153Y0159944D01*
X0097153Y0155930D02*
X0100557Y0155930D01*
X0100557Y0156108D02*
X0097153Y0156108D01*
X0097153Y0156286D02*
X0100557Y0156286D01*
X0100557Y0156464D02*
X0097153Y0156464D01*
X0097153Y0156642D02*
X0100557Y0156642D01*
X0100557Y0156820D02*
X0097153Y0156820D01*
X0097153Y0156998D02*
X0100557Y0156998D01*
X0100557Y0157176D02*
X0097153Y0157176D01*
X0097153Y0157354D02*
X0100557Y0157354D01*
X0100557Y0157532D02*
X0097153Y0157532D01*
X0097153Y0157710D02*
X0100557Y0157710D01*
X0100557Y0157888D02*
X0097153Y0157888D01*
X0097153Y0158066D02*
X0100557Y0158066D01*
X0100557Y0158244D02*
X0097153Y0158244D01*
X0097153Y0158422D02*
X0100557Y0158422D01*
X0100557Y0158600D02*
X0097153Y0158600D01*
X0097153Y0158778D02*
X0100557Y0158778D01*
X0100557Y0158956D02*
X0097153Y0158956D01*
X0097153Y0159134D02*
X0100557Y0159134D01*
X0100557Y0159312D02*
X0097153Y0159312D01*
X0097153Y0159490D02*
X0100557Y0159490D01*
X0100557Y0159668D02*
X0097153Y0159668D01*
X0097153Y0159846D02*
X0100557Y0159846D01*
D13*
X0244956Y0137893D02*
X0244956Y0134189D01*
X0244956Y0137893D02*
X0250234Y0137893D01*
X0250234Y0134189D01*
X0244956Y0134189D01*
X0244956Y0134342D02*
X0250234Y0134342D01*
X0250234Y0134495D02*
X0244956Y0134495D01*
X0244956Y0134648D02*
X0250234Y0134648D01*
X0250234Y0134801D02*
X0244956Y0134801D01*
X0244956Y0134954D02*
X0250234Y0134954D01*
X0250234Y0135107D02*
X0244956Y0135107D01*
X0244956Y0135260D02*
X0250234Y0135260D01*
X0250234Y0135413D02*
X0244956Y0135413D01*
X0244956Y0135566D02*
X0250234Y0135566D01*
X0250234Y0135719D02*
X0244956Y0135719D01*
X0244956Y0135872D02*
X0250234Y0135872D01*
X0250234Y0136025D02*
X0244956Y0136025D01*
X0244956Y0136178D02*
X0250234Y0136178D01*
X0250234Y0136331D02*
X0244956Y0136331D01*
X0244956Y0136484D02*
X0250234Y0136484D01*
X0250234Y0136637D02*
X0244956Y0136637D01*
X0244956Y0136790D02*
X0250234Y0136790D01*
X0250234Y0136943D02*
X0244956Y0136943D01*
X0244956Y0137096D02*
X0250234Y0137096D01*
X0250234Y0137249D02*
X0244956Y0137249D01*
X0244956Y0137402D02*
X0250234Y0137402D01*
X0250234Y0137555D02*
X0244956Y0137555D01*
X0244956Y0137708D02*
X0250234Y0137708D01*
X0250234Y0137861D02*
X0244956Y0137861D01*
X0244956Y0124507D02*
X0244956Y0120803D01*
X0244956Y0124507D02*
X0250234Y0124507D01*
X0250234Y0120803D01*
X0244956Y0120803D01*
X0244956Y0120956D02*
X0250234Y0120956D01*
X0250234Y0121109D02*
X0244956Y0121109D01*
X0244956Y0121262D02*
X0250234Y0121262D01*
X0250234Y0121415D02*
X0244956Y0121415D01*
X0244956Y0121568D02*
X0250234Y0121568D01*
X0250234Y0121721D02*
X0244956Y0121721D01*
X0244956Y0121874D02*
X0250234Y0121874D01*
X0250234Y0122027D02*
X0244956Y0122027D01*
X0244956Y0122180D02*
X0250234Y0122180D01*
X0250234Y0122333D02*
X0244956Y0122333D01*
X0244956Y0122486D02*
X0250234Y0122486D01*
X0250234Y0122639D02*
X0244956Y0122639D01*
X0244956Y0122792D02*
X0250234Y0122792D01*
X0250234Y0122945D02*
X0244956Y0122945D01*
X0244956Y0123098D02*
X0250234Y0123098D01*
X0250234Y0123251D02*
X0244956Y0123251D01*
X0244956Y0123404D02*
X0250234Y0123404D01*
X0250234Y0123557D02*
X0244956Y0123557D01*
X0244956Y0123710D02*
X0250234Y0123710D01*
X0250234Y0123863D02*
X0244956Y0123863D01*
X0244956Y0124016D02*
X0250234Y0124016D01*
X0250234Y0124169D02*
X0244956Y0124169D01*
X0244956Y0124322D02*
X0250234Y0124322D01*
X0250234Y0124475D02*
X0244956Y0124475D01*
X0345234Y0140803D02*
X0345234Y0144507D01*
X0345234Y0140803D02*
X0339956Y0140803D01*
X0339956Y0144507D01*
X0345234Y0144507D01*
X0345234Y0140956D02*
X0339956Y0140956D01*
X0339956Y0141109D02*
X0345234Y0141109D01*
X0345234Y0141262D02*
X0339956Y0141262D01*
X0339956Y0141415D02*
X0345234Y0141415D01*
X0345234Y0141568D02*
X0339956Y0141568D01*
X0339956Y0141721D02*
X0345234Y0141721D01*
X0345234Y0141874D02*
X0339956Y0141874D01*
X0339956Y0142027D02*
X0345234Y0142027D01*
X0345234Y0142180D02*
X0339956Y0142180D01*
X0339956Y0142333D02*
X0345234Y0142333D01*
X0345234Y0142486D02*
X0339956Y0142486D01*
X0339956Y0142639D02*
X0345234Y0142639D01*
X0345234Y0142792D02*
X0339956Y0142792D01*
X0339956Y0142945D02*
X0345234Y0142945D01*
X0345234Y0143098D02*
X0339956Y0143098D01*
X0339956Y0143251D02*
X0345234Y0143251D01*
X0345234Y0143404D02*
X0339956Y0143404D01*
X0339956Y0143557D02*
X0345234Y0143557D01*
X0345234Y0143710D02*
X0339956Y0143710D01*
X0339956Y0143863D02*
X0345234Y0143863D01*
X0345234Y0144016D02*
X0339956Y0144016D01*
X0339956Y0144169D02*
X0345234Y0144169D01*
X0345234Y0144322D02*
X0339956Y0144322D01*
X0339956Y0144475D02*
X0345234Y0144475D01*
X0355234Y0144507D02*
X0355234Y0140803D01*
X0349956Y0140803D01*
X0349956Y0144507D01*
X0355234Y0144507D01*
X0355234Y0140956D02*
X0349956Y0140956D01*
X0349956Y0141109D02*
X0355234Y0141109D01*
X0355234Y0141262D02*
X0349956Y0141262D01*
X0349956Y0141415D02*
X0355234Y0141415D01*
X0355234Y0141568D02*
X0349956Y0141568D01*
X0349956Y0141721D02*
X0355234Y0141721D01*
X0355234Y0141874D02*
X0349956Y0141874D01*
X0349956Y0142027D02*
X0355234Y0142027D01*
X0355234Y0142180D02*
X0349956Y0142180D01*
X0349956Y0142333D02*
X0355234Y0142333D01*
X0355234Y0142486D02*
X0349956Y0142486D01*
X0349956Y0142639D02*
X0355234Y0142639D01*
X0355234Y0142792D02*
X0349956Y0142792D01*
X0349956Y0142945D02*
X0355234Y0142945D01*
X0355234Y0143098D02*
X0349956Y0143098D01*
X0349956Y0143251D02*
X0355234Y0143251D01*
X0355234Y0143404D02*
X0349956Y0143404D01*
X0349956Y0143557D02*
X0355234Y0143557D01*
X0355234Y0143710D02*
X0349956Y0143710D01*
X0349956Y0143863D02*
X0355234Y0143863D01*
X0355234Y0144016D02*
X0349956Y0144016D01*
X0349956Y0144169D02*
X0355234Y0144169D01*
X0355234Y0144322D02*
X0349956Y0144322D01*
X0349956Y0144475D02*
X0355234Y0144475D01*
X0355234Y0154189D02*
X0355234Y0157893D01*
X0355234Y0154189D02*
X0349956Y0154189D01*
X0349956Y0157893D01*
X0355234Y0157893D01*
X0355234Y0154342D02*
X0349956Y0154342D01*
X0349956Y0154495D02*
X0355234Y0154495D01*
X0355234Y0154648D02*
X0349956Y0154648D01*
X0349956Y0154801D02*
X0355234Y0154801D01*
X0355234Y0154954D02*
X0349956Y0154954D01*
X0349956Y0155107D02*
X0355234Y0155107D01*
X0355234Y0155260D02*
X0349956Y0155260D01*
X0349956Y0155413D02*
X0355234Y0155413D01*
X0355234Y0155566D02*
X0349956Y0155566D01*
X0349956Y0155719D02*
X0355234Y0155719D01*
X0355234Y0155872D02*
X0349956Y0155872D01*
X0349956Y0156025D02*
X0355234Y0156025D01*
X0355234Y0156178D02*
X0349956Y0156178D01*
X0349956Y0156331D02*
X0355234Y0156331D01*
X0355234Y0156484D02*
X0349956Y0156484D01*
X0349956Y0156637D02*
X0355234Y0156637D01*
X0355234Y0156790D02*
X0349956Y0156790D01*
X0349956Y0156943D02*
X0355234Y0156943D01*
X0355234Y0157096D02*
X0349956Y0157096D01*
X0349956Y0157249D02*
X0355234Y0157249D01*
X0355234Y0157402D02*
X0349956Y0157402D01*
X0349956Y0157555D02*
X0355234Y0157555D01*
X0355234Y0157708D02*
X0349956Y0157708D01*
X0349956Y0157861D02*
X0355234Y0157861D01*
X0345234Y0157893D02*
X0345234Y0154189D01*
X0339956Y0154189D01*
X0339956Y0157893D01*
X0345234Y0157893D01*
X0345234Y0154342D02*
X0339956Y0154342D01*
X0339956Y0154495D02*
X0345234Y0154495D01*
X0345234Y0154648D02*
X0339956Y0154648D01*
X0339956Y0154801D02*
X0345234Y0154801D01*
X0345234Y0154954D02*
X0339956Y0154954D01*
X0339956Y0155107D02*
X0345234Y0155107D01*
X0345234Y0155260D02*
X0339956Y0155260D01*
X0339956Y0155413D02*
X0345234Y0155413D01*
X0345234Y0155566D02*
X0339956Y0155566D01*
X0339956Y0155719D02*
X0345234Y0155719D01*
X0345234Y0155872D02*
X0339956Y0155872D01*
X0339956Y0156025D02*
X0345234Y0156025D01*
X0345234Y0156178D02*
X0339956Y0156178D01*
X0339956Y0156331D02*
X0345234Y0156331D01*
X0345234Y0156484D02*
X0339956Y0156484D01*
X0339956Y0156637D02*
X0345234Y0156637D01*
X0345234Y0156790D02*
X0339956Y0156790D01*
X0339956Y0156943D02*
X0345234Y0156943D01*
X0345234Y0157096D02*
X0339956Y0157096D01*
X0339956Y0157249D02*
X0345234Y0157249D01*
X0345234Y0157402D02*
X0339956Y0157402D01*
X0339956Y0157555D02*
X0345234Y0157555D01*
X0345234Y0157708D02*
X0339956Y0157708D01*
X0339956Y0157861D02*
X0345234Y0157861D01*
D14*
X0393409Y0096809D02*
X0397757Y0096809D01*
X0397757Y0090887D01*
X0393409Y0090887D01*
X0393409Y0096809D01*
X0393409Y0091067D02*
X0397757Y0091067D01*
X0397757Y0091247D02*
X0393409Y0091247D01*
X0393409Y0091427D02*
X0397757Y0091427D01*
X0397757Y0091607D02*
X0393409Y0091607D01*
X0393409Y0091787D02*
X0397757Y0091787D01*
X0397757Y0091967D02*
X0393409Y0091967D01*
X0393409Y0092147D02*
X0397757Y0092147D01*
X0397757Y0092327D02*
X0393409Y0092327D01*
X0393409Y0092507D02*
X0397757Y0092507D01*
X0397757Y0092687D02*
X0393409Y0092687D01*
X0393409Y0092867D02*
X0397757Y0092867D01*
X0397757Y0093047D02*
X0393409Y0093047D01*
X0393409Y0093227D02*
X0397757Y0093227D01*
X0397757Y0093407D02*
X0393409Y0093407D01*
X0393409Y0093587D02*
X0397757Y0093587D01*
X0397757Y0093767D02*
X0393409Y0093767D01*
X0393409Y0093947D02*
X0397757Y0093947D01*
X0397757Y0094127D02*
X0393409Y0094127D01*
X0393409Y0094307D02*
X0397757Y0094307D01*
X0397757Y0094487D02*
X0393409Y0094487D01*
X0393409Y0094667D02*
X0397757Y0094667D01*
X0397757Y0094847D02*
X0393409Y0094847D01*
X0393409Y0095027D02*
X0397757Y0095027D01*
X0397757Y0095207D02*
X0393409Y0095207D01*
X0393409Y0095387D02*
X0397757Y0095387D01*
X0397757Y0095567D02*
X0393409Y0095567D01*
X0393409Y0095747D02*
X0397757Y0095747D01*
X0397757Y0095927D02*
X0393409Y0095927D01*
X0393409Y0096107D02*
X0397757Y0096107D01*
X0397757Y0096287D02*
X0393409Y0096287D01*
X0393409Y0096467D02*
X0397757Y0096467D01*
X0397757Y0096647D02*
X0393409Y0096647D01*
X0404433Y0096809D02*
X0408781Y0096809D01*
X0408781Y0090887D01*
X0404433Y0090887D01*
X0404433Y0096809D01*
X0404433Y0091067D02*
X0408781Y0091067D01*
X0408781Y0091247D02*
X0404433Y0091247D01*
X0404433Y0091427D02*
X0408781Y0091427D01*
X0408781Y0091607D02*
X0404433Y0091607D01*
X0404433Y0091787D02*
X0408781Y0091787D01*
X0408781Y0091967D02*
X0404433Y0091967D01*
X0404433Y0092147D02*
X0408781Y0092147D01*
X0408781Y0092327D02*
X0404433Y0092327D01*
X0404433Y0092507D02*
X0408781Y0092507D01*
X0408781Y0092687D02*
X0404433Y0092687D01*
X0404433Y0092867D02*
X0408781Y0092867D01*
X0408781Y0093047D02*
X0404433Y0093047D01*
X0404433Y0093227D02*
X0408781Y0093227D01*
X0408781Y0093407D02*
X0404433Y0093407D01*
X0404433Y0093587D02*
X0408781Y0093587D01*
X0408781Y0093767D02*
X0404433Y0093767D01*
X0404433Y0093947D02*
X0408781Y0093947D01*
X0408781Y0094127D02*
X0404433Y0094127D01*
X0404433Y0094307D02*
X0408781Y0094307D01*
X0408781Y0094487D02*
X0404433Y0094487D01*
X0404433Y0094667D02*
X0408781Y0094667D01*
X0408781Y0094847D02*
X0404433Y0094847D01*
X0404433Y0095027D02*
X0408781Y0095027D01*
X0408781Y0095207D02*
X0404433Y0095207D01*
X0404433Y0095387D02*
X0408781Y0095387D01*
X0408781Y0095567D02*
X0404433Y0095567D01*
X0404433Y0095747D02*
X0408781Y0095747D01*
X0408781Y0095927D02*
X0404433Y0095927D01*
X0404433Y0096107D02*
X0408781Y0096107D01*
X0408781Y0096287D02*
X0404433Y0096287D01*
X0404433Y0096467D02*
X0408781Y0096467D01*
X0408781Y0096647D02*
X0404433Y0096647D01*
X0206434Y0048034D02*
X0206434Y0043686D01*
X0197756Y0043686D01*
X0197756Y0048034D01*
X0206434Y0048034D01*
X0206434Y0043866D02*
X0197756Y0043866D01*
X0197756Y0044046D02*
X0206434Y0044046D01*
X0206434Y0044226D02*
X0197756Y0044226D01*
X0197756Y0044406D02*
X0206434Y0044406D01*
X0206434Y0044586D02*
X0197756Y0044586D01*
X0197756Y0044766D02*
X0206434Y0044766D01*
X0206434Y0044946D02*
X0197756Y0044946D01*
X0197756Y0045126D02*
X0206434Y0045126D01*
X0206434Y0045306D02*
X0197756Y0045306D01*
X0197756Y0045486D02*
X0206434Y0045486D01*
X0206434Y0045666D02*
X0197756Y0045666D01*
X0197756Y0045846D02*
X0206434Y0045846D01*
X0206434Y0046026D02*
X0197756Y0046026D01*
X0197756Y0046206D02*
X0206434Y0046206D01*
X0206434Y0046386D02*
X0197756Y0046386D01*
X0197756Y0046566D02*
X0206434Y0046566D01*
X0206434Y0046746D02*
X0197756Y0046746D01*
X0197756Y0046926D02*
X0206434Y0046926D01*
X0206434Y0047106D02*
X0197756Y0047106D01*
X0197756Y0047286D02*
X0206434Y0047286D01*
X0206434Y0047466D02*
X0197756Y0047466D01*
X0197756Y0047646D02*
X0206434Y0047646D01*
X0206434Y0047826D02*
X0197756Y0047826D01*
X0197756Y0048006D02*
X0206434Y0048006D01*
X0206434Y0037010D02*
X0206434Y0032662D01*
X0197756Y0032662D01*
X0197756Y0037010D01*
X0206434Y0037010D01*
X0206434Y0032842D02*
X0197756Y0032842D01*
X0197756Y0033022D02*
X0206434Y0033022D01*
X0206434Y0033202D02*
X0197756Y0033202D01*
X0197756Y0033382D02*
X0206434Y0033382D01*
X0206434Y0033562D02*
X0197756Y0033562D01*
X0197756Y0033742D02*
X0206434Y0033742D01*
X0206434Y0033922D02*
X0197756Y0033922D01*
X0197756Y0034102D02*
X0206434Y0034102D01*
X0206434Y0034282D02*
X0197756Y0034282D01*
X0197756Y0034462D02*
X0206434Y0034462D01*
X0206434Y0034642D02*
X0197756Y0034642D01*
X0197756Y0034822D02*
X0206434Y0034822D01*
X0206434Y0035002D02*
X0197756Y0035002D01*
X0197756Y0035182D02*
X0206434Y0035182D01*
X0206434Y0035362D02*
X0197756Y0035362D01*
X0197756Y0035542D02*
X0206434Y0035542D01*
X0206434Y0035722D02*
X0197756Y0035722D01*
X0197756Y0035902D02*
X0206434Y0035902D01*
X0206434Y0036082D02*
X0197756Y0036082D01*
X0197756Y0036262D02*
X0206434Y0036262D01*
X0206434Y0036442D02*
X0197756Y0036442D01*
X0197756Y0036622D02*
X0206434Y0036622D01*
X0206434Y0036802D02*
X0197756Y0036802D01*
X0197756Y0036982D02*
X0206434Y0036982D01*
X0127781Y0161309D02*
X0123433Y0161309D01*
X0127781Y0161309D02*
X0127781Y0155387D01*
X0123433Y0155387D01*
X0123433Y0161309D01*
X0123433Y0155567D02*
X0127781Y0155567D01*
X0127781Y0155747D02*
X0123433Y0155747D01*
X0123433Y0155927D02*
X0127781Y0155927D01*
X0127781Y0156107D02*
X0123433Y0156107D01*
X0123433Y0156287D02*
X0127781Y0156287D01*
X0127781Y0156467D02*
X0123433Y0156467D01*
X0123433Y0156647D02*
X0127781Y0156647D01*
X0127781Y0156827D02*
X0123433Y0156827D01*
X0123433Y0157007D02*
X0127781Y0157007D01*
X0127781Y0157187D02*
X0123433Y0157187D01*
X0123433Y0157367D02*
X0127781Y0157367D01*
X0127781Y0157547D02*
X0123433Y0157547D01*
X0123433Y0157727D02*
X0127781Y0157727D01*
X0127781Y0157907D02*
X0123433Y0157907D01*
X0123433Y0158087D02*
X0127781Y0158087D01*
X0127781Y0158267D02*
X0123433Y0158267D01*
X0123433Y0158447D02*
X0127781Y0158447D01*
X0127781Y0158627D02*
X0123433Y0158627D01*
X0123433Y0158807D02*
X0127781Y0158807D01*
X0127781Y0158987D02*
X0123433Y0158987D01*
X0123433Y0159167D02*
X0127781Y0159167D01*
X0127781Y0159347D02*
X0123433Y0159347D01*
X0123433Y0159527D02*
X0127781Y0159527D01*
X0127781Y0159707D02*
X0123433Y0159707D01*
X0123433Y0159887D02*
X0127781Y0159887D01*
X0127781Y0160067D02*
X0123433Y0160067D01*
X0123433Y0160247D02*
X0127781Y0160247D01*
X0127781Y0160427D02*
X0123433Y0160427D01*
X0123433Y0160607D02*
X0127781Y0160607D01*
X0127781Y0160787D02*
X0123433Y0160787D01*
X0123433Y0160967D02*
X0127781Y0160967D01*
X0127781Y0161147D02*
X0123433Y0161147D01*
X0116757Y0161309D02*
X0112409Y0161309D01*
X0116757Y0161309D02*
X0116757Y0155387D01*
X0112409Y0155387D01*
X0112409Y0161309D01*
X0112409Y0155567D02*
X0116757Y0155567D01*
X0116757Y0155747D02*
X0112409Y0155747D01*
X0112409Y0155927D02*
X0116757Y0155927D01*
X0116757Y0156107D02*
X0112409Y0156107D01*
X0112409Y0156287D02*
X0116757Y0156287D01*
X0116757Y0156467D02*
X0112409Y0156467D01*
X0112409Y0156647D02*
X0116757Y0156647D01*
X0116757Y0156827D02*
X0112409Y0156827D01*
X0112409Y0157007D02*
X0116757Y0157007D01*
X0116757Y0157187D02*
X0112409Y0157187D01*
X0112409Y0157367D02*
X0116757Y0157367D01*
X0116757Y0157547D02*
X0112409Y0157547D01*
X0112409Y0157727D02*
X0116757Y0157727D01*
X0116757Y0157907D02*
X0112409Y0157907D01*
X0112409Y0158087D02*
X0116757Y0158087D01*
X0116757Y0158267D02*
X0112409Y0158267D01*
X0112409Y0158447D02*
X0116757Y0158447D01*
X0116757Y0158627D02*
X0112409Y0158627D01*
X0112409Y0158807D02*
X0116757Y0158807D01*
X0116757Y0158987D02*
X0112409Y0158987D01*
X0112409Y0159167D02*
X0116757Y0159167D01*
X0116757Y0159347D02*
X0112409Y0159347D01*
X0112409Y0159527D02*
X0116757Y0159527D01*
X0116757Y0159707D02*
X0112409Y0159707D01*
X0112409Y0159887D02*
X0116757Y0159887D01*
X0116757Y0160067D02*
X0112409Y0160067D01*
X0112409Y0160247D02*
X0116757Y0160247D01*
X0116757Y0160427D02*
X0112409Y0160427D01*
X0112409Y0160607D02*
X0116757Y0160607D01*
X0116757Y0160787D02*
X0112409Y0160787D01*
X0112409Y0160967D02*
X0116757Y0160967D01*
X0116757Y0161147D02*
X0112409Y0161147D01*
D15*
X0113973Y0149347D02*
X0113973Y0143837D01*
X0110036Y0143837D02*
X0110036Y0149347D01*
X0106099Y0149347D02*
X0106099Y0143837D01*
X0117910Y0143837D02*
X0117910Y0149347D01*
X0121847Y0149347D02*
X0121847Y0143837D01*
X0125784Y0143837D02*
X0125784Y0149347D01*
X0129721Y0149347D02*
X0129721Y0143837D01*
X0133658Y0143837D02*
X0133658Y0149347D01*
X0137595Y0149347D02*
X0137595Y0143837D01*
X0141532Y0143837D02*
X0141532Y0149347D01*
X0145469Y0149347D02*
X0145469Y0143837D01*
X0149406Y0143837D02*
X0149406Y0149347D01*
X0153343Y0149347D02*
X0153343Y0143837D01*
X0157280Y0143837D02*
X0157280Y0149347D01*
X0161217Y0149347D02*
X0161217Y0143837D01*
X0165154Y0143837D02*
X0165154Y0149347D01*
X0169091Y0149347D02*
X0169091Y0143837D01*
X0182084Y0130844D02*
X0187594Y0130844D01*
X0187594Y0126907D02*
X0182084Y0126907D01*
X0182084Y0122970D02*
X0187594Y0122970D01*
X0187594Y0119033D02*
X0182084Y0119033D01*
X0182084Y0115096D02*
X0187594Y0115096D01*
X0187594Y0111159D02*
X0182084Y0111159D01*
X0182084Y0107222D02*
X0187594Y0107222D01*
X0187594Y0103285D02*
X0182084Y0103285D01*
X0182084Y0099348D02*
X0187594Y0099348D01*
X0187594Y0095411D02*
X0182084Y0095411D01*
X0182084Y0091474D02*
X0187594Y0091474D01*
X0187594Y0087537D02*
X0182084Y0087537D01*
X0182084Y0083600D02*
X0187594Y0083600D01*
X0187594Y0079663D02*
X0182084Y0079663D01*
X0182084Y0075726D02*
X0187594Y0075726D01*
X0187594Y0071789D02*
X0182084Y0071789D01*
X0182084Y0067852D02*
X0187594Y0067852D01*
X0169091Y0054859D02*
X0169091Y0049349D01*
X0165154Y0049349D02*
X0165154Y0054859D01*
X0161217Y0054859D02*
X0161217Y0049349D01*
X0157280Y0049349D02*
X0157280Y0054859D01*
X0153343Y0054859D02*
X0153343Y0049349D01*
X0149406Y0049349D02*
X0149406Y0054859D01*
X0145469Y0054859D02*
X0145469Y0049349D01*
X0141532Y0049349D02*
X0141532Y0054859D01*
X0137595Y0054859D02*
X0137595Y0049349D01*
X0133658Y0049349D02*
X0133658Y0054859D01*
X0129721Y0054859D02*
X0129721Y0049349D01*
X0125784Y0049349D02*
X0125784Y0054859D01*
X0121847Y0054859D02*
X0121847Y0049349D01*
X0117910Y0049349D02*
X0117910Y0054859D01*
X0113973Y0054859D02*
X0113973Y0049349D01*
X0110036Y0049349D02*
X0110036Y0054859D01*
X0106099Y0054859D02*
X0106099Y0049349D01*
X0093106Y0067852D02*
X0087596Y0067852D01*
X0087596Y0071789D02*
X0093106Y0071789D01*
X0093106Y0075726D02*
X0087596Y0075726D01*
X0087596Y0079663D02*
X0093106Y0079663D01*
X0093106Y0083600D02*
X0087596Y0083600D01*
X0087596Y0087537D02*
X0093106Y0087537D01*
X0093106Y0091474D02*
X0087596Y0091474D01*
X0087596Y0095411D02*
X0093106Y0095411D01*
X0093106Y0099348D02*
X0087596Y0099348D01*
X0087596Y0103285D02*
X0093106Y0103285D01*
X0093106Y0107222D02*
X0087596Y0107222D01*
X0087596Y0111159D02*
X0093106Y0111159D01*
X0093106Y0115096D02*
X0087596Y0115096D01*
X0087596Y0119033D02*
X0093106Y0119033D01*
X0093106Y0122970D02*
X0087596Y0122970D01*
X0087596Y0126907D02*
X0093106Y0126907D01*
X0093106Y0130844D02*
X0087596Y0130844D01*
D16*
X0402949Y0130883D02*
X0402949Y0133009D01*
X0405469Y0133009D01*
X0405469Y0130883D01*
X0402949Y0130883D01*
X0402949Y0107813D02*
X0402949Y0105687D01*
X0402949Y0107813D02*
X0405469Y0107813D01*
X0405469Y0105687D01*
X0402949Y0105687D01*
M02*
