G75*
%MOIN*%
%OFA0B0*%
%FSLAX25Y25*%
%IPPOS*%
%LPD*%
%AMOC8*
5,1,8,0,0,1.08239X$1,22.5*
%
%ADD10C,0.00000*%
%ADD11C,0.00500*%
%ADD12C,0.00300*%
%ADD13C,0.16535*%
%ADD14C,0.06000*%
%ADD15C,0.05020*%
%ADD16C,0.08850*%
%ADD17C,0.10050*%
%ADD18C,0.01969*%
%ADD19C,0.02756*%
%ADD20C,0.00591*%
%ADD21C,0.01600*%
%ADD22C,0.00886*%
D10*
X0022595Y0009348D02*
X0412516Y0009348D01*
X0412516Y0203167D01*
X0022595Y0203167D01*
X0022595Y0009348D01*
D11*
X0362845Y0180766D02*
X0362845Y0183101D01*
X0362845Y0180766D02*
X0364013Y0179598D01*
X0365180Y0180766D01*
X0365180Y0183101D01*
X0366528Y0181933D02*
X0367696Y0183101D01*
X0367696Y0179598D01*
X0366528Y0179598D02*
X0368864Y0179598D01*
X0370211Y0179598D02*
X0370795Y0179598D01*
X0370795Y0180182D01*
X0370211Y0180182D01*
X0370211Y0179598D01*
X0372053Y0179598D02*
X0374388Y0179598D01*
X0373221Y0179598D02*
X0373221Y0183101D01*
X0372053Y0181933D01*
X0371319Y0185598D02*
X0371319Y0187350D01*
X0370735Y0187933D01*
X0368984Y0187933D01*
X0368984Y0185598D01*
X0367696Y0185598D02*
X0366528Y0185598D01*
X0367112Y0185598D02*
X0367112Y0187933D01*
X0366528Y0187933D01*
X0367112Y0189101D02*
X0367112Y0189685D01*
X0366528Y0191598D02*
X0366528Y0195101D01*
X0368864Y0195101D01*
X0367696Y0193350D02*
X0366528Y0193350D01*
X0365180Y0194517D02*
X0364597Y0195101D01*
X0362845Y0195101D01*
X0362845Y0191598D01*
X0364597Y0191598D01*
X0365180Y0192182D01*
X0365180Y0194517D01*
X0370211Y0193350D02*
X0372547Y0193350D01*
X0371963Y0195101D02*
X0370211Y0193350D01*
X0371963Y0195101D02*
X0371963Y0191598D01*
X0373895Y0191598D02*
X0375062Y0191598D01*
X0374478Y0191598D02*
X0374478Y0195101D01*
X0373895Y0195101D02*
X0375062Y0195101D01*
X0376350Y0193933D02*
X0376350Y0191598D01*
X0376350Y0193350D02*
X0378685Y0193350D01*
X0378685Y0193933D02*
X0378685Y0191598D01*
X0380033Y0191598D02*
X0380033Y0195101D01*
X0380033Y0193350D02*
X0382368Y0193350D01*
X0382368Y0195101D02*
X0382368Y0191598D01*
X0384300Y0189101D02*
X0383716Y0188517D01*
X0383716Y0187933D01*
X0384300Y0187350D01*
X0385468Y0187350D01*
X0386052Y0186766D01*
X0386052Y0186182D01*
X0385468Y0185598D01*
X0384300Y0185598D01*
X0383716Y0186182D01*
X0382368Y0186766D02*
X0380033Y0186766D01*
X0380033Y0187350D02*
X0380617Y0187933D01*
X0381785Y0187933D01*
X0382368Y0187350D01*
X0382368Y0186766D01*
X0381785Y0185598D02*
X0380617Y0185598D01*
X0380033Y0186182D01*
X0380033Y0187350D01*
X0378685Y0189101D02*
X0377518Y0187933D01*
X0376350Y0189101D01*
X0376350Y0185598D01*
X0375002Y0185598D02*
X0373251Y0185598D01*
X0372667Y0186182D01*
X0372667Y0187350D01*
X0373251Y0187933D01*
X0375002Y0187933D01*
X0375002Y0189101D02*
X0375002Y0185598D01*
X0378685Y0185598D02*
X0378685Y0189101D01*
X0384300Y0189101D02*
X0385468Y0189101D01*
X0386052Y0188517D01*
X0387399Y0187933D02*
X0388567Y0189101D01*
X0389735Y0187933D01*
X0389735Y0185598D01*
X0389735Y0187350D02*
X0387399Y0187350D01*
X0387399Y0187933D02*
X0387399Y0185598D01*
X0392250Y0185598D02*
X0392250Y0189101D01*
X0391083Y0189101D02*
X0393418Y0189101D01*
X0378685Y0193933D02*
X0377518Y0195101D01*
X0376350Y0193933D01*
X0365180Y0189101D02*
X0362845Y0189101D01*
X0362845Y0185598D01*
X0362845Y0187350D02*
X0364013Y0187350D01*
D12*
X0400543Y0189498D02*
X0403445Y0189498D01*
X0403445Y0191433D01*
X0403445Y0192445D02*
X0401510Y0194380D01*
X0401026Y0194380D01*
X0400543Y0193896D01*
X0400543Y0192928D01*
X0401026Y0192445D01*
X0403445Y0192445D02*
X0403445Y0194380D01*
D13*
X0396595Y0159348D03*
X0067595Y0159348D03*
X0067595Y0024348D03*
D14*
X0209095Y0060848D03*
X0219095Y0060848D03*
X0229095Y0060848D03*
X0247595Y0064848D03*
X0257595Y0064848D03*
X0257595Y0054848D03*
X0247595Y0054848D03*
X0247595Y0044848D03*
X0257595Y0044848D03*
X0257595Y0034848D03*
X0247595Y0034848D03*
X0226595Y0034848D03*
X0216595Y0034848D03*
X0216595Y0044848D03*
X0226595Y0044848D03*
X0226595Y0024848D03*
X0216595Y0024848D03*
X0247595Y0024848D03*
X0257595Y0024848D03*
X0229095Y0070848D03*
X0219095Y0070848D03*
X0209095Y0070848D03*
X0196595Y0108848D03*
X0196595Y0118848D03*
X0127438Y0167065D03*
X0117595Y0167065D03*
X0107753Y0167065D03*
X0332595Y0134348D03*
X0342595Y0134348D03*
X0342595Y0124348D03*
X0332595Y0124348D03*
X0332595Y0114348D03*
X0342595Y0114348D03*
D15*
X0393579Y0109506D03*
X0393579Y0129191D03*
D16*
X0395595Y0062348D03*
D17*
X0385595Y0052348D03*
X0405595Y0052348D03*
X0405595Y0072348D03*
X0385595Y0072348D03*
D18*
X0309611Y0073848D02*
X0309613Y0073910D01*
X0309619Y0073973D01*
X0309629Y0074034D01*
X0309643Y0074095D01*
X0309660Y0074155D01*
X0309681Y0074214D01*
X0309707Y0074271D01*
X0309735Y0074326D01*
X0309767Y0074380D01*
X0309803Y0074431D01*
X0309841Y0074481D01*
X0309883Y0074527D01*
X0309927Y0074571D01*
X0309975Y0074612D01*
X0310024Y0074650D01*
X0310076Y0074684D01*
X0310130Y0074715D01*
X0310186Y0074743D01*
X0310244Y0074767D01*
X0310303Y0074788D01*
X0310363Y0074804D01*
X0310424Y0074817D01*
X0310486Y0074826D01*
X0310548Y0074831D01*
X0310611Y0074832D01*
X0310673Y0074829D01*
X0310735Y0074822D01*
X0310797Y0074811D01*
X0310857Y0074796D01*
X0310917Y0074778D01*
X0310975Y0074756D01*
X0311032Y0074730D01*
X0311087Y0074700D01*
X0311140Y0074667D01*
X0311191Y0074631D01*
X0311239Y0074592D01*
X0311285Y0074549D01*
X0311328Y0074504D01*
X0311368Y0074456D01*
X0311405Y0074406D01*
X0311439Y0074353D01*
X0311470Y0074299D01*
X0311496Y0074243D01*
X0311520Y0074185D01*
X0311539Y0074125D01*
X0311555Y0074065D01*
X0311567Y0074003D01*
X0311575Y0073942D01*
X0311579Y0073879D01*
X0311579Y0073817D01*
X0311575Y0073754D01*
X0311567Y0073693D01*
X0311555Y0073631D01*
X0311539Y0073571D01*
X0311520Y0073511D01*
X0311496Y0073453D01*
X0311470Y0073397D01*
X0311439Y0073343D01*
X0311405Y0073290D01*
X0311368Y0073240D01*
X0311328Y0073192D01*
X0311285Y0073147D01*
X0311239Y0073104D01*
X0311191Y0073065D01*
X0311140Y0073029D01*
X0311087Y0072996D01*
X0311032Y0072966D01*
X0310975Y0072940D01*
X0310917Y0072918D01*
X0310857Y0072900D01*
X0310797Y0072885D01*
X0310735Y0072874D01*
X0310673Y0072867D01*
X0310611Y0072864D01*
X0310548Y0072865D01*
X0310486Y0072870D01*
X0310424Y0072879D01*
X0310363Y0072892D01*
X0310303Y0072908D01*
X0310244Y0072929D01*
X0310186Y0072953D01*
X0310130Y0072981D01*
X0310076Y0073012D01*
X0310024Y0073046D01*
X0309975Y0073084D01*
X0309927Y0073125D01*
X0309883Y0073169D01*
X0309841Y0073215D01*
X0309803Y0073265D01*
X0309767Y0073316D01*
X0309735Y0073370D01*
X0309707Y0073425D01*
X0309681Y0073482D01*
X0309660Y0073541D01*
X0309643Y0073601D01*
X0309629Y0073662D01*
X0309619Y0073723D01*
X0309613Y0073786D01*
X0309611Y0073848D01*
X0086611Y0019348D02*
X0086613Y0019410D01*
X0086619Y0019473D01*
X0086629Y0019534D01*
X0086643Y0019595D01*
X0086660Y0019655D01*
X0086681Y0019714D01*
X0086707Y0019771D01*
X0086735Y0019826D01*
X0086767Y0019880D01*
X0086803Y0019931D01*
X0086841Y0019981D01*
X0086883Y0020027D01*
X0086927Y0020071D01*
X0086975Y0020112D01*
X0087024Y0020150D01*
X0087076Y0020184D01*
X0087130Y0020215D01*
X0087186Y0020243D01*
X0087244Y0020267D01*
X0087303Y0020288D01*
X0087363Y0020304D01*
X0087424Y0020317D01*
X0087486Y0020326D01*
X0087548Y0020331D01*
X0087611Y0020332D01*
X0087673Y0020329D01*
X0087735Y0020322D01*
X0087797Y0020311D01*
X0087857Y0020296D01*
X0087917Y0020278D01*
X0087975Y0020256D01*
X0088032Y0020230D01*
X0088087Y0020200D01*
X0088140Y0020167D01*
X0088191Y0020131D01*
X0088239Y0020092D01*
X0088285Y0020049D01*
X0088328Y0020004D01*
X0088368Y0019956D01*
X0088405Y0019906D01*
X0088439Y0019853D01*
X0088470Y0019799D01*
X0088496Y0019743D01*
X0088520Y0019685D01*
X0088539Y0019625D01*
X0088555Y0019565D01*
X0088567Y0019503D01*
X0088575Y0019442D01*
X0088579Y0019379D01*
X0088579Y0019317D01*
X0088575Y0019254D01*
X0088567Y0019193D01*
X0088555Y0019131D01*
X0088539Y0019071D01*
X0088520Y0019011D01*
X0088496Y0018953D01*
X0088470Y0018897D01*
X0088439Y0018843D01*
X0088405Y0018790D01*
X0088368Y0018740D01*
X0088328Y0018692D01*
X0088285Y0018647D01*
X0088239Y0018604D01*
X0088191Y0018565D01*
X0088140Y0018529D01*
X0088087Y0018496D01*
X0088032Y0018466D01*
X0087975Y0018440D01*
X0087917Y0018418D01*
X0087857Y0018400D01*
X0087797Y0018385D01*
X0087735Y0018374D01*
X0087673Y0018367D01*
X0087611Y0018364D01*
X0087548Y0018365D01*
X0087486Y0018370D01*
X0087424Y0018379D01*
X0087363Y0018392D01*
X0087303Y0018408D01*
X0087244Y0018429D01*
X0087186Y0018453D01*
X0087130Y0018481D01*
X0087076Y0018512D01*
X0087024Y0018546D01*
X0086975Y0018584D01*
X0086927Y0018625D01*
X0086883Y0018669D01*
X0086841Y0018715D01*
X0086803Y0018765D01*
X0086767Y0018816D01*
X0086735Y0018870D01*
X0086707Y0018925D01*
X0086681Y0018982D01*
X0086660Y0019041D01*
X0086643Y0019101D01*
X0086629Y0019162D01*
X0086619Y0019223D01*
X0086613Y0019286D01*
X0086611Y0019348D01*
X0065611Y0181348D02*
X0065613Y0181410D01*
X0065619Y0181473D01*
X0065629Y0181534D01*
X0065643Y0181595D01*
X0065660Y0181655D01*
X0065681Y0181714D01*
X0065707Y0181771D01*
X0065735Y0181826D01*
X0065767Y0181880D01*
X0065803Y0181931D01*
X0065841Y0181981D01*
X0065883Y0182027D01*
X0065927Y0182071D01*
X0065975Y0182112D01*
X0066024Y0182150D01*
X0066076Y0182184D01*
X0066130Y0182215D01*
X0066186Y0182243D01*
X0066244Y0182267D01*
X0066303Y0182288D01*
X0066363Y0182304D01*
X0066424Y0182317D01*
X0066486Y0182326D01*
X0066548Y0182331D01*
X0066611Y0182332D01*
X0066673Y0182329D01*
X0066735Y0182322D01*
X0066797Y0182311D01*
X0066857Y0182296D01*
X0066917Y0182278D01*
X0066975Y0182256D01*
X0067032Y0182230D01*
X0067087Y0182200D01*
X0067140Y0182167D01*
X0067191Y0182131D01*
X0067239Y0182092D01*
X0067285Y0182049D01*
X0067328Y0182004D01*
X0067368Y0181956D01*
X0067405Y0181906D01*
X0067439Y0181853D01*
X0067470Y0181799D01*
X0067496Y0181743D01*
X0067520Y0181685D01*
X0067539Y0181625D01*
X0067555Y0181565D01*
X0067567Y0181503D01*
X0067575Y0181442D01*
X0067579Y0181379D01*
X0067579Y0181317D01*
X0067575Y0181254D01*
X0067567Y0181193D01*
X0067555Y0181131D01*
X0067539Y0181071D01*
X0067520Y0181011D01*
X0067496Y0180953D01*
X0067470Y0180897D01*
X0067439Y0180843D01*
X0067405Y0180790D01*
X0067368Y0180740D01*
X0067328Y0180692D01*
X0067285Y0180647D01*
X0067239Y0180604D01*
X0067191Y0180565D01*
X0067140Y0180529D01*
X0067087Y0180496D01*
X0067032Y0180466D01*
X0066975Y0180440D01*
X0066917Y0180418D01*
X0066857Y0180400D01*
X0066797Y0180385D01*
X0066735Y0180374D01*
X0066673Y0180367D01*
X0066611Y0180364D01*
X0066548Y0180365D01*
X0066486Y0180370D01*
X0066424Y0180379D01*
X0066363Y0180392D01*
X0066303Y0180408D01*
X0066244Y0180429D01*
X0066186Y0180453D01*
X0066130Y0180481D01*
X0066076Y0180512D01*
X0066024Y0180546D01*
X0065975Y0180584D01*
X0065927Y0180625D01*
X0065883Y0180669D01*
X0065841Y0180715D01*
X0065803Y0180765D01*
X0065767Y0180816D01*
X0065735Y0180870D01*
X0065707Y0180925D01*
X0065681Y0180982D01*
X0065660Y0181041D01*
X0065643Y0181101D01*
X0065629Y0181162D01*
X0065619Y0181223D01*
X0065613Y0181286D01*
X0065611Y0181348D01*
X0349111Y0195348D02*
X0349113Y0195410D01*
X0349119Y0195473D01*
X0349129Y0195534D01*
X0349143Y0195595D01*
X0349160Y0195655D01*
X0349181Y0195714D01*
X0349207Y0195771D01*
X0349235Y0195826D01*
X0349267Y0195880D01*
X0349303Y0195931D01*
X0349341Y0195981D01*
X0349383Y0196027D01*
X0349427Y0196071D01*
X0349475Y0196112D01*
X0349524Y0196150D01*
X0349576Y0196184D01*
X0349630Y0196215D01*
X0349686Y0196243D01*
X0349744Y0196267D01*
X0349803Y0196288D01*
X0349863Y0196304D01*
X0349924Y0196317D01*
X0349986Y0196326D01*
X0350048Y0196331D01*
X0350111Y0196332D01*
X0350173Y0196329D01*
X0350235Y0196322D01*
X0350297Y0196311D01*
X0350357Y0196296D01*
X0350417Y0196278D01*
X0350475Y0196256D01*
X0350532Y0196230D01*
X0350587Y0196200D01*
X0350640Y0196167D01*
X0350691Y0196131D01*
X0350739Y0196092D01*
X0350785Y0196049D01*
X0350828Y0196004D01*
X0350868Y0195956D01*
X0350905Y0195906D01*
X0350939Y0195853D01*
X0350970Y0195799D01*
X0350996Y0195743D01*
X0351020Y0195685D01*
X0351039Y0195625D01*
X0351055Y0195565D01*
X0351067Y0195503D01*
X0351075Y0195442D01*
X0351079Y0195379D01*
X0351079Y0195317D01*
X0351075Y0195254D01*
X0351067Y0195193D01*
X0351055Y0195131D01*
X0351039Y0195071D01*
X0351020Y0195011D01*
X0350996Y0194953D01*
X0350970Y0194897D01*
X0350939Y0194843D01*
X0350905Y0194790D01*
X0350868Y0194740D01*
X0350828Y0194692D01*
X0350785Y0194647D01*
X0350739Y0194604D01*
X0350691Y0194565D01*
X0350640Y0194529D01*
X0350587Y0194496D01*
X0350532Y0194466D01*
X0350475Y0194440D01*
X0350417Y0194418D01*
X0350357Y0194400D01*
X0350297Y0194385D01*
X0350235Y0194374D01*
X0350173Y0194367D01*
X0350111Y0194364D01*
X0350048Y0194365D01*
X0349986Y0194370D01*
X0349924Y0194379D01*
X0349863Y0194392D01*
X0349803Y0194408D01*
X0349744Y0194429D01*
X0349686Y0194453D01*
X0349630Y0194481D01*
X0349576Y0194512D01*
X0349524Y0194546D01*
X0349475Y0194584D01*
X0349427Y0194625D01*
X0349383Y0194669D01*
X0349341Y0194715D01*
X0349303Y0194765D01*
X0349267Y0194816D01*
X0349235Y0194870D01*
X0349207Y0194925D01*
X0349181Y0194982D01*
X0349160Y0195041D01*
X0349143Y0195101D01*
X0349129Y0195162D01*
X0349119Y0195223D01*
X0349113Y0195286D01*
X0349111Y0195348D01*
D19*
X0361095Y0165848D03*
X0360095Y0161848D03*
X0371095Y0165348D03*
X0377095Y0165348D03*
X0367095Y0154348D03*
X0380595Y0150848D03*
X0398095Y0141348D03*
X0388095Y0126348D03*
X0388595Y0122348D03*
X0385595Y0118848D03*
X0388595Y0115848D03*
X0388095Y0105848D03*
X0389595Y0095848D03*
X0392355Y0088348D03*
X0395595Y0082848D03*
X0406095Y0087348D03*
X0364595Y0085848D03*
X0352595Y0082848D03*
X0352595Y0092848D03*
X0328095Y0080348D03*
X0327595Y0076348D03*
X0327595Y0068848D03*
X0327595Y0056848D03*
X0328095Y0052348D03*
X0328095Y0048348D03*
X0323095Y0043348D03*
X0317595Y0044348D03*
X0305595Y0044348D03*
X0301595Y0045348D03*
X0298095Y0043348D03*
X0294595Y0045348D03*
X0291095Y0043348D03*
X0287595Y0045348D03*
X0283595Y0044848D03*
X0278095Y0047348D03*
X0272095Y0041348D03*
X0275095Y0037848D03*
X0269595Y0029848D03*
X0264595Y0034848D03*
X0264095Y0045848D03*
X0276595Y0052348D03*
X0288095Y0049348D03*
X0265895Y0063648D03*
X0264095Y0067348D03*
X0266595Y0070848D03*
X0281595Y0071348D03*
X0288095Y0066348D03*
X0295095Y0076848D03*
X0300095Y0089348D03*
X0292095Y0094848D03*
X0288095Y0094848D03*
X0297595Y0104348D03*
X0307595Y0104348D03*
X0319595Y0104348D03*
X0320095Y0109348D03*
X0315595Y0121348D03*
X0310595Y0130348D03*
X0311095Y0134848D03*
X0327095Y0137848D03*
X0307595Y0143348D03*
X0296095Y0135348D03*
X0285095Y0134348D03*
X0281095Y0134348D03*
X0292095Y0125848D03*
X0297595Y0121348D03*
X0294595Y0117348D03*
X0285595Y0111671D03*
X0277595Y0122348D03*
X0269095Y0122348D03*
X0261095Y0117848D03*
X0269095Y0113348D03*
X0262595Y0109848D03*
X0254095Y0107348D03*
X0251095Y0110348D03*
X0256595Y0101348D03*
X0254095Y0097848D03*
X0248095Y0097848D03*
X0263595Y0091348D03*
X0266595Y0088348D03*
X0266595Y0084348D03*
X0266595Y0080348D03*
X0239095Y0080348D03*
X0222595Y0086848D03*
X0214095Y0082710D03*
X0205095Y0083348D03*
X0203095Y0075848D03*
X0191595Y0074848D03*
X0179095Y0071348D03*
X0179095Y0081348D03*
X0179095Y0087348D03*
X0191595Y0083348D03*
X0200095Y0090848D03*
X0206095Y0090848D03*
X0195595Y0095348D03*
X0193595Y0098848D03*
X0197095Y0100848D03*
X0206595Y0098348D03*
X0210095Y0100848D03*
X0228595Y0101348D03*
X0228095Y0115848D03*
X0223595Y0119348D03*
X0218095Y0118848D03*
X0212095Y0116848D03*
X0241095Y0134348D03*
X0248595Y0139848D03*
X0257595Y0149348D03*
X0246095Y0152848D03*
X0240095Y0156848D03*
X0229095Y0160848D03*
X0225595Y0145348D03*
X0211595Y0145348D03*
X0210095Y0137348D03*
X0200595Y0137348D03*
X0165095Y0152348D03*
X0161095Y0155348D03*
X0157095Y0152348D03*
X0153595Y0155348D03*
X0149595Y0152348D03*
X0145595Y0155348D03*
X0141595Y0152348D03*
X0138095Y0155348D03*
X0133095Y0152348D03*
X0120095Y0152348D03*
X0110095Y0143848D03*
X0135095Y0139848D03*
X0182595Y0162848D03*
X0188595Y0162848D03*
X0185595Y0165848D03*
X0191595Y0165848D03*
X0252595Y0159848D03*
X0279095Y0146348D03*
X0270095Y0144348D03*
X0289595Y0150848D03*
X0304595Y0156848D03*
X0336595Y0152848D03*
X0354595Y0130348D03*
X0317095Y0095348D03*
X0313095Y0094848D03*
X0321595Y0094348D03*
X0325595Y0084348D03*
X0364595Y0068848D03*
X0360595Y0057848D03*
X0360595Y0053848D03*
X0369595Y0047848D03*
X0383595Y0040848D03*
X0377095Y0035348D03*
X0397595Y0029348D03*
X0387595Y0014848D03*
X0407595Y0014848D03*
X0365095Y0015348D03*
X0353595Y0023348D03*
X0350095Y0027348D03*
X0336595Y0021348D03*
X0326532Y0019742D03*
X0322595Y0019348D03*
X0315595Y0019348D03*
X0310595Y0019348D03*
X0317595Y0026848D03*
X0323595Y0027348D03*
X0326595Y0030348D03*
X0330095Y0033348D03*
X0322095Y0033348D03*
X0310095Y0029848D03*
X0286595Y0027348D03*
X0239095Y0046348D03*
X0211595Y0031348D03*
X0200595Y0024348D03*
X0186595Y0029848D03*
X0187095Y0033848D03*
X0193595Y0033848D03*
X0180595Y0029848D03*
X0174095Y0033348D03*
X0173595Y0027348D03*
X0164095Y0027348D03*
X0160595Y0022848D03*
X0163595Y0019848D03*
X0167095Y0014848D03*
X0162595Y0011848D03*
X0157595Y0011848D03*
X0150095Y0011848D03*
X0150095Y0027348D03*
X0150095Y0031848D03*
X0143595Y0039848D03*
X0160595Y0036348D03*
X0174595Y0041348D03*
X0164595Y0046848D03*
X0149595Y0056348D03*
X0163095Y0058348D03*
X0205595Y0051348D03*
X0266095Y0097348D03*
X0250095Y0126848D03*
X0342095Y0051348D03*
X0338595Y0049348D03*
X0357095Y0036848D03*
X0407595Y0043348D03*
X0118095Y0031848D03*
X0103595Y0052848D03*
X0084095Y0066348D03*
X0082595Y0076848D03*
X0056595Y0071348D03*
X0055095Y0076848D03*
X0055095Y0063848D03*
X0074095Y0107348D03*
X0083595Y0116848D03*
X0083595Y0128848D03*
X0056595Y0122348D03*
X0055095Y0116848D03*
X0055595Y0128848D03*
X0035595Y0195848D03*
X0030095Y0013848D03*
X0096595Y0012348D03*
D20*
X0118095Y0015348D02*
X0118095Y0031848D01*
X0150095Y0031848D02*
X0172595Y0031848D01*
X0174095Y0033348D01*
X0177595Y0043348D02*
X0187095Y0033848D01*
X0177595Y0043348D02*
X0177595Y0052348D01*
X0171595Y0058348D01*
X0163095Y0058348D01*
X0204095Y0067348D02*
X0205595Y0065848D01*
X0218095Y0065848D01*
X0219095Y0066848D01*
X0219095Y0070848D01*
X0214095Y0075848D02*
X0209095Y0070848D01*
X0204095Y0072348D02*
X0204095Y0067348D01*
X0204095Y0072348D02*
X0209095Y0077348D01*
X0257595Y0077348D01*
X0258595Y0078348D01*
X0258595Y0086848D01*
X0263595Y0091348D01*
X0266095Y0088348D02*
X0260595Y0082848D01*
X0260595Y0077348D01*
X0259095Y0075848D01*
X0214095Y0075848D01*
X0229095Y0060848D02*
X0240595Y0072348D01*
X0262595Y0072348D01*
X0264095Y0073848D01*
X0269095Y0073848D01*
X0279595Y0063348D01*
X0298595Y0063348D01*
X0317595Y0044348D01*
X0286595Y0027348D02*
X0279595Y0019848D01*
X0168095Y0019848D01*
X0162595Y0014848D01*
X0118595Y0014848D01*
X0118095Y0015348D01*
X0162595Y0011848D02*
X0179095Y0011848D01*
X0181095Y0013848D01*
X0310095Y0013848D01*
X0310595Y0014348D01*
X0310595Y0019348D01*
X0275095Y0037848D02*
X0269595Y0037848D01*
X0267595Y0039848D01*
X0238595Y0039848D01*
X0228595Y0029848D01*
X0224595Y0029848D01*
X0221595Y0032848D01*
X0221595Y0039848D01*
X0226595Y0044848D01*
X0234095Y0046348D02*
X0234095Y0042348D01*
X0226595Y0034848D01*
X0234095Y0046348D02*
X0237595Y0049848D01*
X0264595Y0049848D01*
X0272095Y0042348D01*
X0272095Y0041348D01*
X0264595Y0034848D02*
X0264595Y0031848D01*
X0257595Y0024848D01*
X0239095Y0053848D02*
X0216095Y0053848D01*
X0209095Y0060848D01*
X0219095Y0060848D02*
X0224095Y0055848D01*
X0231595Y0055848D01*
X0242595Y0066848D01*
X0242595Y0067348D01*
X0245095Y0069848D01*
X0261595Y0069848D01*
X0262595Y0070848D01*
X0266595Y0070848D01*
X0264095Y0067348D02*
X0262595Y0065348D01*
X0262595Y0062348D01*
X0260095Y0059848D01*
X0245095Y0059848D01*
X0239095Y0053848D01*
X0266095Y0088348D02*
X0266595Y0088348D01*
X0354595Y0130348D02*
X0354595Y0130848D01*
X0374095Y0150348D01*
X0374095Y0170348D01*
X0373095Y0171348D01*
X0154595Y0171348D01*
X0153595Y0170348D01*
X0153595Y0155348D01*
X0165095Y0152348D02*
X0165095Y0168848D01*
X0166095Y0169848D01*
X0370095Y0169848D01*
X0371095Y0168848D01*
X0371095Y0165348D01*
X0379095Y0172848D02*
X0380095Y0171848D01*
X0380095Y0151348D01*
X0380595Y0150848D01*
X0379095Y0172848D02*
X0135595Y0172848D01*
X0134595Y0171848D01*
X0134595Y0155848D01*
X0136095Y0152848D01*
X0136095Y0140848D01*
X0135095Y0139848D01*
X0056595Y0130848D02*
X0056595Y0126187D01*
X0055832Y0126187D01*
X0054421Y0125602D01*
X0053341Y0124522D01*
X0052757Y0123112D01*
X0052757Y0121584D01*
X0053341Y0120174D01*
X0054421Y0119094D01*
X0055832Y0118509D01*
X0056595Y0118509D01*
X0056595Y0115348D01*
X0050095Y0115348D01*
X0033095Y0192348D01*
X0034014Y0192348D01*
X0034832Y0192009D01*
X0036359Y0192009D01*
X0037176Y0192348D01*
X0039595Y0192348D01*
X0051595Y0137848D01*
X0056595Y0130848D01*
X0056595Y0130695D02*
X0046707Y0130695D01*
X0046577Y0131284D02*
X0056284Y0131284D01*
X0055863Y0131873D02*
X0046447Y0131873D01*
X0046317Y0132462D02*
X0055442Y0132462D01*
X0055021Y0133051D02*
X0046187Y0133051D01*
X0046057Y0133640D02*
X0054601Y0133640D01*
X0054180Y0134229D02*
X0045927Y0134229D01*
X0045797Y0134818D02*
X0053759Y0134818D01*
X0053338Y0135407D02*
X0045666Y0135407D01*
X0045536Y0135996D02*
X0052918Y0135996D01*
X0052497Y0136586D02*
X0045406Y0136586D01*
X0045276Y0137175D02*
X0052076Y0137175D01*
X0051655Y0137764D02*
X0045146Y0137764D01*
X0045016Y0138353D02*
X0051484Y0138353D01*
X0051354Y0138942D02*
X0044886Y0138942D01*
X0044756Y0139531D02*
X0051225Y0139531D01*
X0051095Y0140120D02*
X0044626Y0140120D01*
X0044496Y0140709D02*
X0050965Y0140709D01*
X0050836Y0141298D02*
X0044366Y0141298D01*
X0044236Y0141887D02*
X0050706Y0141887D01*
X0050576Y0142476D02*
X0044106Y0142476D01*
X0043976Y0143065D02*
X0050446Y0143065D01*
X0050317Y0143654D02*
X0043846Y0143654D01*
X0043716Y0144243D02*
X0050187Y0144243D01*
X0050057Y0144832D02*
X0043586Y0144832D01*
X0043456Y0145421D02*
X0049928Y0145421D01*
X0049798Y0146011D02*
X0043326Y0146011D01*
X0043195Y0146600D02*
X0049668Y0146600D01*
X0049538Y0147189D02*
X0043065Y0147189D01*
X0042935Y0147778D02*
X0049409Y0147778D01*
X0049279Y0148367D02*
X0042805Y0148367D01*
X0042675Y0148956D02*
X0049149Y0148956D01*
X0049020Y0149545D02*
X0042545Y0149545D01*
X0042415Y0150134D02*
X0048890Y0150134D01*
X0048760Y0150723D02*
X0042285Y0150723D01*
X0042155Y0151312D02*
X0048631Y0151312D01*
X0048501Y0151901D02*
X0042025Y0151901D01*
X0041895Y0152490D02*
X0048371Y0152490D01*
X0048241Y0153079D02*
X0041765Y0153079D01*
X0041635Y0153668D02*
X0048112Y0153668D01*
X0047982Y0154257D02*
X0041505Y0154257D01*
X0041375Y0154846D02*
X0047852Y0154846D01*
X0047723Y0155436D02*
X0041245Y0155436D01*
X0041115Y0156025D02*
X0047593Y0156025D01*
X0047463Y0156614D02*
X0040985Y0156614D01*
X0040855Y0157203D02*
X0047334Y0157203D01*
X0047204Y0157792D02*
X0040724Y0157792D01*
X0040594Y0158381D02*
X0047074Y0158381D01*
X0046944Y0158970D02*
X0040464Y0158970D01*
X0040334Y0159559D02*
X0046815Y0159559D01*
X0046685Y0160148D02*
X0040204Y0160148D01*
X0040074Y0160737D02*
X0046555Y0160737D01*
X0046426Y0161326D02*
X0039944Y0161326D01*
X0039814Y0161915D02*
X0046296Y0161915D01*
X0046166Y0162504D02*
X0039684Y0162504D01*
X0039554Y0163093D02*
X0046037Y0163093D01*
X0045907Y0163682D02*
X0039424Y0163682D01*
X0039294Y0164271D02*
X0045777Y0164271D01*
X0045647Y0164861D02*
X0039164Y0164861D01*
X0039034Y0165450D02*
X0045518Y0165450D01*
X0045388Y0166039D02*
X0038904Y0166039D01*
X0038774Y0166628D02*
X0045258Y0166628D01*
X0045129Y0167217D02*
X0038644Y0167217D01*
X0038514Y0167806D02*
X0044999Y0167806D01*
X0044869Y0168395D02*
X0038384Y0168395D01*
X0038253Y0168984D02*
X0044740Y0168984D01*
X0044610Y0169573D02*
X0038123Y0169573D01*
X0037993Y0170162D02*
X0044480Y0170162D01*
X0044350Y0170751D02*
X0037863Y0170751D01*
X0037733Y0171340D02*
X0044221Y0171340D01*
X0044091Y0171929D02*
X0037603Y0171929D01*
X0037473Y0172518D02*
X0043961Y0172518D01*
X0043832Y0173107D02*
X0037343Y0173107D01*
X0037213Y0173696D02*
X0043702Y0173696D01*
X0043572Y0174286D02*
X0037083Y0174286D01*
X0036953Y0174875D02*
X0043442Y0174875D01*
X0043313Y0175464D02*
X0036823Y0175464D01*
X0036693Y0176053D02*
X0043183Y0176053D01*
X0043053Y0176642D02*
X0036563Y0176642D01*
X0036433Y0177231D02*
X0042924Y0177231D01*
X0042794Y0177820D02*
X0036303Y0177820D01*
X0036173Y0178409D02*
X0042664Y0178409D01*
X0042535Y0178998D02*
X0036043Y0178998D01*
X0035913Y0179587D02*
X0042405Y0179587D01*
X0042275Y0180176D02*
X0035782Y0180176D01*
X0035652Y0180765D02*
X0042145Y0180765D01*
X0042016Y0181354D02*
X0035522Y0181354D01*
X0035392Y0181943D02*
X0041886Y0181943D01*
X0041756Y0182532D02*
X0035262Y0182532D01*
X0035132Y0183121D02*
X0041627Y0183121D01*
X0041497Y0183711D02*
X0035002Y0183711D01*
X0034872Y0184300D02*
X0041367Y0184300D01*
X0041238Y0184889D02*
X0034742Y0184889D01*
X0034612Y0185478D02*
X0041108Y0185478D01*
X0040978Y0186067D02*
X0034482Y0186067D01*
X0034352Y0186656D02*
X0040848Y0186656D01*
X0040719Y0187245D02*
X0034222Y0187245D01*
X0034092Y0187834D02*
X0040589Y0187834D01*
X0040459Y0188423D02*
X0033962Y0188423D01*
X0033832Y0189012D02*
X0040330Y0189012D01*
X0040200Y0189601D02*
X0033702Y0189601D01*
X0033572Y0190190D02*
X0040070Y0190190D01*
X0039941Y0190779D02*
X0033441Y0190779D01*
X0033311Y0191368D02*
X0039811Y0191368D01*
X0039681Y0191957D02*
X0033181Y0191957D01*
X0046837Y0130106D02*
X0056595Y0130106D01*
X0056595Y0129517D02*
X0046967Y0129517D01*
X0047097Y0128928D02*
X0056595Y0128928D01*
X0056595Y0128339D02*
X0047227Y0128339D01*
X0047357Y0127750D02*
X0056595Y0127750D01*
X0056595Y0127161D02*
X0047487Y0127161D01*
X0047617Y0126571D02*
X0056595Y0126571D01*
X0055339Y0125982D02*
X0047747Y0125982D01*
X0047877Y0125393D02*
X0054212Y0125393D01*
X0053623Y0124804D02*
X0048007Y0124804D01*
X0048137Y0124215D02*
X0053214Y0124215D01*
X0052970Y0123626D02*
X0048268Y0123626D01*
X0048398Y0123037D02*
X0052757Y0123037D01*
X0052757Y0122448D02*
X0048528Y0122448D01*
X0048658Y0121859D02*
X0052757Y0121859D01*
X0052887Y0121270D02*
X0048788Y0121270D01*
X0048918Y0120681D02*
X0053131Y0120681D01*
X0053423Y0120092D02*
X0049048Y0120092D01*
X0049178Y0119503D02*
X0054012Y0119503D01*
X0054856Y0118914D02*
X0049308Y0118914D01*
X0049438Y0118325D02*
X0056595Y0118325D01*
X0056595Y0117736D02*
X0049568Y0117736D01*
X0049698Y0117146D02*
X0056595Y0117146D01*
X0056595Y0116557D02*
X0049828Y0116557D01*
X0049958Y0115968D02*
X0056595Y0115968D01*
X0056595Y0115379D02*
X0050088Y0115379D01*
X0051595Y0079348D02*
X0056595Y0078348D01*
X0056595Y0075187D01*
X0055832Y0075187D01*
X0054421Y0074602D01*
X0053341Y0073522D01*
X0052757Y0072112D01*
X0052757Y0070584D01*
X0053341Y0069174D01*
X0054421Y0068094D01*
X0055832Y0067509D01*
X0056595Y0067509D01*
X0056595Y0062848D01*
X0051595Y0059848D01*
X0039595Y0012348D01*
X0034595Y0012348D01*
X0034595Y0017348D01*
X0051595Y0079348D01*
X0051461Y0078857D02*
X0054048Y0078857D01*
X0056595Y0078268D02*
X0051299Y0078268D01*
X0051138Y0077679D02*
X0056595Y0077679D01*
X0056595Y0077090D02*
X0050976Y0077090D01*
X0050815Y0076501D02*
X0056595Y0076501D01*
X0056595Y0075912D02*
X0050653Y0075912D01*
X0050492Y0075323D02*
X0056595Y0075323D01*
X0054739Y0074734D02*
X0050330Y0074734D01*
X0050168Y0074145D02*
X0053963Y0074145D01*
X0053374Y0073556D02*
X0050007Y0073556D01*
X0049845Y0072967D02*
X0053111Y0072967D01*
X0052867Y0072378D02*
X0049684Y0072378D01*
X0049522Y0071789D02*
X0052757Y0071789D01*
X0052757Y0071200D02*
X0049361Y0071200D01*
X0049199Y0070611D02*
X0052757Y0070611D01*
X0052990Y0070021D02*
X0049038Y0070021D01*
X0048876Y0069432D02*
X0053234Y0069432D01*
X0053671Y0068843D02*
X0048715Y0068843D01*
X0048553Y0068254D02*
X0054260Y0068254D01*
X0055456Y0067665D02*
X0048392Y0067665D01*
X0048230Y0067076D02*
X0056595Y0067076D01*
X0056595Y0066487D02*
X0048069Y0066487D01*
X0047907Y0065898D02*
X0056595Y0065898D01*
X0056595Y0065309D02*
X0047746Y0065309D01*
X0047584Y0064720D02*
X0056595Y0064720D01*
X0056595Y0064131D02*
X0047423Y0064131D01*
X0047261Y0063542D02*
X0056595Y0063542D01*
X0056595Y0062953D02*
X0047100Y0062953D01*
X0046938Y0062364D02*
X0055788Y0062364D01*
X0054806Y0061775D02*
X0046777Y0061775D01*
X0046615Y0061186D02*
X0053824Y0061186D01*
X0052843Y0060596D02*
X0046454Y0060596D01*
X0046292Y0060007D02*
X0051861Y0060007D01*
X0051487Y0059418D02*
X0046131Y0059418D01*
X0045969Y0058829D02*
X0051338Y0058829D01*
X0051189Y0058240D02*
X0045808Y0058240D01*
X0045646Y0057651D02*
X0051040Y0057651D01*
X0050891Y0057062D02*
X0045484Y0057062D01*
X0045323Y0056473D02*
X0050743Y0056473D01*
X0050594Y0055884D02*
X0045161Y0055884D01*
X0045000Y0055295D02*
X0050445Y0055295D01*
X0050296Y0054706D02*
X0044838Y0054706D01*
X0044677Y0054117D02*
X0050147Y0054117D01*
X0049998Y0053528D02*
X0044515Y0053528D01*
X0044354Y0052939D02*
X0049850Y0052939D01*
X0049701Y0052350D02*
X0044192Y0052350D01*
X0044031Y0051761D02*
X0049552Y0051761D01*
X0049403Y0051171D02*
X0043869Y0051171D01*
X0043708Y0050582D02*
X0049254Y0050582D01*
X0049106Y0049993D02*
X0043546Y0049993D01*
X0043385Y0049404D02*
X0048957Y0049404D01*
X0048808Y0048815D02*
X0043223Y0048815D01*
X0043062Y0048226D02*
X0048659Y0048226D01*
X0048510Y0047637D02*
X0042900Y0047637D01*
X0042739Y0047048D02*
X0048361Y0047048D01*
X0048213Y0046459D02*
X0042577Y0046459D01*
X0042416Y0045870D02*
X0048064Y0045870D01*
X0047915Y0045281D02*
X0042254Y0045281D01*
X0042093Y0044692D02*
X0047766Y0044692D01*
X0047617Y0044103D02*
X0041931Y0044103D01*
X0041770Y0043514D02*
X0047469Y0043514D01*
X0047320Y0042925D02*
X0041608Y0042925D01*
X0041447Y0042336D02*
X0047171Y0042336D01*
X0047022Y0041746D02*
X0041285Y0041746D01*
X0041124Y0041157D02*
X0046873Y0041157D01*
X0046724Y0040568D02*
X0040962Y0040568D01*
X0040800Y0039979D02*
X0046576Y0039979D01*
X0046427Y0039390D02*
X0040639Y0039390D01*
X0040477Y0038801D02*
X0046278Y0038801D01*
X0046129Y0038212D02*
X0040316Y0038212D01*
X0040154Y0037623D02*
X0045980Y0037623D01*
X0045832Y0037034D02*
X0039993Y0037034D01*
X0039831Y0036445D02*
X0045683Y0036445D01*
X0045534Y0035856D02*
X0039670Y0035856D01*
X0039508Y0035267D02*
X0045385Y0035267D01*
X0045236Y0034678D02*
X0039347Y0034678D01*
X0039185Y0034089D02*
X0045088Y0034089D01*
X0044939Y0033500D02*
X0039024Y0033500D01*
X0038862Y0032911D02*
X0044790Y0032911D01*
X0044641Y0032321D02*
X0038701Y0032321D01*
X0038539Y0031732D02*
X0044492Y0031732D01*
X0044343Y0031143D02*
X0038378Y0031143D01*
X0038216Y0030554D02*
X0044195Y0030554D01*
X0044046Y0029965D02*
X0038055Y0029965D01*
X0037893Y0029376D02*
X0043897Y0029376D01*
X0043748Y0028787D02*
X0037732Y0028787D01*
X0037570Y0028198D02*
X0043599Y0028198D01*
X0043451Y0027609D02*
X0037409Y0027609D01*
X0037247Y0027020D02*
X0043302Y0027020D01*
X0043153Y0026431D02*
X0037086Y0026431D01*
X0036924Y0025842D02*
X0043004Y0025842D01*
X0042855Y0025253D02*
X0036763Y0025253D01*
X0036601Y0024664D02*
X0042706Y0024664D01*
X0042558Y0024075D02*
X0036440Y0024075D01*
X0036278Y0023486D02*
X0042409Y0023486D01*
X0042260Y0022896D02*
X0036116Y0022896D01*
X0035955Y0022307D02*
X0042111Y0022307D01*
X0041962Y0021718D02*
X0035793Y0021718D01*
X0035632Y0021129D02*
X0041814Y0021129D01*
X0041665Y0020540D02*
X0035470Y0020540D01*
X0035309Y0019951D02*
X0041516Y0019951D01*
X0041367Y0019362D02*
X0035147Y0019362D01*
X0034986Y0018773D02*
X0041218Y0018773D01*
X0041069Y0018184D02*
X0034824Y0018184D01*
X0034663Y0017595D02*
X0040921Y0017595D01*
X0040772Y0017006D02*
X0034595Y0017006D01*
X0034595Y0016417D02*
X0040623Y0016417D01*
X0040474Y0015828D02*
X0034595Y0015828D01*
X0034595Y0015239D02*
X0040325Y0015239D01*
X0040177Y0014650D02*
X0034595Y0014650D01*
X0034595Y0014061D02*
X0040028Y0014061D01*
X0039879Y0013471D02*
X0034595Y0013471D01*
X0034595Y0012882D02*
X0039730Y0012882D01*
D21*
X0051414Y0012545D02*
X0081102Y0012545D01*
X0081255Y0012393D02*
X0093236Y0012393D01*
X0093236Y0011680D01*
X0093463Y0011132D01*
X0051414Y0011132D01*
X0051414Y0047326D01*
X0051417Y0047327D01*
X0051475Y0047662D01*
X0053878Y0057275D01*
X0059849Y0060950D01*
X0059967Y0060950D01*
X0060156Y0061138D01*
X0060383Y0061278D01*
X0060410Y0061393D01*
X0060494Y0061476D01*
X0060494Y0061743D01*
X0060555Y0062002D01*
X0060494Y0062102D01*
X0060494Y0069410D01*
X0060938Y0070484D01*
X0060938Y0072212D01*
X0060494Y0073286D01*
X0060494Y0079219D01*
X0060562Y0079452D01*
X0060494Y0079577D01*
X0060494Y0079720D01*
X0060322Y0079892D01*
X0060206Y0080105D01*
X0060068Y0080145D01*
X0059967Y0080246D01*
X0059725Y0080246D01*
X0051568Y0082645D01*
X0051467Y0082746D01*
X0051414Y0082746D01*
X0051414Y0111950D01*
X0058467Y0111950D01*
X0059967Y0113450D01*
X0060494Y0113976D01*
X0060494Y0120410D01*
X0060938Y0121484D01*
X0060938Y0123212D01*
X0060494Y0124286D01*
X0060494Y0131298D01*
X0060529Y0131619D01*
X0060494Y0131663D01*
X0060494Y0131720D01*
X0060266Y0131948D01*
X0054419Y0139256D01*
X0051472Y0151045D01*
X0051414Y0151335D01*
X0051414Y0174348D01*
X0134711Y0174348D01*
X0133909Y0173546D01*
X0132909Y0172546D01*
X0132909Y0156122D01*
X0132775Y0155719D01*
X0132781Y0155707D01*
X0132427Y0155707D01*
X0131192Y0155196D01*
X0130247Y0154251D01*
X0129736Y0153016D01*
X0129736Y0151680D01*
X0130247Y0150445D01*
X0131192Y0149500D01*
X0132427Y0148989D01*
X0133763Y0148989D01*
X0134409Y0149257D01*
X0134409Y0143200D01*
X0133192Y0142696D01*
X0132247Y0141751D01*
X0131736Y0140516D01*
X0131736Y0139180D01*
X0132247Y0137945D01*
X0133192Y0137000D01*
X0134427Y0136489D01*
X0135763Y0136489D01*
X0136998Y0137000D01*
X0137943Y0137945D01*
X0138454Y0139180D01*
X0138454Y0140516D01*
X0137943Y0141751D01*
X0137781Y0141913D01*
X0137781Y0151989D01*
X0138236Y0151989D01*
X0138236Y0151680D01*
X0138747Y0150445D01*
X0139692Y0149500D01*
X0140927Y0148989D01*
X0142263Y0148989D01*
X0143498Y0149500D01*
X0144443Y0150445D01*
X0144954Y0151680D01*
X0144954Y0151989D01*
X0146236Y0151989D01*
X0146236Y0151680D01*
X0146747Y0150445D01*
X0147692Y0149500D01*
X0148927Y0148989D01*
X0150263Y0148989D01*
X0151498Y0149500D01*
X0152443Y0150445D01*
X0152954Y0151680D01*
X0152954Y0151989D01*
X0153736Y0151989D01*
X0153736Y0151680D01*
X0154247Y0150445D01*
X0155192Y0149500D01*
X0156427Y0148989D01*
X0157763Y0148989D01*
X0158998Y0149500D01*
X0159943Y0150445D01*
X0160454Y0151680D01*
X0160454Y0151989D01*
X0161736Y0151989D01*
X0161736Y0151680D01*
X0162247Y0150445D01*
X0163192Y0149500D01*
X0164427Y0148989D01*
X0165763Y0148989D01*
X0166998Y0149500D01*
X0167943Y0150445D01*
X0168454Y0151680D01*
X0168454Y0153016D01*
X0167943Y0154251D01*
X0166998Y0155196D01*
X0166781Y0155286D01*
X0166781Y0168150D01*
X0166793Y0168162D01*
X0183159Y0168162D01*
X0182747Y0167751D01*
X0182236Y0166516D01*
X0182236Y0166207D01*
X0181927Y0166207D01*
X0180692Y0165696D01*
X0179747Y0164751D01*
X0179236Y0163516D01*
X0179236Y0162180D01*
X0179747Y0160945D01*
X0180692Y0160000D01*
X0181927Y0159489D01*
X0183263Y0159489D01*
X0184498Y0160000D01*
X0185443Y0160945D01*
X0185595Y0161313D01*
X0185747Y0160945D01*
X0186692Y0160000D01*
X0187927Y0159489D01*
X0189263Y0159489D01*
X0190498Y0160000D01*
X0191443Y0160945D01*
X0191954Y0162180D01*
X0191954Y0162489D01*
X0192263Y0162489D01*
X0193498Y0163000D01*
X0194443Y0163945D01*
X0194954Y0165180D01*
X0194954Y0166516D01*
X0194443Y0167751D01*
X0194031Y0168162D01*
X0358659Y0168162D01*
X0358247Y0167751D01*
X0357736Y0166516D01*
X0357736Y0165180D01*
X0358012Y0164515D01*
X0357247Y0163751D01*
X0356736Y0162516D01*
X0356736Y0161180D01*
X0357247Y0159945D01*
X0358192Y0159000D01*
X0359427Y0158489D01*
X0360763Y0158489D01*
X0361998Y0159000D01*
X0362943Y0159945D01*
X0363454Y0161180D01*
X0363454Y0162516D01*
X0363179Y0163181D01*
X0363943Y0163945D01*
X0364454Y0165180D01*
X0364454Y0166516D01*
X0363943Y0167751D01*
X0363531Y0168162D01*
X0369159Y0168162D01*
X0368247Y0167251D01*
X0367736Y0166016D01*
X0367736Y0164680D01*
X0368247Y0163445D01*
X0369192Y0162500D01*
X0370427Y0161989D01*
X0371763Y0161989D01*
X0372409Y0162257D01*
X0372409Y0151046D01*
X0355070Y0133707D01*
X0353927Y0133707D01*
X0352692Y0133196D01*
X0351747Y0132251D01*
X0351236Y0131016D01*
X0351236Y0129680D01*
X0351747Y0128445D01*
X0352692Y0127500D01*
X0353927Y0126989D01*
X0355263Y0126989D01*
X0356498Y0127500D01*
X0357443Y0128445D01*
X0357954Y0129680D01*
X0357954Y0131016D01*
X0357718Y0131587D01*
X0374793Y0148662D01*
X0375781Y0149650D01*
X0375781Y0162257D01*
X0376427Y0161989D01*
X0377763Y0161989D01*
X0378409Y0162257D01*
X0378409Y0153413D01*
X0377747Y0152751D01*
X0377236Y0151516D01*
X0377236Y0150180D01*
X0377747Y0148945D01*
X0378692Y0148000D01*
X0379927Y0147489D01*
X0381263Y0147489D01*
X0382498Y0148000D01*
X0383443Y0148945D01*
X0383954Y0150180D01*
X0383954Y0151516D01*
X0383443Y0152751D01*
X0382498Y0153696D01*
X0381781Y0153993D01*
X0381781Y0172546D01*
X0380793Y0173534D01*
X0379979Y0174348D01*
X0410732Y0174348D01*
X0410732Y0077119D01*
X0409564Y0078288D01*
X0406989Y0079354D01*
X0404202Y0079354D01*
X0401627Y0078288D01*
X0399656Y0076317D01*
X0398589Y0073742D01*
X0398589Y0070954D01*
X0399513Y0068725D01*
X0397065Y0069738D01*
X0396646Y0069738D01*
X0398052Y0072499D01*
X0398821Y0075230D01*
X0399003Y0075670D01*
X0399003Y0075877D01*
X0399060Y0076076D01*
X0399003Y0076550D01*
X0399003Y0080114D01*
X0399277Y0080388D01*
X0399938Y0081984D01*
X0399938Y0083712D01*
X0399277Y0085308D01*
X0398055Y0086530D01*
X0396459Y0087191D01*
X0395512Y0087191D01*
X0395714Y0087680D01*
X0395714Y0089016D01*
X0395203Y0090251D01*
X0394258Y0091196D01*
X0393023Y0091707D01*
X0391687Y0091707D01*
X0390452Y0091196D01*
X0389507Y0090251D01*
X0388996Y0089016D01*
X0388996Y0087680D01*
X0389507Y0086445D01*
X0390452Y0085500D01*
X0391687Y0084989D01*
X0391781Y0084989D01*
X0391252Y0083712D01*
X0391252Y0081984D01*
X0391913Y0080388D01*
X0392187Y0080114D01*
X0392187Y0076892D01*
X0391788Y0075704D01*
X0391535Y0076317D01*
X0389564Y0078288D01*
X0386989Y0079354D01*
X0384202Y0079354D01*
X0381627Y0078288D01*
X0379656Y0076317D01*
X0378589Y0073742D01*
X0378589Y0070954D01*
X0379656Y0068379D01*
X0381627Y0066409D01*
X0384202Y0065342D01*
X0384411Y0065342D01*
X0382928Y0064074D01*
X0381013Y0062874D01*
X0378849Y0061904D01*
X0374849Y0058650D01*
X0371829Y0054471D01*
X0370928Y0052107D01*
X0370889Y0052013D01*
X0370459Y0052191D01*
X0368731Y0052191D01*
X0367135Y0051530D01*
X0365913Y0050308D01*
X0365252Y0048712D01*
X0365252Y0046984D01*
X0365687Y0045934D01*
X0365687Y0040260D01*
X0356183Y0030756D01*
X0352829Y0030756D01*
X0352555Y0031030D01*
X0350959Y0031691D01*
X0349231Y0031691D01*
X0347635Y0031030D01*
X0346413Y0029808D01*
X0345752Y0028212D01*
X0345752Y0026484D01*
X0346413Y0024888D01*
X0347635Y0023666D01*
X0349231Y0023005D01*
X0349252Y0023005D01*
X0349252Y0022484D01*
X0349913Y0020888D01*
X0351135Y0019666D01*
X0352731Y0019005D01*
X0354459Y0019005D01*
X0356055Y0019666D01*
X0356329Y0019940D01*
X0357070Y0019940D01*
X0357722Y0019930D01*
X0357747Y0019940D01*
X0357773Y0019940D01*
X0358376Y0020190D01*
X0358982Y0020430D01*
X0359001Y0020449D01*
X0359026Y0020459D01*
X0359487Y0020920D01*
X0373736Y0034750D01*
X0373736Y0034680D01*
X0374247Y0033445D01*
X0375192Y0032500D01*
X0376427Y0031989D01*
X0377763Y0031989D01*
X0378998Y0032500D01*
X0379943Y0033445D01*
X0380454Y0034680D01*
X0380454Y0036016D01*
X0379943Y0037251D01*
X0378998Y0038196D01*
X0377763Y0038707D01*
X0377315Y0038707D01*
X0377493Y0039119D01*
X0377493Y0039146D01*
X0377503Y0039170D01*
X0377503Y0039822D01*
X0377513Y0040475D01*
X0377503Y0040500D01*
X0377503Y0050122D01*
X0377975Y0051152D01*
X0378589Y0052001D01*
X0378589Y0050954D01*
X0379656Y0048379D01*
X0381627Y0046409D01*
X0384202Y0045342D01*
X0386989Y0045342D01*
X0389564Y0046409D01*
X0391535Y0048379D01*
X0392601Y0050954D01*
X0392601Y0053742D01*
X0391678Y0055971D01*
X0394125Y0054958D01*
X0397065Y0054958D01*
X0399513Y0055971D01*
X0398589Y0053742D01*
X0398589Y0050954D01*
X0399656Y0048379D01*
X0401627Y0046409D01*
X0404202Y0045342D01*
X0404839Y0045342D01*
X0404747Y0045251D01*
X0404236Y0044016D01*
X0404236Y0042680D01*
X0404747Y0041445D01*
X0405692Y0040500D01*
X0406927Y0039989D01*
X0408263Y0039989D01*
X0409498Y0040500D01*
X0410443Y0041445D01*
X0410732Y0042144D01*
X0410732Y0016052D01*
X0410443Y0016751D01*
X0409498Y0017696D01*
X0408263Y0018207D01*
X0406927Y0018207D01*
X0405692Y0017696D01*
X0404747Y0016751D01*
X0404236Y0015516D01*
X0404236Y0014180D01*
X0404747Y0012945D01*
X0405692Y0012000D01*
X0406927Y0011489D01*
X0408263Y0011489D01*
X0409498Y0012000D01*
X0410443Y0012945D01*
X0410732Y0013644D01*
X0410732Y0011132D01*
X0180763Y0011132D01*
X0180781Y0011150D01*
X0181793Y0012162D01*
X0310793Y0012162D01*
X0311293Y0012662D01*
X0312281Y0013650D01*
X0312281Y0016411D01*
X0312498Y0016500D01*
X0313095Y0017098D01*
X0313692Y0016500D01*
X0314927Y0015989D01*
X0316263Y0015989D01*
X0317498Y0016500D01*
X0318443Y0017445D01*
X0318954Y0018680D01*
X0318954Y0020016D01*
X0318541Y0021015D01*
X0323203Y0021015D01*
X0323347Y0020831D01*
X0323173Y0020410D01*
X0323173Y0019074D01*
X0323684Y0017839D01*
X0324629Y0016894D01*
X0325864Y0016383D01*
X0327200Y0016383D01*
X0328435Y0016894D01*
X0329380Y0017839D01*
X0329891Y0019074D01*
X0329891Y0020410D01*
X0329380Y0021644D01*
X0328435Y0022589D01*
X0327200Y0023101D01*
X0326227Y0023101D01*
X0325929Y0023481D01*
X0325929Y0023607D01*
X0325470Y0024066D01*
X0325220Y0024385D01*
X0325498Y0024500D01*
X0326443Y0025445D01*
X0326954Y0026680D01*
X0326954Y0026989D01*
X0327263Y0026989D01*
X0328498Y0027500D01*
X0329443Y0028445D01*
X0329954Y0029680D01*
X0329954Y0029989D01*
X0330763Y0029989D01*
X0331998Y0030500D01*
X0332943Y0031445D01*
X0333454Y0032680D01*
X0333454Y0034016D01*
X0332943Y0035251D01*
X0331998Y0036196D01*
X0330763Y0036707D01*
X0329427Y0036707D01*
X0328192Y0036196D01*
X0328166Y0036169D01*
X0324142Y0037894D01*
X0323855Y0038181D01*
X0323471Y0038181D01*
X0323119Y0038332D01*
X0322742Y0038181D01*
X0317449Y0038181D01*
X0307929Y0049516D01*
X0307929Y0049607D01*
X0307448Y0050088D01*
X0307011Y0050609D01*
X0306919Y0050617D01*
X0306855Y0050681D01*
X0306175Y0050681D01*
X0305497Y0050740D01*
X0305427Y0050681D01*
X0293296Y0050681D01*
X0292752Y0050803D01*
X0292561Y0050681D01*
X0292336Y0050681D01*
X0291941Y0050287D01*
X0291454Y0049977D01*
X0291454Y0050016D01*
X0290943Y0051251D01*
X0289998Y0052196D01*
X0288763Y0052707D01*
X0287427Y0052707D01*
X0286192Y0052196D01*
X0285247Y0051251D01*
X0284736Y0050016D01*
X0284736Y0048680D01*
X0285070Y0047873D01*
X0284263Y0048207D01*
X0282927Y0048207D01*
X0281692Y0047696D01*
X0280747Y0046751D01*
X0280236Y0045516D01*
X0280236Y0044180D01*
X0280747Y0042945D01*
X0281692Y0042000D01*
X0282753Y0041561D01*
X0282762Y0041316D01*
X0282762Y0040589D01*
X0282788Y0040563D01*
X0282789Y0040526D01*
X0283321Y0040029D01*
X0283836Y0039515D01*
X0283872Y0039515D01*
X0298321Y0026029D01*
X0302262Y0022089D01*
X0303336Y0021015D01*
X0307650Y0021015D01*
X0307236Y0020016D01*
X0307236Y0018680D01*
X0307747Y0017445D01*
X0308692Y0016500D01*
X0308909Y0016411D01*
X0308909Y0015534D01*
X0180397Y0015534D01*
X0178397Y0013534D01*
X0170187Y0013534D01*
X0170454Y0014180D01*
X0170454Y0015516D01*
X0169943Y0016751D01*
X0168998Y0017696D01*
X0168473Y0017913D01*
X0168747Y0018162D01*
X0278931Y0018162D01*
X0278955Y0018139D01*
X0279624Y0018162D01*
X0280293Y0018162D01*
X0280317Y0018186D01*
X0280351Y0018187D01*
X0280808Y0018677D01*
X0281281Y0019150D01*
X0281281Y0019184D01*
X0285811Y0024037D01*
X0285927Y0023989D01*
X0287263Y0023989D01*
X0288498Y0024500D01*
X0289443Y0025445D01*
X0289954Y0026680D01*
X0289954Y0028016D01*
X0289443Y0029251D01*
X0288498Y0030196D01*
X0287263Y0030707D01*
X0285927Y0030707D01*
X0284692Y0030196D01*
X0283747Y0029251D01*
X0283236Y0028016D01*
X0283236Y0026680D01*
X0283368Y0026361D01*
X0278863Y0021534D01*
X0261325Y0021534D01*
X0261818Y0022026D01*
X0262576Y0023857D01*
X0262576Y0025839D01*
X0262106Y0026975D01*
X0266281Y0031150D01*
X0266281Y0031911D01*
X0266498Y0032000D01*
X0267443Y0032945D01*
X0267954Y0034180D01*
X0267954Y0035516D01*
X0267443Y0036751D01*
X0266498Y0037696D01*
X0265372Y0038162D01*
X0266897Y0038162D01*
X0268897Y0036162D01*
X0272158Y0036162D01*
X0272247Y0035945D01*
X0273192Y0035000D01*
X0274427Y0034489D01*
X0275763Y0034489D01*
X0276998Y0035000D01*
X0277943Y0035945D01*
X0278454Y0037180D01*
X0278454Y0038516D01*
X0277943Y0039751D01*
X0276998Y0040696D01*
X0275763Y0041207D01*
X0275454Y0041207D01*
X0275454Y0042016D01*
X0274943Y0043251D01*
X0273998Y0044196D01*
X0272763Y0044707D01*
X0272120Y0044707D01*
X0266281Y0050546D01*
X0265293Y0051534D01*
X0260769Y0051534D01*
X0261094Y0051860D01*
X0261519Y0052444D01*
X0261846Y0053087D01*
X0262070Y0053774D01*
X0262183Y0054487D01*
X0262183Y0054648D01*
X0257795Y0054648D01*
X0257795Y0055048D01*
X0262183Y0055048D01*
X0262183Y0055209D01*
X0262070Y0055922D01*
X0261846Y0056609D01*
X0261519Y0057252D01*
X0261094Y0057837D01*
X0260769Y0058162D01*
X0260793Y0058162D01*
X0261781Y0059150D01*
X0263712Y0061081D01*
X0263992Y0060800D01*
X0265227Y0060289D01*
X0266563Y0060289D01*
X0267798Y0060800D01*
X0268743Y0061745D01*
X0269254Y0062980D01*
X0269254Y0064316D01*
X0268743Y0065551D01*
X0267798Y0066496D01*
X0267439Y0066644D01*
X0267454Y0066680D01*
X0267454Y0067568D01*
X0268498Y0068000D01*
X0269443Y0068945D01*
X0269954Y0070180D01*
X0269954Y0070605D01*
X0278897Y0061662D01*
X0297897Y0061662D01*
X0314326Y0045233D01*
X0314236Y0045016D01*
X0314236Y0043680D01*
X0314747Y0042445D01*
X0315692Y0041500D01*
X0316927Y0040989D01*
X0318263Y0040989D01*
X0319498Y0041500D01*
X0320012Y0042014D01*
X0320247Y0041445D01*
X0321192Y0040500D01*
X0322427Y0039989D01*
X0323763Y0039989D01*
X0324998Y0040500D01*
X0325943Y0041445D01*
X0326454Y0042680D01*
X0326454Y0044016D01*
X0325943Y0045251D01*
X0324998Y0046196D01*
X0323763Y0046707D01*
X0322427Y0046707D01*
X0321192Y0046196D01*
X0320678Y0045682D01*
X0320443Y0046251D01*
X0319498Y0047196D01*
X0318263Y0047707D01*
X0316927Y0047707D01*
X0316710Y0047617D01*
X0300281Y0064046D01*
X0299293Y0065034D01*
X0291187Y0065034D01*
X0291454Y0065680D01*
X0291454Y0067016D01*
X0290943Y0068251D01*
X0289998Y0069196D01*
X0288763Y0069707D01*
X0287427Y0069707D01*
X0286192Y0069196D01*
X0285247Y0068251D01*
X0284736Y0067016D01*
X0284736Y0065680D01*
X0285004Y0065034D01*
X0280293Y0065034D01*
X0270781Y0074546D01*
X0269793Y0075534D01*
X0263397Y0075534D01*
X0262409Y0074546D01*
X0261897Y0074034D01*
X0239897Y0074034D01*
X0231222Y0065359D01*
X0230086Y0065829D01*
X0228104Y0065829D01*
X0226274Y0065071D01*
X0224872Y0063670D01*
X0224114Y0061839D01*
X0224114Y0059857D01*
X0224872Y0058026D01*
X0225365Y0057534D01*
X0224793Y0057534D01*
X0223606Y0058721D01*
X0224076Y0059857D01*
X0224076Y0061839D01*
X0223318Y0063670D01*
X0221917Y0065071D01*
X0220351Y0065719D01*
X0220781Y0066150D01*
X0220781Y0066155D01*
X0221917Y0066625D01*
X0223318Y0068026D01*
X0224076Y0069857D01*
X0224076Y0071839D01*
X0223318Y0073670D01*
X0222825Y0074162D01*
X0225365Y0074162D01*
X0224872Y0073670D01*
X0224114Y0071839D01*
X0224114Y0069857D01*
X0224872Y0068026D01*
X0226274Y0066625D01*
X0228104Y0065867D01*
X0230086Y0065867D01*
X0231917Y0066625D01*
X0233318Y0068026D01*
X0234076Y0069857D01*
X0234076Y0071839D01*
X0233318Y0073670D01*
X0232825Y0074162D01*
X0259793Y0074162D01*
X0260781Y0075150D01*
X0261293Y0075662D01*
X0262281Y0076650D01*
X0262281Y0082150D01*
X0263405Y0083273D01*
X0263747Y0082445D01*
X0263845Y0082348D01*
X0263747Y0082251D01*
X0263236Y0081016D01*
X0263236Y0079680D01*
X0263747Y0078445D01*
X0264692Y0077500D01*
X0265927Y0076989D01*
X0267263Y0076989D01*
X0268498Y0077500D01*
X0269443Y0078445D01*
X0269954Y0079680D01*
X0269954Y0081016D01*
X0269443Y0082251D01*
X0269346Y0082348D01*
X0269443Y0082445D01*
X0269954Y0083680D01*
X0269954Y0085016D01*
X0269443Y0086251D01*
X0269346Y0086348D01*
X0269443Y0086445D01*
X0269954Y0087680D01*
X0269954Y0089016D01*
X0269443Y0090251D01*
X0268498Y0091196D01*
X0267263Y0091707D01*
X0266954Y0091707D01*
X0266954Y0092016D01*
X0266443Y0093251D01*
X0265705Y0093989D01*
X0266763Y0093989D01*
X0267998Y0094500D01*
X0268943Y0095445D01*
X0269454Y0096680D01*
X0269454Y0098016D01*
X0268943Y0099251D01*
X0267998Y0100196D01*
X0266763Y0100707D01*
X0265427Y0100707D01*
X0264192Y0100196D01*
X0263247Y0099251D01*
X0262736Y0098016D01*
X0262736Y0096680D01*
X0263247Y0095445D01*
X0263986Y0094707D01*
X0262927Y0094707D01*
X0261692Y0094196D01*
X0260747Y0093251D01*
X0260236Y0092016D01*
X0260236Y0090680D01*
X0260262Y0090617D01*
X0257948Y0088534D01*
X0257897Y0088534D01*
X0257434Y0088071D01*
X0256948Y0087634D01*
X0256946Y0087583D01*
X0256909Y0087546D01*
X0256909Y0086892D01*
X0256875Y0086239D01*
X0256909Y0086201D01*
X0256909Y0079046D01*
X0256897Y0079034D01*
X0208397Y0079034D01*
X0206286Y0076923D01*
X0205943Y0077751D01*
X0204998Y0078696D01*
X0203763Y0079207D01*
X0202427Y0079207D01*
X0201192Y0078696D01*
X0200247Y0077751D01*
X0199736Y0076516D01*
X0199736Y0075180D01*
X0200247Y0073945D01*
X0201192Y0073000D01*
X0202409Y0072496D01*
X0202409Y0066650D01*
X0203909Y0065150D01*
X0204897Y0064162D01*
X0205365Y0064162D01*
X0204872Y0063670D01*
X0204114Y0061839D01*
X0204114Y0059857D01*
X0204872Y0058026D01*
X0206274Y0056625D01*
X0208104Y0055867D01*
X0210086Y0055867D01*
X0211222Y0056337D01*
X0215397Y0052162D01*
X0239793Y0052162D01*
X0240781Y0053150D01*
X0242614Y0054983D01*
X0242614Y0053857D01*
X0243372Y0052026D01*
X0243865Y0051534D01*
X0236897Y0051534D01*
X0233397Y0048034D01*
X0232409Y0047046D01*
X0232409Y0043046D01*
X0228722Y0039359D01*
X0227586Y0039829D01*
X0225604Y0039829D01*
X0223774Y0039071D01*
X0223281Y0038578D01*
X0223281Y0039150D01*
X0224469Y0040337D01*
X0225604Y0039867D01*
X0227586Y0039867D01*
X0229417Y0040625D01*
X0230818Y0042026D01*
X0231576Y0043857D01*
X0231576Y0045839D01*
X0230818Y0047670D01*
X0229417Y0049071D01*
X0227586Y0049829D01*
X0225604Y0049829D01*
X0223774Y0049071D01*
X0222372Y0047670D01*
X0221614Y0045839D01*
X0221614Y0043857D01*
X0222084Y0042721D01*
X0219909Y0040546D01*
X0219909Y0038578D01*
X0219417Y0039071D01*
X0217586Y0039829D01*
X0215604Y0039829D01*
X0213774Y0039071D01*
X0212372Y0037670D01*
X0211614Y0035839D01*
X0211614Y0034707D01*
X0210927Y0034707D01*
X0209692Y0034196D01*
X0208747Y0033251D01*
X0208236Y0032016D01*
X0208236Y0030680D01*
X0208747Y0029445D01*
X0209692Y0028500D01*
X0210927Y0027989D01*
X0212263Y0027989D01*
X0213498Y0028500D01*
X0214443Y0029445D01*
X0214762Y0030216D01*
X0215604Y0029867D01*
X0217586Y0029867D01*
X0219417Y0030625D01*
X0220425Y0031634D01*
X0220897Y0031162D01*
X0223381Y0028678D01*
X0222372Y0027670D01*
X0221614Y0025839D01*
X0221614Y0023857D01*
X0222372Y0022026D01*
X0222865Y0021534D01*
X0219769Y0021534D01*
X0220094Y0021860D01*
X0220519Y0022444D01*
X0220846Y0023087D01*
X0221070Y0023774D01*
X0221183Y0024487D01*
X0221183Y0024648D01*
X0216795Y0024648D01*
X0216795Y0025048D01*
X0216395Y0025048D01*
X0216395Y0024648D01*
X0212008Y0024648D01*
X0212008Y0024487D01*
X0212121Y0023774D01*
X0212344Y0023087D01*
X0212672Y0022444D01*
X0213096Y0021860D01*
X0213422Y0021534D01*
X0202531Y0021534D01*
X0203443Y0022445D01*
X0203954Y0023680D01*
X0203954Y0025016D01*
X0203443Y0026251D01*
X0202498Y0027196D01*
X0201263Y0027707D01*
X0199927Y0027707D01*
X0198692Y0027196D01*
X0197747Y0026251D01*
X0197236Y0025016D01*
X0197236Y0023680D01*
X0197747Y0022445D01*
X0198659Y0021534D01*
X0168135Y0021534D01*
X0167478Y0021565D01*
X0167443Y0021534D01*
X0167397Y0021534D01*
X0166931Y0021068D01*
X0166782Y0020932D01*
X0166443Y0021751D01*
X0165498Y0022696D01*
X0164263Y0023207D01*
X0163954Y0023207D01*
X0163954Y0023516D01*
X0163758Y0023989D01*
X0164763Y0023989D01*
X0165998Y0024500D01*
X0166943Y0025445D01*
X0167454Y0026680D01*
X0167454Y0028016D01*
X0166943Y0029251D01*
X0166031Y0030162D01*
X0171659Y0030162D01*
X0170747Y0029251D01*
X0170236Y0028016D01*
X0170236Y0026680D01*
X0170747Y0025445D01*
X0171692Y0024500D01*
X0172927Y0023989D01*
X0174263Y0023989D01*
X0175498Y0024500D01*
X0176443Y0025445D01*
X0176954Y0026680D01*
X0176954Y0028016D01*
X0176443Y0029251D01*
X0175498Y0030196D01*
X0175380Y0030244D01*
X0175998Y0030500D01*
X0176943Y0031445D01*
X0177454Y0032680D01*
X0177454Y0034016D01*
X0176943Y0035251D01*
X0175998Y0036196D01*
X0174763Y0036707D01*
X0173427Y0036707D01*
X0172192Y0036196D01*
X0171247Y0035251D01*
X0170736Y0034016D01*
X0170736Y0033534D01*
X0162531Y0033534D01*
X0163443Y0034445D01*
X0163954Y0035680D01*
X0163954Y0037016D01*
X0163443Y0038251D01*
X0162498Y0039196D01*
X0161263Y0039707D01*
X0159927Y0039707D01*
X0158692Y0039196D01*
X0157747Y0038251D01*
X0157236Y0037016D01*
X0157236Y0035680D01*
X0157747Y0034445D01*
X0158659Y0033534D01*
X0153033Y0033534D01*
X0152943Y0033751D01*
X0151998Y0034696D01*
X0150763Y0035207D01*
X0149427Y0035207D01*
X0148192Y0034696D01*
X0147247Y0033751D01*
X0146736Y0032516D01*
X0146736Y0031180D01*
X0147247Y0029945D01*
X0147595Y0029598D01*
X0147247Y0029251D01*
X0146736Y0028016D01*
X0146736Y0026680D01*
X0147247Y0025445D01*
X0148192Y0024500D01*
X0149427Y0023989D01*
X0150763Y0023989D01*
X0151998Y0024500D01*
X0152943Y0025445D01*
X0153454Y0026680D01*
X0153454Y0028016D01*
X0152943Y0029251D01*
X0152596Y0029598D01*
X0152943Y0029945D01*
X0153033Y0030162D01*
X0162159Y0030162D01*
X0161247Y0029251D01*
X0160736Y0028016D01*
X0160736Y0026680D01*
X0160932Y0026207D01*
X0159927Y0026207D01*
X0158692Y0025696D01*
X0157747Y0024751D01*
X0157236Y0023516D01*
X0157236Y0022180D01*
X0157747Y0020945D01*
X0158692Y0020000D01*
X0159927Y0019489D01*
X0160236Y0019489D01*
X0160236Y0019180D01*
X0160747Y0017945D01*
X0161692Y0017000D01*
X0162217Y0016783D01*
X0161943Y0016534D01*
X0119781Y0016534D01*
X0119781Y0028911D01*
X0119998Y0029000D01*
X0120943Y0029945D01*
X0121454Y0031180D01*
X0121454Y0032516D01*
X0120943Y0033751D01*
X0119998Y0034696D01*
X0118763Y0035207D01*
X0117427Y0035207D01*
X0116192Y0034696D01*
X0115247Y0033751D01*
X0114736Y0032516D01*
X0114736Y0031180D01*
X0115247Y0029945D01*
X0116192Y0029000D01*
X0116409Y0028911D01*
X0116409Y0014650D01*
X0117397Y0013662D01*
X0117897Y0013162D01*
X0147004Y0013162D01*
X0146736Y0012516D01*
X0146736Y0011180D01*
X0146756Y0011132D01*
X0099727Y0011132D01*
X0099954Y0011680D01*
X0099954Y0013016D01*
X0099443Y0014251D01*
X0098498Y0015196D01*
X0097263Y0015707D01*
X0095927Y0015707D01*
X0094692Y0015196D01*
X0094551Y0015054D01*
X0094551Y0025688D01*
X0093936Y0026304D01*
X0081255Y0026304D01*
X0080640Y0025688D01*
X0080640Y0013008D01*
X0081255Y0012393D01*
X0080640Y0014144D02*
X0069110Y0014144D01*
X0068944Y0014099D02*
X0071551Y0014798D01*
X0073888Y0016147D01*
X0075796Y0018055D01*
X0077146Y0020392D01*
X0077844Y0022999D01*
X0077844Y0025697D01*
X0077146Y0028304D01*
X0075796Y0030641D01*
X0073888Y0032549D01*
X0071551Y0033898D01*
X0068944Y0034597D01*
X0066246Y0034597D01*
X0063639Y0033898D01*
X0061302Y0032549D01*
X0059394Y0030641D01*
X0058045Y0028304D01*
X0057346Y0025697D01*
X0057346Y0022999D01*
X0058045Y0020392D01*
X0059394Y0018055D01*
X0061302Y0016147D01*
X0063639Y0014798D01*
X0066246Y0014099D01*
X0068944Y0014099D01*
X0066080Y0014144D02*
X0051414Y0014144D01*
X0051414Y0015742D02*
X0062003Y0015742D01*
X0060109Y0017341D02*
X0051414Y0017341D01*
X0051414Y0018939D02*
X0058884Y0018939D01*
X0058006Y0020538D02*
X0051414Y0020538D01*
X0051414Y0022136D02*
X0057577Y0022136D01*
X0057346Y0023735D02*
X0051414Y0023735D01*
X0051414Y0025333D02*
X0057346Y0025333D01*
X0057677Y0026932D02*
X0051414Y0026932D01*
X0051414Y0028530D02*
X0058175Y0028530D01*
X0059098Y0030129D02*
X0051414Y0030129D01*
X0051414Y0031727D02*
X0060480Y0031727D01*
X0062647Y0033326D02*
X0051414Y0033326D01*
X0051414Y0034924D02*
X0116744Y0034924D01*
X0115071Y0033326D02*
X0072543Y0033326D01*
X0074710Y0031727D02*
X0114736Y0031727D01*
X0115171Y0030129D02*
X0076092Y0030129D01*
X0077015Y0028530D02*
X0116409Y0028530D01*
X0116409Y0026932D02*
X0077513Y0026932D01*
X0077844Y0025333D02*
X0080640Y0025333D01*
X0080640Y0023735D02*
X0077844Y0023735D01*
X0077613Y0022136D02*
X0080640Y0022136D01*
X0080640Y0020538D02*
X0077184Y0020538D01*
X0076307Y0018939D02*
X0080640Y0018939D01*
X0080640Y0017341D02*
X0075082Y0017341D01*
X0073187Y0015742D02*
X0080640Y0015742D01*
X0094551Y0015742D02*
X0116409Y0015742D01*
X0116409Y0017341D02*
X0094551Y0017341D01*
X0094551Y0018939D02*
X0116409Y0018939D01*
X0116409Y0020538D02*
X0094551Y0020538D01*
X0094551Y0022136D02*
X0116409Y0022136D01*
X0116409Y0023735D02*
X0094551Y0023735D01*
X0094551Y0025333D02*
X0116409Y0025333D01*
X0119781Y0025333D02*
X0147360Y0025333D01*
X0146736Y0026932D02*
X0119781Y0026932D01*
X0119781Y0028530D02*
X0146949Y0028530D01*
X0147171Y0030129D02*
X0121019Y0030129D01*
X0121454Y0031727D02*
X0146736Y0031727D01*
X0147071Y0033326D02*
X0121119Y0033326D01*
X0119446Y0034924D02*
X0148744Y0034924D01*
X0151446Y0034924D02*
X0157549Y0034924D01*
X0157236Y0036523D02*
X0051414Y0036523D01*
X0051414Y0038121D02*
X0157694Y0038121D01*
X0163496Y0038121D02*
X0173608Y0038121D01*
X0173927Y0037989D02*
X0175263Y0037989D01*
X0176498Y0038500D01*
X0177443Y0039445D01*
X0177932Y0040627D01*
X0183826Y0034733D01*
X0183736Y0034516D01*
X0183736Y0033180D01*
X0184158Y0032161D01*
X0183747Y0031751D01*
X0183595Y0031383D01*
X0183443Y0031751D01*
X0182498Y0032696D01*
X0181263Y0033207D01*
X0179927Y0033207D01*
X0178692Y0032696D01*
X0177747Y0031751D01*
X0177236Y0030516D01*
X0177236Y0029180D01*
X0177747Y0027945D01*
X0178692Y0027000D01*
X0179927Y0026489D01*
X0181263Y0026489D01*
X0182498Y0027000D01*
X0183443Y0027945D01*
X0183595Y0028313D01*
X0183747Y0027945D01*
X0184692Y0027000D01*
X0185927Y0026489D01*
X0187263Y0026489D01*
X0188498Y0027000D01*
X0189443Y0027945D01*
X0189954Y0029180D01*
X0189954Y0030516D01*
X0189532Y0031535D01*
X0189943Y0031945D01*
X0190345Y0032917D01*
X0190747Y0031945D01*
X0191692Y0031000D01*
X0192927Y0030489D01*
X0194263Y0030489D01*
X0195498Y0031000D01*
X0196443Y0031945D01*
X0196954Y0033180D01*
X0196954Y0034516D01*
X0196443Y0035751D01*
X0195498Y0036696D01*
X0194263Y0037207D01*
X0192927Y0037207D01*
X0191692Y0036696D01*
X0190747Y0035751D01*
X0190345Y0034779D01*
X0189943Y0035751D01*
X0188998Y0036696D01*
X0187763Y0037207D01*
X0186427Y0037207D01*
X0186210Y0037117D01*
X0179281Y0044046D01*
X0179281Y0053046D01*
X0173281Y0059046D01*
X0172293Y0060034D01*
X0166033Y0060034D01*
X0165943Y0060251D01*
X0164998Y0061196D01*
X0163763Y0061707D01*
X0162427Y0061707D01*
X0161192Y0061196D01*
X0160247Y0060251D01*
X0159736Y0059016D01*
X0159736Y0057680D01*
X0160247Y0056445D01*
X0161192Y0055500D01*
X0162427Y0054989D01*
X0163763Y0054989D01*
X0164998Y0055500D01*
X0165943Y0056445D01*
X0166033Y0056662D01*
X0170897Y0056662D01*
X0175909Y0051650D01*
X0175909Y0044439D01*
X0175263Y0044707D01*
X0173927Y0044707D01*
X0172692Y0044196D01*
X0171747Y0043251D01*
X0171236Y0042016D01*
X0171236Y0040680D01*
X0171747Y0039445D01*
X0172692Y0038500D01*
X0173927Y0037989D01*
X0175583Y0038121D02*
X0180438Y0038121D01*
X0182036Y0036523D02*
X0175208Y0036523D01*
X0172982Y0036523D02*
X0163954Y0036523D01*
X0163641Y0034924D02*
X0171112Y0034924D01*
X0171625Y0030129D02*
X0166065Y0030129D01*
X0167241Y0028530D02*
X0170449Y0028530D01*
X0170236Y0026932D02*
X0167454Y0026932D01*
X0166831Y0025333D02*
X0170860Y0025333D01*
X0176331Y0025333D02*
X0197367Y0025333D01*
X0197236Y0023735D02*
X0163864Y0023735D01*
X0166057Y0022136D02*
X0198057Y0022136D01*
X0203134Y0022136D02*
X0212895Y0022136D01*
X0212133Y0023735D02*
X0203954Y0023735D01*
X0203823Y0025333D02*
X0212027Y0025333D01*
X0212008Y0025209D02*
X0212008Y0025048D01*
X0216395Y0025048D01*
X0216395Y0029435D01*
X0216234Y0029435D01*
X0215521Y0029322D01*
X0214834Y0029099D01*
X0214191Y0028772D01*
X0213607Y0028347D01*
X0213096Y0027837D01*
X0212672Y0027252D01*
X0212344Y0026609D01*
X0212121Y0025922D01*
X0212008Y0025209D01*
X0212508Y0026932D02*
X0202762Y0026932D01*
X0198428Y0026932D02*
X0188332Y0026932D01*
X0189685Y0028530D02*
X0209663Y0028530D01*
X0208464Y0030129D02*
X0189954Y0030129D01*
X0189725Y0031727D02*
X0190966Y0031727D01*
X0196225Y0031727D02*
X0208236Y0031727D01*
X0208822Y0033326D02*
X0196954Y0033326D01*
X0196785Y0034924D02*
X0211614Y0034924D01*
X0211897Y0036523D02*
X0195671Y0036523D01*
X0191519Y0036523D02*
X0189171Y0036523D01*
X0190285Y0034924D02*
X0190405Y0034924D01*
X0185206Y0038121D02*
X0212824Y0038121D01*
X0213774Y0040625D02*
X0215604Y0039867D01*
X0217586Y0039867D01*
X0219417Y0040625D01*
X0220818Y0042026D01*
X0221576Y0043857D01*
X0221576Y0045839D01*
X0220818Y0047670D01*
X0219417Y0049071D01*
X0217586Y0049829D01*
X0215604Y0049829D01*
X0213774Y0049071D01*
X0212372Y0047670D01*
X0211614Y0045839D01*
X0211614Y0043857D01*
X0212372Y0042026D01*
X0213774Y0040625D01*
X0213081Y0041318D02*
X0182009Y0041318D01*
X0183608Y0039720D02*
X0215340Y0039720D01*
X0217850Y0039720D02*
X0219909Y0039720D01*
X0220110Y0041318D02*
X0220681Y0041318D01*
X0221187Y0042917D02*
X0222004Y0042917D01*
X0221614Y0044515D02*
X0221576Y0044515D01*
X0221462Y0046114D02*
X0221728Y0046114D01*
X0222415Y0047712D02*
X0220775Y0047712D01*
X0218837Y0049311D02*
X0224353Y0049311D01*
X0228837Y0049311D02*
X0234674Y0049311D01*
X0236272Y0050909D02*
X0179281Y0050909D01*
X0179281Y0049311D02*
X0214353Y0049311D01*
X0212415Y0047712D02*
X0179281Y0047712D01*
X0179281Y0046114D02*
X0211728Y0046114D01*
X0211614Y0044515D02*
X0179281Y0044515D01*
X0180411Y0042917D02*
X0212004Y0042917D01*
X0223851Y0039720D02*
X0225340Y0039720D01*
X0227850Y0039720D02*
X0229083Y0039720D01*
X0230110Y0041318D02*
X0230681Y0041318D01*
X0231187Y0042917D02*
X0232280Y0042917D01*
X0232409Y0044515D02*
X0231576Y0044515D01*
X0231462Y0046114D02*
X0232409Y0046114D01*
X0233075Y0047712D02*
X0230775Y0047712D01*
X0235781Y0045650D02*
X0238293Y0048162D01*
X0243865Y0048162D01*
X0243372Y0047670D01*
X0242614Y0045839D01*
X0242614Y0043857D01*
X0243372Y0042026D01*
X0243865Y0041534D01*
X0237897Y0041534D01*
X0231576Y0035213D01*
X0231576Y0035839D01*
X0231106Y0036975D01*
X0235781Y0041650D01*
X0235781Y0045650D01*
X0236245Y0046114D02*
X0242728Y0046114D01*
X0242614Y0044515D02*
X0235781Y0044515D01*
X0235781Y0042917D02*
X0243004Y0042917D01*
X0237681Y0041318D02*
X0235449Y0041318D01*
X0236083Y0039720D02*
X0233851Y0039720D01*
X0234484Y0038121D02*
X0232252Y0038121D01*
X0232886Y0036523D02*
X0231293Y0036523D01*
X0221930Y0030129D02*
X0218218Y0030129D01*
X0217669Y0029322D02*
X0216956Y0029435D01*
X0216795Y0029435D01*
X0216795Y0025048D01*
X0221183Y0025048D01*
X0221183Y0025209D01*
X0221070Y0025922D01*
X0220846Y0026609D01*
X0220519Y0027252D01*
X0220094Y0027837D01*
X0219584Y0028347D01*
X0218999Y0028772D01*
X0218356Y0029099D01*
X0217669Y0029322D01*
X0216795Y0028530D02*
X0216395Y0028530D01*
X0216395Y0026932D02*
X0216795Y0026932D01*
X0216795Y0025333D02*
X0216395Y0025333D01*
X0213859Y0028530D02*
X0213528Y0028530D01*
X0214726Y0030129D02*
X0214972Y0030129D01*
X0219332Y0028530D02*
X0223233Y0028530D01*
X0222067Y0026932D02*
X0220682Y0026932D01*
X0221163Y0025333D02*
X0221614Y0025333D01*
X0221665Y0023735D02*
X0221057Y0023735D01*
X0220295Y0022136D02*
X0222327Y0022136D01*
X0184858Y0026932D02*
X0182332Y0026932D01*
X0178858Y0026932D02*
X0176954Y0026932D01*
X0176741Y0028530D02*
X0177505Y0028530D01*
X0177236Y0030129D02*
X0175565Y0030129D01*
X0177060Y0031727D02*
X0177738Y0031727D01*
X0177454Y0033326D02*
X0183736Y0033326D01*
X0183738Y0031727D02*
X0183453Y0031727D01*
X0183635Y0034924D02*
X0177078Y0034924D01*
X0177556Y0039720D02*
X0178839Y0039720D01*
X0175909Y0044515D02*
X0175726Y0044515D01*
X0175909Y0046114D02*
X0167927Y0046114D01*
X0167954Y0046180D02*
X0167443Y0044945D01*
X0166498Y0044000D01*
X0165263Y0043489D01*
X0163927Y0043489D01*
X0162692Y0044000D01*
X0161747Y0044945D01*
X0161236Y0046180D01*
X0161236Y0047516D01*
X0161747Y0048751D01*
X0162692Y0049696D01*
X0163927Y0050207D01*
X0165263Y0050207D01*
X0166498Y0049696D01*
X0167443Y0048751D01*
X0167954Y0047516D01*
X0167954Y0046180D01*
X0167873Y0047712D02*
X0175909Y0047712D01*
X0175909Y0049311D02*
X0166883Y0049311D01*
X0162308Y0049311D02*
X0051887Y0049311D01*
X0052287Y0050909D02*
X0100783Y0050909D01*
X0100747Y0050945D02*
X0101692Y0050000D01*
X0102927Y0049489D01*
X0104263Y0049489D01*
X0105498Y0050000D01*
X0106443Y0050945D01*
X0106954Y0052180D01*
X0106954Y0053516D01*
X0106443Y0054751D01*
X0105498Y0055696D01*
X0104263Y0056207D01*
X0102927Y0056207D01*
X0101692Y0055696D01*
X0100747Y0054751D01*
X0100236Y0053516D01*
X0100236Y0052180D01*
X0100747Y0050945D01*
X0100236Y0052508D02*
X0052686Y0052508D01*
X0053086Y0054106D02*
X0100481Y0054106D01*
X0101715Y0055705D02*
X0053485Y0055705D01*
X0053924Y0057303D02*
X0146355Y0057303D01*
X0146236Y0057016D02*
X0146236Y0055680D01*
X0146747Y0054445D01*
X0147692Y0053500D01*
X0148927Y0052989D01*
X0150263Y0052989D01*
X0151498Y0053500D01*
X0152443Y0054445D01*
X0152954Y0055680D01*
X0152954Y0057016D01*
X0152443Y0058251D01*
X0151498Y0059196D01*
X0150263Y0059707D01*
X0148927Y0059707D01*
X0147692Y0059196D01*
X0146747Y0058251D01*
X0146236Y0057016D01*
X0146236Y0055705D02*
X0105476Y0055705D01*
X0106710Y0054106D02*
X0147086Y0054106D01*
X0152104Y0054106D02*
X0173453Y0054106D01*
X0175051Y0052508D02*
X0106954Y0052508D01*
X0106407Y0050909D02*
X0175909Y0050909D01*
X0179281Y0052508D02*
X0215051Y0052508D01*
X0213453Y0054106D02*
X0178221Y0054106D01*
X0176622Y0055705D02*
X0211854Y0055705D01*
X0205595Y0057303D02*
X0175024Y0057303D01*
X0173425Y0058902D02*
X0204510Y0058902D01*
X0204114Y0060500D02*
X0165693Y0060500D01*
X0160497Y0060500D02*
X0059119Y0060500D01*
X0060496Y0062099D02*
X0204222Y0062099D01*
X0204900Y0063697D02*
X0086195Y0063697D01*
X0085998Y0063500D02*
X0086943Y0064445D01*
X0087454Y0065680D01*
X0087454Y0067016D01*
X0086943Y0068251D01*
X0085998Y0069196D01*
X0084763Y0069707D01*
X0083427Y0069707D01*
X0082192Y0069196D01*
X0081247Y0068251D01*
X0080736Y0067016D01*
X0080736Y0065680D01*
X0081247Y0064445D01*
X0082192Y0063500D01*
X0083427Y0062989D01*
X0084763Y0062989D01*
X0085998Y0063500D01*
X0087295Y0065296D02*
X0203763Y0065296D01*
X0202409Y0066894D02*
X0087454Y0066894D01*
X0086701Y0068493D02*
X0177210Y0068493D01*
X0177192Y0068500D02*
X0178427Y0067989D01*
X0179763Y0067989D01*
X0180998Y0068500D01*
X0181943Y0069445D01*
X0182454Y0070680D01*
X0182454Y0072016D01*
X0181943Y0073251D01*
X0180998Y0074196D01*
X0179763Y0074707D01*
X0178427Y0074707D01*
X0177192Y0074196D01*
X0176247Y0073251D01*
X0175736Y0072016D01*
X0175736Y0070680D01*
X0176247Y0069445D01*
X0177192Y0068500D01*
X0175980Y0070091D02*
X0060776Y0070091D01*
X0060938Y0071690D02*
X0175736Y0071690D01*
X0176285Y0073288D02*
X0060494Y0073288D01*
X0060494Y0074887D02*
X0079806Y0074887D01*
X0079747Y0074945D02*
X0080692Y0074000D01*
X0081927Y0073489D01*
X0083263Y0073489D01*
X0084498Y0074000D01*
X0085443Y0074945D01*
X0085954Y0076180D01*
X0085954Y0077516D01*
X0085443Y0078751D01*
X0084498Y0079696D01*
X0083263Y0080207D01*
X0081927Y0080207D01*
X0080692Y0079696D01*
X0079747Y0078751D01*
X0079236Y0077516D01*
X0079236Y0076180D01*
X0079747Y0074945D01*
X0079236Y0076486D02*
X0060494Y0076486D01*
X0060494Y0078084D02*
X0079471Y0078084D01*
X0080679Y0079683D02*
X0060494Y0079683D01*
X0056207Y0081281D02*
X0175736Y0081281D01*
X0175736Y0080680D02*
X0176247Y0079445D01*
X0177192Y0078500D01*
X0178427Y0077989D01*
X0179763Y0077989D01*
X0180998Y0078500D01*
X0181943Y0079445D01*
X0182454Y0080680D01*
X0182454Y0082016D01*
X0181943Y0083251D01*
X0180998Y0084196D01*
X0180630Y0084348D01*
X0180998Y0084500D01*
X0181943Y0085445D01*
X0182454Y0086680D01*
X0182454Y0088016D01*
X0181943Y0089251D01*
X0180998Y0090196D01*
X0179763Y0090707D01*
X0178427Y0090707D01*
X0177192Y0090196D01*
X0176247Y0089251D01*
X0175736Y0088016D01*
X0175736Y0086680D01*
X0176247Y0085445D01*
X0177192Y0084500D01*
X0177560Y0084348D01*
X0177192Y0084196D01*
X0176247Y0083251D01*
X0175736Y0082016D01*
X0175736Y0080680D01*
X0176149Y0079683D02*
X0084511Y0079683D01*
X0085719Y0078084D02*
X0178198Y0078084D01*
X0179993Y0078084D02*
X0190630Y0078084D01*
X0190927Y0078207D02*
X0189692Y0077696D01*
X0188747Y0076751D01*
X0188236Y0075516D01*
X0188236Y0074180D01*
X0188747Y0072945D01*
X0189692Y0072000D01*
X0190927Y0071489D01*
X0192263Y0071489D01*
X0193498Y0072000D01*
X0194443Y0072945D01*
X0194954Y0074180D01*
X0194954Y0075516D01*
X0194443Y0076751D01*
X0193498Y0077696D01*
X0192263Y0078207D01*
X0190927Y0078207D01*
X0192560Y0078084D02*
X0200581Y0078084D01*
X0199736Y0076486D02*
X0194553Y0076486D01*
X0194954Y0074887D02*
X0199857Y0074887D01*
X0200904Y0073288D02*
X0194585Y0073288D01*
X0192749Y0071690D02*
X0202409Y0071690D01*
X0202409Y0070091D02*
X0182210Y0070091D01*
X0182454Y0071690D02*
X0190442Y0071690D01*
X0188605Y0073288D02*
X0181905Y0073288D01*
X0188236Y0074887D02*
X0085385Y0074887D01*
X0085954Y0076486D02*
X0188638Y0076486D01*
X0189692Y0080500D02*
X0190927Y0079989D01*
X0192263Y0079989D01*
X0193498Y0080500D01*
X0194443Y0081445D01*
X0194954Y0082680D01*
X0194954Y0084016D01*
X0194443Y0085251D01*
X0193498Y0086196D01*
X0192263Y0086707D01*
X0190927Y0086707D01*
X0189692Y0086196D01*
X0188747Y0085251D01*
X0188236Y0084016D01*
X0188236Y0082680D01*
X0188747Y0081445D01*
X0189692Y0080500D01*
X0188912Y0081281D02*
X0182454Y0081281D01*
X0182097Y0082880D02*
X0188236Y0082880D01*
X0188427Y0084478D02*
X0180944Y0084478D01*
X0182204Y0086077D02*
X0189573Y0086077D01*
X0193617Y0086077D02*
X0203073Y0086077D01*
X0203192Y0086196D02*
X0202247Y0085251D01*
X0201736Y0084016D01*
X0201736Y0082680D01*
X0202247Y0081445D01*
X0203192Y0080500D01*
X0204427Y0079989D01*
X0205763Y0079989D01*
X0206998Y0080500D01*
X0207943Y0081445D01*
X0208454Y0082680D01*
X0208454Y0084016D01*
X0207943Y0085251D01*
X0206998Y0086196D01*
X0205763Y0086707D01*
X0204427Y0086707D01*
X0203192Y0086196D01*
X0204192Y0088000D02*
X0205427Y0087489D01*
X0206763Y0087489D01*
X0207998Y0088000D01*
X0208943Y0088945D01*
X0209454Y0090180D01*
X0209454Y0091516D01*
X0208943Y0092751D01*
X0207998Y0093696D01*
X0206763Y0094207D01*
X0205427Y0094207D01*
X0204192Y0093696D01*
X0203247Y0092751D01*
X0203095Y0092383D01*
X0202943Y0092751D01*
X0201998Y0093696D01*
X0200763Y0094207D01*
X0199427Y0094207D01*
X0198620Y0093873D01*
X0198954Y0094680D01*
X0198954Y0096016D01*
X0198443Y0097251D01*
X0198075Y0097618D01*
X0198998Y0098000D01*
X0199943Y0098945D01*
X0200454Y0100180D01*
X0200454Y0101516D01*
X0199943Y0102751D01*
X0198998Y0103696D01*
X0198085Y0104074D01*
X0199417Y0104625D01*
X0200818Y0106026D01*
X0201576Y0107857D01*
X0201576Y0109839D01*
X0200818Y0111670D01*
X0199417Y0113071D01*
X0197586Y0113829D01*
X0195604Y0113829D01*
X0193774Y0113071D01*
X0192372Y0111670D01*
X0191614Y0109839D01*
X0191614Y0107857D01*
X0192372Y0106026D01*
X0193774Y0104625D01*
X0195604Y0103867D01*
X0195606Y0103867D01*
X0195192Y0103696D01*
X0194247Y0102751D01*
X0194022Y0102207D01*
X0192927Y0102207D01*
X0191692Y0101696D01*
X0190747Y0100751D01*
X0190236Y0099516D01*
X0190236Y0098180D01*
X0190747Y0096945D01*
X0191692Y0096000D01*
X0192236Y0095775D01*
X0192236Y0094680D01*
X0192747Y0093445D01*
X0193692Y0092500D01*
X0194927Y0091989D01*
X0196263Y0091989D01*
X0197070Y0092323D01*
X0196736Y0091516D01*
X0196736Y0090180D01*
X0197247Y0088945D01*
X0198192Y0088000D01*
X0199427Y0087489D01*
X0200763Y0087489D01*
X0201998Y0088000D01*
X0202943Y0088945D01*
X0203095Y0089313D01*
X0203247Y0088945D01*
X0204192Y0088000D01*
X0204978Y0087675D02*
X0201213Y0087675D01*
X0198978Y0087675D02*
X0182454Y0087675D01*
X0181920Y0089274D02*
X0197111Y0089274D01*
X0196736Y0090872D02*
X0051414Y0090872D01*
X0051414Y0089274D02*
X0176270Y0089274D01*
X0175736Y0087675D02*
X0051414Y0087675D01*
X0051414Y0086077D02*
X0175986Y0086077D01*
X0177246Y0084478D02*
X0051414Y0084478D01*
X0051414Y0082880D02*
X0176094Y0082880D01*
X0182041Y0079683D02*
X0212627Y0079683D01*
X0212192Y0079863D02*
X0213427Y0079351D01*
X0214763Y0079351D01*
X0215998Y0079863D01*
X0216943Y0080807D01*
X0217454Y0082042D01*
X0217454Y0083378D01*
X0216943Y0084613D01*
X0215998Y0085558D01*
X0214763Y0086069D01*
X0213427Y0086069D01*
X0212192Y0085558D01*
X0211247Y0084613D01*
X0210736Y0083378D01*
X0210736Y0082042D01*
X0211247Y0080807D01*
X0212192Y0079863D01*
X0211051Y0081281D02*
X0207779Y0081281D01*
X0208454Y0082880D02*
X0210736Y0082880D01*
X0211192Y0084478D02*
X0208263Y0084478D01*
X0207117Y0086077D02*
X0219279Y0086077D01*
X0219236Y0086180D02*
X0219747Y0084945D01*
X0220692Y0084000D01*
X0221927Y0083489D01*
X0223263Y0083489D01*
X0224498Y0084000D01*
X0225443Y0084945D01*
X0225954Y0086180D01*
X0225954Y0087516D01*
X0225443Y0088751D01*
X0224498Y0089696D01*
X0223263Y0090207D01*
X0221927Y0090207D01*
X0220692Y0089696D01*
X0219747Y0088751D01*
X0219236Y0087516D01*
X0219236Y0086180D01*
X0219302Y0087675D02*
X0207213Y0087675D01*
X0209079Y0089274D02*
X0220270Y0089274D01*
X0224920Y0089274D02*
X0258770Y0089274D01*
X0260236Y0090872D02*
X0209454Y0090872D01*
X0209059Y0092471D02*
X0260424Y0092471D01*
X0261566Y0094069D02*
X0207096Y0094069D01*
X0207263Y0094989D02*
X0208498Y0095500D01*
X0209443Y0096445D01*
X0209954Y0097680D01*
X0209954Y0099016D01*
X0209443Y0100251D01*
X0208498Y0101196D01*
X0207263Y0101707D01*
X0205927Y0101707D01*
X0204692Y0101196D01*
X0203747Y0100251D01*
X0203236Y0099016D01*
X0203236Y0097680D01*
X0203747Y0096445D01*
X0204692Y0095500D01*
X0205927Y0094989D01*
X0207263Y0094989D01*
X0208665Y0095668D02*
X0245525Y0095668D01*
X0245247Y0095945D02*
X0246192Y0095000D01*
X0247427Y0094489D01*
X0248763Y0094489D01*
X0249998Y0095000D01*
X0250943Y0095945D01*
X0251095Y0096313D01*
X0251247Y0095945D01*
X0252192Y0095000D01*
X0253427Y0094489D01*
X0254763Y0094489D01*
X0255998Y0095000D01*
X0256943Y0095945D01*
X0257454Y0097180D01*
X0257454Y0098068D01*
X0258498Y0098500D01*
X0259443Y0099445D01*
X0259954Y0100680D01*
X0259954Y0102016D01*
X0259443Y0103251D01*
X0258498Y0104196D01*
X0257263Y0104707D01*
X0256205Y0104707D01*
X0256943Y0105445D01*
X0257454Y0106680D01*
X0257454Y0108016D01*
X0256943Y0109251D01*
X0255998Y0110196D01*
X0254763Y0110707D01*
X0254454Y0110707D01*
X0254454Y0111016D01*
X0253943Y0112251D01*
X0252998Y0113196D01*
X0251763Y0113707D01*
X0250427Y0113707D01*
X0249192Y0113196D01*
X0248247Y0112251D01*
X0247736Y0111016D01*
X0247736Y0109680D01*
X0248247Y0108445D01*
X0249192Y0107500D01*
X0250427Y0106989D01*
X0250736Y0106989D01*
X0250736Y0106680D01*
X0251247Y0105445D01*
X0252192Y0104500D01*
X0253427Y0103989D01*
X0254486Y0103989D01*
X0253747Y0103251D01*
X0253236Y0102016D01*
X0253236Y0101128D01*
X0252192Y0100696D01*
X0251247Y0099751D01*
X0251095Y0099383D01*
X0250943Y0099751D01*
X0249998Y0100696D01*
X0248763Y0101207D01*
X0247427Y0101207D01*
X0246192Y0100696D01*
X0245247Y0099751D01*
X0244736Y0098516D01*
X0244736Y0097180D01*
X0245247Y0095945D01*
X0244736Y0097266D02*
X0209783Y0097266D01*
X0209954Y0098865D02*
X0244880Y0098865D01*
X0245960Y0100463D02*
X0209230Y0100463D01*
X0203960Y0100463D02*
X0200454Y0100463D01*
X0200228Y0102062D02*
X0253255Y0102062D01*
X0254157Y0103660D02*
X0199033Y0103660D01*
X0200050Y0105259D02*
X0251434Y0105259D01*
X0250736Y0106857D02*
X0201162Y0106857D01*
X0201576Y0108456D02*
X0248243Y0108456D01*
X0247736Y0110054D02*
X0201487Y0110054D01*
X0200825Y0111653D02*
X0248000Y0111653D01*
X0249327Y0113251D02*
X0230249Y0113251D01*
X0229998Y0113000D02*
X0230943Y0113945D01*
X0231454Y0115180D01*
X0231454Y0116516D01*
X0230943Y0117751D01*
X0229998Y0118696D01*
X0228763Y0119207D01*
X0227427Y0119207D01*
X0226192Y0118696D01*
X0225247Y0117751D01*
X0224736Y0116516D01*
X0224736Y0115180D01*
X0225247Y0113945D01*
X0226192Y0113000D01*
X0227427Y0112489D01*
X0228763Y0112489D01*
X0229998Y0113000D01*
X0231317Y0114850D02*
X0259556Y0114850D01*
X0259192Y0115000D02*
X0260427Y0114489D01*
X0261763Y0114489D01*
X0262998Y0115000D01*
X0263943Y0115945D01*
X0264454Y0117180D01*
X0264454Y0118516D01*
X0263943Y0119751D01*
X0262998Y0120696D01*
X0261763Y0121207D01*
X0260427Y0121207D01*
X0259192Y0120696D01*
X0258247Y0119751D01*
X0257736Y0118516D01*
X0257736Y0117180D01*
X0258247Y0115945D01*
X0259192Y0115000D01*
X0258039Y0116448D02*
X0231454Y0116448D01*
X0230647Y0118047D02*
X0257736Y0118047D01*
X0258204Y0119645D02*
X0221401Y0119645D01*
X0221454Y0119516D02*
X0220943Y0120751D01*
X0219998Y0121696D01*
X0218763Y0122207D01*
X0217427Y0122207D01*
X0216192Y0121696D01*
X0215247Y0120751D01*
X0214736Y0119516D01*
X0214736Y0118957D01*
X0213998Y0119696D01*
X0212763Y0120207D01*
X0211427Y0120207D01*
X0210192Y0119696D01*
X0209247Y0118751D01*
X0208736Y0117516D01*
X0208736Y0116180D01*
X0209247Y0114945D01*
X0210192Y0114000D01*
X0211427Y0113489D01*
X0212763Y0113489D01*
X0213998Y0114000D01*
X0214943Y0114945D01*
X0215454Y0116180D01*
X0215454Y0116739D01*
X0216192Y0116000D01*
X0217427Y0115489D01*
X0218763Y0115489D01*
X0219998Y0116000D01*
X0220943Y0116945D01*
X0221454Y0118180D01*
X0221454Y0119516D01*
X0221399Y0118047D02*
X0225543Y0118047D01*
X0224736Y0116448D02*
X0220446Y0116448D01*
X0215744Y0116448D02*
X0215454Y0116448D01*
X0214847Y0114850D02*
X0224873Y0114850D01*
X0225941Y0113251D02*
X0198981Y0113251D01*
X0199417Y0114625D02*
X0197586Y0113867D01*
X0195604Y0113867D01*
X0193774Y0114625D01*
X0192372Y0116026D01*
X0191614Y0117857D01*
X0191614Y0119839D01*
X0192372Y0121670D01*
X0193774Y0123071D01*
X0195604Y0123829D01*
X0197586Y0123829D01*
X0199417Y0123071D01*
X0200818Y0121670D01*
X0201576Y0119839D01*
X0201576Y0117857D01*
X0200818Y0116026D01*
X0199417Y0114625D01*
X0199641Y0114850D02*
X0209343Y0114850D01*
X0208736Y0116448D02*
X0200993Y0116448D01*
X0201576Y0118047D02*
X0208956Y0118047D01*
X0210142Y0119645D02*
X0201576Y0119645D01*
X0200994Y0121244D02*
X0215741Y0121244D01*
X0214790Y0119645D02*
X0214048Y0119645D01*
X0220450Y0121244D02*
X0265917Y0121244D01*
X0265736Y0121680D02*
X0266247Y0120445D01*
X0267192Y0119500D01*
X0268427Y0118989D01*
X0269763Y0118989D01*
X0270998Y0119500D01*
X0271943Y0120445D01*
X0272454Y0121680D01*
X0272454Y0123016D01*
X0271943Y0124251D01*
X0270998Y0125196D01*
X0269763Y0125707D01*
X0268427Y0125707D01*
X0267192Y0125196D01*
X0266247Y0124251D01*
X0265736Y0123016D01*
X0265736Y0121680D01*
X0265736Y0122842D02*
X0199645Y0122842D01*
X0193545Y0122842D02*
X0060938Y0122842D01*
X0060839Y0121244D02*
X0192196Y0121244D01*
X0191614Y0119645D02*
X0085548Y0119645D01*
X0085498Y0119696D02*
X0084263Y0120207D01*
X0082927Y0120207D01*
X0081692Y0119696D01*
X0080747Y0118751D01*
X0080236Y0117516D01*
X0080236Y0116180D01*
X0080747Y0114945D01*
X0081692Y0114000D01*
X0082927Y0113489D01*
X0084263Y0113489D01*
X0085498Y0114000D01*
X0086443Y0114945D01*
X0086954Y0116180D01*
X0086954Y0117516D01*
X0086443Y0118751D01*
X0085498Y0119696D01*
X0086734Y0118047D02*
X0191614Y0118047D01*
X0192198Y0116448D02*
X0086954Y0116448D01*
X0086347Y0114850D02*
X0193549Y0114850D01*
X0194209Y0113251D02*
X0059769Y0113251D01*
X0060494Y0114850D02*
X0080843Y0114850D01*
X0080236Y0116448D02*
X0060494Y0116448D01*
X0060494Y0118047D02*
X0080456Y0118047D01*
X0081642Y0119645D02*
X0060494Y0119645D01*
X0060494Y0124441D02*
X0247752Y0124441D01*
X0248192Y0124000D02*
X0247247Y0124945D01*
X0246736Y0126180D01*
X0246736Y0127516D01*
X0247247Y0128751D01*
X0248192Y0129696D01*
X0249427Y0130207D01*
X0250763Y0130207D01*
X0251998Y0129696D01*
X0252943Y0128751D01*
X0253454Y0127516D01*
X0253454Y0126180D01*
X0252943Y0124945D01*
X0251998Y0124000D01*
X0250763Y0123489D01*
X0249427Y0123489D01*
X0248192Y0124000D01*
X0246794Y0126039D02*
X0085537Y0126039D01*
X0085498Y0126000D02*
X0086443Y0126945D01*
X0086954Y0128180D01*
X0086954Y0129516D01*
X0086443Y0130751D01*
X0085498Y0131696D01*
X0084263Y0132207D01*
X0082927Y0132207D01*
X0081692Y0131696D01*
X0080747Y0130751D01*
X0080236Y0129516D01*
X0080236Y0128180D01*
X0080747Y0126945D01*
X0081692Y0126000D01*
X0082927Y0125489D01*
X0084263Y0125489D01*
X0085498Y0126000D01*
X0086730Y0127638D02*
X0246786Y0127638D01*
X0247733Y0129236D02*
X0086954Y0129236D01*
X0086359Y0130835D02*
X0307236Y0130835D01*
X0307236Y0131016D02*
X0307236Y0129680D01*
X0307747Y0128445D01*
X0308692Y0127500D01*
X0309927Y0126989D01*
X0311263Y0126989D01*
X0312498Y0127500D01*
X0313443Y0128445D01*
X0313954Y0129680D01*
X0313954Y0131016D01*
X0313443Y0132251D01*
X0313346Y0132348D01*
X0313943Y0132945D01*
X0314454Y0134180D01*
X0314454Y0135516D01*
X0313943Y0136751D01*
X0312998Y0137696D01*
X0311763Y0138207D01*
X0310427Y0138207D01*
X0309192Y0137696D01*
X0308247Y0136751D01*
X0307736Y0135516D01*
X0307736Y0134180D01*
X0308247Y0132945D01*
X0308345Y0132848D01*
X0307747Y0132251D01*
X0307236Y0131016D01*
X0307930Y0132433D02*
X0297836Y0132433D01*
X0297998Y0132500D02*
X0298943Y0133445D01*
X0299454Y0134680D01*
X0299454Y0136016D01*
X0298943Y0137251D01*
X0297998Y0138196D01*
X0296763Y0138707D01*
X0295427Y0138707D01*
X0294192Y0138196D01*
X0293247Y0137251D01*
X0292736Y0136016D01*
X0292736Y0134680D01*
X0293247Y0133445D01*
X0294192Y0132500D01*
X0295427Y0131989D01*
X0296763Y0131989D01*
X0297998Y0132500D01*
X0299186Y0134032D02*
X0307797Y0134032D01*
X0307783Y0135630D02*
X0299454Y0135630D01*
X0298952Y0137229D02*
X0308726Y0137229D01*
X0308263Y0139989D02*
X0309498Y0140500D01*
X0310443Y0141445D01*
X0310954Y0142680D01*
X0310954Y0144016D01*
X0310443Y0145251D01*
X0309498Y0146196D01*
X0308263Y0146707D01*
X0306927Y0146707D01*
X0305692Y0146196D01*
X0304747Y0145251D01*
X0304236Y0144016D01*
X0304236Y0142680D01*
X0304747Y0141445D01*
X0305692Y0140500D01*
X0306927Y0139989D01*
X0308263Y0139989D01*
X0309318Y0140426D02*
X0324923Y0140426D01*
X0325192Y0140696D02*
X0324247Y0139751D01*
X0323736Y0138516D01*
X0323736Y0137180D01*
X0324247Y0135945D01*
X0325192Y0135000D01*
X0326427Y0134489D01*
X0327614Y0134489D01*
X0327614Y0133357D01*
X0328372Y0131526D01*
X0329774Y0130125D01*
X0331604Y0129367D01*
X0333586Y0129367D01*
X0335417Y0130125D01*
X0336818Y0131526D01*
X0337576Y0133357D01*
X0337576Y0135339D01*
X0336818Y0137170D01*
X0335417Y0138571D01*
X0333586Y0139329D01*
X0331604Y0139329D01*
X0330335Y0138803D01*
X0329943Y0139751D01*
X0328998Y0140696D01*
X0327763Y0141207D01*
X0326427Y0141207D01*
X0325192Y0140696D01*
X0323865Y0138827D02*
X0251808Y0138827D01*
X0251954Y0139180D02*
X0251443Y0137945D01*
X0250498Y0137000D01*
X0249263Y0136489D01*
X0247927Y0136489D01*
X0246692Y0137000D01*
X0245747Y0137945D01*
X0245236Y0139180D01*
X0245236Y0140516D01*
X0245747Y0141751D01*
X0246692Y0142696D01*
X0247927Y0143207D01*
X0249263Y0143207D01*
X0250498Y0142696D01*
X0251443Y0141751D01*
X0251954Y0140516D01*
X0251954Y0139180D01*
X0251954Y0140426D02*
X0305872Y0140426D01*
X0304508Y0142024D02*
X0272522Y0142024D01*
X0272943Y0142445D02*
X0273454Y0143680D01*
X0273454Y0145016D01*
X0272943Y0146251D01*
X0271998Y0147196D01*
X0270763Y0147707D01*
X0269427Y0147707D01*
X0268192Y0147196D01*
X0267247Y0146251D01*
X0266736Y0145016D01*
X0266736Y0143680D01*
X0267247Y0142445D01*
X0268192Y0141500D01*
X0269427Y0140989D01*
X0270763Y0140989D01*
X0271998Y0141500D01*
X0272943Y0142445D01*
X0273431Y0143623D02*
X0277070Y0143623D01*
X0277192Y0143500D02*
X0278427Y0142989D01*
X0279763Y0142989D01*
X0280998Y0143500D01*
X0281943Y0144445D01*
X0282454Y0145680D01*
X0282454Y0147016D01*
X0281943Y0148251D01*
X0280998Y0149196D01*
X0279763Y0149707D01*
X0278427Y0149707D01*
X0277192Y0149196D01*
X0276247Y0148251D01*
X0275736Y0147016D01*
X0275736Y0145680D01*
X0276247Y0144445D01*
X0277192Y0143500D01*
X0275926Y0145221D02*
X0273369Y0145221D01*
X0272374Y0146820D02*
X0275736Y0146820D01*
X0276415Y0148419D02*
X0212960Y0148419D01*
X0213498Y0148196D02*
X0212263Y0148707D01*
X0210927Y0148707D01*
X0209692Y0148196D01*
X0208747Y0147251D01*
X0208236Y0146016D01*
X0208236Y0144680D01*
X0208747Y0143445D01*
X0209692Y0142500D01*
X0210927Y0141989D01*
X0212263Y0141989D01*
X0213498Y0142500D01*
X0214443Y0143445D01*
X0214954Y0144680D01*
X0214954Y0146016D01*
X0214443Y0147251D01*
X0213498Y0148196D01*
X0214621Y0146820D02*
X0267817Y0146820D01*
X0266821Y0145221D02*
X0214954Y0145221D01*
X0214516Y0143623D02*
X0266760Y0143623D01*
X0267668Y0142024D02*
X0251169Y0142024D01*
X0246021Y0142024D02*
X0212349Y0142024D01*
X0210841Y0142024D02*
X0137781Y0142024D01*
X0137781Y0143623D02*
X0208674Y0143623D01*
X0208236Y0145221D02*
X0137781Y0145221D01*
X0137781Y0146820D02*
X0208569Y0146820D01*
X0210230Y0148419D02*
X0137781Y0148419D01*
X0137781Y0150017D02*
X0139176Y0150017D01*
X0138263Y0151616D02*
X0137781Y0151616D01*
X0134409Y0148419D02*
X0052129Y0148419D01*
X0051729Y0150017D02*
X0063259Y0150017D01*
X0063639Y0149798D02*
X0066246Y0149099D01*
X0068944Y0149099D01*
X0071551Y0149798D01*
X0073888Y0151147D01*
X0075796Y0153055D01*
X0077146Y0155392D01*
X0077844Y0157999D01*
X0077844Y0160697D01*
X0077146Y0163304D01*
X0075796Y0165641D01*
X0073888Y0167549D01*
X0071551Y0168898D01*
X0068944Y0169597D01*
X0066246Y0169597D01*
X0063639Y0168898D01*
X0061302Y0167549D01*
X0059394Y0165641D01*
X0058045Y0163304D01*
X0057346Y0160697D01*
X0057346Y0157999D01*
X0058045Y0155392D01*
X0059394Y0153055D01*
X0061302Y0151147D01*
X0063639Y0149798D01*
X0060834Y0151616D02*
X0051414Y0151616D01*
X0051414Y0153214D02*
X0059302Y0153214D01*
X0058379Y0154813D02*
X0051414Y0154813D01*
X0051414Y0156411D02*
X0057772Y0156411D01*
X0057346Y0158010D02*
X0051414Y0158010D01*
X0051414Y0159608D02*
X0057346Y0159608D01*
X0057483Y0161207D02*
X0051414Y0161207D01*
X0051414Y0162805D02*
X0057911Y0162805D01*
X0058680Y0164404D02*
X0051414Y0164404D01*
X0051414Y0166002D02*
X0059755Y0166002D01*
X0061391Y0167601D02*
X0051414Y0167601D01*
X0051414Y0169199D02*
X0064762Y0169199D01*
X0070429Y0169199D02*
X0103245Y0169199D01*
X0103530Y0169886D02*
X0102772Y0168055D01*
X0102772Y0166074D01*
X0103530Y0164243D01*
X0104931Y0162842D01*
X0106762Y0162083D01*
X0108743Y0162083D01*
X0110574Y0162842D01*
X0111975Y0164243D01*
X0112674Y0165929D01*
X0113372Y0164243D01*
X0114774Y0162842D01*
X0116604Y0162083D01*
X0118586Y0162083D01*
X0120417Y0162842D01*
X0121818Y0164243D01*
X0122516Y0165929D01*
X0123215Y0164243D01*
X0124616Y0162842D01*
X0126447Y0162083D01*
X0128428Y0162083D01*
X0130259Y0162842D01*
X0131660Y0164243D01*
X0132419Y0166074D01*
X0132419Y0168055D01*
X0131660Y0169886D01*
X0130259Y0171287D01*
X0128428Y0172046D01*
X0126447Y0172046D01*
X0124616Y0171287D01*
X0123215Y0169886D01*
X0122516Y0168200D01*
X0121818Y0169886D01*
X0120417Y0171287D01*
X0118586Y0172046D01*
X0116604Y0172046D01*
X0114774Y0171287D01*
X0113372Y0169886D01*
X0112674Y0168200D01*
X0111975Y0169886D01*
X0110574Y0171287D01*
X0108743Y0172046D01*
X0106762Y0172046D01*
X0104931Y0171287D01*
X0103530Y0169886D01*
X0104441Y0170798D02*
X0051414Y0170798D01*
X0051414Y0172396D02*
X0132909Y0172396D01*
X0132909Y0170798D02*
X0130749Y0170798D01*
X0131945Y0169199D02*
X0132909Y0169199D01*
X0132909Y0167601D02*
X0132419Y0167601D01*
X0132389Y0166002D02*
X0132909Y0166002D01*
X0132909Y0164404D02*
X0131727Y0164404D01*
X0132909Y0162805D02*
X0130171Y0162805D01*
X0132909Y0161207D02*
X0077707Y0161207D01*
X0077844Y0159608D02*
X0132909Y0159608D01*
X0132909Y0158010D02*
X0077844Y0158010D01*
X0077419Y0156411D02*
X0132909Y0156411D01*
X0130809Y0154813D02*
X0122381Y0154813D01*
X0121998Y0155196D02*
X0120763Y0155707D01*
X0119427Y0155707D01*
X0118192Y0155196D01*
X0117247Y0154251D01*
X0116736Y0153016D01*
X0116736Y0151680D01*
X0117247Y0150445D01*
X0118192Y0149500D01*
X0119427Y0148989D01*
X0120763Y0148989D01*
X0121998Y0149500D01*
X0122943Y0150445D01*
X0123454Y0151680D01*
X0123454Y0153016D01*
X0122943Y0154251D01*
X0121998Y0155196D01*
X0123372Y0153214D02*
X0129818Y0153214D01*
X0129763Y0151616D02*
X0123428Y0151616D01*
X0122515Y0150017D02*
X0130676Y0150017D01*
X0134409Y0146820D02*
X0111698Y0146820D01*
X0111998Y0146696D02*
X0110763Y0147207D01*
X0109427Y0147207D01*
X0108192Y0146696D01*
X0107247Y0145751D01*
X0106736Y0144516D01*
X0106736Y0143180D01*
X0107247Y0141945D01*
X0108192Y0141000D01*
X0109427Y0140489D01*
X0110763Y0140489D01*
X0111998Y0141000D01*
X0112943Y0141945D01*
X0113454Y0143180D01*
X0113454Y0144516D01*
X0112943Y0145751D01*
X0111998Y0146696D01*
X0113162Y0145221D02*
X0134409Y0145221D01*
X0134409Y0143623D02*
X0113454Y0143623D01*
X0112976Y0142024D02*
X0132521Y0142024D01*
X0131736Y0140426D02*
X0054127Y0140426D01*
X0053727Y0142024D02*
X0107215Y0142024D01*
X0106736Y0143623D02*
X0053327Y0143623D01*
X0052928Y0145221D02*
X0107028Y0145221D01*
X0108493Y0146820D02*
X0052528Y0146820D01*
X0054762Y0138827D02*
X0131882Y0138827D01*
X0132964Y0137229D02*
X0056041Y0137229D01*
X0057320Y0135630D02*
X0197671Y0135630D01*
X0197747Y0135445D02*
X0198692Y0134500D01*
X0199927Y0133989D01*
X0201263Y0133989D01*
X0202498Y0134500D01*
X0203443Y0135445D01*
X0203954Y0136680D01*
X0203954Y0138016D01*
X0203443Y0139251D01*
X0202498Y0140196D01*
X0201263Y0140707D01*
X0199927Y0140707D01*
X0198692Y0140196D01*
X0197747Y0139251D01*
X0197236Y0138016D01*
X0197236Y0136680D01*
X0197747Y0135445D01*
X0197236Y0137229D02*
X0137226Y0137229D01*
X0138308Y0138827D02*
X0197572Y0138827D01*
X0199248Y0140426D02*
X0138454Y0140426D01*
X0144015Y0150017D02*
X0147176Y0150017D01*
X0146263Y0151616D02*
X0144928Y0151616D01*
X0152015Y0150017D02*
X0154676Y0150017D01*
X0153763Y0151616D02*
X0152928Y0151616D01*
X0159515Y0150017D02*
X0162676Y0150017D01*
X0161763Y0151616D02*
X0160428Y0151616D01*
X0167515Y0150017D02*
X0244176Y0150017D01*
X0244192Y0150000D02*
X0245427Y0149489D01*
X0246763Y0149489D01*
X0247998Y0150000D01*
X0248943Y0150945D01*
X0249454Y0152180D01*
X0249454Y0153516D01*
X0248943Y0154751D01*
X0247998Y0155696D01*
X0246763Y0156207D01*
X0245427Y0156207D01*
X0244192Y0155696D01*
X0243247Y0154751D01*
X0242736Y0153516D01*
X0242736Y0152180D01*
X0243247Y0150945D01*
X0244192Y0150000D01*
X0242970Y0151616D02*
X0168428Y0151616D01*
X0168372Y0153214D02*
X0242736Y0153214D01*
X0241998Y0154000D02*
X0242943Y0154945D01*
X0243454Y0156180D01*
X0243454Y0157516D01*
X0242943Y0158751D01*
X0241998Y0159696D01*
X0240763Y0160207D01*
X0239427Y0160207D01*
X0238192Y0159696D01*
X0237247Y0158751D01*
X0236736Y0157516D01*
X0236736Y0156180D01*
X0237247Y0154945D01*
X0238192Y0154000D01*
X0239427Y0153489D01*
X0240763Y0153489D01*
X0241998Y0154000D01*
X0242810Y0154813D02*
X0243309Y0154813D01*
X0243454Y0156411D02*
X0301236Y0156411D01*
X0301236Y0156180D02*
X0301747Y0154945D01*
X0302692Y0154000D01*
X0303927Y0153489D01*
X0305263Y0153489D01*
X0306498Y0154000D01*
X0307443Y0154945D01*
X0307954Y0156180D01*
X0307954Y0157516D01*
X0307443Y0158751D01*
X0306498Y0159696D01*
X0305263Y0160207D01*
X0303927Y0160207D01*
X0302692Y0159696D01*
X0301747Y0158751D01*
X0301236Y0157516D01*
X0301236Y0156180D01*
X0301880Y0154813D02*
X0248881Y0154813D01*
X0249454Y0153214D02*
X0287211Y0153214D01*
X0286747Y0152751D02*
X0286236Y0151516D01*
X0286236Y0150180D01*
X0286747Y0148945D01*
X0287692Y0148000D01*
X0288927Y0147489D01*
X0290263Y0147489D01*
X0291498Y0148000D01*
X0292443Y0148945D01*
X0292954Y0150180D01*
X0292954Y0151516D01*
X0292443Y0152751D01*
X0291498Y0153696D01*
X0290263Y0154207D01*
X0288927Y0154207D01*
X0287692Y0153696D01*
X0286747Y0152751D01*
X0286277Y0151616D02*
X0249220Y0151616D01*
X0248015Y0150017D02*
X0286304Y0150017D01*
X0287274Y0148419D02*
X0281775Y0148419D01*
X0282454Y0146820D02*
X0368183Y0146820D01*
X0366584Y0145221D02*
X0310455Y0145221D01*
X0310954Y0143623D02*
X0364986Y0143623D01*
X0363387Y0142024D02*
X0310683Y0142024D01*
X0313465Y0137229D02*
X0323736Y0137229D01*
X0324562Y0135630D02*
X0314407Y0135630D01*
X0314393Y0134032D02*
X0327614Y0134032D01*
X0327997Y0132433D02*
X0313431Y0132433D01*
X0313954Y0130835D02*
X0329064Y0130835D01*
X0329774Y0128571D02*
X0328372Y0127170D01*
X0327614Y0125339D01*
X0327614Y0123357D01*
X0328372Y0121526D01*
X0329774Y0120125D01*
X0331604Y0119367D01*
X0333586Y0119367D01*
X0335417Y0120125D01*
X0336818Y0121526D01*
X0337576Y0123357D01*
X0337576Y0125339D01*
X0336818Y0127170D01*
X0335417Y0128571D01*
X0333586Y0129329D01*
X0331604Y0129329D01*
X0329774Y0128571D01*
X0328841Y0127638D02*
X0312635Y0127638D01*
X0313770Y0129236D02*
X0331380Y0129236D01*
X0333810Y0129236D02*
X0341380Y0129236D01*
X0341604Y0129329D02*
X0339774Y0128571D01*
X0338372Y0127170D01*
X0337614Y0125339D01*
X0337614Y0123357D01*
X0338372Y0121526D01*
X0339774Y0120125D01*
X0341604Y0119367D01*
X0343586Y0119367D01*
X0345417Y0120125D01*
X0346818Y0121526D01*
X0347576Y0123357D01*
X0347576Y0125339D01*
X0346818Y0127170D01*
X0345417Y0128571D01*
X0343586Y0129329D01*
X0341604Y0129329D01*
X0341521Y0129874D02*
X0342234Y0129761D01*
X0342395Y0129761D01*
X0342395Y0134148D01*
X0338008Y0134148D01*
X0338008Y0133987D01*
X0338121Y0133274D01*
X0338344Y0132587D01*
X0338672Y0131944D01*
X0339096Y0131360D01*
X0339607Y0130849D01*
X0340191Y0130425D01*
X0340834Y0130097D01*
X0341521Y0129874D01*
X0342795Y0129761D02*
X0342956Y0129761D01*
X0343669Y0129874D01*
X0344356Y0130097D01*
X0344999Y0130425D01*
X0345584Y0130849D01*
X0346094Y0131360D01*
X0346519Y0131944D01*
X0346846Y0132587D01*
X0347070Y0133274D01*
X0347183Y0133987D01*
X0347183Y0134148D01*
X0342795Y0134148D01*
X0342795Y0129761D01*
X0342795Y0130835D02*
X0342395Y0130835D01*
X0342395Y0132433D02*
X0342795Y0132433D01*
X0342795Y0134032D02*
X0342395Y0134032D01*
X0342395Y0134148D02*
X0342795Y0134148D01*
X0342795Y0134548D01*
X0342395Y0134548D01*
X0342395Y0134148D01*
X0342395Y0134548D02*
X0338008Y0134548D01*
X0338008Y0134709D01*
X0338121Y0135422D01*
X0338344Y0136109D01*
X0338672Y0136752D01*
X0339096Y0137337D01*
X0339607Y0137847D01*
X0340191Y0138272D01*
X0340834Y0138599D01*
X0341521Y0138822D01*
X0342234Y0138935D01*
X0342395Y0138935D01*
X0342395Y0134548D01*
X0342795Y0134548D02*
X0342795Y0138935D01*
X0342956Y0138935D01*
X0343669Y0138822D01*
X0344356Y0138599D01*
X0344999Y0138272D01*
X0345584Y0137847D01*
X0346094Y0137337D01*
X0346519Y0136752D01*
X0346846Y0136109D01*
X0347070Y0135422D01*
X0347183Y0134709D01*
X0347183Y0134548D01*
X0342795Y0134548D01*
X0342795Y0135630D02*
X0342395Y0135630D01*
X0342395Y0137229D02*
X0342795Y0137229D01*
X0342795Y0138827D02*
X0342395Y0138827D01*
X0341552Y0138827D02*
X0334797Y0138827D01*
X0336759Y0137229D02*
X0339018Y0137229D01*
X0338188Y0135630D02*
X0337455Y0135630D01*
X0337576Y0134032D02*
X0338008Y0134032D01*
X0338422Y0132433D02*
X0337194Y0132433D01*
X0336126Y0130835D02*
X0339626Y0130835D01*
X0338841Y0127638D02*
X0336350Y0127638D01*
X0337286Y0126039D02*
X0337904Y0126039D01*
X0337614Y0124441D02*
X0337576Y0124441D01*
X0337363Y0122842D02*
X0337827Y0122842D01*
X0338655Y0121244D02*
X0336535Y0121244D01*
X0334258Y0119645D02*
X0340932Y0119645D01*
X0341604Y0119329D02*
X0339774Y0118571D01*
X0338372Y0117170D01*
X0337614Y0115339D01*
X0337614Y0113357D01*
X0338372Y0111526D01*
X0339774Y0110125D01*
X0341604Y0109367D01*
X0343586Y0109367D01*
X0345417Y0110125D01*
X0346818Y0111526D01*
X0347576Y0113357D01*
X0347576Y0115339D01*
X0346818Y0117170D01*
X0345417Y0118571D01*
X0343586Y0119329D01*
X0341604Y0119329D01*
X0344258Y0119645D02*
X0382290Y0119645D01*
X0382236Y0119516D02*
X0382236Y0118180D01*
X0382747Y0116945D01*
X0383692Y0116000D01*
X0384927Y0115489D01*
X0385236Y0115489D01*
X0385236Y0115180D01*
X0385747Y0113945D01*
X0386692Y0113000D01*
X0387927Y0112489D01*
X0389263Y0112489D01*
X0390498Y0113000D01*
X0391443Y0113945D01*
X0391954Y0115180D01*
X0391954Y0116516D01*
X0391443Y0117751D01*
X0390498Y0118696D01*
X0389527Y0119098D01*
X0390498Y0119500D01*
X0391443Y0120445D01*
X0391954Y0121680D01*
X0391954Y0123016D01*
X0391443Y0124251D01*
X0391032Y0124661D01*
X0391288Y0125279D01*
X0392686Y0124700D01*
X0394473Y0124700D01*
X0396123Y0125383D01*
X0397387Y0126647D01*
X0398070Y0128297D01*
X0398070Y0130084D01*
X0397387Y0131734D01*
X0396123Y0132998D01*
X0394473Y0133681D01*
X0392686Y0133681D01*
X0391035Y0132998D01*
X0389772Y0131734D01*
X0389088Y0130084D01*
X0389088Y0129572D01*
X0388763Y0129707D01*
X0387427Y0129707D01*
X0386192Y0129196D01*
X0385247Y0128251D01*
X0384736Y0127016D01*
X0384736Y0125680D01*
X0385247Y0124445D01*
X0385658Y0124035D01*
X0385236Y0123016D01*
X0385236Y0122207D01*
X0384927Y0122207D01*
X0383692Y0121696D01*
X0382747Y0120751D01*
X0382236Y0119516D01*
X0382291Y0118047D02*
X0345941Y0118047D01*
X0347117Y0116448D02*
X0383244Y0116448D01*
X0385373Y0114850D02*
X0347576Y0114850D01*
X0347532Y0113251D02*
X0386441Y0113251D01*
X0389772Y0112049D02*
X0389088Y0110399D01*
X0389088Y0109072D01*
X0388763Y0109207D01*
X0387427Y0109207D01*
X0386192Y0108696D01*
X0385247Y0107751D01*
X0384736Y0106516D01*
X0384736Y0105180D01*
X0385247Y0103945D01*
X0386192Y0103000D01*
X0387427Y0102489D01*
X0388763Y0102489D01*
X0389998Y0103000D01*
X0390943Y0103945D01*
X0391454Y0105180D01*
X0391454Y0105525D01*
X0392686Y0105015D01*
X0394473Y0105015D01*
X0396123Y0105698D01*
X0397387Y0106962D01*
X0398070Y0108612D01*
X0398070Y0110399D01*
X0397387Y0112049D01*
X0396123Y0113313D01*
X0394473Y0113996D01*
X0392686Y0113996D01*
X0391035Y0113313D01*
X0389772Y0112049D01*
X0389608Y0111653D02*
X0346870Y0111653D01*
X0345245Y0110054D02*
X0389088Y0110054D01*
X0385952Y0108456D02*
X0323361Y0108456D01*
X0323454Y0108680D02*
X0323454Y0110016D01*
X0322943Y0111251D01*
X0321998Y0112196D01*
X0320763Y0112707D01*
X0319427Y0112707D01*
X0318192Y0112196D01*
X0317247Y0111251D01*
X0316736Y0110016D01*
X0316736Y0108680D01*
X0317247Y0107445D01*
X0317595Y0107098D01*
X0316747Y0106251D01*
X0316236Y0105016D01*
X0316236Y0103680D01*
X0316747Y0102445D01*
X0317692Y0101500D01*
X0318927Y0100989D01*
X0320263Y0100989D01*
X0321498Y0101500D01*
X0322443Y0102445D01*
X0322954Y0103680D01*
X0322954Y0105016D01*
X0322443Y0106251D01*
X0322096Y0106598D01*
X0322943Y0107445D01*
X0323454Y0108680D01*
X0323438Y0110054D02*
X0329945Y0110054D01*
X0329774Y0110125D02*
X0331604Y0109367D01*
X0333586Y0109367D01*
X0335417Y0110125D01*
X0336818Y0111526D01*
X0337576Y0113357D01*
X0337576Y0115339D01*
X0336818Y0117170D01*
X0335417Y0118571D01*
X0333586Y0119329D01*
X0331604Y0119329D01*
X0329774Y0118571D01*
X0328372Y0117170D01*
X0327614Y0115339D01*
X0327614Y0113357D01*
X0328372Y0111526D01*
X0329774Y0110125D01*
X0328320Y0111653D02*
X0322541Y0111653D01*
X0317649Y0111653D02*
X0288954Y0111653D01*
X0288954Y0111003D02*
X0288954Y0112339D01*
X0288443Y0113574D01*
X0287498Y0114519D01*
X0286263Y0115030D01*
X0284927Y0115030D01*
X0283692Y0114519D01*
X0282747Y0113574D01*
X0282236Y0112339D01*
X0282236Y0111003D01*
X0282747Y0109768D01*
X0283692Y0108823D01*
X0284927Y0108312D01*
X0286263Y0108312D01*
X0287498Y0108823D01*
X0288443Y0109768D01*
X0288954Y0111003D01*
X0288561Y0110054D02*
X0316752Y0110054D01*
X0316829Y0108456D02*
X0286611Y0108456D01*
X0284580Y0108456D02*
X0265654Y0108456D01*
X0265443Y0107945D02*
X0265954Y0109180D01*
X0265954Y0110516D01*
X0265443Y0111751D01*
X0264498Y0112696D01*
X0263263Y0113207D01*
X0261927Y0113207D01*
X0260692Y0112696D01*
X0259747Y0111751D01*
X0259236Y0110516D01*
X0259236Y0109180D01*
X0259747Y0107945D01*
X0260692Y0107000D01*
X0261927Y0106489D01*
X0263263Y0106489D01*
X0264498Y0107000D01*
X0265443Y0107945D01*
X0264152Y0106857D02*
X0295354Y0106857D01*
X0295692Y0107196D02*
X0294747Y0106251D01*
X0294236Y0105016D01*
X0294236Y0103680D01*
X0294747Y0102445D01*
X0295692Y0101500D01*
X0296927Y0100989D01*
X0298263Y0100989D01*
X0299498Y0101500D01*
X0300443Y0102445D01*
X0300954Y0103680D01*
X0300954Y0105016D01*
X0300443Y0106251D01*
X0299498Y0107196D01*
X0298263Y0107707D01*
X0296927Y0107707D01*
X0295692Y0107196D01*
X0294337Y0105259D02*
X0256756Y0105259D01*
X0257454Y0106857D02*
X0261038Y0106857D01*
X0259536Y0108456D02*
X0257272Y0108456D01*
X0256139Y0110054D02*
X0259236Y0110054D01*
X0259707Y0111653D02*
X0254191Y0111653D01*
X0252864Y0113251D02*
X0265736Y0113251D01*
X0265736Y0112680D02*
X0266247Y0111445D01*
X0267192Y0110500D01*
X0268427Y0109989D01*
X0269763Y0109989D01*
X0270998Y0110500D01*
X0271943Y0111445D01*
X0272454Y0112680D01*
X0272454Y0114016D01*
X0271943Y0115251D01*
X0270998Y0116196D01*
X0269763Y0116707D01*
X0268427Y0116707D01*
X0267192Y0116196D01*
X0266247Y0115251D01*
X0265736Y0114016D01*
X0265736Y0112680D01*
X0265483Y0111653D02*
X0266162Y0111653D01*
X0265954Y0110054D02*
X0268269Y0110054D01*
X0269921Y0110054D02*
X0282629Y0110054D01*
X0282236Y0111653D02*
X0272029Y0111653D01*
X0272454Y0113251D02*
X0282614Y0113251D01*
X0284492Y0114850D02*
X0272109Y0114850D01*
X0270388Y0116448D02*
X0328074Y0116448D01*
X0327614Y0114850D02*
X0286698Y0114850D01*
X0288576Y0113251D02*
X0327658Y0113251D01*
X0335245Y0110054D02*
X0339945Y0110054D01*
X0338320Y0111653D02*
X0336870Y0111653D01*
X0337532Y0113251D02*
X0337658Y0113251D01*
X0337614Y0114850D02*
X0337576Y0114850D01*
X0337117Y0116448D02*
X0338074Y0116448D01*
X0339250Y0118047D02*
X0335941Y0118047D01*
X0330932Y0119645D02*
X0300526Y0119645D01*
X0300443Y0119445D02*
X0300954Y0120680D01*
X0300954Y0122016D01*
X0300443Y0123251D01*
X0299498Y0124196D01*
X0298263Y0124707D01*
X0296927Y0124707D01*
X0295692Y0124196D01*
X0294747Y0123251D01*
X0294236Y0122016D01*
X0294236Y0120680D01*
X0294747Y0119445D01*
X0295692Y0118500D01*
X0296927Y0117989D01*
X0298263Y0117989D01*
X0299498Y0118500D01*
X0300443Y0119445D01*
X0300954Y0121244D02*
X0328655Y0121244D01*
X0327827Y0122842D02*
X0300612Y0122842D01*
X0298906Y0124441D02*
X0327614Y0124441D01*
X0327904Y0126039D02*
X0295454Y0126039D01*
X0295454Y0126516D02*
X0294943Y0127751D01*
X0293998Y0128696D01*
X0292763Y0129207D01*
X0291427Y0129207D01*
X0290192Y0128696D01*
X0289247Y0127751D01*
X0288736Y0126516D01*
X0288736Y0125180D01*
X0289247Y0123945D01*
X0290192Y0123000D01*
X0291427Y0122489D01*
X0292763Y0122489D01*
X0293998Y0123000D01*
X0294943Y0123945D01*
X0295454Y0125180D01*
X0295454Y0126516D01*
X0294990Y0127638D02*
X0308555Y0127638D01*
X0307420Y0129236D02*
X0252457Y0129236D01*
X0253404Y0127638D02*
X0289201Y0127638D01*
X0288736Y0126039D02*
X0253396Y0126039D01*
X0252438Y0124441D02*
X0266438Y0124441D01*
X0271753Y0124441D02*
X0274938Y0124441D01*
X0274747Y0124251D02*
X0274236Y0123016D01*
X0274236Y0121680D01*
X0274747Y0120445D01*
X0275692Y0119500D01*
X0276927Y0118989D01*
X0278263Y0118989D01*
X0279498Y0119500D01*
X0280443Y0120445D01*
X0280954Y0121680D01*
X0280954Y0123016D01*
X0280443Y0124251D01*
X0279498Y0125196D01*
X0278263Y0125707D01*
X0276927Y0125707D01*
X0275692Y0125196D01*
X0274747Y0124251D01*
X0274236Y0122842D02*
X0272454Y0122842D01*
X0272274Y0121244D02*
X0274417Y0121244D01*
X0275547Y0119645D02*
X0271143Y0119645D01*
X0267047Y0119645D02*
X0263986Y0119645D01*
X0264454Y0118047D02*
X0296787Y0118047D01*
X0298403Y0118047D02*
X0329250Y0118047D01*
X0346535Y0121244D02*
X0383241Y0121244D01*
X0385236Y0122842D02*
X0347363Y0122842D01*
X0347576Y0124441D02*
X0385252Y0124441D01*
X0384736Y0126039D02*
X0347286Y0126039D01*
X0346350Y0127638D02*
X0352555Y0127638D01*
X0351420Y0129236D02*
X0343810Y0129236D01*
X0345564Y0130835D02*
X0351236Y0130835D01*
X0351930Y0132433D02*
X0346768Y0132433D01*
X0347183Y0134032D02*
X0355395Y0134032D01*
X0356993Y0135630D02*
X0347002Y0135630D01*
X0346172Y0137229D02*
X0358592Y0137229D01*
X0360190Y0138827D02*
X0343638Y0138827D01*
X0330393Y0138827D02*
X0330325Y0138827D01*
X0329268Y0140426D02*
X0361789Y0140426D01*
X0364959Y0138827D02*
X0395865Y0138827D01*
X0396192Y0138500D02*
X0397427Y0137989D01*
X0398763Y0137989D01*
X0399998Y0138500D01*
X0400943Y0139445D01*
X0401454Y0140680D01*
X0401454Y0142016D01*
X0400943Y0143251D01*
X0399998Y0144196D01*
X0398763Y0144707D01*
X0397427Y0144707D01*
X0396192Y0144196D01*
X0395247Y0143251D01*
X0394736Y0142016D01*
X0394736Y0140680D01*
X0395247Y0139445D01*
X0396192Y0138500D01*
X0394841Y0140426D02*
X0366557Y0140426D01*
X0368156Y0142024D02*
X0394740Y0142024D01*
X0395620Y0143623D02*
X0369754Y0143623D01*
X0371353Y0145221D02*
X0410732Y0145221D01*
X0410732Y0143623D02*
X0400571Y0143623D01*
X0401451Y0142024D02*
X0410732Y0142024D01*
X0410732Y0140426D02*
X0401349Y0140426D01*
X0400325Y0138827D02*
X0410732Y0138827D01*
X0410732Y0137229D02*
X0363360Y0137229D01*
X0361762Y0135630D02*
X0410732Y0135630D01*
X0410732Y0134032D02*
X0360163Y0134032D01*
X0358565Y0132433D02*
X0390471Y0132433D01*
X0389400Y0130835D02*
X0357954Y0130835D01*
X0357770Y0129236D02*
X0386291Y0129236D01*
X0384994Y0127638D02*
X0356635Y0127638D01*
X0372951Y0146820D02*
X0410732Y0146820D01*
X0410732Y0148419D02*
X0382916Y0148419D01*
X0383887Y0150017D02*
X0392259Y0150017D01*
X0392639Y0149798D02*
X0395246Y0149099D01*
X0397944Y0149099D01*
X0400551Y0149798D01*
X0402888Y0151147D01*
X0404796Y0153055D01*
X0406146Y0155392D01*
X0406844Y0157999D01*
X0406844Y0160697D01*
X0406146Y0163304D01*
X0404796Y0165641D01*
X0402888Y0167549D01*
X0400551Y0168898D01*
X0397944Y0169597D01*
X0395246Y0169597D01*
X0392639Y0168898D01*
X0390302Y0167549D01*
X0388394Y0165641D01*
X0387045Y0163304D01*
X0386346Y0160697D01*
X0386346Y0157999D01*
X0387045Y0155392D01*
X0388394Y0153055D01*
X0390302Y0151147D01*
X0392639Y0149798D01*
X0389834Y0151616D02*
X0383913Y0151616D01*
X0382980Y0153214D02*
X0388302Y0153214D01*
X0387379Y0154813D02*
X0381781Y0154813D01*
X0381781Y0156411D02*
X0386772Y0156411D01*
X0386346Y0158010D02*
X0381781Y0158010D01*
X0381781Y0159608D02*
X0386346Y0159608D01*
X0386483Y0161207D02*
X0381781Y0161207D01*
X0381781Y0162805D02*
X0386911Y0162805D01*
X0387680Y0164404D02*
X0381781Y0164404D01*
X0381781Y0166002D02*
X0388755Y0166002D01*
X0390391Y0167601D02*
X0381781Y0167601D01*
X0381781Y0169199D02*
X0393762Y0169199D01*
X0399429Y0169199D02*
X0410732Y0169199D01*
X0410732Y0167601D02*
X0402799Y0167601D01*
X0404435Y0166002D02*
X0410732Y0166002D01*
X0410732Y0164404D02*
X0405511Y0164404D01*
X0406279Y0162805D02*
X0410732Y0162805D01*
X0410732Y0161207D02*
X0406707Y0161207D01*
X0406844Y0159608D02*
X0410732Y0159608D01*
X0410732Y0158010D02*
X0406844Y0158010D01*
X0406419Y0156411D02*
X0410732Y0156411D01*
X0410732Y0154813D02*
X0405811Y0154813D01*
X0404888Y0153214D02*
X0410732Y0153214D01*
X0410732Y0151616D02*
X0403357Y0151616D01*
X0400931Y0150017D02*
X0410732Y0150017D01*
X0378274Y0148419D02*
X0374550Y0148419D01*
X0375781Y0150017D02*
X0377304Y0150017D01*
X0377277Y0151616D02*
X0375781Y0151616D01*
X0375781Y0153214D02*
X0378211Y0153214D01*
X0378409Y0154813D02*
X0375781Y0154813D01*
X0375781Y0156411D02*
X0378409Y0156411D01*
X0378409Y0158010D02*
X0375781Y0158010D01*
X0375781Y0159608D02*
X0378409Y0159608D01*
X0378409Y0161207D02*
X0375781Y0161207D01*
X0372409Y0161207D02*
X0363454Y0161207D01*
X0363335Y0162805D02*
X0368888Y0162805D01*
X0367850Y0164404D02*
X0364133Y0164404D01*
X0364454Y0166002D02*
X0367736Y0166002D01*
X0368597Y0167601D02*
X0364005Y0167601D01*
X0358185Y0167601D02*
X0194505Y0167601D01*
X0194954Y0166002D02*
X0357736Y0166002D01*
X0357900Y0164404D02*
X0194633Y0164404D01*
X0193027Y0162805D02*
X0226302Y0162805D01*
X0226247Y0162751D02*
X0225736Y0161516D01*
X0225736Y0160180D01*
X0226247Y0158945D01*
X0227192Y0158000D01*
X0228427Y0157489D01*
X0229763Y0157489D01*
X0230998Y0158000D01*
X0231943Y0158945D01*
X0232454Y0160180D01*
X0232454Y0161516D01*
X0231943Y0162751D01*
X0230998Y0163696D01*
X0229763Y0164207D01*
X0228427Y0164207D01*
X0227192Y0163696D01*
X0226247Y0162751D01*
X0225736Y0161207D02*
X0191551Y0161207D01*
X0189551Y0159608D02*
X0225973Y0159608D01*
X0227183Y0158010D02*
X0166781Y0158010D01*
X0166781Y0159608D02*
X0181639Y0159608D01*
X0183551Y0159608D02*
X0187639Y0159608D01*
X0185639Y0161207D02*
X0185551Y0161207D01*
X0179639Y0161207D02*
X0166781Y0161207D01*
X0166781Y0162805D02*
X0179236Y0162805D01*
X0179604Y0164404D02*
X0166781Y0164404D01*
X0166781Y0166002D02*
X0181432Y0166002D01*
X0182685Y0167601D02*
X0166781Y0167601D01*
X0166781Y0156411D02*
X0236736Y0156411D01*
X0236940Y0158010D02*
X0231007Y0158010D01*
X0232217Y0159608D02*
X0238105Y0159608D01*
X0242085Y0159608D02*
X0249236Y0159608D01*
X0249236Y0159180D02*
X0249747Y0157945D01*
X0250692Y0157000D01*
X0251927Y0156489D01*
X0253263Y0156489D01*
X0254498Y0157000D01*
X0255443Y0157945D01*
X0255954Y0159180D01*
X0255954Y0160516D01*
X0255443Y0161751D01*
X0254498Y0162696D01*
X0253263Y0163207D01*
X0251927Y0163207D01*
X0250692Y0162696D01*
X0249747Y0161751D01*
X0249236Y0160516D01*
X0249236Y0159180D01*
X0249721Y0158010D02*
X0243250Y0158010D01*
X0237380Y0154813D02*
X0167381Y0154813D01*
X0201942Y0140426D02*
X0208748Y0140426D01*
X0208192Y0140196D02*
X0207247Y0139251D01*
X0206736Y0138016D01*
X0206736Y0136680D01*
X0207247Y0135445D01*
X0208192Y0134500D01*
X0209427Y0133989D01*
X0210763Y0133989D01*
X0211998Y0134500D01*
X0212943Y0135445D01*
X0213454Y0136680D01*
X0213454Y0138016D01*
X0212943Y0139251D01*
X0211998Y0140196D01*
X0210763Y0140707D01*
X0209427Y0140707D01*
X0208192Y0140196D01*
X0207072Y0138827D02*
X0203618Y0138827D01*
X0203954Y0137229D02*
X0206736Y0137229D01*
X0207171Y0135630D02*
X0203519Y0135630D01*
X0201367Y0134032D02*
X0209323Y0134032D01*
X0210867Y0134032D02*
X0237736Y0134032D01*
X0237736Y0133680D02*
X0237736Y0135016D01*
X0238247Y0136251D01*
X0239192Y0137196D01*
X0240427Y0137707D01*
X0241763Y0137707D01*
X0242998Y0137196D01*
X0243943Y0136251D01*
X0244454Y0135016D01*
X0244454Y0133680D01*
X0243943Y0132445D01*
X0242998Y0131500D01*
X0241763Y0130989D01*
X0240427Y0130989D01*
X0239192Y0131500D01*
X0238247Y0132445D01*
X0237736Y0133680D01*
X0238259Y0132433D02*
X0059877Y0132433D01*
X0060494Y0130835D02*
X0080832Y0130835D01*
X0080236Y0129236D02*
X0060494Y0129236D01*
X0060494Y0127638D02*
X0080461Y0127638D01*
X0081653Y0126039D02*
X0060494Y0126039D01*
X0058599Y0134032D02*
X0199823Y0134032D01*
X0211442Y0140426D02*
X0245236Y0140426D01*
X0245382Y0138827D02*
X0213118Y0138827D01*
X0213454Y0137229D02*
X0239273Y0137229D01*
X0237991Y0135630D02*
X0213019Y0135630D01*
X0242918Y0137229D02*
X0246464Y0137229D01*
X0244200Y0135630D02*
X0277991Y0135630D01*
X0277736Y0135016D02*
X0277736Y0133680D01*
X0278247Y0132445D01*
X0279192Y0131500D01*
X0280427Y0130989D01*
X0281763Y0130989D01*
X0282998Y0131500D01*
X0283943Y0132445D01*
X0284454Y0133680D01*
X0284454Y0135016D01*
X0283943Y0136251D01*
X0282998Y0137196D01*
X0281763Y0137707D01*
X0280427Y0137707D01*
X0279192Y0137196D01*
X0278247Y0136251D01*
X0277736Y0135016D01*
X0277736Y0134032D02*
X0244454Y0134032D01*
X0243931Y0132433D02*
X0278259Y0132433D01*
X0279273Y0137229D02*
X0250726Y0137229D01*
X0281121Y0143623D02*
X0304236Y0143623D01*
X0304735Y0145221D02*
X0282264Y0145221D01*
X0291916Y0148419D02*
X0369782Y0148419D01*
X0371380Y0150017D02*
X0338515Y0150017D01*
X0338498Y0150000D02*
X0339443Y0150945D01*
X0339954Y0152180D01*
X0339954Y0153516D01*
X0339443Y0154751D01*
X0338498Y0155696D01*
X0337263Y0156207D01*
X0335927Y0156207D01*
X0334692Y0155696D01*
X0333747Y0154751D01*
X0333236Y0153516D01*
X0333236Y0152180D01*
X0333747Y0150945D01*
X0334692Y0150000D01*
X0335927Y0149489D01*
X0337263Y0149489D01*
X0338498Y0150000D01*
X0339720Y0151616D02*
X0365077Y0151616D01*
X0365192Y0151500D02*
X0366427Y0150989D01*
X0367763Y0150989D01*
X0368998Y0151500D01*
X0369943Y0152445D01*
X0370454Y0153680D01*
X0370454Y0155016D01*
X0369943Y0156251D01*
X0368998Y0157196D01*
X0367763Y0157707D01*
X0366427Y0157707D01*
X0365192Y0157196D01*
X0364247Y0156251D01*
X0363736Y0155016D01*
X0363736Y0153680D01*
X0364247Y0152445D01*
X0365192Y0151500D01*
X0363929Y0153214D02*
X0339954Y0153214D01*
X0339381Y0154813D02*
X0363736Y0154813D01*
X0364408Y0156411D02*
X0307954Y0156411D01*
X0307750Y0158010D02*
X0372409Y0158010D01*
X0372409Y0159608D02*
X0362606Y0159608D01*
X0357585Y0159608D02*
X0306585Y0159608D01*
X0302605Y0159608D02*
X0255954Y0159608D01*
X0255668Y0161207D02*
X0356736Y0161207D01*
X0356856Y0162805D02*
X0254234Y0162805D01*
X0250957Y0162805D02*
X0231888Y0162805D01*
X0232454Y0161207D02*
X0249522Y0161207D01*
X0255469Y0158010D02*
X0301440Y0158010D01*
X0307310Y0154813D02*
X0333809Y0154813D01*
X0333236Y0153214D02*
X0291980Y0153214D01*
X0292913Y0151616D02*
X0333470Y0151616D01*
X0334676Y0150017D02*
X0292887Y0150017D01*
X0293238Y0137229D02*
X0282918Y0137229D01*
X0284200Y0135630D02*
X0292736Y0135630D01*
X0293004Y0134032D02*
X0284454Y0134032D01*
X0283931Y0132433D02*
X0294354Y0132433D01*
X0295148Y0124441D02*
X0296284Y0124441D01*
X0294578Y0122842D02*
X0293616Y0122842D01*
X0294236Y0121244D02*
X0280774Y0121244D01*
X0280954Y0122842D02*
X0290574Y0122842D01*
X0289042Y0124441D02*
X0280253Y0124441D01*
X0279643Y0119645D02*
X0294665Y0119645D01*
X0299836Y0106857D02*
X0305354Y0106857D01*
X0305692Y0107196D02*
X0304747Y0106251D01*
X0304236Y0105016D01*
X0304236Y0103680D01*
X0304747Y0102445D01*
X0305692Y0101500D01*
X0306927Y0100989D01*
X0308263Y0100989D01*
X0309498Y0101500D01*
X0310443Y0102445D01*
X0310954Y0103680D01*
X0310954Y0105016D01*
X0310443Y0106251D01*
X0309498Y0107196D01*
X0308263Y0107707D01*
X0306927Y0107707D01*
X0305692Y0107196D01*
X0304337Y0105259D02*
X0300854Y0105259D01*
X0300946Y0103660D02*
X0304244Y0103660D01*
X0305131Y0102062D02*
X0300059Y0102062D01*
X0295131Y0102062D02*
X0259935Y0102062D01*
X0259864Y0100463D02*
X0264838Y0100463D01*
X0263088Y0098865D02*
X0258862Y0098865D01*
X0257454Y0097266D02*
X0262736Y0097266D01*
X0263155Y0095668D02*
X0256665Y0095668D01*
X0251525Y0095668D02*
X0250665Y0095668D01*
X0250230Y0100463D02*
X0251960Y0100463D01*
X0259033Y0103660D02*
X0294244Y0103660D01*
X0292763Y0098207D02*
X0291427Y0098207D01*
X0290192Y0097696D01*
X0290095Y0097598D01*
X0289998Y0097696D01*
X0288763Y0098207D01*
X0287427Y0098207D01*
X0286192Y0097696D01*
X0285247Y0096751D01*
X0284736Y0095516D01*
X0284736Y0094180D01*
X0285247Y0092945D01*
X0286192Y0092000D01*
X0287427Y0091489D01*
X0288763Y0091489D01*
X0289998Y0092000D01*
X0290095Y0092098D01*
X0290192Y0092000D01*
X0291427Y0091489D01*
X0292763Y0091489D01*
X0293998Y0092000D01*
X0294943Y0092945D01*
X0295454Y0094180D01*
X0295454Y0095516D01*
X0294943Y0096751D01*
X0293998Y0097696D01*
X0292763Y0098207D01*
X0294427Y0097266D02*
X0314263Y0097266D01*
X0314247Y0097251D02*
X0313736Y0096016D01*
X0313736Y0094680D01*
X0314247Y0093445D01*
X0315192Y0092500D01*
X0316427Y0091989D01*
X0317763Y0091989D01*
X0318782Y0092411D01*
X0319692Y0091500D01*
X0320927Y0090989D01*
X0322263Y0090989D01*
X0323498Y0091500D01*
X0324443Y0092445D01*
X0324954Y0093680D01*
X0324954Y0095016D01*
X0324443Y0096251D01*
X0323498Y0097196D01*
X0322263Y0097707D01*
X0320927Y0097707D01*
X0319908Y0097285D01*
X0318998Y0098196D01*
X0317763Y0098707D01*
X0316427Y0098707D01*
X0315192Y0098196D01*
X0314247Y0097251D01*
X0313736Y0095668D02*
X0295391Y0095668D01*
X0295408Y0094069D02*
X0313989Y0094069D01*
X0315264Y0092471D02*
X0301334Y0092471D01*
X0300763Y0092707D02*
X0301998Y0092196D01*
X0302943Y0091251D01*
X0303454Y0090016D01*
X0303454Y0088680D01*
X0302943Y0087445D01*
X0301998Y0086500D01*
X0300763Y0085989D01*
X0299427Y0085989D01*
X0298192Y0086500D01*
X0297247Y0087445D01*
X0296736Y0088680D01*
X0296736Y0090016D01*
X0297247Y0091251D01*
X0298192Y0092196D01*
X0299427Y0092707D01*
X0300763Y0092707D01*
X0298856Y0092471D02*
X0294468Y0092471D01*
X0297091Y0090872D02*
X0268821Y0090872D01*
X0269848Y0089274D02*
X0296736Y0089274D01*
X0297152Y0087675D02*
X0269952Y0087675D01*
X0269515Y0086077D02*
X0299215Y0086077D01*
X0300975Y0086077D02*
X0351612Y0086077D01*
X0351927Y0086207D02*
X0350692Y0085696D01*
X0349747Y0084751D01*
X0349236Y0083516D01*
X0349236Y0082180D01*
X0349747Y0080945D01*
X0350692Y0080000D01*
X0351927Y0079489D01*
X0353263Y0079489D01*
X0354498Y0080000D01*
X0355443Y0080945D01*
X0355954Y0082180D01*
X0355954Y0083516D01*
X0355443Y0084751D01*
X0354498Y0085696D01*
X0353263Y0086207D01*
X0351927Y0086207D01*
X0353578Y0086077D02*
X0361236Y0086077D01*
X0361236Y0086516D02*
X0361236Y0085180D01*
X0361747Y0083945D01*
X0362692Y0083000D01*
X0363927Y0082489D01*
X0365263Y0082489D01*
X0366498Y0083000D01*
X0367443Y0083945D01*
X0367954Y0085180D01*
X0367954Y0086516D01*
X0367443Y0087751D01*
X0366498Y0088696D01*
X0365263Y0089207D01*
X0363927Y0089207D01*
X0362692Y0088696D01*
X0361747Y0087751D01*
X0361236Y0086516D01*
X0361716Y0087675D02*
X0303038Y0087675D01*
X0303454Y0089274D02*
X0389103Y0089274D01*
X0388998Y0087675D02*
X0367474Y0087675D01*
X0367954Y0086077D02*
X0389876Y0086077D01*
X0391569Y0084478D02*
X0367663Y0084478D01*
X0366206Y0082880D02*
X0391252Y0082880D01*
X0391543Y0081281D02*
X0355582Y0081281D01*
X0355954Y0082880D02*
X0362984Y0082880D01*
X0361527Y0084478D02*
X0355556Y0084478D01*
X0353731Y0079683D02*
X0392187Y0079683D01*
X0392187Y0078084D02*
X0389767Y0078084D01*
X0391366Y0076486D02*
X0392051Y0076486D01*
X0398274Y0073288D02*
X0398589Y0073288D01*
X0398052Y0072499D02*
X0398052Y0072499D01*
X0397640Y0071690D02*
X0398589Y0071690D01*
X0398946Y0070091D02*
X0396826Y0070091D01*
X0398724Y0074887D02*
X0399063Y0074887D01*
X0399011Y0076486D02*
X0399824Y0076486D01*
X0399003Y0078084D02*
X0401423Y0078084D01*
X0399003Y0079683D02*
X0410732Y0079683D01*
X0410732Y0081281D02*
X0399647Y0081281D01*
X0399938Y0082880D02*
X0410732Y0082880D01*
X0410732Y0084478D02*
X0407944Y0084478D01*
X0407998Y0084500D02*
X0408943Y0085445D01*
X0409454Y0086680D01*
X0409454Y0088016D01*
X0408943Y0089251D01*
X0407998Y0090196D01*
X0406763Y0090707D01*
X0405427Y0090707D01*
X0404192Y0090196D01*
X0403247Y0089251D01*
X0402736Y0088016D01*
X0402736Y0086680D01*
X0403247Y0085445D01*
X0404192Y0084500D01*
X0405427Y0083989D01*
X0406763Y0083989D01*
X0407998Y0084500D01*
X0409204Y0086077D02*
X0410732Y0086077D01*
X0410732Y0087675D02*
X0409454Y0087675D01*
X0408920Y0089274D02*
X0410732Y0089274D01*
X0410732Y0090872D02*
X0394581Y0090872D01*
X0395607Y0089274D02*
X0403270Y0089274D01*
X0402736Y0087675D02*
X0395712Y0087675D01*
X0398509Y0086077D02*
X0402986Y0086077D01*
X0404246Y0084478D02*
X0399621Y0084478D01*
X0390129Y0090872D02*
X0355370Y0090872D01*
X0355443Y0090945D02*
X0355954Y0092180D01*
X0355954Y0093516D01*
X0355443Y0094751D01*
X0354498Y0095696D01*
X0353263Y0096207D01*
X0351927Y0096207D01*
X0350692Y0095696D01*
X0349747Y0094751D01*
X0349236Y0093516D01*
X0349236Y0092180D01*
X0349747Y0090945D01*
X0350692Y0090000D01*
X0351927Y0089489D01*
X0353263Y0089489D01*
X0354498Y0090000D01*
X0355443Y0090945D01*
X0355954Y0092471D02*
X0410732Y0092471D01*
X0410732Y0094069D02*
X0392494Y0094069D01*
X0392443Y0093945D02*
X0392954Y0095180D01*
X0392954Y0096516D01*
X0392443Y0097751D01*
X0391498Y0098696D01*
X0390263Y0099207D01*
X0388927Y0099207D01*
X0387692Y0098696D01*
X0386747Y0097751D01*
X0386236Y0096516D01*
X0386236Y0095180D01*
X0386747Y0093945D01*
X0387692Y0093000D01*
X0388927Y0092489D01*
X0390263Y0092489D01*
X0391498Y0093000D01*
X0392443Y0093945D01*
X0392954Y0095668D02*
X0410732Y0095668D01*
X0410732Y0097266D02*
X0392644Y0097266D01*
X0391090Y0098865D02*
X0410732Y0098865D01*
X0410732Y0100463D02*
X0267352Y0100463D01*
X0269103Y0098865D02*
X0388100Y0098865D01*
X0386547Y0097266D02*
X0323328Y0097266D01*
X0324684Y0095668D02*
X0350664Y0095668D01*
X0349465Y0094069D02*
X0324954Y0094069D01*
X0324453Y0092471D02*
X0349236Y0092471D01*
X0349821Y0090872D02*
X0303100Y0090872D01*
X0310059Y0102062D02*
X0317131Y0102062D01*
X0316244Y0103660D02*
X0310946Y0103660D01*
X0310854Y0105259D02*
X0316337Y0105259D01*
X0317354Y0106857D02*
X0309836Y0106857D01*
X0322355Y0106857D02*
X0384877Y0106857D01*
X0384736Y0105259D02*
X0322854Y0105259D01*
X0322946Y0103660D02*
X0385533Y0103660D01*
X0390658Y0103660D02*
X0410732Y0103660D01*
X0410732Y0102062D02*
X0322059Y0102062D01*
X0349635Y0084478D02*
X0269954Y0084478D01*
X0269623Y0082880D02*
X0325876Y0082880D01*
X0326192Y0083196D02*
X0325247Y0082251D01*
X0324736Y0081016D01*
X0324736Y0079680D01*
X0325158Y0078661D01*
X0324747Y0078251D01*
X0324236Y0077016D01*
X0324236Y0075680D01*
X0324747Y0074445D01*
X0325692Y0073500D01*
X0326927Y0072989D01*
X0328263Y0072989D01*
X0329498Y0073500D01*
X0330443Y0074445D01*
X0330954Y0075680D01*
X0330954Y0077016D01*
X0330532Y0078035D01*
X0330943Y0078445D01*
X0331454Y0079680D01*
X0331454Y0081016D01*
X0330943Y0082251D01*
X0329998Y0083196D01*
X0328763Y0083707D01*
X0327427Y0083707D01*
X0326192Y0083196D01*
X0324846Y0081281D02*
X0269844Y0081281D01*
X0269954Y0079683D02*
X0303640Y0079683D01*
X0303640Y0080188D02*
X0303640Y0067508D01*
X0304255Y0066893D01*
X0305125Y0066893D01*
X0316936Y0066893D01*
X0317551Y0067508D01*
X0317551Y0080188D01*
X0316936Y0080804D01*
X0304255Y0080804D01*
X0303640Y0080188D01*
X0303640Y0078084D02*
X0269082Y0078084D01*
X0264109Y0078084D02*
X0262281Y0078084D01*
X0262281Y0079683D02*
X0263236Y0079683D01*
X0263346Y0081281D02*
X0262281Y0081281D01*
X0263011Y0082880D02*
X0263568Y0082880D01*
X0256909Y0082880D02*
X0217454Y0082880D01*
X0217139Y0081281D02*
X0256909Y0081281D01*
X0256909Y0079683D02*
X0215563Y0079683D01*
X0216999Y0084478D02*
X0220215Y0084478D01*
X0224976Y0084478D02*
X0256909Y0084478D01*
X0256909Y0086077D02*
X0225911Y0086077D01*
X0225888Y0087675D02*
X0256994Y0087675D01*
X0266766Y0092471D02*
X0285722Y0092471D01*
X0284782Y0094069D02*
X0266957Y0094069D01*
X0269035Y0095668D02*
X0284799Y0095668D01*
X0285763Y0097266D02*
X0269454Y0097266D01*
X0266081Y0114850D02*
X0262634Y0114850D01*
X0264151Y0116448D02*
X0267802Y0116448D01*
X0205094Y0094069D02*
X0201096Y0094069D01*
X0199094Y0094069D02*
X0198701Y0094069D01*
X0198954Y0095668D02*
X0204525Y0095668D01*
X0203407Y0097266D02*
X0198427Y0097266D01*
X0199862Y0098865D02*
X0203236Y0098865D01*
X0195157Y0103660D02*
X0051414Y0103660D01*
X0051414Y0102062D02*
X0192576Y0102062D01*
X0190628Y0100463D02*
X0051414Y0100463D01*
X0051414Y0098865D02*
X0190236Y0098865D01*
X0190615Y0097266D02*
X0051414Y0097266D01*
X0051414Y0095668D02*
X0192236Y0095668D01*
X0192489Y0094069D02*
X0051414Y0094069D01*
X0051414Y0092471D02*
X0193764Y0092471D01*
X0203059Y0092471D02*
X0203131Y0092471D01*
X0203079Y0089274D02*
X0203111Y0089274D01*
X0201927Y0084478D02*
X0194763Y0084478D01*
X0194954Y0082880D02*
X0201736Y0082880D01*
X0202412Y0081281D02*
X0194279Y0081281D01*
X0205610Y0078084D02*
X0207447Y0078084D01*
X0202409Y0068493D02*
X0180980Y0068493D01*
X0159736Y0058902D02*
X0151792Y0058902D01*
X0152835Y0057303D02*
X0159892Y0057303D01*
X0160988Y0055705D02*
X0152954Y0055705D01*
X0147399Y0058902D02*
X0056522Y0058902D01*
X0060494Y0063697D02*
X0081995Y0063697D01*
X0080895Y0065296D02*
X0060494Y0065296D01*
X0060494Y0066894D02*
X0080736Y0066894D01*
X0081490Y0068493D02*
X0060494Y0068493D01*
X0051487Y0047712D02*
X0161317Y0047712D01*
X0161263Y0046114D02*
X0051414Y0046114D01*
X0051414Y0044515D02*
X0162177Y0044515D01*
X0167013Y0044515D02*
X0173464Y0044515D01*
X0171609Y0042917D02*
X0051414Y0042917D01*
X0051414Y0041318D02*
X0171236Y0041318D01*
X0171634Y0039720D02*
X0051414Y0039720D01*
X0099487Y0014144D02*
X0116915Y0014144D01*
X0119781Y0017341D02*
X0161352Y0017341D01*
X0160336Y0018939D02*
X0119781Y0018939D01*
X0119781Y0020538D02*
X0158155Y0020538D01*
X0157254Y0022136D02*
X0119781Y0022136D01*
X0119781Y0023735D02*
X0157327Y0023735D01*
X0158330Y0025333D02*
X0152831Y0025333D01*
X0153454Y0026932D02*
X0160736Y0026932D01*
X0160949Y0028530D02*
X0153241Y0028530D01*
X0153019Y0030129D02*
X0162125Y0030129D01*
X0169353Y0017341D02*
X0307852Y0017341D01*
X0307236Y0018939D02*
X0281070Y0018939D01*
X0282545Y0020538D02*
X0307452Y0020538D01*
X0302214Y0022136D02*
X0284037Y0022136D01*
X0285529Y0023735D02*
X0300616Y0023735D01*
X0299017Y0025333D02*
X0289331Y0025333D01*
X0289954Y0026932D02*
X0297354Y0026932D01*
X0295641Y0028530D02*
X0289741Y0028530D01*
X0288565Y0030129D02*
X0293929Y0030129D01*
X0292216Y0031727D02*
X0272453Y0031727D01*
X0272443Y0031751D02*
X0271498Y0032696D01*
X0270263Y0033207D01*
X0268927Y0033207D01*
X0267692Y0032696D01*
X0266747Y0031751D01*
X0266236Y0030516D01*
X0266236Y0029180D01*
X0266747Y0027945D01*
X0267692Y0027000D01*
X0268927Y0026489D01*
X0270263Y0026489D01*
X0271498Y0027000D01*
X0272443Y0027945D01*
X0272954Y0029180D01*
X0272954Y0030516D01*
X0272443Y0031751D01*
X0272954Y0030129D02*
X0284625Y0030129D01*
X0283449Y0028530D02*
X0272685Y0028530D01*
X0271332Y0026932D02*
X0283236Y0026932D01*
X0282409Y0025333D02*
X0262576Y0025333D01*
X0262525Y0023735D02*
X0280917Y0023735D01*
X0279425Y0022136D02*
X0261863Y0022136D01*
X0262124Y0026932D02*
X0267858Y0026932D01*
X0266505Y0028530D02*
X0263661Y0028530D01*
X0265260Y0030129D02*
X0266236Y0030129D01*
X0266281Y0031727D02*
X0266738Y0031727D01*
X0267600Y0033326D02*
X0290503Y0033326D01*
X0288791Y0034924D02*
X0276814Y0034924D01*
X0278182Y0036523D02*
X0287078Y0036523D01*
X0285365Y0038121D02*
X0278454Y0038121D01*
X0277956Y0039720D02*
X0283631Y0039720D01*
X0282762Y0041318D02*
X0275454Y0041318D01*
X0275081Y0042917D02*
X0280776Y0042917D01*
X0280236Y0044515D02*
X0273226Y0044515D01*
X0270713Y0046114D02*
X0280484Y0046114D01*
X0281732Y0047712D02*
X0269115Y0047712D01*
X0267516Y0049311D02*
X0275150Y0049311D01*
X0274692Y0049500D02*
X0275927Y0048989D01*
X0277263Y0048989D01*
X0278498Y0049500D01*
X0279443Y0050445D01*
X0279954Y0051680D01*
X0279954Y0053016D01*
X0279443Y0054251D01*
X0278498Y0055196D01*
X0277263Y0055707D01*
X0275927Y0055707D01*
X0274692Y0055196D01*
X0273747Y0054251D01*
X0273236Y0053016D01*
X0273236Y0051680D01*
X0273747Y0050445D01*
X0274692Y0049500D01*
X0273555Y0050909D02*
X0265918Y0050909D01*
X0261551Y0052508D02*
X0273236Y0052508D01*
X0273688Y0054106D02*
X0262122Y0054106D01*
X0262104Y0055705D02*
X0275922Y0055705D01*
X0277269Y0055705D02*
X0303854Y0055705D01*
X0302256Y0057303D02*
X0261482Y0057303D01*
X0261533Y0058902D02*
X0300657Y0058902D01*
X0299059Y0060500D02*
X0267074Y0060500D01*
X0264717Y0060500D02*
X0263132Y0060500D01*
X0268889Y0062099D02*
X0278460Y0062099D01*
X0276862Y0063697D02*
X0269254Y0063697D01*
X0268848Y0065296D02*
X0275263Y0065296D01*
X0273665Y0066894D02*
X0267454Y0066894D01*
X0268990Y0068493D02*
X0272066Y0068493D01*
X0270468Y0070091D02*
X0269918Y0070091D01*
X0273637Y0071690D02*
X0278236Y0071690D01*
X0278236Y0072016D02*
X0278236Y0070680D01*
X0278747Y0069445D01*
X0279692Y0068500D01*
X0280927Y0067989D01*
X0282263Y0067989D01*
X0283498Y0068500D01*
X0284443Y0069445D01*
X0284954Y0070680D01*
X0284954Y0072016D01*
X0284443Y0073251D01*
X0283498Y0074196D01*
X0282263Y0074707D01*
X0280927Y0074707D01*
X0279692Y0074196D01*
X0278747Y0073251D01*
X0278236Y0072016D01*
X0278785Y0073288D02*
X0272039Y0073288D01*
X0270440Y0074887D02*
X0303640Y0074887D01*
X0303640Y0073288D02*
X0284405Y0073288D01*
X0284954Y0071690D02*
X0303640Y0071690D01*
X0303640Y0070091D02*
X0284710Y0070091D01*
X0285490Y0068493D02*
X0283480Y0068493D01*
X0284736Y0066894D02*
X0278433Y0066894D01*
X0279710Y0068493D02*
X0276834Y0068493D01*
X0275236Y0070091D02*
X0278480Y0070091D01*
X0280031Y0065296D02*
X0284895Y0065296D01*
X0291295Y0065296D02*
X0384358Y0065296D01*
X0382327Y0063697D02*
X0300630Y0063697D01*
X0302228Y0062099D02*
X0379284Y0062099D01*
X0377124Y0060500D02*
X0362693Y0060500D01*
X0362498Y0060696D02*
X0361263Y0061207D01*
X0359927Y0061207D01*
X0358692Y0060696D01*
X0357747Y0059751D01*
X0357236Y0058516D01*
X0357236Y0057180D01*
X0357747Y0055945D01*
X0357845Y0055848D01*
X0357747Y0055751D01*
X0357236Y0054516D01*
X0357236Y0053180D01*
X0357747Y0051945D01*
X0358692Y0051000D01*
X0359927Y0050489D01*
X0361263Y0050489D01*
X0362498Y0051000D01*
X0363443Y0051945D01*
X0363954Y0053180D01*
X0363954Y0054516D01*
X0363443Y0055751D01*
X0363346Y0055848D01*
X0363443Y0055945D01*
X0363954Y0057180D01*
X0363954Y0058516D01*
X0363443Y0059751D01*
X0362498Y0060696D01*
X0363794Y0058902D02*
X0375159Y0058902D01*
X0374849Y0058650D02*
X0374849Y0058650D01*
X0373876Y0057303D02*
X0363954Y0057303D01*
X0363462Y0055705D02*
X0372721Y0055705D01*
X0371829Y0054471D02*
X0371829Y0054471D01*
X0371690Y0054106D02*
X0363954Y0054106D01*
X0363676Y0052508D02*
X0371080Y0052508D01*
X0366514Y0050909D02*
X0362278Y0050909D01*
X0358912Y0050909D02*
X0345454Y0050909D01*
X0345454Y0050680D02*
X0345454Y0052016D01*
X0344943Y0053251D01*
X0343998Y0054196D01*
X0342763Y0054707D01*
X0341427Y0054707D01*
X0340192Y0054196D01*
X0339247Y0053251D01*
X0339022Y0052707D01*
X0337927Y0052707D01*
X0336692Y0052196D01*
X0335747Y0051251D01*
X0335236Y0050016D01*
X0335236Y0048680D01*
X0335747Y0047445D01*
X0336692Y0046500D01*
X0337927Y0045989D01*
X0339263Y0045989D01*
X0340498Y0046500D01*
X0341443Y0047445D01*
X0341668Y0047989D01*
X0342763Y0047989D01*
X0343998Y0048500D01*
X0344943Y0049445D01*
X0345454Y0050680D01*
X0344808Y0049311D02*
X0365500Y0049311D01*
X0365252Y0047712D02*
X0341553Y0047712D01*
X0339565Y0046114D02*
X0365612Y0046114D01*
X0365687Y0044515D02*
X0326247Y0044515D01*
X0326192Y0045500D02*
X0327427Y0044989D01*
X0328763Y0044989D01*
X0329998Y0045500D01*
X0330943Y0046445D01*
X0331454Y0047680D01*
X0331454Y0049016D01*
X0330943Y0050251D01*
X0329998Y0051196D01*
X0328763Y0051707D01*
X0327427Y0051707D01*
X0326192Y0051196D01*
X0325247Y0050251D01*
X0324736Y0049016D01*
X0324736Y0047680D01*
X0325247Y0046445D01*
X0326192Y0045500D01*
X0325579Y0046114D02*
X0325080Y0046114D01*
X0324736Y0047712D02*
X0316615Y0047712D01*
X0315016Y0049311D02*
X0324858Y0049311D01*
X0325906Y0050909D02*
X0313418Y0050909D01*
X0311819Y0052508D02*
X0337446Y0052508D01*
X0335606Y0050909D02*
X0330284Y0050909D01*
X0331332Y0049311D02*
X0335236Y0049311D01*
X0335637Y0047712D02*
X0331454Y0047712D01*
X0330611Y0046114D02*
X0337626Y0046114D01*
X0340103Y0054106D02*
X0329604Y0054106D01*
X0329498Y0054000D02*
X0330443Y0054945D01*
X0330954Y0056180D01*
X0330954Y0057516D01*
X0330443Y0058751D01*
X0329498Y0059696D01*
X0328263Y0060207D01*
X0326927Y0060207D01*
X0325692Y0059696D01*
X0324747Y0058751D01*
X0324236Y0057516D01*
X0324236Y0056180D01*
X0324747Y0054945D01*
X0325692Y0054000D01*
X0326927Y0053489D01*
X0328263Y0053489D01*
X0329498Y0054000D01*
X0330757Y0055705D02*
X0357728Y0055705D01*
X0357236Y0057303D02*
X0330954Y0057303D01*
X0330292Y0058902D02*
X0357396Y0058902D01*
X0358497Y0060500D02*
X0303827Y0060500D01*
X0305425Y0058902D02*
X0324899Y0058902D01*
X0324236Y0057303D02*
X0307024Y0057303D01*
X0308622Y0055705D02*
X0324433Y0055705D01*
X0325586Y0054106D02*
X0310221Y0054106D01*
X0307051Y0052508D02*
X0289244Y0052508D01*
X0286946Y0052508D02*
X0279954Y0052508D01*
X0279635Y0050909D02*
X0285106Y0050909D01*
X0284736Y0049311D02*
X0278040Y0049311D01*
X0279503Y0054106D02*
X0305453Y0054106D01*
X0308650Y0050909D02*
X0291084Y0050909D01*
X0304541Y0047015D02*
X0305241Y0047015D01*
X0312241Y0038681D01*
X0310336Y0038681D01*
X0309262Y0037607D01*
X0309262Y0036089D01*
X0309262Y0035181D01*
X0308454Y0035181D01*
X0306929Y0037012D01*
X0306929Y0037107D01*
X0306450Y0037586D01*
X0306017Y0038105D01*
X0305922Y0038114D01*
X0305855Y0038181D01*
X0305178Y0038181D01*
X0304505Y0038243D01*
X0304431Y0038181D01*
X0301355Y0038181D01*
X0299929Y0039607D01*
X0299929Y0040472D01*
X0299998Y0040500D01*
X0300943Y0041445D01*
X0301168Y0041989D01*
X0302263Y0041989D01*
X0303498Y0042500D01*
X0304443Y0043445D01*
X0304954Y0044680D01*
X0304954Y0046016D01*
X0304541Y0047015D01*
X0304914Y0046114D02*
X0305997Y0046114D01*
X0304886Y0044515D02*
X0307340Y0044515D01*
X0308683Y0042917D02*
X0303914Y0042917D01*
X0300816Y0041318D02*
X0310026Y0041318D01*
X0311368Y0039720D02*
X0299929Y0039720D01*
X0305915Y0038121D02*
X0309775Y0038121D01*
X0309262Y0036523D02*
X0307336Y0036523D01*
X0313472Y0042917D02*
X0314552Y0042917D01*
X0314815Y0041318D02*
X0316132Y0041318D01*
X0316157Y0039720D02*
X0355250Y0039720D01*
X0355192Y0039696D02*
X0354247Y0038751D01*
X0353736Y0037516D01*
X0353736Y0036180D01*
X0354247Y0034945D01*
X0355192Y0034000D01*
X0356427Y0033489D01*
X0357763Y0033489D01*
X0358998Y0034000D01*
X0359943Y0034945D01*
X0360454Y0036180D01*
X0360454Y0037516D01*
X0359943Y0038751D01*
X0358998Y0039696D01*
X0357763Y0040207D01*
X0356427Y0040207D01*
X0355192Y0039696D01*
X0353987Y0038121D02*
X0323915Y0038121D01*
X0327342Y0036523D02*
X0328982Y0036523D01*
X0331208Y0036523D02*
X0353736Y0036523D01*
X0354269Y0034924D02*
X0333078Y0034924D01*
X0333454Y0033326D02*
X0358753Y0033326D01*
X0359922Y0034924D02*
X0360351Y0034924D01*
X0360454Y0036523D02*
X0361950Y0036523D01*
X0363548Y0038121D02*
X0360204Y0038121D01*
X0358940Y0039720D02*
X0365147Y0039720D01*
X0365687Y0041318D02*
X0325816Y0041318D01*
X0326454Y0042917D02*
X0365687Y0042917D01*
X0377503Y0042917D02*
X0380913Y0042917D01*
X0380747Y0042751D02*
X0380236Y0041516D01*
X0380236Y0040180D01*
X0380747Y0038945D01*
X0381692Y0038000D01*
X0382927Y0037489D01*
X0384263Y0037489D01*
X0385498Y0038000D01*
X0386443Y0038945D01*
X0386954Y0040180D01*
X0386954Y0041516D01*
X0386443Y0042751D01*
X0385498Y0043696D01*
X0384263Y0044207D01*
X0382927Y0044207D01*
X0381692Y0043696D01*
X0380747Y0042751D01*
X0380236Y0041318D02*
X0377503Y0041318D01*
X0377503Y0039720D02*
X0380427Y0039720D01*
X0381572Y0038121D02*
X0379072Y0038121D01*
X0380244Y0036523D02*
X0410732Y0036523D01*
X0410732Y0038121D02*
X0385619Y0038121D01*
X0386764Y0039720D02*
X0410732Y0039720D01*
X0410732Y0041318D02*
X0410316Y0041318D01*
X0404874Y0041318D02*
X0386954Y0041318D01*
X0386277Y0042917D02*
X0404236Y0042917D01*
X0404443Y0044515D02*
X0377503Y0044515D01*
X0377503Y0046114D02*
X0382338Y0046114D01*
X0380323Y0047712D02*
X0377503Y0047712D01*
X0377503Y0049311D02*
X0379270Y0049311D01*
X0378608Y0050909D02*
X0377864Y0050909D01*
X0388852Y0046114D02*
X0402338Y0046114D01*
X0400323Y0047712D02*
X0390868Y0047712D01*
X0391920Y0049311D02*
X0399270Y0049311D01*
X0398608Y0050909D02*
X0392583Y0050909D01*
X0392601Y0052508D02*
X0398589Y0052508D01*
X0398740Y0054106D02*
X0392450Y0054106D01*
X0392321Y0055705D02*
X0391788Y0055705D01*
X0398869Y0055705D02*
X0399402Y0055705D01*
X0381141Y0066894D02*
X0367392Y0066894D01*
X0367443Y0066945D02*
X0367954Y0068180D01*
X0367954Y0069516D01*
X0367443Y0070751D01*
X0366498Y0071696D01*
X0365263Y0072207D01*
X0363927Y0072207D01*
X0362692Y0071696D01*
X0361747Y0070751D01*
X0361236Y0069516D01*
X0361236Y0068180D01*
X0361747Y0066945D01*
X0362692Y0066000D01*
X0363927Y0065489D01*
X0365263Y0065489D01*
X0366498Y0066000D01*
X0367443Y0066945D01*
X0367954Y0068493D02*
X0379609Y0068493D01*
X0378946Y0070091D02*
X0367716Y0070091D01*
X0366504Y0071690D02*
X0378589Y0071690D01*
X0378589Y0073288D02*
X0328986Y0073288D01*
X0328263Y0072207D02*
X0326927Y0072207D01*
X0325692Y0071696D01*
X0324747Y0070751D01*
X0324236Y0069516D01*
X0324236Y0068180D01*
X0324747Y0066945D01*
X0325692Y0066000D01*
X0326927Y0065489D01*
X0328263Y0065489D01*
X0329498Y0066000D01*
X0330443Y0066945D01*
X0330954Y0068180D01*
X0330954Y0069516D01*
X0330443Y0070751D01*
X0329498Y0071696D01*
X0328263Y0072207D01*
X0329504Y0071690D02*
X0362687Y0071690D01*
X0361474Y0070091D02*
X0330716Y0070091D01*
X0330954Y0068493D02*
X0361236Y0068493D01*
X0361798Y0066894D02*
X0330392Y0066894D01*
X0324798Y0066894D02*
X0316937Y0066894D01*
X0317551Y0068493D02*
X0324236Y0068493D01*
X0324474Y0070091D02*
X0317551Y0070091D01*
X0317551Y0071690D02*
X0325687Y0071690D01*
X0326204Y0073288D02*
X0317551Y0073288D01*
X0317551Y0074887D02*
X0324564Y0074887D01*
X0324236Y0076486D02*
X0317551Y0076486D01*
X0317551Y0078084D02*
X0324678Y0078084D01*
X0324736Y0079683D02*
X0317551Y0079683D01*
X0330582Y0078084D02*
X0381423Y0078084D01*
X0379824Y0076486D02*
X0330954Y0076486D01*
X0330626Y0074887D02*
X0379063Y0074887D01*
X0351460Y0079683D02*
X0331454Y0079683D01*
X0331344Y0081281D02*
X0349608Y0081281D01*
X0349236Y0082880D02*
X0330314Y0082880D01*
X0354526Y0095668D02*
X0386236Y0095668D01*
X0386696Y0094069D02*
X0355725Y0094069D01*
X0391454Y0105259D02*
X0392097Y0105259D01*
X0395062Y0105259D02*
X0410732Y0105259D01*
X0410732Y0106857D02*
X0397282Y0106857D01*
X0398006Y0108456D02*
X0410732Y0108456D01*
X0410732Y0110054D02*
X0398070Y0110054D01*
X0397551Y0111653D02*
X0410732Y0111653D01*
X0410732Y0113251D02*
X0396185Y0113251D01*
X0391817Y0114850D02*
X0410732Y0114850D01*
X0410732Y0116448D02*
X0391954Y0116448D01*
X0391147Y0118047D02*
X0410732Y0118047D01*
X0410732Y0119645D02*
X0390643Y0119645D01*
X0391774Y0121244D02*
X0410732Y0121244D01*
X0410732Y0122842D02*
X0391954Y0122842D01*
X0391253Y0124441D02*
X0410732Y0124441D01*
X0410732Y0126039D02*
X0396779Y0126039D01*
X0397797Y0127638D02*
X0410732Y0127638D01*
X0410732Y0129236D02*
X0398070Y0129236D01*
X0397759Y0130835D02*
X0410732Y0130835D01*
X0410732Y0132433D02*
X0396688Y0132433D01*
X0372409Y0151616D02*
X0369113Y0151616D01*
X0370261Y0153214D02*
X0372409Y0153214D01*
X0372409Y0154813D02*
X0370454Y0154813D01*
X0369783Y0156411D02*
X0372409Y0156411D01*
X0381781Y0170798D02*
X0410732Y0170798D01*
X0410732Y0172396D02*
X0381781Y0172396D01*
X0380333Y0173995D02*
X0410732Y0173995D01*
X0390974Y0113251D02*
X0390749Y0113251D01*
X0409767Y0078084D02*
X0410732Y0078084D01*
X0357236Y0054106D02*
X0344087Y0054106D01*
X0345251Y0052508D02*
X0357514Y0052508D01*
X0380454Y0034924D02*
X0410732Y0034924D01*
X0410732Y0033326D02*
X0399342Y0033326D01*
X0400055Y0033030D02*
X0398459Y0033691D01*
X0396731Y0033691D01*
X0395135Y0033030D01*
X0393913Y0031808D01*
X0393252Y0030212D01*
X0393252Y0028484D01*
X0393913Y0026888D01*
X0395135Y0025666D01*
X0396731Y0025005D01*
X0398459Y0025005D01*
X0400055Y0025666D01*
X0401277Y0026888D01*
X0401938Y0028484D01*
X0401938Y0030212D01*
X0401277Y0031808D01*
X0400055Y0033030D01*
X0401311Y0031727D02*
X0410732Y0031727D01*
X0410732Y0030129D02*
X0401938Y0030129D01*
X0401938Y0028530D02*
X0410732Y0028530D01*
X0410732Y0026932D02*
X0401295Y0026932D01*
X0399252Y0025333D02*
X0410732Y0025333D01*
X0410732Y0023735D02*
X0362387Y0023735D01*
X0364034Y0025333D02*
X0395938Y0025333D01*
X0393895Y0026932D02*
X0365681Y0026932D01*
X0367328Y0028530D02*
X0393252Y0028530D01*
X0393252Y0030129D02*
X0368975Y0030129D01*
X0370622Y0031727D02*
X0393879Y0031727D01*
X0395849Y0033326D02*
X0379823Y0033326D01*
X0374367Y0033326D02*
X0372269Y0033326D01*
X0357154Y0031727D02*
X0333060Y0031727D01*
X0331101Y0030129D02*
X0346733Y0030129D01*
X0345884Y0028530D02*
X0329478Y0028530D01*
X0326954Y0026932D02*
X0345752Y0026932D01*
X0346229Y0025333D02*
X0326331Y0025333D01*
X0325801Y0023735D02*
X0334231Y0023735D01*
X0334692Y0024196D02*
X0333747Y0023251D01*
X0333236Y0022016D01*
X0333236Y0020680D01*
X0333747Y0019445D01*
X0334692Y0018500D01*
X0335927Y0017989D01*
X0337263Y0017989D01*
X0338498Y0018500D01*
X0339443Y0019445D01*
X0339954Y0020680D01*
X0339954Y0022016D01*
X0339443Y0023251D01*
X0338498Y0024196D01*
X0337263Y0024707D01*
X0335927Y0024707D01*
X0334692Y0024196D01*
X0333286Y0022136D02*
X0328888Y0022136D01*
X0329838Y0020538D02*
X0333295Y0020538D01*
X0334254Y0018939D02*
X0329835Y0018939D01*
X0328881Y0017341D02*
X0362337Y0017341D01*
X0362247Y0017251D02*
X0361736Y0016016D01*
X0361736Y0014680D01*
X0362247Y0013445D01*
X0363192Y0012500D01*
X0364427Y0011989D01*
X0365763Y0011989D01*
X0366998Y0012500D01*
X0367943Y0013445D01*
X0368454Y0014680D01*
X0368454Y0016016D01*
X0367943Y0017251D01*
X0366998Y0018196D01*
X0365763Y0018707D01*
X0364427Y0018707D01*
X0363192Y0018196D01*
X0362247Y0017251D01*
X0361736Y0015742D02*
X0312281Y0015742D01*
X0312281Y0014144D02*
X0361958Y0014144D01*
X0363148Y0012545D02*
X0311176Y0012545D01*
X0311293Y0012662D02*
X0311293Y0012662D01*
X0308909Y0015742D02*
X0170361Y0015742D01*
X0170439Y0014144D02*
X0179007Y0014144D01*
X0146748Y0012545D02*
X0099954Y0012545D01*
X0165202Y0055705D02*
X0171854Y0055705D01*
X0221373Y0065296D02*
X0226817Y0065296D01*
X0226004Y0066894D02*
X0222186Y0066894D01*
X0223511Y0068493D02*
X0224679Y0068493D01*
X0224114Y0070091D02*
X0224076Y0070091D01*
X0224076Y0071690D02*
X0224114Y0071690D01*
X0224715Y0073288D02*
X0223476Y0073288D01*
X0233476Y0073288D02*
X0239151Y0073288D01*
X0237553Y0071690D02*
X0234076Y0071690D01*
X0234076Y0070091D02*
X0235954Y0070091D01*
X0234356Y0068493D02*
X0233511Y0068493D01*
X0232757Y0066894D02*
X0232186Y0066894D01*
X0224900Y0063697D02*
X0223290Y0063697D01*
X0223969Y0062099D02*
X0224222Y0062099D01*
X0224114Y0060500D02*
X0224076Y0060500D01*
X0223680Y0058902D02*
X0224510Y0058902D01*
X0240139Y0052508D02*
X0243173Y0052508D01*
X0242614Y0054106D02*
X0241738Y0054106D01*
X0243415Y0047712D02*
X0237844Y0047712D01*
X0251325Y0051534D02*
X0251818Y0052026D01*
X0252576Y0053857D01*
X0252576Y0055839D01*
X0251818Y0057670D01*
X0251325Y0058162D01*
X0254422Y0058162D01*
X0254096Y0057837D01*
X0253672Y0057252D01*
X0253344Y0056609D01*
X0253121Y0055922D01*
X0253008Y0055209D01*
X0253008Y0055048D01*
X0257395Y0055048D01*
X0257395Y0054648D01*
X0253008Y0054648D01*
X0253008Y0054487D01*
X0253121Y0053774D01*
X0253344Y0053087D01*
X0253672Y0052444D01*
X0254096Y0051860D01*
X0254422Y0051534D01*
X0251325Y0051534D01*
X0252017Y0052508D02*
X0253639Y0052508D01*
X0253068Y0054106D02*
X0252576Y0054106D01*
X0252576Y0055705D02*
X0253086Y0055705D01*
X0253709Y0057303D02*
X0251970Y0057303D01*
X0260518Y0074887D02*
X0262750Y0074887D01*
X0262409Y0074546D02*
X0262409Y0074546D01*
X0261293Y0075662D02*
X0261293Y0075662D01*
X0260781Y0075150D02*
X0260781Y0075150D01*
X0262117Y0076486D02*
X0303640Y0076486D01*
X0303640Y0068493D02*
X0290701Y0068493D01*
X0291454Y0066894D02*
X0304253Y0066894D01*
X0308101Y0049311D02*
X0310248Y0049311D01*
X0309444Y0047712D02*
X0311847Y0047712D01*
X0310786Y0046114D02*
X0313445Y0046114D01*
X0314236Y0044515D02*
X0312129Y0044515D01*
X0319058Y0041318D02*
X0320374Y0041318D01*
X0320500Y0046114D02*
X0321110Y0046114D01*
X0338959Y0023735D02*
X0347566Y0023735D01*
X0349396Y0022136D02*
X0339905Y0022136D01*
X0339895Y0020538D02*
X0350263Y0020538D01*
X0359105Y0020538D02*
X0410732Y0020538D01*
X0410732Y0022136D02*
X0360740Y0022136D01*
X0367853Y0017341D02*
X0385337Y0017341D01*
X0385692Y0017696D02*
X0384747Y0016751D01*
X0384236Y0015516D01*
X0384236Y0014180D01*
X0384747Y0012945D01*
X0385692Y0012000D01*
X0386927Y0011489D01*
X0388263Y0011489D01*
X0389498Y0012000D01*
X0390443Y0012945D01*
X0390954Y0014180D01*
X0390954Y0015516D01*
X0390443Y0016751D01*
X0389498Y0017696D01*
X0388263Y0018207D01*
X0386927Y0018207D01*
X0385692Y0017696D01*
X0384330Y0015742D02*
X0368454Y0015742D01*
X0368232Y0014144D02*
X0384251Y0014144D01*
X0385148Y0012545D02*
X0367043Y0012545D01*
X0390043Y0012545D02*
X0405148Y0012545D01*
X0404251Y0014144D02*
X0390939Y0014144D01*
X0390861Y0015742D02*
X0404330Y0015742D01*
X0405337Y0017341D02*
X0389853Y0017341D01*
X0409853Y0017341D02*
X0410732Y0017341D01*
X0410732Y0018939D02*
X0338937Y0018939D01*
X0324183Y0017341D02*
X0318338Y0017341D01*
X0318954Y0018939D02*
X0323229Y0018939D01*
X0323226Y0020538D02*
X0318738Y0020538D01*
X0273376Y0034924D02*
X0267954Y0034924D01*
X0267537Y0036523D02*
X0268536Y0036523D01*
X0266938Y0038121D02*
X0265471Y0038121D01*
X0193140Y0105259D02*
X0076756Y0105259D01*
X0076943Y0105445D02*
X0077454Y0106680D01*
X0077454Y0108016D01*
X0076943Y0109251D01*
X0075998Y0110196D01*
X0074763Y0110707D01*
X0073427Y0110707D01*
X0072192Y0110196D01*
X0071247Y0109251D01*
X0070736Y0108016D01*
X0070736Y0106680D01*
X0071247Y0105445D01*
X0072192Y0104500D01*
X0073427Y0103989D01*
X0074763Y0103989D01*
X0075998Y0104500D01*
X0076943Y0105445D01*
X0077454Y0106857D02*
X0192028Y0106857D01*
X0191614Y0108456D02*
X0077272Y0108456D01*
X0076139Y0110054D02*
X0191703Y0110054D01*
X0192365Y0111653D02*
X0051414Y0111653D01*
X0051414Y0110054D02*
X0072051Y0110054D01*
X0070918Y0108456D02*
X0051414Y0108456D01*
X0051414Y0106857D02*
X0070736Y0106857D01*
X0071434Y0105259D02*
X0051414Y0105259D01*
X0071931Y0150017D02*
X0117676Y0150017D01*
X0116763Y0151616D02*
X0074357Y0151616D01*
X0075888Y0153214D02*
X0116818Y0153214D01*
X0117809Y0154813D02*
X0076811Y0154813D01*
X0077279Y0162805D02*
X0105020Y0162805D01*
X0103463Y0164404D02*
X0076511Y0164404D01*
X0075435Y0166002D02*
X0102801Y0166002D01*
X0102772Y0167601D02*
X0073799Y0167601D01*
X0051414Y0173995D02*
X0134358Y0173995D01*
X0124126Y0170798D02*
X0120906Y0170798D01*
X0122102Y0169199D02*
X0122930Y0169199D01*
X0123148Y0164404D02*
X0121884Y0164404D01*
X0120328Y0162805D02*
X0124705Y0162805D01*
X0114862Y0162805D02*
X0110486Y0162805D01*
X0112042Y0164404D02*
X0113306Y0164404D01*
X0113088Y0169199D02*
X0112260Y0169199D01*
X0111064Y0170798D02*
X0114284Y0170798D01*
X0410043Y0012545D02*
X0410732Y0012545D01*
D22*
X0374095Y0039848D02*
X0374095Y0050848D01*
X0369595Y0047848D02*
X0369095Y0047348D01*
X0369095Y0038848D01*
X0357595Y0027348D01*
X0350095Y0027348D01*
X0353595Y0023348D02*
X0357095Y0023348D01*
X0374095Y0039848D01*
X0374095Y0050848D02*
X0374237Y0051206D01*
X0374387Y0051561D01*
X0374545Y0051912D01*
X0374711Y0052259D01*
X0374886Y0052602D01*
X0375069Y0052940D01*
X0375260Y0053275D01*
X0375459Y0053604D01*
X0375665Y0053929D01*
X0375880Y0054249D01*
X0376101Y0054564D01*
X0376331Y0054873D01*
X0376567Y0055177D01*
X0376811Y0055475D01*
X0377061Y0055767D01*
X0377319Y0056053D01*
X0377583Y0056333D01*
X0377854Y0056606D01*
X0378131Y0056873D01*
X0378415Y0057133D01*
X0378705Y0057387D01*
X0379000Y0057633D01*
X0379302Y0057873D01*
X0379609Y0058105D01*
X0379921Y0058330D01*
X0380239Y0058547D01*
X0380562Y0058756D01*
X0380890Y0058958D01*
X0381222Y0059152D01*
X0381559Y0059339D01*
X0381900Y0059517D01*
X0382246Y0059686D01*
X0382595Y0059848D01*
X0395595Y0076348D02*
X0395595Y0082848D01*
X0395596Y0076348D02*
X0395405Y0075701D01*
X0395199Y0075060D01*
X0394977Y0074424D01*
X0394739Y0073794D01*
X0394486Y0073170D01*
X0394218Y0072552D01*
X0393934Y0071941D01*
X0393636Y0071337D01*
X0393323Y0070740D01*
X0392996Y0070152D01*
X0392654Y0069571D01*
X0392298Y0068999D01*
X0391928Y0068436D01*
X0391544Y0067883D01*
X0391147Y0067339D01*
X0390737Y0066804D01*
X0390313Y0066280D01*
X0389877Y0065767D01*
X0389429Y0065265D01*
X0388968Y0064773D01*
X0388495Y0064293D01*
X0388011Y0063825D01*
X0387515Y0063369D01*
X0387009Y0062925D01*
X0386491Y0062494D01*
X0385963Y0062075D01*
X0385425Y0061670D01*
X0384878Y0061278D01*
X0384320Y0060899D01*
X0383754Y0060534D01*
X0383179Y0060184D01*
X0382595Y0059847D01*
X0330095Y0033348D02*
X0323095Y0036348D01*
X0316595Y0036348D01*
X0306095Y0048848D01*
X0293095Y0048848D01*
X0287595Y0045348D01*
X0284595Y0042848D02*
X0283595Y0044848D01*
X0284595Y0042848D02*
X0284595Y0041348D01*
X0299595Y0027348D01*
X0304095Y0022848D01*
X0324095Y0022848D01*
X0326532Y0019742D01*
X0317595Y0026848D02*
X0315595Y0024348D01*
X0305095Y0024348D01*
X0301595Y0027848D01*
X0301595Y0029348D01*
X0299095Y0031848D01*
X0298595Y0031848D01*
X0291095Y0039848D01*
X0291095Y0043348D01*
X0294595Y0045348D02*
X0294595Y0039348D01*
X0299595Y0034348D01*
X0303595Y0034348D01*
X0305095Y0032848D01*
X0305095Y0027348D01*
X0306095Y0026348D01*
X0311095Y0026348D01*
X0314595Y0029348D01*
X0317595Y0030348D01*
X0318595Y0029848D01*
X0320095Y0028848D01*
X0321095Y0026848D01*
X0322095Y0026348D01*
X0323095Y0026348D01*
X0323595Y0027348D01*
X0321595Y0030348D02*
X0320095Y0030848D01*
X0318595Y0031848D01*
X0317595Y0034348D01*
X0316595Y0034348D01*
X0315595Y0031348D01*
X0314095Y0031348D01*
X0313095Y0036848D01*
X0311095Y0036848D01*
X0311095Y0033348D01*
X0307595Y0033348D01*
X0305095Y0036348D01*
X0300595Y0036348D01*
X0298095Y0038848D01*
X0298095Y0043348D01*
X0321595Y0030348D02*
X0326595Y0030348D01*
M02*
